<svg xmlns="http://www.w3.org/2000/svg" width="16" height="16" viewBox="0 0 16 16">
    <g fill="none" fill-rule="evenodd">
        <path d="M0 0h16v16H0z"/>
        <g fill="currentColor" fill-rule="nonzero">
            <path d="M9.541 4.365c.207-.407.565-.682.867-1 .46-.485.938-.954 1.405-1.432.155-.16.394-.392.176-.561-.683-.53-1.203-1.347-2.22-1.33-.923.015-1.853.076-2.77-.002-.993-.084-1.773.215-2.496.881-.69.635-.72.594-.03 1.307.68.704 1.428 1.345 2.032 2.145C2.917 5.689 2.143 8.638 2.56 10.8c.494 2.555 2.666 4.367 5.264 4.446a5.509 5.509 0 0 0 5.52-4.13c.72-2.8-.587-5.132-3.803-6.751zm-.352-.156l.626-2.362h1.247L9.189 4.21zM10.206.47l.812.967h-1.25L8.958.468h1.249zM7.875.436h.468l.375.968H7.5l.375-.968zm.833 1.453l-.63 2.357-.63-2.357h1.26zM5.877.437h1.249l-.812.937h-1.25l.813-.937zM4.946 1.78h1.247l.626 2.362L4.946 1.78zm3.148 3.208s-.15.034 0 0c.214-.048.569.036.8.097 2.897.807 4.265 2.822 4.041 5.19-.217 2.308-2.11 4.132-4.427 4.348-2.624.244-4.963-1.512-5.406-4.062-.417-2.396 1.174-4.788 3.57-5.418.253-.066.812-.21 1.047-.178l.375.023z"/>
            <path d="M7.744 5.426c1.791.155 3.028.81 3.76 1.763.781 1.014 1.061 2.17.836 3.422-.355 1.969-2.14 3.457-4.193 3.513-2.13.059-3.91-1.274-4.444-3.318-.251-.962-.141-1.906.306-2.843.688-1.44 2.072-2.348 3.735-2.537zM4.55 9.754c.004 1.857 1.583 3.414 3.446 3.4A3.41 3.41 0 0 0 11.37 9.7c-.022-1.827-1.55-3.348-3.382-3.366C6.15 6.316 4.546 7.91 4.55 9.755z"/>
        </g>
    </g>
</svg>
