<svg xmlns="http://www.w3.org/2000/svg" width="16" height="16" viewBox="0 0 16 16">
    <g fill="none" fill-rule="evenodd">
        <path d="M0 0h16v16H0z"/>
        <path fill="currentColor" fill-rule="nonzero" d="M.727 3.429C.326 3.429 0 3.173 0 2.857c0-.315.326-.571.727-.571h14.546c.401 0 .727.256.727.571 0 .316-.326.572-.727.572H.727zM2.91 6.857c-.402 0-.727-.256-.727-.571 0-.316.325-.572.727-.572h10.182c.402 0 .727.256.727.572 0 .315-.325.571-.727.571H2.909zm2.182 3.429c-.402 0-.727-.256-.727-.572 0-.315.325-.571.727-.571h5.818c.402 0 .727.256.727.571 0 .316-.325.572-.727.572H5.091zm2.182 3.428c-.402 0-.728-.256-.728-.571 0-.316.326-.572.728-.572h1.454c.402 0 .728.256.728.572 0 .315-.326.571-.728.571H7.273z"/>
    </g>
</svg>
