<svg xmlns="http://www.w3.org/2000/svg" width="16" height="16" viewBox="0 0 16 16">
    <g fill="none" fill-rule="evenodd">
        <path d="M0 0h16v16H0z"/>
        <path fill="currentColor" fill-rule="nonzero" d="M8 2.286c1.016 0 1.856.817 2.021 1.89h3.419c.213 0 .394.153.43.362l.477 2.751c.033.284-.104.415-.387.518l.89 5.089a.437.437 0 0 1-.43.512H1.58a.437.437 0 0 1-.43-.512l.89-5.09c-.283-.102-.42-.233-.385-.528l.475-2.74a.437.437 0 0 1 .43-.362h3.419c.165-1.073 1.005-1.89 2.02-1.89zm-1.131 1.89h2.263C8.989 3.577 8.526 3.159 8 3.159c-.526 0-.99.418-1.131 1.017zM2.576 7.077c1.435.59 3.43.915 5.429.897 1.998.02 3.961-.3 5.418-.897l-.35-2.028H2.927l-.35 2.028zm6.674.014c-.025.364-.59.535-1.245.535-.67 0-1.239-.172-1.255-.55 0-.366.559-.547 1.247-.548.598-.014 1.237.143 1.253.563zm-1.245.108c.423 0 .817-.12.817-.114 0-.02-.483-.137-.817-.13-.454.001-.826.121-.827.112 0 .012.395.132.827.132zm-5.906 5.336h11.802l-.774-4.422c-1.44.49-3.378.764-5.128.734-1.74.013-3.703-.244-5.126-.733l-.774 4.421z"/>
    </g>
</svg>
