<svg xmlns="http://www.w3.org/2000/svg" width="16" height="16" viewBox="0 0 16 16">
    <g fill="none" fill-rule="evenodd">
        <path d="M0 0h16v16H0z"/>
        <path fill="currentColor" fill-rule="nonzero" d="M8.707 4.88l6.418 9.627a.446.446 0 0 1-.37.693H1.588a.445.445 0 0 1-.371-.693L7.636 4.88l-2.03-3.044a.446.446 0 0 1 .742-.494l1.823 2.735 1.824-2.735a.445.445 0 1 1 .742.494L8.707 4.88zm-.287 8.88l.746.746v-.574l-.172-.172H8.42zm-.564.212a.45.45 0 0 1-.13-.315v-1.819l-1.647 2.47h2.114l-.337-.336zm2.409.337l-1.648-2.471v1.374h.652c.246 0 .445.199.445.445v.652h.55zm3.657 0l-5.75-8.625-5.75 8.625h2.585L7.8 10.12c.019-.022.029-.034.036-.04.084-.1.203-.16.335-.16.131 0 .25.059.335.159l.036.04 2.794 4.19h2.586z"/>
    </g>
</svg>
