<svg xmlns="http://www.w3.org/2000/svg" width="16" height="16" viewBox="0 0 16 16">
    <g fill="none" fill-rule="evenodd">
        <path d="M0 0h16v16H0z"/>
        <path fill="currentColor" fill-rule="nonzero" d="M14.277 11.143l-.074-.207a2.178 2.178 0 0 0-2.047-1.455c-.925 0-1.738.589-2.046 1.455l-.074.207h-3.24l-.074-.207a2.178 2.178 0 0 0-2.047-1.455c-.925 0-1.737.589-2.046 1.455l-.074.207H1.04V10c0-1.089.885-1.974 1.974-1.974h11.84l.038.267c.046.321.07.6.07.876v1.974h-.684zm-2.121 1.662c-.63 0-1.143-.513-1.143-1.143s.513-1.143 1.143-1.143 1.143.513 1.143 1.143-.513 1.143-1.143 1.143zm-7.48 0c-.63 0-1.144-.513-1.144-1.143s.513-1.143 1.143-1.143 1.143.513 1.143 1.143-.513 1.143-1.143 1.143zm3.636-5.818H4.378l.076-.374a4.48 4.48 0 0 1 3.484-3.484l.374-.076v3.934zm1.039 0v-3.93l.356.052A6.136 6.136 0 0 1 14.36 6.54l.213.446H9.351zM8.83 2a5.515 5.515 0 0 0-5.45 4.72l-.039.267h-.329A3.016 3.016 0 0 0 0 10v1.662c0 .287.233.52.52.52h2.035l.074.207a2.176 2.176 0 0 0 2.046 1.455c.925 0 1.738-.589 2.047-1.455l.074-.207h3.24l.074.207a2.176 2.176 0 0 0 2.046 1.455c.925 0 1.737-.589 2.047-1.455l.074-.207h1.204a.52.52 0 0 0 .519-.52V9.17C16 5.217 12.783 2 8.831 2z"/>
    </g>
</svg>
