<svg width="56" height="56" viewBox="0 0 56 56" fill="none" xmlns="http://www.w3.org/2000/svg">
<g filter="url(#filter0_d)">
<circle cx="27" cy="26" r="18" fill="url(#paint0_linear)"/>
</g>
<g filter="url(#filter1_d)">
<path fill-rule="evenodd" clip-rule="evenodd" d="M28.2199 19.0769C28.2199 17.9723 27.3245 17.0769 26.2199 17.0769C25.1153 17.0769 24.2199 17.9723 24.2199 19.0769V24.1429H19.1539C18.0493 24.1429 17.1539 25.0383 17.1539 26.1429C17.1539 27.2474 18.0493 28.1429 19.1539 28.1429H24.2199V33.2088C24.2199 34.3134 25.1153 35.2088 26.2199 35.2088C27.3245 35.2088 28.2199 34.3134 28.2199 33.2088V28.1429H33.2858C34.3904 28.1429 35.2858 27.2474 35.2858 26.1429C35.2858 25.0383 34.3904 24.1429 33.2858 24.1429H28.2199V19.0769Z" fill="white"/>
</g>
<defs>
<filter id="filter0_d" x="0" y="0" width="56" height="56" filterUnits="userSpaceOnUse" color-interpolation-filters="sRGB">
<feFlood flood-opacity="0" result="BackgroundImageFix"/>
<feColorMatrix in="SourceAlpha" type="matrix" values="0 0 0 0 0 0 0 0 0 0 0 0 0 0 0 0 0 0 127 0"/>
<feOffset dx="1" dy="2"/>
<feGaussianBlur stdDeviation="5"/>
<feColorMatrix type="matrix" values="0 0 0 0 0 0 0 0 0 0.631373 0 0 0 0 0.988235 0 0 0 0.5 0"/>
<feBlend mode="normal" in2="BackgroundImageFix" result="effect1_dropShadow"/>
<feBlend mode="normal" in="SourceGraphic" in2="effect1_dropShadow" result="shape"/>
</filter>
<filter id="filter1_d" x="11.1539" y="11.0769" width="34.1319" height="34.1319" filterUnits="userSpaceOnUse" color-interpolation-filters="sRGB">
<feFlood flood-opacity="0" result="BackgroundImageFix"/>
<feColorMatrix in="SourceAlpha" type="matrix" values="0 0 0 0 0 0 0 0 0 0 0 0 0 0 0 0 0 0 127 0"/>
<feOffset dx="2" dy="2"/>
<feGaussianBlur stdDeviation="4"/>
<feColorMatrix type="matrix" values="0 0 0 0 0 0 0 0 0 0 0 0 0 0 0 0 0 0 0.25 0"/>
<feBlend mode="normal" in2="BackgroundImageFix" result="effect1_dropShadow"/>
<feBlend mode="normal" in="SourceGraphic" in2="effect1_dropShadow" result="shape"/>
</filter>
<linearGradient id="paint0_linear" x1="27" y1="8" x2="27" y2="44" gradientUnits="userSpaceOnUse">
<stop stop-color="#13CEE8"/>
<stop offset="1" stop-color="#00A1FC"/>
</linearGradient>
</defs>
</svg>
