<svg xmlns="http://www.w3.org/2000/svg" width="15" height="15" viewBox="0 0 15 15">
    <g fill="currentColor" fill-rule="nonzero">
        <path d="M7.5 3.214a2.657 2.657 0 0 0-2.593 2.25.332.332 0 0 0 .279.375.321.321 0 0 0 .375-.268A2.014 2.014 0 0 1 7.5 3.868c.984.007 1.82.722 1.982 1.693a2.143 2.143 0 0 1-.857 2.046c-.171.16-.429.407-.718.707l-.3.343a2.86 2.86 0 0 0-.471 1.982c.01.171.15.306.321.311H7.5a.332.332 0 0 0 .31-.343 2.368 2.368 0 0 1 .322-1.532l.279-.31c.268-.29.514-.515.653-.654a2.754 2.754 0 0 0 1.072-2.657A2.679 2.679 0 0 0 7.5 3.214zM7.5 11.529a.321.321 0 0 0-.321.321v.096a.321.321 0 0 0 .321.333.332.332 0 0 0 .332-.333v-.096a.332.332 0 0 0-.332-.321z"/>
        <path d="M7.5 0a7.5 7.5 0 1 0 0 15 7.5 7.5 0 0 0 0-15zm0 14.421A6.89 6.89 0 1 1 7.564.643 6.89 6.89 0 0 1 7.5 14.421z"/>
    </g>
</svg>
