<svg xmlns="http://www.w3.org/2000/svg" width="16" height="16" viewBox="0 0 16 16">
    <g fill="none" fill-rule="evenodd">
        <path d="M0 0h16v16H0z"/>
        <path fill="currentColor" fill-rule="nonzero" d="M15.293 9.603V8.294c0-2.145-.61-3.942-1.789-5.194-1.203-1.28-2.943-1.957-5.054-1.957h-.984c-2.111 0-3.833.678-5.036 1.957C1.252 4.352.66 6.15.66 8.294v1.393C.28 10.22 0 10.999 0 11.85c0 1.861 1.052 3.164 2.664 3.164h.24c.209 0 .418.179.692.179.71 0 1.245-.632 1.245-1.343V9.572c0-.711-.534-1.26-1.245-1.26-.369 0-.658.052-.893.432h-.039c-.123 0-.294-.048-.294-.034v-.927c0-1.476.532-2.73 1.601-3.626 1.02-.855 2.43-1.325 4.004-1.325 1.573 0 2.977.47 3.996 1.325 1.07.895 1.611 2.15 1.611 3.626v.919c0-.01-.164.042-.265.042h-.038c-.236-.38-.539-.433-.907-.433-.711 0-1.26.55-1.26 1.26v4.28c0 .711.549 1.342 1.26 1.342.273 0 .497-.178.705-.178h.24c1.612 0 2.683-1.303 2.683-3.164 0-.898-.327-1.706-.707-2.248zM2.94 9.572c0-.342.323-.62.665-.62.341 0 .665.279.665.62v4.28c0 .34-.324.618-.665.618-.342 0-.665-.278-.665-.619v-4.28zm-.525 4.653C1.118 14.082.645 12.857.645 11.798c0-1.047.466-2.257 1.733-2.421-.01.063-.008.129-.008.195v4.28c0 .13.01.255.046.373zM12.438 3.643c-1.14-.955-2.735-1.481-4.465-1.481s-3.33.526-4.47 1.48C2.277 4.67 1.61 6.103 1.61 7.784v1.1c-.19.052-.19.114-.38.186v-.775c0-4.056 2.356-6.391 6.236-6.391h.984c3.88 0 6.273 2.335 6.273 6.391v.735c-.19-.067-.38-.125-.38-.172V7.784c0-1.682-.678-3.114-1.905-4.141zm.574 10.208c0 .341-.324.619-.665.619s-.665-.278-.665-.619v-4.28c0-.34.324-.618.665-.618s.665.277.665.619v4.28zm.54.374c.035-.118.03-.244.03-.374v-4.28c0-.066.058-.13.048-.194.433.056.713.234 1.093.487v.02h-.044c.473.57.65 1.234.65 1.908 0 1.059-.48 2.29-1.777 2.433z"/>
    </g>
</svg>
