<svg xmlns="http://www.w3.org/2000/svg" width="16" height="16" viewBox="0 0 16 16">
    <g fill="none" fill-rule="evenodd">
        <path d="M0 0h16v16H0z"/>
        <path fill="currentColor" fill-rule="nonzero" d="M15.352 10.163c0 2.036-3.38 3.59-7.676 3.59S0 12.199 0 10.163v-5.43c0-2.036 3.38-3.59 7.676-3.59 2.775 0 5.24.654 6.529 1.698h.602c.658 0 1.193.535 1.193 1.193v.893c0 .452-.255.858-.648 1.06v4.176zm-2.389-7.322c-1.336-.65-3.258-1.04-5.287-1.04-3.81 0-7.018 1.37-7.018 2.931 0 1.562 3.208 2.932 7.018 2.932 2.54 0 4.89-.614 6.133-1.545h-1.45c-.056 0-.114-.005-.117-.021-1.22.5-2.87.784-4.566.784-1.784 0-3.512-.312-4.745-.86-.934-.414-1.492-.935-1.492-1.29 0-.354.558-.875 1.492-1.29 1.233-.547 2.961-.86 4.745-.86 1.398 0 2.772.195 3.904.55.215-.186.49-.29.78-.29h.603zm-1.796 2.086v-.893c0-.111.016-.22.046-.326-1.035-.302-2.274-.468-3.537-.468-1.696 0-3.33.294-4.478.803-.57.254-.9.494-1.056.69.156.195.486.435 1.056.688 1.149.51 2.782.803 4.478.803 1.365 0 2.695-.19 3.767-.536a1.186 1.186 0 0 1-.276-.761zm3.527 5.236V6.218c-1.202 1.28-3.904 2.104-7.018 2.104-3.117 0-5.817-.826-7.018-2.102v3.943c0 1.562 3.209 2.932 7.018 2.932 3.81 0 7.018-1.37 7.018-2.932zm.648-5.236v-.893a.536.536 0 0 0-.535-.535H12.36a.535.535 0 0 0-.535.535v.893c0 .295.24.535.535.535h2.447c.295 0 .535-.24.535-.535zm-6.859 4.21c1.282 0 2.266.63 2.266 1.494 0 .863-.984 1.495-2.266 1.495-.79 0-1.642-.452-2.403-1.063l-.934.803-.159-.012-.282-.327.012-.16.856-.736-.856-.736-.012-.16.282-.327.16-.012.933.803c.761-.612 1.614-1.063 2.403-1.063zm0 2.33c.911 0 1.608-.384 1.608-.836 0-.452-.697-.837-1.608-.837-.567 0-1.245.347-1.885.837.64.49 1.318.837 1.885.837z"/>
    </g>
</svg>
