<svg xmlns="http://www.w3.org/2000/svg" width="16" height="16" viewBox="0 0 16 16">
    <g fill="none" fill-rule="evenodd">
        <path d="M0 0h16v16H0z"/>
        <path fill="currentColor" fill-rule="nonzero" d="M15.964 6.138c.18 1.014-.333 2.016-1.233 2.443v5.37h-1.24v.906h-2.476l-.194-.115-.439-.792H5.495l-.439.792-.193.115H2.385v-.907H1.273V8.582A2.242 2.242 0 0 1 .019 6.834a2.27 2.27 0 0 1 .897-2.118 2.147 2.147 0 0 1 1.924-.32V3.233c0-1.153.913-2.088 2.038-2.09h6.173c1.12.007 2.025.937 2.029 2.085v1.195c.234-.085.482-.128.732-.127 1.057.002 1.962.777 2.152 1.843zm-11.36 8.336l.14-.115.272-.455H2.801l.003.57h1.8zm6.705.04h1.769v-.61H10.83l.28.497.2.113zM3.622 4.837c.45.395.726.963.761 1.585v2.3h7.247V6.422a2.278 2.278 0 0 1 .67-1.507V3.233c0-.71-.56-1.286-1.25-1.291H4.878c-.695 0-1.258.578-1.259 1.29l.003 1.605zm.763 4.685v1.238h7.237V9.522H4.385zm9.535-1.508l.302-.095a1.45 1.45 0 0 0 .975-1.64 1.42 1.42 0 0 0-1.473-1.188A1.427 1.427 0 0 0 12.4 6.436v5.116H3.599v-5.11c-.05-.73-.622-1.306-1.333-1.344A1.42 1.42 0 0 0 .8 6.29a1.45 1.45 0 0 0 .976 1.636l.275.087v5.138h11.899V8.057l-.031-.043z"/>
    </g>
</svg>
