<svg xmlns="http://www.w3.org/2000/svg" width="16" height="16" viewBox="0 0 16 16">
    <g fill="none" fill-rule="evenodd">
        <path d="M0 0h16v16H0z"/>
        <path fill="currentColor" fill-rule="nonzero" d="M12.22 11.224l-.542-.134.422-.37A5.54 5.54 0 0 0 14 6.543C14 3.486 11.532 1 8.5 1S3 3.486 3 6.542c0 1.62.701 3.129 1.9 4.179l.422.369-.543.134a.433.433 0 0 0-.286.226l-1.447 2.916a.443.443 0 0 0 .019.427c.079.128.219.207.37.207h10.13c.151 0 .29-.078.37-.207a.44.44 0 0 0 .019-.426l-1.448-2.917a.432.432 0 0 0-.285-.226zm-7.07.86h6.7l1.013 2.041H4.137l1.013-2.042zM3.868 6.541c0-2.574 2.077-4.667 4.632-4.667 2.554 0 4.632 2.093 4.632 4.667 0 2.573-2.078 4.666-4.632 4.666-2.555 0-4.632-2.092-4.632-4.666zm5.79-1.459c0-.644-.52-1.166-1.158-1.166-.64 0-1.158.522-1.158 1.166 0 .644.519 1.167 1.158 1.167.639 0 1.158-.523 1.158-1.167zM10.96 8.73a2.47 2.47 0 0 1-2.46 2.48 2.47 2.47 0 0 1-2.46-2.48A2.47 2.47 0 0 1 8.5 6.25a2.47 2.47 0 0 1 2.46 2.48z"/>
    </g>
</svg>
