<svg xmlns="http://www.w3.org/2000/svg" width="16" height="16" viewBox="0 0 16 16">
    <g fill="none" fill-rule="evenodd">
        <path d="M0 0h16v16H0z"/>
        <g fill="currentColor" fill-rule="nonzero">
            <path d="M6.837 8.4l.058.06a.35.35 0 0 1 0 .494l-.713.712c.338.43.308 1.053-.087 1.447l-.33.284-.026.085-2.506 3.132a.352.352 0 0 1-.26.13.358.358 0 0 1-.26-.102l-2.61-2.604a.35.35 0 0 1 .028-.52L3.34 8.981l-.066.033.364-.364a1.092 1.092 0 0 1 1.447-.087l.715-.715a.357.357 0 0 1 .492.002l.058.058 5.634-5.643a.35.35 0 0 1 .491.497L6.837 8.401zm-.879-.054l-.613.613v.16l.278.277h.16l.613-.613v-.16l-.277-.277h-.16zm-2.496 1.4L.874 11.81l.128.129 1.37-1.094a.352.352 0 0 1 .437.551l-1.31 1.044.155.155.593-.593a.35.35 0 1 1 .497.491l-.596.596.155.155 1.048-1.311a.35.35 0 0 1 .542.44L2.8 13.744l.128.128 2.064-2.588-1.53-1.536zm.671-.61l-.146.144 1.477 1.479.144-.141a.394.394 0 0 0 0-.557l-.917-.924a.406.406 0 0 0-.558 0z"/>
            <path d="M15.664 9.367c.373.387.377.999.014 1.393l-3.747 3.746a.954.954 0 0 1-.69.285.98.98 0 0 1-.868-1.425 2.962 2.962 0 0 1-.016-3.78L3.522 2.75a.306.306 0 0 1 0-.44.306.306 0 0 1 .44 0l6.837 6.825a2.951 2.951 0 0 1 3.725.054.98.98 0 0 1 1.14.178zm-4.89 3.51l3.263-3.275a2.32 2.32 0 0 0-3.059.204 2.364 2.364 0 0 0-.204 3.071zm4.563-2.82c0-.11-.032-.192-.093-.244a.38.38 0 0 0-.256-.105.325.325 0 0 0-.25.099l-3.741 3.74a.38.38 0 0 0-.105.256c0 .106.03.182.099.25.128.128.36.128.487 0l3.743-3.743a.51.51 0 0 0 .116-.253z"/>
            <path d="M10.681 11.942a2.01 2.01 0 0 1 .532-1.873.306.306 0 0 1 .44 0 .306.306 0 0 1 0 .44 1.317 1.317 0 0 0-.354 1.28c.042.168-.062.336-.257.381h-.053a.313.313 0 0 1-.308-.228z"/>
        </g>
    </g>
</svg>
