<svg xmlns="http://www.w3.org/2000/svg" width="16" height="16" viewBox="0 0 16 16">
    <g fill="none" fill-rule="evenodd">
        <path d="M0 0h16v16H0z"/>
        <path fill="currentColor" fill-rule="nonzero" d="M7.985 7.111c-.435 0-.817-.348-.922-.695h1.843c-.104.347-.47.695-.921.695zm-.922-1.217c.122-.522.487-.695.922-.695.434 0 .817.173.921.695H7.063zm8.85-.278c.07-.07.087-.174.087-.278a.338.338 0 0 0-.156-.244L8.194.052a.377.377 0 0 0-.383 0L.161 5.094a.338.338 0 0 0-.157.244.32.32 0 0 0 .087.278L1.465 7.11v5.911h-.087c-.191 0-.435.157-.435.348v1.46c0 .192.226.279.435.279h13.196c.192 0 .296-.087.296-.278v-1.46c0-.192-.104-.349-.296-.349h-.07V7.163l1.41-1.547zm-1.756 8.797H1.639v-.695h12.518v.695zM7.985 8.206c-.974 0-1.826.8-1.826 1.774v3.042H2.16V6.45l5.825-3.686 5.824 3.686v6.572H9.81V9.98c0-.991-.852-1.774-1.825-1.774zm1.13 1.774v3.042h-2.26V9.98c0-.591.539-1.078 1.13-1.078.591 0 1.13.47 1.13 1.078zm5.338-3.825a.365.365 0 0 0-.14-.191L8.16 2.069a.345.345 0 0 0-.365 0L1.62 5.964a.31.31 0 0 0-.121.139l-.626-.678L7.984.73l7.112 4.695-.643.73zM3.55 8.658c0-.243.122-.504.383-.504h.452c.243 0 .382.261.382.504v1.409H3.551V8.658zm7.476 0c0-.243.261-.504.522-.504h.452c.244 0 .417.261.417.504v1.409h-1.39V8.658z"/>
    </g>
</svg>
