<svg xmlns="http://www.w3.org/2000/svg" width="16" height="16" viewBox="0 0 16 16">
    <g fill="none" fill-rule="evenodd">
        <path d="M0 0h16v16H0z"/>
        <path fill="currentColor" fill-rule="nonzero" d="M9.645.63V.573c0-.316.257-.573.573-.573h4.045c.316 0 .573.257.573.573v8.378a3.4 3.4 0 0 1-1.518 2.835l-4.433 2.862c-.652.435-1.646.722-2.529.722-.193 0-.383-.016-.567-.046-.653.41-1.607.676-2.458.676-.847 0-1.526-.256-1.883-.784a2.58 2.58 0 0 1-.4-1.946c.13-.681.519-1.27 1.093-1.66l3.972-2.692c.318-.215.507-.572.507-.956V1.203c0-.316.257-.573.574-.573h2.451zM7.39 2.088h2.256v-.69H7.39v.69zM4.82 14.945a1.466 1.466 0 0 1-.349-.36 2.599 2.599 0 0 1 .693-3.605l3.973-2.692c.318-.215.507-.573.507-.956V2.856H7.39v5.106c0 .639-.316 1.234-.845 1.592l-3.972 2.692a1.815 1.815 0 0 0-.77 1.169c-.092.48.008.966.282 1.37.373.55 1.664.577 2.737.16zm9.247-12.72h-3.654v5.107c0 .638-.316 1.233-.845 1.592l-3.973 2.692a1.83 1.83 0 0 0-.488 2.539c.118.174.326.3.613.374.074.02.156.035.246.047.093.012.19.02.29.022.752.02 1.657-.226 2.207-.592l3.05-1.97c-.248-.375-.349-.85-.294-1.355.027-.24.088-.483.182-.72.13-.323.318-.63.558-.902.575-.653 1.366-1.03 2.108-1.01V2.225zm-1.172 8.918a2.63 2.63 0 0 0 1.172-2.192V8.82c-.514-.024-1.096.252-1.531.746-.593.674-.727 1.541-.376 2.052l.735-.475zm1.172-9.685v-.69h-3.654v.69h3.654z"/>
    </g>
</svg>
