<svg xmlns="http://www.w3.org/2000/svg" width="16" height="16" viewBox="0 0 16 16">
    <g fill="none" fill-rule="evenodd">
        <path d="M0 0h16v16H0z"/>
        <g fill="currentColor" fill-rule="nonzero">
            <path d="M9.004 5.486c.816 0 1.478.667 1.46 1.476v1.991a1.48 1.48 0 0 1-1.477 1.476H6.996A1.48 1.48 0 0 1 5.52 8.953V6.962a1.48 1.48 0 0 1 1.476-1.476h2.008zm.55 3.484V6.962a.569.569 0 0 0-.567-.567H6.996a.569.569 0 0 0-.567.567V8.97c0 .312.255.567.567.567h2.008a.569.569 0 0 0 .567-.55l-.017-.017z"/>
            <path d="M15.54 5.872c.188 0 .34-.153.34-.34a.341.341 0 0 0-.34-.34h-2.434v-.29c0-1.123-.919-2.042-2.042-2.042h-.255V.46a.341.341 0 0 0-.34-.34.341.341 0 0 0-.341.34v2.383H8.34V.46A.341.341 0 0 0 8 .12a.341.341 0 0 0-.34.34v2.383H5.872V.46a.341.341 0 0 0-.34-.34.341.341 0 0 0-.34.34v2.383h-.256c-1.123 0-2.042.919-2.042 2.042v.29H.46a.341.341 0 0 0-.34.34c0 .187.152.34.34.34h2.434V7.66H.46A.341.341 0 0 0 .12 8c0 .187.152.34.34.34h2.434v1.788H.46a.341.341 0 0 0-.34.34c0 .187.152.34.34.34h2.434v.222c0 1.123.919 2.042 2.042 2.042h.255v2.468c0 .188.154.34.34.34.188 0 .341-.152.341-.34v-2.468H7.66v2.468c0 .188.153.34.34.34.187 0 .34-.152.34-.34v-2.468h1.788v2.468c0 .188.153.34.34.34.187 0 .34-.152.34-.34v-2.468h.256c1.123 0 2.042-.919 2.042-2.042v-.221h2.434c.188 0 .34-.154.34-.34a.341.341 0 0 0-.34-.341h-2.434V8.34h2.434c.188 0 .34-.153.34-.34a.341.341 0 0 0-.34-.34h-2.434V5.872h2.434zm-3.114 5.158c0 .749-.613 1.361-1.362 1.361H4.936a1.366 1.366 0 0 1-1.362-1.361V4.902c0-.749.613-1.362 1.362-1.362h6.128c.749 0 1.362.613 1.362 1.362v6.128z"/>
        </g>
    </g>
</svg>
