<svg xmlns="http://www.w3.org/2000/svg" width="16" height="16" viewBox="0 0 16 16">
    <g fill="none" fill-rule="evenodd">
        <path d="M0 0h16v16H0z"/>
        <path fill="currentColor" d="M3.376 10.633a5.134 5.134 0 0 1-1.04-1.677l1.451.34-.41 1.337zm2.382-.875l-.646 2.106a5.099 5.099 0 0 1-1.032-.6l.543-1.772 1.135.266zm6.132-.638a5.115 5.115 0 0 1-.602 1.054L2.08 8.016A5.202 5.202 0 0 1 2 7.14c0-.113.01-.223.017-.334L11.89 9.12zm.385-2.192c.018.435.005.808-.126 1.373L2.143 5.955c.107-.455.271-.888.49-1.287l9.642 2.26zm-5.132 5.354c-.42 0-.826-.056-1.217-.15l.669-2.178 1.332.312-.616 2.008c-.057.001-.111.008-.168.008zM5.987 2.132l-.7 2.278-2.142-.502a5.14 5.14 0 0 1 2.842-1.776zm4.883 1.47a5.129 5.129 0 0 1 1.29 2.419l-1.896-.445.606-1.974zM8.113 2.091L7.26 4.872l-1.135-.266.798-2.598c.37-.016.67-.016 1.191.083zm1.314 3.29l-1.331-.313.842-2.743c.44.164.852.387 1.225.659L9.427 5.38zm2.859 5.758c.945 0 1.714.77 1.714 1.715 0 .945-.77 1.714-1.714 1.714h-8v-1.143h8a.572.572 0 0 0 0-1.143H8.205l.559-1.82 1.877.44c-.092.085-.194.16-.291.237h1.936z"/>
    </g>
</svg>
