<svg xmlns="http://www.w3.org/2000/svg" width="16" height="16" viewBox="0 0 16 16">
    <g fill="none" fill-rule="evenodd">
        <path d="M0 0h16v16H0z"/>
        <path fill="currentColor" fill-rule="nonzero" d="M3.118 6.387a.593.593 0 0 1-.5-.275L1.091 3.708a.59.59 0 0 1 .22-.835l2.553-1.37a4.235 4.235 0 0 1 2-.503h4.27a4.24 4.24 0 0 1 2 .502l2.553 1.371a.589.589 0 0 1 .22.836l-1.526 2.404a.595.595 0 0 1-.501.274h-.338a32.364 32.364 0 0 1-.117 1.386l-.01.09-.008.086-.01.094c-.106 1.064-.145 1.743-.145 2.56 0 1.045.37 2.699.878 4a.587.587 0 0 1-.37.767c-1.209.396-2.93.63-4.761.63-1.829 0-3.57-.236-4.76-.63a.59.59 0 0 1-.371-.768 19.448 19.448 0 0 0 .44-1.385c.144-.524.254-1.013.329-1.459.072-.435.108-.821.108-1.155 0-.895-.038-1.518-.172-2.83-.06-.59-.078-.788-.098-1.068-.008-.11-.015-.216-.02-.318h-.338zM8 3.594c.871 0 1.55-.638 1.699-1.604H6.3c.149.966.828 1.604 1.7 1.604zM8 15.01c1.449 0 2.841-.164 4.05-.47-.515-1.52-.796-2.887-.796-3.937 0-.932.04-1.573.178-2.93.072-.713.093-.955.11-1.286.012-.207.017-.401.017-.59 0-.223.183-.4.42-.4l.599.04.077-.039 1.179-1.857-2.175-1.168a3.214 3.214 0 0 0-1.142-.36c-.17 1.412-1.19 2.38-2.517 2.38-1.329 0-2.347-.968-2.517-2.38-.4.047-.79.17-1.143.36L2.164 3.541l1.102 1.813.072.041h.696c.223 0 .406.178.406.4 0 .19.005.384.017.59.017.332.038.574.11 1.287.139 1.357.178 1.998.178 2.93 0 1.05-.28 2.417-.796 3.936 1.209.307 2.602.47 4.05.47z"/>
    </g>
</svg>
