<svg xmlns="http://www.w3.org/2000/svg" width="16" height="16" viewBox="0 0 16 16">
    <g fill="none" fill-rule="evenodd">
        <path d="M0 0h16v16H0z"/>
        <path fill="currentColor" fill-rule="nonzero" d="M9.44 1.407a5.505 5.505 0 0 1-2.87.014L8 3.568l1.44-2.16zM10.583.003a4.479 4.479 0 0 1 1.673.288c.547.21 1 .528 1.315.979.3.431.622 1.865 1.033 4.319.142.849.29 1.801.444 2.838a289.484 289.484 0 0 1 .948 7.046.47.47 0 0 1-.468.527H13.43a.47.47 0 0 1-.456-.356l-.966-3.85.037 2.508a.47.47 0 0 1-.47.478h-7.15a.47.47 0 0 1-.47-.478l.038-2.507-.966 3.849A.47.47 0 0 1 2.57 16H.47a.47.47 0 0 1-.467-.527l.076-.606a329.207 329.207 0 0 1 .872-6.44c.153-1.038.302-1.992.445-2.842.41-2.451.732-3.884 1.033-4.315.314-.45.767-.77 1.315-.98A4.46 4.46 0 0 1 5.369 0l.047.004c.107-.014.22.01.317.073.097.064.301.17.594.28 1.195.448 2.556.448 3.986-.303a.468.468 0 0 1 .27-.051zm4.404 14.98a328.613 328.613 0 0 0-.87-6.419c-.152-1.03-.3-1.977-.441-2.82-.37-2.213-.7-3.682-.877-3.935-.196-.281-.496-.492-.88-.64a3.59 3.59 0 0 0-1.043-.222l-2.485 3.73a.47.47 0 0 1-.784 0L5.123.947a3.588 3.588 0 0 0-1.042.222c-.385.148-.685.359-.88.64-.177.253-.507 1.72-.877 3.932-.141.843-.29 1.79-.442 2.823a288.28 288.28 0 0 0-.879 6.495h1.2L4.067 7.63c.136-.542.936-.437.927.122l-.09 6.085h6.193l-.091-6.085c-.009-.56.79-.664.927-.122l1.864 7.428h1.2l-.01-.076z"/>
    </g>
</svg>
