<svg xmlns="http://www.w3.org/2000/svg" width="16" height="16" viewBox="0 0 16 16">
    <g fill="none" fill-rule="evenodd">
        <path d="M0 0h16v16H0z"/>
        <path fill="currentColor" fill-rule="nonzero" d="M12.08 8.652c-.497.727-.714 1.246-.714 1.945 0 .314.064.552.27 1.109.282.763.406 1.222.475 1.965l.024.264H3.864l.024-.264c.069-.742.192-1.198.476-1.965.206-.557.27-.795.27-1.11 0-.698-.217-1.217-.713-1.944a25.342 25.342 0 0 0-.133-.191c-.549-.785-.715-1.133-.715-1.735 0-.617.57-1.516 1.37-1.733l.151-.041.1.12C5.397 5.916 6.47 6.484 8 6.484c1.531 0 2.605-.568 3.304-1.412l.1-.12.153.04c.799.218 1.37 1.117 1.37 1.734 0 .602-.165.946-.715 1.735a25.37 25.37 0 0 0-.133.191zm.603 1.945h-.244c0-.307.08-.586.241-.886.096-.18.185-.314.415-.645.66-.946.905-1.485.905-2.34 0-1.088-.906-2.425-2.161-2.76l-.18-.049V1h-1.074v3.175l-.046.142C10.072 4.953 9.252 5.42 8 5.42c-1.254 0-2.073-.467-2.538-1.1l-.047-.142V1H4.34v2.917l-.18.049C2.906 4.3 2 5.637 2 6.726c0 .855.246 1.394.905 2.34.23.33.319.466.415.645.16.3.241.579.241.886 0 .166-.044.307-.205.743-.403 1.092-.576 1.852-.576 3.128 0 .293.24.532.537.532h9.366a.535.535 0 0 0 .537-.532c0-1.013-.136-1.812-.385-2.584a12.65 12.65 0 0 0-.191-.544c-.161-.436-.205-.577-.205-.743h.244z"/>
    </g>
</svg>
