<svg xmlns="http://www.w3.org/2000/svg" width="16" height="16" viewBox="0 0 16 16">
    <g fill="none" fill-rule="evenodd">
        <path d="M0 0h16v16H0z"/>
        <path fill="currentColor" fill-rule="nonzero" d="M13.938 4.33l-1.229-2.023-.578.495 1.048 1.679a38.478 38.478 0 0 0-4.732 7.404h-.903c-.416-.861-2.041-4.133-4.714-7.382l1.138-1.7-.56-.517L2.07 4.33s0 .022-.018.022C1.927 4.546-.855 9.238.265 12.81a.34.34 0 0 0 .127.194c.054.043.885.71 2.8.71 1.047 0 2.437-.086 4.19-.947h1.227c1.752.861 3.143.947 4.19.947 1.915-.021 2.764-.71 2.818-.753a.562.562 0 0 0 .127-.172c1.101-3.573-1.698-8.243-1.806-8.459zm1.336 6.565a11.683 11.683 0 0 1-5.454.064c.776-1.42 2.059-3.572 3.774-5.703.506.968 1.662 3.4 1.68 5.639zM2.396 5.277c1.825 2.239 3.143 4.499 3.902 5.92-1.843.43-3.757.387-5.581-.087-.055-2.303 1.156-4.843 1.68-5.833zM.88 12.358a1.87 1.87 0 0 1-.072-.344c.94.215 1.896.344 2.872.344a12.3 12.3 0 0 0 2.944-.366l.09.044c.018.043.054.086.072.129-3.738 1.356-5.508.43-5.906.193zm12.842.474c-.885.129-2.366.129-4.534-.646.055-.107.127-.237.2-.387l.035-.022c.976.237 1.95.366 2.944.366.94 0 1.897-.107 2.818-.323-.036.194-.072.388-.109.56-.162.086-.596.323-1.354.452z"/>
    </g>
</svg>
