<svg xmlns="http://www.w3.org/2000/svg" width="16" height="16" viewBox="0 0 16 16">
    <g fill="none" fill-rule="evenodd">
        <path d="M0 0h16v16H0z"/>
        <path fill="currentColor" fill-rule="nonzero" d="M2.933 4.706h10.134a1 1 0 0 1 1 1l.002 7.412a1 1 0 0 1-1 1H2.933a1 1 0 0 1-1-1V5.706a1 1 0 0 1 1-1zm8.334 10.353H13.6c.772 0 1.4-.634 1.4-1.412v-8.47c0-.78-.628-1.412-1.4-1.412H8.467V.94h2.8V0H4.733v.941h2.8v2.824H2.4c-.772 0-1.4.633-1.4 1.411v8.471c0 .778.628 1.412 1.4 1.412h2.333V16h.934v-.941h4.666V16h.934v-.941zM9.4 7.529h1.867v.942h.933V6.588H9.4v.941z"/>
    </g>
</svg>
