<svg xmlns="http://www.w3.org/2000/svg" width="16" height="16" viewBox="0 0 16 16">
    <g fill="none" fill-rule="evenodd">
        <path d="M0 0h16v16H0z"/>
        <path fill="currentColor" fill-rule="nonzero" d="M13.307 7.5l-.918-.458a.522.522 0 0 0-.753.465v6.13H4.363v-6.13a.52.52 0 0 0-.751-.466l-1.197.6-1.237-2.473 2.757-2.067.187-.062h1.696v.312c0 1.202.98 2.181 2.182 2.181a2.184 2.184 0 0 0 2.181-2.181v-.312h1.698l.187.062 2.756 2.067-1.236 2.472-.28-.14zM9.143 3.35a1.144 1.144 0 0 1-2.286 0V3.04h2.286v.312zm6.649 1.247l-3.325-2.493A.517.517 0 0 0 12.155 2H3.844a.52.52 0 0 0-.312.104L.207 4.597a.519.519 0 0 0-.152.648L1.717 8.57c.13.257.44.361.698.232l.91-.455v5.809c0 .286.232.52.519.52h8.311a.52.52 0 0 0 .52-.52V8.347l.45.225.46.23a.519.519 0 0 0 .698-.232l1.662-3.325a.52.52 0 0 0-.153-.648z"/>
    </g>
</svg>
