<svg xmlns="http://www.w3.org/2000/svg" width="16" height="16" viewBox="0 0 16 16">
    <g fill="none" fill-rule="evenodd">
        <path d="M0 0h16v16H0z"/>
        <path fill="currentColor" fill-rule="nonzero" d="M15.976 13.186l-.19-.499a.362.362 0 0 0 .075-.358L12.408 2.06a.365.365 0 0 0-.202-.219c-.234-.1-2.218-.705-2.613-.825a.366.366 0 0 0-.352.078 2.057 2.057 0 0 1-1.246.443c-.717 0-1.319-.456-1.324-.46a.368.368 0 0 0-.33-.061c-.398.12-2.392.724-2.63.826a.364.364 0 0 0-.201.22L.08 12.311a.363.363 0 0 0 .106.388l-.17.52c-.06.187.04.388.226.454l1.566.554a.366.366 0 0 0 .456-.195l.217-.486a.366.366 0 0 0 .295-.249l1.421-4.382a2829.332 2829.332 0 0 1 .012 5.72c0 .201.356.364.557.364h6.437c.201 0 .518-.163.518-.364V13.8c.006-1.485.017-3.399.028-4.857l1.412 4.375a.365.365 0 0 0 .32.252l.195.466a.366.366 0 0 0 .46.202l1.62-.58a.366.366 0 0 0 .22-.47zM9.572 1.79c-.104.855-.76 1.517-1.554 1.517-.78 0-1.428-.64-1.549-1.473.378.187.914.382 1.521.382.677 0 1.224-.224 1.582-.426zM1.936 12.98l-.201.45-.913-.323.152-.47a.366.366 0 0 0 .017-.098l.98.382a.36.36 0 0 0-.035.059zm9.83-6.368a.366.366 0 0 0-.706.037c-.025.124-.048 3.393-.067 7.742H4.94c-.012-6.694-.025-7.764-.034-7.809a.365.365 0 0 0-.706-.04L2.226 12.63l-1.31-.512 3.231-9.66c.246-.082.987-.362 1.564-.539.18 1.48 1.545 2.118 2.268 2.118.723 0 2.076-.673 2.273-2.118.536.166 1.288.462 1.52.54l3.27 9.725-1.312.513-1.964-6.085zm2.451 6.823l-.187-.447-.008-.015.959-.375c.004.02.005.038.012.057l.169.443-.945.337z"/>
    </g>
</svg>
