<svg xmlns="http://www.w3.org/2000/svg" width="16" height="16" viewBox="0 0 16 16">
    <g fill="none" fill-rule="evenodd">
        <path d="M0 0h16v16H0z"/>
        <path fill="currentColor" fill-rule="nonzero" d="M8.496 5.739l.067-.162 1.744-1.77.16-.067h.905l.135.046 2.367 1.8-1.038 2.104-.202-.102-.798-.405a.494.494 0 0 0-.484.021.507.507 0 0 0-.236.43v5.358H4.884V7.634a.506.506 0 0 0-.236-.43.493.493 0 0 0-.483-.021l-1 .507-1.038-2.104 2.366-1.8.135-.046h.905l.16.068 1.744 1.769.066.162v2.398h.993V5.74zM8 4.723L6.309 3.008H9.69L8 4.723zm6.801.31l-2.89-2.2a.49.49 0 0 0-.298-.1h-1.146l-.16-.067-.511-.519A.491.491 0 0 0 9.445 2h-2.89a.493.493 0 0 0-.352.148l-.51.518-.16.067H4.387a.493.493 0 0 0-.298.1l-2.89 2.2a.508.508 0 0 0-.146.627l1.445 2.932c.123.25.42.35.666.225l.726-.368v5.047a.5.5 0 0 0 .497.504h7.226a.5.5 0 0 0 .496-.504V8.45l.327.165.4.203a.493.493 0 0 0 .666-.225l1.446-2.932a.508.508 0 0 0-.147-.628z"/>
    </g>
</svg>
