<svg xmlns="http://www.w3.org/2000/svg" width="16" height="16" viewBox="0 0 16 16">
    <g fill="none" fill-rule="evenodd">
        <path d="M0 0h16v16H0z"/>
        <path fill="currentColor" fill-rule="nonzero" d="M13.714 11.706c0 .23-.173.404-.404.404H5.345c-.866 0-1.5.692-1.559 1.5.231.116.52.231.809.231h8.311v-1.096c0-.462.808-.462.808 0v1.443c0 .23-.173.404-.404.404H4.595c-1.328 0-2.31-1.04-2.31-2.31V3.51c0-1.212.867-2.25 2.079-2.366h8.946c.231 0 .404.173.404.404v10.159zm-.9-9.755H7.48v7.734c0 .347-.462.52-.693.231l-1.04-1.27-1.038 1.27c-.23.289-.693.116-.693-.23v-7.62c-.577.231-.98.808-.98 1.443v8.774c0 .173.057.404.115.577.346-.923 1.212-1.5 2.193-1.5h7.469V1.95zm-6.084 0H4.768v6.695l.692-.808c.116-.173.404-.173.578 0l.692.75V1.952z"/>
    </g>
</svg>
