<svg xmlns="http://www.w3.org/2000/svg" width="16" height="16" viewBox="0 0 16 16">
    <g fill="none" fill-rule="evenodd">
        <path d="M0 0h16v16H0z"/>
        <path fill="currentColor" fill-rule="nonzero" d="M13.595 2.398c.063.153 2.434 6.44 2.405 6.674a.376.376 0 0 1-.008.042l-.604 3.517c-.055.37-.312.798-1.209.798h-4.086c-.726 0-1.152-.258-1.266-.767l-.573-2.874h-.508l-.573 2.874c-.114.509-.54.767-1.266.767H1.821c-.897 0-1.154-.429-1.209-.798L.008 9.114A.376.376 0 0 1 0 9.072c-.03-.236 2.338-6.522 2.39-6.664.1-.27.367-.424.697-.407.552.031 1.258.533 1.476 1.401a.363.363 0 0 1-.26.442.362.362 0 0 1-.44-.263c-.173-.665-.767-.852-.82-.854-.062.166-1.96 5.36-1.96 5.36h13.833s-1.913-5.219-1.966-5.358c-.052 0-.629.184-.824.852a.366.366 0 0 1-.438.263.364.364 0 0 1-.261-.442c.215-.856.91-1.359 1.456-1.397.333-.023.604.127.712.393zM6.56 12.515l.72-3.388c.017-.091-.057-.198-.102-.253-.047-.056-.14-.152-.237-.152H1.02c-.068 0-.15.053-.245.156-.048.052-.158.183-.15.282l.61 3.367c.023.189.193.266.586.266h4.086c.522 0 .623-.14.652-.278zm8.205.016c.008-.05.604-3.337.612-3.38.007-.091-.102-.221-.15-.273-.095-.103-.178-.156-.247-.156h-5.92c-.096 0-.189.096-.236.152-.046.055-.12.162-.102.256l.72 3.386c.029.137.13.277.651.277h4.087c.393 0 .562-.077.585-.262zM5.401 9.563H4.81a.172.172 0 0 1-.176-.169c0-.093.079-.169.176-.169H5.4c.097 0 .176.076.176.17a.172.172 0 0 1-.176.168zm.888 0h-.361a.172.172 0 0 1-.176-.169c0-.093.079-.169.176-.169h.361c.098 0 .176.076.176.17a.172.172 0 0 1-.176.168zm4.109 0h-.603a.172.172 0 0 1-.176-.169c0-.093.079-.169.176-.169h.603c.097 0 .175.076.175.17a.172.172 0 0 1-.175.168zm3.849.816a.174.174 0 0 1-.206.133.17.17 0 0 1-.138-.199c.054-.267.112-.575.137-.748-.19-.004-.536 0-.837.008-.094-.002-.178-.07-.18-.164a.172.172 0 0 1 .17-.174c1.066-.029 1.096 0 1.156.058.073.07.1.097-.102 1.086z"/>
    </g>
</svg>
