<svg xmlns="http://www.w3.org/2000/svg" width="16" height="16" viewBox="0 0 16 16">
    <g fill="none" fill-rule="evenodd">
        <path d="M0 0h16v16H0z"/>
        <g fill="currentColor" fill-rule="nonzero">
            <path d="M5.55 14.52a2.2 2.2 0 0 0 1.457-.526l.098-.085a2.11 2.11 0 0 1 2.694.001l.097.086c.403.34.914.527 1.441.524 1.153 0 2.087-.842 2.087-1.874V12.3a2.104 2.104 0 0 0-.75-1.597 6.565 6.565 0 0 1-1.595-2.041l-.623-1.249a2.313 2.313 0 0 0-4.024-.003l-.41.84a14.37 14.37 0 0 1-2.045 3.055c-.33.377-.513.86-.515 1.362 0 1.015.938 1.854 2.087 1.854zm1.372-5.845l.415-.846a1.314 1.314 0 0 1 2.216.006l.62 1.281a7.52 7.52 0 0 0 1.838 2.355c.25.203.4.505.408.828v.347c0 .483-.488.869-1.082.869a1.227 1.227 0 0 1-.79-.294l-.098-.084a3.069 3.069 0 0 0-4.014 0l-.096.084c-.22.188-.5.292-.79.294-.59 0-1.081-.388-1.081-.87.006-.27.111-.526.294-.723a15.23 15.23 0 0 0 2.16-3.247zM5.587 6.18a1.622 1.622 0 0 0-3.244 0v.56a1.622 1.622 0 0 0 3.244 0v-.56zm-2.239.56v-.56a.617.617 0 0 1 1.234 0v.56a.617.617 0 0 1-1.234 0zM10.065 2.822a1.622 1.622 0 0 0-3.244 0v.56a1.622 1.622 0 0 0 3.244 0v-.56zm-2.239.56v-.56a.617.617 0 0 1 1.234 0v.56a.617.617 0 0 1-1.234 0zM14.543 6.18v-.559a1.622 1.622 0 1 0-3.244 0v.56a1.622 1.622 0 1 0 3.244 0zm-1.005 0a.617.617 0 1 1-1.234 0v-.559a.617.617 0 1 1 1.234 0v.56z"/>
        </g>
    </g>
</svg>
