<svg width="60" height="60" viewBox="0 0 60 60" fill="none" xmlns="http://www.w3.org/2000/svg">
<g filter="url(#filter0_d)">
<circle cx="29" cy="28" r="20" fill="url(#paint0_linear)"/>
</g>
<g filter="url(#filter1_d)">
<path d="M32.0533 33.4603C32.431 32.9335 32.6076 32.2888 32.5512 31.6429C32.5014 31.2446 32.5014 30.672 32.7255 30.3483L36.3105 25.2197C36.4277 24.9983 36.5789 24.7966 36.7587 24.6222H36.7835C37.2317 25.0703 38.0284 25.0703 38.7255 24.672C38.8055 24.6207 38.8722 24.5511 38.92 24.4689C38.9678 24.3867 38.9952 24.2943 39.0001 24.1993C39.005 24.1043 38.9871 24.0096 38.948 23.9229C38.9089 23.8363 38.8497 23.7602 38.7752 23.701L33.2732 18.1989C33.2094 18.1304 33.1311 18.0771 33.0439 18.0431C32.9567 18.009 32.863 17.9951 32.7697 18.0023C32.6764 18.0094 32.5859 18.0376 32.505 18.0845C32.424 18.1315 32.3547 18.1962 32.3022 18.2736C31.9039 18.9707 31.879 19.7425 32.352 20.2155H32.3769C32.1961 20.388 31.9956 20.5384 31.7794 20.6637L26.6508 24.2487C26.3271 24.4977 25.7545 24.4977 25.3313 24.4479C24.6935 24.3953 24.058 24.5718 23.5387 24.9458C23.4625 25.0028 23.3997 25.076 23.3549 25.16C23.3101 25.244 23.2844 25.3369 23.2797 25.432C23.2749 25.5272 23.2912 25.6221 23.3274 25.7102C23.3636 25.7983 23.4187 25.8774 23.4889 25.9417L26.7504 29.2031L23.1404 32.8379C21.6964 34.3566 20.7753 35.7508 21.0491 36.0247C21.323 36.2985 22.6923 35.3774 24.2109 33.9085H24.2358L27.8458 30.2985L31.0574 33.4852C31.12 33.5569 31.1975 33.6139 31.2846 33.6521C31.3717 33.6904 31.4661 33.709 31.5612 33.7066C31.6563 33.7042 31.7496 33.6809 31.8347 33.6384C31.9197 33.5958 31.9944 33.535 32.0533 33.4603Z" fill="white"/>
</g>
<defs>
<filter id="filter0_d" x="0" y="0" width="60" height="60" filterUnits="userSpaceOnUse" color-interpolation-filters="sRGB">
<feFlood flood-opacity="0" result="BackgroundImageFix"/>
<feColorMatrix in="SourceAlpha" type="matrix" values="0 0 0 0 0 0 0 0 0 0 0 0 0 0 0 0 0 0 127 0"/>
<feOffset dx="1" dy="2"/>
<feGaussianBlur stdDeviation="5"/>
<feColorMatrix type="matrix" values="0 0 0 0 0 0 0 0 0 0.631373 0 0 0 0 0.988235 0 0 0 0.5 0"/>
<feBlend mode="normal" in2="BackgroundImageFix" result="effect1_dropShadow"/>
<feBlend mode="normal" in="SourceGraphic" in2="effect1_dropShadow" result="shape"/>
</filter>
<filter id="filter1_d" x="13.001" y="10.0004" width="37.9999" height="38.0723" filterUnits="userSpaceOnUse" color-interpolation-filters="sRGB">
<feFlood flood-opacity="0" result="BackgroundImageFix"/>
<feColorMatrix in="SourceAlpha" type="matrix" values="0 0 0 0 0 0 0 0 0 0 0 0 0 0 0 0 0 0 127 0"/>
<feOffset dx="2" dy="2"/>
<feGaussianBlur stdDeviation="5"/>
<feColorMatrix type="matrix" values="0 0 0 0 0 0 0 0 0 0 0 0 0 0 0 0 0 0 0.5 0"/>
<feBlend mode="normal" in2="BackgroundImageFix" result="effect1_dropShadow"/>
<feBlend mode="normal" in="SourceGraphic" in2="effect1_dropShadow" result="shape"/>
</filter>
<linearGradient id="paint0_linear" x1="29" y1="8" x2="29" y2="48" gradientUnits="userSpaceOnUse">
<stop stop-color="#13CEE8"/>
<stop offset="1" stop-color="#00A1FC"/>
</linearGradient>
</defs>
</svg>
