<svg xmlns="http://www.w3.org/2000/svg" width="16" height="16" viewBox="0 0 16 16">
    <g fill="none" fill-rule="evenodd">
        <path d="M0 0h16v16H0z"/>
        <path fill="currentColor" fill-rule="nonzero" d="M11.636 7.818H9.91V2.91h1.727a2.457 2.457 0 0 1 2.455 2.455 2.457 2.457 0 0 1-2.455 2.454zm-1.727.91h1.385L11.657 10H9.909V8.727zM9 2.908v4.91H7v-4.91h2zM6.09 4.364v2H4.819v-2h1.273zm7 9.454a.454.454 0 0 0 .438-.579l-1.304-4.566.268-.071A3.36 3.36 0 0 0 15 5.364 3.368 3.368 0 0 0 11.636 2H7.273C6.62 2 6.09 2.53 6.09 3.182v.273H4.364a.455.455 0 0 0-.455.454v1H1v.91h2.91v1c0 .25.203.454.454.454H6.09v.272c0 .652.53 1.182 1.182 1.182H9v1.728c0 .25.204.454.455.454h2.462l.571 2h-1.306v.91h1.909z"/>
    </g>
</svg>
