<svg xmlns="http://www.w3.org/2000/svg" width="16" height="16" viewBox="0 0 16 16">
    <g fill="none" fill-rule="evenodd">
        <path d="M0 0h16v16H0z"/>
        <path fill="currentColor" fill-rule="nonzero" d="M13.61 4.073a2.597 2.597 0 0 0-2.514-1.974H10.1c-.333-.568-.7-.908-1.102-1.018A1.35 1.35 0 0 0 7.667 0H5.59a1.35 1.35 0 0 0-1.33 1.08c-.402.111-.77.45-1.102 1.019H1.455a.312.312 0 0 0-.291.415l.955 2.95A37.98 37.98 0 0 0 1.6 9.123c-.416 3.865-.457 5.507-.457 5.527v1.04c0 .171.14.311.312.311h10.39c.163 0 .3-.127.31-.29v-1.04c0-.041-.04-1.662-.456-5.527-.25-2.286-.54-4.073-.935-5.361.512.007.924.318 1.06.769l1.682 5.901a.831.831 0 0 0 .79.603.831.831 0 0 0 .81-1.04L13.61 4.074zM7.688.644a.727.727 0 0 1 .644.416H4.945A.727.727 0 0 1 5.61.644h2.078zM1.891 2.722h1.018c-.21.506-.384 1.027-.52 1.559l-.498-1.559zm-.125 12.675v-.415h9.766v.415H1.766zm9.766-1.039H1.766c.021-.997.104-1.953.437-5.153.727-6.795 1.89-7.522 2.368-7.522h4.156c.478 0 1.642.727 2.348 7.501.354 3.221.437 4.177.457 5.174zm2.93-4.03a.187.187 0 0 1-.166.082.208.208 0 0 1-.187-.145l-1.683-5.901a1.704 1.704 0 0 0-1.62-1.226h-.25l-.166-.416h.685a1.974 1.974 0 0 1 1.912 1.496l1.496 5.943a.187.187 0 0 1-.02.166zM6.65 3.034a1.35 1.35 0 0 0-1.35 1.35v7.171a1.35 1.35 0 1 0 2.701 0v-7.17a1.35 1.35 0 0 0-1.35-1.351zm0 .623c.402 0 .728.326.728.728V8.48c-.166.353-.499.79-.728.79a1.06 1.06 0 0 0-.727.332V4.386c0-.402.326-.728.727-.728zm0 8.625a.727.727 0 0 1-.727-.727v-.873c.166-.353.499-.79.727-.79a1.06 1.06 0 0 0 .728-.332v1.995a.727.727 0 0 1-.728.727z"/>
    </g>
</svg>
