<svg xmlns="http://www.w3.org/2000/svg" width="16" height="16" viewBox="0 0 16 16">
    <g fill="none" fill-rule="evenodd">
        <path d="M0 0h16v16H0z"/>
        <path fill="currentColor" fill-rule="nonzero" d="M10.951 1c2.079 0 3.433.333 3.944.843a.36.36 0 0 1 .105.254V14.64a.36.36 0 0 1-.36.36h-2.95a.36.36 0 0 1-.36-.36v-2.48l-.126-.098-.342.082c-1.318.319-2.171 1.291-2.513 2.582A.364.364 0 0 1 8 15H2.835C1.721 15 1 13.92 1 12.427c0-.13.07-.251.185-.314l6.21-3.451.162-.09.051-.1-.703-6.335a.359.359 0 0 1 .103-.294C7.518 1.333 8.873 1 10.95 1zM9.276 12.063l.155-.048a3.937 3.937 0 0 1 2.258-.686.36.36 0 0 1 .36.36v.277l.101.101h2.03l.1-.101v-9.64l-.062-.093-.172-.07a4.762 4.762 0 0 0-.802-.238l-.335-.072-.122.1v3.465c0 .808-.659 1.466-1.467 1.466a1.468 1.468 0 0 1-1.466-1.466V1.865l-.113-.1-.31.035c-.627.073-1.143.192-1.524.347l-.195.079-.062.105.707 6.367a.359.359 0 0 1-.182.354L4.023 11.36l-.933.518.05.19 6.136-.004zm4.903.724H12.15l-.101.101v1.291l.101.102h2.03l.1-.102v-1.291l-.1-.101zM2.835 14.28h4.82l.094-.063.07-.172c.082-.2.202-.43.358-.684l.257-.421-.087-.154H1.845l-.098.127.092.347c.173.656.497 1.02.996 1.02zm9.232-8.863V1.853l-.096-.101-.264-.013c-.276-.013-.512-.02-.756-.02h-.276l-.102.102v3.597a.747.747 0 0 0 1.494 0z"/>
    </g>
</svg>
