<svg xmlns="http://www.w3.org/2000/svg" width="16" height="16" viewBox="0 0 16 16">
    <g fill="none" fill-rule="evenodd">
        <path d="M0 0h16v16H0z"/>
        <path fill="currentColor" fill-rule="nonzero" d="M14.126 5.662L11.53 4.355l-1.393 2.803 2.415 4.864a.426.426 0 0 1-.019.41.418.418 0 0 1-.355.2H8.418v2.526h4.179V16H3.402v-.842h4.18v-2.526H3.82a.417.417 0 0 1-.355-.2.424.424 0 0 1-.018-.41l2.32-4.676.094-.188L4.47 4.355 1.874 5.662 1.5 4.908l6.082-3.063V0h.836v1.845L14.5 4.908l-.374.754zm-9.63 6.127h7.007L9.298 7.346a.422.422 0 0 1 0-.376l1.297-2.616.187-.376L8 2.576 5.217 3.978 6.702 6.97a.427.427 0 0 1 0 .377L4.799 11.18l-.302.61z"/>
    </g>
</svg>
