<svg xmlns="http://www.w3.org/2000/svg" width="16" height="16" viewBox="0 0 16 16">
    <g fill="none" fill-rule="evenodd">
        <path d="M0 0h16v16H0z"/>
        <path fill="currentColor" fill-rule="nonzero" d="M3.948 3.955a5.707 5.707 0 0 0-1.662 4.038c0 1.525.59 2.953 1.676 4.039A5.675 5.675 0 0 0 8 13.694a5.696 5.696 0 0 0 5.714-5.7c0-1.526-.59-2.954-1.676-4.04-2.239-2.225-5.865-2.225-8.09 0zm5.728 1.758a4.09 4.09 0 0 1-.92-2.541 4.876 4.876 0 0 1 2.376 1.085L9.676 5.713zm-.577.59L7.986 7.417 4.841 4.271a4.873 4.873 0 0 1 3.09-1.154c0 1.167.412 2.294 1.168 3.187zm-1.69 1.69L6.297 9.106A4.841 4.841 0 0 0 3.11 7.952a4.808 4.808 0 0 1 1.154-3.09l3.145 3.131zm-1.112 2.28a4.06 4.06 0 0 1 .92 2.542 4.876 4.876 0 0 1-2.376-1.086l1.456-1.456zm.577-.59L7.986 8.57l3.146 3.146a4.873 4.873 0 0 1-3.09 1.154 4.927 4.927 0 0 0-1.168-3.187zm1.69-1.69l1.098-1.099a4.868 4.868 0 0 0 3.16 1.154h.027a4.808 4.808 0 0 1-1.154 3.09L8.563 7.994zm1.702-1.69l1.457-1.455a4.832 4.832 0 0 1 1.085 2.376 4.06 4.06 0 0 1-2.542-.92zm-7.101 2.46a4.06 4.06 0 0 1 2.541.92l-1.442 1.456a4.735 4.735 0 0 1-1.1-2.377z"/>
    </g>
</svg>
