<svg xmlns="http://www.w3.org/2000/svg" width="16" height="16" viewBox="0 0 16 16">
    <g fill="none" fill-rule="evenodd">
        <path d="M0 0h16v16H0z"/>
        <path fill="currentColor" fill-rule="nonzero" d="M14.269 14.269h.313c.23 0 .418-.188.418-.418v-1.463c0-1.784-3.62-3.2-8.388-4.068a.441.441 0 0 0-.37.115c-.34.318-.973.61-1.899.61-.868 0-1.935-.652-2.63-1.34A.419.419 0 0 0 1 8v5.85c0 .231.187.419.418.419h.313V15h.836v-.731h1.358V15h.836v-.731h4.284V15h.836v-.731h1.358V15h.836v-.731h1.358V15h.836v-.731zM1.73 1v.731h-.313A.418.418 0 0 0 1 2.15v1.463c0 1.784 3.62 3.2 8.388 4.068a.446.446 0 0 0 .366-.11c.324-.315.976-.615 1.903-.615.868 0 1.935.652 2.63 1.34A.42.42 0 0 0 15 8V2.15a.418.418 0 0 0-.418-.419h-.313V1h-.836v.731h-1.358V1h-.836v.731H6.955V1H6.12v.731H4.761V1h-.836v.731H2.567V1h-.836zm.105 11.075h1.553l.904 1.358H1.836v-1.358zm7.794-2.19l.18.054c.597.177 1.158.365 1.67.559l.531.2-.454.343a2.598 2.598 0 0 0-1.05 2.078v.314H5.298l-.093-.14-1.245-1.868a.418.418 0 0 0-.348-.186H1.836V8.927l.477.292c.684.419 1.375.662 2.03.662.922 0 1.656-.25 2.208-.629l.108-.073.128.024c.453.087.911.186 1.373.296l.546.13-.78.78.591.59L9.63 9.886zm3.654 1.458c.566.349.88.677.88 1.045v1.045h-2.82v-.314c0-.872.631-1.6 1.462-1.748l.478-.028zM6.37 6.114l-.18-.053c-.6-.178-1.161-.366-1.669-.559l-.531-.201.453-.342a2.6 2.6 0 0 0 1.05-2.078v-.314h5.209l.093.14 1.245 1.868a.419.419 0 0 0 .348.186h1.776v2.312l-.477-.292c-.684-.419-1.375-.662-2.03-.662-.922 0-1.656.25-2.208.629l-.108.074-.129-.025c-.463-.09-.923-.189-1.372-.296l-.546-.13.78-.78-.591-.59L6.37 6.114zM3.194 4.63l-.478.029c-.566-.35-.88-.678-.88-1.046V2.567h2.82v.314c0 .872-.631 1.6-1.462 1.748zm10.97-.704h-1.553l-.904-1.358h2.457v1.358z"/>
    </g>
</svg>
