<svg xmlns="http://www.w3.org/2000/svg" width="16" height="16" viewBox="0 0 16 16">
    <g fill="none" fill-rule="evenodd">
        <path d="M0 0h16v16H0z"/>
        <path fill="currentColor" fill-rule="nonzero" d="M.951 9.393c.216.227.508.354.813.354.305 0 .597-.127.813-.354l1.87-1.964v6.364c.001.666.515 1.206 1.15 1.207h4.805c.635 0 1.15-.54 1.151-1.207V7.427l1.873 1.966c.449.47 1.176.47 1.625 0l.612-.643c.216-.226.337-.533.337-.853 0-.32-.121-.627-.337-.853L11.95 3.147a1.926 1.926 0 0 0-1.404-.61h-.72a.3.3 0 0 0-.105.02v-.845c.07-.024.144-.046.209-.074a.335.335 0 0 0 .182-.425.31.31 0 0 0-.404-.192 4.574 4.574 0 0 1-3.429 0 .31.31 0 0 0-.378.208.335.335 0 0 0 .17.41c.07.03.142.05.208.073v.845a.3.3 0 0 0-.104-.02h-.723a1.926 1.926 0 0 0-1.404.61L.337 7.044A1.238 1.238 0 0 0 0 7.897c0 .32.121.627.337.853l.614.643zm9.975 4.4a.536.536 0 0 1-.522.549H5.598a.536.536 0 0 1-.522-.549V11.45l.152.16c.123.129.321.129.443 0l.418-.438.418.439c.123.128.32.128.443 0l.418-.44.418.44c.122.128.32.128.443 0l.418-.44.418.44c.122.128.32.128.442 0l.418-.44.418.44c.123.128.32.128.443 0l.14-.114v2.296zm0-3.233l-.33.346-.418-.438a.303.303 0 0 0-.443 0l-.418.438-.418-.438a.303.303 0 0 0-.442 0l-.418.438-.418-.438a.303.303 0 0 0-.443 0l-.418.438-.418-.438a.303.303 0 0 0-.443 0l-.418.438-.374-.394v-.597l.153.16c.122.128.32.128.443 0l.418-.439.417.439c.123.128.321.128.443 0l.418-.439.418.439c.123.128.32.128.443 0l.418-.439.418.439c.122.128.32.128.443 0l.418-.439.418.439c.122.128.32.128.443 0l.108-.114v.599zm3.96-3.24V7.15l.334.351a.563.563 0 0 1 .154.388.563.563 0 0 1-.154.389l-.612.642a.51.51 0 0 1-.37.162.51.51 0 0 1-.37-.162l-.342-.36h.18a.322.322 0 0 0 .313-.328v-.573h.554a.322.322 0 0 0 .313-.33V7.32zM6.908 1.872c.363.082.733.124 1.103.126a5.043 5.043 0 0 0 1.083-.123v.86c-.719.18-1.467.18-2.186 0v-.863zM1.72 6.502l2.77-2.89c.255-.268.601-.418.962-.417h.669a5.149 5.149 0 0 0 3.76 0h.667c.36-.001.707.149.961.417L14.26 6.5V7h-.554a.322.322 0 0 0-.313.329v.581H12.9l-1.074-1.134a.504.504 0 0 0-.57-.12.55.55 0 0 0-.323.508v1.869l-.33.347-.418-.44a.303.303 0 0 0-.443 0l-.417.44-.418-.44a.303.303 0 0 0-.443 0l-.418.44-.418-.44a.303.303 0 0 0-.443 0l-.418.44-.418-.44a.303.303 0 0 0-.443 0l-.417.44-.374-.395V7.164a.55.55 0 0 0-.323-.508.504.504 0 0 0-.57.12L3.143 7.908h-.55v-.58c0-.18-.14-.328-.313-.328h-.554l-.006-.498zM.786 7.51l.318-.333v.153c0 .182.14.33.313.33h.554v.58c0 .088.033.171.091.233a.306.306 0 0 0 .222.097h.196l-.342.36a.517.517 0 0 1-.74 0l-.612-.646a.568.568 0 0 1 0-.774z"/>
    </g>
</svg>
