<svg xmlns="http://www.w3.org/2000/svg" width="16" height="16" viewBox="0 0 16 16">
    <g fill="none" fill-rule="evenodd">
        <path d="M0 0h16v16H0z"/>
        <path fill="currentColor" fill-rule="nonzero" d="M3.474 8.002v.71c.567-.175 1.116-.2 1.72.233.437.313.843.434 1.404.007.696-.53 1.754-.52 2.359.023.345.309.396.321 1.448-.146.375-.166.922-.339 1.637-.139l-.003-.72c-.565-.224-.963-.12-1.309.034-1.023.455-1.536.682-2.28.015-.293-.263-.928-.32-1.372.017-.428.326-.822.436-1.164.436-.56 0-.977-.298-1.16-.43-.386-.276-.684-.265-1.28-.04zm0-.82c.57-.177 1.122-.205 1.73.23.438.314.844.434 1.405.007.697-.529 1.754-.518 2.358.023.34.305.4.32 1.449-.146.371-.165.913-.335 1.62-.142l-.016-4.372c0-.07.018-.107.052-.166a.69.69 0 0 1 .5-.349c.11-.015.22.017.325.042-.147-.334-.377-.343-.414-.343h-8.48c-.504 0-.529.653-.529.732v4.484zm0 2.35v1.348h8.576l-.005-1.37c-.575-.233-.976-.127-1.325.028-1.023.454-1.536.682-2.281.014-.293-.262-.928-.32-1.371.017-.428.326-.823.436-1.165.437-.56 0-.977-.299-1.16-.43-.384-.275-.68-.265-1.269-.044zm-.823-6.477v-.362c0-.537.33-1.55 1.353-1.55h8.49c.45 0 1.302.395 1.302 1.879a.39.39 0 0 1-.002.033h.023c.535 0 .969.384.969.858 0 .473-.434.857-.97.857h-.056v8.579c0 .172-.114.36-.274.401a.215.215 0 0 1-.067.01H4.074c-.187 0-.325-.224-.325-.411v-1.646h-.666c-.214 0-.432-.162-.432-.376V4.77h-.468c-.536 0-.97-.384-.97-.857 0-.237.109-.452.284-.606.176-.156.418-.252.686-.252h.468zm10.423.425c0-.069.009-.133.04-.188l.004-.007.003-.025a.247.247 0 0 1 .044-.049c.005-.006.01-.01.016-.014l.003-.001c.033-.018.073-.029.117-.065a.345.345 0 0 0-.153.08c-.015.014-.046.029-.063.045a1.512 1.512 0 0 0-.29-.19l.031 8.254a.382.382 0 0 1-.385.383H4.434v1.234h8.64V3.48z"/>
    </g>
</svg>
