<svg xmlns="http://www.w3.org/2000/svg" width="16" height="16" viewBox="0 0 16 16">
    <g fill="none" fill-rule="evenodd">
        <path d="M0 0h16v16H0z"/>
        <path fill="currentColor" fill-rule="nonzero" d="M15.214 5.052l.554.557a.778.778 0 0 1 0 1.098l-1.54 1.539a.778.778 0 0 1-1.097 0l-.555-.555a.776.776 0 0 1-.023-1.075 2.421 2.421 0 0 0-.394-.52.725.725 0 0 0-1.023 0l-.686.686a.312.312 0 0 1-.44 0l-.129-.129-2.73 2.729.129.129c.12.121.12.318 0 .44l-4.982 4.98a.946.946 0 0 1-1.335 0l-.688-.688a.946.946 0 0 1 0-1.335l4.983-4.98a.312.312 0 0 1 .44 0l.128.129L8.56 5.32l-.129-.13a.312.312 0 0 1 0-.44l.908-.907a.48.48 0 0 0 .12-.493.478.478 0 0 0-.367-.332 7.114 7.114 0 0 0-2.36 0 .312.312 0 0 1-.34-.199l-.264-.707a.312.312 0 0 1 .184-.402 9.002 9.002 0 0 1 3.2-.568c1.207 0 2.436.477 3.219 1.243.504.47.798 1.123.814 1.815v.045a.59.59 0 0 0 .152.409c.137.143.297.263.472.354a.794.794 0 0 1 1.045.043zM6.62 9.732L5.478 8.588l-4.76 4.763a.32.32 0 0 0 0 .452l.687.684a.322.322 0 0 0 .453 0L6.62 9.73zm2.821-3.519l-.445-.445-2.728 2.725.445.443 2.728-2.723zM10.7 5.65c.253-.253.595-.395.952-.395.36.007.7.15.95.402.154.154.29.322.407.504l.696-.695a2.45 2.45 0 0 1-.459-.374 1.201 1.201 0 0 1-.325-.843v-.04a1.943 1.943 0 0 0-.629-1.375c-.658-.658-1.733-1.066-2.805-1.066a8.293 8.293 0 0 0-2.666.427l.063.168a7.633 7.633 0 0 1 2.315.045c.409.072.742.37.858.766.124.395.018.827-.276 1.12l-.687.688.119.124.888.887.128.121.471-.464zm4.63.398l-.555-.555a.152.152 0 0 0-.217 0l-1.54 1.54a.152.152 0 0 0 .001.217l.555.555c.06.06.158.06.218 0l1.538-1.539a.154.154 0 0 0 0-.218zm-10.163 4.26a.198.198 0 0 1 .279.278L2.778 13.25a.198.198 0 1 1-.278-.278l2.666-2.667zm-.245-.524a.198.198 0 0 1 0 .278l-2.666 2.667a.198.198 0 1 1-.279-.279l2.667-2.666a.198.198 0 0 1 .278 0z"/>
    </g>
</svg>
