<svg xmlns="http://www.w3.org/2000/svg" width="16" height="16" viewBox="0 0 16 16">
    <g fill="none" fill-rule="evenodd">
        <path d="M0 0h16v16H0z"/>
        <g fill="currentColor" fill-rule="nonzero">
            <path d="M11.032 5.656H8.198V4.565a1.417 1.417 0 0 1 .822-1.29l1.063-.496-.354-.765-1.063.496a2.281 2.281 0 0 0-1.304 2.055v1.09H4.571a3.543 3.543 0 1 0 2.607 5.952h1.233a3.543 3.543 0 1 0 2.607-5.951h.014zm0 6.249a2.692 2.692 0 0 1-2.083-.992l-.127-.156H6.796l-.128.156a2.692 2.692 0 1 1-2.097-4.407h6.461a2.7 2.7 0 0 1 0 5.399z"/>
            <path d="M4.826 7.88h-.85v.88h-.879v.85h.879v.864h.85v-.865h.878v-.85h-.878zM11.968 7.526a.879.879 0 1 0 0 1.757.879.879 0 0 0 0-1.757zm-.029.879l.029-.028.028.028c0 .028-.057.028-.057 0zM10.536 9.213a.879.879 0 1 0 0 1.757.879.879 0 0 0 0-1.757zm-.028.878l.028-.028.029.028c0 .028-.057.028-.057 0z"/>
        </g>
    </g>
</svg>
