<svg xmlns="http://www.w3.org/2000/svg" width="16" height="16" viewBox="0 0 16 16">
    <g fill="none" fill-rule="evenodd">
        <path d="M0 0h16v16H0z"/>
        <path fill="currentColor" fill-rule="nonzero" d="M11.515 4.42a5.09 5.09 0 0 1 1.394 2.599l2.822 4.137a.322.322 0 0 1-.045.402l-4.35 4.35a.32.32 0 0 1-.412.033l-4.026-2.934a5.038 5.038 0 0 1-2.587-1.382A5.089 5.089 0 0 1 2.939 9.07L.05 4.844a.322.322 0 0 1 .045-.402l4.35-4.35A.32.32 0 0 1 4.856.06l4.104 2.99c.948.189 1.83.646 2.554 1.371zM5.772 1.51l-.536-.402L1.11 5.234l.379.558 4.283-4.283zM4.7.728L.74 4.688l.18.267L4.956.918l-.256-.19zm-3.034 5.33L2.85 7.8a5.058 5.058 0 0 1 1.483-3.357A5.069 5.069 0 0 1 7.757 2.96L6.028 1.7l-4.36 4.36zM4.79 4.877a4.43 4.43 0 0 0-.011 6.28 4.453 4.453 0 0 0 6.29 0c1.729-1.73 1.75-4.54.011-6.28a4.453 4.453 0 0 0-6.29 0zm5.23 9.603l.536.401 4.126-4.126-.379-.558-4.282 4.283zm1.071.78l3.97-3.97-.178-.268-4.048 4.049.256.19zm3.034-5.33l-1.127-1.662a5.111 5.111 0 0 1-1.483 3.334 5.06 5.06 0 0 1-3.401 1.484l1.65 1.204 4.36-4.36zM9.084 8.657l-1.238-.323a.266.266 0 0 1-.145-.078L5.883 6.439a.316.316 0 0 1 0-.446.316.316 0 0 1 .446 0l1.751 1.75 1.16.313c.167.033.268.2.223.379a.304.304 0 0 1-.078.145.325.325 0 0 1-.301.078z"/>
    </g>
</svg>
