<svg xmlns="http://www.w3.org/2000/svg" width="16" height="16" viewBox="0 0 16 16">
    <g fill="none" fill-rule="evenodd">
        <path d="M0 0h16v16H0z"/>
        <path fill="currentColor" fill-rule="nonzero" d="M11.774 2H4.24A2.242 2.242 0 0 0 2 4.239v1.88c0 .648.285 1.25.775 1.679L3.007 8l-.232.202A2.223 2.223 0 0 0 2 9.881v1.88A2.242 2.242 0 0 0 4.239 14h7.522A2.241 2.241 0 0 0 14 11.761V9.867c0-.644-.283-1.243-.77-1.668l-.231-.202.23-.202c.487-.428.771-1.029.771-1.676V4.226A2.228 2.228 0 0 0 11.774 2zM5.173 9.522c-.714 0-1.292.582-1.292 1.305 0 .712.58 1.292 1.292 1.292h6.601c.38 0 .746-.095 1.07-.275l.55-.304-.16.607a1.525 1.525 0 0 1-1.473 1.137H4.24c-.84 0-1.523-.683-1.523-1.523v-1.88c0-.84.683-1.523 1.523-1.523h7.535c.838 0 1.51.682 1.51 1.536a1.51 1.51 0 0 1-1.51 1.509H5.173a.58.58 0 0 1-.576-.588c0-.318.258-.576.576-.576h6.32v-.717h-6.32zm6.32-5.641h-6.32c-.714 0-1.292.581-1.292 1.304 0 .713.58 1.293 1.292 1.293h6.601c.38 0 .746-.096 1.07-.276l.55-.304-.16.607a1.525 1.525 0 0 1-1.473 1.137H4.24c-.84 0-1.523-.683-1.523-1.523V4.24c0-.84.683-1.523 1.523-1.523h7.535c.838 0 1.51.682 1.51 1.536a1.51 1.51 0 0 1-1.51 1.51H5.173a.58.58 0 0 1-.576-.59c0-.317.258-.575.576-.575h6.32v-.716z"/>
    </g>
</svg>
