<svg width="16" height="10" viewBox="0 0 16 10" fill="none" xmlns="http://www.w3.org/2000/svg">
<path d="M7.5 9.4375H7.4375C7.5625 9.5625 7.75 9.625 8 9.625C8.1875 9.625 8.375 9.5625 8.5625 9.4375L15.8125 2.0625C15.9375 1.9375 16 1.8125 16 1.5625C16 1.375 15.9375 1.1875 15.8125 1L15.3125 0.5625C15.1875 0.4375 15 0.375 14.8125 0.375C14.5625 0.375 14.375 0.4375 14.25 0.5625L8 6.9375L1.75 0.5625C1.5625 0.4375 1.375 0.3125 1.1875 0.3125C0.9375 0.3125 0.8125 0.4375 0.6875 0.5625L0.1875 1C0.0625 1.1875 0 1.375 0 1.5625C0 1.8125 0.0625 1.9375 0.25 2.0625L7.5 9.4375Z" fill="#4C9FD2"/>
</svg>
