<svg width="14" height="14" viewBox="0 0 14 14" fill="none" xmlns="http://www.w3.org/2000/svg">
<path d="M13.1875 6.125C13.3281 6.125 13.4688 6.19531 13.5742 6.30078C13.6797 6.40625 13.75 6.54688 13.75 6.6875V7.8125C13.75 7.98828 13.6797 8.12891 13.5742 8.23438C13.4688 8.33984 13.3281 8.375 13.1875 8.375H8.125V13.4375C8.125 13.6133 8.05469 13.7539 7.94922 13.8594C7.84375 13.9648 7.70312 14 7.5625 14H6.4375C6.26172 14 6.12109 13.9648 6.01562 13.8594C5.91016 13.7539 5.875 13.6133 5.875 13.4375V8.375H0.8125C0.636719 8.375 0.496094 8.33984 0.390625 8.23438C0.285156 8.12891 0.25 7.98828 0.25 7.8125V6.6875C0.25 6.54688 0.285156 6.40625 0.390625 6.30078C0.496094 6.19531 0.636719 6.125 0.8125 6.125H5.875V1.0625C5.875 0.921875 5.91016 0.78125 6.01562 0.675781C6.12109 0.570312 6.26172 0.5 6.4375 0.5H7.5625C7.70312 0.5 7.84375 0.570312 7.94922 0.675781C8.05469 0.78125 8.125 0.921875 8.125 1.0625V6.125H13.1875Z"/>
</svg>
