<svg width="16" height="17" viewBox="0 0 16 17" fill="none" xmlns="http://www.w3.org/2000/svg">
<path d="M15.3828 3.82031C15.6992 4.17188 15.875 4.55859 15.875 5.01562V14.4375C15.875 14.9297 15.6992 15.3164 15.3828 15.6328C15.0312 15.9844 14.6445 16.125 14.1875 16.125H1.8125C1.32031 16.125 0.933594 15.9844 0.617188 15.6328C0.265625 15.3164 0.125 14.9297 0.125 14.4375V2.0625C0.125 1.60547 0.265625 1.21875 0.617188 0.867188C0.933594 0.550781 1.32031 0.375 1.8125 0.375H11.2344C11.6914 0.375 12.0781 0.550781 12.4297 0.867188L15.3828 3.82031ZM8 13.875C8.63281 13.875 9.16016 13.6641 9.58203 13.2422C10.0039 12.8203 10.25 12.2578 10.25 11.625C10.25 10.9922 10.0039 10.4648 9.58203 10.043C9.16016 9.62109 8.63281 9.375 8 9.375C7.36719 9.375 6.80469 9.62109 6.38281 10.043C5.96094 10.4648 5.75 10.9922 5.75 11.625C5.75 12.2578 5.96094 12.8203 6.38281 13.2422C6.80469 13.6641 7.36719 13.875 8 13.875ZM11.375 3.15234C11.375 3.08203 11.3047 2.97656 11.2344 2.87109L11.1289 2.76562C11.0234 2.69531 10.918 2.625 10.8477 2.625H2.79688C2.65625 2.625 2.55078 2.69531 2.48047 2.76562C2.41016 2.83594 2.375 2.94141 2.375 3.04688V6.70312C2.375 6.84375 2.41016 6.94922 2.48047 7.01953C2.55078 7.08984 2.65625 7.125 2.79688 7.125H10.9531C11.0586 7.125 11.1641 7.08984 11.2344 7.01953C11.3047 6.94922 11.375 6.84375 11.375 6.70312V3.15234Z"/>
</svg>
