<svg width="9" height="10" viewBox="0 0 9 10" fill="none" xmlns="http://www.w3.org/2000/svg">
<path d="M5.30469 4.75L8.69531 8.14062C8.72266 8.19531 8.75 8.25 8.75 8.30469C8.75 8.35938 8.72266 8.41406 8.69531 8.44141L8.06641 9.07031C8.01172 9.125 7.95703 9.125 7.90234 9.125C7.84766 9.125 7.79297 9.125 7.76562 9.07031L4.375 5.67969L0.984375 9.07031C0.929688 9.125 0.875 9.125 0.820312 9.125C0.765625 9.125 0.710938 9.125 0.683594 9.07031L0.0546875 8.44141C0 8.41406 0 8.35938 0 8.30469C0 8.25 0 8.19531 0.0546875 8.14062L3.44531 4.75L0.0546875 1.35938C0 1.33203 0 1.27734 0 1.22266C0 1.16797 0 1.11328 0.0546875 1.05859L0.683594 0.429688C0.710938 0.402344 0.765625 0.375 0.820312 0.375C0.875 0.375 0.929688 0.402344 0.984375 0.429688L4.375 3.82031L7.76562 0.429688C7.79297 0.402344 7.84766 0.375 7.90234 0.375C7.95703 0.375 8.01172 0.402344 8.06641 0.429688L8.69531 1.05859C8.72266 1.11328 8.75 1.16797 8.75 1.22266C8.75 1.27734 8.72266 1.33203 8.69531 1.35938L8.12109 1.93359L5.30469 4.75Z" fill="#A4A4A4"/>
</svg>
