<svg width="16" height="16" viewBox="0 0 16 16" fill="none" xmlns="http://www.w3.org/2000/svg">
<circle cx="8" cy="8" r="6" fill="#A4A4A4"/>
<path fill-rule="evenodd" clip-rule="evenodd" d="M8.67216 8L11.3608 10.6886C11.5464 10.8742 11.5464 11.1752 11.3608 11.3608C11.1752 11.5464 10.8742 11.5464 10.6886 11.3608L8 8.67216L5.31137 11.3608C5.12576 11.5464 4.82482 11.5464 4.63921 11.3608C4.4536 11.1752 4.4536 10.8742 4.63921 10.6886L7.32784 8L4.63921 5.31137C4.4536 5.12576 4.4536 4.82482 4.63921 4.63921C4.82482 4.4536 5.12576 4.4536 5.31137 4.63921L8 7.32784L10.6886 4.63921C10.8742 4.4536 11.1752 4.4536 11.3608 4.63921C11.5464 4.82482 11.5464 5.12576 11.3608 5.31137L8.67216 8Z" fill="white"/>
</svg>
