<svg width="13" height="14" viewBox="0 0 13 14" fill="none" xmlns="http://www.w3.org/2000/svg">
<path d="M9.14623 1.78302H11.5566C11.7217 1.78302 11.8868 1.84906 12.0189 1.98113C12.1509 2.11321 12.217 2.2783 12.217 2.4434V2.50943C12.217 2.54245 12.184 2.57547 12.1509 2.60849C12.1179 2.64151 12.0849 2.67453 12.0519 2.67453H11.3585V12.6792C11.3585 13.0425 11.2264 13.3396 10.9623 13.6038C10.6981 13.8679 10.4009 14 10.0377 14H2.17924C1.81603 14 1.51886 13.8679 1.25471 13.6038C0.990562 13.3396 0.858488 13.0425 0.858488 12.6792V2.64151H0.165094C0.132075 2.64151 0.0990556 2.60849 0.0660367 2.57547C0.0330179 2.54245 0 2.50943 0 2.47641V2.41038C0 2.24528 0.0660347 2.08019 0.19811 1.94811C0.330186 1.81604 0.495283 1.75 0.660377 1.75H3.07075L3.99528 0.528302C4.25943 0.198113 4.58962 0 5.01887 0H7.19811C7.62735 0 7.99056 0.165094 8.2217 0.528302L9.14623 1.78302ZM10.434 12.6462V2.64151H1.71698V12.6462C1.71698 12.7783 1.75 12.8774 1.84905 12.9434C1.91509 13.0094 2.04717 13.0755 2.14623 13.0755H10.0047C10.1368 13.0755 10.2358 13.0425 10.3019 12.9434C10.4009 12.8774 10.434 12.7783 10.434 12.6462ZM3.46698 11.4575C3.46698 11.5566 3.5 11.6226 3.56603 11.6887C3.63207 11.7547 3.69811 11.7877 3.79717 11.7877H4.0283C4.12736 11.7877 4.19339 11.7547 4.25943 11.6887C4.32547 11.6226 4.35849 11.5566 4.35849 11.4575V4.25943C4.35849 4.16038 4.32547 4.09434 4.25943 4.0283C4.19339 3.96226 4.12736 3.92925 4.0283 3.92925H3.79717C3.69811 3.92925 3.63207 3.96226 3.56603 4.0283C3.5 4.09434 3.46698 4.16038 3.46698 4.25943V11.4575ZM4.98585 0.891509C4.85377 0.891509 4.7217 0.957547 4.62264 1.0566L4.09434 1.75H8.02358L7.49528 1.0566C7.39623 0.957547 7.29717 0.891509 7.13207 0.891509H4.98585ZM5.64622 11.4575C5.64622 11.5566 5.67924 11.6226 5.74528 11.6887C5.81132 11.7547 5.87736 11.7877 5.97641 11.7877H6.20754C6.3066 11.7877 6.37264 11.7547 6.43868 11.6887C6.50472 11.6226 6.53773 11.5566 6.53773 11.4575V4.25943C6.53773 4.16038 6.50472 4.09434 6.43868 4.0283C6.37264 3.96226 6.3066 3.92925 6.20754 3.92925H5.97641C5.87736 3.92925 5.81132 3.96226 5.74528 4.0283C5.67924 4.09434 5.64622 4.16038 5.64622 4.25943V11.4575ZM7.82547 11.4575C7.82547 11.5566 7.85849 11.6226 7.92453 11.6887C7.99057 11.7547 8.0566 11.7877 8.15566 11.7877H8.38679C8.48585 11.7877 8.55188 11.7547 8.61792 11.6887C8.68396 11.6226 8.71698 11.5566 8.71698 11.4575V4.25943C8.71698 4.16038 8.68396 4.09434 8.61792 4.0283C8.55188 3.96226 8.48585 3.92925 8.38679 3.92925H8.15566C8.0566 3.92925 7.99057 3.96226 7.92453 4.0283C7.85849 4.09434 7.82547 4.16038 7.82547 4.25943V11.4575Z" fill="#F2994A"/>
</svg>
