<svg width="16" height="16" viewBox="0 0 16 16" fill="none" xmlns="http://www.w3.org/2000/svg">
<path d="M11.1462 2.78302H13.5566C13.7217 2.78302 13.8868 2.84906 14.0189 2.98113C14.1509 3.11321 14.217 3.2783 14.217 3.4434V3.50943C14.217 3.54245 14.184 3.57547 14.1509 3.60849C14.1179 3.64151 14.0849 3.67453 14.0519 3.67453H13.3585V13.6792C13.3585 14.0425 13.2264 14.3396 12.9623 14.6038C12.6981 14.8679 12.4009 15 12.0377 15H4.17924C3.81603 15 3.51886 14.8679 3.25471 14.6038C2.99056 14.3396 2.85849 14.0425 2.85849 13.6792V3.64151H2.16509C2.13208 3.64151 2.09906 3.60849 2.06604 3.57547C2.03302 3.54245 2 3.50943 2 3.47641V3.41038C2 3.24528 2.06603 3.08019 2.19811 2.94811C2.33019 2.81604 2.49528 2.75 2.66038 2.75H5.07075L5.99528 1.5283C6.25943 1.19811 6.58962 1 7.01887 1H9.19811C9.62735 1 9.99056 1.16509 10.2217 1.5283L11.1462 2.78302ZM12.434 13.6462V3.64151H3.71698V13.6462C3.71698 13.7783 3.75 13.8774 3.84905 13.9434C3.91509 14.0094 4.04717 14.0755 4.14623 14.0755H12.0047C12.1368 14.0755 12.2358 14.0425 12.3019 13.9434C12.4009 13.8774 12.434 13.7783 12.434 13.6462ZM5.46698 12.4575C5.46698 12.5566 5.5 12.6226 5.56603 12.6887C5.63207 12.7547 5.69811 12.7877 5.79717 12.7877H6.0283C6.12736 12.7877 6.19339 12.7547 6.25943 12.6887C6.32547 12.6226 6.35849 12.5566 6.35849 12.4575V5.25943C6.35849 5.16038 6.32547 5.09434 6.25943 5.0283C6.19339 4.96226 6.12736 4.92925 6.0283 4.92925H5.79717C5.69811 4.92925 5.63207 4.96226 5.56603 5.0283C5.5 5.09434 5.46698 5.16038 5.46698 5.25943V12.4575ZM6.98585 1.89151C6.85377 1.89151 6.7217 1.95755 6.62264 2.0566L6.09434 2.75H10.0236L9.49528 2.0566C9.39623 1.95755 9.29717 1.89151 9.13207 1.89151H6.98585ZM7.64622 12.4575C7.64622 12.5566 7.67924 12.6226 7.74528 12.6887C7.81132 12.7547 7.87736 12.7877 7.97641 12.7877H8.20754C8.3066 12.7877 8.37264 12.7547 8.43868 12.6887C8.50472 12.6226 8.53773 12.5566 8.53773 12.4575V5.25943C8.53773 5.16038 8.50472 5.09434 8.43868 5.0283C8.37264 4.96226 8.3066 4.92925 8.20754 4.92925H7.97641C7.87736 4.92925 7.81132 4.96226 7.74528 5.0283C7.67924 5.09434 7.64622 5.16038 7.64622 5.25943V12.4575ZM9.82547 12.4575C9.82547 12.5566 9.85849 12.6226 9.92453 12.6887C9.99057 12.7547 10.0566 12.7877 10.1557 12.7877H10.3868C10.4858 12.7877 10.5519 12.7547 10.6179 12.6887C10.684 12.6226 10.717 12.5566 10.717 12.4575V5.25943C10.717 5.16038 10.684 5.09434 10.6179 5.0283C10.5519 4.96226 10.4858 4.92925 10.3868 4.92925H10.1557C10.0566 4.92925 9.99057 4.96226 9.92453 5.0283C9.85849 5.09434 9.82547 5.16038 9.82547 5.25943V12.4575Z" fill="#0076BF"/>
</svg>