<svg width="16" height="16" viewBox="0 0 16 16" fill="none" xmlns="http://www.w3.org/2000/svg">
<path d="M14.5024 2.52607C14.8341 2.85782 15.0332 3.2891 15.0332 3.78673C15.0332 4.28436 14.8673 4.68246 14.5024 5.04739L4.88152 14.6682L1.76303 15.0332C1.53081 15.0663 1.36493 15 1.23223 14.8341C1.03318 14.6682 1 14.5024 1 14.2701L1.36493 11.1517L10.9858 1.53081C11.3175 1.19905 11.7488 1 12.2464 1C12.7441 1 13.1422 1.16588 13.5071 1.53081L14.5024 2.52607ZM4.45024 13.8389L4.98104 13.2749V12.3128H3.65403V10.9858H2.72512L2.19431 11.5166L2.02844 13.1422L2.85782 13.9716L4.45024 13.8389ZM11.8815 6.37441L9.62559 4.11848L3.48815 10.2559H4.45024V11.5829H5.77725V12.545L11.8815 6.37441ZM13.9052 4.38389C14.0711 4.21801 14.1374 4.01896 14.1374 3.75355C14.1374 3.48815 14.0379 3.32227 13.9052 3.1564L12.8768 2.12796C12.7109 1.96209 12.5118 1.89573 12.2464 1.89573C11.981 1.89573 11.782 1.96209 11.6161 2.12796L10.2559 3.48815L12.5118 5.74408L13.9052 4.38389Z" fill="#0076BF"/>
</svg>