<svg width="15" height="15" viewBox="0 0 15 15" fill="none" xmlns="http://www.w3.org/2000/svg">
<path d="M13.5024 1.52607C13.8341 1.85782 14.0332 2.2891 14.0332 2.78673C14.0332 3.28436 13.8673 3.68246 13.5024 4.04739L3.88152 13.6682L0.763033 14.0332C0.530806 14.0663 0.364929 14 0.232227 13.8341C0.0331753 13.6682 0 13.5024 0 13.2701L0.364929 10.1517L9.98578 0.530806C10.3175 0.199052 10.7488 0 11.2464 0C11.7441 0 12.1422 0.165877 12.5071 0.530806L13.5024 1.52607ZM3.45024 12.8389L3.98104 12.2749V11.3128H2.65403V9.98578H1.72512L1.19431 10.5166L1.02844 12.1422L1.85782 12.9716L3.45024 12.8389ZM10.8815 5.37441L8.62559 3.11848L2.48815 9.25592H3.45024V10.5829H4.77725V11.545L10.8815 5.37441ZM12.9052 3.38389C13.0711 3.21801 13.1374 3.01896 13.1374 2.75355C13.1374 2.48815 13.0379 2.32227 12.9052 2.1564L11.8768 1.12796C11.7109 0.962085 11.5118 0.895735 11.2464 0.895735C10.981 0.895735 10.782 0.962085 10.6161 1.12796L9.25592 2.48815L11.5118 4.74408L12.9052 3.38389Z" fill="#F2994A"/>
</svg>
