<svg width="16" height="16" viewBox="0 0 16 16" fill="none" xmlns="http://www.w3.org/2000/svg">
<path d="M1 12.8576L3.54235 3H5.79033L8.33268 12.8576H7.31574L6.6467 10.3219H2.68598L2.01694 12.8576H1ZM4.31844 3.94017L2.91346 9.33903H6.41923L5.01424 3.94017H4.31844Z" fill="#0076BF"/>
<path d="M10.5977 13C9.45588 13 8.88497 12.2925 8.88497 10.8775C8.88497 10.0893 9.00094 9.30579 9.23287 8.52707C9.47373 7.73884 9.86177 7.05508 10.397 6.47578C10.9322 5.88699 11.5522 5.59259 12.2569 5.59259C12.8011 5.59259 13.546 5.67806 14.4915 5.849L15 5.94872L13.9831 10.5783C13.8582 11.1102 13.7511 11.7369 13.6619 12.4587L13.6084 12.8291L12.6316 12.8718C12.7565 12.0551 12.8368 11.547 12.8725 11.3476C12.8278 11.433 12.694 11.5992 12.471 11.8462C12.2569 12.0836 12.0651 12.2783 11.8957 12.4302C11.7262 12.5726 11.521 12.7056 11.2801 12.8291C11.0393 12.943 10.8118 13 10.5977 13ZM13.8359 6.71795C13.2114 6.585 12.6717 6.51852 12.2168 6.51852C11.7708 6.51852 11.3604 6.76543 10.9858 7.25926C10.6111 7.74359 10.339 8.31339 10.1695 8.96866C10 9.61443 9.91529 10.1937 9.91529 10.7066C9.91529 11.2194 9.99112 11.5755 10.1428 11.7749C10.2944 11.9744 10.5219 12.0741 10.8252 12.0741C11.1285 12.0741 11.4585 11.9221 11.8154 11.6182C12.1811 11.3048 12.4844 10.9915 12.7253 10.6781L13.0732 10.208L13.8359 6.71795Z" fill="#0076BF"/>
</svg>