<svg width="14" height="14" viewBox="0 0 14 14" fill="none" xmlns="http://www.w3.org/2000/svg">
<path d="M2.68428 13.755C2.26152 13.58 1.87398 13.3 1.52168 12.95C1.06369 12.495 0.746612 11.97 0.605691 11.375C0.46477 10.78 0.46477 10.15 0.605691 9.555C0.746612 8.96 1.06369 8.435 1.52168 7.98L8.7439 0.805C9.27236 0.28 9.94173 0 10.7168 0C11.4919 0 12.126 0.28 12.6897 0.805C13.2534 1.33 13.5 1.995 13.5 2.765C13.5 3.535 13.2182 4.165 12.6897 4.69L6.55962 10.815C6.17209 11.2 5.71409 11.375 5.15041 11.375C4.58672 11.375 4.12873 11.2 3.74119 10.815C3.35366 10.43 3.17751 9.975 3.17751 9.415C3.17751 8.855 3.35366 8.4 3.74119 8.015L8.42683 3.325C8.49729 3.255 8.56775 3.22 8.63821 3.22C8.70867 3.22 8.81436 3.255 8.84959 3.325L9.02575 3.465C9.09621 3.535 9.13144 3.605 9.13144 3.71C9.13144 3.815 9.09621 3.885 9.02575 3.92L4.34011 8.61C4.12873 8.82 4.02304 9.1 4.02304 9.38C4.02304 9.66 4.12873 9.94 4.34011 10.15C4.55149 10.36 4.83333 10.465 5.11518 10.465C5.39702 10.465 5.67886 10.36 5.89024 10.15L12.0203 4.095C12.3726 3.71 12.584 3.255 12.584 2.73C12.584 2.205 12.4079 1.785 12.0203 1.4C11.6328 1.015 11.2453 0.875 10.7168 0.875C10.1883 0.875 9.73035 1.05 9.34282 1.435L2.15583 8.575C1.62737 9.1 1.38076 9.73 1.38076 10.465C1.38076 11.2 1.62737 11.83 2.15583 12.355C2.68428 12.88 3.31843 13.125 4.05827 13.125C4.7981 13.125 5.43225 12.88 5.9607 12.355L11.9499 6.405C12.0203 6.335 12.0908 6.3 12.1612 6.3C12.2317 6.3 12.3374 6.335 12.4079 6.405L12.5488 6.58C12.6192 6.65 12.6545 6.72 12.6545 6.79C12.6545 6.86 12.6192 6.965 12.5488 7L6.55962 12.95C6.24255 13.3 5.85501 13.545 5.39702 13.72C4.93902 13.895 4.51626 14 4.05827 14C3.60027 14 3.14228 13.93 2.68428 13.755Z" fill="#F2994A"/>
</svg>
