<svg width="14" height="10" viewBox="0 0 14 10" fill="none" xmlns="http://www.w3.org/2000/svg">
<path d="M0 9.85755L2.54235 0H4.79033L7.33268 9.85755H6.31574L5.6467 7.32194H1.68598L1.01694 9.85755H0ZM3.31844 0.940171L1.91346 6.33903H5.41923L4.01424 0.940171H3.31844Z" fill="#F2994A"/>
<path d="M9.59771 10C8.45588 10 7.88497 9.2925 7.88497 7.87749C7.88497 7.08927 8.00094 6.30579 8.23287 5.52707C8.47373 4.73884 8.86177 4.05508 9.397 3.47578C9.93223 2.88699 10.5522 2.59259 11.2569 2.59259C11.8011 2.59259 12.546 2.67806 13.4915 2.849L14 2.94872L12.9831 7.57835C12.8582 8.11016 12.7511 8.73694 12.6619 9.45869L12.6084 9.82906L11.6316 9.8718C11.7565 9.05508 11.8368 8.54701 11.8725 8.34758C11.8278 8.43305 11.694 8.59924 11.471 8.84615C11.2569 9.08357 11.0651 9.27825 10.8957 9.4302C10.7262 9.57265 10.521 9.7056 10.2801 9.82906C10.0393 9.94302 9.81181 10 9.59771 10ZM12.8359 3.71795C12.2114 3.585 11.6717 3.51852 11.2168 3.51852C10.7708 3.51852 10.3604 3.76543 9.98576 4.25926C9.61109 4.74359 9.33902 5.31339 9.16953 5.96866C9.00004 6.61443 8.91529 7.19373 8.91529 7.70655C8.91529 8.21937 8.99112 8.5755 9.14277 8.77493C9.29442 8.97436 9.52189 9.07407 9.82519 9.07407C10.1285 9.07407 10.4585 8.92213 10.8154 8.61823C11.1811 8.30484 11.4844 7.99145 11.7253 7.67806L12.0732 7.20798L12.8359 3.71795Z" fill="#F2994A"/>
</svg>
