<svg width="16" height="16" viewBox="0 0 16 16" fill="none" xmlns="http://www.w3.org/2000/svg">
<path d="M10.3702 9.85325C10.7058 10.5853 10.8278 11.3478 10.7668 12.0798C10.7363 12.8729 10.4923 13.5744 10.0347 14.1844C9.94323 14.2759 9.85173 14.3369 9.72973 14.3674C9.60772 14.3979 9.48572 14.3674 9.39421 14.2759L5.79509 11.5918L3.75151 14.3064L2.98899 14.9469C2.89748 15.0079 2.80598 15.0079 2.71448 14.9469C2.62297 14.8859 2.59247 14.7944 2.62297 14.6724L3.04999 13.8184L5.12406 11.0428L1.49443 8.3892C1.40293 8.29769 1.34193 8.20619 1.31143 8.08419C1.28092 7.96218 1.31143 7.84018 1.40293 7.74867C1.86045 7.13865 2.47047 6.68114 3.23299 6.43713C3.93452 6.16262 4.66655 6.07111 5.49008 6.19312L6.98463 4.63756L6.1611 4.02754C5.97809 3.90554 5.91709 3.75303 5.88659 3.57003C5.85609 3.38702 5.91709 3.23451 6.00859 3.08201L7.35064 1.28244C7.47265 1.12994 7.62515 1.03844 7.80816 1.00793C7.99116 0.977433 8.14367 1.03844 8.29618 1.12994L14.4269 5.7051C14.5794 5.82711 14.6709 5.97961 14.7014 6.16262C14.7319 6.34562 14.6709 6.49813 14.5794 6.65063L13.2069 8.4502C13.0848 8.6027 12.9323 8.69421 12.7493 8.72471C12.5663 8.75521 12.4138 8.69421 12.2613 8.6027L11.4378 7.99268L10.3702 9.85325Z" fill="#0076BF"/>
</svg>
