<svg width="14" height="14" viewBox="0 0 14 14" fill="none" xmlns="http://www.w3.org/2000/svg">
<path d="M12.2417 0C12.7062 0 13.1374 0.165485 13.4692 0.529551C13.8009 0.86052 14 1.29078 14 1.75414V9.59811C14 10.0615 13.8341 10.4917 13.4692 10.8227C13.1374 11.1537 12.7062 11.3522 12.2417 11.3522H8.32701L4.90995 13.9338C4.8436 13.9669 4.77725 14 4.7109 14C4.64455 14 4.54502 13.9669 4.47867 13.9007C4.41232 13.8345 4.37915 13.7683 4.37915 13.669V11.3853H1.75829C1.29384 11.3853 0.862559 11.2199 0.530806 10.8558C0.199052 10.4917 0 10.0946 0 9.59811V1.75414C0 1.29078 0.165877 0.86052 0.530806 0.529551C0.862559 0.198582 1.29384 0 1.75829 0H12.2417V0ZM13.1374 9.59811V1.75414C13.1374 1.52246 13.0379 1.32388 12.872 1.1253C12.7062 0.959811 12.5071 0.86052 12.2417 0.86052H1.75829C1.52607 0.86052 1.32701 0.959811 1.12796 1.1253C0.92891 1.29078 0.862559 1.52246 0.862559 1.75414V9.59811C0.862559 9.82979 0.962085 10.0284 1.12796 10.227C1.29384 10.4255 1.49289 10.4917 1.75829 10.4917H5.27488V12.5768L8.02844 10.4917H12.2749C12.5071 10.4917 12.7062 10.3924 12.9052 10.227C13.0379 10.0615 13.1374 9.82979 13.1374 9.59811ZM10.2844 3.93853C10.3507 3.93853 10.3839 3.97163 10.4502 4.00473C10.4834 4.03783 10.5166 4.10402 10.5166 4.17021V4.60047C10.5166 4.66667 10.4834 4.69976 10.4502 4.76596C10.4171 4.79905 10.3507 4.83215 10.2844 4.83215H3.71564C3.64929 4.83215 3.61611 4.79905 3.54976 4.76596C3.51659 4.73286 3.48341 4.66667 3.48341 4.60047V4.17021C3.48341 4.10402 3.51659 4.07092 3.54976 4.00473C3.58294 3.97163 3.64929 3.93853 3.71564 3.93853H10.2844ZM7.66351 6.55319C7.72986 6.55319 7.76303 6.58629 7.82938 6.61939C7.86256 6.65248 7.89573 6.71868 7.89573 6.78487V7.21513C7.89573 7.28132 7.86256 7.31442 7.82938 7.38061C7.79621 7.41371 7.72986 7.44681 7.66351 7.44681H3.71564C3.64929 7.44681 3.61611 7.41371 3.54976 7.38061C3.51659 7.34752 3.48341 7.28132 3.48341 7.21513V6.78487C3.48341 6.71868 3.51659 6.68558 3.54976 6.61939C3.58294 6.58629 3.64929 6.55319 3.71564 6.55319H7.66351Z" fill="#F2994A"/>
</svg>
