<svg width="30" height="30" viewBox="0 0 30 30" fill="none" xmlns="http://www.w3.org/2000/svg">
<circle cx="15" cy="15" r="15" fill="#0076BF"/>
<path d="M25.5952 14.2519L8.21026 5.05832C8.04956 5.00503 7.87845 4.98794 7.70992 5.00837C7.5414 5.02879 7.37989 5.08619 7.23767 5.17619C7.1313 5.29583 7.05862 5.44008 7.02667 5.59496C6.99472 5.74984 7.00459 5.91009 7.05531 6.06019L10.0946 15.0181L7.05531 23.9759C6.99803 24.1059 6.98484 24.2501 7.01761 24.3878C7.05039 24.5255 7.12745 24.6496 7.23767 24.7421L7.29846 24.801C7.41662 24.9174 7.57473 24.9877 7.7428 24.9985C7.91087 25.0094 8.0772 24.9601 8.21026 24.8599L25.5952 15.6663C25.7191 15.5915 25.8212 15.4872 25.892 15.3635C25.9628 15.2398 26 15.1006 26 14.9591C26 14.8176 25.9628 14.6785 25.892 14.5547C25.8212 14.431 25.7191 14.3268 25.5952 14.2519ZM22.0088 14.193H11.5535L9.24363 7.47459L22.0088 14.193ZM9.24363 22.5615L11.5535 15.7253L22.0696 15.7842L9.24363 22.5615Z" fill="white"/>
</svg>
