<?xml version="1.0" encoding="UTF-8"?>
<svg width="23px" height="26px" viewBox="0 0 448 512" version="1.1" xmlns="http://www.w3.org/2000/svg" xmlns:xlink="http://www.w3.org/1999/xlink">
    <!-- Generator: Sketch 52.2 (67145) - http://www.bohemiancoding.com/sketch -->
    <title>file / 7z</title>
    <desc>Created with Sketch.</desc>
    <g id="file-/-7z" stroke="none" stroke-width="1" fill="none" fill-rule="evenodd">
        <g id="7z">
            <path d="M96,0 C78.4,0 64,14.4 64,32 L64,480 C64,497.6 78.4,512 96,512 L416,512 C433.6,512 448,497.6 448,480 L448,128 L320,0 L96,0 Z" id="Shape" fill="#E2E5E7" fill-rule="nonzero"></path>
            <path d="M352,128 L448,128 L320,0 L320,96 C320,113.6 334.4,128 352,128 Z" id="Shape" fill="#B0B7BD" fill-rule="nonzero"></path>
            <polygon id="Shape" fill="#CAD1D8" fill-rule="nonzero" points="448 224 352 128 448 128"></polygon>
            <path d="M384,416 C384,424.8 376.8,432 368,432 L16,432 C7.2,432 0,424.8 0,416 L0,256 C0,247.2 7.2,240 16,240 L368,240 C376.8,240 384,247.2 384,256 L384,416 Z" id="Shape" fill="#06507F" fill-rule="nonzero"></path>
            <path d="M368,432 L64,432 L64,448 L368,448 C376.8,448 384,440.8 384,432 L384,416 C384,424.8 376.8,432 368,432 Z" id="Shape" fill="#CAD1D8" fill-rule="nonzero"></path>
            <g id="Group" transform="translate(109.000000, 295.000000)" fill="#FFFFFF">
                <path d="M96.4867965,84.9849893 C87.7720206,84.9849893 84.3137761,77.6747677 89.2936481,72.5110793 L138.521758,15.7405289 L97.7144733,15.7405289 C85.6970739,15.7405289 86.6653823,1 97.7144733,1 L153.444082,1 C163.939854,1 166.983109,9.6161544 159.530592,16.5961401 L112.37743,69.7491065 L157.317316,69.7491065 C168.383698,69.7491065 169.766996,85 156.227969,85 L96.4867965,85 L96.4867965,84.9849893 Z" id="Path"></path>
                <path d="M4.7906413,83.37043 C-1.16858885,81.0594409 -1.52119255,76.8482276 3.47046215,71.6728576 L52.8150487,14.7738762 L11.9112116,14.7738762 C-0.134621798,14.7738762 0.835977726,0 11.9112116,0 L67.7726806,0 C78.2932862,0 81.3437419,8.63564657 73.8735919,15.631423 C39.8348261,56.1168209 22.093503,77.1427642 20.6496227,78.709253 C18.4833829,81.0594409 10.7498714,85.6814192 4.7906413,83.37043 Z" id="Path"></path>
            </g>
        </g>
    </g>
</svg>