<svg xmlns="http://www.w3.org/2000/svg" width="23" height="26" viewBox="0 0 23 26">
    <g fill="none" fill-rule="nonzero">
        <path fill="#E2E5E7" d="M4.929 0c-.904 0-1.643.731-1.643 1.625v22.75c0 .894.739 1.625 1.643 1.625h16.428c.904 0 1.643-.731 1.643-1.625V6.5L16.429 0h-11.5z"/>
        <path fill="#B0B7BD" d="M18.071 6.5H23L16.429 0v4.875c0 .894.739 1.625 1.642 1.625z"/>
        <path fill="#CAD1D8" d="M23 11.375L18.071 6.5H23z"/>
        <path fill="#1BB934" d="M19.714 21.125a.82.82 0 0 1-.821.813H.82A.82.82 0 0 1 0 21.125V13a.82.82 0 0 1 .821-.813h18.072a.82.82 0 0 1 .821.813v8.125z"/>
        <path fill="#FFF" d="M13.593 19.22l-1.734-3.592c-.256-.514.52-.935.808-.397l.585 1.306.754 1.715.742-1.715.585-1.306c.263-.493 1.024-.182.802.358L14.46 19.22c-.151.41-.618.506-.867 0z"/>
        <g fill="#FFF">
            <path d="M3.282 17.22c0-1.254.795-2.333 2.306-2.333.571 0 1.024.17 1.504.579a.439.439 0 0 1 .02.63.449.449 0 0 1-.605-.02c-.27-.28-.545-.357-.919-.357-1.011 0-1.497.709-1.497 1.501 0 .806.48 1.546 1.497 1.546.374 0 .722-.15 1.024-.416a.444.444 0 0 1 .604.078c.105.143.158.384-.072.61-.46.424-1.011.508-1.557.508-1.588 0-2.305-1.073-2.305-2.327zM7.994 15.979c.151-1.26 2.075-1.487 2.982-.798.447.356-.026.922-.42.636-.487-.306-1.59-.449-1.728.227-.178 1.066 2.68.455 2.633 2.183-.046 1.65-2.462 1.689-3.37.948A.475.475 0 0 1 8 18.539c.17-.168.36-.227.585-.046.538.364 1.924.637 2.022-.286-.084-.96-2.817-.382-2.613-2.228z"/>
        </g>
        <path fill="#CAD1D8" d="M18.893 21.938H3.286v.812h15.607a.82.82 0 0 0 .821-.813v-.812a.82.82 0 0 1-.821.813z"/>
    </g>
</svg>
