<svg xmlns="http://www.w3.org/2000/svg" width="23" height="26" viewBox="0 0 23 26">
    <g fill="none" fill-rule="nonzero">
        <path fill="#E2E5E7" d="M4.929 0c-.904 0-1.643.731-1.643 1.625v22.75c0 .894.739 1.625 1.643 1.625h16.428c.904 0 1.643-.731 1.643-1.625V6.5L16.429 0h-11.5z"/>
        <path fill="#B0B7BD" d="M18.071 6.5H23L16.429 0v4.875c0 .894.739 1.625 1.642 1.625z"/>
        <path fill="#CAD1D8" d="M23 11.375L18.071 6.5H23z"/>
        <path fill="#4C9FD2" d="M19.714 21.125a.82.82 0 0 1-.821.813H.82A.82.82 0 0 1 0 21.125V13a.82.82 0 0 1 .821-.813h18.072a.82.82 0 0 1 .821.813v8.125z"/>
        <g fill="#FFF">
            <path d="M1.364 19.5c-.216 0-.453-.118-.453-.403v-3.69c0-.234.237-.403.453-.403h1.504c3.002 0 2.935 4.496.059 4.496H1.364zm.414-3.703v2.91h1.09c1.774 0 1.852-2.91 0-2.91h-1.09z"/>
            <path d="M7.89 19.565c-1.215.052-2.476-.748-2.476-2.34 0-1.597 1.26-2.383 2.476-2.383 1.15.058 2.351.844 2.351 2.384s-1.202 2.339-2.35 2.339zm-.072-3.878c-.736 0-1.537.513-1.537 1.54 0 1.02.802 1.54 1.537 1.54.756 0 1.563-.52 1.563-1.54 0-1.027-.807-1.54-1.563-1.54zM10.553 17.22c0-1.254.795-2.333 2.305-2.333.572 0 1.026.17 1.505.579a.439.439 0 0 1 .02.63.45.45 0 0 1-.605-.02c-.269-.28-.545-.357-.92-.357-1.01 0-1.496.709-1.496 1.501 0 .806.479 1.546 1.496 1.546.375 0 .723-.15 1.026-.416a.444.444 0 0 1 .603.078c.106.143.157.384-.072.61-.46.424-1.011.508-1.557.508-1.589 0-2.305-1.073-2.305-2.327zM16.895 16.562l1.143-1.416c.342-.442 1.005.123.631.546-.394.461-.807.962-1.202 1.473l1.34 1.65c.36.488-.361.956-.716.475l-1.208-1.533-1.189 1.566c-.335.473-1.078-.059-.702-.5l1.319-1.658c-.413-.512-.814-1.012-1.215-1.473-.414-.488.355-.988.656-.533l1.143 1.403z"/>
        </g>
        <path fill="#CAD1D8" d="M18.893 21.938H3.286v.812h15.607a.82.82 0 0 0 .821-.813v-.812a.82.82 0 0 1-.821.813z"/>
    </g>
</svg>
