<svg xmlns="http://www.w3.org/2000/svg" width="23" height="26" viewBox="0 0 23 26">
    <g fill="none" fill-rule="nonzero">
        <path fill="#E2E5E7" d="M4.929 0c-.904 0-1.643.731-1.643 1.625v22.75c0 .894.739 1.625 1.643 1.625h16.428c.904 0 1.643-.731 1.643-1.625V6.5L16.429 0h-11.5z"/>
        <path fill="#B0B7BD" d="M18.071 6.5H23L16.429 0v4.875c0 .894.739 1.625 1.642 1.625z"/>
        <path fill="#CAD1D8" d="M23 11.375L18.071 6.5H23z"/>
        <path fill="#FCC300" d="M19.714 21.125a.82.82 0 0 1-.821.813H.82A.82.82 0 0 1 0 21.125V13a.82.82 0 0 1 .821-.813h18.072a.82.82 0 0 1 .821.813v8.125z"/>
        <path fill="#FFF" d="M7.069 16.597v2.404c0 .287-.237.448-.473.448-.21 0-.394-.161-.394-.448v-3.657c0-.338.29-.45.394-.45.19 0 .302.112.414.235l1.445 1.929 1.497-2.001c.218-.266.75-.163.75.287V19c0 .287-.186.448-.395.448-.236 0-.42-.161-.42-.448v-2.404l-1.09 1.365c-.236.286-.532.286-.75 0l-.978-1.365zM4.056 15.337c0-.533.867-.553.867 0v3.708c0 .54-.867.553-.867 0v-3.708zM15.63 19c-.467.383-1.039.546-1.616.546-1.38 0-2.358-.78-2.358-2.326 0-1.312 1.031-2.332 2.416-2.332.52 0 1.09.176 1.498.572.4.39-.178.968-.571.624-.243-.235-.585-.41-.927-.41-.794 0-1.562.63-1.562 1.546 0 .962.643 1.546 1.504 1.546.4 0 .742-.117.985-.292v-.798h-.985c-.585 0-.526-.794 0-.794h1.313c.244 0 .466.183.466.384v1.384c0 .116-.052.226-.163.35z"/>
        <path fill="#CAD1D8" d="M18.893 21.938H3.286v.812h15.607a.82.82 0 0 0 .821-.813v-.812a.82.82 0 0 1-.821.813z"/>
    </g>
</svg>
