<svg xmlns="http://www.w3.org/2000/svg" width="23" height="26" viewBox="0 0 23 26">
    <g fill="none" fill-rule="nonzero">
        <path fill="#E2E5E7" d="M4.929 0c-.904 0-1.643.731-1.643 1.625v22.75c0 .894.739 1.625 1.643 1.625h16.428c.904 0 1.643-.731 1.643-1.625V6.5L16.429 0h-11.5z"/>
        <path fill="#B0B7BD" d="M18.071 6.5H23L16.429 0v4.875c0 .894.739 1.625 1.642 1.625z"/>
        <path fill="#CAD1D8" d="M23 11.375L18.071 6.5H23z"/>
        <path fill="#FCC300" d="M19.714 21.125a.82.82 0 0 1-.821.813H.82A.82.82 0 0 1 0 21.125V13a.82.82 0 0 1 .821-.813h18.072a.82.82 0 0 1 .821.813v8.125z"/>
        <g fill="#FFF">
            <path d="M5.646 15.394c0-.546.867-.546.867 0v2.566c0 1.02-.493 1.638-1.629 1.638-.558 0-1.024-.15-1.432-.67-.335-.396.296-.967.638-.552.276.338.572.416.86.403.367-.013.69-.176.697-.819v-2.566h-.001zM7.667 15.394a.45.45 0 0 1 .447-.448h1.517c.855 0 1.623.565 1.623 1.65 0 1.026-.768 1.598-1.623 1.598H8.535v.858c0 .286-.184.448-.42.448a.44.44 0 0 1-.448-.448v-3.658zm.868.37v1.619H9.63c.44 0 .789-.385.789-.788 0-.454-.348-.83-.789-.83H8.535zM15.945 19c-.467.384-1.039.546-1.616.546-1.38 0-2.358-.779-2.358-2.326 0-1.311 1.031-2.33 2.416-2.33.52 0 1.09.174 1.498.57.4.39-.178.968-.571.624-.243-.234-.585-.41-.927-.41-.794 0-1.562.63-1.562 1.546 0 .962.643 1.547 1.504 1.547.4 0 .742-.118.985-.292v-.8h-.985c-.585 0-.526-.792 0-.792h1.313c.244 0 .466.182.466.383v1.384c0 .117-.052.226-.163.35z"/>
        </g>
        <path fill="#CAD1D8" d="M18.893 21.938H3.286v.812h15.607a.82.82 0 0 0 .821-.813v-.812a.82.82 0 0 1-.821.813z"/>
    </g>
</svg>
