<svg width="151" height="172" viewBox="0 0 151 172" fill="none" xmlns="http://www.w3.org/2000/svg">
<path d="M32.1533 0C26.2585 0 21.4355 4.82143 21.4355 10.7143V160.714C21.4355 166.607 26.2585 171.429 32.1533 171.429H139.331C145.225 171.429 150.048 166.607 150.048 160.714V42.8571L107.177 0H32.1533Z" fill="#EEEEEE"/>
<path d="M117.895 42.8571H150.049L107.178 0V32.1429C107.178 38.0357 112.001 42.8571 117.895 42.8571Z" fill="#A4A4A4"/>
<path d="M117.895 42.8571L150.048 75V42.8571H117.895Z" fill="#C4C4C4"/>
<path d="M21.4355 144.643H123.254C126.201 144.643 128.613 142.232 128.613 139.286V144.643C128.613 147.589 126.201 150 123.254 150H21.4355V144.643Z" fill="#C4C4C4"/>
<path d="M130.432 139.561C130.432 142.583 127.986 145.055 124.997 145.055H5.43465C2.44559 145.055 0 142.583 0 139.561V84.6158C0 81.5938 2.44559 79.1213 5.43465 79.1213H124.997C127.986 79.1213 130.432 81.5938 130.432 84.6158V139.561Z" fill="#9C27B0"/>
<path d="M23.8992 128.571C23.2344 128.571 22.6563 128.353 22.1648 127.915C21.6734 127.477 21.4277 126.963 21.4277 126.371V102.587C21.4277 101.995 21.6734 101.48 22.1648 101.042C22.6563 100.605 23.2344 100.386 23.8992 100.386H24.9832C25.7348 100.386 26.4285 100.566 27.0645 100.927C27.7004 101.287 28.1629 101.763 28.452 102.355L36.0399 116.95C36.0399 116.976 36.0544 116.988 36.0833 116.988C36.1122 116.988 36.1267 116.976 36.1267 116.95L43.7146 102.355C44.0037 101.763 44.4662 101.287 45.1021 100.927C45.7381 100.566 46.4318 100.386 47.1834 100.386H48.4408C49.1057 100.386 49.6838 100.605 50.1752 101.042C50.6666 101.48 50.9123 101.995 50.9123 102.587V126.371C50.9123 126.963 50.6666 127.477 50.1752 127.915C49.6838 128.353 49.1057 128.571 48.4408 128.571H47.4869C46.8221 128.571 46.2439 128.353 45.7525 127.915C45.2611 127.477 45.0154 126.963 45.0154 126.371V109.575C45.0154 109.55 45.0009 109.537 44.972 109.537C44.9431 109.537 44.9287 109.55 44.9287 109.575L39.7255 119.498C39.4075 120.09 38.9161 120.579 38.2513 120.965C37.6153 121.326 36.936 121.506 36.2134 121.506H35.9532C35.2306 121.506 34.5368 121.326 33.872 120.965C33.236 120.579 32.7591 120.09 32.4411 119.498L27.2379 109.575C27.2379 109.55 27.2235 109.537 27.1946 109.537C27.1657 109.537 27.1512 109.55 27.1512 109.575V126.371C27.1512 126.963 26.9055 127.477 26.4141 127.915C25.9227 128.353 25.3446 128.571 24.6797 128.571H23.8992Z" fill="white"/>
<path d="M63.742 104.788V114.093C63.742 114.273 63.8577 114.389 64.0889 114.44C65.1874 114.569 66.2569 114.633 67.2975 114.633C69.6389 114.633 71.4167 114.183 72.6308 113.282C73.8737 112.355 74.4952 111.042 74.4952 109.344C74.4952 105.92 72.096 104.208 67.2975 104.208C66.2569 104.208 65.1874 104.273 64.0889 104.402C63.8577 104.453 63.742 104.582 63.742 104.788ZM60.1865 128.571C59.5217 128.571 58.9436 128.353 58.4522 127.915C57.9896 127.477 57.7584 126.963 57.7584 126.371V102.78C57.7584 102.162 57.9896 101.609 58.4522 101.12C58.9147 100.631 59.4928 100.36 60.1865 100.309C62.6436 100.103 65.0139 100 67.2975 100C71.6335 100 74.8855 100.772 77.0535 102.317C79.2214 103.835 80.3054 106.049 80.3054 108.958C80.3054 112.175 79.2503 114.607 77.1402 116.255C75.0589 117.902 71.9659 118.726 67.8612 118.726C66.9073 118.726 65.6499 118.674 64.0889 118.571C63.8577 118.571 63.742 118.674 63.742 118.88V126.371C63.742 126.963 63.4963 127.477 63.0049 127.915C62.5135 128.353 61.9354 128.571 61.2705 128.571H60.1865Z" fill="white"/>
<path d="M87.8036 118.417C87.8036 118.443 87.7891 118.456 87.7602 118.456C87.7602 118.456 87.7602 118.468 87.7602 118.494C87.7602 118.52 87.7747 118.533 87.8036 118.533H96.0853C96.3165 118.533 96.4322 118.417 96.4322 118.185V107.49C96.4322 107.465 96.4177 107.452 96.3888 107.452H96.3455L87.8036 118.417ZM84.5083 122.78C83.8723 122.78 83.3086 122.574 82.8172 122.162C82.3547 121.75 82.1235 121.248 82.1235 120.656C82.1235 119.215 82.586 117.928 83.511 116.795L95.0447 102.162C95.9697 100.978 97.256 100.386 98.9037 100.386H99.8576C100.522 100.386 101.101 100.605 101.592 101.042C102.083 101.48 102.329 101.995 102.329 102.587V118.185C102.329 118.417 102.445 118.533 102.676 118.533H104.757C105.422 118.533 105.986 118.739 106.448 119.151C106.911 119.562 107.142 120.064 107.142 120.656C107.142 121.248 106.911 121.75 106.448 122.162C105.986 122.574 105.422 122.78 104.757 122.78H102.676C102.445 122.78 102.329 122.896 102.329 123.127V126.371C102.329 126.963 102.083 127.477 101.592 127.915C101.101 128.353 100.522 128.571 99.8576 128.571H98.9037C98.2388 128.571 97.6607 128.353 97.1693 127.915C96.6779 127.477 96.4322 126.963 96.4322 126.371V123.127C96.4322 122.896 96.3165 122.78 96.0853 122.78H84.5083Z" fill="white"/>
</svg>
