<?xml version="1.0" encoding="UTF-8"?>
<svg width="23px" height="26px" viewBox="0 0 448 512" version="1.1" xmlns="http://www.w3.org/2000/svg" xmlns:xlink="http://www.w3.org/1999/xlink">
    <!-- Generator: Sketch 52.2 (67145) - http://www.bohemiancoding.com/sketch -->
    <title>file / others</title>
    <desc>Created with Sketch.</desc>
    <g id="file-/-others" stroke="none" stroke-width="1" fill="none" fill-rule="evenodd">
        <g id="Others" fill-rule="nonzero">
            <path d="M96,0 C78.4,0 64,14.4 64,32 L64,480 C64,497.6 78.4,512 96,512 L416,512 C433.6,512 448,497.6 448,480 L448,128 L320,0 L96,0 Z" id="Shape" fill="#E2E5E7"></path>
            <path d="M352,128 L448,128 L320,0 L320,96 C320,113.6 334.4,128 352,128 Z" id="Shape" fill="#B0B7BD"></path>
            <polygon id="Shape" fill="#CAD1D8" points="448 224 352 128 448 128"></polygon>
            <path d="M384,416 C384,424.8 376.8,432 368,432 L16,432 C7.2,432 0,424.8 0,416 L0,256 C0,247.2 7.2,240 16,240 L368,240 C376.8,240 384,247.2 384,256 L384,416 Z" id="Shape" fill="#B0B7BD"></path>
            <path d="M368,432 L64,432 L64,448 L368,448 C376.8,448 384,440.8 384,432 L384,416 C384,424.8 376.8,432 368,432 Z" id="Shape" fill="#CAD1D8"></path>
        </g>
    </g>
</svg>