<svg xmlns="http://www.w3.org/2000/svg" width="23" height="26" viewBox="0 0 23 26">
    <g fill="none" fill-rule="nonzero">
        <path fill="#E2E5E7" d="M4.665 0C3.75 0 3 .731 3 1.625v22.75c0 .894.75 1.625 1.666 1.625h16.661c.916 0 1.666-.731 1.666-1.625V6.5L16.328 0H4.665z"/>
        <path fill="#B0B7BD" d="M18.082 6h4.91l-6.546-6v4.5c0 .825.736 1.5 1.636 1.5z"/>
        <path fill="#CAD1D8" d="M22.992 11l-5.455-5h5.455z"/>
        <path fill="#E00000" d="M19.993 21.167a.836.836 0 0 1-.833.833H.833A.836.836 0 0 1 0 21.167v-8.334C0 12.375.375 12 .833 12H19.16c.458 0 .833.375.833.833v8.334z"/>
        <g fill="#FFF">
            <path d="M3.656 15.393c0-.205.173-.429.452-.429h1.536c.865 0 1.644.541 1.644 1.579 0 .983-.779 1.53-1.644 1.53h-1.11v.822c0 .274-.186.428-.426.428-.22 0-.452-.154-.452-.428v-3.502zm.878.354v1.55h1.11c.446 0 .799-.368.799-.754a.797.797 0 0 0-.799-.796h-1.11zM8.59 19.323c-.22 0-.459-.112-.459-.385v-3.532c0-.223.24-.386.46-.386h1.522c3.04 0 2.973 4.303.06 4.303H8.59zm.42-3.544v2.786h1.103c1.796 0 1.876-2.786 0-2.786H9.01zM14.164 15.829v.988h1.695c.24 0 .48.224.48.441 0 .206-.24.374-.48.374h-1.695v1.306c0 .217-.166.385-.399.385-.293 0-.471-.168-.471-.385v-3.533c0-.223.18-.386.471-.386H16.1c.292 0 .465.163.465.386 0 .2-.173.423-.465.423h-1.936z"/>
        </g>
        <path fill="#CAD1D8" d="M19.143 21.933H3v.5h16.144c.468 0 .85-.225.85-.5v-.5c0 .275-.382.5-.85.5z"/>
    </g>
</svg>
