<svg xmlns="http://www.w3.org/2000/svg" width="23" height="26" viewBox="0 0 23 26">
    <g fill="none" fill-rule="nonzero">
        <path fill="#E2E5E7" d="M4.929 0c-.904 0-1.643.731-1.643 1.625v22.75c0 .894.739 1.625 1.643 1.625h16.428c.904 0 1.643-.731 1.643-1.625V6.5L16.429 0h-11.5z"/>
        <path fill="#B0B7BD" d="M18.071 6.5H23L16.429 0v4.875c0 .894.739 1.625 1.642 1.625z"/>
        <path fill="#CAD1D8" d="M23 11.375L18.071 6.5H23z"/>
        <path fill="#FCC300" d="M19.714 21.125a.82.82 0 0 1-.821.813H.82A.82.82 0 0 1 0 21.125V13a.82.82 0 0 1 .821-.813h18.072a.82.82 0 0 1 .821.813v8.125z"/>
        <g fill="#FFF">
            <path d="M3.122 15.394c0-.214.17-.449.446-.449h1.518c.854 0 1.623.566 1.623 1.65 0 1.027-.77 1.598-1.623 1.598H3.988v.858c0 .287-.182.449-.42.449a.44.44 0 0 1-.446-.449v-3.657zm.866.37v1.618h1.097c.44 0 .788-.384.788-.787 0-.455-.348-.83-.788-.83H3.988zM7.546 15.46c0-.235.052-.462.394-.462.236 0 .29.058.466.227l2.173 2.69v-2.52c0-.215.19-.45.414-.45.237 0 .466.235.466.45v3.656c0 .287-.178.396-.348.449-.23 0-.342-.052-.532-.227l-2.173-2.729v2.508c0 .287-.178.449-.414.449a.43.43 0 0 1-.447-.449V15.46zM16.4 19c-.467.383-1.038.546-1.616.546-1.38 0-2.358-.78-2.358-2.326 0-1.312 1.031-2.332 2.416-2.332.52 0 1.09.176 1.498.572.4.39-.178.968-.571.624-.243-.235-.585-.41-.927-.41-.794 0-1.562.63-1.562 1.546 0 .962.643 1.546 1.504 1.546.4 0 .742-.117.985-.292v-.798h-.985c-.585 0-.526-.794 0-.794h1.314c.243 0 .465.183.465.384v1.384c0 .116-.051.226-.163.35z"/>
        </g>
        <path fill="#CAD1D8" d="M18.893 21.938H3.286v.812h15.607a.82.82 0 0 0 .821-.813v-.812a.82.82 0 0 1-.821.813z"/>
    </g>
</svg>
