<svg xmlns="http://www.w3.org/2000/svg" width="23" height="26" viewBox="0 0 23 26">
    <g fill="none" fill-rule="nonzero">
        <path fill="#E2E5E7" d="M4.929 0c-.904 0-1.643.731-1.643 1.625v22.75c0 .894.739 1.625 1.643 1.625h16.428c.904 0 1.643-.731 1.643-1.625V6.5L16.429 0h-11.5z"/>
        <path fill="#B0B7BD" d="M18.071 6.5H23L16.429 0v4.875c0 .894.739 1.625 1.642 1.625z"/>
        <path fill="#CAD1D8" d="M23 11.375L18.071 6.5H23z"/>
        <path fill="#F77B0D" d="M19.714 21.125a.82.82 0 0 1-.821.813H.82A.82.82 0 0 1 0 21.125V13a.82.82 0 0 1 .821-.813h18.072a.82.82 0 0 1 .821.813v8.125z"/>
        <path fill="#FFF" d="M12.5 15.959c.152-1.261 2.075-1.488 2.982-.799.447.357-.026.922-.42.636-.487-.304-1.59-.447-1.728.227-.177 1.066 2.68.456 2.634 2.184-.046 1.65-2.463 1.688-3.37.948a.477.477 0 0 1-.092-.637c.171-.168.36-.227.585-.045.538.364 1.925.637 2.022-.286-.084-.96-2.816-.383-2.613-2.228z"/>
        <g fill="#FFF">
            <path d="M3.771 15.394a.45.45 0 0 1 .446-.448h1.517c.855 0 1.624.565 1.624 1.65 0 1.026-.77 1.598-1.624 1.598H4.638v.858c0 .286-.183.448-.42.448a.44.44 0 0 1-.446-.448v-3.658zm.867.37v1.619h1.096c.44 0 .789-.385.789-.788 0-.454-.348-.83-.789-.83H4.638zM8.195 15.394a.45.45 0 0 1 .446-.448h1.518c.854 0 1.623.565 1.623 1.65 0 1.026-.77 1.598-1.623 1.598H9.062v.858c0 .286-.184.448-.42.448a.44.44 0 0 1-.447-.448v-3.658zm.866.37v1.619h1.097c.44 0 .788-.385.788-.788 0-.454-.348-.83-.788-.83H9.06z"/>
        </g>
        <path fill="#CAD1D8" d="M18.893 21.938H3.286v.812h15.607a.82.82 0 0 0 .821-.813v-.812a.82.82 0 0 1-.821.813z"/>
    </g>
</svg>
