<svg xmlns="http://www.w3.org/2000/svg" width="23" height="26" viewBox="0 0 23 26">
    <g fill="none" fill-rule="nonzero">
        <path fill="#E2E5E7" d="M4.929 0c-.904 0-1.643.731-1.643 1.625v22.75c0 .894.739 1.625 1.643 1.625h16.428c.904 0 1.643-.731 1.643-1.625V6.5L16.429 0h-11.5z"/>
        <path fill="#B0B7BD" d="M18.071 6.5H23L16.429 0v4.875c0 .894.739 1.625 1.642 1.625z"/>
        <path fill="#CAD1D8" d="M23 11.375L18.071 6.5H23z"/>
        <path fill="#4C9FD2" d="M19.714 21.125a.82.82 0 0 1-.821.813H.82A.82.82 0 0 1 0 21.125V13a.82.82 0 0 1 .821-.813h18.072a.82.82 0 0 1 .821.813v8.125z"/>
        <path fill="#FFF" d="M4.62 19.054c0 .564-.872.585-.872.013v-3.69a.39.39 0 0 1 .393-.397h1.747c1.669 0 2.01 2.21.618 2.761l.873 1.053c.342.5-.341.981-.736.488l-.991-1.404H4.62v1.176zm0-1.923h1.268c.855 0 .907-1.364 0-1.364H4.621v1.364zM13.591 15.825v1.033h1.675c.237 0 .473.234.473.462 0 .214-.236.389-.473.389h-1.675v1.364a.388.388 0 0 1-.393.403c-.29 0-.466-.175-.466-.403v-3.69c0-.234.178-.403.466-.403h2.306c.289 0 .46.17.46.403a.45.45 0 0 1-.46.442H13.59zM9.481 15.817H8.333c-.572 0-.572-.831 0-.831h3.106c.585 0 .585.83 0 .83h-1.09v3.282c0 .565-.868.578-.868 0v-3.281z"/>
        <path fill="#CAD1D8" d="M18.893 21.938H3.286v.812h15.607a.82.82 0 0 0 .821-.813v-.812a.82.82 0 0 1-.821.813z"/>
    </g>
</svg>
