<svg xmlns="http://www.w3.org/2000/svg" width="23" height="26" viewBox="0 0 23 26">
    <g fill="none" fill-rule="nonzero">
        <path fill="#E2E5E7" d="M4.929 0c-.904 0-1.643.731-1.643 1.625v22.75c0 .894.739 1.625 1.643 1.625h16.428c.904 0 1.643-.731 1.643-1.625V6.5L16.429 0h-11.5z"/>
        <path fill="#B0B7BD" d="M18.071 6.5H23L16.429 0v4.875c0 .894.739 1.625 1.642 1.625z"/>
        <path fill="#CAD1D8" d="M23 11.375L18.071 6.5H23z"/>
        <path fill="#4C9FD2" d="M19.714 21.125a.82.82 0 0 1-.821.813H.82A.82.82 0 0 1 0 21.125V13a.82.82 0 0 1 .821-.813h18.072a.82.82 0 0 1 .821.813v8.125z"/>
        <g fill="#FFF">
            <path d="M5.174 15.817H4.025c-.572 0-.572-.831 0-.831h3.107c.585 0 .585.83 0 .83H6.04v3.281c0 .565-.868.579-.868 0v-3.28h.001zM9.878 16.564l1.144-1.417c.342-.44 1.005.124.63.546-.393.462-.807.962-1.202 1.474l1.34 1.65c.361.488-.36.956-.715.475l-1.209-1.533-1.188 1.566c-.336.473-1.078-.059-.703-.501l1.32-1.657c-.414-.512-.815-1.012-1.215-1.474-.414-.487.354-.987.656-.532l1.143 1.403zM13.671 15.817h-1.148c-.572 0-.572-.831 0-.831h3.106c.584 0 .584.83 0 .83h-1.09v3.281c0 .565-.868.579-.868 0v-3.28z"/>
        </g>
        <path fill="#CAD1D8" d="M18.893 21.938H3.286v.812h15.607a.82.82 0 0 0 .821-.813v-.812a.82.82 0 0 1-.821.813z"/>
    </g>
</svg>
