<svg xmlns="http://www.w3.org/2000/svg" width="23" height="26" viewBox="0 0 23 26">
    <g fill="none" fill-rule="nonzero">
        <path fill="#E2E5E7" d="M4.888 0c-.905 0-1.646.731-1.646 1.625v22.75c0 .894.74 1.625 1.646 1.625h16.465C22.26 26 23 25.269 23 24.375V6.5L16.414 0H4.888z"/>
        <path fill="#B0B7BD" d="M18.06 6.5H23L16.414 0v4.875c0 .894.74 1.625 1.646 1.625z"/>
        <path fill="#CAD1D8" d="M22.981 11.375L18.046 6.5h4.935z"/>
        <path fill="#1BB934" d="M19.45 21.125a.814.814 0 0 1-.81.813H.81a.814.814 0 0 1-.81-.813V13c0-.447.365-.813.81-.813h17.83c.445 0 .81.366.81.813v8.125z"/>
        <g fill="#FFF">
            <path d="M5.69 16.564l1.127-1.416c.337-.442.992.123.622.545-.388.462-.796.962-1.185 1.475l1.322 1.65c.356.488-.356.955-.706.474l-1.193-1.533-1.173 1.566c-.33.474-1.063-.058-.693-.5l1.302-1.657c-.409-.513-.804-1.013-1.199-1.475-.407-.487.35-.987.649-.53l1.127 1.401zM8.376 15.394c0-.214.181-.396.408-.396.207 0 .382.183.382.396v3.255h1.763c.635 0 .648.851 0 .851H8.785c-.227 0-.409-.162-.409-.396v-3.71zM12.158 15.98c.149-1.262 2.047-1.488 2.941-.8.441.357-.026.923-.415.637-.48-.305-1.568-.448-1.704.227-.175 1.066 2.644.455 2.598 2.184-.045 1.65-2.43 1.688-3.324.948a.481.481 0 0 1-.09-.637c.168-.168.355-.227.576-.045.531.363 1.9.636 1.996-.287-.084-.96-2.78-.382-2.578-2.228z"/>
        </g>
        <path fill="#CAD1D8" d="M18.64 21.938H3.241v.812h15.397c.446 0 .81-.366.81-.813v-.812a.814.814 0 0 1-.81.813z"/>
    </g>
</svg>
