<svg xmlns="http://www.w3.org/2000/svg" width="23" height="26" viewBox="0 0 23 26">
    <g fill="none" fill-rule="nonzero">
        <path fill="#E2E5E7" d="M4.929 0c-.904 0-1.643.731-1.643 1.625v22.75c0 .894.739 1.625 1.643 1.625h16.428c.904 0 1.643-.731 1.643-1.625V6.5L16.429 0h-11.5z"/>
        <path fill="#B0B7BD" d="M18.071 6.5H23L16.429 0v4.875c0 .894.739 1.625 1.642 1.625z"/>
        <path fill="#CAD1D8" d="M23 11.375L18.071 6.5H23z"/>
        <path fill="#1BB934" d="M19.714 21.125a.82.82 0 0 1-.821.813H.82A.82.82 0 0 1 0 21.125V13a.82.82 0 0 1 .821-.813h18.072a.82.82 0 0 1 .821.813v8.125z"/>
        <g fill="#FFF">
            <path d="M3.56 16.564l1.142-1.416c.342-.442 1.006.123.631.545a38.05 38.05 0 0 0-1.202 1.475l1.34 1.65c.362.488-.36.955-.715.474l-1.21-1.533-1.188 1.566c-.335.474-1.078-.058-.703-.5l1.32-1.657c-.414-.513-.815-1.013-1.215-1.475-.413-.487.355-.987.657-.53l1.143 1.401zM16.138 16.564l1.142-1.416c.342-.442 1.006.123.631.545a38.05 38.05 0 0 0-1.201 1.475l1.34 1.65c.36.488-.361.955-.716.474l-1.21-1.533-1.188 1.566c-.335.474-1.078-.058-.703-.5l1.32-1.657c-.414-.513-.815-1.013-1.215-1.475-.413-.487.355-.987.657-.53l1.143 1.401zM6.282 15.394c0-.214.184-.396.414-.396.21 0 .388.183.388.396v3.255H8.87c.643 0 .657.851 0 .851H6.697c-.23 0-.414-.162-.414-.396v-3.71h-.001zM10.115 15.98c.152-1.262 2.075-1.488 2.982-.8.447.357-.026.923-.42.637-.487-.305-1.59-.448-1.728.227-.177 1.066 2.68.455 2.634 2.184-.046 1.65-2.463 1.688-3.37.948a.477.477 0 0 1-.092-.637c.171-.168.36-.227.585-.045.538.363 1.925.636 2.022-.287-.084-.96-2.816-.382-2.613-2.228z"/>
        </g>
        <path fill="#CAD1D8" d="M18.893 21.938H3.286v.812h15.607a.82.82 0 0 0 .821-.813v-.812a.82.82 0 0 1-.821.813z"/>
    </g>
</svg>
