<?xml version="1.0" encoding="UTF-8"?>
<svg width="23px" height="26px" viewBox="0 0 448 512" version="1.1" xmlns="http://www.w3.org/2000/svg" xmlns:xlink="http://www.w3.org/1999/xlink">
    <!-- Generator: Sketch 52.2 (67145) - http://www.bohemiancoding.com/sketch -->
    <title>file / zip</title>
    <desc>Created with Sketch.</desc>
    <g id="file-/-zip" stroke="none" stroke-width="1" fill="none" fill-rule="evenodd">
        <g id="zip">
            <path d="M96,0 C78.4,0 64,14.4 64,32 L64,480 C64,497.6 78.4,512 96,512 L416,512 C433.6,512 448,497.6 448,480 L448,128 L320,0 L96,0 Z" id="Shape" fill="#E2E5E7" fill-rule="nonzero"></path>
            <path d="M352,128 L448,128 L320,0 L320,96 C320,113.6 334.4,128 352,128 Z" id="Shape" fill="#B0B7BD" fill-rule="nonzero"></path>
            <polygon id="Shape" fill="#CAD1D8" fill-rule="nonzero" points="448 224 352 128 448 128"></polygon>
            <path d="M384,416 C384,424.8 376.8,432 368,432 L16,432 C7.2,432 0,424.8 0,416 L0,256 C0,247.2 7.2,240 16,240 L368,240 C376.8,240 384,247.2 384,256 L384,416 Z" id="Shape" fill="#06507F" fill-rule="nonzero"></path>
            <path d="M368,432 L64,432 L64,448 L368,448 C376.8,448 384,440.8 384,432 L384,416 C384,424.8 376.8,432 368,432 Z" id="Shape" fill="#CAD1D8" fill-rule="nonzero"></path>
            <path d="M106.787857,379.268958 C98.2125777,379.268958 94.809689,371.93409 99.7098488,366.752991 L148.14997,309.791032 L107.995883,309.791032 C96.1708445,309.791032 97.1236533,295.000803 107.995883,295.000803 L162.833435,295.000803 C173.161202,295.000803 176.155744,303.646008 168.822519,310.649528 L122.424131,363.981706 L166.64467,363.981706 C177.533914,363.981706 178.89507,379.28402 165.57276,379.28402 L106.787857,379.28402 L106.787857,379.268958 Z" id="Path" fill="#FFFFFF"></path>
            <path d="M192.978561,302.547139 C192.978561,292.666905 210.945814,292.305433 210.945814,302.547139 L210.945814,371.302122 C210.945814,381.287786 192.978561,381.543828 192.978561,371.302122 L192.978561,302.547139 Z" id="Path" fill="#FFFFFF"></path>
            <path d="M231.18882,303.314659 C231.18882,299.338467 234.727824,295.000803 240.444677,295.000803 L271.870355,295.000803 C289.565376,295.000803 305.490895,305.483491 305.490895,325.575308 C305.490895,344.612832 289.565376,355.21601 271.870355,355.21601 L249.156072,355.21601 L249.156072,371.120778 C249.156072,376.422367 245.344837,379.419572 240.444677,379.419572 C235.952864,379.419572 231.18882,376.422367 231.18882,371.120778 L231.18882,303.314659 Z M249.139058,310.167565 L249.139058,340.169739 L271.85334,340.169739 C280.973082,340.169739 288.187206,333.045729 288.187206,325.575308 C288.187206,317.156023 280.973082,310.167565 271.85334,310.167565 L249.139058,310.167565 Z" id="Shape" fill="#FFFFFF" fill-rule="nonzero"></path>
        </g>
    </g>
</svg>