<svg width="16px" height="16px" viewBox="0 0 12 14" fill="none" xmlns="http://www.w3.org/2000/svg">
<path d="M10.1562 2.25C10.4863 2.25 10.7656 2.37695 11.0195 2.60547C11.248 2.85938 11.375 3.13867 11.375 3.46875V12.4062C11.375 12.7617 11.248 13.041 11.0195 13.2695C10.7656 13.5234 10.4863 13.625 10.1562 13.625H1.21875C0.863281 13.625 0.583984 13.5234 0.355469 13.2695C0.101562 13.041 0 12.7617 0 12.4062V3.46875C0 3.13867 0.101562 2.85938 0.355469 2.60547C0.583984 2.37695 0.863281 2.25 1.21875 2.25H2.4375V0.929688C2.4375 0.853516 2.46289 0.777344 2.51367 0.726562C2.56445 0.675781 2.64062 0.625 2.74219 0.625H2.94531C3.02148 0.625 3.09766 0.675781 3.14844 0.726562C3.19922 0.777344 3.25 0.853516 3.25 0.929688V2.25H8.125V0.929688C8.125 0.853516 8.15039 0.777344 8.20117 0.726562C8.25195 0.675781 8.32812 0.625 8.42969 0.625H8.63281C8.70898 0.625 8.78516 0.675781 8.83594 0.726562C8.88672 0.777344 8.9375 0.853516 8.9375 0.929688V2.25H10.1562ZM1.21875 3.0625C1.0918 3.0625 0.990234 3.11328 0.914062 3.18945C0.837891 3.26562 0.8125 3.36719 0.8125 3.46875V4.6875H10.5625V3.46875C10.5625 3.36719 10.5117 3.26562 10.4355 3.18945C10.3594 3.11328 10.2578 3.0625 10.1562 3.0625H1.21875ZM10.1562 12.8125C10.2578 12.8125 10.3594 12.7871 10.4355 12.7109C10.5117 12.6348 10.5625 12.5332 10.5625 12.4062V5.5H0.8125V12.4062C0.8125 12.5332 0.837891 12.6348 0.914062 12.7109C0.990234 12.7871 1.0918 12.8125 1.21875 12.8125H10.1562ZM8.48047 7.86133C8.53125 7.81055 8.55664 7.75977 8.55664 7.6582C8.55664 7.58203 8.53125 7.50586 8.48047 7.42969L8.25195 7.22656C8.20117 7.17578 8.125 7.125 8.04883 7.125C7.94727 7.125 7.87109 7.15039 7.82031 7.20117L4.82422 10.1719L3.55469 8.90234C3.47852 8.85156 3.40234 8.80078 3.32617 8.80078C3.22461 8.80078 3.17383 8.85156 3.12305 8.90234L2.89453 9.10547C2.84375 9.18164 2.81836 9.25781 2.81836 9.33398C2.81836 9.43555 2.84375 9.48633 2.89453 9.53711L4.62109 11.2637C4.67188 11.3145 4.72266 11.3398 4.82422 11.3398C4.90039 11.3398 4.97656 11.3145 5.05273 11.2637L8.48047 7.86133Z" fill="#888888"/>
</svg>
