<svg width="16px" height="16px" viewBox="0 0 17 12" fill="none" xmlns="http://www.w3.org/2000/svg">
<path d="M8.32227 3.89062L10.8105 6.4043C10.8613 6.45508 10.9121 6.53125 10.9121 6.60742C10.9121 6.70898 10.8613 6.78516 10.8105 6.83594L10.6582 6.96289C10.6074 7.03906 10.5312 7.06445 10.4551 7.06445C10.3535 7.06445 10.2773 7.03906 10.2266 6.96289L8.5 5.23633V9.07031C8.5 9.17188 8.44922 9.24805 8.39844 9.29883C8.34766 9.34961 8.27148 9.375 8.19531 9.375H7.99219C7.89062 9.375 7.81445 9.34961 7.76367 9.29883C7.71289 9.24805 7.6875 9.17188 7.6875 9.07031V5.23633L5.96094 6.96289C5.88477 7.03906 5.80859 7.06445 5.73242 7.06445C5.63086 7.06445 5.58008 7.03906 5.5293 6.96289L5.37695 6.83594C5.32617 6.78516 5.30078 6.70898 5.30078 6.60742C5.30078 6.53125 5.32617 6.45508 5.37695 6.4043L7.89062 3.89062C7.94141 3.83984 7.99219 3.81445 8.09375 3.81445C8.16992 3.81445 8.24609 3.83984 8.32227 3.89062ZM14.8984 5.69336C15.4062 5.99805 15.8379 6.4043 16.1426 6.91211C16.4473 7.41992 16.625 7.97852 16.625 8.5625C16.625 9.17188 16.4727 9.70508 16.1934 10.2129C15.8887 10.7207 15.5078 11.1016 15 11.3809C14.4922 11.6855 13.959 11.8125 13.375 11.8125H4.03125C3.37109 11.8125 2.76172 11.6602 2.20312 11.3301C1.64453 11 1.1875 10.543 0.857422 9.98438C0.527344 9.42578 0.375 8.81641 0.375 8.15625C0.375 7.39453 0.578125 6.68359 1.03516 6.04883C1.49219 5.41406 2.07617 4.95703 2.8125 4.70312C2.83789 3.94141 3.06641 3.23047 3.47266 2.57031C3.87891 1.91016 4.41211 1.40234 5.09766 1.02148C5.75781 0.640625 6.49414 0.4375 7.28125 0.4375C8.01758 0.4375 8.70312 0.615234 9.36328 0.945312C9.99805 1.30078 10.5312 1.75781 10.9375 2.3418C11.3184 2.16406 11.7246 2.0625 12.1562 2.0625C12.6641 2.0625 13.1211 2.18945 13.5781 2.44336C14.0098 2.69727 14.3652 3.05273 14.6191 3.48438C14.873 3.94141 15 4.39844 15 4.90625C15 5.18555 14.9492 5.43945 14.8984 5.69336ZM13.375 11C14.0352 11 14.6191 10.7715 15.1016 10.2891C15.5586 9.83203 15.8125 9.24805 15.8125 8.5625C15.8125 7.95312 15.6094 7.44531 15.2285 6.98828C14.8223 6.53125 14.3398 6.25195 13.7559 6.15039C14.0352 5.79492 14.1875 5.38867 14.1875 4.90625C14.1875 4.34766 13.9844 3.89062 13.5781 3.48438C13.1719 3.07812 12.6895 2.875 12.1309 2.875C11.5469 2.875 11.0645 3.10352 10.6582 3.53516C10.3789 2.875 9.94727 2.31641 9.33789 1.88477C8.72852 1.47852 8.04297 1.25 7.28125 1.25C6.62109 1.25 6.01172 1.42773 5.45312 1.75781C4.89453 2.08789 4.4375 2.51953 4.10742 3.07812C3.77734 3.63672 3.625 4.24609 3.625 4.90625C3.625 5.05859 3.625 5.21094 3.65039 5.33789C2.93945 5.43945 2.35547 5.76953 1.89844 6.30273C1.41602 6.83594 1.1875 7.44531 1.1875 8.15625C1.1875 8.66406 1.31445 9.14648 1.56836 9.57812C1.82227 10.0352 2.15234 10.3652 2.60938 10.6191C3.04102 10.873 3.52344 11 4.03125 11H13.375Z" fill="#888888"/>
</svg>
