<svg width="17" height="5" viewBox="0 0 17 5" fill="none" xmlns="http://www.w3.org/2000/svg">
<path d="M10.375 2.5C10.375 1.99219 10.1797 1.5625 9.82812 1.17188C9.4375 0.820312 9.00781 0.625 8.5 0.625C7.95312 0.625 7.52344 0.820312 7.17188 1.17188C6.78125 1.5625 6.625 1.99219 6.625 2.5C6.625 3.04688 6.78125 3.47656 7.17188 3.82812C7.52344 4.21875 7.95312 4.375 8.5 4.375C9.00781 4.375 9.4375 4.21875 9.82812 3.82812C10.1797 3.47656 10.375 3.04688 10.375 2.5ZM15.0625 0.625C15.5703 0.625 16 0.820312 16.3906 1.17188C16.7422 1.5625 16.9375 1.99219 16.9375 2.5C16.9375 3.04688 16.7422 3.47656 16.3906 3.82812C16 4.21875 15.5703 4.375 15.0625 4.375C14.5156 4.375 14.0859 4.21875 13.7344 3.82812C13.3438 3.47656 13.1875 3.04688 13.1875 2.5C13.1875 1.99219 13.3438 1.5625 13.7344 1.17188C14.0859 0.820312 14.5156 0.625 15.0625 0.625ZM1.9375 0.625C2.44531 0.625 2.875 0.820312 3.26562 1.17188C3.61719 1.5625 3.8125 1.99219 3.8125 2.5C3.8125 3.04688 3.61719 3.47656 3.26562 3.82812C2.875 4.21875 2.44531 4.375 1.9375 4.375C1.39062 4.375 0.960938 4.21875 0.609375 3.82812C0.21875 3.47656 0.0625 3.04688 0.0625 2.5C0.0625 1.99219 0.21875 1.5625 0.609375 1.17188C0.960938 0.820312 1.39062 0.625 1.9375 0.625Z" fill="#4C9FD2"/>
</svg>
