<svg width="16px" height="16px" viewBox="0 0 10 14" fill="none" xmlns="http://www.w3.org/2000/svg">
<path d="M9.51953 3.11328C9.74805 3.36719 9.875 3.64648 9.875 3.97656V12.4062C9.875 12.7617 9.74805 13.041 9.51953 13.2695C9.26562 13.5234 8.98633 13.625 8.65625 13.625H1.34375C0.988281 13.625 0.708984 13.5234 0.480469 13.2695C0.226562 13.041 0.125 12.7617 0.125 12.4062V1.84375C0.125 1.51367 0.226562 1.23438 0.480469 0.980469C0.708984 0.751953 0.988281 0.625 1.34375 0.625H6.52344C6.85352 0.625 7.13281 0.751953 7.38672 0.980469L9.51953 3.11328ZM8.93555 3.69727L6.80273 1.56445C6.75195 1.51367 6.67578 1.48828 6.625 1.4375V3.875H9.0625C9.01172 3.82422 8.98633 3.74805 8.93555 3.69727ZM8.65625 12.8125C8.75781 12.8125 8.85938 12.7871 8.93555 12.7109C9.01172 12.6348 9.0625 12.5332 9.0625 12.4062V4.6875H6.42188C6.24414 4.6875 6.0918 4.63672 5.99023 4.50977C5.86328 4.4082 5.8125 4.25586 5.8125 4.07812V1.4375H1.34375C1.2168 1.4375 1.11523 1.48828 1.03906 1.56445C0.962891 1.64062 0.9375 1.74219 0.9375 1.84375V12.4062C0.9375 12.5332 0.962891 12.6348 1.03906 12.7109C1.11523 12.7871 1.2168 12.8125 1.34375 12.8125H8.65625ZM7.4375 6.61719C7.4375 6.54102 7.38672 6.46484 7.33594 6.41406C7.28516 6.36328 7.20898 6.3125 7.13281 6.3125H2.86719C2.76562 6.3125 2.68945 6.36328 2.63867 6.41406C2.58789 6.46484 2.5625 6.54102 2.5625 6.61719V6.82031C2.5625 6.92188 2.58789 6.99805 2.63867 7.04883C2.68945 7.09961 2.76562 7.125 2.86719 7.125H7.13281C7.20898 7.125 7.28516 7.09961 7.33594 7.04883C7.38672 6.99805 7.4375 6.92188 7.4375 6.82031V6.61719ZM7.4375 8.24219C7.4375 8.16602 7.38672 8.08984 7.33594 8.03906C7.28516 7.98828 7.20898 7.9375 7.13281 7.9375H2.86719C2.76562 7.9375 2.68945 7.98828 2.63867 8.03906C2.58789 8.08984 2.5625 8.16602 2.5625 8.24219V8.44531C2.5625 8.54688 2.58789 8.62305 2.63867 8.67383C2.68945 8.72461 2.76562 8.75 2.86719 8.75H7.13281C7.20898 8.75 7.28516 8.72461 7.33594 8.67383C7.38672 8.62305 7.4375 8.54688 7.4375 8.44531V8.24219ZM7.4375 9.86719C7.4375 9.79102 7.38672 9.71484 7.33594 9.66406C7.28516 9.61328 7.20898 9.5625 7.13281 9.5625H2.86719C2.76562 9.5625 2.68945 9.61328 2.63867 9.66406C2.58789 9.71484 2.5625 9.79102 2.5625 9.86719V10.0703C2.5625 10.1719 2.58789 10.248 2.63867 10.2988C2.68945 10.3496 2.76562 10.375 2.86719 10.375H7.13281C7.20898 10.375 7.28516 10.3496 7.33594 10.2988C7.38672 10.248 7.4375 10.1719 7.4375 10.0703V9.86719Z" fill="#888888"/>
</svg>
