<svg width="16px" height="16px" viewBox="0 0 17 10" fill="none" xmlns="http://www.w3.org/2000/svg">
<path d="M0.78125 6.75C0.654297 6.75 0.552734 6.72461 0.476562 6.62305C0.400391 6.54688 0.375 6.44531 0.375 6.34375C0.375 6.24219 0.400391 6.14062 0.476562 6.06445C0.552734 5.98828 0.654297 5.9375 0.78125 5.9375C0.882812 5.9375 0.984375 5.98828 1.06055 6.06445C1.13672 6.14062 1.1875 6.24219 1.1875 6.34375C1.1875 6.44531 1.13672 6.54688 1.06055 6.62305C0.984375 6.72461 0.882812 6.75 0.78125 6.75ZM16.4219 1.875C16.4727 1.875 16.498 1.90039 16.5488 1.95117C16.5996 2.00195 16.625 2.02734 16.625 2.07812V2.48438C16.625 2.53516 16.5996 2.58594 16.5488 2.63672C16.498 2.6875 16.4727 2.6875 16.4219 2.6875H15V7.5625H16.4219C16.4727 7.5625 16.498 7.58789 16.5488 7.63867C16.5996 7.68945 16.625 7.71484 16.625 7.76562V8.17188C16.625 8.22266 16.5996 8.27344 16.5488 8.32422C16.498 8.375 16.4727 8.375 16.4219 8.375H15C14.7715 8.375 14.5684 8.29883 14.416 8.14648C14.2637 7.99414 14.1875 7.79102 14.1875 7.5625H12.9688C12.918 7.81641 12.8418 8.04492 12.6895 8.22266L12.4609 8.52734C12.2578 8.78125 11.9785 8.9082 11.6738 8.95898C11.3945 9.00977 11.1406 8.95898 10.9375 8.83203L10.3789 9.49219C10.0996 9.84766 9.74414 10 9.3125 10C8.98242 10 8.70312 9.89844 8.47461 9.69531L8.29688 9.54297C7.91602 9.84766 7.48438 10 7.00195 10C6.51953 10 6.08789 9.84766 5.73242 9.54297L3.65039 7.5625H2.8125C2.8125 7.79102 2.71094 7.99414 2.55859 8.14648C2.40625 8.29883 2.20312 8.375 2 8.375H0.578125C0.527344 8.375 0.476562 8.375 0.425781 8.32422C0.375 8.27344 0.375 8.22266 0.375 8.17188V7.76562C0.375 7.71484 0.375 7.68945 0.425781 7.63867C0.476562 7.58789 0.527344 7.5625 0.578125 7.5625H2V2.6875H0.578125C0.527344 2.6875 0.476562 2.6875 0.425781 2.63672C0.375 2.58594 0.375 2.53516 0.375 2.48438V2.07812C0.375 2.02734 0.375 2.00195 0.425781 1.95117C0.476562 1.90039 0.527344 1.875 0.578125 1.875H3.44727L4.7168 0.605469C4.9707 0.376953 5.25 0.25 5.58008 0.25H7.35742C7.61133 0.25 7.86523 0.351562 8.09375 0.503906C8.32227 0.351562 8.55078 0.25 8.80469 0.25H11.3691C11.6992 0.25 11.9785 0.376953 12.2324 0.605469L13.5527 1.875H16.4219ZM12.0547 7.71484C12.1055 7.61328 12.1309 7.51172 12.1309 7.41016C12.1309 7.30859 12.0801 7.20703 12.0039 7.13086L8.80469 4.54102L8.2207 5.07422C7.91602 5.35352 7.61133 5.50586 7.25586 5.53125C6.95117 5.58203 6.64648 5.53125 6.36719 5.37891C6.11328 5.27734 5.91016 5.125 5.7832 4.97266C5.42773 4.61719 5.27539 4.21094 5.30078 3.72852C5.32617 3.24609 5.5293 2.83984 5.88477 2.50977L7.38281 1.13867L7.35742 1.0625H5.58008C5.47852 1.0625 5.37695 1.11328 5.30078 1.18945L3.80273 2.6875H2.8125V6.75H3.98047L6.26562 8.93359C6.51953 9.13672 6.79883 9.23828 7.12891 9.1875C7.45898 9.16211 7.73828 9.00977 7.9668 8.73047L8.2207 8.40039L9.00781 9.08594C9.10938 9.1875 9.21094 9.21289 9.36328 9.1875C9.51562 9.1875 9.64258 9.11133 9.74414 8.98438L10.7852 7.68945L11.2422 8.07031C11.3184 8.14648 11.4199 8.17188 11.5469 8.14648C11.6484 8.14648 11.75 8.0957 11.8262 7.99414L12.0547 7.71484ZM14.1875 6.75V2.6875H13.1973L11.6738 1.18945C11.5723 1.11328 11.4707 1.0625 11.3691 1.0625H8.80469C8.70312 1.0625 8.60156 1.11328 8.52539 1.16406L6.41797 3.09375C6.21484 3.29688 6.11328 3.5 6.11328 3.75391C6.11328 4.00781 6.18945 4.23633 6.36719 4.41406C6.51953 4.61719 6.74805 4.71875 7.00195 4.71875C7.25586 4.71875 7.48438 4.64258 7.6875 4.46484L9.5918 2.73828C9.66797 2.66211 9.76953 2.63672 9.87109 2.63672C9.97266 2.63672 10.0742 2.6875 10.1504 2.76367C10.2266 2.83984 10.252 2.94141 10.252 3.04297C10.252 3.16992 10.2012 3.27148 10.1504 3.32227L9.41406 3.98242L12.5117 6.49609C12.5625 6.57227 12.6387 6.64844 12.7402 6.75H14.1875ZM16.2188 5.9375C16.3203 5.9375 16.4219 5.98828 16.498 6.06445C16.5742 6.14062 16.625 6.24219 16.625 6.34375C16.625 6.44531 16.5742 6.54688 16.498 6.62305C16.4219 6.72461 16.3203 6.75 16.2188 6.75C16.0918 6.75 15.9902 6.72461 15.9141 6.64844C15.8379 6.57227 15.8125 6.4707 15.8125 6.34375C15.8125 6.24219 15.8379 6.14062 15.9141 6.06445C15.9902 5.98828 16.0918 5.9375 16.2188 5.9375Z" fill="#888888"/>
</svg>
