<svg xmlns="http://www.w3.org/2000/svg" width="14" height="14" viewBox="0 0 14 14">
    <g fill="currentColor" fill-rule="evenodd">
        <path d="M2.2 2.2v3h2.998l.002-3h-3zm3 4.2h-3C1.538 6.4 1 5.862 1 5.2v-3C1 1.539 1.538 1 2.2 1h3c.662 0 1.2.539 1.2 1.2v3c0 .662-.538 1.2-1.2 1.2zM8.8 2.2v3h2.998l.002-3h-3zm3 4.2h-3c-.662 0-1.2-.538-1.2-1.2v-3c0-.661.538-1.2 1.2-1.2h3c.662 0 1.2.539 1.2 1.2v3c0 .662-.538 1.2-1.2 1.2zM2.2 8.8v3h2.998l.002-3h-3zm3 4.2h-3c-.662 0-1.2-.538-1.2-1.2v-3c0-.661.538-1.2 1.2-1.2h3c.662 0 1.2.539 1.2 1.2v3c0 .662-.538 1.2-1.2 1.2zM8.8 8.8v3h2.998l.002-3h-3zm3 4.2h-3c-.662 0-1.2-.538-1.2-1.2v-3c0-.661.538-1.2 1.2-1.2h3c.662 0 1.2.539 1.2 1.2v3c0 .662-.538 1.2-1.2 1.2z"/>
    </g>
</svg>
