<svg xmlns="http://www.w3.org/2000/svg" width="14" height="14" viewBox="0 0 14 14">
    <g fill="none" fill-rule="evenodd">
        <path d="M0 0h14v14H0z"/>
        <path fill="currentColor" d="M12.842 2.83h-1.32V1.507a.508.508 0 0 0-1.017 0V2.83H9.183a.509.509 0 0 0 0 1.016h1.322v1.321a.507.507 0 1 0 1.016 0v-1.32h1.321a.508.508 0 0 0 0-1.017M11.9 11.733a.26.26 0 0 1-.26.261H5.074l-.171-2.643 2.122.004a.52.52 0 0 0 .519-.518v-.903L9.422 9.26a.519.519 0 0 0 .819-.423v-.903l1.55 1.093c.069.05.11.13.11.213v2.493zm-10.118.261a.261.261 0 0 1-.26-.279l.52-7.667a.291.291 0 0 1 .292-.27h.859c.153 0 .28.117.29.27l.003.038h-.002l.549 7.908H1.782zm10.716-3.738L10.02 6.51a.517.517 0 1 0-.817.425v.902L7.323 6.51a.52.52 0 0 0-.818.425v1.384l-1.672-.004L4.58 4.79l-.001-.004-.023-.304-.057-.768a1.043 1.043 0 0 0-1.04-.975H2.067c-.55 0-1.005.427-1.04.975l-.524 8.208a1.041 1.041 0 0 0 1.039 1.11h10.355c.575 0 1.04-.467 1.04-1.043V9.11c0-.34-.163-.657-.44-.853z"/>
    </g>
</svg>
