<svg xmlns="http://www.w3.org/2000/svg" width="14" height="14" viewBox="0 0 14 14">
    <g fill="none" fill-rule="evenodd">
        <path d="M0 0h14v14H0z"/>
        <g fill="currentColor">
            <path d="M5.25 4.667a1.167 1.167 0 1 0 .002 2.335 1.167 1.167 0 0 0-.002-2.335m0 3.5a2.336 2.336 0 0 1-2.333-2.334A2.336 2.336 0 0 1 5.25 3.5a2.336 2.336 0 0 1 2.333 2.333A2.336 2.336 0 0 1 5.25 8.167M1.843 11.667h6.815c-.35-1.055-1.654-1.75-3.408-1.75-1.755 0-3.059.695-3.407 1.75zm8.073 1.166H.583v-.583c0-2.06 1.92-3.5 4.667-3.5 2.748 0 4.666 1.44 4.666 3.5v.583zM13.417 2.917h-1.75v-1.75H10.5v1.75H8.75v1.166h1.75v1.75h1.167v-1.75h1.75z"/>
        </g>
    </g>
</svg>
