<svg height="14" viewBox="0 0 14 14" width="14" xmlns="http://www.w3.org/2000/svg">
    <g fill="none" fill-rule="evenodd">
        <path d="m0 0h14v14h-14z" />
        <path d="m4.85671412 3.91176471c0 .4298022.70011455 2.36532833 2.10034366 5.80657839 1.45737691-3.44106441 2.18606537-5.37659054 2.18606537-5.80657839 0-1.11905025-1.00715057-1.98528335-2.14235657-2.029401-1.18264534 0-2.14405246.91035075-2.14405246 2.029401zm2.14320451 7.23529409c-.1826875 0-.34846146-.1010491-.42384471-.2583513-.52415882-1.09076093-1.05002705-2.25516277-1.49732634-3.32960258-.75026408-1.80217952-1.15386151-3.06363636-1.15386151-3.64734021 0-1.60539093 1.3796245-2.91176471 3.07503256-2.91176471 1.69540807 0 3.07503257 1.30637378 3.07503257 2.91176471 0 .58376843-.40360949 1.84553689-1.15362002 3.64734768-.44785653 1.07592186-.98088187 2.25595661-1.49739492 3.32923501-.07565951.1578779-.24092796.2587114-.42401763.2587114zm-3.1790432-3.35294115.0465914.04411764-.0465914.8382353-.41530452-.02673788-1.64034982 3.46791439 10.42644081.0614974-1.5547022-3.50267391-.5262449-.04411765.0465914-.83823529h.3260466c.4486176 0 .8520733.25194922 1.0281564.64205406l1.3972256 3.08771229c.1490509.3273757.1139809.7012256-.0938235.9995559-.2083582.2988525-.5566347.4765601-.9337233.4765601h-9.76266923c-.37659451 0-.72457466-.1773335-.93338708-.4757778-.20788676-.2995098-.24294386-.67352-.09376866-1.0009981l1.397368-3.0874071c.17562682-.38980255.57905317-.64169935 1.02762299-.64169935zm4.15746266-3.88235294c0 .51202941-.43767964.92647058-.97841946.92647058-.54073981 0-.97841945-.41444117-.97841945-.92647058 0-.51202942.43767964-.92647059.97841945-.92647059.54073982 0 .97841946.41444117.97841946.92647059z" fill="currentColor" fill-rule="nonzero" />
    </g>
</svg>
