<svg xmlns="http://www.w3.org/2000/svg" width="14" height="14" viewBox="0 0 14 14">
    <g fill="currentColor" fill-rule="evenodd">
        <path d="M0 0h13.061v14H0z"/>
        <path fill="currentColor" d="M8.483 10.504c-.03-.003-.038-.002-.068-.008a.482.482 0 0 1-.269-.15l-3-3.215c-.02-.024-.026-.03-.045-.055a.575.575 0 0 1 0-.648c.019-.026.024-.031.045-.055l3-3.216c.023-.022.028-.028.052-.048a.485.485 0 0 1 .387-.101.478.478 0 0 1 .13.044.54.54 0 0 1 .282.43.574.574 0 0 1-.099.378c-.018.026-.024.031-.044.055L6.207 6.752l2.647 2.837.023.027c.019.025.024.03.041.058A.558.558 0 0 1 9 9.986a.547.547 0 0 1-.255.449.48.48 0 0 1-.16.061c-.03.006-.038.005-.068.008h-.034z"/>
    </g>
</svg>
