<svg width="20" height="24" viewBox="0 0 20 24" fill="none" xmlns="http://www.w3.org/2000/svg">
<path d="M2.99189 23.9993H17.0203C18.6723 24.0127 19.9993 22.706 20.0129 21.0793C20.0129 21.066 20.0129 21.066 20.0129 21.0527V2.946C20.0264 1.31934 18.6994 0.0126715 17.0474 -0.0006618C17.0339 -0.0006618 17.0339 -0.0006618 17.0203 -0.0006618H2.99189C1.3399 -0.0139951 0.0128807 1.29267 -0.000660225 2.91934C-0.000660225 2.93267 -0.000660225 2.93267 -0.000660225 2.946V21.0527C-0.0142012 22.6793 1.31281 23.986 2.96481 23.9993C2.97835 23.9993 2.97835 23.9993 2.99189 23.9993ZM1.38052 2.946C1.38052 2.066 2.09819 1.35934 2.99189 1.35934H17.0203C17.914 1.35934 18.6317 2.066 18.6317 2.946V21.0527C18.6317 21.9327 17.914 22.6393 17.0203 22.6393H2.99189C2.09819 22.6393 1.38052 21.9327 1.38052 21.0527V2.946Z" fill="#00A1FC"/>
<path d="M15.2606 20.08C15.0575 20.08 14.8409 19.9867 14.719 19.8133C14.6648 19.7467 9.7901 13.2133 7.93499 10.6533C7.48814 10.0533 7.04128 9.73333 6.59443 9.72C5.99863 9.70666 5.42991 10.2267 5.26742 10.44C5.25388 10.4533 5.24034 10.48 5.21325 10.4933L1.327 14.32C1.05618 14.5867 0.636409 14.5867 0.36559 14.32C0.0947708 14.0533 0.0947708 13.64 0.36559 13.3733L4.22476 9.57333C4.4008 9.36 5.33512 8.36 6.60797 8.38666C7.50168 8.41333 8.31413 8.90666 9.01826 9.88C10.8598 12.4267 15.7481 18.96 15.8023 19.0267C16.0189 19.32 15.9648 19.7467 15.6533 19.96C15.5315 20.04 15.3961 20.08 15.2606 20.08Z" fill="#00A1FC"/>
<path d="M18.9303 15.6933C18.7136 15.6933 18.497 15.5867 18.3751 15.4C18.3751 15.3867 17.8335 14.6267 16.195 12.7067C15.8023 12.2533 15.3825 12.0133 14.9628 11.9867C14.2722 11.9467 13.6899 12.4667 13.6899 12.48C13.6764 12.4933 13.6628 12.5067 13.6358 12.52L12.1463 13.68C11.8484 13.9067 11.4286 13.8533 11.1984 13.5733C10.9682 13.28 11.0224 12.8667 11.3067 12.64L12.7691 11.5067C12.9587 11.3333 13.8389 10.6133 15.0305 10.6667C15.8429 10.7067 16.5877 11.1067 17.2241 11.8667C18.9167 13.8533 19.4719 14.64 19.4855 14.6667C19.7021 14.9733 19.6209 15.3867 19.3094 15.5867C19.1876 15.6667 19.0657 15.6933 18.9303 15.6933Z" fill="#00A1FC"/>
<path d="M13.7034 9.2C12.0785 9.2 10.765 7.90666 10.765 6.30666C10.765 4.70666 12.0785 3.41333 13.7034 3.41333C15.3283 3.41333 16.6418 4.70666 16.6418 6.30666C16.6418 7.90666 15.3148 9.2 13.7034 9.2ZM13.7034 4.74666C12.8368 4.74666 12.1191 5.44 12.1191 6.30666C12.1191 7.16 12.8232 7.86666 13.7034 7.86666C14.5836 7.86666 15.2877 7.17333 15.2877 6.30666C15.2877 5.44 14.57 4.74666 13.7034 4.74666Z" fill="#00A1FC"/>
</svg>
