<svg xmlns="http://www.w3.org/2000/svg" xmlns:xlink="http://www.w3.org/1999/xlink" width="12" height="13" viewBox="0 0 12 13">
    <g fill="none" fill-rule="evenodd">
        <path fill="currentColor" d="M10.628 10.837a.33.33 0 0 1-.283.164H1.653a.33.33 0 0 1-.282-.165.31.31 0 0 1-.007-.305C2.182 9.055 4.002 8.101 6 8.101c1.998 0 3.817.954 4.634 2.431a.303.303 0 0 1-.006.305m1.319-.049C11.204 8.558 8.757 7 6 7 3.24 7 .796 8.558.054 10.789a.987.987 0 0 0 .136.904.97.97 0 0 0 .797.409H11.01a.979.979 0 0 0 .799-.408 1 1 0 0 0 .137-.906"/>
        <g transform="translate(3 -.082)">
            <mask id="b" fill="#fff">
                <path id="a" d="M0 0h5.896v5.895H0z"/>
            </mask>
            <path fill="currentColor" d="M2.949 1.102a1.847 1.847 0 0 1 0 3.693 1.847 1.847 0 0 1 0-3.693m0 4.794a2.951 2.951 0 0 0 2.947-2.948A2.951 2.951 0 0 0 2.949 0 2.952 2.952 0 0 0 0 2.948a2.952 2.952 0 0 0 2.949 2.948" mask="url(#b)"/>
        </g>
    </g>
</svg>
