<svg xmlns="http://www.w3.org/2000/svg" width="12" height="12" viewBox="0 0 12 12">
    <path fill="currentColor" fill-rule="evenodd" d="M11.667 4.669a.56.56 0 0 0-.604.084l-5.639 5.429c-.955.916-2.624.916-3.575 0a2.36 2.36 0 0 1-.737-1.712c0-.646.262-1.254.739-1.709l5.445-5.226c.661-.635 1.821-.636 2.484 0 .329.316.494.689.478 1.079-.015.386-.204.763-.547 1.091L5.354 7.887a.993.993 0 0 1-.693.276c-.543 0-.74-.339-.74-.567 0-.248.101-.484.286-.662L7.969 3.33a.518.518 0 0 0 .13-.341c0-.188-.12-.363-.314-.457a.557.557 0 0 0-.592.048l-3.76 3.586c-.434.418-.62.845-.624 1.428 0 .462.179.88.506 1.179.334.302.797.462 1.339.462a2.128 2.128 0 0 0 1.49-.596l4.351-4.173c.561-.538.869-1.214.869-1.902 0-.658-.284-1.293-.8-1.789C10.05.282 9.311 0 8.538 0c-.773 0-1.512.282-2.026.775L1.065 6.001A3.404 3.404 0 0 0 0 8.471c0 .934.378 1.811 1.065 2.47a3.687 3.687 0 0 0 2.571 1.021c.97 0 1.884-.362 2.571-1.021l5.647-5.44a.524.524 0 0 0 .138-.358.523.523 0 0 0-.325-.474"/>
</svg>
