<svg xmlns="http://www.w3.org/2000/svg" width="24" height="24" viewBox="0 0 24 24">
    <g fill="none" fill-rule="evenodd">
        <path d="M0 0h24v24H0z"/>
        <g fill="currentColor">
            <path d="M5.417 19.54h14.166v.697H5.417zM20.292 6.323H21v12.522h-.708z"/>
            <path d="M19.572 20.237v-.696a.71.71 0 0 0 .72-.703H21c0 .772-.64 1.399-1.428 1.399M5.417 4.932h14.166v.696H5.417zM5.417 20.237C4.635 20.237 4 19.61 4 18.845h.708c0 .384.318.696.709.696v.696M4 6.323h.708v12.522H4z"/>
            <path d="M4.708 6.323H4c0-.765.635-1.39 1.417-1.39v.695a.704.704 0 0 0-.709.695M21 6.323h-.708a.704.704 0 0 0-.709-.695v-.696c.782 0 1.417.626 1.417 1.391M8.604 6.671a.349.349 0 0 1-.354-.348V4.237a.35.35 0 0 1 .354-.348.35.35 0 0 1 .354.348v2.086a.349.349 0 0 1-.354.348M16.396 6.671a.349.349 0 0 1-.354-.348V4.237a.35.35 0 0 1 .354-.348.35.35 0 0 1 .354.348v2.086a.349.349 0 0 1-.354.348M18.167 8.41H6.833a.35.35 0 0 1-.354-.347.35.35 0 0 1 .354-.348h11.334a.35.35 0 0 1 .354.348.35.35 0 0 1-.354.347M8.958 10.497H6.833a.35.35 0 0 1-.354-.347.35.35 0 0 1 .354-.348h2.125a.35.35 0 0 1 .354.348.35.35 0 0 1-.354.347M13.917 10.497h-2.834a.35.35 0 0 1-.354-.347.35.35 0 0 1 .354-.348h2.834a.35.35 0 0 1 .354.348.35.35 0 0 1-.354.347M18.167 10.497h-2.125a.35.35 0 0 1-.355-.347.35.35 0 0 1 .355-.348h2.125a.35.35 0 0 1 .354.348.35.35 0 0 1-.354.347M8.958 12.584H6.833a.35.35 0 0 1-.354-.347.35.35 0 0 1 .354-.348h2.125a.35.35 0 0 1 .354.348.35.35 0 0 1-.354.347M13.917 12.584h-2.834a.35.35 0 0 1-.354-.347.35.35 0 0 1 .354-.348h2.834a.35.35 0 0 1 .354.348.35.35 0 0 1-.354.347M18.167 12.584h-2.125a.35.35 0 0 1-.355-.347.35.35 0 0 1 .355-.348h2.125a.35.35 0 0 1 .354.348.35.35 0 0 1-.354.347M8.958 14.671H6.833a.35.35 0 0 1-.354-.348.35.35 0 0 1 .354-.347h2.125a.35.35 0 0 1 .354.347.35.35 0 0 1-.354.348M13.917 14.671h-2.834a.35.35 0 0 1-.354-.348.35.35 0 0 1 .354-.347h2.834a.35.35 0 0 1 .354.347.35.35 0 0 1-.354.348M18.167 14.671h-2.125a.35.35 0 0 1-.355-.348.35.35 0 0 1 .355-.347h2.125a.35.35 0 0 1 .354.347.35.35 0 0 1-.354.348M8.958 16.758H6.833a.35.35 0 0 1-.354-.348.35.35 0 0 1 .354-.347h2.125a.35.35 0 0 1 .354.347.35.35 0 0 1-.354.348M13.917 16.758h-2.834a.35.35 0 0 1-.354-.348.35.35 0 0 1 .354-.347h2.834a.35.35 0 0 1 .354.347.35.35 0 0 1-.354.348M18.167 16.758h-2.125a.35.35 0 0 1-.355-.348.35.35 0 0 1 .355-.347h2.125a.35.35 0 0 1 .354.347.35.35 0 0 1-.354.348"/>
        </g>
    </g>
</svg>
