<svg xmlns="http://www.w3.org/2000/svg" width="14" height="14" viewBox="0 0 14 14">
    <g fill="none" fill-rule="evenodd">
        <path d="M0 0h14v14H0z"/>
        <g fill="currentColor">
            <path d="M12.727 1.273h-1.909V0H9.545v3.818h1.273V2.545h1.91v9.546H1.272V2.545h1.272V1.273H1.273C.57 1.273 0 1.843 0 2.545v9.546c0 .702.57 1.273 1.273 1.273h11.454c.703 0 1.273-.57 1.273-1.273V2.545c0-.702-.57-1.272-1.273-1.272"/>
            <path d="M4.455 2.545h4.454V1.273H4.455V0H3.182v3.818h1.273zM5.09 5.09H2.546v2.546h2.546zM8.273 5.09H5.727v2.546h2.546zM8.91 7.636h2.545V5.091H8.909zM2.545 10.818h2.546V8.273H2.545zM5.727 10.818h2.546V8.273H5.727z"/>
        </g>
    </g>
</svg>
