<svg width="13" height="13" viewBox="0 0 13 13" fill="none" xmlns="http://www.w3.org/2000/svg">
<path d="M9.47768 5.9308L8.77057 5.22369L8.77057 5.2237L9.47768 5.9308ZM5.84152 
9.56696L6.54862 10.2741L5.84152 9.56696ZM2.80804 7.14286L3.51514 6.43575L3.51514 6.43575L2.80804 
7.14286ZM2.80804 6.53348L2.10484 5.82247L2.10093 5.82638L2.80804 6.53348ZM3.41741 5.9308L4.12061 
6.64182L4.12452 6.63791L3.41741 5.9308ZM5.53348 7.4442L4.82638 8.1513L5.53262 8.85754L6.23972 
8.15217L5.53348 7.4442ZM8.26562 4.71875L8.97186 5.42672L8.97273 5.42586L8.26562 4.71875ZM8.8683 
4.71875L8.16118 5.42586L8.16511 5.42975L8.8683 4.71875ZM9.47768 5.32143L10.1848 4.61431L10.1809 
4.61043L9.47768 5.32143ZM8.59821 5.62946C8.59821 5.50442 8.64556 5.34871 8.77057 5.22369L10.1848 
6.63791C10.4705 6.35219 10.5982 5.98219 10.5982 5.62946H8.59821ZM8.77057 5.2237L5.13441 8.85986L6.54862 
10.2741L10.1848 6.63791L8.77057 5.2237ZM5.13441 8.85986C5.24291 8.75136 5.38398 8.6942 5.53348 
8.6942V10.6942C5.91067 10.6942 6.27941 10.5433 6.54862 10.2741L5.13441 8.85986ZM5.53348 8.6942C5.62309 
8.6942 5.69888 8.7131 5.7595 8.73852C5.82064 8.76416 5.88261 8.80321 5.93925 8.85986L4.52504 
10.2741C4.78844 10.5375 5.15483 10.6942 5.53348 10.6942V8.6942ZM5.93925 8.85986L3.51514 
6.43575L2.10093 7.84996L4.52504 10.2741L5.93925 8.85986ZM3.51514 6.43575C3.64015 6.56076 
3.6875 6.71647 3.6875 6.84152H1.6875C1.6875 7.19425 1.8152 7.56424 2.10093 
7.84997L3.51514 6.43575ZM3.6875 6.84152C3.6875 6.95002 3.65061 7.10512 3.51514 
7.24059L2.10093 5.82638C1.80475 6.12256 1.6875 6.50534 1.6875 6.84152H3.6875ZM3.51122 
7.24448L4.1206 6.64181L2.71422 5.2198L2.10485 5.82248L3.51122 7.24448ZM4.12452 6.63791C4.02789 
6.73454 3.88468 6.80357 3.71875 6.80357V4.80357C3.32514 4.80357 2.96765 4.96635 2.7103 
5.2237L4.12452 6.63791ZM3.71875 6.80357C3.55282 6.80357 3.40961 6.73454 3.31298 6.63791L4.7272 
5.2237C4.46985 4.96635 4.11236 4.80357 3.71875 4.80357V6.80357ZM3.31298 6.63791L4.82638 8.1513L6.24059 
6.73709L4.7272 5.2237L3.31298 6.63791ZM6.23972 8.15217L8.97186 5.42672L7.55939 4.01078L4.82724 
6.73622L6.23972 8.15217ZM8.97273 5.42586C8.8761 5.52248 8.7329 5.59152 8.56696 5.59152V3.59152C8.17335 
3.59152 7.81586 3.7543 7.55852 4.01164L8.97273 5.42586ZM8.56696 5.59152C8.40103 5.59152 8.25783 
5.52249 8.16119 5.42585L9.57541 4.01165C9.31807 3.7543 8.96058 3.59152 8.56696 3.59152V5.59152ZM8.16511 
5.42975L8.77449 6.03243L10.1809 4.61043L9.57149 4.00775L8.16511 5.42975ZM8.77057 6.02854C8.6351 
5.89307 8.59821 5.73796 8.59821 5.62946H10.5982C10.5982 5.29329 10.481 4.9105 10.1848 4.61432L8.77057 
6.02854ZM12.2857 6.71429C12.2857 3.32272 9.53443 0.571428 6.14286 0.571428V2.57143C8.42986 2.57143 
10.2857 4.42728 10.2857 6.71429H12.2857ZM6.14286 0.571428C2.75129 0.571428 0 3.32272 0 6.71429H2C2 
4.42728 3.85586 2.57143 6.14286 2.57143V0.571428ZM0 6.71429C0 10.1059 2.75129 12.8571 6.14286 
12.8571V10.8571C3.85586 10.8571 2 9.00129 2 6.71429H0ZM6.14286 12.8571C9.53443 12.8571 12.2857 
10.1059 12.2857 6.71429H10.2857C10.2857 9.00129 8.42986 10.8571 
6.14286 10.8571V12.8571Z" fill="#2D9CDB"/>
</svg>
