<svg width="12px" height="11px" viewBox="0 0 12 11" version="1.1" xmlns="http://www.w3.org/2000/svg" xmlns:xlink="http://www.w3.org/1999/xlink">
    <g id="comment-ico" stroke="none" stroke-width="1" fill="none" fill-rule="evenodd">
        <path d="M10.905,6.58099621 C10.905,7.17051339 10.376,7.65107689 9.725,7.65107689 L9.565,7.65107689 C9.264,7.65107689 9.019,7.87773944 9.019,8.15693322 L9.019,9.28635474 L7.385,7.79699699 C7.283,7.70263533 7.146,7.65107689 7.001,7.65107689 L2.272,7.65107689 C1.622,7.65107689 1.092,7.17051339 1.092,6.58099621 L1.092,2.08179333 C1.092,1.49130335 1.622,1.01073985 2.272,1.01073985 L9.725,1.01073985 C10.376,1.01073985 10.905,1.49130335 10.905,2.08179333 L10.905,6.58099621 Z M9.725,0 L2.272,0 C1.018,0 0,0.933888597 0,2.08179333 L0,6.58099621 C0,7.72890094 1.018,8.66181674 2.272,8.66181674 L6.776,8.66181674 L6.8,8.68224555 L9.182,10.8564549 C9.337,10.9984838 9.583,11.0364231 9.773,10.9644358 C9.979,10.8866118 10.112,10.7017796 10.112,10.4965187 L10.112,8.63360552 L10.175,8.62193191 C11.231,8.42737179 12,7.56936164 12,6.58099621 L12,2.08179333 C12,0.933888597 10.979,0 9.725,0 Z" id="Fill-1" fill="currentColor"></path>
        <path d="M8.56143667,3 L3.43856333,3 C3.19659735,3 3,3.2243346 3,3.5 C3,3.7756654 3.19659735,4 3.43856333,4 L8.56143667,4 C8.80340265,4 9,3.7756654 9,3.5 C9,3.2243346 8.80340265,3 8.56143667,3" id="Fill-4" fill="currentColor"></path>
        <path d="M8.56143667,5 L3.43856333,5 C3.19659735,5 3,5.2243346 3,5.5 C3,5.7756654 3.19659735,6 3.43856333,6 L8.56143667,6 C8.80340265,6 9,5.7756654 9,5.5 C9,5.2243346 8.80340265,5 8.56143667,5" id="Fill-6" fill="currentColor"></path>
    </g>
</svg>