<svg xmlns="http://www.w3.org/2000/svg" width="24" height="24" viewBox="0 0 24 24">
    <g fill="none" fill-rule="evenodd">
        <path d="M0 0h24v24H0z"/>
        <g fill="currentColor">
            <path d="M10.29 7.357c-3.101 0-5.624 1.666-5.624 3.721 0 1.297 1.064 2.52 2.776 3.195a.371.371 0 0 1 .207.195c.04.097.041.202.004.293a8.152 8.152 0 0 1-.875 1.582c.928-.18 1.752-.668 2.459-1.463a.385.385 0 0 1 .312-.127c.244.022.49.037.742.037 3.101 0 5.625-1.665 5.625-3.712 0-2.055-2.524-3.72-5.625-3.72zm-4.364 9.818a.372.372 0 0 1-.264-.637c.284-.286.79-.976 1.147-1.718-1.795-.824-2.893-2.228-2.893-3.742 0-2.468 2.86-4.47 6.375-4.47 3.514 0 6.375 2.002 6.375 4.47 0 2.46-2.86 4.462-6.375 4.462-.21 0-.417-.008-.62-.023-1.04 1.103-2.3 1.658-3.745 1.658z"/>
            <path d="M19.279 17.925c-1.337 0-2.503-.518-3.469-1.53-1.527.105-3.148-.232-4.352-.937a.373.373 0 0 1-.134-.51.373.373 0 0 1 .512-.136c1.121.654 2.66.946 4.093.819a.383.383 0 0 1 .313.127c.631.705 1.365 1.155 2.187 1.328a7.347 7.347 0 0 1-.77-1.411.365.365 0 0 1 .004-.285.366.366 0 0 1 .207-.203c1.57-.614 2.546-1.74 2.546-2.924 0-1.876-2.318-3.406-5.167-3.406a.373.373 0 0 1-.375-.375c0-.202.168-.374.375-.374 3.263 0 5.917 1.868 5.917 4.154 0 1.403-1.01 2.708-2.662 3.473.327.675.79 1.298 1.04 1.553a.37.37 0 0 1 .081.404.372.372 0 0 1-.346.233"/>
        </g>
    </g>
</svg>
