<svg width="9" height="9" viewBox="0 0 9 9" fill="none" xmlns="http://www.w3.org/2000/svg">
<path d="M5.69531 4.5L8.03906 6.84375C8.17969 6.98438 8.25 7.17188 8.25 7.35938C8.25 7.57031 8.17969 7.75781 8.03906 7.89844L7.52344 8.41406C7.35938 8.55469 7.17188 8.625 6.98438 8.625C6.77344 8.625 6.60938 8.55469 6.46875 8.41406L4.125 6.07031L1.78125 8.41406C1.64062 8.55469 1.45312 8.625 1.26562 8.625C1.05469 8.625 0.867188 8.55469 0.726562 8.41406L0.210938 7.89844C0.0703125 7.75781 0 7.57031 0 7.35938C0 7.17188 0.0703125 6.98438 0.210938 6.84375L2.55469 4.5L0.210938 2.15625C0.0703125 2.01562 0 1.85156 0 1.64062C0 1.45312 0.0703125 1.26562 0.210938 1.10156L0.726562 0.585938C0.867188 0.445312 1.05469 0.375 1.26562 0.375C1.45312 0.375 1.64062 0.445312 1.78125 0.585938L4.125 2.92969L6.46875 0.585938C6.60938 0.445312 6.77344 0.375 6.98438 0.375C7.17188 0.375 7.35938 0.445312 7.52344 0.585938L8.03906 1.10156C8.17969 1.26562 8.25 1.45312 8.25 1.64062C8.25 1.85156 8.17969 2.01562 8.03906 2.15625L5.69531 4.5Z" fill="#E00000"/>
</svg>