<svg width="24px" height="24px" viewBox="0 0 24 24" version="1.1" xmlns="http://www.w3.org/2000/svg" xmlns:xlink="http://www.w3.org/1999/xlink">
    <g id="Icons-/-Menu-Icons-/-Active-/-Dashboard" stroke="none" stroke-width="1" fill="none" fill-rule="evenodd">
        <g>
            <rect id="bg" x="0" y="0" width="24" height="24"></rect>
            <path d="M4.5,18.9717391 L19.5,18.9717391 L19.5,19.623913 L4.5,19.623913 L4.5,18.9717391 Z M6.13043478,18.3195652 L4.82608696,18.3195652 C4.64608696,18.3195652 4.5,18.176087 4.5,17.9934783 L4.5,14.7326087 C4.5,14.5506522 4.64608696,14.4065217 4.82608696,14.4065217 L6.13043478,14.4065217 C6.31043478,14.4065217 6.45652174,14.5506522 6.45652174,14.7326087 L6.45652174,17.9934783 C6.45652174,18.176087 6.31043478,18.3195652 6.13043478,18.3195652 Z M5.15217391,17.6673913 L5.80434783,17.6673913 L5.80434783,15.0586957 L5.15217391,15.0586957 L5.15217391,17.6673913 Z M12.6521739,18.3195652 L11.3478261,18.3195652 C11.1678261,18.3195652 11.0217391,18.176087 11.0217391,17.9934783 L11.0217391,9.51521739 C11.0217391,9.33326087 11.1678261,9.18913043 11.3478261,9.18913043 L12.6521739,9.18913043 C12.8321739,9.18913043 12.9782609,9.33326087 12.9782609,9.51521739 L12.9782609,17.9934783 C12.9782609,18.176087 12.8321739,18.3195652 12.6521739,18.3195652 Z M11.673913,17.6673913 L12.326087,17.6673913 L12.326087,9.84130435 L11.673913,9.84130435 L11.673913,17.6673913 Z M15.9130435,18.3195652 L14.6086957,18.3195652 C14.4286957,18.3195652 14.2826087,18.176087 14.2826087,17.9934783 L14.2826087,4.29782609 C14.2826087,4.11586957 14.4286957,3.97173913 14.6086957,3.97173913 L15.9130435,3.97173913 C16.0930435,3.97173913 16.2391304,4.11586957 16.2391304,4.29782609 L16.2391304,17.9934783 C16.2391304,18.176087 16.0930435,18.3195652 15.9130435,18.3195652 Z M14.9347826,17.6673913 L15.5869565,17.6673913 L15.5869565,4.62391304 L14.9347826,4.62391304 L14.9347826,17.6673913 Z M19.173913,18.3195652 L17.8695652,18.3195652 C17.6895652,18.3195652 17.5434783,18.176087 17.5434783,17.9934783 L17.5434783,6.25434783 C17.5434783,6.0723913 17.6895652,5.92826087 17.8695652,5.92826087 L19.173913,5.92826087 C19.353913,5.92826087 19.5,6.0723913 19.5,6.25434783 L19.5,17.9934783 C19.5,18.176087 19.353913,18.3195652 19.173913,18.3195652 Z M18.1956522,17.6673913 L18.8478261,17.6673913 L18.8478261,6.58043478 L18.1956522,6.58043478 L18.1956522,17.6673913 Z M9.39130435,18.3195652 L8.08695652,18.3195652 C7.90695652,18.3195652 7.76086957,18.176087 7.76086957,17.9934783 L7.76086957,8.21086957 C7.76086957,8.02891304 7.90695652,7.88478261 8.08695652,7.88478261 L9.39130435,7.88478261 C9.57130435,7.88478261 9.7173913,8.02891304 9.7173913,8.21086957 L9.7173913,17.9934783 C9.7173913,18.176087 9.57130435,18.3195652 9.39130435,18.3195652 Z M8.41304348,17.6673913 L9.06521739,17.6673913 L9.06521739,8.53695652 L8.41304348,8.53695652 L8.41304348,17.6673913 Z" id="ico" fill="currentColor"></path>
        </g>
    </g>
</svg>