<svg width="16" height="17" viewBox="0 0 16 17" fill="none" xmlns="http://www.w3.org/2000/svg">
<path fill-rule="evenodd" clip-rule="evenodd" d="M0.500006 15.972H15.5V16.624H0.500006V15.972ZM2.13001 15.32H0.826006C0.783074 15.3202 0.74054 15.3118 0.700863 15.2954C0.661185 15.279 0.62515 15.2549 0.594839 15.2245C0.564527 15.1941 0.54054 15.158 0.524263 15.1183C0.507986 15.0785 0.499742 15.036 0.500006 14.993V11.733C0.500006 11.551 0.646006 11.407 0.826006 11.407H2.13001C2.31001 11.407 2.45701 11.551 2.45701 11.733V14.993C2.45727 15.0361 2.449 15.0787 2.43266 15.1185C2.41632 15.1583 2.39224 15.1944 2.36182 15.2249C2.3314 15.2553 2.29525 15.2794 2.25546 15.2957C2.21566 15.312 2.17302 15.3203 2.13001 15.32ZM1.15201 14.667H1.80401V12.06H1.15201V14.667ZM8.65201 15.32H7.34801C7.30507 15.3202 7.26254 15.3118 7.22286 15.2954C7.18319 15.279 7.14715 15.2549 7.11684 15.2245C7.08653 15.1941 7.06254 15.158 7.04626 15.1183C7.02999 15.0785 7.02174 15.036 7.02201 14.993V6.51505C7.02201 6.33305 7.16801 6.18905 7.34801 6.18905H8.65201C8.83201 6.18905 8.97801 6.33305 8.97801 6.51505V14.993C8.97827 15.036 8.97003 15.0785 8.95375 15.1183C8.93747 15.158 8.91348 15.1941 8.88317 15.2245C8.85286 15.2549 8.81683 15.279 8.77715 15.2954C8.73747 15.3118 8.69494 15.3202 8.65201 15.32ZM7.67401 14.667H8.32601V6.84105H7.67401V14.667ZM11.913 15.32H10.609C10.5661 15.3202 10.5235 15.3118 10.4839 15.2954C10.4442 15.279 10.4081 15.2549 10.3778 15.2245C10.3475 15.1941 10.3235 15.158 10.3073 15.1183C10.291 15.0785 10.2827 15.036 10.283 14.993V1.29805C10.283 1.11605 10.429 0.972046 10.609 0.972046H11.913C12.093 0.972046 12.239 1.11605 12.239 1.29805V14.993C12.2393 15.036 12.231 15.0785 12.2147 15.1183C12.1985 15.158 12.1745 15.1941 12.1442 15.2245C12.1139 15.2549 12.0778 15.279 12.0381 15.2954C11.9985 15.3118 11.9559 15.3202 11.913 15.32ZM10.935 14.667H11.587V1.62405H10.935V14.667ZM15.174 15.32H13.87C13.827 15.3203 13.7843 15.312 13.7446 15.2957C13.7048 15.2794 13.6686 15.2553 13.6382 15.2249C13.6078 15.1944 13.5837 15.1583 13.5674 15.1185C13.551 15.0787 13.5427 15.0361 13.543 14.993V3.25405C13.543 3.07205 13.69 2.92805 13.87 2.92805H15.174C15.354 2.92805 15.5 3.07205 15.5 3.25405V14.994C15.5001 15.0369 15.4918 15.0793 15.4755 15.119C15.4591 15.1586 15.4351 15.1946 15.4048 15.2249C15.3745 15.2552 15.3385 15.2792 15.2989 15.2955C15.2593 15.3118 15.2169 15.3202 15.174 15.32ZM14.196 14.667H14.848V3.58005H14.196V14.667ZM5.39101 15.32H4.08701C4.04407 15.3202 4.00154 15.3118 3.96186 15.2954C3.92219 15.279 3.88615 15.2549 3.85584 15.2245C3.82553 15.1941 3.80154 15.158 3.78526 15.1183C3.76899 15.0785 3.76074 15.036 3.76101 14.993V5.21105C3.76101 5.02905 3.90701 4.88505 4.08701 4.88505H5.39101C5.57101 4.88505 5.71701 5.02905 5.71701 5.21105V14.993C5.71727 15.036 5.70903 15.0785 5.69275 15.1183C5.67647 15.158 5.65249 15.1941 5.62217 15.2245C5.59186 15.2549 5.55583 15.279 5.51615 15.2954C5.47647 15.3118 5.43394 15.3202 5.39101 15.32ZM4.41301 14.667H5.06501V5.53705H4.41301V14.667Z" fill="#888888"/>
</svg>
