<svg xmlns="http://www.w3.org/2000/svg" width="24" height="24" viewBox="0 0 24 24">
    <g fill="none" fill-rule="evenodd">
        <path d="M0 0h24v24H0z"/>
        <g fill="currentColor">
            <path d="M4.438 14.296v4.167c0 .667.352 1.333 1.14 1.333H18.04c.705 0 1.524-.584 1.524-1.333v-4.167H4.438zm13.601 6.188H5.579c-1.06 0-1.829-.846-1.829-2.022v-4.509c0-.193.154-.344.344-.344h15.812c.19 0 .344.151.344.344v4.51c0 1.079-1.033 2.02-2.211 2.02z"/>
            <path d="M9.25 17.734h5.5v-1.375h-5.5v1.375zm5.844.687H8.906a.342.342 0 0 1-.344-.343v-2.062c0-.194.155-.345.344-.345h6.188c.19 0 .344.151.344.345v2.062a.342.342 0 0 1-.344.343zM4.52 13.609H19.48l-1.915-8.937H6.434l-1.915 8.937zm15.386.687H4.094a.352.352 0 0 1-.267-.123.35.35 0 0 1-.07-.289L5.82 4.26a.347.347 0 0 1 .336-.275h11.688c.162 0 .302.117.336.275l2.062 9.625a.349.349 0 0 1-.068.288.355.355 0 0 1-.268.124z"/>
            <path d="M17.883 6.734H5.804a.339.339 0 0 1-.335-.344c0-.192.15-.344.335-.344h12.08c.184 0 .335.152.335.344 0 .193-.15.344-.336.344M5.125 8.109h13.5v.687h-13.5zM4.438 10.86h15v.687h-15z"/>
        </g>
    </g>
</svg>
