<svg xmlns="http://www.w3.org/2000/svg" xmlns:xlink="http://www.w3.org/1999/xlink" width="166" height="176" viewBox="0 0 166 176">
    <defs>
        <path id="b" d="M129.674 79.79l28.34 42.76a4 4 0 0 1-3.335 6.21H98a4 4 0 0 1-3.334-6.21l28.34-42.76a4 4 0 0 1 6.668 0z"/>
        <filter id="a" width="113.9%" height="117.7%" x="-7%" y="-8.9%" filterUnits="objectBoundingBox">
            <feMorphology in="SourceAlpha" operator="dilate" radius="1.5" result="shadowSpreadOuter1"/>
            <feOffset in="shadowSpreadOuter1" result="shadowOffsetOuter1"/>
            <feComposite in="shadowOffsetOuter1" in2="SourceAlpha" operator="out" result="shadowOffsetOuter1"/>
            <feColorMatrix in="shadowOffsetOuter1" values="0 0 0 0 0.941176471 0 0 0 0 0.941176471 0 0 0 0 0.941176471 0 0 0 1 0"/>
        </filter>
    </defs>
    <g fill="none" fill-rule="evenodd">
        <g>
            <path fill="#DDD" fill-rule="nonzero" d="M19.31 3h97.38a7.31 7.31 0 0 1 7.31 7.31V25H12V10.31A7.31 7.31 0 0 1 19.31 3z"/>
            <rect width="115" height="173" x="10.5" y="1.5" fill="#F0F0F0" fill-rule="nonzero" rx="10"/>
            <path fill="#444" fill-rule="nonzero" d="M115.5 176h-95c-6.349-.006-11.494-5.151-11.5-11.5v-153C9.006 5.151 14.151.006 20.5 0h95c6.349.006 11.494 5.151 11.5 11.5v153c-.006 6.349-5.151 11.494-11.5 11.5zM20.5 3a8.52 8.52 0 0 0-8.5 8.5v153a8.52 8.52 0 0 0 8.5 8.5h95a8.52 8.52 0 0 0 8.5-8.5v-153a8.52 8.52 0 0 0-8.5-8.5h-95z"/>
            <path fill="#444" fill-rule="nonzero" d="M10 23h116v3H10zM24 18a4 4 0 1 1 0-8 4 4 0 0 1 0 8zm0-6a2 2 0 1 0 0 4 2 2 0 0 0 0-4zM38 18a4 4 0 1 1 0-8 4 4 0 0 1 0 8zm0-6a2 2 0 1 0 0 4 2 2 0 0 0 0-4zM110.5 106h-85a5.51 5.51 0 0 1-5.5-5.5v-59a5.51 5.51 0 0 1 5.5-5.5h85a5.51 5.51 0 0 1 5.5 5.5v59a5.51 5.51 0 0 1-5.5 5.5zm-85-67a2.5 2.5 0 0 0-2.5 2.5v59a2.5 2.5 0 0 0 2.5 2.5h85a2.5 2.5 0 0 0 2.5-2.5v-59a2.5 2.5 0 0 0-2.5-2.5h-85z"/>
            <path fill="#DDD" fill-rule="nonzero" d="M23.5 153h37a1.5 1.5 0 0 1 0 3h-37a1.5 1.5 0 0 1 0-3zm0 7h17a1.5 1.5 0 0 1 0 3h-17a1.5 1.5 0 0 1 0-3zM75.5 153h37a1.5 1.5 0 0 1 0 3h-37a1.5 1.5 0 0 1 0-3zm0 7h23a1.5 1.5 0 0 1 0 3h-23a1.5 1.5 0 0 1 0-3z"/>
            <path fill="#444" fill-rule="nonzero" d="M1.5 173h131a1.5 1.5 0 0 1 0 3H1.5a1.5 1.5 0 0 1 0-3zM143.5 173h21a1.5 1.5 0 0 1 0 3h-21a1.5 1.5 0 0 1 0-3zM33.43 140.1c.01.187.01.373 0 .56a1.06 1.06 0 0 1-.13.39.55.55 0 0 1-.2.23.43.43 0 0 1-.25.07h-11a1.33 1.33 0 0 1-.77-.27 1.14 1.14 0 0 1-.36-1v-20.24a1.14 1.14 0 0 1 .36-1c.22-.173.49-.268.77-.27h10.84a.48.48 0 0 1 .26.07c.079.06.14.14.18.23.06.123.101.254.12.39.02.196.02.394 0 .59.02.183.02.367 0 .55a1.46 1.46 0 0 1-.12.39.55.55 0 0 1-.13.21.48.48 0 0 1-.26.07H23.8v7.14h7.63a.33.33 0 0 1 .25.08.61.61 0 0 1 .2.22 1 1 0 0 1 .11.38c.01.193.01.387 0 .58a5 5 0 0 1 0 .55 1.21 1.21 0 0 1-.11.37.64.64 0 0 1-.2.2.54.54 0 0 1-.25.06H23.8v8.14h9a.43.43 0 0 1 .25.07.61.61 0 0 1 .2.22c.068.12.113.253.13.39.032.208.05.419.05.63zM53.52 140.9a.49.49 0 0 1 0 .24.46.46 0 0 1-.23.18 2.66 2.66 0 0 1-.49.1c-.28.02-.56.02-.84 0-.25.02-.5.02-.75 0a1.53 1.53 0 0 1-.47-.11.73.73 0 0 1-.27-.22 1.62 1.62 0 0 1-.17-.35l-2.14-5.32c-.24-.61-.5-1.17-.76-1.68a5.87 5.87 0 0 0-.94-1.32 3.84 3.84 0 0 0-1.29-.86 4.47 4.47 0 0 0-1.77-.31h-2v9.69a.41.41 0 0 1-.08.24.53.53 0 0 1-.25.17 2.36 2.36 0 0 1-.46.1 4.45 4.45 0 0 1-.73 0 4.45 4.45 0 0 1-.73 0 3.41 3.41 0 0 1-.46-.1.42.42 0 0 1-.32-.41v-21.1a1.14 1.14 0 0 1 .36-1c.22-.173.49-.268.77-.27h6.26a6 6 0 0 1 1 .1 8.63 8.63 0 0 1 2.33.72 5.35 5.35 0 0 1 1.7 1.25 5.16 5.16 0 0 1 1 1.73 6.81 6.81 0 0 1 .34 2.15 6.19 6.19 0 0 1-.31 2 4.76 4.76 0 0 1-.89 1.6 5.89 5.89 0 0 1-1.39 1.2 8.12 8.12 0 0 1-1.81.86 4 4 0 0 1 1 .63c.321.265.61.567.86.9.283.384.53.792.74 1.22.24.45.47 1 .71 1.54l2 5c.118.291.222.588.31.89.09.167.149.35.17.54zm-4.52-16a4 4 0 0 0-.6-2.26 3.32 3.32 0 0 0-2-1.33 4.87 4.87 0 0 0-1-.17 11.88 11.88 0 0 0-1.46-.06h-2.56v7.67h2.95a6.84 6.84 0 0 0 2.06-.29 4.23 4.23 0 0 0 1.45-.81 3.19 3.19 0 0 0 .86-1.25 4.31 4.31 0 0 0 .3-1.48v-.02zM73.07 140.9a.49.49 0 0 1 0 .24.46.46 0 0 1-.23.18 2.66 2.66 0 0 1-.49.1 6 6 0 0 1-.85 0 4.57 4.57 0 0 1-.74 0 1.53 1.53 0 0 1-.47-.11.64.64 0 0 1-.27-.22 1.62 1.62 0 0 1-.17-.35l-2.14-5.32c-.25-.61-.5-1.17-.77-1.68a5.12 5.12 0 0 0-.94-1.32 3.7 3.7 0 0 0-1.28-.86 4.52 4.52 0 0 0-1.78-.31h-2v9.69a.35.35 0 0 1-.08.24.46.46 0 0 1-.24.17 2.36 2.36 0 0 1-.46.1 4.45 4.45 0 0 1-.73 0 4.45 4.45 0 0 1-.73 0 2.36 2.36 0 0 1-.46-.1.49.49 0 0 1-.25-.17.42.42 0 0 1-.07-.24v-21.1a1.14 1.14 0 0 1 .36-1 1.24 1.24 0 0 1 .76-.27h6.27l1 .1a8.63 8.63 0 0 1 2.33.72 5.47 5.47 0 0 1 1.69 1.25c.45.5.79 1.09 1 1.73.24.69.36 1.418.35 2.15a6.48 6.48 0 0 1-.31 2 5.25 5.25 0 0 1-.89 1.6 6.13 6.13 0 0 1-1.39 1.2 9.38 9.38 0 0 1-1.81.86 4 4 0 0 1 1 .63c.323.26.61.563.85.9.29.381.54.79.75 1.22.23.45.47 1 .7 1.54l2 5c.17.42.27.72.32.89.09.167.149.35.17.54zm-4.55-16a4 4 0 0 0-.6-2.26 3.37 3.37 0 0 0-2-1.33 5.65 5.65 0 0 0-1-.17 11.72 11.72 0 0 0-1.45-.06h-2.55v7.67h3a6.84 6.84 0 0 0 2.06-.29 4.32 4.32 0 0 0 1.45-.81c.38-.33.671-.75.85-1.22.18-.483.26-.996.24-1.51v-.02zM96.15 129.72a18 18 0 0 1-.65 5 10.34 10.34 0 0 1-1.94 3.77 8.37 8.37 0 0 1-3.25 2.39 11.42 11.42 0 0 1-4.55.84 11.81 11.81 0 0 1-4.44-.77 7.78 7.78 0 0 1-3.09-2.22 9.52 9.52 0 0 1-1.82-3.62 18.76 18.76 0 0 1-.6-5c-.02-1.65.2-3.293.65-4.88a10.26 10.26 0 0 1 2-3.74 8.53 8.53 0 0 1 3.26-2.37 12.85 12.85 0 0 1 8.92-.08 7.87 7.87 0 0 1 3.11 2.2 9.51 9.51 0 0 1 1.84 3.59c.411 1.596.6 3.242.56 4.89zm-3.2.21a17.36 17.36 0 0 0-.34-3.6 8.35 8.35 0 0 0-1.14-2.88 5.55 5.55 0 0 0-2.14-1.91 7.22 7.22 0 0 0-3.3-.68 6.76 6.76 0 0 0-3.3.73 6.4 6.4 0 0 0-2.17 2 8.32 8.32 0 0 0-1.19 2.83 16 16 0 0 0-.36 3.45 19 19 0 0 0 .33 3.69 8.29 8.29 0 0 0 1.13 2.91 5.37 5.37 0 0 0 2.11 1.9 7.34 7.34 0 0 0 3.33.68 7 7 0 0 0 3.34-.74 6 6 0 0 0 2.17-2 8.45 8.45 0 0 0 1.18-2.9 17 17 0 0 0 .4-3.48h-.05zM116.1 140.9a.49.49 0 0 1 0 .24.46.46 0 0 1-.23.18 2.66 2.66 0 0 1-.49.1 6 6 0 0 1-.85 0 4.57 4.57 0 0 1-.74 0 1.53 1.53 0 0 1-.47-.11.64.64 0 0 1-.27-.22 1.62 1.62 0 0 1-.17-.35l-2.14-5.32c-.25-.61-.5-1.17-.77-1.68a5.06 5.06 0 0 0-1-1.32 3.7 3.7 0 0 0-1.28-.86 4.47 4.47 0 0 0-1.77-.31h-2v9.69a.42.42 0 0 1-.07.24.53.53 0 0 1-.25.17 2.36 2.36 0 0 1-.46.1 4.45 4.45 0 0 1-.73 0 4.45 4.45 0 0 1-.73 0 2.36 2.36 0 0 1-.46-.1.49.49 0 0 1-.25-.17.42.42 0 0 1-.07-.24v-21.1a1.14 1.14 0 0 1 .36-1c.22-.173.49-.268.77-.27h6.26a6 6 0 0 1 1 .1 8.63 8.63 0 0 1 2.33.72 5.51 5.51 0 0 1 1.7 1.25c.45.5.79 1.09 1 1.73.24.69.36 1.418.35 2.15a6.48 6.48 0 0 1-.31 2 5.25 5.25 0 0 1-.89 1.6 5.89 5.89 0 0 1-1.39 1.2 9.38 9.38 0 0 1-1.81.86 4 4 0 0 1 1 .63c.323.26.61.563.85.9.29.381.54.79.75 1.22.26.501.493 1.015.7 1.54l2 5c.17.42.27.72.32.89a1.5 1.5 0 0 1 .21.54zm-4.55-16a4 4 0 0 0-.6-2.26 3.37 3.37 0 0 0-2-1.33 5.65 5.65 0 0 0-1-.17 11.72 11.72 0 0 0-1.45-.06H104v7.67h3a6.84 6.84 0 0 0 2.06-.29 4.23 4.23 0 0 0 1.45-.81 3.27 3.27 0 0 0 .86-1.22c.15-.489.21-1 .18-1.51v-.02z"/>
            <g fill-rule="nonzero">
                <use fill="#000" filter="url(#a)" xlink:href="#b"/>
                <path fill="#F0F0F0" fill-rule="evenodd" stroke="#444" stroke-width="3" d="M128.423 80.62a2.5 2.5 0 0 0-4.167 0l-28.34 42.759a2.5 2.5 0 0 0 2.084 3.88h56.68a2.5 2.5 0 0 0 2.083-3.88l-28.34-42.76z"/>
            </g>
            <path fill="#C4C4C4" fill-rule="nonzero" d="M126.3 113.43c-1.16 0-1.6-.94-1.6-2.1l-.5-12.23a2.1 2.1 0 1 1 4.2 0l-.5 12.23c0 1.19-.44 2.1-1.6 2.1z"/>
            <rect width="3" height="3" x="124.8" y="115" fill="#C4C4C4" fill-rule="nonzero" rx="1.5"/>
            <path fill="#444" d="M32.392 72.704c-.46-.318-.689-.76-.689-1.325 0-.247.062-.495.186-.742.123-.247.291-.442.503-.583l20.776-10.918a1.32 1.32 0 0 1 .583-.159c.318 0 .583.106.795.318.212.212.353.46.424.742.035.106.053.265.053.477 0 .671-.318 1.184-.954 1.537l-17.702 9.222v.159l17.702 9.222c.636.353.954.866.954 1.537 0 .212-.018.371-.053.477-.07.283-.212.53-.424.742a1.079 1.079 0 0 1-.795.318 1.32 1.32 0 0 1-.583-.159L32.392 72.704zm28.734 22.631a1.451 1.451 0 0 1-.928-.556c-.23-.3-.309-.628-.238-.981l14.31-45.103c.141-.389.38-.671.715-.848a1.52 1.52 0 0 1 1.034-.159c.388.07.706.265.954.583.247.318.335.654.265 1.007L62.822 94.381a1.527 1.527 0 0 1-.69.795c-.317.177-.653.23-1.006.159zm23.221-11.766a1.32 1.32 0 0 1-.583.159c-.318 0-.583-.106-.795-.318a1.573 1.573 0 0 1-.424-.742 1.608 1.608 0 0 1-.053-.477c0-.671.318-1.184.954-1.537l17.702-9.222v-.159l-17.702-9.222c-.636-.353-.954-.866-.954-1.537 0-.212.018-.371.053-.477.071-.283.212-.53.424-.742.212-.212.477-.318.795-.318.177 0 .371.053.583.159l20.776 10.918c.212.141.38.336.504.583.124.247.185.495.185.742 0 .565-.23 1.007-.689 1.325L84.347 83.569z"/>
        </g>
    </g>
</svg>
