<svg xmlns="http://www.w3.org/2000/svg" xmlns:xlink="http://www.w3.org/1999/xlink" width="161" height="192" viewBox="0 0 161 192">
    <defs>
        <path id="a" d="M0 0h176.923v200H0z"/>
        <path id="c" d="M124.342 56.49h55.926a5.815 5.815 0 1 1 0 11.63h-55.926c-2.933 31.683-29.588 56.49-62.037 56.49C27.895 124.61 0 96.714 0 62.304S27.895 0 62.305 0c32.449 0 59.104 24.806 62.037 56.49z"/>
        <circle id="d" cx="62.305" cy="62.305" r="52.336"/>
        <path id="e" d="M92.308 80.179l9.392-9.392a5.313 5.313 0 1 1 7.513 7.513l-9.392 9.392 9.392 9.392a5.313 5.313 0 1 1-7.513 7.514l-9.392-9.392-9.392 9.392a5.313 5.313 0 0 1-7.514-7.514l9.392-9.392-9.392-9.392a5.313 5.313 0 1 1 7.514-7.513l9.392 9.392z"/>
    </defs>
    <g fill="none" fill-rule="evenodd" transform="translate(-6 -8)">
        <mask id="b" fill="#fff">
            <use xlink:href="#a"/>
        </mask>
        <g mask="url(#b)">
            <path fill="#DDD" d="M17.692 46.923V31.538a9.231 9.231 0 0 1 9.231-9.23H70L50 46.923H17.692z"/>
            <path fill="#444" fill-opacity=".1" d="M33.077 34.615a3.077 3.077 0 1 1-6.154 0 3.077 3.077 0 0 1 6.154 0"/>
            <path fill="#444" d="M30 33.077a1.54 1.54 0 0 0 0 3.077 1.54 1.54 0 0 0 0-3.077m0 6.154a4.62 4.62 0 0 1-4.615-4.616A4.62 4.62 0 0 1 30 30a4.62 4.62 0 0 1 4.615 4.615A4.62 4.62 0 0 1 30 39.231"/>
            <path fill="#444" fill-opacity=".1" d="M80.77 130.892v14.603a70.856 70.856 0 0 0 15.005 9.12h20.379c1.7 0 3.077-1.377 3.077-3.077v-1.779c-15.13-1.354-28.654-8.354-38.462-18.867M45.385 34.615a3.077 3.077 0 1 1-6.155 0 3.077 3.077 0 0 1 6.155 0"/>
            <path fill="#444" d="M42.308 33.077a1.54 1.54 0 0 0 0 3.077 1.54 1.54 0 0 0 0-3.077m0 6.154a4.62 4.62 0 0 1-4.616-4.616A4.62 4.62 0 0 1 42.308 30a4.62 4.62 0 0 1 4.615 4.615 4.62 4.62 0 0 1-4.615 4.616M46.923 106.923H33.077a1.54 1.54 0 0 1-1.539-1.538v-30.77c0-.848.69-1.538 1.539-1.538h4.615V70h-4.615a4.62 4.62 0 0 0-4.615 4.615v30.77A4.62 4.62 0 0 0 33.077 110h13.846v-3.077zM117.692 140.77v10.768a1.54 1.54 0 0 1-1.538 1.539H83.846a1.54 1.54 0 0 1-1.538-1.539v-13.846H79.23v13.846a4.62 4.62 0 0 0 4.615 4.616h32.308a4.62 4.62 0 0 0 4.615-4.616V140.77h-3.077z"/>
            <path fill="#444" fill-opacity=".1" d="M54.615 139.23v-3.076h-9.23v7.692H39.23V130H30v24.615h37.692v-15.384z"/>
            <path fill="#444" d="M33.077 122.308c-.85 0-1.539.69-1.539 1.538v27.692c0 .849.69 1.539 1.539 1.539h32.308c.849 0 1.538-.69 1.538-1.539v-27.692a1.54 1.54 0 0 0-1.538-1.538H33.077zm32.308 33.846H33.077a4.62 4.62 0 0 1-4.615-4.616v-27.692a4.62 4.62 0 0 1 4.615-4.615h32.308A4.62 4.62 0 0 1 70 123.846v27.692a4.62 4.62 0 0 1-4.615 4.616z"/>
            <path fill="#444" d="M139.23 196.154h-9.4c2-1.956 3.247-4.68 3.247-7.692v-52.308L130 137.692v50.77c0 4.241-3.45 7.692-7.692 7.692H26.923c-4.241 0-7.692-3.45-7.692-7.692v-140h23.077v-3.077H19.23V31.538c0-4.241 3.45-7.692 7.692-7.692h32.308l1.538-3.077H26.923c-5.938 0-10.77 4.831-10.77 10.77v156.923c0 3.012 1.248 5.736 3.248 7.692H8.46a1.539 1.539 0 0 0 0 3.077h130.77a1.539 1.539 0 0 0 0-3.077M160.77 196.154h-13.847a1.539 1.539 0 0 0 0 3.077h13.846a1.539 1.539 0 0 0 0-3.077"/>
            <path fill="#444" fill-opacity=".1" d="M68.462 165.385H31.538a1.539 1.539 0 0 0 0 3.077h36.924a1.539 1.539 0 0 0 0-3.077M68.462 171.538H31.538a1.539 1.539 0 0 0 0 3.077h36.924a1.539 1.539 0 0 0 0-3.077M68.462 177.692H31.538a1.539 1.539 0 0 0 0 3.077h36.924a1.539 1.539 0 0 0 0-3.077M54.615 183.846H31.538a1.539 1.539 0 0 0 0 3.077h23.077a1.539 1.539 0 0 0 0-3.077M38.462 57.692H30a1.539 1.539 0 0 0 0 3.077h8.462a1.539 1.539 0 0 0 0-3.077M119.23 165.385H82.309a1.539 1.539 0 0 0 0 3.077h36.923a1.539 1.539 0 0 0 0-3.077M119.23 171.538H82.309a1.539 1.539 0 0 0 0 3.077h36.923a1.539 1.539 0 0 0 0-3.077M119.23 177.692H82.309a1.539 1.539 0 0 0 0 3.077h36.923a1.539 1.539 0 0 0 0-3.077M98.462 183.846H82.308a1.539 1.539 0 0 0 0 3.077h16.154a1.539 1.539 0 0 0 0-3.077"/>
            <g transform="rotate(60 70.567 100.056)">
                <use fill="#DDD" xlink:href="#c"/>
                <path stroke="#F0F0F0" stroke-width="3" d="M125.694 54.99h54.574a7.315 7.315 0 1 1 0 14.63h-54.574c-3.65 31.993-30.828 56.49-63.39 56.49C27.067 126.11-1.5 97.542-1.5 62.304-1.5 27.066 27.066-1.5 62.305-1.5c32.561 0 59.74 24.496 63.39 56.49z"/>
                <path stroke="#444" stroke-width="3" d="M180.268 57.99h-57.294l-.126-1.362C119.968 25.51 93.773 1.5 62.305 1.5 28.723 1.5 1.5 28.723 1.5 62.305c0 33.581 27.223 60.804 60.805 60.804 31.468 0 57.663-24.01 60.543-55.127l.126-1.362h57.294a4.315 4.315 0 1 0 0-8.63z"/>
            </g>
            <g transform="rotate(60 70.567 100.056)">
                <use fill="#EDEDED" xlink:href="#d"/>
                <circle cx="62.305" cy="62.305" r="50.836" stroke="#444" stroke-width="3"/>
            </g>
            <g opacity=".5" transform="translate(6.923 -11.538)">
                <use fill="#A3A4A8" xlink:href="#e"/>
                <path stroke="#F0F0F0" stroke-width="2" d="M102.407 71.494l-10.1 10.099L82.21 71.494a4.313 4.313 0 0 0-6.1 6.1l10.1 10.098-10.1 10.1a4.313 4.313 0 0 0 6.1 6.099l10.099-10.1 10.099 10.1a4.313 4.313 0 0 0 6.099-6.1L98.407 87.692l10.099-10.099a4.313 4.313 0 1 0-6.1-6.099z"/>
            </g>
        </g>
    </g>
</svg>
