<svg xmlns="http://www.w3.org/2000/svg" width="24" height="24" viewBox="0 0 24 24">
    <g fill="none" fill-rule="evenodd">
        <path d="M0 0h24v24H0z"/>
        <g fill="currentColor">
            <path d="M4.438 19.11H9.25v-1.823l-4.813-2.743v4.565zm5.156.686h-5.5a.342.342 0 0 1-.344-.343v-5.5a.34.34 0 0 1 .171-.296.34.34 0 0 1 .343 0l5.5 3.136a.339.339 0 0 1 .174.295v2.365a.342.342 0 0 1-.344.343z"/>
            <path d="M9.938 19.11h4.812v-1.823l-4.813-2.743v4.565zm5.156.686h-5.5a.342.342 0 0 1-.344-.343v-5.5a.34.34 0 0 1 .171-.296.34.34 0 0 1 .343 0l5.5 3.136a.339.339 0 0 1 .174.295v2.365a.342.342 0 0 1-.344.343z"/>
            <path d="M15.264 19.11h4.061l-.97-11.001h-2.12l-.971 11zm4.45.686h-4.826a.338.338 0 0 1-.342-.371l1.031-11.688a.345.345 0 0 1 .342-.316h2.75c.178 0 .327.138.343.316l1.023 11.592a.342.342 0 0 1-.32.468zM16.853 6.624a.408.408 0 0 1-.153-.035c-.631-.33-.349-1.072-.162-1.56.075-.192.231-.605.178-.694-.167-.09-.241-.303-.153-.468a.332.332 0 0 1 .456-.15c.63.33.348 1.064.161 1.56-.075.192-.23.597-.178.694a.35.35 0 0 1 .154.467.346.346 0 0 1-.303.186M18.308 6.63a.365.365 0 0 1-.166-.04c-.199-.104-.324-.247-.372-.434-.082-.302.097-.584.241-.811.056-.09.15-.234.154-.289-.167-.088-.244-.288-.156-.453a.326.326 0 0 1 .451-.131c.2.103.325.247.372.426.083.31-.097.591-.24.818-.057.083-.15.234-.155.289a.33.33 0 0 1 .157.448.316.316 0 0 1-.286.178"/>
        </g>
    </g>
</svg>
