<svg xmlns="http://www.w3.org/2000/svg" width="14" height="12" viewBox="0 0 14 12">
    <g fill="none" fill-rule="evenodd">
        <path fill="currentColor" d="M12.106 11.814c-.198.166-.27.186-.336.186a.401.401 0 0 1-.212-.065l-.098-.096-.022.022-1.746-1.746a.512.512 0 1 1 .724-.724l.842.842V.525a.512.512 0 1 1 1.023 0v9.708l.842-.842a.512.512 0 0 1 .724.724l-1.719 1.72-.022-.02zM.12.51c0-.283.229-.512.512-.512h6.924a.512.512 0 1 1 0 1.024H.632A.512.512 0 0 1 .12.51zM.105 4.17c0-.283.229-.512.512-.512h5.93a.512.512 0 0 1 0 1.024H.618a.512.512 0 0 1-.512-.512zM.09 7.83c0-.283.229-.512.512-.512h4.937a.512.512 0 0 1 0 1.024H.602A.512.512 0 0 1 .09 7.83zm-.082 3.66c0-.283.229-.512.512-.512h3.944a.512.512 0 1 1 0 1.024H.52a.512.512 0 0 1-.512-.512z"/>
    </g>
</svg>
