<svg xmlns="http://www.w3.org/2000/svg" width="14" height="12" viewBox="0 0 14 12">
    <path fill="currentColor" fill-rule="evenodd" d="M12.273 1.753v9.714a.513.513 0 1 1-1.023 0v-9.71l-.833.833a.512.512 0 0 1-.724-.724L11.348.211a.51.51 0 0 1 .812-.02l1.648 1.65a.512.512 0 0 1-.724.723l-.81-.81zM0 .512C0 .229.23 0 .512 0H7.43a.512.512 0 0 1 0 1.023H.51A.512.512 0 0 1 0 .512zm0 3.666c0-.282.23-.511.512-.511h5.926a.512.512 0 0 1 0 1.023H.512A.512.512 0 0 1 0 4.178zm.011 3.667c0-.283.23-.512.512-.512h4.934a.512.512 0 0 1 0 1.024H.523a.512.512 0 0 1-.512-.512zM0 11.512C0 11.229.23 11 .512 11h3.94a.512.512 0 1 1 0 1.023H.512A.512.512 0 0 1 0 11.512z"/>
</svg>
