<svg
  xmlns="http://www.w3.org/2000/svg"
  width="24"
  height="24"
  viewBox="0 0 24 24"
>
  <g fill="currentColor" fill-rule="evenodd">
    <path d="M17.667 16.657a.677.677 0 0 1-.667.686.677.677 0 0 1-.667-.686c0-.378.299-.686.667-.686.368 0 .667.308.667.686m-2.667 0c0 1.134.897 2.057 2 2.057s2-.923 2-2.057a2.05 2.05 0 0 0-1.333-1.93V5h-1.334v9.727A2.05 2.05 0 0 0 15 16.657M11.333 9.8c0-.378.299-.686.667-.686.368 0 .667.308.667.686a.677.677 0 0 1-.667.686.677.677 0 0 1-.667-.686M14 9.8a2.05 2.05 0 0 0-1.333-1.93V5h-1.334v2.87A2.05 2.05 0 0 0 10 9.8a2.05 2.05 0 0 0 1.333 1.93v6.984h1.334V11.73A2.05 2.05 0 0 0 14 9.8M6.333 16.657c0-.378.299-.686.667-.686.368 0 .667.308.667.686a.677.677 0 0 1-.667.686.677.677 0 0 1-.667-.686m2.667 0a2.05 2.05 0 0 0-1.333-1.93V5H6.333v9.727A2.05 2.05 0 0 0 5 16.657c0 1.134.897 2.057 2 2.057s2-.923 2-2.057" />
  </g>
</svg>
