<?xml version="1.0" encoding="UTF-8"?>
<svg width="174px" height="176px" viewBox="0 0 174 176" version="1.1" xmlns="http://www.w3.org/2000/svg" xmlns:xlink="http://www.w3.org/1999/xlink">
    <!-- Generator: Sketch 51.3 (57544) - http://www.bohemiancoding.com/sketch -->
    <title>Group 4</title>
    <desc>Created with Sketch.</desc>
    <defs>
        <polygon id="path-1" points="85 52.9997 146.8658 52.9997 146.8658 114.8667 85 114.8667"></polygon>
    </defs>
    <g id="manage-groups" stroke="none" stroke-width="1" fill="none" fill-rule="evenodd">
        <g id="groups-unavailable" transform="translate(-728.000000, -244.000000)">
            <g id="Group-2" transform="translate(718.000000, 227.000000)">
                <g id="Group-3">
                    <g id="Group-4">
                        <rect id="bg" x="0" y="0" width="200" height="200"></rect>
                        <rect id="Rectangle" stroke="#444444" stroke-width="3" fill="#F0F0F0" x="40.5" y="18.5" width="135" height="173" rx="10"></rect>
                        <path d="M52,20 L58,20 L58,190 L52,190 C46.4771525,190 42,185.522847 42,180 L42,30 C42,24.4771525 46.4771525,20 52,20 Z" id="Rectangle-5" fill="#DDDDDD"></path>
                        <rect id="Rectangle-2" fill="#444444" x="58" y="19" width="3" height="172"></rect>
                        <rect id="Rectangle-6" fill="#444444" x="40" y="190" width="144" height="3" rx="1.5"></rect>
                        <rect id="Rectangle-6" fill="#444444" x="18" y="190" width="16" height="3" rx="1.5"></rect>
                        <path d="M83.5,123 L150.5,123 C151.328427,123 152,123.671573 152,124.5 C152,125.328427 151.328427,126 150.5,126 L83.5,126 C82.6715729,126 82,125.328427 82,124.5 C82,123.671573 82.6715729,123 83.5,123 Z M83.5,130 L150.5,130 C151.328427,130 152,130.671573 152,131.5 C152,132.328427 151.328427,133 150.5,133 L83.5,133 C82.6715729,133 82,132.328427 82,131.5 C82,130.671573 82.6715729,130 83.5,130 Z M83.5,137 L150.5,137 C151.328427,137 152,137.671573 152,138.5 C152,139.328427 151.328427,140 150.5,140 L83.5,140 C82.6715729,140 82,139.328427 82,138.5 C82,137.671573 82.6715729,137 83.5,137 Z M83.5,144 L136.5,144 C137.328427,144 138,144.671573 138,145.5 C138,146.328427 137.328427,147 136.5,147 L83.5,147 C82.6715729,147 82,146.328427 82,145.5 C82,144.671573 82.6715729,144 83.5,144 Z" id="Combined-Shape" fill="#DDDDDD"></path>
                        <path d="M74,121.252035 C77.4504544,122.140121 80,125.272321 80,129 L80,169 C80,173.418278 76.418278,177 72,177 L22,177 C17.581722,177 14,173.418278 14,169 L14,129 C14,125.272321 16.5495456,122.140121 20,121.252035 L20,113 C20,98.0883118 32.0883118,86 47,86 C61.9116882,86 74,98.0883118 74,113 L74,121.252035 Z M32,121 L62,121 L62,113 C62,104.715729 55.2842712,98 47,98 C38.7157288,98 32,104.715729 32,113 L32,121 Z" id="Combined-Shape" fill="#DDDDDD"></path>
                        <path d="M59.5,140.444352 C65.1359852,135.662015 68.5,128.61727 68.5,121 L68.5,109 C68.5,94.9167389 57.0832611,83.5 43,83.5 C28.9167389,83.5 17.5,94.9167389 17.5,109 L17.5,121 C17.5,128.61727 20.8640148,135.662015 26.5,140.444352 L26.5,109 C26.5,99.8873016 33.8873016,92.5 43,92.5 C52.1126984,92.5 59.5,99.8873016 59.5,109 L59.5,140.444352 Z" id="Combined-Shape" stroke="#444444" stroke-width="3" fill="#F0F0F0"></path>
                        <rect id="Rectangle-12" stroke="#444444" stroke-width="3" fill="#F0F0F0" x="11.5" y="118.5" width="63" height="53" rx="8"></rect>
                        <path d="M40,142.000366 C38.7855533,141.08816 38,139.635818 38,138 C38,135.238576 40.2385763,133 43,133 C45.7614237,133 48,135.238576 48,138 C48,139.635818 47.2144467,141.08816 46,142.000366 L46,152 C46,153.656854 44.6568542,155 43,155 C41.3431458,155 40,153.656854 40,152 L40,142.000366 Z" id="Combined-Shape" stroke="#444444" stroke-width="3" fill="#F0F0F0"></path>
                        <path d="M96.3738,71.2513 C94.4858,71.2513 92.9568,72.7813 92.9568,74.6683 C92.9568,76.5553 94.4858,78.0843 96.3738,78.0843 C98.2608,78.0843 99.7898,76.5553 99.7898,74.6683 C99.7898,72.7813 98.2608,71.2513 96.3738,71.2513" id="Fill-1" fill="#D7DADA"></path>
                        <path d="M134.4637,84.5252 C132.5167,84.5252 130.9377,86.1042 130.9377,88.0512 C130.9377,89.9982 132.5167,91.5772 134.4637,91.5772 C136.4107,91.5772 137.9887,89.9982 137.9887,88.0512 C137.9887,86.1042 136.4107,84.5252 134.4637,84.5252" id="Fill-3" fill="#D7DADA"></path>
                        <path d="M121.0809,57.927 C119.2269,57.927 117.7229,59.43 117.7229,61.285 C117.7229,63.14 119.2269,64.643 121.0809,64.643 C122.9349,64.643 124.4379,63.14 124.4379,61.285 C124.4379,59.43 122.9349,57.927 121.0809,57.927" id="Fill-5" fill="#D7DADA"></path>
                        <path d="M109.7566,97.1087 C107.9366,97.1087 106.4606,98.5847 106.4606,100.4037 C106.4606,102.2247 107.9366,103.6997 109.7566,103.6997 C111.5766,103.6997 113.0516,102.2247 113.0516,100.4037 C113.0516,98.5847 111.5766,97.1087 109.7566,97.1087" id="Fill-7" fill="#D7DADA"></path>
                        <path d="M123.2547,73.8753 L118.8387,73.8753 C117.4297,73.8753 116.2757,72.7223 116.2757,71.3123 C116.2757,69.9033 117.4297,68.7503 118.8387,68.7503 L123.2547,68.7503 C124.6647,68.7503 125.8177,69.9033 125.8177,71.3123 C125.8177,72.7223 124.6647,73.8753 123.2547,73.8753" id="Fill-9" fill="#D7DADA"></path>
                        <path d="M98.5818,87.4588 L94.1648,87.4588 C92.7558,87.4588 91.6028,86.3058 91.6028,84.8958 C91.6028,83.4868 92.7558,82.3338 94.1648,82.3338 L98.5818,82.3338 C99.9908,82.3338 101.1448,83.4868 101.1448,84.8958 C101.1448,86.3058 99.9908,87.4588 98.5818,87.4588" id="Fill-11" fill="#D7DADA"></path>
                        <path d="M136.6717,100.8753 L132.2547,100.8753 C130.8457,100.8753 129.6927,99.7223 129.6927,98.3123 C129.6927,96.9033 130.8457,95.7503 132.2547,95.7503 L136.6717,95.7503 C138.0807,95.7503 139.2347,96.9033 139.2347,98.3123 C139.2347,99.7223 138.0807,100.8753 136.6717,100.8753" id="Fill-13" fill="#D7DADA"></path>
                        <path d="M111.9646,113.0418 L107.5476,113.0418 C106.1386,113.0418 104.9856,111.8888 104.9856,110.4788 C104.9856,109.0698 106.1386,107.9168 107.5476,107.9168 L111.9646,107.9168 C113.3736,107.9168 114.5276,109.0698 114.5276,110.4788 C114.5276,111.8888 113.3736,113.0418 111.9646,113.0418" id="Fill-15" fill="#D7DADA"></path>
                        <mask id="mask-2" fill="white">
                            <use xlink:href="#path-1"></use>
                        </mask>
                        <g id="Clip-18"></g>
                        <path d="M131.3748,108.6897 C132.4818,108.6897 133.3838,109.5907 133.3838,110.6987 C133.3838,111.8067 132.4818,112.7077 131.3748,112.7077 C130.2668,112.7077 129.3648,111.8067 129.3648,110.6987 C129.3648,109.5907 130.2668,108.6897 131.3748,108.6897 M91.1768,103.4927 C91.1768,104.6007 90.2748,105.5017 89.1668,105.5017 C88.0598,105.5017 87.1578,104.6007 87.1578,103.4927 C87.1578,102.3847 88.0598,101.4827 89.1668,101.4827 C90.2748,101.4827 91.1768,102.3847 91.1768,103.4927 M115.9818,110.2667 L115.9818,109.6857 C115.9818,107.9457 114.5288,106.5307 112.7428,106.5307 L106.7698,106.5307 C104.9828,106.5307 103.5298,107.9457 103.5298,109.6847 L103.5298,110.2667 C101.6978,108.5807 100.5408,106.1717 100.5408,103.4927 C100.5408,98.4117 104.6758,94.2767 109.7568,94.2767 C114.8378,94.2767 118.9718,98.4117 118.9718,103.4927 C118.9718,106.1727 117.8138,108.5817 115.9818,110.2667 M113.7428,111.7887 C113.4718,111.9187 113.1958,112.0357 112.9148,112.1387 C112.8748,112.1527 112.8358,112.1687 112.7958,112.1827 C110.8338,112.8667 108.6808,112.8667 106.7188,112.1827 C106.6778,112.1687 106.6368,112.1517 106.5958,112.1377 C106.3168,112.0357 106.0438,111.9197 105.7748,111.7907 C105.7468,111.7767 105.7178,111.7627 105.6878,111.7487 L105.6878,109.6857 C105.6878,109.1367 106.1738,108.6897 106.7698,108.6897 L112.7418,108.6897 C113.3388,108.6897 113.8238,109.1367 113.8238,109.6857 L113.8238,111.7487 C113.7978,111.7627 113.7708,111.7747 113.7428,111.7887 M115.9328,82.9537 C117.0408,82.9537 117.9418,83.8547 117.9418,84.9617 C117.9418,86.0697 117.0408,86.9717 115.9328,86.9717 C114.8248,86.9717 113.9238,86.0697 113.9238,84.9617 C113.9238,83.8547 114.8248,82.9537 115.9328,82.9537 M102.5998,84.5307 L102.5998,83.9497 C102.5998,82.2097 101.1458,80.7947 99.3598,80.7947 L93.3868,80.7947 C91.6008,80.7947 90.1468,82.2097 90.1468,83.9487 L90.1468,84.5297 C88.3148,82.8447 87.1578,80.4357 87.1578,77.7557 C87.1578,72.6747 91.2928,68.5407 96.3738,68.5407 C101.4548,68.5407 105.5888,72.6747 105.5888,77.7557 C105.5888,80.4367 104.4318,82.8447 102.5998,84.5307 M100.3598,86.0517 C100.0888,86.1827 99.8118,86.3007 99.5288,86.4027 C99.4908,86.4177 99.4528,86.4317 99.4148,86.4457 C97.7678,87.0207 95.9848,87.1157 94.2948,86.7267 C94.2938,86.7257 94.2928,86.7257 94.2918,86.7257 C93.9698,86.6507 93.6508,86.5567 93.3368,86.4467 C93.2948,86.4317 93.2528,86.4157 93.2108,86.3997 C92.9338,86.2987 92.6608,86.1837 92.3928,86.0547 C92.3638,86.0407 92.3348,86.0267 92.3058,86.0127 L92.3058,83.9497 C92.3058,83.3997 92.7908,82.9537 93.3868,82.9537 L99.3588,82.9537 C99.9558,82.9537 100.4408,83.3997 100.4408,83.9497 L100.4408,86.0127 C100.4148,86.0257 100.3878,86.0387 100.3598,86.0517 M96.3738,59.1767 C95.2658,59.1767 94.3638,58.2747 94.3638,57.1677 C94.3638,56.0597 95.2658,55.1577 96.3738,55.1577 C97.4808,55.1577 98.3828,56.0597 98.3828,57.1677 C98.3828,58.2747 97.4808,59.1767 96.3738,59.1767 M142.6988,67.5117 C143.8068,67.5117 144.7078,68.4127 144.7078,69.5207 C144.7078,70.6277 143.8068,71.5297 142.6988,71.5297 C141.5908,71.5297 140.6888,70.6277 140.6888,69.5207 C140.6888,68.4127 141.5908,67.5117 142.6988,67.5117 M127.3068,71.1477 L127.3068,70.5667 C127.3068,68.8267 125.8538,67.4117 124.0658,67.4117 L118.0938,67.4117 C116.3068,67.4117 114.8538,68.8267 114.8538,70.5657 L114.8538,71.1467 C113.0218,69.4607 111.8648,67.0527 111.8648,64.3737 C111.8648,59.2927 115.9988,55.1577 121.0798,55.1577 C126.1608,55.1577 130.2958,59.2927 130.2958,64.3737 C130.2958,67.0527 129.1388,69.4617 127.3068,71.1477 M124.2418,73.0177 C124.2008,73.0327 124.1598,73.0487 124.1178,73.0637 C122.4718,73.6377 120.6898,73.7327 119.0008,73.3437 C119.0008,73.3427 118.9998,73.3427 118.9998,73.3427 C118.6768,73.2687 118.3568,73.1727 118.0418,73.0637 C118.0008,73.0487 117.9608,73.0337 117.9198,73.0187 C117.6408,72.9167 117.3638,72.7997 117.0938,72.6687 C117.0668,72.6557 117.0398,72.6437 117.0128,72.6297 L117.0128,70.5667 C117.0128,70.0177 117.4978,69.5707 118.0938,69.5707 L124.0658,69.5707 C124.6628,69.5707 125.1478,70.0177 125.1478,70.5667 L125.1478,72.6297 C125.1198,72.6437 125.0908,72.6577 125.0618,72.6717 C124.7928,72.8007 124.5198,72.9167 124.2418,73.0177 M140.6888,97.9127 L140.6888,97.3327 C140.6888,95.5927 139.2358,94.1777 137.4488,94.1777 L131.4768,94.1777 C129.6888,94.1777 128.2358,95.5917 128.2358,97.3317 L128.2358,97.9127 C126.4048,96.2267 125.2478,93.8187 125.2478,91.1387 C125.2478,86.0577 129.3818,81.9237 134.4628,81.9237 C139.5438,81.9237 143.6788,86.0577 143.6788,91.1387 C143.6788,93.8187 142.5208,96.2277 140.6888,97.9127 M138.4438,99.4377 C138.1758,99.5657 137.9018,99.6827 137.6248,99.7837 C137.5828,99.7987 137.5418,99.8147 137.5008,99.8297 C135.8538,100.4027 134.0728,100.4987 132.3838,100.1087 C132.3838,100.1087 132.3828,100.1087 132.3828,100.1087 C132.0598,100.0337 131.7398,99.9387 131.4248,99.8287 C131.3838,99.8147 131.3438,99.7987 131.3028,99.7847 C131.0228,99.6817 130.7468,99.5647 130.4768,99.4347 C130.4498,99.4217 130.4228,99.4087 130.3958,99.3957 L130.3958,97.3327 C130.3958,96.7827 130.8808,96.3357 131.4768,96.3357 L137.4488,96.3357 C138.0458,96.3357 138.5308,96.7827 138.5308,97.3327 L138.5308,99.3957 C138.5028,99.4097 138.4738,99.4227 138.4438,99.4377 M134.4628,79.7657 C134.3038,79.7657 134.1478,79.7827 133.9898,79.7897 L128.7258,72.7697 C130.8538,70.8307 132.2398,68.1017 132.4198,65.0467 L138.7898,68.1227 C138.6328,68.5617 138.5308,69.0277 138.5308,69.5207 C138.5308,71.8187 140.4008,73.6887 142.6988,73.6887 C144.9968,73.6887 146.8658,71.8187 146.8658,69.5207 C146.8658,67.2227 144.9968,65.3537 142.6988,65.3537 C141.6878,65.3537 140.7708,65.7307 140.0478,66.3327 L132.3008,62.5927 C131.4408,57.1667 126.7438,52.9997 121.0798,52.9997 C114.9828,52.9997 110.0078,57.8247 109.7328,63.8547 L103.6698,69.0427 C101.9528,67.6027 99.8078,66.6607 97.4528,66.4377 L97.4528,61.1747 C99.2258,60.6957 100.5408,59.0897 100.5408,57.1677 C100.5408,54.8697 98.6718,52.9997 96.3738,52.9997 C94.0758,52.9997 92.2058,54.8697 92.2058,57.1677 C92.2058,59.0897 93.5208,60.6957 95.2938,61.1747 L95.2938,66.4377 C89.5268,66.9837 84.9998,71.8497 84.9998,77.7557 C84.9998,81.9377 87.2748,85.5897 90.6458,87.5657 C90.6598,87.5757 90.6708,87.5887 90.6858,87.5967 C90.7048,87.6077 90.7258,87.6147 90.7438,87.6257 C91.5498,88.0877 92.4168,88.4497 93.3298,88.7047 C93.4148,88.7287 93.4998,88.7487 93.5858,88.7707 C93.9458,88.8617 94.3118,88.9347 94.6858,88.9907 C94.7918,89.0067 94.8958,89.0257 95.0018,89.0397 C95.4528,89.0937 95.9088,89.1297 96.3738,89.1297 C96.8398,89.1297 97.2958,89.0937 97.7458,89.0397 C97.8518,89.0257 97.9548,89.0067 98.0608,88.9907 C98.4358,88.9347 98.8038,88.8607 99.1648,88.7697 C99.2488,88.7487 99.3318,88.7287 99.4148,88.7057 C100.3308,88.4507 101.1988,88.0867 102.0078,87.6237 C102.0248,87.6137 102.0438,87.6067 102.0618,87.5967 C102.0758,87.5887 102.0858,87.5767 102.0998,87.5677 C104.9048,85.9237 106.9438,83.1197 107.5518,79.8137 L112.0908,83.3517 C111.8818,83.8467 111.7658,84.3917 111.7658,84.9617 C111.7658,87.2607 113.6348,89.1297 115.9328,89.1297 C118.2298,89.1297 120.1008,87.2607 120.1008,84.9617 C120.1008,82.6647 118.2298,80.7947 115.9328,80.7947 C114.9878,80.7947 114.1258,81.1227 113.4258,81.6547 L107.7198,77.2077 C107.5988,74.7037 106.6778,72.4077 105.1888,70.5827 L109.9188,66.5357 C110.5498,69.7957 112.5768,72.5557 115.3508,74.1827 C115.3648,74.1917 115.3768,74.2057 115.3918,74.2137 C115.4108,74.2257 115.4318,74.2327 115.4508,74.2437 C116.2578,74.7057 117.1248,75.0677 118.0388,75.3217 C118.1218,75.3457 118.2058,75.3657 118.2888,75.3867 C118.6508,75.4787 119.0198,75.5517 119.3948,75.6077 C119.4988,75.6247 119.6028,75.6437 119.7078,75.6567 C120.1588,75.7107 120.6148,75.7477 121.0798,75.7477 C121.5458,75.7477 122.0018,75.7107 122.4518,75.6567 C122.5578,75.6437 122.6608,75.6247 122.7668,75.6077 C123.1408,75.5517 123.5088,75.4787 123.8708,75.3867 C123.9548,75.3657 124.0378,75.3457 124.1208,75.3217 C125.0358,75.0677 125.9028,74.7057 126.7108,74.2427 C126.7288,74.2317 126.7498,74.2257 126.7688,74.2137 C126.7838,74.2057 126.7948,74.1917 126.8098,74.1827 C126.8738,74.1447 126.9378,74.1057 127.0008,74.0657 L131.5658,80.1537 C126.6958,81.4397 123.0898,85.8707 123.0898,91.1397 C123.0898,92.4127 123.3098,93.6337 123.6968,94.7777 L119.6118,97.8407 C117.6468,94.4277 113.9708,92.1187 109.7568,92.1187 C103.8498,92.1187 98.9828,96.6467 98.4368,102.4137 L93.1758,102.4137 C92.6958,100.6407 91.0898,99.3247 89.1668,99.3247 C86.8688,99.3247 84.9998,101.1947 84.9998,103.4927 C84.9998,105.7907 86.8688,107.6597 89.1668,107.6597 C91.0898,107.6597 92.6958,106.3447 93.1758,104.5717 L98.4368,104.5717 C98.7898,108.2987 100.9508,111.4987 104.0278,113.3027 C104.0428,113.3117 104.0538,113.3247 104.0678,113.3337 C104.0878,113.3447 104.1078,113.3517 104.1268,113.3617 C104.9328,113.8237 105.7998,114.1867 106.7128,114.4407 C106.7978,114.4647 106.8828,114.4847 106.9688,114.5067 C107.3288,114.5977 107.6948,114.6707 108.0678,114.7277 C108.1748,114.7437 108.2788,114.7627 108.3848,114.7757 C108.8358,114.8297 109.2918,114.8667 109.7568,114.8667 C110.2228,114.8667 110.6788,114.8297 111.1288,114.7757 C111.2338,114.7627 111.3378,114.7437 111.4428,114.7277 C111.8178,114.6707 112.1868,114.5977 112.5478,114.5057 C112.6318,114.4847 112.7148,114.4647 112.7978,114.4417 C113.7138,114.1867 114.5818,113.8237 115.3908,113.3597 C115.4078,113.3507 115.4268,113.3437 115.4438,113.3337 C115.4588,113.3257 115.4688,113.3127 115.4818,113.3037 C118.1328,111.7517 120.0978,109.1617 120.8188,106.0907 L127.4658,109.2997 C127.3088,109.7397 127.2068,110.2057 127.2068,110.6987 C127.2068,112.9967 129.0768,114.8667 131.3748,114.8667 C133.6728,114.8667 135.5418,112.9967 135.5418,110.6987 C135.5418,108.4007 133.6728,106.5307 131.3748,106.5307 C130.3628,106.5307 129.4458,106.9087 128.7238,107.5107 L121.1118,103.8357 C121.1158,103.7207 121.1298,103.6087 121.1298,103.4927 C121.1298,102.2197 120.9108,100.9997 120.5228,99.8567 L124.6078,96.7927 C125.5988,98.5117 127.0228,99.9447 128.7328,100.9487 C128.7478,100.9577 128.7598,100.9707 128.7738,100.9797 C128.7938,100.9907 128.8138,100.9987 128.8338,101.0087 C129.6408,101.4707 130.5078,101.8337 131.4218,102.0877 C131.5048,102.1107 131.5888,102.1307 131.6718,102.1517 C132.0338,102.2437 132.4018,102.3177 132.7768,102.3737 C132.8818,102.3897 132.9848,102.4087 133.0908,102.4217 C133.5418,102.4767 133.9978,102.5127 134.4628,102.5127 C134.9288,102.5127 135.3848,102.4767 135.8348,102.4217 C135.9398,102.4087 136.0438,102.3897 136.1488,102.3737 C136.5228,102.3177 136.8918,102.2437 137.2538,102.1517 C137.3378,102.1307 137.4208,102.1107 137.5038,102.0877 C138.4188,101.8337 139.2858,101.4707 140.0928,101.0087 C140.1118,100.9977 140.1328,100.9907 140.1508,100.9797 C140.1668,100.9707 140.1778,100.9577 140.1918,100.9487 C143.5628,98.9717 145.8368,95.3207 145.8368,91.1397 C145.8368,84.8677 140.7338,79.7657 134.4628,79.7657" id="Fill-17" fill="#4E5554" mask="url(#mask-2)"></path>
                        <path d="M136.4725,88.0506 C136.4725,89.1586 135.5715,90.0596 134.4625,90.0596 C133.3555,90.0596 132.4535,89.1586 132.4535,88.0506 C132.4535,86.9436 133.3555,86.0416 134.4625,86.0416 C135.5715,86.0416 136.4725,86.9436 136.4725,88.0506 M134.4625,83.8836 C132.1645,83.8836 130.2955,85.7526 130.2955,88.0506 C130.2955,90.3486 132.1645,92.2186 134.4625,92.2186 C136.7605,92.2186 138.6305,90.3486 138.6305,88.0506 C138.6305,85.7526 136.7605,83.8836 134.4625,83.8836" id="Fill-20" fill="#4E5554" mask="url(#mask-2)"></path>
                        <path d="M111.7654,100.4041 C111.7654,101.5121 110.8644,102.4131 109.7564,102.4131 C108.6484,102.4131 107.7464,101.5121 107.7464,100.4041 C107.7464,99.2961 108.6484,98.3951 109.7564,98.3951 C110.8644,98.3951 111.7654,99.2961 111.7654,100.4041 M109.7564,96.2371 C107.4584,96.2371 105.5884,98.1061 105.5884,100.4041 C105.5884,102.7021 107.4584,104.5711 109.7564,104.5711 C112.0544,104.5711 113.9234,102.7021 113.9234,100.4041 C113.9234,98.1061 112.0544,96.2371 109.7564,96.2371" id="Fill-22" fill="#4E5554" mask="url(#mask-2)"></path>
                        <path d="M98.3826,74.6678 C98.3826,75.7758 97.4816,76.6768 96.3736,76.6768 C95.2656,76.6768 94.3636,75.7758 94.3636,74.6678 C94.3636,73.5608 95.2656,72.6588 96.3736,72.6588 C97.4816,72.6588 98.3826,73.5608 98.3826,74.6678 M96.3736,70.5008 C94.0756,70.5008 92.2056,72.3698 92.2056,74.6678 C92.2056,76.9658 94.0756,78.8358 96.3736,78.8358 C98.6716,78.8358 100.5406,76.9658 100.5406,74.6678 C100.5406,72.3698 98.6716,70.5008 96.3736,70.5008" id="Fill-24" fill="#4E5554" mask="url(#mask-2)"></path>
                        <path d="M123.0896,61.285 C123.0896,62.393 122.1886,63.294 121.0796,63.294 C119.9726,63.294 119.0706,62.393 119.0706,61.285 C119.0706,60.177 119.9726,59.276 121.0796,59.276 C122.1886,59.276 123.0896,60.177 123.0896,61.285 M121.0796,57.118 C118.7816,57.118 116.9126,58.987 116.9126,61.285 C116.9126,63.583 118.7816,65.452 121.0796,65.452 C123.3776,65.452 125.2476,63.583 125.2476,61.285 C125.2476,58.987 123.3776,57.118 121.0796,57.118" id="Fill-26" fill="#4E5554" mask="url(#mask-2)"></path>
                    </g>
                </g>
            </g>
        </g>
    </g>
</svg>