<svg xmlns="http://www.w3.org/2000/svg" width="12" height="12" viewBox="0 0 12 12">
    <path fill="currentColor" fill-rule="nonzero" d="M3.857 2.912c0 .43.7 2.365 2.1 5.806 1.457-3.44 2.186-5.376 2.186-5.806 0-1.12-1.007-1.986-2.142-2.03-1.183 0-2.144.91-2.144 2.03zM6 10.147a.467.467 0 0 1-.424-.258 70.076 70.076 0 0 1-1.497-3.33c-.75-1.802-1.154-3.064-1.154-3.647C2.925 1.306 4.305 0 6 0c1.695 0 3.075 1.306 3.075 2.912 0 .584-.404 1.845-1.154 3.647a69.744 69.744 0 0 1-1.497 3.33.467.467 0 0 1-.424.258zM2.82 6.794l.047.044-.046.838-.415-.026-1.64 3.468 10.426.061-1.555-3.503-.526-.044.046-.838h.326c.449 0 .852.252 1.029.642l1.397 3.088c.149.327.114.701-.094 1a1.133 1.133 0 0 1-.934.476H1.12c-.377 0-.725-.177-.934-.476a1.008 1.008 0 0 1-.094-1L1.49 7.435c.175-.39.579-.642 1.027-.642h.305zm4.158-3.882c0 .512-.437.926-.978.926-.54 0-.979-.414-.979-.926s.438-.927.979-.927c.54 0 .978.415.978.927z"/>
</svg>
