<svg xmlns="http://www.w3.org/2000/svg" width="24" height="24" viewBox="0 0 24 24">
    <g fill="none" fill-rule="evenodd">
        <path d="M0 0h24v24H0z"/>
        <g fill="currentColor">
            <path d="M3.75 17.505h16.5v-10.5H3.75v10.5zm16.875.75H3.375A.373.373 0 0 1 3 17.88V6.63c0-.21.168-.375.375-.375h17.25c.207 0 .375.166.375.375v11.25c0 .21-.168.375-.375.375z"/>
            <path d="M11.79 13.755a2.62 2.62 0 0 1-1.717-.622L2.92 6.916a.38.38 0 0 1-.037-.533.374.374 0 0 1 .529-.038l7.153 6.226c.665.577 1.787.577 2.451 0l7.154-6.226a.375.375 0 0 1 .53.038.379.379 0 0 1-.038.533l-7.154 6.217a2.619 2.619 0 0 1-1.717.622"/>
        </g>
    </g>
</svg>
