<svg width="20" height="24" viewBox="0 0 20 24" fill="none" xmlns="http://www.w3.org/2000/svg">
<path d="M4.08938 5.00001H14.4347C14.8138 5.05334 15.1659 4.80001 15.2201 4.42667C15.2742 4.05334 15.0169 3.70667 14.6378 3.65334C14.5701 3.64001 14.5024 3.64001 14.4482 3.65334H4.08938C3.71024 3.60001 3.35817 3.85334 3.30401 4.22667C3.24984 4.60001 3.50712 4.94667 3.88627 5.00001C3.96752 5.01334 4.03522 5.01334 4.08938 5.00001Z" fill="#2D9CDB"/>
<path d="M2.99192 23.9993H17.0204C18.6724 24.0127 19.9994 22.706 20.0129 21.0793C20.0129 21.066 20.0129 21.066 20.0129 21.0527V2.946C20.0265 1.31934 18.6994 0.0126715 17.0474 -0.0006618C17.0339 -0.0006618 17.0339 -0.0006618 17.0204 -0.0006618H2.99192C1.33993 -0.0139951 0.0129113 1.29267 -0.000629708 2.91934C-0.000629708 2.93267 -0.000629708 2.93267 -0.000629708 2.946V21.0527C-0.0141707 22.6793 1.31284 23.986 2.96484 23.9993C2.97838 23.9993 2.97838 23.9993 2.99192 23.9993ZM1.38055 2.946C1.38055 2.066 2.09822 1.35934 2.99192 1.35934H17.0204C17.9141 1.35934 18.6317 2.066 18.6317 2.946V21.0527C18.6317 21.9327 17.9141 22.6393 17.0204 22.6393H2.99192C2.09822 22.6393 1.38055 21.9327 1.38055 21.0527V2.946Z" fill="#2D9CDB"/>
<path d="M10.0068 13.5733H4.0894C3.71025 13.5733 3.41235 13.28 3.41235 12.9067V7.30668C3.41235 6.93335 3.71025 6.64001 4.0894 6.64001H10.0068C10.3859 6.64001 10.6839 6.93335 10.6839 7.30668V12.9067C10.6839 13.28 10.3859 13.5733 10.0068 13.5733ZM4.76645 12.24H9.32975V7.97335H4.76645V12.24Z" fill="#2D9CDB"/>
<path d="M15.8429 13.5733H12.4577C12.0785 13.5733 11.7806 13.28 11.7806 12.9067V7.30668C11.7806 6.93335 12.0785 6.64001 12.4577 6.64001H15.8429C16.2221 6.64001 16.52 6.93335 16.52 7.30668V12.9067C16.52 13.28 16.2085 13.5733 15.8429 13.5733ZM13.1347 12.24H15.1659V7.97335H13.1347V12.24Z" fill="#2D9CDB"/>
<path d="M7.47464 21.0267H4.0894C3.71025 21.0267 3.41235 20.7333 3.41235 20.36V14.76C3.41235 14.3867 3.71025 14.0933 4.0894 14.0933H7.47464C7.85379 14.0933 8.15169 14.3867 8.15169 14.76V20.36C8.15169 20.72 7.85379 21.0267 7.47464 21.0267ZM4.76645 19.6933H6.79759V15.4267H4.76645V19.6933Z" fill="#2D9CDB"/>
<path d="M15.8429 21.0267H9.92552C9.54638 21.0267 9.24847 20.7334 9.24847 20.36V14.76C9.24847 14.3867 9.54638 14.0934 9.92552 14.0934H15.8429C16.2221 14.0934 16.52 14.3867 16.52 14.76V20.36C16.52 20.72 16.2085 21.0267 15.8429 21.0267ZM10.6026 19.6934H15.1659V15.4267H10.6026V19.6934Z" fill="#2D9CDB"/>
</svg>
