<svg width="1034" height="804" viewBox="0 0 1034 804" fill="none" xmlns="http://www.w3.org/2000/svg">
<rect width="1034" height="804" rx="4" fill="#EEEEEE"/>
<path d="M534.5 148.39H439.5C433.977 148.39 429.5 152.867 429.5 158.39V311.39C429.5 316.913 433.977 321.39 439.5 321.39H534.5C540.023 321.39 544.5 316.913 544.5 311.39V158.39C544.5 152.867 540.023 148.39 534.5 148.39Z" fill="#F0F0F0"/>
<path d="M534.5 322.89H439.5C433.151 322.884 428.006 317.739 428 311.39V158.39C428.006 152.041 433.151 146.896 439.5 146.89H534.5C540.849 146.896 545.994 152.041 546 158.39V311.39C545.994 317.739 540.849 322.884 534.5 322.89ZM439.5 149.89C437.246 149.893 435.086 150.789 433.493 152.383C431.899 153.976 431.003 156.137 431 158.39V311.39C431.003 313.644 431.899 315.804 433.493 317.398C435.086 318.991 437.246 319.887 439.5 319.89H534.5C536.754 319.887 538.914 318.991 540.507 317.398C542.101 315.804 542.997 313.644 543 311.39V158.39C542.997 156.137 542.101 153.976 540.507 152.383C538.914 150.789 536.754 149.893 534.5 149.89H439.5Z" fill="#A4A4A4"/>
<path opacity="0.5" d="M439.59 149.89H534.41C536.687 149.893 538.871 150.799 540.481 152.409C542.091 154.019 542.997 156.203 543 158.48V170.64C543 171.33 542.44 171.89 541.75 171.89H432.25C431.56 171.89 431 171.33 431 170.64V158.48C431.003 156.203 431.909 154.019 433.519 152.409C435.129 150.799 437.313 149.893 439.59 149.89Z" fill="#DDDDDD"/>
<path d="M429 169.89H545V172.89H429V169.89ZM443 164.89C441.939 164.89 440.922 164.469 440.172 163.719C439.421 162.968 439 161.951 439 160.89C439 159.829 439.421 158.812 440.172 158.062C440.922 157.312 441.939 156.89 443 156.89C444.061 156.89 445.078 157.312 445.828 158.062C446.579 158.812 447 159.829 447 160.89C447 161.951 446.579 162.968 445.828 163.719C445.078 164.469 444.061 164.89 443 164.89ZM443 158.89C442.47 158.89 441.961 159.101 441.586 159.476C441.211 159.851 441 160.36 441 160.89C441 161.421 441.211 161.929 441.586 162.304C441.961 162.679 442.47 162.89 443 162.89C443.53 162.89 444.039 162.679 444.414 162.304C444.789 161.929 445 161.421 445 160.89C445 160.36 444.789 159.851 444.414 159.476C444.039 159.101 443.53 158.89 443 158.89ZM457 164.89C455.939 164.89 454.922 164.469 454.172 163.719C453.421 162.968 453 161.951 453 160.89C453 159.829 453.421 158.812 454.172 158.062C454.922 157.312 455.939 156.89 457 156.89C458.061 156.89 459.078 157.312 459.828 158.062C460.579 158.812 461 159.829 461 160.89C461 161.951 460.579 162.968 459.828 163.719C459.078 164.469 458.061 164.89 457 164.89ZM457 158.89C456.47 158.89 455.961 159.101 455.586 159.476C455.211 159.851 455 160.36 455 160.89C455 161.421 455.211 161.929 455.586 162.304C455.961 162.679 456.47 162.89 457 162.89C457.53 162.89 458.039 162.679 458.414 162.304C458.789 161.929 459 161.421 459 160.89C459 160.36 458.789 159.851 458.414 159.476C458.039 159.101 457.53 158.89 457 158.89ZM420.5 319.89H551.5C551.898 319.89 552.279 320.048 552.561 320.329C552.842 320.611 553 320.992 553 321.39C553 321.788 552.842 322.169 552.561 322.451C552.279 322.732 551.898 322.89 551.5 322.89H420.5C420.102 322.89 419.721 322.732 419.439 322.451C419.158 322.169 419 321.788 419 321.39C419 320.992 419.158 320.611 419.439 320.329C419.721 320.048 420.102 319.89 420.5 319.89ZM562.5 319.89H583.5C583.898 319.89 584.279 320.048 584.561 320.329C584.842 320.611 585 320.992 585 321.39C585 321.788 584.842 322.169 584.561 322.451C584.279 322.732 583.898 322.89 583.5 322.89H562.5C562.102 322.89 561.721 322.732 561.439 322.451C561.158 322.169 561 321.788 561 321.39C561 320.992 561.158 320.611 561.439 320.329C561.721 320.048 562.102 319.89 562.5 319.89ZM529.5 309.06H444.5C443.042 309.057 441.645 308.477 440.614 307.446C439.583 306.415 439.003 305.018 439 303.56V295.56C439 294.101 439.579 292.702 440.611 291.671C441.642 290.64 443.041 290.06 444.5 290.06H529.5C530.959 290.06 532.358 290.64 533.389 291.671C534.421 292.702 535 294.101 535 295.56V303.56C534.997 305.018 534.417 306.415 533.386 307.446C532.355 308.477 530.958 309.057 529.5 309.06ZM444.5 293.06C443.837 293.06 443.201 293.324 442.732 293.792C442.263 294.261 442 294.897 442 295.56V303.56C442.003 304.222 442.267 304.857 442.735 305.325C443.203 305.793 443.838 306.057 444.5 306.06H529.5C530.162 306.057 530.797 305.793 531.265 305.325C531.733 304.857 531.997 304.222 532 303.56V295.56C532 294.897 531.737 294.261 531.268 293.792C530.799 293.324 530.163 293.06 529.5 293.06H444.5Z" fill="#A4A4A4"/>
<path d="M448.5 298.05H469.5C469.898 298.05 470.279 298.208 470.561 298.489C470.842 298.77 471 299.152 471 299.55C471 299.948 470.842 300.329 470.561 300.61C470.279 300.892 469.898 301.05 469.5 301.05H448.5C448.102 301.05 447.721 300.892 447.439 300.61C447.158 300.329 447 299.948 447 299.55C447 299.152 447.158 298.77 447.439 298.489C447.721 298.208 448.102 298.05 448.5 298.05ZM476 298.05H497C497.398 298.05 497.779 298.208 498.061 298.489C498.342 298.77 498.5 299.152 498.5 299.55C498.5 299.948 498.342 300.329 498.061 300.61C497.779 300.892 497.398 301.05 497 301.05H476C475.602 301.05 475.221 300.892 474.939 300.61C474.658 300.329 474.5 299.948 474.5 299.55C474.5 299.152 474.658 298.77 474.939 298.489C475.221 298.208 475.602 298.05 476 298.05ZM503.5 298.05H524.5C524.898 298.05 525.279 298.208 525.561 298.489C525.842 298.77 526 299.152 526 299.55C526 299.948 525.842 300.329 525.561 300.61C525.279 300.892 524.898 301.05 524.5 301.05H503.5C503.102 301.05 502.721 300.892 502.439 300.61C502.158 300.329 502 299.948 502 299.55C502 299.152 502.158 298.77 502.439 298.489C502.721 298.208 503.102 298.05 503.5 298.05Z" fill="#DDDDDD"/>
<path d="M529.5 282.26H444.5C443.041 282.26 441.642 281.68 440.611 280.649C439.579 279.617 439 278.218 439 276.76V268.76C439.003 267.302 439.583 265.904 440.614 264.874C441.645 263.843 443.042 263.262 444.5 263.26H529.5C530.958 263.262 532.355 263.843 533.386 264.874C534.417 265.904 534.997 267.302 535 268.76V276.76C535 278.218 534.421 279.617 533.389 280.649C532.358 281.68 530.959 282.26 529.5 282.26ZM444.5 266.26C443.837 266.26 443.201 266.523 442.732 266.992C442.263 267.461 442 268.097 442 268.76V276.76C442 277.423 442.263 278.059 442.732 278.528C443.201 278.996 443.837 279.26 444.5 279.26H529.5C530.163 279.26 530.799 278.996 531.268 278.528C531.737 278.059 532 277.423 532 276.76V268.76C532 268.097 531.737 267.461 531.268 266.992C530.799 266.523 530.163 266.26 529.5 266.26H444.5Z" fill="#A4A4A4"/>
<path d="M448.5 271.26H469.5C469.898 271.26 470.279 271.418 470.561 271.699C470.842 271.98 471 272.362 471 272.76C471 273.158 470.842 273.539 470.561 273.82C470.279 274.102 469.898 274.26 469.5 274.26H448.5C448.102 274.26 447.721 274.102 447.439 273.82C447.158 273.539 447 273.158 447 272.76C447 272.362 447.158 271.98 447.439 271.699C447.721 271.418 448.102 271.26 448.5 271.26ZM476 271.26H497C497.398 271.26 497.779 271.418 498.061 271.699C498.342 271.98 498.5 272.362 498.5 272.76C498.5 273.158 498.342 273.539 498.061 273.82C497.779 274.102 497.398 274.26 497 274.26H476C475.602 274.26 475.221 274.102 474.939 273.82C474.658 273.539 474.5 273.158 474.5 272.76C474.5 272.362 474.658 271.98 474.939 271.699C475.221 271.418 475.602 271.26 476 271.26ZM503.5 271.26H524.5C524.898 271.26 525.279 271.418 525.561 271.699C525.842 271.98 526 272.362 526 272.76C526 273.158 525.842 273.539 525.561 273.82C525.279 274.102 524.898 274.26 524.5 274.26H503.5C503.102 274.26 502.721 274.102 502.439 273.82C502.158 273.539 502 273.158 502 272.76C502 272.362 502.158 271.98 502.439 271.699C502.721 271.418 503.102 271.26 503.5 271.26Z" fill="#DDDDDD"/>
<path d="M529.5 255.47H444.5C443.047 255.467 441.654 254.891 440.624 253.867C439.594 252.842 439.011 251.453 439 250V242C439.003 240.542 439.583 239.145 440.614 238.114C441.645 237.083 443.042 236.503 444.5 236.5H529.5C530.958 236.503 532.355 237.083 533.386 238.114C534.417 239.145 534.997 240.542 535 242V250C534.989 251.453 534.406 252.842 533.376 253.867C532.346 254.891 530.953 255.467 529.5 255.47ZM444.5 239.47C444.169 239.47 443.842 239.536 443.536 239.663C443.231 239.791 442.954 239.977 442.722 240.213C442.489 240.448 442.305 240.727 442.182 241.034C442.058 241.341 441.996 241.669 442 242V250C442 250.663 442.263 251.299 442.732 251.768C443.201 252.237 443.837 252.5 444.5 252.5H529.5C530.163 252.5 530.799 252.237 531.268 251.768C531.737 251.299 532 250.663 532 250V242C532 241.337 531.737 240.701 531.268 240.232C530.799 239.763 530.163 239.5 529.5 239.5L444.5 239.47Z" fill="#A4A4A4"/>
<path d="M448.5 244.47H469.5C469.898 244.47 470.279 244.628 470.561 244.91C470.842 245.191 471 245.572 471 245.97C471 246.368 470.842 246.75 470.561 247.031C470.279 247.312 469.898 247.47 469.5 247.47H448.5C448.102 247.47 447.721 247.312 447.439 247.031C447.158 246.75 447 246.368 447 245.97C447 245.572 447.158 245.191 447.439 244.91C447.721 244.628 448.102 244.47 448.5 244.47ZM476 244.47H497C497.398 244.47 497.779 244.628 498.061 244.91C498.342 245.191 498.5 245.572 498.5 245.97C498.5 246.368 498.342 246.75 498.061 247.031C497.779 247.312 497.398 247.47 497 247.47H476C475.602 247.47 475.221 247.312 474.939 247.031C474.658 246.75 474.5 246.368 474.5 245.97C474.5 245.572 474.658 245.191 474.939 244.91C475.221 244.628 475.602 244.47 476 244.47ZM503.5 244.47H524.5C524.898 244.47 525.279 244.628 525.561 244.91C525.842 245.191 526 245.572 526 245.97C526 246.368 525.842 246.75 525.561 247.031C525.279 247.312 524.898 247.47 524.5 247.47H503.5C503.102 247.47 502.721 247.312 502.439 247.031C502.158 246.75 502 246.368 502 245.97C502 245.572 502.158 245.191 502.439 244.91C502.721 244.628 503.102 244.47 503.5 244.47Z" fill="#DDDDDD"/>
<path d="M529.5 228.68H444.5C443.042 228.678 441.645 228.097 440.614 227.066C439.583 226.035 439.003 224.638 439 223.18V215.18C439.003 213.722 439.583 212.325 440.614 211.294C441.645 210.263 443.042 209.683 444.5 209.68H529.5C530.958 209.683 532.355 210.263 533.386 211.294C534.417 212.325 534.997 213.722 535 215.18V223.18C534.997 224.638 534.417 226.035 533.386 227.066C532.355 228.097 530.958 228.678 529.5 228.68ZM444.5 212.68C443.837 212.68 443.201 212.944 442.732 213.412C442.263 213.881 442 214.517 442 215.18V223.18C442 223.843 442.263 224.479 442.732 224.948C443.201 225.417 443.837 225.68 444.5 225.68H529.5C530.163 225.68 530.799 225.417 531.268 224.948C531.737 224.479 532 223.843 532 223.18V215.18C532 214.517 531.737 213.881 531.268 213.412C530.799 212.944 530.163 212.68 529.5 212.68H444.5Z" fill="#A4A4A4"/>
<path d="M448.5 217.68H469.5C469.898 217.68 470.279 217.838 470.561 218.12C470.842 218.401 471 218.782 471 219.18C471 219.578 470.842 219.96 470.561 220.241C470.279 220.522 469.898 220.68 469.5 220.68H448.5C448.102 220.68 447.721 220.522 447.439 220.241C447.158 219.96 447 219.578 447 219.18C447 218.782 447.158 218.401 447.439 218.12C447.721 217.838 448.102 217.68 448.5 217.68ZM476 217.68H497C497.398 217.68 497.779 217.838 498.061 218.12C498.342 218.401 498.5 218.782 498.5 219.18C498.5 219.578 498.342 219.96 498.061 220.241C497.779 220.522 497.398 220.68 497 220.68H476C475.602 220.68 475.221 220.522 474.939 220.241C474.658 219.96 474.5 219.578 474.5 219.18C474.5 218.782 474.658 218.401 474.939 218.12C475.221 217.838 475.602 217.68 476 217.68ZM503.5 217.68H524.5C524.898 217.68 525.279 217.838 525.561 218.12C525.842 218.401 526 218.782 526 219.18C526 219.578 525.842 219.96 525.561 220.241C525.279 220.522 524.898 220.68 524.5 220.68H503.5C503.102 220.68 502.721 220.522 502.439 220.241C502.158 219.96 502 219.578 502 219.18C502 218.782 502.158 218.401 502.439 218.12C502.721 217.838 503.102 217.68 503.5 217.68Z" fill="#DDDDDD"/>
<path d="M529.5 201.89H444.5C443.042 201.887 441.645 201.307 440.614 200.276C439.583 199.245 439.003 197.848 439 196.39V188.39C439.003 186.932 439.583 185.535 440.614 184.504C441.645 183.473 443.042 182.893 444.5 182.89H529.5C530.958 182.893 532.355 183.473 533.386 184.504C534.417 185.535 534.997 186.932 535 188.39V196.39C534.997 197.848 534.417 199.245 533.386 200.276C532.355 201.307 530.958 201.887 529.5 201.89ZM444.5 185.89C443.837 185.89 443.201 186.154 442.732 186.622C442.263 187.091 442 187.727 442 188.39V196.39C442 197.053 442.263 197.689 442.732 198.158C443.201 198.627 443.837 198.89 444.5 198.89H529.5C530.163 198.89 530.799 198.627 531.268 198.158C531.737 197.689 532 197.053 532 196.39V188.39C532 187.727 531.737 187.091 531.268 186.622C530.799 186.154 530.163 185.89 529.5 185.89H444.5Z" fill="#A4A4A4"/>
<path d="M448.5 190.89H469.5C469.898 190.89 470.279 191.048 470.561 191.329C470.842 191.611 471 191.992 471 192.39C471 192.788 470.842 193.169 470.561 193.451C470.279 193.732 469.898 193.89 469.5 193.89H448.5C448.102 193.89 447.721 193.732 447.439 193.451C447.158 193.169 447 192.788 447 192.39C447 191.992 447.158 191.611 447.439 191.329C447.721 191.048 448.102 190.89 448.5 190.89ZM476 190.89H497C497.398 190.89 497.779 191.048 498.061 191.329C498.342 191.611 498.5 191.992 498.5 192.39C498.5 192.788 498.342 193.169 498.061 193.451C497.779 193.732 497.398 193.89 497 193.89H476C475.602 193.89 475.221 193.732 474.939 193.451C474.658 193.169 474.5 192.788 474.5 192.39C474.5 191.992 474.658 191.611 474.939 191.329C475.221 191.048 475.602 190.89 476 190.89ZM503.5 190.89H524.5C524.898 190.89 525.279 191.048 525.561 191.329C525.842 191.611 526 191.992 526 192.39C526 192.788 525.842 193.169 525.561 193.451C525.279 193.732 524.898 193.89 524.5 193.89H503.5C503.102 193.89 502.721 193.732 502.439 193.451C502.158 193.169 502 192.788 502 192.39C502 191.992 502.158 191.611 502.439 191.329C502.721 191.048 503.102 190.89 503.5 190.89Z" fill="#DDDDDD"/>
<path d="M551.51 315.35C549.319 315.347 547.197 314.579 545.51 313.18L540.65 309.18L539.65 308.31C536.01 305.31 532.38 302.31 528.8 299.31C527.744 298.425 526.894 297.319 526.312 296.069C525.73 294.82 525.429 293.458 525.43 292.08V225.61C515.963 212.61 506.507 199.637 497.06 186.69L496.84 186.39C488.494 174.929 480.151 163.465 471.81 152C470.777 150.595 470.154 148.93 470.011 147.191C469.868 145.453 470.211 143.709 471.001 142.154C471.791 140.598 472.997 139.293 474.486 138.383C475.974 137.473 477.686 136.994 479.43 137H606.25C607.995 136.993 609.708 137.47 611.198 138.379C612.688 139.288 613.896 140.594 614.687 142.149C615.478 143.705 615.822 145.45 615.679 147.189C615.537 148.928 614.914 150.594 613.88 152C606 162.92 598.123 173.88 590.25 184.88L589.19 186.35C580.45 198.53 570.55 212.35 560.93 225.66C560.88 240.08 560.93 254.74 560.93 268.92V306.02C560.922 308.519 559.924 310.912 558.155 312.676C556.385 314.44 553.989 315.43 551.49 315.43L551.51 315.35ZM479.43 145.05C479.167 145.049 478.909 145.121 478.685 145.258C478.461 145.395 478.279 145.592 478.159 145.826C478.04 146.06 477.988 146.323 478.01 146.585C478.031 146.847 478.125 147.098 478.28 147.31L503.28 181.68L503.5 181.98C513.04 195.08 522.583 208.193 532.13 221.32C532.925 222.42 533.356 223.742 533.36 225.1V292.1C533.359 292.308 533.404 292.514 533.492 292.703C533.58 292.891 533.709 293.058 533.87 293.19C537.43 296.19 541.05 299.19 544.67 302.19L545.67 303.06L550.54 307.06C550.787 307.273 551.103 307.39 551.43 307.39C551.644 307.388 551.856 307.34 552.05 307.25C552.297 307.14 552.506 306.961 552.652 306.733C552.798 306.506 552.874 306.24 552.87 305.97V268.9C552.87 254.55 552.82 239.7 552.87 225.1C552.869 223.757 553.293 222.448 554.08 221.36C563.8 207.9 573.8 193.96 582.63 181.66L583.69 180.18C591.57 169.2 599.45 158.237 607.33 147.29C607.486 147.079 607.579 146.829 607.601 146.567C607.622 146.306 607.57 146.044 607.45 145.81C607.343 145.576 607.173 145.377 606.96 145.234C606.746 145.091 606.497 145.01 606.24 145H542.84C523.17 145 500.87 145.08 479.43 145.05Z" fill="#F0F0F0"/>
<path d="M606 142.52C563.73 142.45 521.46 142.62 479.19 142.52C478.461 142.513 477.745 142.709 477.121 143.087C476.498 143.464 475.992 144.008 475.661 144.658C475.329 145.307 475.186 146.036 475.245 146.762C475.305 147.488 475.567 148.184 476 148.77C494 173.49 511.93 198.06 529.89 222.77C530.373 223.444 530.635 224.251 530.64 225.08V292.08C530.641 292.652 530.767 293.216 531.009 293.734C531.25 294.253 531.602 294.712 532.04 295.08C537.56 299.7 543.2 304.32 548.77 308.94C549.343 309.412 550.038 309.713 550.774 309.806C551.511 309.9 552.259 309.783 552.932 309.469C553.605 309.155 554.175 308.657 554.576 308.033C554.978 307.408 555.194 306.682 555.2 305.94C555.2 278.94 555.09 252.04 555.2 225.1C555.221 224.269 555.501 223.465 556 222.8C573.75 198.21 591.5 173.35 609.25 148.73C609.675 148.14 609.927 147.443 609.979 146.717C610.031 145.992 609.879 145.266 609.542 144.622C609.205 143.977 608.695 143.439 608.069 143.068C607.444 142.697 606.727 142.507 606 142.52Z" fill="#F0F0F0"/>
<path d="M551.29 311.35C550.032 311.35 548.814 310.907 547.85 310.1L542 305.23C538.37 302.23 534.73 299.23 531.15 296.23C530.54 295.722 530.05 295.086 529.715 294.367C529.38 293.648 529.207 292.863 529.21 292.07V225.07C529.206 224.556 529.042 224.056 528.74 223.64C519.093 210.413 509.46 197.2 499.84 184C491.5 172.56 483.167 161.107 474.84 149.64C474.248 148.835 473.892 147.881 473.81 146.885C473.729 145.889 473.926 144.89 474.38 144C474.824 143.102 475.513 142.348 476.368 141.826C477.223 141.304 478.208 141.035 479.21 141.05H542.48C563.22 141.05 584.84 141 606 141C606.997 141.001 607.975 141.278 608.826 141.799C609.676 142.32 610.366 143.065 610.82 143.953C611.274 144.842 611.474 145.838 611.398 146.832C611.322 147.827 610.973 148.781 610.39 149.59C602.119 161.066 593.872 172.559 585.65 184.07C576.31 197.07 566.65 210.53 557.16 223.68C556.865 224.091 556.704 224.584 556.7 225.09V305.93C556.702 306.959 556.409 307.968 555.857 308.836C555.304 309.705 554.514 310.396 553.58 310.83C552.863 311.167 552.082 311.344 551.29 311.35ZM479.2 144.05C478.751 144.042 478.308 144.16 477.922 144.39C477.535 144.62 477.221 144.953 477.013 145.352C476.805 145.75 476.713 146.199 476.746 146.647C476.779 147.096 476.936 147.526 477.2 147.89C485.54 159.37 493.873 170.823 502.2 182.25C511.867 195.463 521.51 208.683 531.13 221.91C531.789 222.842 532.139 223.958 532.13 225.1V292.1C532.128 292.454 532.204 292.804 532.352 293.126C532.501 293.447 532.719 293.732 532.99 293.96C536.57 296.96 540.2 299.96 543.83 302.96L549.72 307.83C550.071 308.127 550.501 308.315 550.957 308.372C551.414 308.429 551.877 308.352 552.29 308.15C552.712 307.965 553.07 307.659 553.319 307.271C553.568 306.884 553.697 306.431 553.69 305.97V269.07C553.69 254.67 553.64 239.77 553.69 225.12C553.687 223.988 554.037 222.884 554.69 221.96C564.18 208.81 573.84 195.36 583.17 182.36C591.439 170.851 599.716 159.348 608 147.85C608.267 147.486 608.426 147.055 608.461 146.605C608.495 146.155 608.404 145.704 608.196 145.304C607.988 144.904 607.672 144.569 607.284 144.339C606.896 144.108 606.451 143.991 606 144H479.19L479.2 144.05Z" fill="#A4A4A4"/>
<path d="M548.62 168.25L542.47 174.39L536.33 168.25C535.977 167.897 535.499 167.699 535 167.699C534.501 167.699 534.023 167.897 533.67 168.25C533.317 168.603 533.119 169.081 533.119 169.58C533.119 170.079 533.317 170.557 533.67 170.91L539.81 177.06L533.67 183.2C533.495 183.375 533.357 183.582 533.262 183.81C533.168 184.039 533.119 184.283 533.119 184.53C533.119 184.777 533.168 185.022 533.262 185.25C533.357 185.478 533.495 185.685 533.67 185.86C533.845 186.035 534.052 186.173 534.28 186.268C534.508 186.362 534.753 186.411 535 186.411C535.247 186.411 535.492 186.362 535.72 186.268C535.948 186.173 536.155 186.035 536.33 185.86L542.47 179.72L548.62 185.86C548.973 186.213 549.451 186.411 549.95 186.411C550.449 186.411 550.927 186.213 551.28 185.86C551.633 185.507 551.831 185.029 551.831 184.53C551.831 184.031 551.633 183.553 551.28 183.2L545.14 177.06L551.28 170.91C551.633 170.557 551.831 170.079 551.831 169.58C551.831 169.081 551.633 168.603 551.28 168.25C550.927 167.897 550.449 167.699 549.95 167.699C549.451 167.699 548.973 167.897 548.62 168.25Z" fill="#C4C4C4"/>
<path d="M294.071 399V374.34H301.055L308.543 395.472H309.083V374.34H313.079V399H306.239L298.571 377.832H298.067V399H294.071ZM319.043 382.944C320.291 381.384 322.355 380.604 325.235 380.604C328.115 380.604 330.167 381.384 331.391 382.944C332.639 384.504 333.263 386.844 333.263 389.964C333.263 393.084 332.663 395.436 331.463 397.02C330.263 398.604 328.187 399.396 325.235 399.396C322.283 399.396 320.207 398.604 319.007 397.02C317.807 395.436 317.207 393.084 317.207 389.964C317.207 386.844 317.819 384.504 319.043 382.944ZM321.995 394.644C322.547 395.604 323.627 396.084 325.235 396.084C326.843 396.084 327.923 395.604 328.475 394.644C329.027 393.684 329.303 392.112 329.303 389.928C329.303 387.744 329.003 386.196 328.403 385.284C327.827 384.372 326.771 383.916 325.235 383.916C323.699 383.916 322.631 384.372 322.031 385.284C321.455 386.196 321.167 387.744 321.167 389.928C321.167 392.112 321.443 393.684 321.995 394.644ZM345.071 406.74V381H348.959V382.116C350.615 381.108 352.163 380.604 353.603 380.604C355.979 380.604 357.719 381.336 358.823 382.8C359.927 384.24 360.479 386.676 360.479 390.108C360.479 393.516 359.843 395.916 358.571 397.308C357.323 398.7 355.271 399.396 352.415 399.396C351.431 399.396 350.291 399.288 348.995 399.072V406.74H345.071ZM352.919 384.096C351.791 384.096 350.663 384.348 349.535 384.852L348.995 385.104V395.724C349.955 395.916 351.011 396.012 352.163 396.012C353.795 396.012 354.923 395.544 355.547 394.608C356.171 393.672 356.483 392.076 356.483 389.82C356.483 386.004 355.295 384.096 352.919 384.096ZM364.407 399V381H368.295V383.16C370.335 381.84 372.375 380.988 374.415 380.604V384.528C372.351 384.936 370.587 385.464 369.123 386.112L368.331 386.436V399H364.407ZM378.246 382.944C379.494 381.384 381.558 380.604 384.438 380.604C387.318 380.604 389.37 381.384 390.594 382.944C391.842 384.504 392.466 386.844 392.466 389.964C392.466 393.084 391.866 395.436 390.666 397.02C389.466 398.604 387.39 399.396 384.438 399.396C381.486 399.396 379.41 398.604 378.21 397.02C377.01 395.436 376.41 393.084 376.41 389.964C376.41 386.844 377.022 384.504 378.246 382.944ZM381.198 394.644C381.75 395.604 382.83 396.084 384.438 396.084C386.046 396.084 387.126 395.604 387.678 394.644C388.23 393.684 388.506 392.112 388.506 389.928C388.506 387.744 388.206 386.196 387.606 385.284C387.03 384.372 385.974 383.916 384.438 383.916C382.902 383.916 381.834 384.372 381.234 385.284C380.658 386.196 380.37 387.744 380.37 389.928C380.37 392.112 380.646 393.684 381.198 394.644ZM411.052 373.512V399H407.164V398.064C405.412 398.952 403.804 399.396 402.34 399.396C399.988 399.396 398.26 398.688 397.156 397.272C396.076 395.856 395.536 393.48 395.536 390.144C395.536 386.808 396.136 384.384 397.336 382.872C398.56 381.36 400.456 380.604 403.024 380.604C403.888 380.604 405.256 380.76 407.128 381.072V373.512H411.052ZM406.516 395.256L407.128 395.004V384.348C405.688 384.108 404.356 383.988 403.132 383.988C400.708 383.988 399.496 386.004 399.496 390.036C399.496 392.244 399.772 393.78 400.324 394.644C400.9 395.484 401.8 395.904 403.024 395.904C404.248 395.904 405.412 395.688 406.516 395.256ZM426.714 381H430.602V399H426.714V397.884C424.962 398.892 423.342 399.396 421.854 399.396C419.382 399.396 417.726 398.736 416.886 397.416C416.046 396.072 415.626 393.732 415.626 390.396V381H419.55V390.432C419.55 392.592 419.73 394.044 420.09 394.788C420.45 395.532 421.29 395.904 422.61 395.904C423.906 395.904 425.094 395.664 426.174 395.184L426.714 394.968V381ZM442.085 380.604C443.357 380.604 444.857 380.772 446.585 381.108L447.485 381.288L447.341 384.384C445.445 384.192 444.041 384.096 443.129 384.096C441.305 384.096 440.081 384.504 439.457 385.32C438.833 386.136 438.521 387.672 438.521 389.928C438.521 392.184 438.821 393.744 439.421 394.608C440.021 395.472 441.269 395.904 443.165 395.904L447.377 395.616L447.485 398.748C445.061 399.18 443.237 399.396 442.013 399.396C439.277 399.396 437.345 398.664 436.217 397.2C435.113 395.712 434.561 393.288 434.561 389.928C434.561 386.568 435.149 384.18 436.325 382.764C437.501 381.324 439.421 380.604 442.085 380.604ZM460.962 384.348H455.994V392.268C455.994 393.732 456.102 394.704 456.318 395.184C456.534 395.664 457.086 395.904 457.974 395.904L460.926 395.796L461.106 398.928C459.498 399.24 458.274 399.396 457.434 399.396C455.394 399.396 453.99 398.928 453.222 397.992C452.478 397.056 452.106 395.292 452.106 392.7V384.348H449.802V381H452.106V375.78H455.994V381H460.962V384.348ZM476.015 399H472.091V381H475.979V382.116C477.683 381.108 479.243 380.604 480.659 380.604C482.747 380.604 484.271 381.192 485.231 382.368C487.415 381.192 489.587 380.604 491.747 380.604C493.907 380.604 495.431 381.276 496.319 382.62C497.207 383.94 497.651 386.184 497.651 389.352V399H493.763V389.46C493.763 387.516 493.559 386.136 493.151 385.32C492.767 384.504 491.951 384.096 490.703 384.096C489.623 384.096 488.459 384.336 487.211 384.816L486.599 385.068C486.791 385.548 486.887 387.084 486.887 389.676V399H482.999V389.748C482.999 387.612 482.807 386.136 482.423 385.32C482.039 384.504 481.199 384.096 479.903 384.096C478.703 384.096 477.587 384.336 476.555 384.816L476.015 385.032V399ZM515.575 386.544V394.752C515.599 395.28 515.731 395.676 515.971 395.94C516.235 396.18 516.631 396.336 517.159 396.408L517.051 399.396C514.987 399.396 513.391 398.952 512.263 398.064C510.343 398.952 508.411 399.396 506.467 399.396C502.891 399.396 501.103 397.488 501.103 393.672C501.103 391.848 501.583 390.528 502.543 389.712C503.527 388.896 505.027 388.404 507.043 388.236L511.687 387.84V386.544C511.687 385.584 511.471 384.912 511.039 384.528C510.631 384.144 510.019 383.952 509.203 383.952C507.667 383.952 505.747 384.048 503.443 384.24L502.291 384.312L502.147 381.54C504.763 380.916 507.163 380.604 509.347 380.604C511.555 380.604 513.139 381.084 514.099 382.044C515.083 382.98 515.575 384.48 515.575 386.544ZM507.511 391.008C505.855 391.152 505.027 392.052 505.027 393.708C505.027 395.364 505.759 396.192 507.223 396.192C508.423 396.192 509.695 396 511.039 395.616L511.687 395.4V390.612L507.511 391.008ZM530.185 384.348H525.217V392.268C525.217 393.732 525.325 394.704 525.541 395.184C525.757 395.664 526.309 395.904 527.197 395.904L530.149 395.796L530.329 398.928C528.721 399.24 527.497 399.396 526.657 399.396C524.617 399.396 523.213 398.928 522.445 397.992C521.701 397.056 521.329 395.292 521.329 392.7V384.348H519.025V381H521.329V375.78H525.217V381H530.185V384.348ZM540.135 380.604C541.407 380.604 542.907 380.772 544.635 381.108L545.535 381.288L545.391 384.384C543.495 384.192 542.091 384.096 541.179 384.096C539.355 384.096 538.131 384.504 537.507 385.32C536.883 386.136 536.571 387.672 536.571 389.928C536.571 392.184 536.871 393.744 537.471 394.608C538.071 395.472 539.319 395.904 541.215 395.904L545.427 395.616L545.535 398.748C543.111 399.18 541.287 399.396 540.063 399.396C537.327 399.396 535.395 398.664 534.267 397.2C533.163 395.712 532.611 393.288 532.611 389.928C532.611 386.568 533.199 384.18 534.375 382.764C535.551 381.324 537.471 380.604 540.135 380.604ZM553.253 399H549.329V373.512H553.253V381.936C555.029 381.048 556.673 380.604 558.185 380.604C560.585 380.604 562.217 381.288 563.081 382.656C563.969 384 564.413 386.232 564.413 389.352V399H560.489V389.46C560.489 387.516 560.285 386.136 559.877 385.32C559.469 384.504 558.605 384.096 557.285 384.096C556.133 384.096 554.981 384.288 553.829 384.672L553.253 384.888V399ZM575.236 381H579.088L582.904 395.652H583.876L587.692 381H591.58L584.74 406.74H580.888L583.048 399H579.952L575.236 381ZM595.266 382.944C596.514 381.384 598.578 380.604 601.458 380.604C604.338 380.604 606.39 381.384 607.614 382.944C608.862 384.504 609.486 386.844 609.486 389.964C609.486 393.084 608.886 395.436 607.686 397.02C606.486 398.604 604.41 399.396 601.458 399.396C598.506 399.396 596.43 398.604 595.23 397.02C594.03 395.436 593.43 393.084 593.43 389.964C593.43 386.844 594.042 384.504 595.266 382.944ZM598.218 394.644C598.77 395.604 599.85 396.084 601.458 396.084C603.066 396.084 604.146 395.604 604.698 394.644C605.25 393.684 605.526 392.112 605.526 389.928C605.526 387.744 605.226 386.196 604.626 385.284C604.05 384.372 602.994 383.916 601.458 383.916C599.922 383.916 598.854 384.372 598.254 385.284C597.678 386.196 597.39 387.744 597.39 389.928C597.39 392.112 597.666 393.684 598.218 394.644ZM624.292 381H628.18V399H624.292V397.884C622.54 398.892 620.92 399.396 619.432 399.396C616.96 399.396 615.304 398.736 614.464 397.416C613.624 396.072 613.204 393.732 613.204 390.396V381H617.128V390.432C617.128 392.592 617.308 394.044 617.668 394.788C618.028 395.532 618.868 395.904 620.188 395.904C621.484 395.904 622.672 395.664 623.752 395.184L624.292 394.968V381ZM632.931 399V381H636.819V383.16C638.859 381.84 640.899 380.988 642.939 380.604V384.528C640.875 384.936 639.111 385.464 637.647 386.112L636.855 386.436V399H632.931ZM658.565 384.348V399H654.677V384.348H652.589V381H654.677V379.848C654.677 377.28 655.049 375.516 655.793 374.556C656.537 373.596 657.857 373.116 659.753 373.116L663.641 373.476L663.605 376.68C662.429 376.632 661.445 376.608 660.653 376.608C659.885 376.608 659.345 376.848 659.033 377.328C658.721 377.784 658.565 378.636 658.565 379.884V381H663.317V384.348H658.565ZM666.294 399V381H670.218V399H666.294ZM666.294 377.94V373.8H670.218V377.94H666.294ZM675.194 399V373.512H679.118V399H675.194ZM693.767 384.348H688.799V392.268C688.799 393.732 688.907 394.704 689.123 395.184C689.339 395.664 689.891 395.904 690.779 395.904L693.731 395.796L693.911 398.928C692.303 399.24 691.079 399.396 690.239 399.396C688.199 399.396 686.795 398.928 686.027 397.992C685.283 397.056 684.911 395.292 684.911 392.7V384.348H682.607V381H684.911V375.78H688.799V381H693.767V384.348ZM709.801 395.76L710.809 395.652L710.881 398.568C708.145 399.12 705.721 399.396 703.609 399.396C700.945 399.396 699.025 398.664 697.849 397.2C696.697 395.736 696.121 393.396 696.121 390.18C696.121 383.796 698.725 380.604 703.933 380.604C708.973 380.604 711.493 383.352 711.493 388.848L711.241 391.656H700.081C700.105 393.144 700.429 394.236 701.053 394.932C701.677 395.628 702.841 395.976 704.545 395.976C706.249 395.976 708.001 395.904 709.801 395.76ZM707.641 388.632C707.641 386.856 707.353 385.62 706.777 384.924C706.225 384.204 705.277 383.844 703.933 383.844C702.589 383.844 701.605 384.216 700.981 384.96C700.381 385.704 700.069 386.928 700.045 388.632H707.641ZM715.267 399V381H719.155V383.16C721.195 381.84 723.235 380.988 725.275 380.604V384.528C723.211 384.936 721.447 385.464 719.983 386.112L719.191 386.436V399H715.267ZM740.766 384.708C737.934 384.324 735.882 384.132 734.61 384.132C733.338 384.132 732.45 384.288 731.946 384.6C731.466 384.888 731.226 385.356 731.226 386.004C731.226 386.652 731.49 387.108 732.018 387.372C732.57 387.636 733.842 387.948 735.834 388.308C737.85 388.644 739.278 389.184 740.118 389.928C740.958 390.672 741.378 391.992 741.378 393.888C741.378 395.784 740.766 397.176 739.542 398.064C738.342 398.952 736.578 399.396 734.25 399.396C732.786 399.396 730.938 399.192 728.706 398.784L727.59 398.604L727.734 395.328C730.614 395.712 732.69 395.904 733.962 395.904C735.234 395.904 736.134 395.748 736.662 395.436C737.214 395.124 737.49 394.608 737.49 393.888C737.49 393.168 737.226 392.676 736.698 392.412C736.194 392.124 734.958 391.824 732.99 391.512C731.046 391.176 729.618 390.66 728.706 389.964C727.794 389.268 727.338 387.996 727.338 386.148C727.338 384.3 727.962 382.92 729.21 382.008C730.482 381.096 732.102 380.64 734.07 380.64C735.606 380.64 737.49 380.832 739.722 381.216L740.838 381.432L740.766 384.708Z" fill="#A4A4A4"/>
<path d="M347.38 426.032V424.928H355.38V426.032H352.004V436H350.788V426.032H347.38ZM355.371 436V428H356.555V429.088C357.483 428.448 358.459 428.027 359.483 427.824V429.04C359.035 429.125 358.565 429.259 358.075 429.44C357.595 429.621 357.227 429.781 356.971 429.92L356.571 430.128V436H355.371ZM360.15 428H361.35L363.35 434.96H363.878L365.894 428H367.094L363.766 439.552H362.566L363.606 436H362.422L360.15 428ZM375.688 427.84C376.765 427.84 377.517 428.149 377.944 428.768C378.381 429.376 378.6 430.448 378.6 431.984C378.6 433.52 378.328 434.603 377.784 435.232C377.251 435.851 376.264 436.16 374.824 436.16C374.376 436.16 373.635 436.117 372.6 436.032L372.152 435.984V424.512H373.336V428.4C374.147 428.027 374.931 427.84 375.688 427.84ZM374.808 435.088C375.853 435.088 376.541 434.853 376.872 434.384C377.213 433.904 377.384 433.099 377.384 431.968C377.384 430.837 377.251 430.048 376.984 429.6C376.717 429.141 376.243 428.912 375.56 428.912C374.941 428.912 374.307 429.029 373.656 429.264L373.336 429.376V435.008C374.029 435.061 374.52 435.088 374.808 435.088ZM380.574 436V428H381.758V429.088C382.686 428.448 383.662 428.027 384.686 427.824V429.04C384.238 429.125 383.769 429.259 383.278 429.44C382.798 429.621 382.43 429.781 382.174 429.92L381.774 430.128V436H380.574ZM385.597 431.984C385.597 430.523 385.858 429.467 386.381 428.816C386.904 428.165 387.784 427.84 389.021 427.84C390.269 427.84 391.149 428.165 391.661 428.816C392.184 429.467 392.445 430.523 392.445 431.984C392.445 433.445 392.2 434.507 391.709 435.168C391.218 435.829 390.322 436.16 389.021 436.16C387.72 436.16 386.824 435.829 386.333 435.168C385.842 434.507 385.597 433.445 385.597 431.984ZM386.829 431.968C386.829 433.131 386.968 433.947 387.245 434.416C387.533 434.885 388.125 435.12 389.021 435.12C389.928 435.12 390.52 434.891 390.797 434.432C391.074 433.963 391.213 433.141 391.213 431.968C391.213 430.795 391.058 429.989 390.749 429.552C390.44 429.104 389.864 428.88 389.021 428.88C388.189 428.88 387.613 429.104 387.293 429.552C386.984 429.989 386.829 430.795 386.829 431.968ZM400.05 430.416V434.512C400.082 434.907 400.391 435.141 400.978 435.216L400.93 436.16C400.087 436.16 399.453 435.947 399.026 435.52C398.066 435.947 397.106 436.16 396.146 436.16C395.41 436.16 394.85 435.952 394.466 435.536C394.082 435.12 393.89 434.523 393.89 433.744C393.89 432.965 394.087 432.395 394.482 432.032C394.877 431.659 395.495 431.429 396.338 431.344L398.85 431.104V430.416C398.85 429.872 398.733 429.483 398.498 429.248C398.263 429.013 397.943 428.896 397.538 428.896C396.685 428.896 395.799 428.949 394.882 429.056L394.386 429.104L394.338 428.192C395.511 427.957 396.551 427.84 397.458 427.84C398.365 427.84 399.021 428.048 399.426 428.464C399.842 428.88 400.05 429.531 400.05 430.416ZM395.122 433.68C395.122 434.661 395.527 435.152 396.338 435.152C397.063 435.152 397.778 435.029 398.482 434.784L398.85 434.656V432.016L396.482 432.24C396.002 432.283 395.655 432.421 395.442 432.656C395.229 432.891 395.122 433.232 395.122 433.68ZM408.562 424.512V436H407.378V435.456C406.556 435.925 405.746 436.16 404.946 436.16C404.519 436.16 404.146 436.107 403.826 436C403.506 435.893 403.207 435.701 402.93 435.424C402.354 434.848 402.066 433.787 402.066 432.24C402.066 430.683 402.322 429.563 402.834 428.88C403.356 428.187 404.215 427.84 405.41 427.84C406.028 427.84 406.684 427.909 407.378 428.048V424.512H408.562ZM403.858 434.56C404.028 434.763 404.21 434.901 404.402 434.976C404.594 435.051 404.839 435.088 405.138 435.088C405.447 435.088 405.788 435.04 406.162 434.944C406.546 434.837 406.844 434.736 407.058 434.64L407.378 434.496V429.072C406.695 428.944 406.06 428.88 405.474 428.88C404.663 428.88 404.098 429.141 403.778 429.664C403.458 430.176 403.298 430.976 403.298 432.064C403.298 433.301 403.484 434.133 403.858 434.56ZM416.326 435.008L416.79 434.96L416.822 435.904C415.606 436.075 414.566 436.16 413.702 436.16C412.55 436.16 411.734 435.829 411.254 435.168C410.774 434.496 410.534 433.456 410.534 432.048C410.534 429.243 411.649 427.84 413.878 427.84C414.956 427.84 415.761 428.144 416.294 428.752C416.828 429.349 417.094 430.293 417.094 431.584L417.03 432.496H411.75C411.75 433.381 411.91 434.037 412.23 434.464C412.55 434.891 413.105 435.104 413.894 435.104C414.694 435.104 415.505 435.072 416.326 435.008ZM415.894 431.536C415.894 430.555 415.734 429.861 415.414 429.456C415.105 429.051 414.593 428.848 413.878 428.848C413.174 428.848 412.641 429.061 412.278 429.488C411.926 429.915 411.745 430.597 411.734 431.536H415.894ZM420.164 436H418.965V428H420.149V428.56C421.013 428.08 421.839 427.84 422.629 427.84C423.695 427.84 424.41 428.128 424.773 428.704C425.146 429.28 425.333 430.304 425.333 431.776V436H424.149V431.808C424.149 430.699 424.037 429.941 423.813 429.536C423.599 429.12 423.135 428.912 422.421 428.912C422.079 428.912 421.717 428.965 421.333 429.072C420.959 429.168 420.671 429.264 420.469 429.36L420.164 429.504V436ZM427.558 436V428H428.758V436H427.558ZM427.558 426.192V424.8H428.758V426.192H427.558ZM432.258 436H431.058V428H432.242V428.56C433.106 428.08 433.933 427.84 434.722 427.84C435.789 427.84 436.504 428.128 436.866 428.704C437.24 429.28 437.426 430.304 437.426 431.776V436H436.242V431.808C436.242 430.699 436.13 429.941 435.906 429.536C435.693 429.12 435.229 428.912 434.514 428.912C434.173 428.912 433.81 428.965 433.426 429.072C433.053 429.168 432.765 429.264 432.562 429.36L432.258 429.504V436ZM442.74 439.76C441.46 439.76 440.564 439.584 440.052 439.232C439.551 438.891 439.3 438.261 439.3 437.344C439.3 436.907 439.396 436.549 439.588 436.272C439.78 436.005 440.105 435.701 440.564 435.36C440.265 435.157 440.116 434.789 440.116 434.256C440.116 434.075 440.249 433.739 440.516 433.248L440.66 432.992C439.817 432.608 439.396 431.803 439.396 430.576C439.396 428.752 440.393 427.84 442.388 427.84C442.9 427.84 443.375 427.893 443.812 428L444.052 428.048L446.42 427.984V429.008L444.9 428.976C445.252 429.328 445.428 429.861 445.428 430.576C445.428 431.579 445.177 432.283 444.676 432.688C444.185 433.083 443.407 433.28 442.34 433.28C442.052 433.28 441.791 433.259 441.556 433.216C441.364 433.685 441.268 433.989 441.268 434.128C441.268 434.459 441.369 434.667 441.572 434.752C441.775 434.827 442.388 434.864 443.412 434.864C444.436 434.864 445.172 435.024 445.62 435.344C446.068 435.664 446.292 436.288 446.292 437.216C446.292 438.912 445.108 439.76 442.74 439.76ZM440.484 437.248C440.484 437.813 440.639 438.203 440.948 438.416C441.268 438.64 441.849 438.752 442.692 438.752C443.545 438.752 444.153 438.635 444.516 438.4C444.889 438.165 445.076 437.771 445.076 437.216C445.076 436.672 444.943 436.32 444.676 436.16C444.409 436 443.887 435.92 443.108 435.92L441.38 435.84C441.028 436.096 440.788 436.32 440.66 436.512C440.543 436.704 440.484 436.949 440.484 437.248ZM440.596 430.576C440.596 431.205 440.735 431.653 441.012 431.92C441.3 432.187 441.769 432.32 442.42 432.32C443.071 432.32 443.535 432.187 443.812 431.92C444.089 431.653 444.228 431.205 444.228 430.576C444.228 429.936 444.089 429.483 443.812 429.216C443.535 428.949 443.071 428.816 442.42 428.816C441.769 428.816 441.3 428.955 441.012 429.232C440.735 429.499 440.596 429.947 440.596 430.576ZM450.634 428H451.834L453.834 434.96H454.362L456.378 428H457.578L454.25 439.552H453.05L454.09 436H452.906L450.634 428ZM458.628 431.984C458.628 430.523 458.889 429.467 459.412 428.816C459.935 428.165 460.815 427.84 462.052 427.84C463.3 427.84 464.18 428.165 464.692 428.816C465.215 429.467 465.476 430.523 465.476 431.984C465.476 433.445 465.231 434.507 464.74 435.168C464.249 435.829 463.353 436.16 462.052 436.16C460.751 436.16 459.855 435.829 459.364 435.168C458.873 434.507 458.628 433.445 458.628 431.984ZM459.86 431.968C459.86 433.131 459.999 433.947 460.276 434.416C460.564 434.885 461.156 435.12 462.052 435.12C462.959 435.12 463.551 434.891 463.828 434.432C464.105 433.963 464.244 433.141 464.244 431.968C464.244 430.795 464.089 429.989 463.78 429.552C463.471 429.104 462.895 428.88 462.052 428.88C461.22 428.88 460.644 429.104 460.324 429.552C460.015 429.989 459.86 430.795 459.86 431.968ZM472.425 428H473.625V436H472.425V435.44C471.625 435.92 470.836 436.16 470.057 436.16C468.969 436.16 468.244 435.877 467.881 435.312C467.529 434.747 467.353 433.701 467.353 432.176V428H468.553V432.16C468.553 433.323 468.655 434.101 468.857 434.496C469.06 434.891 469.519 435.088 470.233 435.088C470.585 435.088 470.943 435.04 471.305 434.944C471.668 434.837 471.945 434.736 472.137 434.64L472.425 434.496V428ZM475.933 436V428H477.117V429.088C478.045 428.448 479.021 428.027 480.045 427.824V429.04C479.597 429.125 479.128 429.259 478.637 429.44C478.157 429.621 477.789 429.781 477.533 429.92L477.133 430.128V436H475.933ZM486.516 429.04V436H485.316V429.04H484.308V428H485.316V427.28C485.316 426.149 485.476 425.381 485.796 424.976C486.116 424.56 486.676 424.352 487.476 424.352L489.092 424.464L489.076 425.456C488.479 425.435 487.983 425.424 487.588 425.424C487.204 425.424 486.927 425.552 486.756 425.808C486.596 426.064 486.516 426.56 486.516 427.296V428H488.836V429.04H486.516ZM490.277 436V428H491.477V436H490.277ZM490.277 426.192V424.8H491.477V426.192H490.277ZM493.873 436V424.512H495.073V436H493.873ZM501.624 429.04H499.08V432.864C499.08 433.781 499.144 434.384 499.272 434.672C499.411 434.96 499.731 435.104 500.232 435.104L501.656 435.008L501.736 436C501.021 436.117 500.477 436.176 500.104 436.176C499.272 436.176 498.696 435.973 498.376 435.568C498.056 435.163 497.896 434.389 497.896 433.248V429.04H496.76V428H497.896V425.552H499.08V428H501.624V429.04ZM508.53 435.008L508.994 434.96L509.026 435.904C507.81 436.075 506.77 436.16 505.906 436.16C504.754 436.16 503.938 435.829 503.458 435.168C502.978 434.496 502.738 433.456 502.738 432.048C502.738 429.243 503.852 427.84 506.082 427.84C507.159 427.84 507.964 428.144 508.498 428.752C509.031 429.349 509.298 430.293 509.298 431.584L509.234 432.496H503.954C503.954 433.381 504.114 434.037 504.434 434.464C504.754 434.891 505.308 435.104 506.098 435.104C506.898 435.104 507.708 435.072 508.53 435.008ZM508.098 431.536C508.098 430.555 507.938 429.861 507.618 429.456C507.308 429.051 506.796 428.848 506.082 428.848C505.378 428.848 504.844 429.061 504.482 429.488C504.13 429.915 503.948 430.597 503.938 431.536H508.098ZM511.168 436V428H512.352V429.088C513.28 428.448 514.256 428.027 515.28 427.824V429.04C514.832 429.125 514.362 429.259 513.872 429.44C513.392 429.621 513.024 429.781 512.768 429.92L512.368 430.128V436H511.168ZM519.211 428.912C518.048 428.912 517.467 429.317 517.467 430.128C517.467 430.501 517.6 430.768 517.867 430.928C518.134 431.077 518.742 431.237 519.691 431.408C520.64 431.568 521.312 431.797 521.707 432.096C522.102 432.395 522.299 432.955 522.299 433.776C522.299 434.597 522.032 435.2 521.499 435.584C520.976 435.968 520.208 436.16 519.195 436.16C518.534 436.16 517.755 436.085 516.859 435.936L516.379 435.856L516.443 434.816C517.659 434.997 518.576 435.088 519.195 435.088C519.814 435.088 520.283 434.992 520.603 434.8C520.934 434.597 521.099 434.267 521.099 433.808C521.099 433.339 520.96 433.024 520.683 432.864C520.406 432.693 519.798 432.533 518.859 432.384C517.92 432.235 517.254 432.016 516.859 431.728C516.464 431.44 516.267 430.907 516.267 430.128C516.267 429.349 516.539 428.773 517.083 428.4C517.638 428.027 518.326 427.84 519.147 427.84C519.798 427.84 520.614 427.915 521.595 428.064L522.043 428.144L522.011 429.168C520.827 428.997 519.894 428.912 519.211 428.912ZM527.3 431.984C527.3 430.523 527.561 429.467 528.084 428.816C528.607 428.165 529.487 427.84 530.724 427.84C531.972 427.84 532.852 428.165 533.364 428.816C533.887 429.467 534.148 430.523 534.148 431.984C534.148 433.445 533.903 434.507 533.412 435.168C532.921 435.829 532.025 436.16 530.724 436.16C529.423 436.16 528.527 435.829 528.036 435.168C527.545 434.507 527.3 433.445 527.3 431.984ZM528.532 431.968C528.532 433.131 528.671 433.947 528.948 434.416C529.236 434.885 529.828 435.12 530.724 435.12C531.631 435.12 532.223 434.891 532.5 434.432C532.777 433.963 532.916 433.141 532.916 431.968C532.916 430.795 532.761 429.989 532.452 429.552C532.143 429.104 531.567 428.88 530.724 428.88C529.892 428.88 529.316 429.104 528.996 429.552C528.687 429.989 528.532 430.795 528.532 431.968ZM536.105 436V428H537.289V429.088C538.217 428.448 539.193 428.027 540.217 427.824V429.04C539.769 429.125 539.3 429.259 538.809 429.44C538.329 429.621 537.961 429.781 537.705 429.92L537.305 430.128V436H536.105ZM547.664 428.912C546.501 428.912 545.92 429.317 545.92 430.128C545.92 430.501 546.053 430.768 546.32 430.928C546.587 431.077 547.195 431.237 548.144 431.408C549.093 431.568 549.765 431.797 550.16 432.096C550.555 432.395 550.752 432.955 550.752 433.776C550.752 434.597 550.485 435.2 549.952 435.584C549.429 435.968 548.661 436.16 547.648 436.16C546.987 436.16 546.208 436.085 545.312 435.936L544.832 435.856L544.896 434.816C546.112 434.997 547.029 435.088 547.648 435.088C548.267 435.088 548.736 434.992 549.056 434.8C549.387 434.597 549.552 434.267 549.552 433.808C549.552 433.339 549.413 433.024 549.136 432.864C548.859 432.693 548.251 432.533 547.312 432.384C546.373 432.235 545.707 432.016 545.312 431.728C544.917 431.44 544.72 430.907 544.72 430.128C544.72 429.349 544.992 428.773 545.536 428.4C546.091 428.027 546.779 427.84 547.6 427.84C548.251 427.84 549.067 427.915 550.048 428.064L550.496 428.144L550.464 429.168C549.28 428.997 548.347 428.912 547.664 428.912ZM558.03 435.008L558.494 434.96L558.526 435.904C557.31 436.075 556.27 436.16 555.406 436.16C554.254 436.16 553.438 435.829 552.958 435.168C552.478 434.496 552.238 433.456 552.238 432.048C552.238 429.243 553.352 427.84 555.582 427.84C556.659 427.84 557.464 428.144 557.998 428.752C558.531 429.349 558.798 430.293 558.798 431.584L558.734 432.496H553.454C553.454 433.381 553.614 434.037 553.934 434.464C554.254 434.891 554.808 435.104 555.598 435.104C556.398 435.104 557.208 435.072 558.03 435.008ZM557.598 431.536C557.598 430.555 557.438 429.861 557.118 429.456C556.808 429.051 556.296 428.848 555.582 428.848C554.878 428.848 554.344 429.061 553.982 429.488C553.63 429.915 553.448 430.597 553.438 431.536H557.598ZM566.316 430.416V434.512C566.348 434.907 566.657 435.141 567.244 435.216L567.196 436.16C566.353 436.16 565.718 435.947 565.292 435.52C564.332 435.947 563.372 436.16 562.412 436.16C561.676 436.16 561.116 435.952 560.732 435.536C560.348 435.12 560.156 434.523 560.156 433.744C560.156 432.965 560.353 432.395 560.748 432.032C561.142 431.659 561.761 431.429 562.604 431.344L565.116 431.104V430.416C565.116 429.872 564.998 429.483 564.764 429.248C564.529 429.013 564.209 428.896 563.804 428.896C562.95 428.896 562.065 428.949 561.148 429.056L560.652 429.104L560.604 428.192C561.777 427.957 562.817 427.84 563.724 427.84C564.63 427.84 565.286 428.048 565.692 428.464C566.108 428.88 566.316 429.531 566.316 430.416ZM561.388 433.68C561.388 434.661 561.793 435.152 562.604 435.152C563.329 435.152 564.044 435.029 564.748 434.784L565.116 434.656V432.016L562.748 432.24C562.268 432.283 561.921 432.421 561.708 432.656C561.494 432.891 561.388 433.232 561.388 433.68ZM568.683 436V428H569.867V429.088C570.795 428.448 571.771 428.027 572.795 427.824V429.04C572.347 429.125 571.878 429.259 571.387 429.44C570.907 429.621 570.539 429.781 570.283 429.92L569.883 430.128V436H568.683ZM577.05 427.84C577.402 427.84 578 427.904 578.842 428.032L579.226 428.08L579.178 429.056C578.325 428.96 577.696 428.912 577.29 428.912C576.384 428.912 575.765 429.131 575.434 429.568C575.114 429.995 574.954 430.795 574.954 431.968C574.954 433.131 575.104 433.941 575.402 434.4C575.712 434.859 576.346 435.088 577.306 435.088L579.194 434.944L579.242 435.936C578.25 436.085 577.509 436.16 577.018 436.16C575.77 436.16 574.906 435.84 574.426 435.2C573.957 434.56 573.722 433.483 573.722 431.968C573.722 430.443 573.978 429.376 574.49 428.768C575.002 428.149 575.856 427.84 577.05 427.84ZM582.227 436H581.027V424.512H582.227V428.448C583.08 428.043 583.902 427.84 584.691 427.84C585.758 427.84 586.472 428.128 586.835 428.704C587.208 429.28 587.395 430.304 587.395 431.776V436H586.195V431.808C586.195 430.699 586.083 429.941 585.859 429.536C585.646 429.12 585.187 428.912 584.483 428.912C583.811 428.912 583.16 429.035 582.531 429.28L582.227 429.392V436ZM596.672 427.84C597.75 427.84 598.502 428.149 598.928 428.768C599.366 429.376 599.584 430.448 599.584 431.984C599.584 433.52 599.312 434.603 598.768 435.232C598.235 435.851 597.248 436.16 595.808 436.16C595.36 436.16 594.619 436.117 593.584 436.032L593.136 435.984V424.512H594.32V428.4C595.131 428.027 595.915 427.84 596.672 427.84ZM595.792 435.088C596.838 435.088 597.526 434.853 597.856 434.384C598.198 433.904 598.368 433.099 598.368 431.968C598.368 430.837 598.235 430.048 597.968 429.6C597.702 429.141 597.227 428.912 596.544 428.912C595.926 428.912 595.291 429.029 594.64 429.264L594.32 429.376V435.008C595.014 435.061 595.504 435.088 595.792 435.088ZM600.666 428H601.866L603.866 434.96H604.394L606.41 428H607.61L604.282 439.552H603.082L604.122 436H602.938L600.666 428ZM616.924 432.272H614.108V436H612.876V424.928H616.924C618.129 424.928 619.02 425.221 619.596 425.808C620.172 426.395 620.46 427.291 620.46 428.496C620.46 431.013 619.281 432.272 616.924 432.272ZM614.108 431.184H616.908C618.433 431.184 619.196 430.288 619.196 428.496C619.196 427.643 619.014 427.019 618.652 426.624C618.289 426.219 617.708 426.016 616.908 426.016H614.108V431.184ZM626.312 436H622.36V424.928H626.312C628.115 424.928 629.309 425.643 629.896 427.072C630.237 427.893 630.408 428.971 630.408 430.304C630.408 433.088 629.715 434.843 628.328 435.568C627.773 435.856 627.101 436 626.312 436ZM629.144 430.304C629.144 428.181 628.669 426.859 627.72 426.336C627.336 426.123 626.867 426.016 626.312 426.016H623.592V434.912H626.312C628.2 434.912 629.144 433.376 629.144 430.304ZM636.188 436V424.928H637.42V436H636.188ZM644.078 436H640.126V424.928H644.078C645.88 424.928 647.075 425.643 647.662 427.072C648.003 427.893 648.174 428.971 648.174 430.304C648.174 433.088 647.48 434.843 646.094 435.568C645.539 435.856 644.867 436 644.078 436ZM646.91 430.304C646.91 428.181 646.435 426.859 645.486 426.336C645.102 426.123 644.632 426.016 644.078 426.016H641.358V434.912H644.078C645.966 434.912 646.91 433.376 646.91 430.304ZM649.496 435.84L654.008 424.672L655.08 425.072L650.568 436.224L649.496 435.84ZM660.454 436V424.928H661.686V436H660.454ZM663.415 436L666.455 424.928H669.143L672.183 436H670.967L670.167 433.152H665.431L664.631 436H663.415ZM667.383 425.984L665.703 432.048H669.895L668.215 425.984H667.383ZM673.923 436V424.928H676.227L680.467 434.912H680.803V424.928H682.019V436H679.763L675.459 426.016H675.155V436H673.923ZM684.447 436V434.176H685.759V436H684.447Z" fill="#A4A4A4"/>
</svg>
