<svg xmlns="http://www.w3.org/2000/svg" width="20" height="20" viewBox="2 2 20 20">
    <defs>
        <linearGradient id="grad1" x1="0%" y1="0%" x2="0%" y2="100%">
        <stop offset="0%" style="stop-color:#26C1C9;stop-opacity:1" />
        <stop offset="100%" style="stop-color:#0892D0;stop-opacity:1" />
        </linearGradient>
    </defs>
    <g fill="none" fill-rule="evenodd">
        <path d="M0 0h24v24H0z"/>
        <path fill="url(#grad1)" d="M8.555 19h6.89c-.693 1.19-1.968 2-3.445 2-1.476 0-2.752-.81-3.445-2zM21 18H3v-2.721l.684-.227A3.385 3.385 0 0 0 6 11.838V9c0-3.309 2.692-6 6-6 3.309 0 6 2.691 6 6v2.838c0 1.46.932 2.751 2.317 3.214l.683.227V18zM6.035 16h11.93A5.376 5.376 0 0 1 16 11.838V9c0-2.206-1.794-4-4-4-2.205 0-4 1.794-4 4v2.838c0 1.648-.745 3.16-1.965 4.162z"/>
    </g>
</svg>

