<svg width="20" height="24" viewBox="0 0 20 24" fill="none" xmlns="http://www.w3.org/2000/svg">
<path d="M4.60395 6.33334H14.9492C15.0471 6.34694 15.1468 6.33969 15.2416 6.31208C15.3364 6.28448 15.424 6.23716 15.4986 6.17333C15.5733 6.1095 15.6331 6.03064 15.6741 5.94208C15.7151 5.85353 15.7363 5.75733 15.7363 5.66001C15.7363 5.56269 15.7151 5.4665 15.6741 5.37794C15.6331 5.28938 15.5733 5.21052 15.4986 5.14669C15.424 5.08286 15.3364 5.03554 15.2416 5.00794C15.1468 4.98033 15.0471 4.97308 14.9492 4.98668H4.60395C4.50608 4.97308 4.40638 4.98033 4.3116 5.00794C4.21682 5.03554 4.12916 5.08286 4.05455 5.14669C3.97994 5.21052 3.92011 5.28938 3.87911 5.37794C3.83811 5.4665 3.81689 5.56269 3.81689 5.66001C3.81689 5.75733 3.83811 5.85353 3.87911 5.94208C3.92011 6.03064 3.97994 6.1095 4.05455 6.17333C4.12916 6.23716 4.21682 6.28448 4.3116 6.31208C4.40638 6.33969 4.50608 6.34694 4.60395 6.33334Z" fill="#2D9CDB"/>
<path d="M4.60395 9.73335H14.9492C15.1324 9.73335 15.3081 9.66171 15.4376 9.53418C15.5671 9.40666 15.6398 9.2337 15.6398 9.05335C15.6398 8.873 15.5671 8.70004 15.4376 8.57252C15.3081 8.44499 15.1324 8.37335 14.9492 8.37335H4.60395C4.42079 8.37335 4.24514 8.44499 4.11563 8.57252C3.98612 8.70004 3.91336 8.873 3.91336 9.05335C3.91336 9.2337 3.98612 9.40666 4.11563 9.53418C4.24514 9.66171 4.42079 9.73335 4.60395 9.73335Z" fill="#2D9CDB"/>
<path d="M4.60395 13.1333H9.31621C9.49936 13.1333 9.67501 13.0617 9.80452 12.9342C9.93404 12.8066 10.0068 12.6337 10.0068 12.4533C10.0068 12.273 9.93404 12.1 9.80452 11.9725C9.67501 11.845 9.49936 11.7733 9.31621 11.7733H4.60395C4.42079 11.7733 4.24514 11.845 4.11563 11.9725C3.98612 12.1 3.91336 12.273 3.91336 12.4533C3.91336 12.6337 3.98612 12.8066 4.11563 12.9342C4.24514 13.0617 4.42079 13.1333 4.60395 13.1333Z" fill="#2D9CDB"/>
<path d="M13.4326 18.7733C13.3662 18.8318 13.3136 18.9038 13.2785 18.9845C13.2434 19.0651 13.2267 19.1523 13.2295 19.24C13.2256 19.3298 13.2418 19.4193 13.2769 19.5022C13.312 19.5852 13.3651 19.6595 13.4326 19.72C13.4957 19.7844 13.5714 19.8354 13.6553 19.8698C13.7391 19.9042 13.8293 19.9213 13.9201 19.92C14.0091 19.9228 14.0977 19.9063 14.1796 19.8718C14.2615 19.8372 14.3347 19.7854 14.394 19.72C14.464 19.6608 14.5197 19.587 14.5572 19.504C14.5947 19.421 14.6129 19.3308 14.6107 19.24C14.6139 19.151 14.5959 19.0625 14.5583 18.9815C14.5207 18.9005 14.4645 18.8292 14.394 18.7733C14.2652 18.6503 14.0928 18.5815 13.9133 18.5815C13.7339 18.5815 13.5615 18.6503 13.4326 18.7733Z" fill="#2D9CDB"/>
<path d="M2.99237 23.9998H17.0208C17.4143 24.0016 17.8042 23.9266 18.1681 23.7791C18.532 23.6317 18.8626 23.4147 19.1409 23.1407C19.4191 22.8667 19.6395 22.5412 19.7892 22.1829C19.939 21.8246 20.0151 21.4406 20.0134 21.0532V2.94648C20.0151 2.55903 19.939 2.17506 19.7892 1.81676C19.6395 1.45845 19.4191 1.13292 19.1409 0.85894C18.8626 0.584964 18.532 0.367982 18.1681 0.220523C17.8042 0.0730643 17.4143 -0.00194838 17.0208 -0.000183179H2.99237C2.59888 -0.00194838 2.20893 0.0730643 1.84505 0.220523C1.48117 0.367982 1.15056 0.584964 0.872319 0.85894C0.594077 1.13292 0.373715 1.45845 0.22396 1.81676C0.0742054 2.17506 -0.00197539 2.55903 -0.000182705 2.94648V21.0532C-0.00197539 21.4406 0.0742054 21.8246 0.22396 22.1829C0.373715 22.5412 0.594077 22.8667 0.872319 23.1407C1.15056 23.4147 1.48117 23.6317 1.84505 23.7791C2.20893 23.9266 2.59888 24.0016 2.99237 23.9998ZM1.381 2.94648C1.381 2.52567 1.55076 2.1221 1.85296 1.82454C2.15515 1.52698 2.56501 1.35982 2.99237 1.35982H17.0208C17.2324 1.35982 17.4419 1.40086 17.6374 1.48059C17.833 1.56033 18.0106 1.67721 18.1602 1.82454C18.3098 1.97188 18.4285 2.14679 18.5095 2.33929C18.5905 2.5318 18.6322 2.73812 18.6322 2.94648V21.0532C18.6322 21.2615 18.5905 21.4678 18.5095 21.6603C18.4285 21.8528 18.3098 22.0278 18.1602 22.1751C18.0106 22.3224 17.833 22.4393 17.6374 22.519C17.4419 22.5988 17.2324 22.6398 17.0208 22.6398H2.99237C2.56501 22.6398 2.15515 22.4727 1.85296 22.1751C1.55076 21.8775 1.381 21.474 1.381 21.0532V2.94648Z" fill="#2D9CDB"/>
</svg>
