<svg xmlns="http://www.w3.org/2000/svg" width="166" height="177" viewBox="0 0 166 177">
    <g fill="none" fill-rule="evenodd">
        <g transform="translate(9)">
            <rect width="115" height="173" x="1.5" y="2.39" fill="#F0F0F0" fill-rule="nonzero" rx="10"/>
            <path fill="#DDD" d="M13.5 133h37a1.5 1.5 0 0 1 0 3h-37a1.5 1.5 0 0 1 0-3zm0 7h37a1.5 1.5 0 0 1 0 3h-37a1.5 1.5 0 0 1 0-3zm0 7h37a1.5 1.5 0 0 1 0 3h-37a1.5 1.5 0 0 1 0-3zm0 7h17a1.5 1.5 0 0 1 0 3h-17a1.5 1.5 0 0 1 0-3zM65.5 133h37a1.5 1.5 0 0 1 0 3h-37a1.5 1.5 0 0 1 0-3zm0 7h37a1.5 1.5 0 0 1 0 3h-37a1.5 1.5 0 0 1 0-3zm0 7h37a1.5 1.5 0 0 1 0 3h-37a1.5 1.5 0 0 1 0-3zm0 7h23a1.5 1.5 0 0 1 0 3h-23a1.5 1.5 0 0 1 0-3z"/>
            <path fill="#444" fill-rule="nonzero" d="M106.5 176.89h-95c-6.349-.006-11.494-5.151-11.5-11.5v-153C.006 6.041 5.151.896 11.5.89h95c6.349.006 11.494 5.151 11.5 11.5v153c-.006 6.349-5.151 11.494-11.5 11.5zm-95-173a8.51 8.51 0 0 0-8.5 8.5v153a8.51 8.51 0 0 0 8.5 8.5h95a8.51 8.51 0 0 0 8.5-8.5v-153a8.51 8.51 0 0 0-8.5-8.5h-95z"/>
        </g>
        <path fill="#DDD" fill-rule="nonzero" d="M20.59 3.89h94.82a8.6 8.6 0 0 1 8.59 8.59v12.16c0 .69-.56 1.25-1.25 1.25H13.25c-.69 0-1.25-.56-1.25-1.25V12.48a8.6 8.6 0 0 1 8.59-8.59z" opacity=".5"/>
        <path fill="#444" fill-rule="nonzero" d="M10 23.89h116v3H10zM24 18.89a4 4 0 1 1 0-8 4 4 0 0 1 0 8zm0-6a2 2 0 1 0 0 4 2 2 0 0 0 0-4zM38 18.89a4 4 0 1 1 0-8 4 4 0 0 1 0 8zm0-6a2 2 0 1 0 0 4 2 2 0 0 0 0-4zM1.5 173.89h131a1.5 1.5 0 0 1 0 3H1.5a1.5 1.5 0 0 1 0-3zM143.5 173.89h21a1.5 1.5 0 0 1 0 3h-21a1.5 1.5 0 0 1 0-3zM110.5 119.47h-85A5.51 5.51 0 0 1 20 114v-8a5.51 5.51 0 0 1 5.5-5.5h85a5.51 5.51 0 0 1 5.5 5.5v8a5.51 5.51 0 0 1-5.5 5.47zm-85-16A2.5 2.5 0 0 0 23 106v8a2.5 2.5 0 0 0 2.5 2.5h85a2.5 2.5 0 0 0 2.5-2.5v-8a2.5 2.5 0 0 0-2.5-2.5l-85-.03z"/>
        <path fill="#DDD" fill-rule="nonzero" d="M29.5 108.47h21a1.5 1.5 0 0 1 0 3h-21a1.5 1.5 0 0 1 0-3zM57 108.47h21a1.5 1.5 0 0 1 0 3H57a1.5 1.5 0 0 1 0-3zM84.5 108.47h21a1.5 1.5 0 0 1 0 3h-21a1.5 1.5 0 0 1 0-3z"/>
        <path fill="#444" fill-rule="nonzero" d="M110.5 87.68h-85a5.51 5.51 0 0 1-5.5-5.5v-8a5.51 5.51 0 0 1 5.5-5.5h85a5.51 5.51 0 0 1 5.5 5.5v8a5.51 5.51 0 0 1-5.5 5.5zm-85-16a2.5 2.5 0 0 0-2.5 2.5v8a2.5 2.5 0 0 0 2.5 2.5h85a2.5 2.5 0 0 0 2.5-2.5v-8a2.5 2.5 0 0 0-2.5-2.5h-85z"/>
        <path fill="#DDD" fill-rule="nonzero" d="M29.5 76.68h21a1.5 1.5 0 0 1 0 3h-21a1.5 1.5 0 0 1 0-3zM57 76.68h21a1.5 1.5 0 0 1 0 3H57a1.5 1.5 0 0 1 0-3zM84.5 76.68h21a1.5 1.5 0 0 1 0 3h-21a1.5 1.5 0 0 1 0-3z"/>
        <path fill="#444" fill-rule="nonzero" d="M110.5 55.89h-85a5.51 5.51 0 0 1-5.5-5.5v-8a5.51 5.51 0 0 1 5.5-5.5h85a5.51 5.51 0 0 1 5.5 5.5v8a5.51 5.51 0 0 1-5.5 5.5zm-85-16a2.5 2.5 0 0 0-2.5 2.5v8a2.5 2.5 0 0 0 2.5 2.5h85a2.5 2.5 0 0 0 2.5-2.5v-8a2.5 2.5 0 0 0-2.5-2.5h-85z"/>
        <path fill="#DDD" fill-rule="nonzero" d="M29.5 44.89h21a1.5 1.5 0 0 1 0 3h-21a1.5 1.5 0 0 1 0-3zM57 44.89h21a1.5 1.5 0 0 1 0 3H57a1.5 1.5 0 0 1 0-3zM84.5 44.89h21a1.5 1.5 0 0 1 0 3h-21a1.5 1.5 0 0 1 0-3z"/>
        <g transform="translate(89 66)">
            <path fill="#DDD" d="M64 39.252c3.45.888 6 4.02 6 7.748v40a8 8 0 0 1-8 8H12a8 8 0 0 1-8-8V47c0-3.728 2.55-6.86 6-7.748V31C10 16.088 22.088 4 37 4s27 12.088 27 27v8.252zM22 39h30v-8c0-8.284-6.716-15-15-15-8.284 0-15 6.716-15 15v8z"/>
            <path fill="#F0F0F0" stroke="#444" stroke-width="3" d="M49.5 58.444A25.45 25.45 0 0 0 58.5 39V27C58.5 12.917 47.083 1.5 33 1.5S7.5 12.917 7.5 27v12a25.45 25.45 0 0 0 9 19.444V27c0-9.113 7.387-16.5 16.5-16.5S49.5 17.887 49.5 27v31.444z"/>
            <rect width="63" height="53" x="1.5" y="36.5" fill="#F0F0F0" stroke="#444" stroke-width="3" rx="8"/>
            <path fill="#F0F0F0" stroke="#444" stroke-width="3" d="M30 60a5 5 0 1 1 6 0v10a3 3 0 0 1-6 0V60z"/>
        </g>
    </g>
</svg>
