<svg width="14" height="14" viewBox="0 0 14 14"  xmlns="http://www.w3.org/2000/svg">
    <g fill="none" fill-rule="evenodd">
        <path d="m0 0h14v14h-14z" />
        <path d="m8.82080925 3.41391355c0 .51205785-.41266626.92766701-.92109827.92766701-.508432 0-.92109826-.41560916-.92109826-.92766701s.41266626-.92766701.92109826-.92766701c.50843201 0 .92109827.41560916.92109827.92766701zm2.58959535 0c0 .51205785-.4126662.92766701-.9210982.92766701-.50843205 0-.92109831-.41560916-.92109831-.92766701s.41266626-.92766701.92109831-.92766701c.508432 0 .9210982.41560916.9210982.92766701zm2.5895954 0c0 .51205785-.4126663.92766701-.9210983.92766701s-.9210982-.41560916-.9210982-.92766701.4126662-.92766701.9210982-.92766701.9210983.41560916.9210983.92766701zm-6.94224622 6.03443738-.15875157-.02541031c-1.72748015-.2765063-3.04120025-1.60299236-3.33789859-3.36989385l.02012557-.21897193.16122952-.00735302c.58642084-.02674428 1.05118291-.51679449 1.05118291-1.10877683v-2.60806288c0-.61194762-.49440865-1.10988211-1.10202312-1.10988211h-2.58959538c-.60761447 0-1.10202312.49793449-1.10202312 1.10988211v3.26007859c0 4.2071623 3.39863986 7.6300393 7.57601156 7.6300393h3.23699424c.6076145 0 1.1020231-.4979345 1.1020231-1.1098821v-2.60806289c0-.61194762-.4944086-1.10988211-1.1020231-1.10988211h-2.5895954c-.59081307 0-1.07829059.47218994-1.10152489 1.06666122zm-6.14850522-7.48226157.05-.05035657 2.9251445.05035657-.05 2.94600495h-.79017341c-.12207388 0-.23889228.04904909-.3236726.13579496-.08580713.08825732-.13279772.20648718-.13097717.32934226.04495011 2.86148648 2.1862963 5.01470557 4.98644168 5.01470557.25089771 0 .45462428-.2051794.45462428-.45786637l.05-.84616504 2.92510886.05034398-.0492813 2.94601753h-3.38045184c-3.67622368 0-6.666763-3.01186611-6.666763-6.7143065z" fill="currentColor" fill-rule="nonzero" />
    </g>
</svg>
