<svg xmlns="http://www.w3.org/2000/svg" width="24" height="24" viewBox="0 0 24 24">
    <path fill="#A3A4A8" fill-rule="nonzero" d="M13.96 17.632a7.1 7.1 0 0 1-7.092-7.093V6.87h3.237v3.236h-.934a.434.434 0 0 0-.434.441c.047 2.979 2.29 5.217 5.224 5.217.24 0 .434-.194.434-.434v-.934h3.237v3.237h-3.671zm3.422-4.106h-2.737c-.6 0-1.095.477-1.118 1.075l-.011.281-.278-.044c-1.846-.293-3.25-1.7-3.566-3.574l-.047-.279.282-.012a1.12 1.12 0 0 0 1.067-1.118V7.118A1.12 1.12 0 0 0 9.855 6H7.118A1.12 1.12 0 0 0 6 7.118v3.421c0 4.39 3.571 7.961 7.96 7.961h3.422a1.12 1.12 0 0 0 1.118-1.118v-2.737a1.12 1.12 0 0 0-1.118-1.119z"/>
</svg>
