<svg width="21" height="13" viewBox="0 0 21 13" fill="none" xmlns="http://www.w3.org/2000/svg">
<path fill-rule="evenodd" clip-rule="evenodd" d="M15.7517 2.76831C15.7515 2.72424 15.7461 2.68036 15.7357 2.63754V2.59932C15.726 2.56821 15.7139 2.53794 15.6994 2.50879C15.6935 2.49564 15.6868 2.48288 15.6793 2.47056C15.6622 2.43973 15.642 2.41074 15.619 2.38406L15.6009 2.36193C15.5698 2.32757 15.5347 2.29716 15.4962 2.2714L15.4721 2.26134C15.4498 2.246 15.4262 2.23254 15.4017 2.2211L10.34 0.0503861C10.2639 0.0171534 10.1817 0 10.0986 0C10.0155 0 9.93336 0.0171534 9.85721 0.0503861L4.82775 2.21507C4.80718 2.22456 4.7891 2.2353 4.77057 2.2463L4.75533 2.2553L4.7332 2.26536C4.69515 2.29166 4.66007 2.32201 4.62858 2.35589C4.62272 2.3629 4.61735 2.37029 4.61249 2.37802C4.58882 2.40467 4.56792 2.43365 4.55012 2.46453C4.54264 2.47684 4.53592 2.48961 4.53001 2.50275C4.5162 2.53197 4.50476 2.56224 4.49581 2.59328L4.48374 2.63151C4.47331 2.67432 4.46791 2.71821 4.46764 2.76227V9.25632C4.46745 9.37354 4.50141 9.48829 4.56536 9.58653C4.62931 9.68478 4.72048 9.76228 4.82775 9.80956L9.85721 11.9722H9.8713C9.89913 11.984 9.92813 11.9927 9.9578 11.9984C9.9671 12.0003 9.97668 12.0003 9.98597 11.9984C10.0216 12.0065 10.0581 12.0105 10.0946 12.0105C10.1276 12.0092 10.1606 12.0058 10.1932 12.0004H10.2254C10.2543 11.9945 10.2826 11.9857 10.3099 11.9742H10.326L15.3856 9.80956C15.494 9.76318 15.5864 9.68608 15.6515 9.58776C15.7166 9.48944 15.7514 9.37422 15.7517 9.25632V2.76831ZM10.1027 1.26148L13.6152 2.76831L10.1027 4.27312L6.58806 2.76831L10.1027 1.26148ZM5.66063 3.67562L9.49912 5.31925V10.5016L5.66063 8.85396V3.67562ZM14.5447 8.85396L10.7062 10.5016V5.3273L14.5447 3.68367V8.85396ZM2.13196 8.1438C1.97195 8.14366 1.81854 8.07998 1.70546 7.96676L0.176506 6.43982C0.0634836 6.32665 0 6.17326 0 6.01332C0 5.85338 0.0634836 5.69998 0.176506 5.58682L1.70546 4.05786C1.76072 3.99857 1.82735 3.95101 1.90138 3.91802C1.97541 3.88503 2.05533 3.86729 2.13637 3.86586C2.21741 3.86444 2.2979 3.87934 2.37305 3.9097C2.4482 3.94005 2.51647 3.98523 2.57378 4.04254C2.63109 4.09985 2.67627 4.16812 2.70663 4.24327C2.73698 4.31842 2.75189 4.39892 2.75046 4.47995C2.74903 4.56099 2.73129 4.64091 2.6983 4.71494C2.66532 4.78898 2.61776 4.85561 2.55846 4.91086L1.456 6.01131L2.55846 7.11377C2.64276 7.19817 2.70016 7.30566 2.7234 7.42267C2.74664 7.53967 2.73469 7.66094 2.68905 7.77116C2.64342 7.88137 2.56614 7.97559 2.46699 8.04192C2.36784 8.10824 2.25125 8.14369 2.13196 8.1438ZM17.851 8.04192C17.9501 8.10824 18.0667 8.14369 18.186 8.1438C18.346 8.14366 18.4994 8.07998 18.6125 7.96676L20.1415 6.4378C20.2545 6.32464 20.318 6.17124 20.318 6.01131C20.318 5.85137 20.2545 5.69797 20.1415 5.58481L18.6125 4.05585C18.4981 3.94924 18.3468 3.8912 18.1904 3.89396C18.0341 3.89672 17.8849 3.96006 17.7743 4.07064C17.6637 4.18122 17.6004 4.3304 17.5976 4.48676C17.5949 4.64311 17.6529 4.79444 17.7595 4.90885L18.862 6.01131L17.7595 7.11376C17.6752 7.19817 17.6178 7.30566 17.5946 7.42267C17.5713 7.53967 17.5833 7.66094 17.6289 7.77115C17.6745 7.88137 17.7518 7.97559 17.851 8.04192Z" fill="#06507F"/>
</svg>
