<svg width="13" height="14" viewBox="0 0 13 14" fill="none" xmlns="http://www.w3.org/2000/svg">
<path d="M6.5 0.871094C6.1766 0.871094 5.85956 0.894751 5.54901 0.940341C5.4928 0.948894 5.44026 0.973478 5.39768 1.01114C5.3551 1.04881 5.32429 1.09796 5.30895 1.1527L4.9304 2.46378C4.65726 2.55152 4.39188 2.65736 4.14098 2.78693L2.94531 2.13139C2.89602 2.10366 2.8398 2.09066 2.78334 2.09393C2.72687 2.09721 2.67253 2.11662 2.62678 2.14986C2.37499 2.33718 2.13072 2.54435 1.90199 2.77308C1.67326 3.00181 1.46609 3.24608 1.27876 3.49787C1.24552 3.54363 1.22611 3.59797 1.22284 3.65443C1.21957 3.71089 1.23257 3.76711 1.2603 3.81641L1.91584 5.01207C1.78627 5.26297 1.68043 5.52835 1.59268 5.80149L0.281605 6.18004C0.226867 6.19539 0.177717 6.2262 0.140051 6.26878C0.102385 6.31136 0.0778005 6.3639 0.0692472 6.4201C0.0236568 6.73065 0 7.04769 0 7.37109C0 7.69449 0.0236568 8.01154 0.0692472 8.32209C0.0778005 8.37829 0.102385 8.43083 0.140051 8.47341C0.177717 8.51599 0.226867 8.5468 0.281605 8.56214L1.59268 8.9407C1.68043 9.21384 1.78627 9.47922 1.91584 9.73011L1.2603 10.9258C1.23257 10.9751 1.21957 11.0313 1.22284 11.0878C1.22611 11.1442 1.24552 11.1986 1.27876 11.2443C1.46609 11.4961 1.67326 11.7404 1.90199 11.9691C2.13072 12.1978 2.37498 12.405 2.62678 12.5923C2.67253 12.6256 2.72687 12.645 2.78334 12.6483C2.8398 12.6515 2.89602 12.6385 2.94531 12.6108L4.14098 11.9553C4.39188 12.0848 4.65726 12.1907 4.9304 12.2784L5.30895 13.5895C5.32429 13.6442 5.3551 13.6934 5.39768 13.731C5.44026 13.7687 5.4928 13.7933 5.54901 13.8018C5.85956 13.8474 6.1766 13.8711 6.5 13.8711C6.8234 13.8711 7.14044 13.8474 7.45099 13.8018C7.5072 13.7933 7.55974 13.7687 7.60232 13.731C7.6449 13.6934 7.6757 13.6442 7.69105 13.5895L8.0696 12.2784C8.34274 12.1907 8.60812 12.0848 8.85902 11.9553L10.0547 12.6108C10.104 12.6385 10.1602 12.6515 10.2167 12.6483C10.2731 12.645 10.3275 12.6256 10.3732 12.5923C10.625 12.405 10.8693 12.1978 11.098 11.9691C11.3267 11.7404 11.5339 11.4961 11.7212 11.2443C11.7545 11.1986 11.7739 11.1442 11.7772 11.0878C11.7804 11.0313 11.7674 10.9751 11.7397 10.9258L11.0842 9.73011C11.2137 9.47922 11.3196 9.21384 11.4073 8.9407L12.7184 8.56214C12.7731 8.5468 12.8223 8.51599 12.8599 8.47341C12.8976 8.43083 12.9222 8.37829 12.9308 8.32209C12.9763 8.01154 13 7.69449 13 7.37109C13 7.04769 12.9763 6.73065 12.9308 6.4201C12.9222 6.3639 12.8976 6.31136 12.8599 6.26878C12.8223 6.2262 12.7731 6.19539 12.7184 6.18004L11.4073 5.80149C11.3196 5.52835 11.2137 5.26297 11.0842 5.01207L11.7397 3.81641C11.7674 3.76711 11.7804 3.71089 11.7772 3.65443C11.7739 3.59797 11.7545 3.54363 11.7212 3.49787C11.5339 3.24608 11.3267 3.00181 11.098 2.77308C10.8693 2.54435 10.625 2.33718 10.3732 2.14986C10.3275 2.11662 10.2731 2.09721 10.2167 2.09393C10.1602 2.09066 10.104 2.10366 10.0547 2.13139L8.85902 2.78693C8.60812 2.65736 8.34274 2.55152 8.0696 2.46378L7.69105 1.1527C7.6757 1.09796 7.6449 1.04881 7.60232 1.01114C7.55974 0.973478 7.5072 0.948894 7.45099 0.940341C7.14044 0.894751 6.8234 0.871094 6.5 0.871094ZM6.5 1.462C6.73156 1.462 6.95866 1.48677 7.18324 1.51278L7.54794 2.75923C7.56172 2.80757 7.58761 2.8516 7.62316 2.88714C7.6587 2.92268 7.70273 2.94857 7.75106 2.96236C8.09665 3.06014 8.42651 3.20099 8.73438 3.37322C8.77818 3.39747 8.82742 3.41019 8.87749 3.41019C8.92755 3.41019 8.9768 3.39747 9.0206 3.37322L10.1609 2.74538C10.3385 2.88606 10.5139 3.02918 10.6779 3.19318C10.8419 3.35719 10.985 3.53259 11.1257 3.71023L10.4979 4.8505C10.4736 4.8943 10.4609 4.94354 10.4609 4.99361C10.4609 5.04367 10.4736 5.09292 10.4979 5.13672C10.6701 5.44458 10.811 5.77444 10.9087 6.12003C10.9225 6.16837 10.9484 6.21239 10.984 6.24794C11.0195 6.28348 11.0635 6.30937 11.1119 6.32315L12.3583 6.68785C12.3843 6.91244 12.4091 7.13953 12.4091 7.37109C12.4091 7.60266 12.3843 7.82975 12.3583 8.05433L11.1119 8.41903C11.0635 8.43282 11.0195 8.45871 10.984 8.49425C10.9484 8.52979 10.9225 8.57382 10.9087 8.62216C10.811 8.96775 10.6701 9.29761 10.4979 9.60547C10.4736 9.64927 10.4609 9.69851 10.4609 9.74858C10.4609 9.79864 10.4736 9.84789 10.4979 9.89169L11.1257 11.032C10.985 11.2096 10.8419 11.385 10.6779 11.549C10.5139 11.713 10.3385 11.8561 10.1609 11.9968L9.0206 11.369C8.9768 11.3447 8.92755 11.332 8.87749 11.332C8.82742 11.332 8.77818 11.3447 8.73438 11.369C8.42651 11.5412 8.09665 11.682 7.75106 11.7798C7.70273 11.7936 7.6587 11.8195 7.62316 11.855C7.58761 11.8906 7.56172 11.9346 7.54794 11.983L7.18324 13.2294C6.95866 13.2554 6.73157 13.2802 6.5 13.2802C6.26843 13.2802 6.04134 13.2554 5.81676 13.2294L5.45206 11.983C5.43827 11.9346 5.41239 11.8906 5.37684 11.855C5.3413 11.8195 5.29727 11.7936 5.24893 11.7798C4.90335 11.682 4.57349 11.5412 4.26562 11.369C4.22182 11.3447 4.17258 11.332 4.12251 11.332C4.07245 11.332 4.0232 11.3447 3.9794 11.369L2.83913 11.9968C2.6615 11.8561 2.48609 11.713 2.32209 11.549C2.15808 11.385 2.01496 11.2096 1.87429 11.032L2.50213 9.89169C2.52638 9.84789 2.5391 9.79864 2.5391 9.74858C2.5391 9.69851 2.52638 9.64927 2.50213 9.60547C2.3299 9.29761 2.18904 8.96775 2.09126 8.62216C2.07748 8.57382 2.05159 8.52979 2.01605 8.49425C1.9805 8.45871 1.93648 8.43282 1.88814 8.41903L0.64169 8.05433C0.615679 7.82975 0.590909 7.60266 0.590909 7.37109C0.590909 7.13953 0.615679 6.91243 0.64169 6.68785L1.88814 6.32315C1.93648 6.30937 1.9805 6.28348 2.01605 6.24794C2.05159 6.21239 2.07748 6.16837 2.09126 6.12003C2.18904 5.77444 2.3299 5.44458 2.50213 5.13672C2.52638 5.09292 2.5391 5.04367 2.5391 4.99361C2.5391 4.94354 2.52638 4.8943 2.50213 4.8505L1.87429 3.71023C2.01496 3.53259 2.15808 3.35719 2.32209 3.19318C2.48609 3.02918 2.6615 2.88606 2.83913 2.74538L3.9794 3.37322C4.0232 3.39747 4.07245 3.41019 4.12251 3.41019C4.17258 3.41019 4.22182 3.39747 4.26562 3.37322C4.57349 3.20099 4.90335 3.06014 5.24893 2.96236C5.29727 2.94857 5.3413 2.92268 5.37684 2.88714C5.41239 2.8516 5.43827 2.80757 5.45206 2.75923L5.81676 1.51278C6.04134 1.48677 6.26843 1.462 6.5 1.462ZM6.5 4.41655C4.87175 4.41655 3.54545 5.74284 3.54545 7.37109C3.54545 8.99934 4.87175 10.3256 6.5 10.3256C8.12825 10.3256 9.45455 8.99934 9.45455 7.37109C9.45455 5.74284 8.12825 4.41655 6.5 4.41655ZM6.5 5.00746C7.8089 5.00746 8.86364 6.06219 8.86364 7.37109C8.86364 8.67999 7.8089 9.73473 6.5 9.73473C5.1911 9.73473 4.13636 8.67999 4.13636 7.37109C4.13636 6.06219 5.1911 5.00746 6.5 5.00746Z" fill="#888888"/>
</svg>
