<svg width="13" height="11" viewBox="0 0 13 11" fill="none" xmlns="http://www.w3.org/2000/svg">
<path d="M12.8477 1.51953C12.873 1.51953 12.8984 1.51953 12.9492 1.46875C12.9746 1.44336 13 1.41797 13 1.36719V0.757812C13 0.732422 12.9746 0.707031 12.9492 0.65625C12.8984 0.630859 12.873 0.605469 12.8477 0.605469H3.40234C3.35156 0.605469 3.32617 0.630859 3.30078 0.65625C3.25 0.707031 3.25 0.732422 3.25 0.757812V1.36719C3.25 1.41797 3.25 1.44336 3.30078 1.46875C3.32617 1.51953 3.35156 1.51953 3.40234 1.51953H12.8477ZM13 5.42969C13 5.48047 12.9746 5.50586 12.9492 5.53125C12.8984 5.58203 12.873 5.58203 12.8477 5.58203H3.40234C3.35156 5.58203 3.32617 5.58203 3.30078 5.53125C3.25 5.50586 3.25 5.48047 3.25 5.42969V4.82031C3.25 4.79492 3.25 4.76953 3.30078 4.71875C3.32617 4.69336 3.35156 4.66797 3.40234 4.66797H12.8477C12.873 4.66797 12.8984 4.69336 12.9492 4.71875C12.9746 4.76953 13 4.79492 13 4.82031V5.42969ZM13 9.49219C13 9.54297 12.9746 9.56836 12.9492 9.59375C12.8984 9.64453 12.873 9.64453 12.8477 9.64453H3.40234C3.35156 9.64453 3.32617 9.64453 3.30078 9.59375C3.25 9.56836 3.25 9.54297 3.25 9.49219V8.88281C3.25 8.85742 3.25 8.83203 3.30078 8.78125C3.32617 8.75586 3.35156 8.73047 3.40234 8.73047H12.8477C12.873 8.73047 12.8984 8.75586 12.9492 8.78125C12.9746 8.83203 13 8.85742 13 8.88281V9.49219ZM2.13281 1.67188C2.13281 1.77344 2.08203 1.84961 2.03125 1.90039C1.98047 1.95117 1.9043 1.97656 1.82812 1.97656H0.609375C0.507812 1.97656 0.431641 1.95117 0.380859 1.90039C0.330078 1.84961 0.304688 1.77344 0.304688 1.67188V0.453125C0.304688 0.376953 0.330078 0.300781 0.380859 0.25C0.431641 0.199219 0.507812 0.148438 0.609375 0.148438H1.82812C1.9043 0.148438 1.98047 0.199219 2.03125 0.25C2.08203 0.300781 2.13281 0.376953 2.13281 0.453125V1.67188ZM2.13281 5.73438C2.13281 5.83594 2.08203 5.91211 2.03125 5.96289C1.98047 6.01367 1.9043 6.03906 1.82812 6.03906H0.609375C0.507812 6.03906 0.431641 6.01367 0.380859 5.96289C0.330078 5.91211 0.304688 5.83594 0.304688 5.73438V4.51562C0.304688 4.43945 0.330078 4.36328 0.380859 4.3125C0.431641 4.26172 0.507812 4.21094 0.609375 4.21094H1.82812C1.9043 4.21094 1.98047 4.26172 2.03125 4.3125C2.08203 4.36328 2.13281 4.43945 2.13281 4.51562V5.73438ZM2.13281 9.79688C2.13281 9.89844 2.08203 9.97461 2.03125 10.0254C1.98047 10.0762 1.9043 10.1016 1.82812 10.1016H0.609375C0.507812 10.1016 0.431641 10.0762 0.380859 10.0254C0.330078 9.97461 0.304688 9.89844 0.304688 9.79688V8.57812C0.304688 8.50195 0.330078 8.42578 0.380859 8.375C0.431641 8.32422 0.507812 8.27344 0.609375 8.27344H1.82812C1.9043 8.27344 1.98047 8.32422 2.03125 8.375C2.08203 8.42578 2.13281 8.50195 2.13281 8.57812V9.79688Z" fill="#3D7598"/>
</svg>
