<svg xmlns="http://www.w3.org/2000/svg" width="14" height="14" viewBox="0 0 14 14">
    <g fill="none" fill-rule="evenodd">
        <path d="M0 0h13.061v14H0z"/>
        <path fill="currentColor" d="M3.517 10.504h-.034c-.03-.003-.038-.002-.068-.008a.48.48 0 0 1-.16-.061.547.547 0 0 1-.24-.594.558.558 0 0 1 .067-.167c.017-.027.022-.033.041-.058l.023-.027 2.647-2.837-2.647-2.837c-.02-.024-.026-.03-.044-.055a.551.551 0 0 1-.1-.379.54.54 0 0 1 .283-.43.478.478 0 0 1 .3-.043c.079.014.154.05.217.1.024.02.03.027.052.049l3 3.216c.02.024.026.03.045.055a.575.575 0 0 1 0 .648c-.019.026-.024.031-.045.055l-3 3.216a.482.482 0 0 1-.269.15c-.03.005-.038.004-.068.007zm3 0h-.034c-.03-.003-.038-.002-.068-.008a.48.48 0 0 1-.16-.061.547.547 0 0 1-.24-.594.558.558 0 0 1 .067-.167c.017-.027.022-.033.041-.058l.023-.027 2.647-2.837-2.647-2.837c-.02-.024-.026-.03-.044-.055a.551.551 0 0 1-.1-.379.54.54 0 0 1 .283-.43.478.478 0 0 1 .3-.043c.079.014.154.05.217.1.024.02.03.027.052.049l3 3.216c.02.024.026.03.045.055a.575.575 0 0 1 0 .648c-.019.026-.024.031-.045.055l-3 3.216a.482.482 0 0 1-.269.15c-.03.005-.038.004-.068.007z"/>
    </g>
</svg>
