<svg width="197" height="186" viewBox="0 0 197 186" fill="none" xmlns="http://www.w3.org/2000/svg">
<path d="M115.5 11.39H20.5C14.9772 11.39 10.5 15.8672 10.5 21.39V174.39C10.5 179.913 14.9772 184.39 20.5 184.39H115.5C121.023 184.39 125.5 179.913 125.5 174.39V21.39C125.5 15.8672 121.023 11.39 115.5 11.39Z" fill="#F0F0F0"/>
<path d="M115.5 185.89H20.5C14.151 185.884 9.006 180.739 9 174.39V21.39C9.006 15.041 14.151 9.89601 20.5 9.89001H115.5C121.849 9.89601 126.994 15.041 127 21.39V174.39C126.994 180.739 121.849 185.884 115.5 185.89ZM20.5 12.89C18.2465 12.8927 16.086 13.789 14.4925 15.3825C12.899 16.976 12.0026 19.1365 12 21.39V174.39C12.0026 176.644 12.899 178.804 14.4925 180.398C16.086 181.991 18.2465 182.887 20.5 182.89H115.5C117.754 182.887 119.914 181.991 121.507 180.398C123.101 178.804 123.997 176.644 124 174.39V21.39C123.997 19.1365 123.101 16.976 121.507 15.3825C119.914 13.789 117.754 12.8927 115.5 12.89H20.5Z" fill="#A4A4A4"/>
<path opacity="0.5" d="M20.59 12.89H115.41C117.687 12.8927 119.871 13.7985 121.481 15.4089C123.091 17.0193 123.997 19.2026 124 21.48V33.64C124 34.33 123.44 34.89 122.75 34.89H13.25C12.56 34.89 12 34.33 12 33.64V21.48C12.0026 19.2026 12.9085 17.0193 14.5189 15.4089C16.1292 13.7985 18.3126 12.8927 20.59 12.89Z" fill="#DDDDDD"/>
<path d="M10 32.89H126V35.89H10V32.89ZM24 27.89C22.9391 27.89 21.9217 27.4686 21.1716 26.7184C20.4214 25.9683 20 24.9509 20 23.89C20 22.8291 20.4214 21.8117 21.1716 21.0616C21.9217 20.3114 22.9391 19.89 24 19.89C25.0609 19.89 26.0783 20.3114 26.8284 21.0616C27.5786 21.8117 28 22.8291 28 23.89C28 24.9509 27.5786 25.9683 26.8284 26.7184C26.0783 27.4686 25.0609 27.89 24 27.89ZM24 21.89C23.4696 21.89 22.9609 22.1007 22.5858 22.4758C22.2107 22.8509 22 23.3596 22 23.89C22 24.4204 22.2107 24.9292 22.5858 25.3042C22.9609 25.6793 23.4696 25.89 24 25.89C24.5304 25.89 25.0391 25.6793 25.4142 25.3042C25.7893 24.9292 26 24.4204 26 23.89C26 23.3596 25.7893 22.8509 25.4142 22.4758C25.0391 22.1007 24.5304 21.89 24 21.89ZM38 27.89C36.9391 27.89 35.9217 27.4686 35.1716 26.7184C34.4214 25.9683 34 24.9509 34 23.89C34 22.8291 34.4214 21.8117 35.1716 21.0616C35.9217 20.3114 36.9391 19.89 38 19.89C39.0609 19.89 40.0783 20.3114 40.8284 21.0616C41.5786 21.8117 42 22.8291 42 23.89C42 24.9509 41.5786 25.9683 40.8284 26.7184C40.0783 27.4686 39.0609 27.89 38 27.89ZM38 21.89C37.4696 21.89 36.9609 22.1007 36.5858 22.4758C36.2107 22.8509 36 23.3596 36 23.89C36 24.4204 36.2107 24.9292 36.5858 25.3042C36.9609 25.6793 37.4696 25.89 38 25.89C38.5304 25.89 39.0391 25.6793 39.4142 25.3042C39.7893 24.9292 40 24.4204 40 23.89C40 23.3596 39.7893 22.8509 39.4142 22.4758C39.0391 22.1007 38.5304 21.89 38 21.89ZM1.5 182.89H132.5C132.898 182.89 133.279 183.048 133.561 183.329C133.842 183.611 134 183.992 134 184.39C134 184.788 133.842 185.169 133.561 185.451C133.279 185.732 132.898 185.89 132.5 185.89H1.5C1.10218 185.89 0.720644 185.732 0.43934 185.451C0.158035 185.169 0 184.788 0 184.39C0 183.992 0.158035 183.611 0.43934 183.329C0.720644 183.048 1.10218 182.89 1.5 182.89ZM143.5 182.89H164.5C164.898 182.89 165.279 183.048 165.561 183.329C165.842 183.611 166 183.992 166 184.39C166 184.788 165.842 185.169 165.561 185.451C165.279 185.732 164.898 185.89 164.5 185.89H143.5C143.102 185.89 142.721 185.732 142.439 185.451C142.158 185.169 142 184.788 142 184.39C142 183.992 142.158 183.611 142.439 183.329C142.721 183.048 143.102 182.89 143.5 182.89ZM110.5 172.06H25.5C24.0421 172.057 22.6447 171.477 21.6138 170.446C20.583 169.415 20.0026 168.018 20 166.56V158.56C20 157.101 20.5795 155.702 21.6109 154.671C22.6424 153.639 24.0413 153.06 25.5 153.06H110.5C111.959 153.06 113.358 153.639 114.389 154.671C115.421 155.702 116 157.101 116 158.56V166.56C115.997 168.018 115.417 169.415 114.386 170.446C113.355 171.477 111.958 172.057 110.5 172.06ZM25.5 156.06C24.837 156.06 24.2011 156.323 23.7322 156.792C23.2634 157.261 23 157.897 23 158.56V166.56C23.0026 167.222 23.2669 167.857 23.7351 168.325C24.2034 168.793 24.8378 169.057 25.5 169.06H110.5C111.162 169.057 111.797 168.793 112.265 168.325C112.733 167.857 112.997 167.222 113 166.56V158.56C113 157.897 112.737 157.261 112.268 156.792C111.799 156.323 111.163 156.06 110.5 156.06H25.5Z" fill="#A4A4A4"/>
<path d="M29.5 161.05H50.5C50.8978 161.05 51.2794 161.208 51.5607 161.489C51.842 161.771 52 162.152 52 162.55C52 162.948 51.842 163.329 51.5607 163.611C51.2794 163.892 50.8978 164.05 50.5 164.05H29.5C29.1022 164.05 28.7206 163.892 28.4393 163.611C28.158 163.329 28 162.948 28 162.55C28 162.152 28.158 161.771 28.4393 161.489C28.7206 161.208 29.1022 161.05 29.5 161.05ZM57 161.05H78C78.3978 161.05 78.7794 161.208 79.0607 161.489C79.342 161.771 79.5 162.152 79.5 162.55C79.5 162.948 79.342 163.329 79.0607 163.611C78.7794 163.892 78.3978 164.05 78 164.05H57C56.6022 164.05 56.2206 163.892 55.9393 163.611C55.658 163.329 55.5 162.948 55.5 162.55C55.5 162.152 55.658 161.771 55.9393 161.489C56.2206 161.208 56.6022 161.05 57 161.05ZM84.5 161.05H105.5C105.898 161.05 106.279 161.208 106.561 161.489C106.842 161.771 107 162.152 107 162.55C107 162.948 106.842 163.329 106.561 163.611C106.279 163.892 105.898 164.05 105.5 164.05H84.5C84.1022 164.05 83.7206 163.892 83.4393 163.611C83.158 163.329 83 162.948 83 162.55C83 162.152 83.158 161.771 83.4393 161.489C83.7206 161.208 84.1022 161.05 84.5 161.05Z" fill="#DDDDDD"/>
<path d="M110.5 145.26H25.5C24.0413 145.26 22.6424 144.681 21.6109 143.649C20.5795 142.618 20 141.219 20 139.76V131.76C20.0026 130.302 20.583 128.905 21.6138 127.874C22.6447 126.843 24.0421 126.263 25.5 126.26H110.5C111.958 126.263 113.355 126.843 114.386 127.874C115.417 128.905 115.997 130.302 116 131.76V139.76C116 141.219 115.421 142.618 114.389 143.649C113.358 144.681 111.959 145.26 110.5 145.26ZM25.5 129.26C24.837 129.26 24.2011 129.523 23.7322 129.992C23.2634 130.461 23 131.097 23 131.76V139.76C23 140.423 23.2634 141.059 23.7322 141.528C24.2011 141.997 24.837 142.26 25.5 142.26H110.5C111.163 142.26 111.799 141.997 112.268 141.528C112.737 141.059 113 140.423 113 139.76V131.76C113 131.097 112.737 130.461 112.268 129.992C111.799 129.523 111.163 129.26 110.5 129.26H25.5Z" fill="#A4A4A4"/>
<path d="M29.5 134.26H50.5C50.8978 134.26 51.2794 134.418 51.5607 134.699C51.842 134.981 52 135.362 52 135.76C52 136.158 51.842 136.539 51.5607 136.821C51.2794 137.102 50.8978 137.26 50.5 137.26H29.5C29.1022 137.26 28.7206 137.102 28.4393 136.821C28.158 136.539 28 136.158 28 135.76C28 135.362 28.158 134.981 28.4393 134.699C28.7206 134.418 29.1022 134.26 29.5 134.26ZM57 134.26H78C78.3978 134.26 78.7794 134.418 79.0607 134.699C79.342 134.981 79.5 135.362 79.5 135.76C79.5 136.158 79.342 136.539 79.0607 136.821C78.7794 137.102 78.3978 137.26 78 137.26H57C56.6022 137.26 56.2206 137.102 55.9393 136.821C55.658 136.539 55.5 136.158 55.5 135.76C55.5 135.362 55.658 134.981 55.9393 134.699C56.2206 134.418 56.6022 134.26 57 134.26ZM84.5 134.26H105.5C105.898 134.26 106.279 134.418 106.561 134.699C106.842 134.981 107 135.362 107 135.76C107 136.158 106.842 136.539 106.561 136.821C106.279 137.102 105.898 137.26 105.5 137.26H84.5C84.1022 137.26 83.7206 137.102 83.4393 136.821C83.158 136.539 83 136.158 83 135.76C83 135.362 83.158 134.981 83.4393 134.699C83.7206 134.418 84.1022 134.26 84.5 134.26Z" fill="#DDDDDD"/>
<path d="M110.5 118.47H25.5C24.0473 118.467 22.6544 117.891 21.6244 116.867C20.5943 115.842 20.0105 114.453 20 113V105C20.0026 103.542 20.583 102.145 21.6138 101.114C22.6447 100.083 24.0421 99.5026 25.5 99.5H110.5C111.958 99.5026 113.355 100.083 114.386 101.114C115.417 102.145 115.997 103.542 116 105V113C115.989 114.453 115.406 115.842 114.376 116.867C113.346 117.891 111.953 118.467 110.5 118.47ZM25.5 102.47C25.1692 102.47 24.8416 102.536 24.5363 102.663C24.231 102.791 23.9541 102.977 23.7215 103.213C23.489 103.448 23.3055 103.727 23.1816 104.034C23.0578 104.341 22.996 104.669 23 105V113C23 113.663 23.2634 114.299 23.7322 114.768C24.2011 115.237 24.837 115.5 25.5 115.5H110.5C111.163 115.5 111.799 115.237 112.268 114.768C112.737 114.299 113 113.663 113 113V105C113 104.337 112.737 103.701 112.268 103.232C111.799 102.763 111.163 102.5 110.5 102.5L25.5 102.47Z" fill="#A4A4A4"/>
<path d="M29.5 107.47H50.5C50.8978 107.47 51.2794 107.628 51.5607 107.909C51.842 108.191 52 108.572 52 108.97C52 109.368 51.842 109.749 51.5607 110.031C51.2794 110.312 50.8978 110.47 50.5 110.47H29.5C29.1022 110.47 28.7206 110.312 28.4393 110.031C28.158 109.749 28 109.368 28 108.97C28 108.572 28.158 108.191 28.4393 107.909C28.7206 107.628 29.1022 107.47 29.5 107.47ZM57 107.47H78C78.3978 107.47 78.7794 107.628 79.0607 107.909C79.342 108.191 79.5 108.572 79.5 108.97C79.5 109.368 79.342 109.749 79.0607 110.031C78.7794 110.312 78.3978 110.47 78 110.47H57C56.6022 110.47 56.2206 110.312 55.9393 110.031C55.658 109.749 55.5 109.368 55.5 108.97C55.5 108.572 55.658 108.191 55.9393 107.909C56.2206 107.628 56.6022 107.47 57 107.47ZM84.5 107.47H105.5C105.898 107.47 106.279 107.628 106.561 107.909C106.842 108.191 107 108.572 107 108.97C107 109.368 106.842 109.749 106.561 110.031C106.279 110.312 105.898 110.47 105.5 110.47H84.5C84.1022 110.47 83.7206 110.312 83.4393 110.031C83.158 109.749 83 109.368 83 108.97C83 108.572 83.158 108.191 83.4393 107.909C83.7206 107.628 84.1022 107.47 84.5 107.47Z" fill="#DDDDDD"/>
<path d="M110.5 91.6801H25.5C24.0421 91.6774 22.6447 91.0971 21.6138 90.0662C20.583 89.0353 20.0026 87.6379 20 86.1801V78.1801C20.0026 76.7222 20.583 75.3248 21.6138 74.2939C22.6447 73.263 24.0421 72.6827 25.5 72.6801H110.5C111.958 72.6827 113.355 73.263 114.386 74.2939C115.417 75.3248 115.997 76.7222 116 78.1801V86.1801C115.997 87.6379 115.417 89.0353 114.386 90.0662C113.355 91.0971 111.958 91.6774 110.5 91.6801ZM25.5 75.6801C24.837 75.6801 24.2011 75.9434 23.7322 76.4123C23.2634 76.8811 23 77.517 23 78.1801V86.1801C23 86.8431 23.2634 87.479 23.7322 87.9478C24.2011 88.4167 24.837 88.6801 25.5 88.6801H110.5C111.163 88.6801 111.799 88.4167 112.268 87.9478C112.737 87.479 113 86.8431 113 86.1801V78.1801C113 77.517 112.737 76.8811 112.268 76.4123C111.799 75.9434 111.163 75.6801 110.5 75.6801H25.5Z" fill="#A4A4A4"/>
<path d="M29.5 80.6801H50.5C50.8978 80.6801 51.2794 80.8381 51.5607 81.1194C51.842 81.4007 52 81.7822 52 82.1801C52 82.5779 51.842 82.9594 51.5607 83.2407C51.2794 83.522 50.8978 83.6801 50.5 83.6801H29.5C29.1022 83.6801 28.7206 83.522 28.4393 83.2407C28.158 82.9594 28 82.5779 28 82.1801C28 81.7822 28.158 81.4007 28.4393 81.1194C28.7206 80.8381 29.1022 80.6801 29.5 80.6801ZM57 80.6801H78C78.3978 80.6801 78.7794 80.8381 79.0607 81.1194C79.342 81.4007 79.5 81.7822 79.5 82.1801C79.5 82.5779 79.342 82.9594 79.0607 83.2407C78.7794 83.522 78.3978 83.6801 78 83.6801H57C56.6022 83.6801 56.2206 83.522 55.9393 83.2407C55.658 82.9594 55.5 82.5779 55.5 82.1801C55.5 81.7822 55.658 81.4007 55.9393 81.1194C56.2206 80.8381 56.6022 80.6801 57 80.6801ZM84.5 80.6801H105.5C105.898 80.6801 106.279 80.8381 106.561 81.1194C106.842 81.4007 107 81.7822 107 82.1801C107 82.5779 106.842 82.9594 106.561 83.2407C106.279 83.522 105.898 83.6801 105.5 83.6801H84.5C84.1022 83.6801 83.7206 83.522 83.4393 83.2407C83.158 82.9594 83 82.5779 83 82.1801C83 81.7822 83.158 81.4007 83.4393 81.1194C83.7206 80.8381 84.1022 80.6801 84.5 80.6801Z" fill="#DDDDDD"/>
<path d="M110.5 64.89H25.5C24.0421 64.8874 22.6447 64.3071 21.6138 63.2762C20.583 62.2453 20.0026 60.8479 20 59.39V51.39C20.0026 49.9321 20.583 48.5347 21.6138 47.5038C22.6447 46.473 24.0421 45.8927 25.5 45.89H110.5C111.958 45.8927 113.355 46.473 114.386 47.5038C115.417 48.5347 115.997 49.9321 116 51.39V59.39C115.997 60.8479 115.417 62.2453 114.386 63.2762C113.355 64.3071 111.958 64.8874 110.5 64.89ZM25.5 48.89C24.837 48.89 24.2011 49.1534 23.7322 49.6222C23.2634 50.0911 23 50.727 23 51.39V59.39C23 60.0531 23.2634 60.6889 23.7322 61.1578C24.2011 61.6266 24.837 61.89 25.5 61.89H110.5C111.163 61.89 111.799 61.6266 112.268 61.1578C112.737 60.6889 113 60.0531 113 59.39V51.39C113 50.727 112.737 50.0911 112.268 49.6222C111.799 49.1534 111.163 48.89 110.5 48.89H25.5Z" fill="#A4A4A4"/>
<path d="M29.5 53.89H50.5C50.8978 53.89 51.2794 54.048 51.5607 54.3294C51.842 54.6107 52 54.9922 52 55.39C52 55.7878 51.842 56.1694 51.5607 56.4507C51.2794 56.732 50.8978 56.89 50.5 56.89H29.5C29.1022 56.89 28.7206 56.732 28.4393 56.4507C28.158 56.1694 28 55.7878 28 55.39C28 54.9922 28.158 54.6107 28.4393 54.3294C28.7206 54.048 29.1022 53.89 29.5 53.89ZM57 53.89H78C78.3978 53.89 78.7794 54.048 79.0607 54.3294C79.342 54.6107 79.5 54.9922 79.5 55.39C79.5 55.7878 79.342 56.1694 79.0607 56.4507C78.7794 56.732 78.3978 56.89 78 56.89H57C56.6022 56.89 56.2206 56.732 55.9393 56.4507C55.658 56.1694 55.5 55.7878 55.5 55.39C55.5 54.9922 55.658 54.6107 55.9393 54.3294C56.2206 54.048 56.6022 53.89 57 53.89ZM84.5 53.89H105.5C105.898 53.89 106.279 54.048 106.561 54.3294C106.842 54.6107 107 54.9922 107 55.39C107 55.7878 106.842 56.1694 106.561 56.4507C106.279 56.732 105.898 56.89 105.5 56.89H84.5C84.1022 56.89 83.7206 56.732 83.4393 56.4507C83.158 56.1694 83 55.7878 83 55.39C83 54.9922 83.158 54.6107 83.4393 54.3294C83.7206 54.048 84.1022 53.89 84.5 53.89Z" fill="#DDDDDD"/>
<path d="M132.51 178.35C130.319 178.347 128.197 177.579 126.51 176.18L121.65 172.18L120.65 171.31C117.01 168.31 113.38 165.31 109.8 162.31C108.744 161.425 107.894 160.319 107.312 159.069C106.73 157.82 106.429 156.458 106.43 155.08V88.61C96.9631 75.61 87.5071 62.637 78.0601 49.69L77.8401 49.39C69.4942 37.9285 61.1508 26.4652 52.8101 15C51.7768 13.5946 51.154 11.9298 51.0111 10.1913C50.8683 8.45277 51.211 6.70872 52.001 5.1535C52.7911 3.59828 53.9975 2.29297 55.4857 1.38305C56.974 0.473117 58.6857 -0.00569551 60.4301 -3.45563e-05H187.25C188.995 -0.00755615 190.708 0.469905 192.198 1.37909C193.688 2.28828 194.896 3.59345 195.687 5.14901C196.478 6.70458 196.822 8.44938 196.679 10.1888C196.537 11.9282 195.914 13.5939 194.88 15C187 25.92 179.123 36.88 171.25 47.88L170.19 49.35C161.45 61.53 151.55 75.35 141.93 88.66C141.88 103.08 141.93 117.74 141.93 131.92V169.02C141.922 171.518 140.924 173.912 139.155 175.676C137.385 177.44 134.989 178.43 132.49 178.43L132.51 178.35ZM60.4301 8.04997C60.1672 8.04902 59.9092 8.12107 59.6849 8.25807C59.4605 8.39508 59.2786 8.59168 59.1594 8.82597C59.0402 9.06026 58.9883 9.32304 59.0096 9.58505C59.0309 9.84706 59.1246 10.098 59.2801 10.31L84.2801 44.68L84.5001 44.98C94.0401 58.08 103.583 71.193 113.13 84.32C113.925 85.4203 114.356 86.7423 114.36 88.1V155.1C114.359 155.308 114.404 155.514 114.492 155.703C114.58 155.891 114.709 156.058 114.87 156.19C118.43 159.19 122.05 162.19 125.67 165.19L126.67 166.06L131.54 170.06C131.787 170.273 132.103 170.39 132.43 170.39C132.644 170.388 132.856 170.34 133.05 170.25C133.297 170.14 133.506 169.961 133.652 169.733C133.798 169.506 133.874 169.24 133.87 168.97V131.9C133.87 117.55 133.82 102.7 133.87 88.1C133.869 86.7569 134.293 85.4479 135.08 84.36C144.8 70.9 154.8 56.96 163.63 44.66L164.69 43.18C172.57 32.2 180.45 21.237 188.33 10.29C188.486 10.0789 188.579 9.8285 188.601 9.56704C188.622 9.30559 188.57 9.0434 188.45 8.80997C188.343 8.57627 188.173 8.37684 187.96 8.23385C187.746 8.09085 187.497 8.00989 187.24 7.99997H123.84C104.17 7.99997 81.8701 8.07997 60.4301 8.04997Z" fill="#F0F0F0"/>
<path d="M187 5.52001C144.73 5.45001 102.46 5.62001 60.1902 5.52001C59.4613 5.51299 58.7449 5.70932 58.1215 6.08695C57.4981 6.46458 56.9923 7.00855 56.6609 7.65776C56.3296 8.30697 56.1858 9.03572 56.2457 9.76214C56.3056 10.4886 56.5669 11.1839 57.0002 11.77C75.0002 36.49 92.9302 61.06 110.89 85.77C111.374 86.4437 111.636 87.2509 111.64 88.08V155.08C111.641 155.652 111.767 156.216 112.009 156.735C112.251 157.253 112.603 157.712 113.04 158.08C118.56 162.7 124.2 167.32 129.77 171.94C130.343 172.412 131.038 172.713 131.775 172.806C132.511 172.9 133.259 172.783 133.932 172.469C134.605 172.155 135.175 171.657 135.576 171.033C135.978 170.408 136.194 169.682 136.2 168.94C136.2 141.94 136.09 115.04 136.2 88.1C136.221 87.2688 136.501 86.4649 137 85.8C154.75 61.21 172.5 36.35 190.25 11.73C190.675 11.1397 190.928 10.4429 190.979 9.71732C191.031 8.99178 190.879 8.2662 190.542 7.62175C190.205 6.9773 189.695 6.4394 189.069 6.06822C188.444 5.69705 187.727 5.50723 187 5.52001Z" fill="#F0F0F0"/>
<path d="M132.29 174.35C131.033 174.35 129.815 173.907 128.85 173.1L123 168.23C119.37 165.23 115.73 162.23 112.15 159.23C111.541 158.722 111.051 158.086 110.716 157.367C110.38 156.648 110.208 155.863 110.21 155.07V88.07C110.206 87.556 110.042 87.0562 109.74 86.64C100.093 73.413 90.4605 60.2 80.8405 47C72.5005 35.56 64.1675 24.107 55.8405 12.64C55.2485 11.8349 54.892 10.8812 54.8108 9.88522C54.7296 8.88927 54.9268 7.89034 55.3805 7C55.8245 6.10211 56.5139 5.34843 57.3687 4.82632C58.2236 4.30421 59.2089 4.03504 60.2105 4.05H123.48C144.22 4.05 165.84 4 187 4C187.998 4.00116 188.976 4.2775 189.826 4.79861C190.676 5.31972 191.367 6.06537 191.82 6.95349C192.274 7.84161 192.474 8.83775 192.398 9.83224C192.323 10.8267 191.974 11.781 191.39 12.59C183.119 24.0657 174.873 35.559 166.65 47.07C157.31 60.07 147.65 73.53 138.16 86.68C137.865 87.0912 137.704 87.5838 137.7 88.09V168.93C137.703 169.959 137.41 170.968 136.857 171.836C136.304 172.705 135.514 173.396 134.58 173.83C133.864 174.167 133.082 174.344 132.29 174.35ZM60.2005 7.05C59.751 7.04245 59.3083 7.16024 58.922 7.39017C58.5357 7.6201 58.2211 7.95308 58.0135 8.35178C57.8058 8.75048 57.7133 9.19913 57.7464 9.64746C57.7794 10.0958 57.9366 10.526 58.2005 10.89C66.5405 22.37 74.8735 33.823 83.2005 45.25C92.8675 58.463 102.51 71.683 112.13 84.91C112.79 85.8423 113.14 86.9582 113.13 88.1V155.1C113.128 155.454 113.204 155.804 113.353 156.126C113.502 156.447 113.719 156.732 113.99 156.96C117.57 159.96 121.2 162.96 124.83 165.96L130.72 170.83C131.072 171.127 131.502 171.315 131.958 171.372C132.414 171.429 132.877 171.352 133.29 171.15C133.713 170.965 134.071 170.659 134.32 170.271C134.569 169.884 134.698 169.431 134.69 168.97V132.07C134.69 117.67 134.64 102.77 134.69 88.12C134.688 86.9884 135.037 85.884 135.69 84.96C145.18 71.81 154.84 58.36 164.17 45.36C172.44 33.8512 180.716 22.3478 189 10.85C189.267 10.486 189.427 10.0548 189.461 9.60486C189.496 9.15495 189.404 8.70435 189.196 8.30393C188.988 7.9035 188.672 7.56921 188.284 7.3388C187.896 7.10839 187.452 6.99104 187 7H60.1905L60.2005 7.05Z" fill="#A4A4A4"/>
<path d="M129.62 31.25L123.47 37.39L117.33 31.25C116.977 30.8973 116.499 30.6991 116 30.6991C115.501 30.6991 115.023 30.8973 114.67 31.25C114.317 31.6027 114.119 32.0812 114.119 32.58C114.119 33.0788 114.317 33.5573 114.67 33.91L120.81 40.06L114.67 46.2C114.495 46.3747 114.357 46.582 114.262 46.8102C114.168 47.0384 114.119 47.283 114.119 47.53C114.119 47.777 114.168 48.0216 114.262 48.2498C114.357 48.478 114.495 48.6853 114.67 48.86C114.845 49.0347 115.052 49.1732 115.28 49.2677C115.508 49.3623 115.753 49.4109 116 49.4109C116.247 49.4109 116.492 49.3623 116.72 49.2677C116.948 49.1732 117.155 49.0347 117.33 48.86L123.47 42.72L129.62 48.86C129.973 49.2127 130.451 49.4109 130.95 49.4109C131.449 49.4109 131.927 49.2127 132.28 48.86C132.633 48.5073 132.831 48.0288 132.831 47.53C132.831 47.0312 132.633 46.5527 132.28 46.2L126.14 40.06L132.28 33.91C132.633 33.5573 132.831 33.0788 132.831 32.58C132.831 32.0812 132.633 31.6027 132.28 31.25C131.927 30.8973 131.449 30.6991 130.95 30.6991C130.451 30.6991 129.973 30.8973 129.62 31.25Z" fill="#C4C4C4"/>
</svg>
