<svg xmlns="http://www.w3.org/2000/svg" width="24" height="24" viewBox="0 0 24 24">
    <g fill="none" fill-rule="evenodd">
        <path d="M0 0h24v24H0z"/>
        <g fill="currentColor">
            <path d="M6.094 20.505h11.812V6.255H6.094v14.25zm12.234.75H5.672c-.233 0-.422-.165-.422-.375v-15c0-.21.189-.375.422-.375h12.656c.233 0 .422.166.422.375v15c0 .21-.189.375-.422.375z"/>
            <path d="M15.375 5.88A.373.373 0 0 1 15 5.505v-.42c-.035-.104-.448-.33-.725-.33h-1.922a.373.373 0 0 1-.375-.375c0-.21-.013-.322-.025-.375h-.256c-.09 0-.21 0-.251.015.006.008-.03.09-.03.36 0 .21-.168.375-.375.375H9.119c-.047 0-.119 0-.119.33v.42c0 .21-.168.375-.375.375a.373.373 0 0 1-.375-.375v-.42c0-.975.608-1.08.87-1.08h1.574c.111-.682.553-.75 1.003-.75h.094c.593 0 .85.196.918.75h1.566c.52 0 1.475.413 1.475 1.08v.42c0 .21-.168.375-.375.375M14.7 11.505H9.3c-.373 0-.675-.165-.675-.375s.302-.375.675-.375h5.4c.373 0 .675.165.675.375s-.302.375-.675.375M14.7 13.755H9.3c-.373 0-.675-.165-.675-.375s.302-.375.675-.375h5.4c.373 0 .675.165.675.375s-.302.375-.675.375M14.7 16.005H9.3c-.373 0-.675-.165-.675-.375s.302-.375.675-.375h5.4c.373 0 .675.165.675.375s-.302.375-.675.375"/>
        </g>
    </g>
</svg>
