<svg xmlns="http://www.w3.org/2000/svg" width="24" height="24" viewBox="0 0 24 24">
    <g fill="none" fill-rule="evenodd">
        <path d="M0 0h24v24H0z"/>
        <path fill="currentColor" fill-rule="nonzero" d="M15.577 10.77a4.813 4.813 0 0 1-4.808 4.807 4.813 4.813 0 0 1-4.807-4.808 4.813 4.813 0 0 1 4.807-4.807 4.813 4.813 0 0 1 4.808 4.807zm3.923 8c0-.191-.08-.383-.21-.513l-3.592-3.593.237-.343A6.267 6.267 0 0 0 10.77 4.5 6.267 6.267 0 0 0 4.5 10.77a6.267 6.267 0 0 0 9.821 5.165l.343-.237.295.294 3.306 3.297a.707.707 0 0 0 .504.211.74.74 0 0 0 .731-.73z"/>
    </g>
</svg>
