<svg xmlns="http://www.w3.org/2000/svg" width="13" height="15" viewBox="0 0 13 15">
    <path fill="currentColor" fill-rule="evenodd" d="M.312 6.864a.9.9 0 0 0 .7.312.95.95 0 0 0 .714-.312L5.13 3.498v9.836c0 .306.093.555.28.747.186.192.433.287.74.287.306 0 .556-.095.748-.287.191-.192.287-.44.287-.747V3.498l3.403 3.366a.9.9 0 0 0 .699.312c.28 0 .52-.101.723-.304a.986.986 0 0 0 .304-.722.897.897 0 0 0-.312-.698L6.855.312a.985.985 0 0 0-.304-.238A.923.923 0 0 0 6.157 0a.98.98 0 0 0-.403.074.95.95 0 0 0-.312.238l-5.13 5.14A.897.897 0 0 0 0 6.15c0 .279.104.517.312.714z"/>
</svg>
