<svg xmlns="http://www.w3.org/2000/svg" width="14" height="13" viewBox="0 0 14 13">
    <path fill="#C4C4C4" fill-rule="evenodd" d="M12.08 11.815c-.197.165-.268.185-.334.185a.4.4 0 0 1-.211-.065l-.097-.095-.02.02-1.749-1.75a.51.51 0 1 1 .723-.722l.843.844V.51a.51.51 0 0 1 1.021 0v9.72l.844-.843a.51.51 0 1 1 .722.723L12.1 11.834l-.02-.019zM.108.497a.51.51 0 0 1 .51-.51h6.936a.51.51 0 1 1 0 1.021H.618a.51.51 0 0 1-.51-.51zM.094 4.161a.51.51 0 0 1 .51-.51h5.941a.51.51 0 1 1 0 1.021H.605a.51.51 0 0 1-.511-.51zM.08 7.825a.51.51 0 0 1 .511-.51h4.946a.51.51 0 1 1 0 1.021H.591a.51.51 0 0 1-.51-.51zM0 11.49a.51.51 0 0 1 .51-.51h3.952a.51.51 0 0 1 0 1.021H.511A.51.51 0 0 1 0 11.49z"/>
</svg>
