<svg xmlns="http://www.w3.org/2000/svg" width="24" height="24" viewBox="0 0 24 24">
    <g fill="none" fill-rule="evenodd">
        <path d="M0 0h24v24H0z"/>
        <g fill-rule="nonzero">
            <path fill="currentColor" d="M20.243 15.432c-.042-.228-.246-.375-.456-.33l-5.724 1.232a3.892 3.892 0 0 1 .15.822l5.725-1.232c.21-.045.346-.265.305-.492zM9.686 14.063a3.445 3.445 0 0 1 .767-.16L8.735 5.445c-.19-.938-1.098-1.56-2.054-1.433a.392.392 0 0 0-.727-.036.433.433 0 0 1-.317.233l-1.56.303a.392.392 0 0 0-.327.373c0 .252.23.428.469.381l1.571-.305a.441.441 0 0 1 .384.097.395.395 0 0 0 .344.097.385.385 0 0 0 .314-.39 1.057 1.057 0 0 1 1.134.83l1.72 8.468z"/>
            <path stroke="currentColor" d="M10.277 14.141c1.932-.352 3.823.807 4.214 2.615.395 1.822-.885 3.577-2.83 3.931-1.933.352-3.823-.806-4.215-2.615-.395-1.821.886-3.577 2.83-3.93zm.831 3.839c.367-.067.59-.373.526-.67-.067-.311-.426-.53-.805-.462-.367.067-.59.373-.525.67.067.311.425.53.804.462z"/>
            <path fill="currentColor" d="M14.861 15.95l1.31-.258 3.338-.657a.277.277 0 0 0 .22-.326l-1.53-7.642a.28.28 0 0 0-.33-.218l-7.707 1.518a.277.277 0 0 0-.22.326l1.1 5.488c.199.008.394.032.584.074l-1.08-5.399 2.785-.548.206 1.032 1.589-.313-.207-1.032 2.786-.549 1.422 7.1-2.786.548-.206-1.032-1.59.313.208 1.032-1.07.21c.11.16.208.329.291.508l.887-.175z"/>
        </g>
    </g>
</svg>
