<svg xmlns="http://www.w3.org/2000/svg" width="24" height="24" viewBox="0 0 24 24">
    <g fill="none" fill-rule="evenodd">
        <path d="M0 0h24v24H0z"/>
        <g fill="currentColor">
            <path d="M11.333 15.56h1.334v-4h-1.334v4zm1.667.667h-2a.332.332 0 0 1-.333-.334v-4.666c0-.187.149-.334.333-.334h2c.184 0 .333.147.333.334v4.666c0 .187-.149.334-.333.334zM11.814 8.24a.67.67 0 1 0 0 1.342.67.67 0 0 0 0-1.341zm0 2.007c-.737 0-1.337-.6-1.337-1.334 0-.74.6-1.339 1.337-1.339s1.337.6 1.337 1.34c0 .733-.6 1.333-1.337 1.333z"/>
            <path d="M11.81 4.88c-4.043 0-7.333 3.287-7.333 7.333 0 4.041 3.29 7.334 7.334 7.334s7.333-3.293 7.333-7.334a7.339 7.339 0 0 0-7.333-7.332zm0 15.333c-4.41 0-8-3.586-8-8 0-4.412 3.59-8 8-8 4.412 0 8 3.588 8 8 0 4.414-3.588 8-8 8z"/>
        </g>
    </g>
</svg>
