<svg width="24px" height="24px" viewBox="0 0 24 24" version="1.1" xmlns="http://www.w3.org/2000/svg" xmlns:xlink="http://www.w3.org/1999/xlink">
    <g id="Icons-/-Menu-Icons-/-Active-/-Tasks" stroke="none" stroke-width="1" fill="none" fill-rule="evenodd">
        <g>
            <rect id="bg" x="0" y="0" width="24" height="24"></rect>
            <path d="M19.7916663,5.33478217 C19.7916663,4.95286913 19.4736247,4.63913 19.083333,4.63913 L4.91666633,4.63913 C4.52637467,4.63913 4.208333,4.95286913 4.208333,5.33478217 L4.208333,9.8565217 C4.208333,10.2398258 4.52637467,10.5521736 4.91666633,10.5521736 L19.0719997,10.5521736 C19.4686663,10.5521733 19.7916663,10.2398255 19.7916663,9.84956457 L19.7916663,5.33478217 Z M20.5,5.33478235 L20.5,9.86615737 C20.4908508,10.6269911 19.8601604,11.2418544 19.0833333,11.2477825 L4.91666667,11.2478257 C4.13865687,11.2478257 3.50534044,10.6269877 3.5000336,9.86615737 L3.5,5.33478235 C3.5,4.56956496 4.135375,3.943478 4.91666667,3.943478 L19.0833333,3.943478 C19.864625,3.943478 20.5,4.56956496 20.5,5.33478235 Z M12.2583337,9.10869517 L10.1333337,9.10869517 C9.93783367,9.10869517 9.779167,8.9556517 9.779167,8.76086909 C9.779167,8.56678213 9.93783367,8.413043 10.1333337,8.413043 L12.2583337,8.413043 C12.4538337,8.413043 12.6125003,8.56678213 12.6125003,8.76086909 C12.6125003,8.9556517 12.4538337,9.10869517 12.2583337,9.10869517 Z M13.5333337,9.10869517 C13.3378337,9.10869517 13.179167,8.9556517 13.179167,8.76086909 C13.179167,8.56678213 13.3378337,8.413043 13.5333337,8.413043 L16.6583337,8.413043 C16.8538337,8.413043 17.0125003,8.56678213 17.0125003,8.76086909 C17.0125003,8.9556517 16.8538337,9.10869517 16.6583337,9.10869517 L13.5333337,9.10869517 Z M18.2583337,7.10869517 L10.1333337,7.10869517 C9.93783367,7.10869517 9.779167,6.9556517 9.779167,6.76086909 C9.779167,6.56678213 9.93783367,6.413043 10.1333337,6.413043 L18.2583337,6.413043 C18.4538337,6.413043 18.6125003,6.56678213 18.6125003,6.76086909 C18.6125003,6.9556517 18.4538337,7.10869517 18.2583337,7.10869517 Z" id="ico" fill="currentColor"></path>
            <path d="M7.1029908,8.88700948 C6.96518022,9.0132202 6.75236332,9.00631004 6.61783388,8.8717806 L5.45043318,7.7043799 C5.3121938,7.56614053 5.30870951,7.34523627 5.44594971,7.20799607 C5.58368181,7.07026396 5.80409417,7.07424016 5.94233355,7.21247953 L6.87223969,8.14238568 L8.28385219,6.73077318 C8.42209157,6.5925338 8.64299583,6.58904951 8.78023603,6.72628971 C8.91796813,6.86402181 8.91399194,7.08443417 8.77575256,7.22267355 L7.15394616,8.84447995 C7.13797333,8.86045278 7.12090345,8.87463312 7.1029908,8.88700948 Z" id="Combined-Shape" fill="currentColor"></path>
            <path d="M19.7916663,14.0347822 C19.7916663,13.6528691 19.4736247,13.33913 19.083333,13.33913 L4.91666633,13.33913 C4.52637467,13.33913 4.208333,13.6528691 4.208333,14.0347822 L4.208333,18.5565217 C4.208333,18.9398258 4.52637467,19.2521736 4.91666633,19.2521736 L19.0719997,19.2521736 C19.4686663,19.2521733 19.7916663,18.9398255 19.7916663,18.5495646 L19.7916663,14.0347822 Z M20.5,14.0347823 L20.5,18.5661574 C20.4908508,19.3269911 19.8601604,19.9418544 19.0833333,19.9477825 L4.91666667,19.9478257 C4.13865687,19.9478257 3.50534044,19.3269877 3.5000336,18.5661574 L3.5,14.0347823 C3.5,13.269565 4.135375,12.643478 4.91666667,12.643478 L19.0833333,12.643478 C19.864625,12.643478 20.5,13.269565 20.5,14.0347823 Z M12.2583337,17.8086952 L10.1333337,17.8086952 C9.93783367,17.8086952 9.779167,17.6556517 9.779167,17.4608691 C9.779167,17.2667821 9.93783367,17.113043 10.1333337,17.113043 L12.2583337,17.113043 C12.4538337,17.113043 12.6125003,17.2667821 12.6125003,17.4608691 C12.6125003,17.6556517 12.4538337,17.8086952 12.2583337,17.8086952 Z M18.2583337,15.8086952 L10.1333337,15.8086952 C9.93783367,15.8086952 9.779167,15.6556517 9.779167,15.4608691 C9.779167,15.2667821 9.93783367,15.113043 10.1333337,15.113043 L18.2583337,15.113043 C18.4538337,15.113043 18.6125003,15.2667821 18.6125003,15.4608691 C18.6125003,15.6556517 18.4538337,15.8086952 18.2583337,15.8086952 Z" id="ico" fill="currentColor"></path>
            <path d="M6.3,15.45 C6.21715729,15.45 6.15,15.5171573 6.15,15.6 L6.15,17.3 C6.15,17.3828427 6.21715729,17.45 6.3,17.45 L8,17.45 C8.08284271,17.45 8.15,17.3828427 8.15,17.3 L8.15,15.6 C8.15,15.5171573 8.08284271,15.45 8,15.45 L6.3,15.45 Z" id="Rectangle-12" stroke="currentColor" stroke-width="0.7" fill-rule="nonzero"></path>
        </g>
    </g>
</svg>