<svg width="20" height="25" viewBox="0 0 20 25" fill="none" xmlns="http://www.w3.org/2000/svg">
<path d="M2.99193 24.3731H17.0204C18.6724 24.3867 19.9994 23.0596 20.0129 21.4076C20.0129 21.3941 20.0129 21.3941 20.0129 21.3806V2.99193C20.0264 1.33993 18.6994 0.0129112 17.0474 -0.000629707C17.0339 -0.000629707 17.0339 -0.000629707 17.0204 -0.000629707H2.99193C1.33993 -0.0141707 0.0129113 1.31284 -0.000629707 2.96485C-0.000629707 2.97839 -0.000629707 2.97839 -0.000629707 2.99193V21.3806C-0.0141707 23.0325 1.31284 24.3596 2.96485 24.3731C2.97839 24.3731 2.97839 24.3731 2.99193 24.3731ZM1.38055 2.99193C1.38055 2.09822 2.09822 1.38055 2.99193 1.38055H17.0204C17.9141 1.38055 18.6317 2.09822 18.6317 2.99193V21.3806C18.6317 22.2743 17.9141 22.9919 17.0204 22.9919H2.99193C2.09822 22.9919 1.38055 22.2743 1.38055 21.3806V2.99193Z" fill="#2D9CDB"/>
<path d="M9.83072 19.675C9.70887 19.675 9.57346 19.6344 9.46512 19.5667L3.84564 16.019C3.64252 15.8971 3.53418 15.6804 3.53418 15.4502V9.15367C3.53418 8.88287 3.69667 8.63913 3.95395 8.53079L9.72241 6.14759C9.88489 6.07987 10.0745 6.07987 10.237 6.14759L16.019 8.53079C16.2762 8.63913 16.4387 8.88287 16.4387 9.15367V15.8294C16.4387 16.0731 16.3033 16.3033 16.0867 16.4252L10.1557 19.5938C10.0474 19.6479 9.93907 19.675 9.83072 19.675ZM4.88829 15.0711L9.85781 18.2126L15.0846 15.4232V9.60053L9.97969 7.50167L4.88829 9.60053V15.0711Z" fill="#2D9CDB"/>
<path d="M9.77662 19.6479C9.39748 19.6479 9.09957 19.35 9.09957 18.9709V11.9431L4.06234 9.68175C3.72382 9.5328 3.57485 9.12658 3.72382 8.78806C3.87277 8.44952 4.27899 8.30058 4.61751 8.44952L10.0475 10.9004C10.2912 11.0088 10.4401 11.2525 10.4401 11.5233V18.9844C10.4537 19.35 10.1558 19.6479 9.77662 19.6479Z" fill="#2D9CDB"/>
<path d="M9.77648 12.1868C9.50565 12.1868 9.2484 12.0244 9.14005 11.7535C9.00465 11.4015 9.18068 11.0088 9.5192 10.8734L15.5043 8.51725C15.8564 8.38185 16.2491 8.55788 16.3845 8.89639C16.5199 9.23491 16.3439 9.64113 16.0053 9.77656L10.0202 12.1462C9.93897 12.1733 9.85774 12.1868 9.77648 12.1868Z" fill="#2D9CDB"/>
</svg>
