<svg width="11" height="15" viewBox="0 0 11 15" version="1.1" xmlns="http://www.w3.org/2000/svg" xmlns:xlink="http://www.w3.org/1999/xlink">
<g id="Canvas" fill="none">
<g id="Group 2">
<g id="Group">
<path id="Vector" d="M 10.5 14L 0.5 14C 0.2 14 0 13.8 0 13.5L 0 0.5C 0 0.2 0.2 0 0.5 0L 10.5 0C 10.8 0 11 0.2 11 0.5L 11 13.5C 11 13.8 10.8 14 10.5 14ZM 1 13L 10 13L 10 1L 1 1L 1 13Z" transform="translate(0 0.0130615)" fill="currentColor"/>
</g>
<g id="Group_2">
<path id="Vector_2" d="M 2.5 1L 0.5 1C 0.2 1 0 0.8 0 0.5C 0 0.2 0.2 0 0.5 0L 2.5 0C 2.8 0 3 0.2 3 0.5C 3 0.8 2.8 1 2.5 1Z" transform="translate(6 3.01306)" fill="currentColor"/>
</g>
<g id="Group_3">
<path id="Vector_3" d="M 2.5 1L 0.5 1C 0.2 1 0 0.8 0 0.5C 0 0.2 0.2 0 0.5 0L 2.5 0C 2.8 0 3 0.2 3 0.5C 3 0.8 2.8 1 2.5 1Z" transform="translate(2 3.01306)" fill="currentColor"/>
</g>
<g id="Group_4">
<path id="Vector_4" d="M 6.5 1L 0.5 1C 0.2 1 0 0.8 0 0.5C 0 0.2 0.2 0 0.5 0L 6.5 0C 6.8 0 7 0.2 7 0.5C 7 0.8 6.8 1 6.5 1Z" transform="translate(2 6.01306)" fill="currentColor"/>
</g>
<g id="Group_5">
<path id="Vector_5" d="M 6.5 1L 0.5 1C 0.2 1 0 0.8 0 0.5C 0 0.2 0.2 0 0.5 0L 6.5 0C 6.8 0 7 0.2 7 0.5C 7 0.8 6.8 1 6.5 1Z" transform="translate(2 8.01306)" fill="currentColor"/>
</g>
<g id="Group_6">
<path id="Vector_6" d="M 3.5 1L 0.5 1C 0.2 1 0 0.8 0 0.5C 0 0.2 0.2 0 0.5 0L 3.5 0C 3.8 0 4 0.2 4 0.5C 4 0.8 3.8 1 3.5 1Z" transform="translate(2 10.0131)" fill="currentColor"/>
</g>
</g>
</g>
</svg>
