<svg xmlns="http://www.w3.org/2000/svg" xmlns:xlink="http://www.w3.org/1999/xlink" width="174" height="176" viewBox="0 0 174 176">
    <defs>
        <path id="a" d="M89 69h51.948v43.398H89z"/>
    </defs>
    <g fill="none" fill-rule="evenodd">
        <path fill="#F0F0F0" d="M-729-244H711V756H-729z"/>
        <g transform="translate(-10 -17)">
            <path d="M0 0h200v200H0z"/>
            <rect width="135" height="173" x="40.5" y="18.5" fill="#F0F0F0" stroke="#444" stroke-width="3" rx="10"/>
            <path fill="#DDD" d="M52 20h6v170h-6c-5.523 0-10-4.477-10-10V30c0-5.523 4.477-10 10-10z"/>
            <path fill="#444" d="M58 19h3v172h-3z"/>
            <rect width="144" height="3" x="40" y="190" fill="#444" rx="1.5"/>
            <rect width="16" height="3" x="18" y="190" fill="#444" rx="1.5"/>
            <path fill="#DDD" d="M83.5 123h67a1.5 1.5 0 0 1 0 3h-67a1.5 1.5 0 0 1 0-3zm0 7h67a1.5 1.5 0 0 1 0 3h-67a1.5 1.5 0 0 1 0-3zm0 7h67a1.5 1.5 0 0 1 0 3h-67a1.5 1.5 0 0 1 0-3zm0 7h53a1.5 1.5 0 0 1 0 3h-53a1.5 1.5 0 0 1 0-3zM74 121.252c3.45.888 6 4.02 6 7.748v40a8 8 0 0 1-8 8H22a8 8 0 0 1-8-8v-40c0-3.728 2.55-6.86 6-7.748V113c0-14.912 12.088-27 27-27s27 12.088 27 27v8.252zM32 121h30v-8c0-8.284-6.716-15-15-15-8.284 0-15 6.716-15 15v8z"/>
            <path fill="#F0F0F0" stroke="#444" stroke-width="3" d="M59.5 140.444a25.45 25.45 0 0 0 9-19.444v-12c0-14.083-11.417-25.5-25.5-25.5S17.5 94.917 17.5 109v12a25.45 25.45 0 0 0 9 19.444V109c0-9.113 7.387-16.5 16.5-16.5s16.5 7.387 16.5 16.5v31.444z"/>
            <rect width="63" height="53" x="11.5" y="118.5" fill="#F0F0F0" stroke="#444" stroke-width="3" rx="8"/>
            <path fill="#F0F0F0" stroke="#444" stroke-width="3" d="M40 142a5 5 0 1 1 6 0v10a3 3 0 0 1-6 0v-10z"/>
            <path fill="#DDD" d="M116.213 100.955V96.44c-1.183-.518-2.188-1.255-3.26-1.966-1.06-.703-2.192-1.077-3.373-1.539a7.253 7.253 0 0 1-1.21-.61c-.094-.017-.179-.054-.27-.076.618 2.595-1.379 5.409-3.839 6.085-2.92.803-5.556-1.014-6.53-3.709-.136-.372-.45-1.375-.498-1.617l-.002-.007c-.079.07-.174.147-.31.239-1.774 1.209-3.979 1.365-5.728 2.523a5.679 5.679 0 0 1-.642.367v9.242h22.422c.183-1.912 1.264-3.718 3.24-4.417"/>
            <path fill="#DDD" d="M137.098 100.382c-1.06-.703-3.15-.879-4.332-1.34-.428-.168.871.425.493.19-.093-.018-.4-.168-.493-.19.418 1.754-.82 3.388-2.128 4.614-1.526 1.31-1.985 1.416-3.894 1.416-1.544 0-2.683.072-3.065-1.052-1.252-.675-2.244-1.854-2.763-3.288-.135-.373-.449-1.376-.497-1.619l-.002-.006c-.079.07-.173.147-.309.24-1.776 1.208-3.98 1.364-5.729 2.522a6.015 6.015 0 0 1-.64.367v9.243H139.4c.182-1.913 0-3.309 0-4.418v-4.515c-1.183-.518-1.23-1.454-2.302-2.164"/>
            <mask id="b" fill="#fff">
                <use xlink:href="#a"/>
            </mask>
            <path fill="#444" d="M138.784 110.234h-24.25v-5.324a3.791 3.791 0 0 1 3.787-3.788 1.3 1.3 0 0 0 .108-.005 6.772 6.772 0 0 0 1.092-.123 7.48 7.48 0 0 0 7.138 5.287 7.48 7.48 0 0 0 7.138-5.287c.355.07.72.111 1.092.123.037.003.072.005.108.005a3.791 3.791 0 0 1 3.787 3.788v5.324zm-26.347-6.017H91.165v-5.324a3.79 3.79 0 0 1 3.787-3.787.946.946 0 0 0 .107-.006 6.7 6.7 0 0 0 2.218-.449l5.123 7.395a1.081 1.081 0 0 0 1.78 0l5.124-7.395a6.688 6.688 0 0 0 2.217.45.946.946 0 0 0 .107.005 3.795 3.795 0 0 1 3.095 1.604l.003.003c.429.61.69 1.344.69 2.147v.888a5.923 5.923 0 0 0-2.98 4.47zm-11.025-14.309a6.25 6.25 0 0 0 1.878.29c.642 0 1.272-.098 1.879-.286a6.763 6.763 0 0 0 2.262 3.64l-4.141 5.977-4.142-5.977a6.754 6.754 0 0 0 2.264-3.644zm-3.84-8.675a9.684 9.684 0 0 0 2.244-3.076 3.438 3.438 0 0 0 2.079.694h5.66c.679 0 1.267.397 1.545.971-.006 2.248-.647 4.348-1.806 5.917-1.093 1.48-2.515 2.294-4.004 2.294-1.378 0-2.72-.712-3.778-2.005-1.027-1.253-1.707-2.94-1.94-4.795zm2.537-9.165c.284-.082.584-.13.893-.145.159-.006.314-.049.455-.123a5.396 5.396 0 0 1 2.529-.636c3.194 0 5.802 2.81 5.906 6.307a3.865 3.865 0 0 0-2.337-.785h-5.66a1.297 1.297 0 0 1-1.202-.812 1.265 1.265 0 0 0-1.257-.792 1.272 1.272 0 0 0-1.15.95 7.425 7.425 0 0 1-1.492 2.887c-.561-3.138.852-6.139 3.315-6.85zm24.672 23.855a6.245 6.245 0 0 0 1.873.291c.648 0 1.278-.1 1.883-.29a6.768 6.768 0 0 0 3.228 4.311 5.31 5.31 0 0 1-5.106 3.882 5.309 5.309 0 0 1-5.105-3.882 6.773 6.773 0 0 0 3.227-4.312zm-3.684-7.717a6.483 6.483 0 0 1 1.305-.674 6.358 6.358 0 0 1 2.457-.395c2.089.072 3.979-.954 4.943-2.678a8.99 8.99 0 0 0 .172-.322 7.517 7.517 0 0 1 2.465 2.505 1.605 1.605 0 0 0-.012.097c-.166 2.054-.874 3.938-1.995 5.307-1.058 1.292-2.4 2.004-3.778 2.004-2.548 0-4.814-2.422-5.557-5.844zm-2.662-.589a11.602 11.602 0 0 1-.351-2.478c-.081-2.52.639-4.905 2.029-6.715 1.34-1.746 3.147-2.742 5.086-2.804.065-.002 1.46-.08 2.884.637.159.081.343.118.52.113.022 0 .577-.027.593-.027 1.626.011 3.183.786 4.384 2.181 1.25 1.454 1.977 3.412 2.044 5.512a9.426 9.426 0 0 1-.463 3.272 10.733 10.733 0 0 0-.342-.805c-1.045-2.223-2.804-3.945-4.953-4.849a1.082 1.082 0 0 0-1.434.622 8.051 8.051 0 0 1-.52 1.127c-.566 1.013-1.708 1.616-2.978 1.572a8.577 8.577 0 0 0-3.293.53c-.857.325-2.3 1.137-3.206 2.112zm16.775 11.346a1.257 1.257 0 0 0-.107-.005 4.588 4.588 0 0 1-4.552-4.06c1.325-.966 2.418-2.413 3.137-4.173a1.08 1.08 0 0 0 1.035.766c.329 0 .646-.15.854-.417 1.51-1.94 2.295-4.464 2.21-7.107-.082-2.593-.994-5.028-2.566-6.855-1.611-1.87-3.737-2.912-5.99-2.933a7.683 7.683 0 0 0-.463.008 8.103 8.103 0 0 0-3.638-.73c-2.6.083-4.992 1.38-6.734 3.65-1.693 2.205-2.573 5.082-2.476 8.101.016.511.056.982.122 1.431a13.072 13.072 0 0 0 1.054 3.661 1.079 1.079 0 0 0 1.907.115c.087-.142.199-.32.322-.493.482 1.465 1.22 2.782 2.156 3.821.4.444.83.83 1.285 1.158a4.588 4.588 0 0 1-4.551 4.057 1.28 1.28 0 0 0-.108.005c-.18.007-.35.05-.526.071v-.174c0-2.76-1.818-5.034-4.356-5.696a5.882 5.882 0 0 0-.786-.159c-.024-.003-.046-.012-.07-.015v.008a5.927 5.927 0 0 0-.635-.056 4.59 4.59 0 0 1-4.552-4.052 8.628 8.628 0 0 0 1.853-1.865c1.117-1.513 1.843-3.404 2.112-5.448a1.07 1.07 0 0 0 .2-.313 9.17 9.17 0 0 0 .714-3.575c0-4.79-3.622-8.689-8.074-8.689a7.517 7.517 0 0 0-3.325.777 5.944 5.944 0 0 0-1.152.212c-3.723 1.076-5.827 5.576-4.691 10.033.114.448.26.89.433 1.31.047.115.113.216.19.305.429 3.147 1.919 5.766 3.956 7.247a4.588 4.588 0 0 1-4.552 4.058A5.958 5.958 0 0 0 89 98.893v6.406c0 .598.485 1.083 1.083 1.083h22.286v4.934c0 .598.484 1.082 1.082 1.082h26.415c.598 0 1.083-.484 1.083-1.082v-6.406a5.959 5.959 0 0 0-5.74-5.947z" mask="url(#b)"/>
        </g>
    </g>
</svg>
