<svg xmlns="http://www.w3.org/2000/svg" width="24" height="24" viewBox="0 0 24 24">
    <g fill="none" fill-rule="evenodd">
        <path d="M0 0h24v24H0z"/>
        <g fill="currentColor">
            <path d="M22.161 19.9a.337.337 0 0 1-.338-.338v-.678c0-1.6-2.405-2.317-4.113-2.317a.335.335 0 0 1-.265-.129l-1.57-1.978a.335.335 0 0 1 .053-.474.332.332 0 0 1 .477.054l1.47 1.85c1.92.047 4.625.86 4.625 2.994v.678c0 .19-.152.338-.339.338M9.629 4.488c-1.099 0-2.227.475-2.237.482a.313.313 0 0 1-.134.026c-.933 0-1.693.76-1.693 1.695v1.354a.341.341 0 0 1-.2.312c-.241.108-.464.29-.478.366v1.354c0 .17.209.34.413.34.188 0 .339.149.339.338 0 1.68 1.424 3.726 3.086 3.726 1.658 0 2.993-2.04 2.993-3.726 0-.19.151-.339.338-.339.195 0 .283-.169.283-.339V8.723c0-.339 0-.339-.339-.339a.338.338 0 0 1-.339-.34V6.692c0-1.485-.664-2.203-2.032-2.203zm-.904 10.67c-1.985 0-3.602-2.18-3.752-4.112-.432-.142-.763-.535-.763-.969V8.723c0-.42.41-.732.677-.88V6.69A2.379 2.379 0 0 1 7.188 4.32c.273-.11 1.346-.508 2.441-.508 1.748 0 2.71 1.023 2.71 2.879v1.043c.677.135.677.677.677.989v1.354c0 .454-.255.827-.631.962-.138 1.965-1.688 4.119-3.66 4.119z"/>
            <path d="M15.537 14.42c-.865 0-1.611-.177-2.289-.366a.334.334 0 0 1-.235-.414.34.34 0 0 1 .417-.237c.631.176 1.324.339 2.107.339 3.31 0 4.617-1.618 5.03-2.33-.305-.515-1.14-1.964-1.296-2.629-.27-1.138-1.173-3.793-3.734-3.793a3.2 3.2 0 0 0-1.442.338.333.333 0 0 1-.456-.149.34.34 0 0 1 .15-.454 3.888 3.888 0 0 1 1.748-.413c2.145 0 3.746 1.572 4.394 4.316.133.562.995 2.066 1.315 2.6.06.096.065.225.013.326-.897 1.795-3.036 2.865-5.722 2.865M1.839 19.9a.337.337 0 0 1-.339-.338v-.678c0-2.026 1.421-3.387 3.537-3.387h.845l.995-1.355a.337.337 0 0 1 .473-.075.34.34 0 0 1 .073.475l-1.096 1.496a.355.355 0 0 1-.274.136H5.037c-1.737 0-2.86 1.063-2.86 2.71v.678c0 .19-.151.338-.338.338M16.065 19.9a.337.337 0 0 1-.34-.338v-.678c0-1.782-1.6-2.71-3.181-2.71h-1.016a.345.345 0 0 1-.287-.155l-1.005-1.6a.337.337 0 0 1 .106-.467.339.339 0 0 1 .468.102l.905 1.443h.829c2.2 0 3.86 1.456 3.86 3.387v.678c0 .19-.153.338-.34.338"/>
            <path d="M6.812 16.71l.705 1.584.705-.704-1.41-.88zm.596 2.512c-.02 0-.042 0-.062-.007a.34.34 0 0 1-.248-.195L5.743 15.97a.342.342 0 0 1 .088-.393.34.34 0 0 1 .401-.027l2.71 1.693a.332.332 0 0 1 .157.245.326.326 0 0 1-.097.277L7.648 19.12a.327.327 0 0 1-.24.101z"/>
            <path d="M9.303 17.59l.705.704.705-1.584-1.41.88zm.814 1.632a.325.325 0 0 1-.24-.101l-1.354-1.355a.324.324 0 0 1-.097-.277.33.33 0 0 1 .156-.245l2.71-1.693a.34.34 0 0 1 .402.027.34.34 0 0 1 .087.393l-1.355 3.049a.34.34 0 0 1-.247.195c-.02.007-.042.007-.062.007z"/>
        </g>
    </g>
</svg>
