<svg width="15" height="9" viewBox="0 0 15 9" fill="none" xmlns="http://www.w3.org/2000/svg">
<path d="M13.8523 3.90789C13.9705 4.08553 14.0295 4.29276 14.0295 4.5C14.0295 4.70724 13.9705 4.91447 13.8523 5.09211C13.1435 6.27632 12.1983 7.22368 11.0169 7.93421C9.80591 8.64474 8.4768 9 7.02954 9C5.58228 9 4.25317 8.64474 3.0422 7.93421C1.83123 7.22368 0.886081 6.27632 0.206756 5.09211C0.0886127 4.91447 0.029541 4.70724 0.029541 4.5C0.029541 4.29276 0.0886127 4.08553 0.206756 3.90789C0.915617 2.72368 1.86076 1.77632 3.0422 1.06579C4.25317 0.355263 5.58228 0 7.02954 0C8.4768 0 9.80591 0.355263 11.0169 1.06579C12.1983 1.77632 13.173 2.72368 13.8523 3.90789ZM13.2025 4.67763C13.2911 4.55921 13.2911 4.41118 13.2025 4.29276C12.8481 3.67105 12.4051 3.13816 11.8734 2.63487C11.3418 2.13158 10.7511 1.74671 10.1013 1.45066C10.6625 2.13158 10.9283 2.90132 10.9283 3.78947C10.9283 4.47039 10.7511 5.12171 10.3966 5.68421C10.0422 6.27632 9.56962 6.72039 8.97891 7.07566C8.38819 7.43092 7.7384 7.57895 7.02954 7.57895C6.32068 7.57895 5.67089 7.40132 5.08017 7.07566C4.48946 6.72039 4.01688 6.27632 3.66245 5.68421C3.30802 5.09211 3.13081 4.47039 3.13081 3.78947C3.13081 2.90132 3.39663 2.13158 3.95781 1.45066C3.30802 1.74671 2.7173 2.16118 2.18566 2.63487C1.65401 3.10855 1.18144 3.70066 0.827009 4.29276C0.738402 4.41118 0.738402 4.55921 0.827009 4.67763C1.44726 5.74342 2.33334 6.60197 3.42617 7.25329C4.51899 7.90461 5.72996 8.20066 7 8.20066C8.27005 8.20066 9.48102 7.875 10.5738 7.25329C11.6962 6.63158 12.5823 5.77303 13.2025 4.67763ZM10.1308 3.81908C10.1308 3.25658 9.98313 2.75329 9.71731 2.27961C9.45148 1.80592 9.06752 1.45066 8.59494 1.18421C8.12237 0.917763 7.59072 0.769737 7.02954 0.769737C6.46836 0.769737 5.93671 0.917763 5.46414 1.18421C4.99157 1.45066 4.6076 1.80592 4.34178 2.27961C4.07595 2.75329 3.92827 3.25658 3.92827 3.81908C3.92827 4.38158 4.07595 4.88487 4.34178 5.35855C4.6076 5.83224 4.99157 6.1875 5.46414 6.45395C5.93671 6.72039 6.46836 6.86842 7.02954 6.86842C7.59072 6.86842 8.12237 6.72039 8.59494 6.45395C9.06752 6.1875 9.45148 5.83224 9.71731 5.35855C9.98313 4.88487 10.1308 4.35197 10.1308 3.81908ZM5.46414 3.70066C5.46414 4.14474 5.61182 4.5 5.90718 4.82566C6.20254 5.12171 6.5865 5.26974 7.02954 5.26974C7.47258 5.26974 7.82701 5.12171 8.1519 4.82566C8.44726 4.5296 8.59494 4.14474 8.59494 3.70066C8.59494 3.25658 8.44726 2.90132 8.1519 2.57566C7.85654 2.27961 7.47258 2.13158 7.02954 2.13158C6.76372 2.13158 6.52743 2.19079 6.29114 2.33882C6.46836 2.33882 6.61604 2.39803 6.73418 2.51645C6.85232 2.63487 6.9114 2.78289 6.9114 2.96053C6.9114 3.13816 6.85232 3.28618 6.73418 3.40461C6.61604 3.52303 6.46836 3.58224 6.29114 3.58224C6.11393 3.58224 5.96625 3.52303 5.84811 3.40461C5.72996 3.28618 5.67089 3.13816 5.67089 2.96053C5.52321 3.19737 5.46414 3.46382 5.46414 3.70066Z" fill="#0076BF"/>
</svg>
