<svg width="40" height="34" viewBox="0 0 40 34" fill="none" xmlns="http://www.w3.org/2000/svg">
<path fill-rule="evenodd" clip-rule="evenodd" d="M39.48 28.2C39.48 27.2 39.2 26.2 38.64 25.36L24.48 3.23999C23.48 1.71999 21.84 0.799988 20 0.799988C18.2 0.799988 16.52 1.71999 15.52 3.23999L1.35999 25.32C0.319988 26.96 0.239988 29.04 1.15999 30.72C2.07999 32.44 3.87999 33.48 5.79999 33.48H34.16C36.12 33.48 37.88 32.44 38.8 30.72C39.24 29.96 39.48 29.08 39.48 28.2ZM36.68 29.6C36.16 30.52 35.2 31.08 34.16 31.08H5.83999C4.79999 31.08 3.79999 30.52 3.31999 29.6C2.79999 28.68 2.83999 27.56 3.39999 26.68L17.6 4.55999C18.12 3.71999 19.04 3.23999 20.04 3.23999C21.04 3.23999 21.92 3.71999 22.48 4.55999L36.64 26.68C36.92 27.12 37.08 27.68 37.08 28.24C37.04 28.68 36.92 29.16 36.68 29.6ZM21.44 23.68H18.52V26.76H21.44V23.68ZM18.52 11.12H21.44V21.08H18.52V11.12Z" fill="#E00000"/>
</svg>
