<svg width="17" height="8" viewBox="0 0 17 8" fill="none" xmlns="http://www.w3.org/2000/svg">
<path d="M8.49042 7.43867L15.6772 1.38666L15.7907 1.2921C15.9311 1.14664 16.008 0.95134 16.0045 0.749174C16.0027 0.649071 15.9812 0.550294 15.9413 0.458483C15.9014 0.366672 15.8438 0.283625 15.7717 0.214084C15.6997 0.144542 15.6147 0.0898676 15.5215 0.0531822C15.4284 0.0164972 15.3289 -0.00148052 15.2288 0.00027568C15.0266 0.00382241 14.8342 0.0875345 14.6937 0.232996L7.99869 5.86893L1.30365 0.232997L1.19018 0.138434C1.10841 0.0807594 1.01602 0.0398787 0.918341 0.0181593C0.820665 -0.00356017 0.719651 -0.00568733 0.621147 0.0119027C0.522644 0.0294923 0.428609 0.0664491 0.344487 0.120633C0.260366 0.174816 0.18783 0.245149 0.131078 0.32756C0.0194696 0.49427 -0.0231806 0.697748 0.0120853 0.895245C0.0473532 1.09274 0.157793 1.26888 0.320203 1.38666L7.50696 7.43867C7.62691 7.53337 7.77111 7.59237 7.92304 7.60888C8.12724 7.62947 8.33127 7.56826 8.49042 7.43867Z" fill="#666666"/>
</svg>
