<svg width="10" height="10" viewBox="0 0 10 10" fill="none" xmlns="http://www.w3.org/2000/svg">
<path fill-rule="evenodd" clip-rule="evenodd" d="M5.82263 4.99999L9.11484 8.2922C9.34211 8.51948 9.34211 8.88797 9.11484 9.11525C8.88756 9.34253 8.51906 9.34253 8.29178 9.11525L4.99958 5.82304L1.70738 9.11525C1.4801 9.34253 1.11161 9.34253 0.884327 9.11525C0.657047 8.88797 0.657047 8.51948 0.884327 8.2922L4.17653 4.99999L0.884327 1.70779C0.657047 1.48051 0.657047 1.11202 0.884327 0.884739C1.11161 0.657459 1.4801 0.657459 1.70738 0.884739L4.99958 4.17694L8.29178 0.884739C8.51906 0.657459 8.88756 0.657459 9.11484 0.884739C9.34211 1.11202 9.34211 1.48051 9.11484 1.70779L5.82263 4.99999Z" fill="#5D5D5D"/>
</svg>
