<svg width="12" height="12" viewBox="0 0 12 12" fill="none" xmlns="http://www.w3.org/2000/svg">
<path fill-rule="evenodd" clip-rule="evenodd" d="M7.15227 6L11.7614 10.6091C12.0795 10.9273 12.0795 11.4432 11.7614 11.7614C11.4432 12.0795 10.9273 12.0795 10.6091 11.7614L6 7.15227L1.39091 11.7614C1.07272 12.0795 0.556834 12.0795 0.238643 11.7614C-0.0795477 11.4432 -0.0795477 10.9273 0.238643 10.6091L4.84773 6L0.238643 1.39091C-0.0795477 1.07272 -0.0795477 0.556834 0.238643 0.238643C0.556834 -0.0795477 1.07272 -0.0795477 1.39091 0.238643L6 4.84773L10.6091 0.238643C10.9273 -0.0795477 11.4432 -0.0795477 11.7614 0.238643C12.0795 0.556834 12.0795 1.07272 11.7614 1.39091L7.15227 6Z" fill="#A4A4A4"/>
</svg>