<svg width="24" height="24" viewBox="0 0 24 24" fill="none" xmlns="http://www.w3.org/2000/svg">
<path fill-rule="evenodd" clip-rule="evenodd" d="M13.9754 11.9999L21.8767 19.9012C22.4221 20.4467 22.4221 21.3311 21.8767 21.8766C21.3312 22.422 20.4468 22.422 19.9014 21.8766L12.0001 13.9753L4.09878 21.8766C3.55331 22.422 2.66893 22.422 2.12346 21.8766C1.57799 21.3311 1.57799 20.4467 2.12346 19.9012L10.0247 11.9999L2.12346 4.09866C1.57799 3.55319 1.57799 2.66881 2.12346 2.12334C2.66893 1.57787 3.55331 1.57787 4.09878 2.12334L12.0001 10.0246L19.9014 2.12334C20.4468 1.57787 21.3312 1.57787 21.8767 2.12334C22.4221 2.66881 22.4221 3.55319 21.8767 4.09866L13.9754 11.9999Z" fill="white"/>
</svg>
