<svg width="22" height="22" viewBox="0 0 22 22" fill="none" xmlns="http://www.w3.org/2000/svg">
<path fill-rule="evenodd" clip-rule="evenodd" d="M16.4732 1.50244C14.8098 0.482927 12.9854 0 11 0C9.01464 0 7.19024 0.482927 5.52683 1.50244C3.80976 2.52195 2.46829 3.86342 1.50244 5.52683C0.482926 7.19024 0 9.01464 0 11C0 12.9854 0.536585 14.8098 1.50244 16.4732C2.52195 18.1902 3.86341 19.5317 5.52683 20.4976C7.19024 21.5171 9.01464 22 11 22C12.9854 22 14.7561 21.5171 16.4732 20.4976C18.1902 19.4781 19.4781 18.1366 20.4976 16.4732C21.5171 14.8098 22 12.9854 22 11C22 9.01464 21.5171 7.2439 20.4976 5.52683C19.4781 3.80976 18.1366 2.52195 16.4732 1.50244ZM6.22439 2.68293C7.67317 1.82439 9.28293 1.39512 11 1.39512C12.7171 1.39512 14.3268 1.82439 15.7756 2.68293C17.2244 3.54146 18.4049 4.72195 19.2634 6.17073C20.122 7.61951 20.5512 9.22927 20.5512 10.9463C20.5512 12.6634 20.122 14.2732 19.2634 15.722C18.4049 17.1707 17.2244 18.3512 15.7756 19.2098C14.3268 20.0683 12.7171 20.4976 11 20.4976C9.28293 20.4976 7.67317 20.0683 6.22439 19.2098C4.77561 18.3512 3.59512 17.1707 2.73659 15.722C1.87805 14.2732 1.44878 12.6634 1.44878 10.9463C1.44878 9.22927 1.87805 7.61951 2.73659 6.17073C3.59512 4.72195 4.77561 3.54146 6.22439 2.68293ZM9.55924 15.8316C9.79655 16.0227 10.1146 16.0482 10.3722 15.923C10.4814 15.8742 10.5807 15.7991 10.6597 15.6988L17.3374 7.22489C17.5971 6.89538 17.5394 6.41912 17.2085 6.16114C16.8777 5.90316 16.399 5.96115 16.1394 6.29066L9.9245 14.1773L5.73965 10.8065C5.41331 10.5436 4.93431 10.594 4.66978 10.9189C4.40524 11.2439 4.45534 11.7205 4.78168 11.9833L9.55924 15.8316Z" fill="#1BB934"/>
</svg>
