<svg width="26" height="26" viewBox="0 0 26 26" fill="none" xmlns="http://www.w3.org/2000/svg">
<path d="M13 2C14.9854 2 16.8098 2.48293 18.4732 3.50244C20.1366 4.52195 21.4781 5.80976 22.4976 7.52683C23.5171 9.2439 24 11.0146 24 13C24 14.9854 23.5171 16.8098 22.4976 18.4732C21.4781 20.1366 20.1902 21.4781 18.4732 22.4976C16.7561 23.5171 14.9854 24 13 24C11.0146 24 9.19024 23.5171 7.52683 22.4976C5.86341 21.5317 4.52195 20.1902 3.50244 18.4732C2.53659 16.8098 2 14.9854 2 13C2 11.0146 2.48293 9.19024 3.50244 7.52683C4.46829 5.86342 5.80976 4.52195 7.52683 3.50244C9.19024 2.48293 11.0146 2 13 2ZM13 3.39512C11.2829 3.39512 9.67317 3.82439 8.22439 4.68293C6.77561 5.54146 5.59512 6.72195 4.73659 8.17073C3.87805 9.61951 3.44878 11.2293 3.44878 12.9463C3.44878 14.6634 3.87805 16.2732 4.73659 17.722C5.59512 19.1707 6.77561 20.3512 8.22439 21.2098C9.67317 22.0683 11.2829 22.4976 13 22.4976C14.7171 22.4976 16.3268 22.0683 17.7756 21.2098C19.2244 20.3512 20.4049 19.1707 21.2634 17.722C22.122 16.2732 22.5512 14.6634 22.5512 12.9463C22.5512 11.2293 22.122 9.61951 21.2634 8.17073C20.4049 6.72195 19.2244 5.54146 17.7756 4.68293C16.3268 3.82439 14.7171 3.39512 13 3.39512ZM13 16.7024C13.3756 16.7024 13.6439 16.8098 13.8585 17.078C14.0732 17.2927 14.2341 17.6146 14.2341 17.9366C14.2341 18.3122 14.1268 18.5805 13.8585 18.7951C13.6439 19.0098 13.322 19.1707 13 19.1707C12.6244 19.1707 12.3561 19.0634 12.1415 18.7951C11.9268 18.5805 11.7659 18.2585 11.7659 17.9366C11.7659 17.561 11.8732 17.2927 12.1415 17.078C12.3561 16.8098 12.6244 16.7024 13 16.7024ZM12.5171 7.3122C12.3561 7.3122 12.1951 7.36585 12.0878 7.47317C11.9805 7.58049 11.9268 7.6878 11.9805 7.84878L12.3024 15.3073C12.3024 15.4146 12.3561 15.522 12.4634 15.6293C12.5707 15.7366 12.6781 15.7902 12.839 15.7902H13.2146C13.3756 15.7902 13.4829 15.7366 13.5902 15.6293C13.6976 15.522 13.7512 15.4146 13.7512 15.2537L14.0732 7.79512C14.1268 7.63415 14.0732 7.52683 13.9659 7.41951C13.8585 7.3122 13.6439 7.3122 13.4829 7.3122H12.5171Z" fill="#E00000"/>
</svg>
