<svg width="16" height="13" viewBox="0 0 16 13" fill="none" xmlns="http://www.w3.org/2000/svg">
<path fill-rule="evenodd" clip-rule="evenodd" d="M0.695652 1.3913H2.55072C2.73522 1.3913 2.91216 1.31801 3.04262 1.18755C3.17308 1.05709 3.24638 0.880151 3.24638 0.695652C3.24638 0.511154 3.17308 0.334212 3.04262 0.203752C2.91216 0.0732916 2.73522 0 2.55072 0H0.695652C0.511154 0 0.334212 0.0732916 0.203752 0.203752C0.0732916 0.334212 0 0.511154 0 0.695652C0 0.880151 0.0732916 1.05709 0.203752 1.18755C0.334212 1.31801 0.511154 1.3913 0.695652 1.3913ZM6.02899 1.3913H15.3043C15.4888 1.3913 15.6658 1.31801 15.7962 1.18755C15.9267 1.05709 16 0.880151 16 0.695652C16 0.511154 15.9267 0.334212 15.7962 0.203752C15.6658 0.0732916 15.4888 0 15.3043 0H6.02899C5.84449 0 5.66755 0.0732916 5.53709 0.203752C5.40663 0.334212 5.33333 0.511154 5.33333 0.695652C5.33333 0.880151 5.40663 1.05709 5.53709 1.18755C5.66755 1.31801 5.84449 1.3913 6.02899 1.3913ZM6.02899 7.18841H15.3043C15.4888 7.18841 15.6658 7.11511 15.7962 6.98465C15.9267 6.85419 16 6.67725 16 6.49275C16 6.30826 15.9267 6.13131 15.7962 6.00085C15.6658 5.87039 15.4888 5.7971 15.3043 5.7971H6.02899C5.84449 5.7971 5.66755 5.87039 5.53709 6.00085C5.40663 6.13131 5.33333 6.30826 5.33333 6.49275C5.33333 6.67725 5.40663 6.85419 5.53709 6.98465C5.66755 7.11511 5.84449 7.18841 6.02899 7.18841ZM15.3043 12.9855H6.02899C5.84449 12.9855 5.66755 12.9122 5.53709 12.7818C5.40663 12.6513 5.33333 12.4744 5.33333 12.2899C5.33333 12.1054 5.40663 11.9284 5.53709 11.798C5.66755 11.6675 5.84449 11.5942 6.02899 11.5942H15.3043C15.4888 11.5942 15.6658 11.6675 15.7962 11.798C15.9267 11.9284 16 12.1054 16 12.2899C16 12.4744 15.9267 12.6513 15.7962 12.7818C15.6658 12.9122 15.4888 12.9855 15.3043 12.9855ZM2.55072 7.18841H0.695652C0.511154 7.18841 0.334212 7.11511 0.203752 6.98465C0.0732916 6.85419 0 6.67725 0 6.49275C0 6.30826 0.0732916 6.13131 0.203752 6.00085C0.334212 5.87039 0.511154 5.7971 0.695652 5.7971H2.55072C2.73522 5.7971 2.91216 5.87039 3.04262 6.00085C3.17308 6.13131 3.24638 6.30826 3.24638 6.49275C3.24638 6.67725 3.17308 6.85419 3.04262 6.98465C2.91216 7.11511 2.73522 7.18841 2.55072 7.18841ZM0.695652 12.9855H2.55072C2.73522 12.9855 2.91216 12.9122 3.04262 12.7818C3.17308 12.6513 3.24638 12.4744 3.24638 12.2899C3.24638 12.1054 3.17308 11.9284 3.04262 11.798C2.91216 11.6675 2.73522 11.5942 2.55072 11.5942H0.695652C0.511154 11.5942 0.334212 11.6675 0.203752 11.798C0.0732916 11.9284 0 12.1054 0 12.2899C0 12.4744 0.0732916 12.6513 0.203752 12.7818C0.334212 12.9122 0.511154 12.9855 0.695652 12.9855Z" fill="#666666"/>
</svg>
