<svg width="16" height="16" viewBox="0 0 16 16" fill="none" xmlns="http://www.w3.org/2000/svg">
<path d="M6.12676 9.5446L6.25822 9.67606C6.32394 9.74178 6.42254 9.77465 6.48826 9.77465C6.55399 9.77465 6.65258 9.74178 6.71831 9.67606L13.9484 2.5446L13.9812 2.57746V6.12676C13.9812 6.22535 14.0141 6.29108 14.0798 6.35681C14.1455 6.42253 14.2113 6.4554 14.3099 6.4554H14.5728C14.6714 6.4554 14.7371 6.42253 14.8028 6.35681C14.8685 6.29108 14.9014 6.22535 14.9014 6.12676V1.32864C14.9014 1.23005 14.8685 1.16432 14.8028 1.09859C14.7371 1.03286 14.6385 1 14.5728 1H9.80751C9.70892 1 9.64319 1.03286 9.57747 1.09859C9.51174 1.16432 9.47887 1.23005 9.47887 1.32864V1.59155C9.47887 1.69014 9.51174 1.75587 9.57747 1.8216C9.64319 1.88732 9.70892 1.92019 9.80751 1.92019H13.3239L13.3568 1.95305L6.12676 9.08451C6.06103 9.15024 6.02817 9.21596 6.02817 9.31455C6.02817 9.41315 6.06103 9.47887 6.12676 9.5446ZM13.1268 6.78404V13.7183C13.1268 14.0798 12.9953 14.3756 12.7324 14.6385C12.4695 14.9014 12.1737 15.0329 11.8122 15.0329H2.31455C1.95305 15.0329 1.65728 14.9014 1.39437 14.6385C1.13146 14.3756 1 14.0798 1 13.7183V4.18779C1 3.82629 1.13146 3.53052 1.39437 3.26761C1.62441 3.00469 1.95305 2.87324 2.31455 2.87324H9.05164C9.61033 2.87324 9.61033 3.7277 9.05164 3.7277H2.31455C2.1831 3.7277 2.08451 3.79343 1.98592 3.85915C1.88732 3.92488 1.85446 4.05634 1.85446 4.18779V13.7183C1.85446 13.8498 1.88732 13.9484 1.98592 14.0141C2.08451 14.0798 2.1831 14.1455 2.31455 14.1455H11.8451C11.9765 14.1455 12.0751 14.1127 12.1408 14.0141C12.2066 13.9155 12.2723 13.8169 12.2723 13.7183V6.78404C12.2723 6.22535 13.1268 6.22535 13.1268 6.78404Z" fill="#0076BF"/>
</svg>
