<svg width="16" height="16" viewBox="0 0 16 16" fill="none" xmlns="http://www.w3.org/2000/svg">
<path d="M9.59375 8L15.4062 13.8125C15.4531 13.9062 15.5 14 15.5 14.0938C15.5 14.1875 15.4531 14.2812 15.4062 14.3281L14.3281 15.4062C14.2344 15.5 14.1406 15.5 14.0469 15.5C13.9531 15.5 13.8594 15.5 13.8125 15.4062L8 9.59375L2.1875 15.4062C2.09375 15.5 2 15.5 1.90625 15.5C1.8125 15.5 1.71875 15.5 1.67188 15.4062L0.59375 14.3281C0.5 14.2812 0.5 14.1875 0.5 14.0938C0.5 14 0.5 13.9062 0.59375 13.8125L6.40625 8L0.59375 2.1875C0.5 2.14062 0.5 2.04688 0.5 1.95312C0.5 1.85938 0.5 1.76562 0.59375 1.67188L1.67188 0.59375C1.71875 0.546875 1.8125 0.5 1.90625 0.5C2 0.5 2.09375 0.546875 2.1875 0.59375L8 6.40625L13.8125 0.59375C13.8594 0.546875 13.9531 0.5 14.0469 0.5C14.1406 0.5 14.2344 0.546875 14.3281 0.59375L15.4062 1.67188C15.4531 1.76562 15.5 1.85938 15.5 1.95312C15.5 2.04688 15.4531 2.14062 15.4062 2.1875L14.4219 3.17188L9.59375 8Z" fill="#333333"/>
</svg>
