<svg width="22" height="22" viewBox="0 0 22 22" fill="none" xmlns="http://www.w3.org/2000/svg">
<path d="M11 0C10.4527 0 9.91617 0.0400361 9.39062 0.117187C9.29552 0.131662 9.2066 0.173266 9.13454 0.237009C9.06248 0.300752 9.01034 0.383929 8.98438 0.476562L8.34375 2.69531C7.88151 2.8438 7.4324 3.02292 7.00781 3.24219L4.98438 2.13281C4.90095 2.08588 4.80582 2.06388 4.71026 2.06942C4.61471 2.07496 4.52275 2.10781 4.44531 2.16406C4.01921 2.48108 3.60583 2.83167 3.21875 3.21875C2.83167 3.60583 2.48108 4.0192 2.16406 4.44531C2.10781 4.52275 2.07496 4.61471 2.06942 4.71026C2.06388 4.80582 2.08588 4.90095 2.13281 4.98437L3.24219 7.00781C3.02292 7.4324 2.8438 7.88151 2.69531 8.34375L0.476562 8.98437C0.383929 9.01034 0.300752 9.06248 0.237009 9.13454C0.173266 9.2066 0.131662 9.29551 0.117188 9.39062C0.0400346 9.91617 0 10.4527 0 11C0 11.5473 0.0400346 12.0838 0.117188 12.6094C0.131662 12.7045 0.173266 12.7934 0.237009 12.8655C0.300752 12.9375 0.383929 12.9897 0.476562 13.0156L2.69531 13.6562C2.8438 14.1185 3.02292 14.5676 3.24219 14.9922L2.13281 17.0156C2.08588 17.099 2.06388 17.1942 2.06942 17.2897C2.07496 17.3853 2.10781 17.4772 2.16406 17.5547C2.48108 17.9808 2.83167 18.3942 3.21875 18.7812C3.60583 19.1683 4.01921 19.5189 4.44531 19.8359C4.52275 19.8922 4.61471 19.925 4.71026 19.9306C4.80582 19.9361 4.90095 19.9141 4.98438 19.8672L7.00781 18.7578C7.4324 18.9771 7.88151 19.1562 8.34375 19.3047L8.98438 21.5234C9.01034 21.6161 9.06248 21.6992 9.13454 21.763C9.2066 21.8267 9.29552 21.8683 9.39062 21.8828C9.91617 21.96 10.4527 22 11 22C11.5473 22 12.0838 21.96 12.6094 21.8828C12.7045 21.8683 12.7934 21.8267 12.8655 21.763C12.9375 21.6992 12.9897 21.6161 13.0156 21.5234L13.6562 19.3047C14.1185 19.1562 14.5676 18.9771 14.9922 18.7578L17.0156 19.8672C17.099 19.9141 17.1942 19.9361 17.2897 19.9306C17.3853 19.925 17.4772 19.8922 17.5547 19.8359C17.9808 19.5189 18.3942 19.1683 18.7812 18.7812C19.1683 18.3942 19.5189 17.9808 19.8359 17.5547C19.8922 17.4772 19.925 17.3853 19.9306 17.2897C19.9361 17.1942 19.9141 17.099 19.8672 17.0156L18.7578 14.9922C18.9771 14.5676 19.1562 14.1185 19.3047 13.6562L21.5234 13.0156C21.6161 12.9897 21.6992 12.9375 21.763 12.8655C21.8267 12.7934 21.8683 12.7045 21.8828 12.6094C21.96 12.0838 22 11.5473 22 11C22 10.4527 21.96 9.91617 21.8828 9.39062C21.8683 9.29551 21.8267 9.2066 21.763 9.13454C21.6992 9.06248 21.6161 9.01034 21.5234 8.98437L19.3047 8.34375C19.1562 7.88151 18.9771 7.4324 18.7578 7.00781L19.8672 4.98437C19.9141 4.90095 19.9361 4.80582 19.9306 4.71026C19.925 4.61471 19.8922 4.52275 19.8359 4.44531C19.5189 4.0192 19.1683 3.60583 18.7812 3.21875C18.3942 2.83167 17.9808 2.48108 17.5547 2.16406C17.4772 2.10781 17.3853 2.07496 17.2897 2.06942C17.1942 2.06388 17.099 2.08588 17.0156 2.13281L14.9922 3.24219C14.5676 3.02292 14.1185 2.8438 13.6562 2.69531L13.0156 0.476562C12.9897 0.383929 12.9375 0.300752 12.8655 0.237009C12.7934 0.173266 12.7045 0.131662 12.6094 0.117187C12.0838 0.0400361 11.5473 0 11 0ZM11 1C11.3919 1 11.7762 1.04192 12.1562 1.08594L12.7734 3.19531C12.7968 3.27712 12.8406 3.35162 12.9007 3.41177C12.9609 3.47192 13.0354 3.51573 13.1172 3.53906C13.702 3.70454 14.2603 3.94291 14.7812 4.23437C14.8554 4.27541 14.9387 4.29694 15.0234 4.29694C15.1082 4.29694 15.1915 4.27541 15.2656 4.23437L17.1953 3.17187C17.4959 3.40994 17.7928 3.65214 18.0703 3.92969C18.3479 4.20723 18.5901 4.50407 18.8281 4.80469L17.7656 6.73437C17.7246 6.8085 17.7031 6.89184 17.7031 6.97656C17.7031 7.06129 17.7246 7.14462 17.7656 7.21875C18.0571 7.73974 18.2955 8.29797 18.4609 8.88281C18.4843 8.96462 18.5281 9.03912 18.5882 9.09927C18.6484 9.15942 18.7229 9.20323 18.8047 9.22656L20.9141 9.84375C20.9581 10.2238 21 10.6081 21 11C21 11.3919 20.9581 11.7762 20.9141 12.1562L18.8047 12.7734C18.7229 12.7968 18.6484 12.8406 18.5882 12.9007C18.5281 12.9609 18.4843 13.0354 18.4609 13.1172C18.2955 13.702 18.0571 14.2603 17.7656 14.7812C17.7246 14.8554 17.7031 14.9387 17.7031 15.0234C17.7031 15.1082 17.7246 15.1915 17.7656 15.2656L18.8281 17.1953C18.5901 17.4959 18.3479 17.7928 18.0703 18.0703C17.7928 18.3479 17.4959 18.5901 17.1953 18.8281L15.2656 17.7656C15.1915 17.7246 15.1082 17.7031 15.0234 17.7031C14.9387 17.7031 14.8554 17.7246 14.7812 17.7656C14.2603 18.0571 13.702 18.2955 13.1172 18.4609C13.0354 18.4843 12.9609 18.5281 12.9007 18.5882C12.8406 18.6484 12.7968 18.7229 12.7734 18.8047L12.1562 20.9141C11.7762 20.9581 11.3919 21 11 21C10.6081 21 10.2238 20.9581 9.84375 20.9141L9.22656 18.8047C9.20323 18.7229 9.15942 18.6484 9.09927 18.5882C9.03912 18.5281 8.96462 18.4843 8.88281 18.4609C8.29797 18.2955 7.73975 18.0571 7.21875 17.7656C7.14462 17.7246 7.06129 17.7031 6.97656 17.7031C6.89184 17.7031 6.8085 17.7246 6.73438 17.7656L4.80469 18.8281C4.50407 18.5901 4.20723 18.3479 3.92969 18.0703C3.65214 17.7928 3.40994 17.4959 3.17188 17.1953L4.23438 15.2656C4.27541 15.1915 4.29694 15.1082 4.29694 15.0234C4.29694 14.9387 4.27541 14.8554 4.23438 14.7812C3.94291 14.2603 3.70454 13.702 3.53906 13.1172C3.51573 13.0354 3.47192 12.9609 3.41177 12.9007C3.35162 12.8406 3.27712 12.7968 3.19531 12.7734L1.08594 12.1562C1.04192 11.7762 1 11.3919 1 11C1 10.6081 1.04192 10.2238 1.08594 9.84375L3.19531 9.22656C3.27712 9.20323 3.35162 9.15942 3.41177 9.09927C3.47192 9.03912 3.51573 8.96462 3.53906 8.88281C3.70454 8.29797 3.94291 7.73974 4.23438 7.21875C4.27541 7.14462 4.29694 7.06129 4.29694 6.97656C4.29694 6.89184 4.27541 6.8085 4.23438 6.73437L3.17188 4.80469C3.40994 4.50407 3.65214 4.20723 3.92969 3.92969C4.20723 3.65214 4.50407 3.40994 4.80469 3.17187L6.73438 4.23437C6.8085 4.27541 6.89184 4.29694 6.97656 4.29694C7.06129 4.29694 7.14462 4.27541 7.21875 4.23437C7.73975 3.94291 8.29797 3.70454 8.88281 3.53906C8.96462 3.51573 9.03912 3.47192 9.09927 3.41177C9.15942 3.35162 9.20323 3.27712 9.22656 3.19531L9.84375 1.08594C10.2238 1.04192 10.6081 1 11 1ZM11 6C8.2445 6 6 8.2445 6 11C6 13.7555 8.2445 16 11 16C13.7555 16 16 13.7555 16 11C16 8.2445 13.7555 6 11 6ZM11 7C13.2151 7 15 8.78494 15 11C15 13.2151 13.2151 15 11 15C8.78494 15 7 13.2151 7 11C7 8.78494 8.78494 7 11 7Z" fill="#888888"/>
</svg>
