<svg width="15" height="12" viewBox="0 0 15 12" fill="none" xmlns="http://www.w3.org/2000/svg">
<g clip-path="url(#clip0)">
<path fill-rule="evenodd" clip-rule="evenodd" d="M0.268921 0.510047C0.268921 0.227047 0.497921 -0.00195312 0.780921 -0.00195312H7.70492C7.84071 -0.00195312 7.97094 0.0519896 8.06696 0.148008C8.16298 0.244027 8.21692 0.374256 8.21692 0.510047C8.21692 0.645838 8.16298 0.776067 8.06696 0.872086C7.97094 0.968104 7.84071 1.02205 7.70492 1.02205H0.780921C0.645131 1.02205 0.514901 0.968104 0.418883 0.872086C0.322864 0.776067 0.268921 0.645838 0.268921 0.510047ZM0.253921 4.17005C0.253921 3.88705 0.482921 3.65805 0.765921 3.65805H6.69592C6.83171 3.65805 6.96194 3.71199 7.05796 3.80801C7.15398 3.90403 7.20792 4.03426 7.20792 4.17005C7.20792 4.30584 7.15398 4.43607 7.05796 4.53209C6.96194 4.6281 6.83171 4.68205 6.69592 4.68205H0.766921C0.631131 4.68205 0.500901 4.6281 0.404883 4.53209C0.308864 4.43607 0.254921 4.30584 0.254921 4.17005H0.253921ZM0.238921 7.83005C0.238921 7.54705 0.467921 7.31805 0.750921 7.31805H5.68792C5.82371 7.31805 5.95394 7.37199 6.04996 7.46801C6.14598 7.56403 6.19992 7.69426 6.19992 7.83005C6.19992 7.96584 6.14598 8.09607 6.04996 8.19209C5.95394 8.2881 5.82371 8.34205 5.68792 8.34205H0.750921C0.615131 8.34205 0.484901 8.2881 0.388883 8.19209C0.292864 8.09607 0.238921 7.96584 0.238921 7.83005ZM0.156921 11.49C0.156921 11.207 0.385921 10.978 0.668921 10.978H4.61292C4.68016 10.978 4.74674 10.9913 4.80886 11.017C4.87097 11.0428 4.92742 11.0805 4.97496 11.128C5.0225 11.1756 5.06022 11.232 5.08595 11.2941C5.11168 11.3562 5.12492 11.4228 5.12492 11.49C5.12492 11.5573 5.11168 11.6239 5.08595 11.686C5.06022 11.7481 5.0225 11.8045 4.97496 11.8521C4.92742 11.8996 4.87097 11.9373 4.80886 11.9631C4.74674 11.9888 4.68016 12.002 4.61292 12.002H0.668921C0.533131 12.002 0.402901 11.9481 0.306883 11.8521C0.210864 11.7561 0.156921 11.6258 0.156921 11.49Z" fill="#888888"/>
<path d="M11.9156 -0.00962142C11.8496 -0.00962142 11.7776 0.0103781 11.5796 0.176378L11.5576 0.155379L9.83863 1.87538C9.74493 1.97186 9.69296 2.10134 9.69394 2.23583C9.69492 2.37032 9.74878 2.49902 9.84389 2.59413C9.93899 2.68923 10.0677 2.74309 10.2022 2.74407C10.3367 2.74506 10.4662 2.69308 10.5626 2.59938L11.4046 1.75738L11.4046 11.4654C11.4016 11.5345 11.4125 11.6034 11.4369 11.6681C11.4612 11.7329 11.4984 11.792 11.5462 11.842C11.594 11.8919 11.6514 11.9317 11.715 11.9588C11.7786 11.986 11.847 12 11.9161 12C11.9853 12 12.0537 11.986 12.1173 11.9588C12.1809 11.9317 12.2383 11.8919 12.2861 11.842C12.3339 11.792 12.3711 11.7329 12.3954 11.6681C12.4197 11.6034 12.4307 11.5345 12.4276 11.4654L12.4276 1.75738L13.2696 2.59938C13.3169 2.64806 13.3734 2.68686 13.4358 2.71352C13.4982 2.74018 13.5653 2.75416 13.6332 2.75466C13.701 2.75515 13.7683 2.74215 13.8311 2.71641C13.8939 2.69067 13.951 2.6527 13.999 2.60471C14.047 2.55672 14.0849 2.49967 14.1107 2.43687C14.1364 2.37408 14.1494 2.30679 14.1489 2.23893C14.1484 2.17106 14.1344 2.10397 14.1078 2.04156C14.0811 1.97915 14.0423 1.92266 13.9936 1.87538L12.2476 0.129378L12.2256 0.151379L12.1276 0.0553781C12.0645 0.0142157 11.991 -0.00831204 11.9156 -0.00962142Z" fill="#888888"/>
</g>
<defs>
<clipPath id="clip0">
<rect width="14" height="12" fill="white" transform="translate(0.148926)"/>
</clipPath>
</defs>
</svg>
