<svg width="14" height="13" viewBox="0 0 14 13" fill="none" xmlns="http://www.w3.org/2000/svg">
<path fill-rule="evenodd" clip-rule="evenodd" d="M11.4307 0.186C11.6287 0.0199997 11.7007 0 11.7667 0C11.8421 0.00130958 11.9156 0.0238373 11.9787 0.0649998L12.0767 0.161L12.0987 0.139L13.8447 1.885C13.8934 1.93228 13.9322 1.98877 13.9588 2.05118C13.9855 2.1136 13.9995 2.18069 14 2.24855C14.0005 2.31641 13.9875 2.3837 13.9617 2.4465C13.936 2.50929 13.898 2.56634 13.85 2.61433C13.802 2.66232 13.745 2.70029 13.6822 2.72603C13.6194 2.75177 13.5521 2.76477 13.4843 2.76428C13.4164 2.76378 13.3493 2.7498 13.2869 2.72314C13.2245 2.69648 13.168 2.65769 13.1207 2.609L12.2787 1.767L12.2787 11.475C12.2818 11.5441 12.2708 11.6131 12.2465 11.6778C12.2221 11.7425 12.185 11.8016 12.1372 11.8516C12.0894 11.9015 12.0319 11.9413 11.9684 11.9685C11.9048 11.9956 11.8364 12.0096 11.7672 12.0096C11.6981 12.0096 11.6296 11.9956 11.5661 11.9685C11.5025 11.9413 11.4451 11.9015 11.3973 11.8516C11.3495 11.8016 11.3123 11.7425 11.2879 11.6778C11.2636 11.6131 11.2527 11.5441 11.2557 11.475L11.2557 1.767L10.4137 2.609C10.3172 2.7027 10.1877 2.75468 10.0533 2.75369C9.91877 2.75271 9.79006 2.69885 9.69496 2.60375C9.59986 2.50865 9.546 2.37994 9.54501 2.24545C9.54403 2.11096 9.59601 1.98148 9.68971 1.885L11.4087 0.165L11.4307 0.186ZM0.632057 0.0076683C0.349057 0.0076683 0.120057 0.236668 0.120057 0.519668C0.120057 0.655459 0.173999 0.785688 0.270018 0.881707C0.366037 0.977726 0.496266 1.03167 0.632057 1.03167H7.55606C7.69185 1.03167 7.82208 0.977726 7.9181 0.881707C8.01411 0.785688 8.06806 0.655459 8.06806 0.519668C8.06806 0.383877 8.01411 0.253648 7.9181 0.15763C7.82208 0.061611 7.69185 0.0076683 7.55606 0.0076683H0.632057ZM0.617057 3.66767C0.334057 3.66767 0.105057 3.89667 0.105057 4.17967H0.106057C0.106057 4.31546 0.159999 4.44569 0.256018 4.54171C0.352037 4.63773 0.482266 4.69167 0.618057 4.69167H6.54706C6.68285 4.69167 6.81308 4.63773 6.9091 4.54171C7.00511 4.44569 7.05906 4.31546 7.05906 4.17967C7.05906 4.04388 7.00511 3.91365 6.9091 3.81763C6.81308 3.72161 6.68285 3.66767 6.54706 3.66767H0.617057ZM0.602057 7.32767C0.319057 7.32767 0.0900566 7.55667 0.0900566 7.83967C0.0900566 7.97546 0.143999 8.10569 0.240018 8.20171C0.336037 8.29773 0.466266 8.35167 0.602057 8.35167H5.53906C5.67485 8.35167 5.80508 8.29773 5.9011 8.20171C5.99711 8.10569 6.05106 7.97546 6.05106 7.83967C6.05106 7.70388 5.99711 7.57365 5.9011 7.47763C5.80508 7.38161 5.67485 7.32767 5.53906 7.32767H0.602057ZM0.520057 10.9877C0.237057 10.9877 0.00805664 11.2167 0.00805664 11.4997C0.00805664 11.6355 0.0619993 11.7657 0.158018 11.8617C0.254037 11.9577 0.384266 12.0117 0.520057 12.0117H4.46406C4.53129 12.0117 4.59787 11.9984 4.65999 11.9727C4.72211 11.947 4.77855 11.9093 4.8261 11.8617C4.87364 11.8142 4.91135 11.7577 4.93708 11.6956C4.96281 11.6335 4.97606 11.5669 4.97606 11.4997C4.97606 11.4324 4.96281 11.3659 4.93708 11.3037C4.91135 11.2416 4.87364 11.1852 4.8261 11.1376C4.77855 11.0901 4.72211 11.0524 4.65999 11.0266C4.59787 11.0009 4.53129 10.9877 4.46406 10.9877H0.520057Z" fill="#4C9FD2"/>
</svg>
