<svg width="14" height="13" viewBox="0 0 14 13" fill="none" xmlns="http://www.w3.org/2000/svg">
<path fill-rule="evenodd" clip-rule="evenodd" d="M12.1061 11.8236C11.9081 11.9896 11.8361 12.0096 11.7701 12.0096C11.6947 12.0083 11.6212 11.9858 11.5581 11.9446L11.4601 11.8486L11.4381 11.8706L9.69206 10.1246C9.64337 10.0773 9.60457 10.0209 9.57791 9.95844C9.55126 9.89603 9.53727 9.82894 9.53678 9.76107C9.53628 9.69321 9.54928 9.62592 9.57503 9.56313C9.60077 9.50033 9.63874 9.44328 9.68673 9.39529C9.73471 9.3473 9.79177 9.30933 9.85456 9.28359C9.91736 9.25785 9.98464 9.24485 10.0525 9.24534C10.1204 9.24584 10.1875 9.25982 10.2499 9.28648C10.3123 9.31314 10.3688 9.35194 10.4161 9.40062L11.2581 10.2426V0.534622C11.255 0.465548 11.266 0.396571 11.2903 0.331851C11.3146 0.267131 11.3518 0.208008 11.3996 0.15805C11.4474 0.108091 11.5048 0.0683309 11.5684 0.0411675C11.632 0.014004 11.7004 0 11.7696 0C11.8387 0 11.9071 0.014004 11.9707 0.0411675C12.0343 0.0683309 12.0917 0.108091 12.1395 0.15805C12.1873 0.208008 12.2245 0.267131 12.2488 0.331851C12.2731 0.396571 12.2841 0.465548 12.2811 0.534622V10.2426L13.1231 9.40062C13.2195 9.30692 13.349 9.25494 13.4835 9.25593C13.618 9.25691 13.7467 9.31077 13.8418 9.40587C13.9369 9.50098 13.9908 9.62968 13.9918 9.76417C13.9927 9.89866 13.9408 10.0281 13.8471 10.1246L12.1281 11.8446L12.1061 11.8246V11.8236ZM0.120057 0.519622C0.120057 0.236622 0.349057 0.00762189 0.632057 0.00762189H7.55606C7.69185 0.00762189 7.82208 0.0615646 7.9181 0.157583C8.01411 0.253602 8.06806 0.383831 8.06806 0.519622C8.06806 0.655413 8.01411 0.785642 7.9181 0.881661C7.82208 0.977679 7.69185 1.03162 7.55606 1.03162H0.632057C0.496266 1.03162 0.366037 0.977679 0.270018 0.881661C0.173999 0.785642 0.120057 0.655413 0.120057 0.519622ZM0.105057 4.17962C0.105057 3.89662 0.334057 3.66762 0.617057 3.66762H6.54706C6.68285 3.66762 6.81308 3.72156 6.9091 3.81758C7.00511 3.9136 7.05906 4.04383 7.05906 4.17962C7.05906 4.31541 7.00511 4.44564 6.9091 4.54166C6.81308 4.63768 6.68285 4.69162 6.54706 4.69162H0.618057C0.482266 4.69162 0.352037 4.63768 0.256018 4.54166C0.159999 4.44564 0.106057 4.31541 0.106057 4.17962H0.105057ZM0.0900566 7.83962C0.0900566 7.55662 0.319057 7.32762 0.602057 7.32762H5.53906C5.67485 7.32762 5.80508 7.38156 5.9011 7.47758C5.99711 7.5736 6.05106 7.70383 6.05106 7.83962C6.05106 7.97541 5.99711 8.10564 5.9011 8.20166C5.80508 8.29768 5.67485 8.35162 5.53906 8.35162H0.602057C0.466266 8.35162 0.336037 8.29768 0.240018 8.20166C0.143999 8.10564 0.0900566 7.97541 0.0900566 7.83962ZM0.00805664 11.4996C0.00805664 11.2166 0.237057 10.9876 0.520057 10.9876H4.46406C4.53129 10.9876 4.59787 11.0009 4.65999 11.0266C4.72211 11.0523 4.77855 11.09 4.8261 11.1376C4.87364 11.1851 4.91135 11.2416 4.93708 11.3037C4.96281 11.3658 4.97606 11.4324 4.97606 11.4996C4.97606 11.5669 4.96281 11.6334 4.93708 11.6956C4.91135 11.7577 4.87364 11.8141 4.8261 11.8617C4.77855 11.9092 4.72211 11.9469 4.65999 11.9726C4.59787 11.9984 4.53129 12.0116 4.46406 12.0116H0.520057C0.384266 12.0116 0.254037 11.9577 0.158018 11.8617C0.0619993 11.7656 0.00805664 11.6354 0.00805664 11.4996Z" fill="#888888"/>
</svg>
