<svg  width="18" height="18" viewBox="0 0 18 18" fill="none" xmlns="http://www.w3.org/2000/svg">
<path d="M11.3335 8.13333C11.0485 9.05958 10.1854 9.73333 9.16667 9.73333C8.14742 9.73333 7.28476 9.0592 6.99981 8.13333H1.16667C0.798476 8.13333 0.499999 7.83486 0.499999 7.46667C0.499999 7.09848 0.798476 6.8 1.16667 6.8L6.99979 6.8C7.28482 5.87376 8.14796 5.2 9.16667 5.2C10.1859 5.2 11.0486 5.87414 11.3335 6.8H11.8333C12.2015 6.8 12.5 7.09848 12.5 7.46667C12.5 7.83486 12.2015 8.13333 11.8333 8.13333H11.3335ZM9.16667 6.53333C8.65226 6.53333 8.23333 6.95194 8.23333 7.46667C8.23333 7.98107 8.65194 8.4 9.16667 8.4C9.68107 8.4 10.1 7.9814 10.1 7.46667C10.1 6.95226 9.6814 6.53333 9.16667 6.53333ZM5.46687 2.93333C5.18185 3.85958 4.31871 4.53333 3.3 4.53333C2.28045 4.53333 1.41757 3.85879 1.13289 2.93249C0.780394 2.9149 0.499999 2.62353 0.499999 2.26667C0.499999 1.90981 0.780382 1.61844 1.13287 1.60084C1.41763 0.674163 2.28098 0 3.3 0C4.31924 0 5.18191 0.674137 5.46685 1.6L11.8333 1.6C12.2015 1.6 12.5 1.89848 12.5 2.26667C12.5 2.63486 12.2015 2.93333 11.8333 2.93333L5.46687 2.93333ZM3.3 1.33333C2.78559 1.33333 2.36667 1.75194 2.36667 2.26667C2.36667 2.78107 2.78527 3.2 3.3 3.2C3.8144 3.2 4.23333 2.7814 4.23333 2.26667C4.23333 1.75226 3.81473 1.33333 3.3 1.33333ZM7.33354 13.3333C7.04851 14.2596 6.18538 14.9333 5.16667 14.9333C4.14742 14.9333 3.28476 14.2592 2.99981 13.3333H1.16667C0.798476 13.3333 0.499999 13.0349 0.499999 12.6667C0.499999 12.2985 0.798476 12 1.16667 12H2.99979C3.28482 11.0738 4.14796 10.4 5.16667 10.4C6.18591 10.4 7.04857 11.0741 7.33352 12H11.8333C12.2015 12 12.5 12.2985 12.5 12.6667C12.5 13.0349 12.2015 13.3333 11.8333 13.3333H7.33354ZM5.16667 11.7333C4.65226 11.7333 4.23333 12.1519 4.23333 12.6667C4.23333 13.1811 4.65194 13.6 5.16667 13.6C5.68107 13.6 6.1 13.1814 6.1 12.6667C6.1 12.1523 5.6814 11.7333 5.16667 11.7333Z" fill="#666666"/>
</svg>
