<svg width="15" height="12" viewBox="0 0 15 12" fill="none" xmlns="http://www.w3.org/2000/svg">
<g clip-path="url(#clip0)">
<path fill-rule="evenodd" clip-rule="evenodd" d="M12.2549 11.814C12.0569 11.98 11.9849 12 11.9189 12C11.8435 11.9987 11.7701 11.9761 11.7069 11.935L11.6089 11.839L11.5869 11.861L9.84092 10.115C9.79224 10.0677 9.75344 10.0112 9.72678 9.94879C9.70012 9.88638 9.68614 9.81929 9.68564 9.75143C9.68515 9.68356 9.69815 9.61628 9.72389 9.55348C9.74963 9.49069 9.7876 9.43364 9.83559 9.38565C9.88358 9.33766 9.94063 9.29969 10.0034 9.27395C10.0662 9.24821 10.1335 9.2352 10.2014 9.2357C10.2692 9.2362 10.3363 9.25018 10.3987 9.27684C10.4611 9.30349 10.5176 9.34229 10.5649 9.39098L11.4069 10.233V0.524978C11.4039 0.455904 11.4148 0.386927 11.4392 0.322207C11.4635 0.257487 11.5007 0.198365 11.5485 0.148406C11.5963 0.0984474 11.6537 0.0586874 11.7173 0.0315239C11.7809 0.00436046 11.8493 -0.00964355 11.9184 -0.00964355C11.9876 -0.00964355 12.056 0.00436046 12.1196 0.0315239C12.1832 0.0586874 12.2406 0.0984474 12.2884 0.148406C12.3362 0.198365 12.3734 0.257487 12.3977 0.322207C12.422 0.386927 12.433 0.455904 12.4299 0.524978V10.233L13.2719 9.39098C13.3684 9.29728 13.4979 9.2453 13.6324 9.24628C13.7669 9.24727 13.8956 9.30113 13.9907 9.39623C14.0858 9.49133 14.1396 9.62004 14.1406 9.75453C14.1416 9.88902 14.0896 10.0185 13.9959 10.115L12.2769 11.835L12.2549 11.815V11.814ZM0.268921 0.509978C0.268921 0.226978 0.497921 -0.00202166 0.780921 -0.00202166H7.70492C7.84071 -0.00202166 7.97094 0.051921 8.06696 0.14794C8.16298 0.243958 8.21692 0.374188 8.21692 0.509978C8.21692 0.645769 8.16298 0.775998 8.06696 0.872017C7.97094 0.968036 7.84071 1.02198 7.70492 1.02198H0.780921C0.645131 1.02198 0.514901 0.968036 0.418883 0.872017C0.322864 0.775998 0.268921 0.645769 0.268921 0.509978ZM0.253921 4.16998C0.253921 3.88698 0.482921 3.65798 0.765921 3.65798H6.69592C6.83171 3.65798 6.96194 3.71192 7.05796 3.80794C7.15398 3.90396 7.20792 4.03419 7.20792 4.16998C7.20792 4.30577 7.15398 4.436 7.05796 4.53202C6.96194 4.62804 6.83171 4.68198 6.69592 4.68198H0.766921C0.631131 4.68198 0.500901 4.62804 0.404883 4.53202C0.308864 4.436 0.254921 4.30577 0.254921 4.16998H0.253921ZM0.238921 7.82998C0.238921 7.54698 0.467921 7.31798 0.750921 7.31798H5.68792C5.82371 7.31798 5.95394 7.37192 6.04996 7.46794C6.14598 7.56396 6.19992 7.69419 6.19992 7.82998C6.19992 7.96577 6.14598 8.096 6.04996 8.19202C5.95394 8.28804 5.82371 8.34198 5.68792 8.34198H0.750921C0.615131 8.34198 0.484901 8.28804 0.388883 8.19202C0.292864 8.096 0.238921 7.96577 0.238921 7.82998ZM0.156921 11.49C0.156921 11.207 0.385921 10.978 0.668921 10.978H4.61292C4.68016 10.978 4.74674 10.9912 4.80886 11.017C4.87097 11.0427 4.92742 11.0804 4.97496 11.1279C5.0225 11.1755 5.06022 11.2319 5.08595 11.294C5.11168 11.3562 5.12492 11.4227 5.12492 11.49C5.12492 11.5572 5.11168 11.6238 5.08595 11.6859C5.06022 11.748 5.0225 11.8045 4.97496 11.852C4.92742 11.8996 4.87097 11.9373 4.80886 11.963C4.74674 11.9887 4.68016 12.002 4.61292 12.002H0.668921C0.533131 12.002 0.402901 11.948 0.306883 11.852C0.210864 11.756 0.156921 11.6258 0.156921 11.49Z" fill="#4C9FD2"/>
</g>
<defs>
<clipPath id="clip0">
<rect width="14" height="12" fill="white" transform="translate(0.148926)"/>
</clipPath>
</defs>
</svg>
