<svg width="16" height="14" viewBox="0 0 16 14" fill="none" xmlns="http://www.w3.org/2000/svg">
<path d="M4.65625 5.75C4.65625 5.5625 4.5625 5.375 4.4375 5.21875C4.28125 5.09375 4.09375 5 3.90625 5H0.75C0.53125 5 0.34375 5.09375 0.21875 5.21875C0.0625 5.375 0 5.5625 0 5.75V8.25C0 8.46875 0.0625 8.65625 0.21875 8.78125C0.34375 8.9375 0.53125 9 0.75 9H3.90625C4.09375 9 4.28125 8.9375 4.4375 8.78125C4.5625 8.65625 4.65625 8.46875 4.65625 8.25V5.75ZM0 10.75C0 10.5625 0.0625 10.375 0.21875 10.2188C0.34375 10.0938 0.53125 10 0.75 10H3.90625C4.09375 10 4.28125 10.0938 4.4375 10.2188C4.5625 10.375 4.65625 10.5625 4.65625 10.75V13.25C4.65625 13.4688 4.5625 13.6562 4.4375 13.7812C4.28125 13.9375 4.09375 14 3.90625 14H0.75C0.53125 14 0.34375 13.9375 0.21875 13.7812C0.0625 13.6562 0 13.4688 0 13.25V10.75ZM3.90625 0C4.09375 0 4.28125 0.09375 4.4375 0.21875C4.5625 0.375 4.65625 0.5625 4.65625 0.75V3.25C4.65625 3.46875 4.5625 3.65625 4.4375 3.78125C4.28125 3.9375 4.09375 4 3.90625 4H0.75C0.53125 4 0.34375 3.9375 0.21875 3.78125C0.0625 3.65625 0 3.46875 0 3.25V0.75C0 0.5625 0.0625 0.375 0.21875 0.21875C0.34375 0.09375 0.53125 0 0.75 0H3.90625ZM6.40625 14C6.1875 14 6 13.9375 5.875 13.7812C5.71875 13.6562 5.65625 13.4688 5.65625 13.25V10.75C5.65625 10.5625 5.71875 10.375 5.875 10.2188C6 10.0938 6.1875 10 6.40625 10H15.25C15.4375 10 15.625 10.0938 15.7812 10.2188C15.9062 10.375 16 10.5625 16 10.75V13.25C16 13.4688 15.9062 13.6562 15.7812 13.7812C15.625 13.9375 15.4375 14 15.25 14H6.40625ZM5.65625 0.75C5.65625 0.5625 5.71875 0.375 5.875 0.21875C6 0.09375 6.1875 0 6.40625 0H15.25C15.4375 0 15.625 0.09375 15.7812 0.21875C15.9062 0.375 16 0.5625 16 0.75V3.25C16 3.46875 15.9062 3.65625 15.7812 3.78125C15.625 3.9375 15.4375 4 15.25 4H6.40625C6.1875 4 6 3.9375 5.875 3.78125C5.71875 3.65625 5.65625 3.46875 5.65625 3.25V0.75ZM6.40625 9C6.1875 9 6 8.9375 5.875 8.78125C5.71875 8.65625 5.65625 8.46875 5.65625 8.25V5.75C5.65625 5.5625 5.71875 5.375 5.875 5.21875C6 5.09375 6.1875 5 6.40625 5H15.25C15.4375 5 15.625 5.09375 15.7812 5.21875C15.9062 5.375 16 5.5625 16 5.75V8.25C16 8.46875 15.9062 8.65625 15.7812 8.78125C15.625 8.9375 15.4375 9 15.25 9H6.40625Z" fill="#4C9FD2"/>
</svg>
