<svg width="17" height="14" viewBox="0 0 17 14" fill="none" xmlns="http://www.w3.org/2000/svg">
<path d="M9.39893 0C9.18018 0 8.99268 0.09375 8.86768 0.21875C8.71143 0.375 8.64893 0.5625 8.64893 0.75V5.75C8.64893 5.96875 8.71143 6.15625 8.86768 6.28125C8.99268 6.4375 9.18018 6.5 9.39893 6.5H15.3989C15.5864 6.5 15.7739 6.4375 15.9302 6.28125C16.0552 6.15625 16.1489 5.96875 16.1489 5.75V0.75C16.1489 0.5625 16.0552 0.375 15.9302 0.21875C15.7739 0.09375 15.5864 0 15.3989 0H9.39893ZM6.89893 0C7.08643 0 7.27393 0.09375 7.43018 0.21875C7.55518 0.375 7.64893 0.5625 7.64893 0.75V5.75C7.64893 5.96875 7.55518 6.15625 7.43018 6.28125C7.27393 6.4375 7.08643 6.5 6.89893 6.5H0.898926C0.680176 6.5 0.492676 6.4375 0.367676 6.28125C0.211426 6.15625 0.148926 5.96875 0.148926 5.75V0.75C0.148926 0.5625 0.211426 0.375 0.367676 0.21875C0.492676 0.09375 0.680176 0 0.898926 0H6.89893ZM0.148926 8.25C0.148926 8.0625 0.211426 7.875 0.367676 7.71875C0.492676 7.59375 0.680176 7.5 0.898926 7.5H6.89893C7.08643 7.5 7.27393 7.59375 7.43018 7.71875C7.55518 7.875 7.64893 8.0625 7.64893 8.25V13.25C7.64893 13.4688 7.55518 13.6562 7.43018 13.7812C7.27393 13.9375 7.08643 14 6.89893 14H0.898926C0.680176 14 0.492676 13.9375 0.367676 13.7812C0.211426 13.6562 0.148926 13.4688 0.148926 13.25V8.25ZM9.39893 14C9.18018 14 8.99268 13.9375 8.86768 13.7812C8.71143 13.6562 8.64893 13.4688 8.64893 13.25V8.25C8.64893 8.0625 8.71143 7.875 8.86768 7.71875C8.99268 7.59375 9.18018 7.5 9.39893 7.5H15.3989C15.5864 7.5 15.7739 7.59375 15.9302 7.71875C16.0552 7.875 16.1489 8.0625 16.1489 8.25V13.25C16.1489 13.4688 16.0552 13.6562 15.9302 13.7812C15.7739 13.9375 15.5864 14 15.3989 14H9.39893Z" fill="#4C9FD2"/>
</svg>
