<svg width="18" height="18" viewBox="0 0 18 18" fill="none" xmlns="http://www.w3.org/2000/svg">
<path fill-rule="evenodd" clip-rule="evenodd" d="M1.48226 8.33333H8.14893C8.33293 8.33333 8.48226 8.18333 8.48226 8V1.33333C8.48226 1.15 8.33293 1 8.14893 1H1.48226C1.29826 1 1.14893 1.15 1.14893 1.33333V8C1.14893 8.18333 1.29826 8.33333 1.48226 8.33333ZM7.81559 7.66667H1.81559V1.66667H7.81559V7.66667ZM10.1489 8.33333H16.8156C16.9989 8.33333 17.1489 8.18333 17.1489 8V1.33333C17.1489 1.15 16.9989 1 16.8156 1H10.1489C9.96559 1 9.81559 1.15 9.81559 1.33333V8C9.81559 8.18333 9.96559 8.33333 10.1489 8.33333ZM16.4823 7.66667H10.4823V1.66667H16.4823V7.66667ZM8.14893 17H1.48226C1.29826 17 1.14893 16.85 1.14893 16.6667V10C1.14893 9.81667 1.29826 9.66667 1.48226 9.66667H8.14893C8.33293 9.66667 8.48226 9.81667 8.48226 10V16.6667C8.48226 16.85 8.33293 17 8.14893 17ZM1.81559 16.3333H7.81559V10.3333H1.81559V16.3333ZM10.1489 17H16.8156C16.9989 17 17.1489 16.85 17.1489 16.6667V10C17.1489 9.81667 16.9989 9.66667 16.8156 9.66667H10.1489C9.96559 9.66667 9.81559 9.81667 9.81559 10V16.6667C9.81559 16.85 9.96559 17 10.1489 17ZM16.4823 16.3333H10.4823V10.3333H16.4823V16.3333Z" fill="#666666"/>
<path d="M1.81559 7.66667H1.56559V7.91667H1.81559V7.66667ZM7.81559 7.66667V7.91667H8.06559V7.66667H7.81559ZM1.81559 1.66667V1.41667H1.56559V1.66667H1.81559ZM7.81559 1.66667H8.06559V1.41667H7.81559V1.66667ZM10.4823 7.66667H10.2323V7.91667H10.4823V7.66667ZM16.4823 7.66667V7.91667H16.7323V7.66667H16.4823ZM10.4823 1.66667V1.41667H10.2323V1.66667H10.4823ZM16.4823 1.66667H16.7323V1.41667H16.4823V1.66667ZM7.81559 16.3333V16.5833H8.06559V16.3333H7.81559ZM1.81559 16.3333H1.56559V16.5833H1.81559V16.3333ZM7.81559 10.3333H8.06559V10.0833H7.81559V10.3333ZM1.81559 10.3333V10.0833H1.56559V10.3333H1.81559ZM10.4823 16.3333H10.2323V16.5833H10.4823V16.3333ZM16.4823 16.3333V16.5833H16.7323V16.3333H16.4823ZM10.4823 10.3333V10.0833H10.2323V10.3333H10.4823ZM16.4823 10.3333H16.7323V10.0833H16.4823V10.3333ZM8.14893 8.08333H1.48226V8.58333H8.14893V8.08333ZM8.23226 8C8.23226 8.04559 8.19453 8.08333 8.14893 8.08333V8.58333C8.47132 8.58333 8.73226 8.32108 8.73226 8H8.23226ZM8.23226 1.33333V8H8.73226V1.33333H8.23226ZM8.14893 1.25C8.19453 1.25 8.23226 1.28775 8.23226 1.33333H8.73226C8.73226 1.01225 8.47132 0.75 8.14893 0.75V1.25ZM1.48226 1.25H8.14893V0.75H1.48226V1.25ZM1.39893 1.33333C1.39893 1.28775 1.43666 1.25 1.48226 1.25V0.75C1.15986 0.75 0.898926 1.01225 0.898926 1.33333H1.39893ZM1.39893 8V1.33333H0.898926V8H1.39893ZM1.48226 8.08333C1.43666 8.08333 1.39893 8.04559 1.39893 8H0.898926C0.898926 8.32108 1.15986 8.58333 1.48226 8.58333V8.08333ZM1.81559 7.91667H7.81559V7.41667H1.81559V7.91667ZM1.56559 1.66667V7.66667H2.06559V1.66667H1.56559ZM7.81559 1.41667H1.81559V1.91667H7.81559V1.41667ZM8.06559 7.66667V1.66667H7.56559V7.66667H8.06559ZM16.8156 8.08333H10.1489V8.58333H16.8156V8.08333ZM16.8989 8C16.8989 8.04526 16.8609 8.08333 16.8156 8.08333V8.58333C17.137 8.58333 17.3989 8.3214 17.3989 8H16.8989ZM16.8989 1.33333V8H17.3989V1.33333H16.8989ZM16.8156 1.25C16.8609 1.25 16.8989 1.28807 16.8989 1.33333H17.3989C17.3989 1.01193 17.137 0.75 16.8156 0.75V1.25ZM10.1489 1.25H16.8156V0.75H10.1489V1.25ZM10.0656 1.33333C10.0656 1.28807 10.1037 1.25 10.1489 1.25V0.75C9.82752 0.75 9.56559 1.01193 9.56559 1.33333H10.0656ZM10.0656 8V1.33333H9.56559V8H10.0656ZM10.1489 8.08333C10.1037 8.08333 10.0656 8.04526 10.0656 8H9.56559C9.56559 8.3214 9.82752 8.58333 10.1489 8.58333V8.08333ZM10.4823 7.91667H16.4823V7.41667H10.4823V7.91667ZM10.2323 1.66667V7.66667H10.7323V1.66667H10.2323ZM16.4823 1.41667H10.4823V1.91667H16.4823V1.41667ZM16.7323 7.66667V1.66667H16.2323V7.66667H16.7323ZM1.48226 17.25H8.14893V16.75H1.48226V17.25ZM0.898926 16.6667C0.898926 16.9877 1.15986 17.25 1.48226 17.25V16.75C1.43666 16.75 1.39893 16.7123 1.39893 16.6667H0.898926ZM0.898926 10V16.6667H1.39893V10H0.898926ZM1.48226 9.41667C1.15986 9.41667 0.898926 9.67892 0.898926 10H1.39893C1.39893 9.95441 1.43666 9.91667 1.48226 9.91667V9.41667ZM8.14893 9.41667H1.48226V9.91667H8.14893V9.41667ZM8.73226 10C8.73226 9.67892 8.47132 9.41667 8.14893 9.41667V9.91667C8.19453 9.91667 8.23226 9.95441 8.23226 10H8.73226ZM8.73226 16.6667V10H8.23226V16.6667H8.73226ZM8.14893 17.25C8.47132 17.25 8.73226 16.9877 8.73226 16.6667H8.23226C8.23226 16.7123 8.19453 16.75 8.14893 16.75V17.25ZM7.81559 16.0833H1.81559V16.5833H7.81559V16.0833ZM7.56559 10.3333V16.3333H8.06559V10.3333H7.56559ZM1.81559 10.5833H7.81559V10.0833H1.81559V10.5833ZM2.06559 16.3333V10.3333H1.56559V16.3333H2.06559ZM16.8156 16.75H10.1489V17.25H16.8156V16.75ZM16.8989 16.6667C16.8989 16.7119 16.8609 16.75 16.8156 16.75V17.25C17.137 17.25 17.3989 16.9881 17.3989 16.6667H16.8989ZM16.8989 10V16.6667H17.3989V10H16.8989ZM16.8156 9.91667C16.8609 9.91667 16.8989 9.95474 16.8989 10H17.3989C17.3989 9.6786 17.137 9.41667 16.8156 9.41667V9.91667ZM10.1489 9.91667H16.8156V9.41667H10.1489V9.91667ZM10.0656 10C10.0656 9.95474 10.1037 9.91667 10.1489 9.91667V9.41667C9.82752 9.41667 9.56559 9.6786 9.56559 10H10.0656ZM10.0656 16.6667V10H9.56559V16.6667H10.0656ZM10.1489 16.75C10.1037 16.75 10.0656 16.7119 10.0656 16.6667H9.56559C9.56559 16.9881 9.82752 17.25 10.1489 17.25V16.75ZM10.4823 16.5833H16.4823V16.0833H10.4823V16.5833ZM10.2323 10.3333V16.3333H10.7323V10.3333H10.2323ZM16.4823 10.0833H10.4823V10.5833H16.4823V10.0833ZM16.7323 16.3333V10.3333H16.2323V16.3333H16.7323Z" fill="#666666"/>
</svg>
