<svg width="14" height="15" viewBox="0 0 14 15" fill="none" xmlns="http://www.w3.org/2000/svg">
<path d="M13.7812 7.75C13.7812 6.54688 13.4531 5.39844 12.8516 4.35938C12.25 3.32031 11.4297 2.5 10.3906 1.89844C9.35156 1.29688 8.20312 0.96875 7 0.96875C5.76953 0.96875 4.64844 1.29688 3.60938 1.89844C2.57031 2.5 1.72266 3.32031 1.12109 4.35938C0.519531 5.39844 0.21875 6.54688 0.21875 7.75C0.21875 8.98047 0.519531 10.1016 1.12109 11.1406C1.72266 12.1797 2.57031 13.0273 3.60938 13.6289C4.64844 14.2305 5.76953 14.5312 7 14.5312C8.20312 14.5312 9.35156 14.2305 10.3906 13.6289C11.4297 13.0273 12.25 12.1797 12.8516 11.1406C13.4531 10.1016 13.7812 8.98047 13.7812 7.75ZM7 9.11719C7.32812 9.11719 7.62891 9.25391 7.875 9.5C8.12109 9.74609 8.25781 10.0469 8.25781 10.375C8.25781 10.7305 8.12109 11.0312 7.875 11.2773C7.62891 11.5234 7.32812 11.6328 7 11.6328C6.64453 11.6328 6.34375 11.5234 6.09766 11.2773C5.85156 11.0312 5.74219 10.7305 5.74219 10.375C5.74219 10.0469 5.85156 9.74609 6.09766 9.5C6.34375 9.25391 6.64453 9.11719 7 9.11719ZM5.79688 4.60547C5.79688 4.49609 5.82422 4.41406 5.87891 4.35938C5.93359 4.30469 6.01562 4.25 6.125 4.25H7.875C7.95703 4.25 8.03906 4.30469 8.09375 4.35938C8.14844 4.41406 8.20312 4.49609 8.20312 4.60547L7.98438 8.32422C7.98438 8.40625 7.92969 8.48828 7.875 8.54297C7.82031 8.59766 7.73828 8.625 7.65625 8.625H6.34375C6.23438 8.625 6.15234 8.59766 6.09766 8.54297C6.04297 8.48828 6.01562 8.40625 6.01562 8.32422L5.79688 4.60547Z" />
</svg>