<svg width="11" height="11" viewBox="0 0 11 10" fill="none" xmlns="http://www.w3.org/2000/svg">
<path d="M9.71875 5.41602C9.68359 5.52148 9.63086 5.60938 9.56055 5.66211C9.49023 5.73242 9.40234 5.75 9.31445 5.75H4.16406L4.26953 6.3125H8.99805C9.12109 6.3125 9.22656 6.36523 9.31445 6.4707C9.38477 6.57617 9.41992 6.69922 9.40234 6.82227L9.29688 7.26172C9.47266 7.34961 9.5957 7.47266 9.70117 7.63086C9.80664 7.78906 9.85938 7.96484 9.85938 8.14062C9.85938 8.42188 9.75391 8.65039 9.56055 8.84375C9.36719 9.03711 9.13867 9.125 8.875 9.125C8.59375 9.125 8.36523 9.03711 8.17188 8.84375C7.97852 8.65039 7.89062 8.42188 7.89062 8.14062C7.89062 7.85938 7.97852 7.63086 8.18945 7.4375H4.49805C4.69141 7.63086 4.79688 7.85938 4.79688 8.14062C4.79688 8.42188 4.69141 8.65039 4.49805 8.84375C4.30469 9.03711 4.07617 9.125 3.8125 9.125C3.53125 9.125 3.30273 9.03711 3.10938 8.84375C2.91602 8.65039 2.82812 8.42188 2.82812 8.14062C2.82812 7.96484 2.86328 7.80664 2.95117 7.64844C3.03906 7.50781 3.16211 7.38477 3.32031 7.2793L2.08984 1.25H0.859375C0.736328 1.25 0.630859 1.21484 0.560547 1.12695C0.472656 1.05664 0.4375 0.951172 0.4375 0.828125V0.546875C0.4375 0.441406 0.472656 0.335938 0.560547 0.248047C0.630859 0.177734 0.736328 0.125 0.859375 0.125H2.66992C2.75781 0.125 2.8457 0.160156 2.91602 0.230469C2.98633 0.300781 3.03906 0.371094 3.07422 0.458984L3.23242 1.25H10.1406C10.2812 1.25 10.3867 1.30273 10.4746 1.4082C10.5449 1.51367 10.5801 1.63672 10.5449 1.75977L9.71875 5.41602Z" />
</svg>