<svg width="12" height="13" viewBox="0 0 12 13" fill="none" xmlns="http://www.w3.org/2000/svg">
    <path d="M0.75 2.46875C0.75 2.5625 0.773438 2.63281 0.820312 2.67969C0.867188 2.72656 0.9375 2.75 1.03125 2.75H10.9688C11.0391 2.75 11.1094 2.72656 11.1562 2.67969C11.2031 2.63281 11.25 2.5625 11.25 2.46875V1.8125C11.25 1.67188 11.1797 1.53125 11.0859 1.41406C10.9688 1.32031 10.8281 1.25 10.6875 1.25H8.0625L7.85156 0.804688C7.80469 0.710938 7.73438 0.640625 7.64062 0.59375C7.54688 0.546875 7.42969 0.5 7.33594 0.5H4.66406C4.54688 0.5 4.45312 0.546875 4.35938 0.59375C4.26562 0.640625 4.19531 0.710938 4.14844 0.804688L3.9375 1.25H1.3125C1.14844 1.25 1.00781 1.32031 0.914062 1.41406C0.796875 1.53125 0.75 1.67188 0.75 1.8125V2.46875ZM10.4766 3.80469C10.4766 3.73438 10.4297 3.66406 10.3828 3.59375C10.3359 3.54688 10.2656 3.5 10.1953 3.5H1.80469C1.71094 3.5 1.64062 3.54688 1.59375 3.59375C1.54688 3.66406 1.52344 3.73438 1.52344 3.80469L1.99219 11.4453C1.99219 11.75 2.10938 12.0078 2.34375 12.1953C2.55469 12.4062 2.8125 12.5 3.11719 12.5H8.88281C9.16406 12.5 9.42188 12.4062 9.65625 12.1953C9.86719 12.0078 9.98438 11.75 10.0078 11.4453L10.4766 3.80469Z" />
</svg>