<svg width="15" height="15" viewBox="0 0 15 15" fill="none" xmlns="http://www.w3.org/2000/svg">
<path d="M14.6172 4.63281C14.8633 4.38672 15 4.08594 15 3.70312C15 3.34766 14.8633 3.04688 14.6172 2.77344L12.9766 1.13281C12.7031 0.886719 12.4023 0.75 12.0469 0.75C11.6641 0.75 11.3633 0.886719 11.1172 1.13281L9.85938 2.39062C9.77734 2.47266 9.75 2.55469 9.75 2.63672C9.75 2.74609 9.77734 2.80078 9.85938 2.85547L12.8945 5.89062C12.9492 5.97266 13.0039 6 13.1133 6C13.1953 6 13.2773 5.97266 13.3594 5.89062L14.6172 4.63281ZM8.76562 3.48438C8.82031 3.42969 8.90234 3.375 9.01172 3.375C9.09375 3.375 9.17578 3.42969 9.23047 3.48438L12.2656 6.51953C12.3203 6.57422 12.375 6.65625 12.375 6.73828C12.375 6.84766 12.3203 6.92969 12.2656 6.98438L5.10156 14.1484L1.76562 14.75C1.54688 14.8047 1.35547 14.7227 1.19141 14.5586C1.02734 14.3945 0.945312 14.2031 1 13.9844L1.60156 10.6484L8.76562 3.48438ZM3.40625 12.3438V11.0312H2.42188L2.09375 12.7812L2.96875 13.6562L4.71875 13.3281V12.3438H3.40625Z" />
</svg>