<svg width="11" height="11" viewBox="0 0 9 9" fill="none" xmlns="http://www.w3.org/2000/svg">
<path d="M8.34961 3.00781C8.49023 2.91992 8.63086 2.91992 8.77148 2.99023C8.91211 3.07812 9 3.20117 9 3.35938V8.14062C9 8.26367 8.94727 8.36914 8.87695 8.43945C8.78906 8.52734 8.68359 8.5625 8.57812 8.5625H0.421875C0.298828 8.5625 0.193359 8.52734 0.123047 8.43945C0.0351562 8.36914 0 8.26367 0 8.14062V1.10938C0 1.00391 0.0351562 0.898438 0.123047 0.810547C0.193359 0.740234 0.298828 0.6875 0.421875 0.6875H2.39062C2.49609 0.6875 2.60156 0.740234 2.68945 0.810547C2.75977 0.898438 2.8125 1.00391 2.8125 1.10938V4.55469L5.25586 3.00781C5.39648 2.91992 5.53711 2.91992 5.67773 2.99023C5.81836 3.07812 5.90625 3.20117 5.90625 3.35938V4.55469L8.34961 3.00781ZM7.10156 6.875C7.1543 6.875 7.20703 6.85742 7.24219 6.82227C7.27734 6.78711 7.3125 6.73438 7.3125 6.66406V5.96094C7.3125 5.9082 7.27734 5.85547 7.24219 5.82031C7.20703 5.78516 7.1543 5.75 7.10156 5.75H6.39844C6.32812 5.75 6.27539 5.78516 6.24023 5.82031C6.20508 5.85547 6.1875 5.9082 6.1875 5.96094V6.66406C6.1875 6.73438 6.20508 6.78711 6.24023 6.82227C6.27539 6.85742 6.32812 6.875 6.39844 6.875H7.10156ZM4.85156 6.875C4.9043 6.875 4.95703 6.85742 4.99219 6.82227C5.02734 6.78711 5.0625 6.73438 5.0625 6.66406V5.96094C5.0625 5.9082 5.02734 5.85547 4.99219 5.82031C4.95703 5.78516 4.9043 5.75 4.85156 5.75H4.14844C4.07812 5.75 4.02539 5.78516 3.99023 5.82031C3.95508 5.85547 3.9375 5.9082 3.9375 5.96094V6.66406C3.9375 6.73438 3.95508 6.78711 3.99023 6.82227C4.02539 6.85742 4.07812 6.875 4.14844 6.875H4.85156ZM2.60156 6.875C2.6543 6.875 2.70703 6.85742 2.74219 6.82227C2.77734 6.78711 2.8125 6.73438 2.8125 6.66406V5.96094C2.8125 5.9082 2.77734 5.85547 2.74219 5.82031C2.70703 5.78516 2.6543 5.75 2.60156 5.75H1.89844C1.82812 5.75 1.77539 5.78516 1.74023 5.82031C1.70508 5.85547 1.6875 5.9082 1.6875 5.96094V6.66406C1.6875 6.73438 1.70508 6.78711 1.74023 6.82227C1.77539 6.85742 1.82812 6.875 1.89844 6.875H2.60156Z" />
</svg>
