<svg width="19" height="13" viewBox="0 0 19 13" fill="none" xmlns="http://www.w3.org/2000/svg">
<path d="M12.7441 0.75C12.9785 0.75 13.2129 0.837891 13.3887 1.01367L15 2.625V8.2793C14.9121 8.2207 14.8242 8.13281 14.7656 8.07422L10.4883 4.61719L11.25 3.91406C11.3379 3.82617 11.3965 3.70898 11.3965 3.5918C11.3965 3.47461 11.3672 3.35742 11.2793 3.24023C11.1914 3.15234 11.0742 3.09375 10.957 3.09375C10.8398 3.09375 10.7227 3.15234 10.6348 3.21094L8.29102 5.37891C8.02734 5.58398 7.73438 5.67188 7.41211 5.64258C7.06055 5.64258 6.79688 5.52539 6.62109 5.29102C6.41602 5.05664 6.32812 4.79297 6.32812 4.4707C6.32812 4.14844 6.44531 3.88477 6.70898 3.65039L9.58008 0.984375C9.75586 0.837891 9.96094 0.75 10.2246 0.75H12.7441ZM15.9375 2.625H18.75V10.125H16.875C16.6113 10.125 16.377 10.0371 16.2012 9.86133C16.0254 9.68555 15.9375 9.45117 15.9375 9.1875V2.625ZM17.3438 9.1875C17.4609 9.1875 17.5781 9.1582 17.666 9.07031C17.7539 8.98242 17.8125 8.86523 17.8125 8.71875C17.8125 8.60156 17.7539 8.48438 17.666 8.39648C17.5781 8.30859 17.4609 8.25 17.3438 8.25C17.1973 8.25 17.0801 8.30859 16.9922 8.39648C16.9043 8.48438 16.875 8.60156 16.875 8.71875C16.875 8.86523 16.9043 8.98242 16.9922 9.07031C17.0801 9.1582 17.1973 9.1875 17.3438 9.1875ZM0 10.125V2.625H2.8125V9.1875C2.8125 9.45117 2.69531 9.68555 2.51953 9.86133C2.34375 10.0371 2.10938 10.125 1.875 10.125H0ZM1.40625 8.25C1.25977 8.25 1.14258 8.30859 1.05469 8.39648C0.966797 8.48438 0.9375 8.60156 0.9375 8.71875C0.9375 8.86523 0.966797 8.98242 1.05469 9.07031C1.14258 9.1582 1.25977 9.1875 1.40625 9.1875C1.52344 9.1875 1.64062 9.1582 1.72852 9.07031C1.81641 8.98242 1.875 8.86523 1.875 8.71875C1.875 8.60156 1.81641 8.48438 1.72852 8.39648C1.64062 8.30859 1.52344 8.25 1.40625 8.25ZM14.1797 8.80664C14.3555 8.98242 14.4727 9.1875 14.502 9.42188C14.5312 9.68555 14.4727 9.91992 14.2969 10.125L14.0332 10.4473C13.8574 10.6816 13.6523 10.7988 13.3887 10.8281C13.125 10.8574 12.8906 10.7695 12.7148 10.5938L12.5684 10.4766L11.6309 11.5898C11.4551 11.8242 11.1914 11.9707 10.8984 12C10.6055 12.0586 10.3418 11.9707 10.1074 11.7656L9.58008 11.2969C9.22852 11.707 8.81836 11.9414 8.29102 12C7.76367 12.0586 7.32422 11.9414 6.94336 11.5898L4.27734 9.1875H3.75V2.625L5.36133 1.01367C5.53711 0.837891 5.74219 0.75 6.00586 0.75H8.4668L6.06445 2.94727C5.625 3.35742 5.39062 3.82617 5.39062 4.41211C5.36133 4.99805 5.53711 5.52539 5.94727 5.93555C6.32812 6.3457 6.79688 6.58008 7.38281 6.60938C7.96875 6.63867 8.4668 6.46289 8.93555 6.05273L9.81445 5.23242L14.1797 8.80664Z"/>
</svg>
