<svg width="19" height="16" viewBox="0 0 19 16" fill="none" xmlns="http://www.w3.org/2000/svg">
<path d="M2.8125 14.4688C2.8125 14.3516 2.8418 14.2344 2.92969 14.1465C3.01758 14.0586 3.13477 14 3.28125 14H8.4375V5.35742C8.14453 5.24023 7.88086 5.06445 7.64648 4.83008C7.41211 4.5957 7.26562 4.30273 7.17773 3.98047L3.31055 2.69141C3.16406 2.63281 3.07617 2.57422 3.01758 2.45703C2.95898 2.33984 2.95898 2.22266 3.01758 2.07617L3.31055 1.19727C3.33984 1.08008 3.42773 0.992188 3.54492 0.933594C3.66211 0.875 3.7793 0.875 3.89648 0.904297L7.35352 2.04688C7.5293 1.69531 7.82227 1.43164 8.17383 1.19727C8.52539 0.992188 8.93555 0.875 9.375 0.875C10.0195 0.875 10.5469 1.10938 11.0156 1.57812C11.4844 2.04688 11.7188 2.57422 11.7188 3.21875L11.6895 3.51172L15.4395 4.77148C15.5566 4.83008 15.6738 4.88867 15.7324 5.00586C15.791 5.12305 15.791 5.24023 15.7324 5.35742L15.4395 6.26562C15.3809 6.38281 15.3223 6.4707 15.2051 6.5293C15.0879 6.58789 14.9707 6.61719 14.8535 6.55859L10.6934 5.15234C10.5762 5.24023 10.4297 5.29883 10.3125 5.35742V15.4062C10.3125 15.5527 10.2539 15.6699 10.166 15.7578C10.0781 15.8457 9.96094 15.875 9.84375 15.875H3.28125C3.13477 15.875 3.01758 15.8457 2.92969 15.7578C2.8418 15.6699 2.8125 15.5527 2.8125 15.4062V14.4688ZM0 9.78125V9.75195C0 9.57617 0.0292969 9.40039 0.146484 9.16602C0.234375 8.96094 0.556641 8.28711 1.14258 7.17383L2.49023 4.44922C2.66602 4.12695 2.90039 3.89258 3.25195 3.77539C3.57422 3.6582 3.89648 3.6582 4.24805 3.77539C4.57031 3.89258 4.83398 4.12695 5.00977 4.44922L6.32812 7.08594C6.91406 8.25781 7.23633 8.96094 7.35352 9.19531C7.44141 9.42969 7.5 9.60547 7.5 9.75195V9.78125C7.5 10.2207 7.32422 10.6016 7.00195 10.9531C6.65039 11.3047 6.21094 11.5977 5.625 11.8027C5.03906 12.0371 4.42383 12.125 3.75 12.125C3.04688 12.125 2.43164 12.0371 1.8457 11.8027C1.25977 11.5977 0.820312 11.3047 0.498047 10.9531C0.146484 10.6016 0 10.2207 0 9.78125ZM1.64062 9.3125H5.85938L3.75 5.09375L1.64062 9.3125ZM11.25 13.5312V13.502C11.25 13.3262 11.2793 13.1504 11.3965 12.916C11.4844 12.7109 11.8066 12.0371 12.3926 10.9238L13.7402 8.19922C13.916 7.87695 14.1504 7.64258 14.502 7.52539C14.8242 7.4082 15.1465 7.4082 15.498 7.52539C15.8203 7.64258 16.084 7.87695 16.2598 8.19922L17.5781 10.8359C18.1641 12.0078 18.4863 12.7109 18.6035 12.9453C18.6914 13.1797 18.75 13.3555 18.75 13.502V13.5312C18.75 13.9707 18.5742 14.3516 18.252 14.7031C17.9004 15.0547 17.4609 15.3477 16.875 15.5527C16.2891 15.7871 15.6738 15.875 15 15.875C14.2969 15.875 13.6816 15.7871 13.0957 15.5527C12.5098 15.3477 12.0703 15.0547 11.748 14.7031C11.3965 14.3516 11.25 13.9707 11.25 13.5312ZM12.8906 13.0625H17.1094L15 8.84375L12.8906 13.0625Z"/>
</svg>