<svg width="11" height="11" viewBox="0 0 11 11" fill="none" xmlns="http://www.w3.org/2000/svg">
<path d="M10.4766 3.25H6.75L6 0.25H8.46094C8.60156 0.25 8.74219 0.296875 8.88281 0.390625C9.02344 0.484375 9.11719 0.625 9.16406 0.765625L10.5 3.22656H10.4766V3.25ZM3.75 3.25H0.0234375L0 3.22656L1.33594 0.765625C1.38281 0.625 1.45312 0.484375 1.59375 0.390625C1.73438 0.296875 1.875 0.25 2.03906 0.25H4.5L3.75 3.25ZM6.75 4H10.5V10C10.5 10.2109 10.4062 10.3984 10.2656 10.5391C10.125 10.6797 9.9375 10.75 9.75 10.75H0.75C0.539062 10.75 0.351562 10.6797 0.210938 10.5391C0.0703125 10.3984 0 10.2109 0 10V4H3.75V5.875C3.75 5.99219 3.77344 6.08594 3.84375 6.15625C3.91406 6.22656 4.00781 6.25 4.125 6.25H6.375C6.46875 6.25 6.5625 6.22656 6.63281 6.15625C6.70312 6.08594 6.75 5.99219 6.75 5.875V4Z"/>
</svg>
