<svg width="12" height="13" viewBox="0 0 12 13" fill="none" xmlns="http://www.w3.org/2000/svg">
<path d="M6 0.6875C7.03125 0.6875 8.01562 0.96875 8.90625 1.48438C9.79688 2 10.5 2.70312 11.0156 3.59375C11.5312 4.48438 11.8125 5.46875 11.8125 6.5C11.8125 7.55469 11.5312 8.51562 11.0156 9.40625C10.5 10.2969 9.79688 11.0234 8.90625 11.5391C8.01562 12.0547 7.03125 12.3125 6 12.3125C4.94531 12.3125 3.98438 12.0547 3.09375 11.5391C2.20312 11.0234 1.47656 10.2969 0.960938 9.40625C0.445312 8.51562 0.1875 7.55469 0.1875 6.5C0.1875 5.46875 0.445312 4.48438 0.960938 3.59375C1.47656 2.70312 2.20312 2 3.09375 1.48438C3.98438 0.96875 4.94531 0.6875 6 0.6875ZM6 11.5625C6.91406 11.5625 7.75781 11.3516 8.53125 10.8828C9.30469 10.4375 9.91406 9.82812 10.3828 9.05469C10.8281 8.28125 11.0625 7.4375 11.0625 6.5C11.0625 5.58594 10.8281 4.74219 10.3828 3.96875C9.91406 3.19531 9.30469 2.58594 8.53125 2.11719C7.75781 1.67188 6.91406 1.4375 6 1.4375C5.0625 1.4375 4.21875 1.67188 3.44531 2.11719C2.67188 2.58594 2.0625 3.19531 1.61719 3.96875C1.14844 4.74219 0.9375 5.58594 0.9375 6.5C0.9375 7.4375 1.14844 8.28125 1.61719 9.05469C2.0625 9.82812 2.67188 10.4375 3.44531 10.8828C4.21875 11.3516 5.0625 11.5625 6 11.5625ZM6.9375 6.38281C7.24219 6.47656 7.5 6.64062 7.6875 6.875C7.875 7.13281 7.96875 7.41406 7.96875 7.71875C7.96875 8.11719 7.82812 8.44531 7.54688 8.72656C7.26562 9.00781 6.9375 9.125 6.5625 9.125H6.375V10.0625C6.375 10.1094 6.35156 10.1562 6.30469 10.2031C6.25781 10.25 6.23438 10.25 6.1875 10.25H5.8125C5.76562 10.25 5.71875 10.25 5.67188 10.2031C5.625 10.1562 5.625 10.1094 5.625 10.0625V9.125H5.50781C5.03906 9.125 4.64062 8.98438 4.28906 8.70312C4.24219 8.67969 4.21875 8.63281 4.21875 8.58594C4.21875 8.53906 4.21875 8.46875 4.26562 8.42188L4.54688 8.16406C4.57031 8.11719 4.61719 8.09375 4.66406 8.09375C4.71094 8.09375 4.73438 8.11719 4.78125 8.14062C4.99219 8.30469 5.22656 8.375 5.50781 8.375H6.5625C6.72656 8.375 6.86719 8.32812 7.00781 8.1875C7.14844 8.07031 7.21875 7.90625 7.21875 7.71875C7.21875 7.57812 7.17188 7.46094 7.07812 7.34375C6.98438 7.22656 6.89062 7.13281 6.75 7.08594L5.0625 6.61719C4.73438 6.54688 4.5 6.38281 4.3125 6.125C4.125 5.89062 4.03125 5.60938 4.03125 5.28125C4.03125 4.90625 4.14844 4.57812 4.42969 4.29688C4.71094 4.01562 5.03906 3.875 5.4375 3.875H5.625V2.9375C5.625 2.89062 5.625 2.86719 5.67188 2.82031C5.71875 2.77344 5.76562 2.75 5.8125 2.75H6.1875C6.23438 2.75 6.25781 2.77344 6.30469 2.82031C6.35156 2.86719 6.375 2.89062 6.375 2.9375V3.875H6.49219C6.9375 3.875 7.33594 4.01562 7.71094 4.29688C7.75781 4.34375 7.78125 4.39062 7.78125 4.4375C7.78125 4.48438 7.75781 4.53125 7.73438 4.57812L7.45312 4.83594C7.40625 4.88281 7.38281 4.90625 7.33594 4.90625C7.28906 4.90625 7.24219 4.90625 7.21875 4.85938C6.98438 4.71875 6.75 4.625 6.49219 4.625H5.4375C5.25 4.625 5.08594 4.69531 4.96875 4.8125C4.82812 4.95312 4.78125 5.09375 4.78125 5.28125C4.78125 5.42188 4.80469 5.5625 4.89844 5.67969C4.99219 5.79688 5.10938 5.86719 5.25 5.89062L6.9375 6.38281Z"/>
</svg>
