<svg width="20" height="9" viewBox="0 0 20 9" fill="none" xmlns="http://www.w3.org/2000/svg">
<path d="M8.61133 3.00781C8.75195 2.91992 8.89258 2.91992 9.0332 2.99023C9.17383 3.07812 9.26172 3.20117 9.26172 3.35938V8.14062C9.26172 8.26367 9.20898 8.36914 9.13867 8.43945C9.05078 8.52734 8.94531 8.5625 8.83984 8.5625H0.683594C0.560547 8.5625 0.455078 8.52734 0.384766 8.43945C0.296875 8.36914 0.261719 8.26367 0.261719 8.14062V1.10938C0.261719 1.00391 0.296875 0.898438 0.384766 0.810547C0.455078 0.740234 0.560547 0.6875 0.683594 0.6875H2.65234C2.75781 0.6875 2.86328 0.740234 2.95117 0.810547C3.02148 0.898438 3.07422 1.00391 3.07422 1.10938V4.55469L5.51758 3.00781C5.6582 2.91992 5.79883 2.91992 5.93945 2.99023C6.08008 3.07812 6.16797 3.20117 6.16797 3.35938V4.55469L8.61133 3.00781ZM7.36328 6.875C7.41602 6.875 7.46875 6.85742 7.50391 6.82227C7.53906 6.78711 7.57422 6.73438 7.57422 6.66406V5.96094C7.57422 5.9082 7.53906 5.85547 7.50391 5.82031C7.46875 5.78516 7.41602 5.75 7.36328 5.75H6.66016C6.58984 5.75 6.53711 5.78516 6.50195 5.82031C6.4668 5.85547 6.44922 5.9082 6.44922 5.96094V6.66406C6.44922 6.73438 6.4668 6.78711 6.50195 6.82227C6.53711 6.85742 6.58984 6.875 6.66016 6.875H7.36328ZM5.11328 6.875C5.16602 6.875 5.21875 6.85742 5.25391 6.82227C5.28906 6.78711 5.32422 6.73438 5.32422 6.66406V5.96094C5.32422 5.9082 5.28906 5.85547 5.25391 5.82031C5.21875 5.78516 5.16602 5.75 5.11328 5.75H4.41016C4.33984 5.75 4.28711 5.78516 4.25195 5.82031C4.2168 5.85547 4.19922 5.9082 4.19922 5.96094V6.66406C4.19922 6.73438 4.2168 6.78711 4.25195 6.82227C4.28711 6.85742 4.33984 6.875 4.41016 6.875H5.11328ZM2.86328 6.875C2.91602 6.875 2.96875 6.85742 3.00391 6.82227C3.03906 6.78711 3.07422 6.73438 3.07422 6.66406V5.96094C3.07422 5.9082 3.03906 5.85547 3.00391 5.82031C2.96875 5.78516 2.91602 5.75 2.86328 5.75H2.16016C2.08984 5.75 2.03711 5.78516 2.00195 5.82031C1.9668 5.85547 1.94922 5.9082 1.94922 5.96094V6.66406C1.94922 6.73438 1.9668 6.78711 2.00195 6.82227C2.03711 6.85742 2.08984 6.875 2.16016 6.875H2.86328ZM18.4902 8.26367C17.9805 7.8418 17.5938 7.40234 17.3301 6.91016C17.9102 6.69922 18.3672 6.33008 18.6836 5.78516C19 5.25781 19.1758 4.58984 19.1758 3.79883C19.1758 2.79688 18.9121 2.00586 18.3848 1.4082C17.8574 0.828125 17.1543 0.529297 16.2578 0.529297C15.3438 0.529297 14.6406 0.828125 14.1133 1.42578C13.5859 2.02344 13.3398 2.81445 13.3398 3.81641C13.3398 4.83594 13.6035 5.62695 14.1309 6.20703C14.6582 6.80469 15.3613 7.08594 16.2578 7.08594C16.3633 7.08594 16.4688 7.08594 16.5742 7.06836C16.9609 7.77148 17.4355 8.33398 17.9805 8.73828L18.4902 8.26367ZM16.2578 6.45312C15.5547 6.45312 15.0273 6.22461 14.6582 5.76758C14.2715 5.31055 14.0957 4.64258 14.0957 3.79883C14.0957 2.95508 14.2715 2.30469 14.6582 1.84766C15.0273 1.39062 15.5547 1.16211 16.2578 1.16211C16.9258 1.16211 17.4531 1.39062 17.8398 1.84766C18.209 2.30469 18.4023 2.95508 18.4023 3.79883C18.4023 4.64258 18.209 5.31055 17.8398 5.76758C17.4531 6.22461 16.9258 6.45312 16.2578 6.45312Z" fill="white"/>
</svg>
