<svg width="16" height="14" viewBox="0 0 16 14" fill="none" xmlns="http://www.w3.org/2000/svg">
<path d="M9.25 0C9.03125 0 8.84375 0.09375 8.71875 0.21875C8.5625 0.375 8.5 0.5625 8.5 0.75V5.75C8.5 5.96875 8.5625 6.15625 8.71875 6.28125C8.84375 6.4375 9.03125 6.5 9.25 6.5H15.25C15.4375 6.5 15.625 6.4375 15.7812 6.28125C15.9062 6.15625 16 5.96875 16 5.75V0.75C16 0.5625 15.9062 0.375 15.7812 0.21875C15.625 0.09375 15.4375 0 15.25 0H9.25ZM6.75 0C6.9375 0 7.125 0.09375 7.28125 0.21875C7.40625 0.375 7.5 0.5625 7.5 0.75V5.75C7.5 5.96875 7.40625 6.15625 7.28125 6.28125C7.125 6.4375 6.9375 6.5 6.75 6.5H0.75C0.53125 6.5 0.34375 6.4375 0.21875 6.28125C0.0625 6.15625 0 5.96875 0 5.75V0.75C0 0.5625 0.0625 0.375 0.21875 0.21875C0.34375 0.09375 0.53125 0 0.75 0H6.75ZM0 8.25C0 8.0625 0.0625 7.875 0.21875 7.71875C0.34375 7.59375 0.53125 7.5 0.75 7.5H6.75C6.9375 7.5 7.125 7.59375 7.28125 7.71875C7.40625 7.875 7.5 8.0625 7.5 8.25V13.25C7.5 13.4688 7.40625 13.6562 7.28125 13.7812C7.125 13.9375 6.9375 14 6.75 14H0.75C0.53125 14 0.34375 13.9375 0.21875 13.7812C0.0625 13.6562 0 13.4688 0 13.25V8.25ZM9.25 14C9.03125 14 8.84375 13.9375 8.71875 13.7812C8.5625 13.6562 8.5 13.4688 8.5 13.25V8.25C8.5 8.0625 8.5625 7.875 8.71875 7.71875C8.84375 7.59375 9.03125 7.5 9.25 7.5H15.25C15.4375 7.5 15.625 7.59375 15.7812 7.71875C15.9062 7.875 16 8.0625 16 8.25V13.25C16 13.4688 15.9062 13.6562 15.7812 13.7812C15.625 13.9375 15.4375 14 15.25 14H9.25Z" fill="#4C9FD2"/>
</svg>