<svg width="14" height="15" viewBox="0 0 14 15" fill="none" xmlns="http://www.w3.org/2000/svg">
<path d="M6.78125 0.96875C7.98438 0.96875 9.13281 1.29688 10.1719 1.89844C11.2109 2.5 12.0312 3.32031 12.6328 4.35938C13.2344 5.39844 13.5625 6.54688 13.5625 7.75C13.5625 8.98047 13.2344 10.1016 12.6328 11.1406C12.0312 12.1797 11.2109 13.0273 10.1719 13.6289C9.13281 14.2305 7.98438 14.5312 6.78125 14.5312C5.55078 14.5312 4.42969 14.2305 3.39062 13.6289C2.35156 13.0273 1.50391 12.1797 0.902344 11.1406C0.300781 10.1016 0 8.98047 0 7.75C0 6.54688 0.300781 5.39844 0.902344 4.35938C1.50391 3.32031 2.35156 2.5 3.39062 1.89844C4.42969 1.29688 5.55078 0.96875 6.78125 0.96875ZM7.4375 11.25C7.92969 11.25 8.36719 11.0586 8.75 10.6758C9.10547 10.293 9.29688 9.85547 9.29688 9.30859C9.29688 8.87109 9.16016 8.48828 8.91406 8.13281C8.66797 7.80469 8.33984 7.55859 7.95703 7.42188L5.98828 6.82031C5.85156 6.79297 5.74219 6.71094 5.6875 6.60156C5.60547 6.49219 5.57812 6.35547 5.57812 6.19141C5.57812 6.02734 5.63281 5.89062 5.74219 5.75391C5.85156 5.64453 5.96094 5.5625 6.125 5.5625H7.35547C7.54688 5.5625 7.73828 5.61719 7.90234 5.69922C7.98438 5.75391 8.06641 5.78125 8.17578 5.78125C8.28516 5.78125 8.36719 5.75391 8.44922 5.67188L8.77734 5.34375C8.85938 5.26172 8.88672 5.15234 8.88672 5.01562C8.88672 4.87891 8.80469 4.76953 8.69531 4.66016C8.3125 4.41406 7.875 4.27734 7.4375 4.25V3.8125C7.4375 3.70312 7.38281 3.59375 7.30078 3.51172C7.21875 3.42969 7.10938 3.375 7 3.375H6.5625C6.42578 3.375 6.31641 3.42969 6.23438 3.51172C6.15234 3.59375 6.125 3.70312 6.125 3.8125V4.25C5.60547 4.25 5.16797 4.44141 4.8125 4.82422C4.42969 5.20703 4.26562 5.67188 4.26562 6.19141C4.26562 6.62891 4.375 7.03906 4.62109 7.36719C4.86719 7.72266 5.19531 7.96875 5.60547 8.07812L7.57422 8.67969C7.68359 8.73438 7.79297 8.81641 7.875 8.92578C7.92969 9.03516 7.98438 9.17188 7.98438 9.33594C7.98438 9.5 7.92969 9.63672 7.82031 9.74609C7.71094 9.88281 7.57422 9.9375 7.4375 9.9375H6.20703C5.98828 9.9375 5.82422 9.91016 5.66016 9.80078C5.55078 9.74609 5.46875 9.71875 5.35938 9.71875C5.25 9.71875 5.16797 9.77344 5.11328 9.82812L4.78516 10.1562C4.67578 10.2656 4.64844 10.375 4.64844 10.5117C4.64844 10.6484 4.73047 10.7578 4.86719 10.8398C5.25 11.1133 5.66016 11.25 6.125 11.25V11.6875C6.125 11.8242 6.15234 11.9336 6.23438 12.0156C6.31641 12.0977 6.42578 12.125 6.5625 12.125H7C7.10938 12.125 7.21875 12.0977 7.30078 12.0156C7.38281 11.9336 7.4375 11.8242 7.4375 11.6875V11.25Z" />
</svg>
