<svg xmlns="http://www.w3.org/2000/svg" width="16" height="16" viewBox="0 0 16 16">
    <g fill="none" fill-rule="evenodd">
        <circle cx="8" cy="8" r="8" fill="#1AAF5D"/>
        <path fill="#F2C500" d="M8 2.667L.444 8 8 13.333 15.556 8 8 2.667z"/>
        <path fill="#00207F" d="M8 11.111A3.111 3.111 0 1 0 8 4.89a3.111 3.111 0 0 0 0 6.222z"/>
        <path fill="#FFF" d="M10.34 9.277l-.01-.056.063-.062-.087-.013-.04-.08-.039.08-.087.013.063.062-.015.087.079-.041.062.032-.013.025-.087.013.063.061-.015.088.079-.042.078.042-.015-.088.063-.061-.087-.013-.04-.08-.015.033zM9.022 7.044l-.078.042.015-.088-.064-.061.088-.013.04-.08.038.08.088.013-.063.061.015.088-.079-.042zm-.178.89l-.078.04.015-.087-.063-.062.087-.012.04-.08.039.08.087.012-.063.062.015.088-.079-.042zm-.8.622l-.078.04.015-.087-.063-.061.087-.013.04-.08.039.08.087.013-.063.061.015.088-.079-.041zm.267.266l-.078.041.015-.087-.064-.062.088-.012.04-.08.038.08.088.012-.063.062.014.087-.078-.04zm-.355.711l-.079.042.015-.088-.063-.062.087-.012.04-.08.039.08.087.012-.063.062.015.088-.078-.042zm2.622-.422l-.052.028.01-.059-.043-.04.059-.01.026-.052.026.053.058.008-.042.041.01.059-.052-.028zm-.711.711l-.053.028.01-.058-.042-.042.059-.008.026-.053.026.053.058.008-.042.042.01.058-.052-.028zM9.556 9.8l-.079.041.015-.087-.063-.062.087-.013.04-.079.039.08.087.012-.063.062.015.087-.078-.041zm.622-.089l.078.041-.015-.087.064-.062-.088-.012-.04-.08-.038.08-.088.012.063.062-.015.087.079-.04zm-.622.8l.078.041-.015-.087.063-.062-.087-.012-.04-.08-.039.08-.087.012.063.062-.015.087.079-.04zm0-.355l.078.04-.015-.087.063-.061-.087-.013-.04-.08-.039.08-.087.013.063.061-.015.088.079-.041zM5.378 7.489l-.079.041.015-.087-.063-.062.088-.013.039-.08.039.08.088.013-.064.062.015.087-.078-.041zm.844.822l-.052.028.01-.059-.042-.04.058-.01.026-.052.026.053.059.008-.043.041.01.059-.052-.028zm-.489.511l-.078.041.015-.087-.063-.062.087-.012.04-.08.039.08.087.012-.063.062.015.087-.079-.04zm.534.622l-.079.042.015-.088-.063-.061.087-.013.04-.08.039.08.087.013-.063.061.015.088-.078-.042zm-.978-.355l-.078.041.014-.087-.063-.062.088-.013.039-.08.04.08.087.013-.064.062.015.087-.078-.041zm1.6-1.156l-.078.042.014-.088-.063-.062.088-.012.039-.08.04.08.087.012-.064.062.015.088-.078-.042zm-.222 1.711l-.053.028.01-.058-.042-.041.059-.009.026-.053.026.053.058.009-.042.04.01.059-.052-.028zm.889-.888l-.053.027.01-.058-.042-.041.058-.009.027-.053.026.053.058.009-.042.04.01.059-.052-.027zm.355.266l-.052.028.01-.058-.042-.042.058-.008.026-.053.026.053.059.008-.043.042.01.058-.052-.028zm.711.711l-.052.028.01-.058-.042-.042.058-.008.026-.053.026.053.059.008-.043.042.01.058-.052-.028zm.445.178l-.053.028.01-.059-.042-.04.059-.01.026-.052.026.053.058.008-.042.041.01.059-.052-.028zm-.267.356l-.052.027.01-.058-.043-.041.059-.009.026-.053.026.053.059.009-.043.041.01.058-.052-.027z"/>
        <path fill="#FFF" d="M11.07 8.503a7.526 7.526 0 0 0-4.937-1.836c-.33 0-.655.02-.973.062-.068.152-.125.31-.168.473.372-.06.753-.09 1.141-.09 1.859 0 3.55.712 4.817 1.879a3.09 3.09 0 0 0 .12-.488z"/>
    </g>
</svg>
