<svg xmlns="http://www.w3.org/2000/svg" width="16" height="16" viewBox="0 0 16 16">
    <g fill="none" fill-rule="evenodd">
        <circle cx="8" cy="8" r="8" fill="#00207F"/>
        <path fill="#F7E017" d="M13.762 10.18s.159-.257.304-.221c.145.035.353.455.606.544.127.197-.036.375-.09.411-.055.036-.299.134-.335-.009-.036-.143-.109-.116-.109-.116s-1.158 1.116-2.497 1.072c-1.385.009-2.525-1.072-2.525-1.072l-.1.107s-.108.116-.163.107c-.054-.009-.29-.16-.307-.312-.018-.152.144-.25.144-.25s.399-.304.444-.464c.09-.09.262.062.262.062s1.022 1.116 2.217 1.116c1.196 0 2.149-.975 2.149-.975z"/>
        <path fill="#000" d="M13.744 10.183a2.006 2.006 0 0 1-.156.14 4.04 4.04 0 0 1-.458.335c-.483.304-.996.487-1.517.487-.52 0-1.046-.209-1.55-.557a4.508 4.508 0 0 1-.678-.572.537.537 0 0 0-.046-.031.324.324 0 0 0-.099-.043c-.045-.01-.084-.002-.113.027a.54.54 0 0 1-.128.184 3.233 3.233 0 0 1-.338.296.407.407 0 0 0-.051.046.244.244 0 0 0-.075.197c.016.13.222.306.317.322.02.003.044-.006.074-.025a.443.443 0 0 0 .081-.068.585.585 0 0 0 .017-.017l.1-.108c-.013.003-.009.007-.002.013l.038.034a4.875 4.875 0 0 0 .688.49c.576.34 1.183.542 1.793.538.597.02 1.203-.184 1.783-.536a4.878 4.878 0 0 0 .722-.538c.013-.002.031.003.049.022a.203.203 0 0 1 .042.089c.017.07.081.093.172.08a.528.528 0 0 0 .178-.065c.119-.078.199-.263.094-.425-.104-.04-.196-.12-.322-.267a5.652 5.652 0 0 1-.04-.048l-.04-.048a2.244 2.244 0 0 0-.075-.086c-.055-.058-.097-.091-.136-.1a.13.13 0 0 0-.039-.004c-.06.003-.125.046-.188.115a.837.837 0 0 0-.088.114l-.01.009zm.05-.032a.816.816 0 0 1 .062-.076c.06-.066.12-.106.175-.109a.11.11 0 0 1 .032.003c.033.008.073.04.125.095l.075.085.04.047.04.05c.128.148.222.231.326.267.091.147.017.32-.093.392a.508.508 0 0 1-.17.061c-.081.013-.134-.006-.149-.063a.222.222 0 0 0-.047-.099c-.023-.025-.048-.03-.07-.026-.011.005-.015.01-.022.015l-.037.034a4.857 4.857 0 0 1-.668.49c-.577.35-1.179.553-1.772.533-.606.004-1.21-.197-1.782-.534a4.854 4.854 0 0 1-.736-.535l-.008-.007-.007.008-.1.107a.566.566 0 0 1-.094.082c-.025.016-.046.024-.059.022-.086-.014-.285-.184-.299-.303-.008-.066.02-.127.07-.18a.386.386 0 0 1 .07-.06 1.077 1.077 0 0 0 .071-.057 3.253 3.253 0 0 0 .247-.226.532.532 0 0 0 .13-.188c.021-.018.053-.025.092-.016.029.006.06.02.092.04a.516.516 0 0 1 .072.056 2.388 2.388 0 0 0 .168.162c.143.131.305.263.483.385.507.35 1.037.56 1.562.56.526 0 1.042-.184 1.528-.49a4.062 4.062 0 0 0 .629-.489.933.933 0 0 1 .024-.036z"/>
        <path fill="#000" d="M10.043 10.748l-.008.01a.081.081 0 0 0-.056-.004.447.447 0 0 0-.087.043l-.359.207-.01-.007.09-.414c.012-.05.017-.08.016-.09-.001-.011-.009-.023-.023-.036l.008-.01.193.135-.008.011-.006-.004c-.018-.013-.031-.019-.04-.02a.018.018 0 0 0-.017.009.052.052 0 0 0-.006.014.916.916 0 0 0-.012.05l-.057.259.207-.12a.579.579 0 0 0 .048-.031.083.083 0 0 0 .017-.016.032.032 0 0 0 0-.04.115.115 0 0 0-.03-.028l.007-.011.133.093m.128.615l-.006.012-.227-.123.006-.012.015.008a.07.07 0 0 0 .034.01.034.034 0 0 0 .021-.008.148.148 0 0 0 .026-.038l.156-.282a.16.16 0 0 0 .02-.043.035.035 0 0 0-.007-.022.063.063 0 0 0-.026-.022l-.014-.008.006-.012.228.123-.007.012-.014-.008a.07.07 0 0 0-.034-.01.035.035 0 0 0-.022.008.148.148 0 0 0-.026.038l-.156.282a.16.16 0 0 0-.02.043.04.04 0 0 0 .007.022.068.068 0 0 0 .026.022l.014.008m.83-.192l-.058.162-.013-.004c0-.05-.01-.092-.032-.126a.172.172 0 0 0-.089-.07.14.14 0 0 0-.097-.001.168.168 0 0 0-.079.063.423.423 0 0 0-.079.223.139.139 0 0 0 .025.092.156.156 0 0 0 .075.053.192.192 0 0 0 .076.01l.035-.095a.105.105 0 0 0 .009-.037.036.036 0 0 0-.011-.02.061.061 0 0 0-.026-.016l-.012-.004.004-.013.227.08-.005.012a.105.105 0 0 0-.038-.005.037.037 0 0 0-.022.012.101.101 0 0 0-.015.03l-.034.096a.485.485 0 0 1-.312-.085.298.298 0 0 1-.06-.074.236.236 0 0 1-.029-.084.24.24 0 0 1 .014-.113c.025-.07.07-.12.137-.15a.274.274 0 0 1 .212-.006.347.347 0 0 1 .06.027c.01.006.025.017.044.033a.22.22 0 0 0 .036.027.03.03 0 0 0 .02 0 .068.068 0 0 0 .025-.022l.012.005m.35.554l-.002.013-.256-.038.002-.014.016.003a.07.07 0 0 0 .036-.003.033.033 0 0 0 .017-.015.147.147 0 0 0 .01-.044l.05-.318a.159.159 0 0 0 .003-.047.035.035 0 0 0-.014-.018.064.064 0 0 0-.031-.012l-.017-.002.002-.014.256.039-.002.013-.016-.003a.07.07 0 0 0-.035.003.035.035 0 0 0-.018.015.147.147 0 0 0-.01.044l-.05.318a.159.159 0 0 0-.003.047.04.04 0 0 0 .014.019c.008.005.018.01.032.011l.016.003m.665-.16l-.01.173-.44.022v-.014h.017a.07.07 0 0 0 .034-.01.033.033 0 0 0 .014-.018.147.147 0 0 0 .001-.045l-.016-.321a.159.159 0 0 0-.007-.047.035.035 0 0 0-.017-.015.064.064 0 0 0-.033-.006h-.017v-.012l.263-.014.001.014h-.021a.07.07 0 0 0-.035.01.035.035 0 0 0-.014.018.147.147 0 0 0-.001.046l.016.31c0 .026.003.041.006.048a.03.03 0 0 0 .018.015.176.176 0 0 0 .045 0l.04-.002a.141.141 0 0 0 .066-.017.12.12 0 0 0 .043-.045.342.342 0 0 0 .032-.089h.015m.48-.083l-.167.05-.007.051a.104.104 0 0 0 .002.04.033.033 0 0 0 .025.025c.007.002.024 0 .049-.006l.004.013-.158.047-.004-.013a.074.074 0 0 0 .036-.033.291.291 0 0 0 .019-.083l.057-.424.006-.002.288.334c.027.031.047.05.06.057.01.005.023.005.038.002l.004.013-.23.068-.004-.013.01-.003c.018-.005.03-.012.036-.019a.019.019 0 0 0 .003-.018.044.044 0 0 0-.006-.012.338.338 0 0 0-.018-.023l-.043-.05m-.02-.023l-.119-.14-.024.182.144-.042m.632-.636l.064.116-.012.006a.208.208 0 0 0-.054-.045.1.1 0 0 0-.05-.01.126.126 0 0 0-.046.017l-.032.017.18.332a.16.16 0 0 0 .027.04.04.04 0 0 0 .022.006.07.07 0 0 0 .033-.01l.015-.007.006.012-.228.12-.007-.011.015-.008a.068.068 0 0 0 .027-.023.034.034 0 0 0 .004-.022.147.147 0 0 0-.018-.042l-.18-.332-.032.017c-.03.016-.048.033-.054.052a.137.137 0 0 0 .004.093l-.012.006-.063-.117.391-.207m.298-.174l.12.159.009-.006c.025-.019.037-.04.037-.064a.178.178 0 0 0-.031-.085l.01-.008.157.204-.011.008a.191.191 0 0 0-.057-.043.078.078 0 0 0-.048-.01.123.123 0 0 0-.049.025l.084.11a.21.21 0 0 0 .033.038.031.031 0 0 0 .02.004.061.061 0 0 0 .028-.014l.023-.018a.175.175 0 0 0 .07-.09.174.174 0 0 0-.011-.114l.01-.008.078.137-.342.255-.008-.01.013-.01a.068.068 0 0 0 .023-.027.032.032 0 0 0 .001-.023.148.148 0 0 0-.024-.038l-.197-.257a.257.257 0 0 0-.026-.032.035.035 0 0 0-.023-.007.063.063 0 0 0-.036.014l-.013.01-.008-.01.33-.247.089.116-.011.008a.177.177 0 0 0-.07-.043.11.11 0 0 0-.064.005.294.294 0 0 0-.066.04l-.04.03"/>
        <path fill="#FFF" d="M14.055 5.12l-.01 4.24c.008.49-.692.986-2.418 1.82-.981-.499-1.415-.735-1.772-.984-.43-.3-.632-.562-.637-.845l.02-4.213 4.817-.017z"/>
        <path fill="#007535" d="M9.315 5.226l4.651-.027v4.126c.01.535-.905 1.08-2.334 1.777-1.476-.75-2.326-1.206-2.335-1.786l.018-4.09z"/>
        <g fill="#FCC917">
            <path d="M13.123 9.384a.05.05 0 0 0-.05-.05.05.05 0 0 0-.05.05c0 .01.003.02.009.03l-.243.352-.007.008h-.206s-.014.1.187.12a.24.24 0 0 0 .12.09c-.027.02-.034.047-.034.082h.426s.006-.054-.045-.087c.223-.03.165-.224.352-.235.036.005-.098.082-.098.082s-.112.079-.061.119c.04.031.058-.02.064-.058.006-.039.181-.063.156-.173-.042-.091-.287.06-.287.06h-.175c-.01-.017-.046-.076-.087-.093-.003-.002.02-.021.029-.045.01-.028.004-.061-.055-.073-.04.014-.05.043-.046.065.006.03.035.05.032.051-.05.018-.083.095-.083.095h-.162l.238-.347a.05.05 0 0 0 .05 0l.235.34h.024l-.244-.353a.049.049 0 0 0 .01-.03zM13.123 8.598a.05.05 0 0 0-.05-.05.05.05 0 0 0-.05.05c0 .011.003.021.009.03l-.243.352-.007.008h-.206s-.014.1.187.12a.24.24 0 0 0 .12.09c-.027.02-.034.047-.034.082l.426.001s.006-.055-.045-.088c.223-.03.165-.224.352-.235.036.006-.098.083-.098.083s-.112.078-.061.118c.04.031.058-.02.064-.058.006-.038.181-.063.156-.173-.042-.091-.287.06-.287.06h-.175c-.01-.017-.046-.076-.087-.093-.003-.002.02-.021.029-.045.01-.028.004-.061-.055-.072-.04.013-.05.042-.046.065.006.028.035.05.032.05-.05.018-.083.095-.083.095h-.162l.238-.347a.05.05 0 0 0 .05 0l.235.34h.024l-.244-.353a.049.049 0 0 0 .01-.03zM13.123 7.829a.05.05 0 0 0-.05-.05.05.05 0 0 0-.05.05c0 .01.003.02.009.029l-.243.352-.007.009h-.206s-.014.1.187.12a.24.24 0 0 0 .12.089c-.027.021-.034.047-.034.082l.426.001s.006-.054-.045-.087c.223-.03.165-.225.352-.236.036.006-.098.083-.098.083s-.112.078-.061.118c.04.032.058-.02.064-.058.006-.038.181-.063.156-.173-.042-.09-.287.06-.287.06h-.175c-.01-.017-.046-.076-.087-.093-.003-.001.02-.02.029-.045.01-.028.004-.06-.055-.072-.04.013-.05.043-.046.065.006.029.035.05.032.05-.05.019-.083.096-.083.096h-.162l.238-.348a.05.05 0 0 0 .05 0l.235.34h.024l-.244-.353a.049.049 0 0 0 .01-.03zM13.123 7.016a.05.05 0 0 0-.05-.05.05.05 0 0 0-.05.05c0 .011.003.021.009.03l-.243.352-.007.008h-.206s-.014.1.187.12a.24.24 0 0 0 .12.09c-.027.02-.034.047-.034.082l.426.001s.006-.055-.045-.088c.223-.03.165-.224.352-.235.036.006-.098.083-.098.083s-.112.078-.061.118c.04.031.058-.02.064-.058.006-.038.181-.063.156-.173-.042-.091-.287.06-.287.06h-.175c-.01-.017-.046-.076-.087-.093-.003-.002.02-.021.029-.045.01-.028.004-.061-.055-.072-.04.013-.05.042-.046.065.006.028.035.05.032.05-.05.018-.083.095-.083.095h-.162l.238-.347a.05.05 0 0 0 .05 0l.235.34h.024l-.244-.353a.049.049 0 0 0 .01-.03zM13.123 6.247a.05.05 0 0 0-.05-.05.05.05 0 0 0-.05.05c0 .01.003.02.009.029l-.243.352-.007.009h-.206s-.014.1.187.12a.24.24 0 0 0 .12.089c-.027.021-.034.047-.034.082l.426.001s.006-.054-.045-.087c.223-.03.165-.225.352-.236.036.006-.098.083-.098.083s-.112.078-.061.118c.04.032.058-.02.064-.058.006-.038.181-.063.156-.173-.042-.09-.287.06-.287.06h-.175c-.01-.017-.046-.076-.087-.093-.003-.001.02-.02.029-.045.01-.028.004-.06-.055-.072-.04.013-.05.043-.046.065.006.029.035.05.032.05-.05.019-.083.096-.083.096h-.162l.238-.348a.05.05 0 0 0 .05 0l.235.34h.024l-.244-.353a.049.049 0 0 0 .01-.03zM13.123 5.434a.05.05 0 0 0-.05-.05.05.05 0 0 0-.05.05c0 .011.003.021.009.03l-.243.352-.007.008h-.206s-.014.1.187.12a.24.24 0 0 0 .12.09c-.027.02-.034.047-.034.082l.426.001s.006-.055-.045-.088c.223-.03.165-.224.352-.235.036.006-.098.083-.098.083s-.112.078-.061.118c.04.031.058-.02.064-.058.006-.038.181-.063.156-.173-.042-.091-.287.06-.287.06h-.175c-.01-.017-.046-.076-.087-.093-.003-.002.02-.021.029-.045.01-.028.004-.061-.055-.072-.04.013-.05.042-.046.065.006.028.035.05.032.05-.05.018-.083.095-.083.095h-.162l.238-.347a.05.05 0 0 0 .05 0l.235.34h.024l-.244-.353a.049.049 0 0 0 .01-.03zM10.287 9.384a.05.05 0 0 0-.05-.05.05.05 0 0 0-.05.05c0 .01.003.02.009.03l-.243.352-.007.008H9.74s-.014.1.187.12a.24.24 0 0 0 .12.09c-.027.02-.034.047-.034.082h.426s.006-.054-.045-.087c.223-.03.165-.224.352-.235.036.005-.098.082-.098.082s-.112.079-.061.119c.04.031.059-.02.064-.058.006-.039.181-.063.156-.173-.042-.091-.287.06-.287.06h-.175c-.01-.017-.045-.076-.087-.093-.003-.002.02-.021.029-.045.01-.028.004-.061-.055-.073-.04.014-.05.043-.046.065.006.03.035.05.032.051-.05.018-.082.095-.082.095h-.163l.238-.347a.05.05 0 0 0 .05 0l.235.34h.024l-.244-.353a.049.049 0 0 0 .01-.03zM10.287 8.598a.05.05 0 0 0-.05-.05.05.05 0 0 0-.05.05c0 .011.003.021.009.03l-.243.352-.007.008H9.74s-.014.1.187.12a.24.24 0 0 0 .12.09c-.027.02-.034.047-.034.082l.426.001s.006-.055-.045-.088c.223-.03.165-.224.352-.235.036.006-.098.083-.098.083s-.112.078-.061.118c.04.031.059-.02.064-.058.006-.038.181-.063.156-.173-.042-.091-.287.06-.287.06h-.175c-.01-.017-.045-.076-.087-.093-.003-.002.02-.021.029-.045.01-.028.004-.061-.055-.072-.04.013-.05.042-.046.065.006.028.035.05.032.05-.05.018-.082.095-.082.095h-.163l.238-.347a.05.05 0 0 0 .05 0l.235.34h.024l-.244-.353a.049.049 0 0 0 .01-.03zM10.774 7.829a.05.05 0 0 0-.05-.05.05.05 0 0 0-.05.05c0 .01.003.02.01.029l-.244.352-.007.009h-.206s-.014.1.187.12a.24.24 0 0 0 .12.089c-.027.021-.034.047-.034.082l.426.001s.006-.054-.045-.087c.223-.03.165-.225.352-.236.036.006-.097.083-.097.083s-.113.078-.062.118c.04.032.059-.02.064-.058.006-.038.181-.063.156-.173-.041-.09-.287.06-.287.06h-.175c-.009-.017-.045-.076-.087-.093-.003-.001.02-.02.029-.045.01-.028.004-.06-.055-.072-.039.013-.05.043-.045.065.005.029.035.05.031.05-.049.019-.082.096-.082.096h-.163l.238-.348a.05.05 0 0 0 .05 0l.235.34h.025l-.244-.353a.049.049 0 0 0 .01-.03zM10.287 7.016a.05.05 0 0 0-.05-.05.05.05 0 0 0-.05.05c0 .011.003.021.009.03l-.243.352-.007.008H9.74s-.014.1.187.12a.24.24 0 0 0 .12.09c-.027.02-.034.047-.034.082l.426.001s.006-.055-.045-.088c.223-.03.165-.224.352-.235.036.006-.098.083-.098.083s-.112.078-.061.118c.04.031.059-.02.064-.058.006-.038.181-.063.156-.173-.042-.091-.287.06-.287.06h-.175c-.01-.017-.045-.076-.087-.093-.003-.002.02-.021.029-.045.01-.028.004-.061-.055-.072-.04.013-.05.042-.046.065.006.028.035.05.032.05-.05.018-.082.095-.082.095h-.163l.238-.347a.05.05 0 0 0 .05 0l.235.34h.024l-.244-.353a.049.049 0 0 0 .01-.03zM10.287 6.247a.05.05 0 0 0-.05-.05.05.05 0 0 0-.05.05c0 .01.003.02.009.029l-.243.352-.007.009H9.74s-.014.1.187.12a.24.24 0 0 0 .12.089c-.027.021-.034.047-.034.082l.426.001s.006-.054-.045-.087c.223-.03.165-.225.352-.236.036.006-.098.083-.098.083s-.112.078-.061.118c.04.032.059-.02.064-.058.006-.038.181-.063.156-.173-.042-.09-.287.06-.287.06h-.175c-.01-.017-.045-.076-.087-.093-.003-.001.02-.02.029-.045.01-.028.004-.06-.055-.072-.04.013-.05.043-.046.065.006.029.035.05.032.05-.05.019-.082.096-.082.096h-.163l.238-.348a.05.05 0 0 0 .05 0l.235.34h.024l-.244-.353a.049.049 0 0 0 .01-.03zM10.287 5.434a.05.05 0 0 0-.05-.05.05.05 0 0 0-.05.05c0 .011.003.021.009.03l-.243.352-.007.008H9.74s-.014.1.187.12a.24.24 0 0 0 .12.09c-.027.02-.034.047-.034.082l.426.001s.006-.055-.045-.088c.223-.03.165-.224.352-.235.036.006-.098.083-.098.083s-.112.078-.061.118c.04.031.059-.02.064-.058.006-.038.181-.063.156-.173-.042-.091-.287.06-.287.06h-.175c-.01-.017-.045-.076-.087-.093-.003-.002.02-.021.029-.045.01-.028.004-.061-.055-.072-.04.013-.05.042-.046.065.006.028.035.05.032.05-.05.018-.082.095-.082.095h-.163l.238-.347a.05.05 0 0 0 .05 0l.235.34h.024l-.244-.353a.049.049 0 0 0 .01-.03z"/>
        </g>
        <g>
            <path fill="#FFC6B5" d="M11.632 6.226s.031-.125 0-.119c-.03.006-.098-.021-.139-.042-.04-.022.016-.1 0-.104-.015-.003 0-.067 0-.067s-.037-.006-.04-.024c-.003-.019.022-.025.025-.022.003.003.056-.06.053-.09l-.01-.09.022-.115.34.046s.018.399.005.487c-.012.088.034.119.034.119l.065.08-.58.87s-.17.18-.216.216a15.59 15.59 0 0 1-.253.186s-.108.073-.074.094c.034.021.028.134.028.134s-.099.262-.13.25c-.12-.025-.09-.241-.092-.29-.003-.048.117-.18.148-.219.03-.04.114-.189.17-.262.055-.073.237-.277.237-.277s.022-.183.062-.365c-.006-.189.148-.259.148-.259l.197-.137z"/>
            <path fill="#000" d="M10.81 7.95a.499.499 0 0 1-.03.056c-.009.013-.015.018-.014.019l-.003-.001a.235.235 0 0 0-.017-.087.639.639 0 0 0-.064-.135l-.003.001a2.053 2.053 0 0 1 .001-.058c0-.017.019-.052.054-.1l.021-.027.071-.085a.785.785 0 0 0 .04-.06l.054-.088a4.24 4.24 0 0 1 .076-.114c.02-.026.056-.07.104-.125l.006-.008a13.209 13.209 0 0 1 .127-.144l.003-.006a2.425 2.425 0 0 1 .015-.113c.013-.086.029-.171.046-.25a.265.265 0 0 1 .142-.252l.2-.138.004-.006a.623.623 0 0 0 .011-.061.19.19 0 0 0 .002-.045c-.002-.018-.01-.03-.026-.026-.023.004-.082-.016-.132-.042-.01-.005-.011-.017-.006-.037A.224.224 0 0 1 11.497 6a.3.3 0 0 0 .009-.025c.003-.013.001-.022-.01-.024.002 0 0-.009.002-.022a.251.251 0 0 1 .006-.032l.002-.012-.01-.001a.086.086 0 0 1-.019-.006c-.008-.003-.013-.007-.013-.01-.001-.005.009-.01.007-.012.004.005.009.004.013.002a.266.266 0 0 0 .031-.036c.018-.026.028-.05.026-.066a14.704 14.704 0 0 0-.006-.056l-.002-.023-.001-.01.021-.112-.012.009.34.045-.01-.01a8.779 8.779 0 0 1 .007.485.154.154 0 0 0 .017.106c.008.012.016.02.022.024l.062.078v-.013l-.581.87-.008.008a9.47 9.47 0 0 1-.098.101l-.006.007c-.049.05-.084.084-.101.097a5.471 5.471 0 0 1-.242.178l-.011.008a.42.42 0 0 0-.062.051c-.025.026-.033.048-.012.061.01.006.018.027.021.057.003.02.003.043.002.062a2.51 2.51 0 0 1-.067.162l-.004-.124h-.02l.004.134h.016zm-.06.066c-.04-.02-.062-.064-.069-.13a.493.493 0 0 1-.002-.046.862.862 0 0 1 .053.104.215.215 0 0 1 .018.072zm.876-1.799l-.197.137a.296.296 0 0 0-.076.058.283.283 0 0 0-.077.21 3.725 3.725 0 0 0-.061.364l.002-.006a8.1 8.1 0 0 0-.127.144l-.006.007a1.385 1.385 0 0 0-.182.242l-.054.088a.777.777 0 0 1-.039.058c-.004.007-.053.065-.07.086l-.022.028c-.039.051-.06.089-.058.113v.04a.774.774 0 0 0 .001.101c.008.089.038.145.1.158.019.008.04-.023.072-.091a1.486 1.486 0 0 0 .066-.154 1.54 1.54 0 0 0 .005-.02c0-.02 0-.043-.003-.065-.004-.037-.013-.062-.03-.073-.004-.003 0-.012.015-.028a.268.268 0 0 1 .047-.04.412.412 0 0 1 .012-.009l.012-.008a33.927 33.927 0 0 0 .242-.178 1.5 1.5 0 0 0 .103-.099l.006-.007a8.486 8.486 0 0 0 .098-.102l.01-.01.581-.87.004-.007-.005-.006-.064-.08a.07.07 0 0 1-.018-.02.133.133 0 0 1-.014-.09c.005-.036.005-.12.003-.237a10.58 10.58 0 0 0-.01-.253V5.59h-.008l-.34-.047h-.01l-.002.01-.021.115v.012l.003.024.006.055c.001.01-.008.03-.022.051a.245.245 0 0 1-.024.03c.004-.004.005-.004.011.002-.013-.013-.046.006-.042.03.002.013.012.021.026.027a.106.106 0 0 0 .023.007l-.009-.013a.312.312 0 0 0-.006.034c-.003.027-.001.043.014.046-.005-.002-.006-.004-.006-.002a.297.297 0 0 1-.008.023.244.244 0 0 0-.006.02c-.007.029-.003.05.018.061.053.029.115.05.145.044l.001.007a.508.508 0 0 1-.013.098l.004-.006z"/>
            <path fill="#FFF" d="M11.61 6.22s.04.106.13.088c.09-.018.195-.1.195-.1s.083-.003.095.009c.013.012.226.216.22.28-.007.064-.1.046-.133.088-.034.043-.09.15-.074.229.015.079.061.182.055.222-.006.04-.04.052-.04.073 0 .021.028.058.028.097 0 .04-.037.098-.03.137.005.04.008.156.008.156l-.009.536s.03.018.034.048c.003.03.21.917.21.917s-.01.027-.031.024c-.022-.003.083.137.086.177.003.04.108.35.105.392a.478.478 0 0 1-.028.14c-.009.004.068.195.056.226-.012.03-.139.027-.139.027l-.034-.006s.003.04-.021.043c-.025.003-.207-.01-.207-.01s-.053.08-.083.077c-.031-.003-.071-.058-.08-.049-.01.01.027.06.018.076-.01.015-.167.049-.198-.024-.03-.073.019-.055.01-.07-.01-.015-.08-.055-.102-.043-.022.012.055.03.052.061-.003.03-.068.076-.092.076-.025 0-.084-.113-.17-.1a.712.712 0 0 0-.142.033s-.102.043-.145.034c-.043-.01-.062-.043-.062-.061 0-.019.031-.098.028-.122-.003-.024-.028-.049-.028-.085 0-.037.071-.162.071-.162l-.003-.56s-.065 0-.068-.04c-.003-.04.1-.885.115-.94.015-.055.055-.25.055-.25s-.046.021-.05 0c-.002-.021.14-.505.14-.505s.024-.24.024-.305c0-.064-.012-.152-.012-.152s-.127-.053-.13-.134c-.011-.129.12-.201.136-.244l.062-.17s.068-.116.179-.134z"/>
            <path fill="#000" d="M11.608 6.239a.201.201 0 0 0 .02.033c.03.037.068.056.114.047a.503.503 0 0 0 .176-.086.567.567 0 0 0 .023-.017l-.006.002a.446.446 0 0 1 .088.006l.012.013a2.653 2.653 0 0 1 .129.136c.049.058.077.103.075.123-.002.025-.016.034-.061.047-.04.011-.056.019-.07.036-.05.062-.09.166-.076.237a.711.711 0 0 0 .026.094c.027.086.033.106.03.124a.068.068 0 0 1-.017.035l-.016.019a.036.036 0 0 0-.007.02c0 .007.001.014.005.023a.284.284 0 0 0 .004.012l.005.012a.132.132 0 0 1 .013.051.183.183 0 0 1-.015.06c-.014.04-.018.06-.015.079a.822.822 0 0 1 .008.128v.026l-.009.535.006.01c.003.002.009.006.014.012a.05.05 0 0 1 .014.028 228.509 228.509 0 0 0 .201.88l.01.038c0-.004-.003 0-.005.004-.005.006-.01.008-.015.007-.013-.001-.017.01-.014.02a.739.739 0 0 0 .026.05l.02.032.005.008a.278.278 0 0 1 .038.079c.001.016.004.028.053.19l.002.008c.035.115.05.177.05.193-.003.042-.02.13-.02.13-.013.004-.013.006-.001.045a8.029 8.029 0 0 0 .026.083.316.316 0 0 1 .023.104c-.003.007-.026.014-.06.018a.59.59 0 0 1-.066.003l-.035-.006-.013-.003V10c-.003.008-.006.012-.012.013a1.104 1.104 0 0 1-.126-.004 8.992 8.992 0 0 1-.078-.005h-.006a.395.395 0 0 1-.054.064c-.01.009-.019.013-.023.012a.044.044 0 0 1-.018-.007.181.181 0 0 1-.02-.015l-.023-.02c-.012-.008-.02-.012-.028-.004-.01.01-.008.014.007.048.008.02.01.03.01.03-.014.024-.158.027-.179-.022-.013-.031-.012-.042-.004-.046a.145.145 0 0 1 .006-.003c.009-.005.013-.013.007-.023-.015-.023-.092-.06-.116-.046-.014.007-.012.02-.001.029a.102.102 0 0 0 .012.008l.013.008c.016.01.023.018.023.024-.002.022-.06.066-.082.066a.055.055 0 0 1-.016-.012l-.034-.035c-.041-.04-.078-.059-.121-.053a.85.85 0 0 0-.192.051.505.505 0 0 1-.033.01.148.148 0 0 1-.059.006c-.032-.007-.053-.031-.053-.05 0-.006.002-.012.014-.052a.214.214 0 0 0 .014-.071c-.002-.011-.003-.014-.015-.04a.097.097 0 0 1-.013-.044c0-.012.01-.037.025-.071a1.02 1.02 0 0 1 .045-.085l-.002-.566-.01-.01a.11.11 0 0 1-.032-.005c-.016-.006-.025-.014-.026-.025-.003-.04.099-.885.114-.937l.025-.106.002-.013a11.928 11.928 0 0 0 .026-.12l.002-.012.005-.02-.02.008a.122.122 0 0 1-.022.008c-.009.002-.012.001-.012 0a3.524 3.524 0 0 1 .066-.247l.003-.013a31.114 31.114 0 0 1 .07-.24 1.99 1.99 0 0 0 .012-.13 8.716 8.716 0 0 0 .013-.178.745.745 0 0 0-.006-.101 1.743 1.743 0 0 0-.007-.053l-.006-.008a.337.337 0 0 1-.063-.036c-.037-.027-.059-.057-.06-.088-.005-.059.018-.106.065-.159l.043-.044a.116.116 0 0 0 .027-.037l.028-.078.034-.092.013-.019a.352.352 0 0 1 .04-.046.226.226 0 0 1 .117-.063l-.011-.006a.155.155 0 0 0 .007.015zm.001-.03a.247.247 0 0 0-.128.069.373.373 0 0 0-.058.07l-.034.094-.029.079a.103.103 0 0 1-.023.03 2.51 2.51 0 0 0-.042.044c-.052.056-.077.11-.071.174.001.038.027.073.069.104a.358.358 0 0 0 .067.039l-.007-.009a1.088 1.088 0 0 1 .013.151 2.168 2.168 0 0 1-.013.175 11.92 11.92 0 0 1-.012.129 34.36 34.36 0 0 0-.07.239c0 .006 0 .006-.003.012a2.247 2.247 0 0 0-.066.257c.003.017.018.02.037.017a.117.117 0 0 0 .027-.01l-.014-.011-.003.011a13.572 13.572 0 0 1-.025.12l-.003.013c-.01.05-.02.086-.025.105-.015.054-.117.902-.114.944.002.023.017.037.041.044a.131.131 0 0 0 .037.006l-.01-.01.003.56a1.48 1.48 0 0 0-.043.081.237.237 0 0 0-.028.08c0 .018.004.033.015.054.01.022.012.025.013.032a.193.193 0 0 1-.012.055.261.261 0 0 0-.016.066c0 .029.028.062.07.071.016.004.04.001.068-.006a.526.526 0 0 0 .083-.028.698.698 0 0 1 .14-.033c.034-.005.066.012.103.047l.034.035c.013.013.021.019.03.019.033 0 .1-.052.104-.086.002-.017-.01-.03-.033-.044l-.013-.008a.085.085 0 0 1-.01-.007c.011 0 .077.03.086.045.002-.008-.004-.005-.006-.004-.018.011-.021.033-.004.073.028.067.193.063.216.026.006-.01.003-.023-.007-.047-.008-.02-.012-.029-.013-.027.004.008.027.028.022.024a.2.2 0 0 0 .023.017c.01.006.018.01.027.01.011.002.024-.005.038-.016a.417.417 0 0 0 .055-.064l-.01.004a6.993 6.993 0 0 0 .209.01c.016-.003.025-.014.029-.03a.083.083 0 0 0 .002-.023l-.013.01.034.006c.025 0 .05 0 .073-.003.043-.004.07-.013.078-.031.006-.016-.002-.052-.023-.118a2.76 2.76 0 0 0-.026-.083.283.283 0 0 1-.006-.022c0-.001-.001.002-.007.004.015-.005.03-.09.035-.15a1.012 1.012 0 0 0-.05-.2l-.003-.009a1.528 1.528 0 0 1-.052-.185.264.264 0 0 0-.041-.088l-.005-.008-.02-.033a.72.72 0 0 1-.023-.044c0 .002-.002.009-.01.008.015.002.026-.005.035-.017a.058.058 0 0 0 .008-.015L12.3 8.96a256.512 256.512 0 0 1-.2-.877.07.07 0 0 0-.02-.04.091.091 0 0 0-.02-.017l.006.01.009-.536a2.712 2.712 0 0 0-.01-.157c-.002-.015.002-.032.013-.064a.214.214 0 0 0 .018-.072.15.15 0 0 0-.014-.06c-.013-.031-.013-.03-.013-.037 0-.003 0-.005.003-.009a.412.412 0 0 1 .015-.017.088.088 0 0 0 .022-.045c.003-.023-.002-.043-.03-.134a2.365 2.365 0 0 1-.026-.092c-.012-.064.026-.162.072-.22.01-.012.024-.019.055-.028.056-.016.076-.03.08-.066.003-.029-.026-.075-.08-.139a1.482 1.482 0 0 0-.13-.138l-.012-.012c-.008-.008-.026-.01-.054-.012a.658.658 0 0 0-.05 0l-.006.002a.548.548 0 0 1-.077.051.483.483 0 0 1-.113.048c-.037.007-.068-.008-.093-.04a.18.18 0 0 1-.024-.042l-.012-.007z"/>
            <path fill="#5C3021" d="M11.512 5.65s.068.01.105-.012c.037-.021.08-.03.111.013.03.042.052.04.052.04s-.046.112 0 .124c.047.012.068.012.071.027.003.016-.04.049-.027.064.012.015.034.034.037.046.003.012-.028.064-.019.076.01.012.037.061.056.061.018 0 .006.076.061.058.056-.018.053-.067.053-.067s.058-.01.074-.061c.015-.052.052-.064.052-.064s.074-.04-.024-.1c0-.427-.284-.381-.284-.381s-.034-.076-.09-.067c-.055.01-.058.073-.098.067-.04-.006-.05-.034-.053-.03a.32.32 0 0 0-.037.079c0 .015-.108-.022-.099.057.01.08.062.077.059.07z"/>
            <path fill="#FFC6B5" d="M12.351 6.888c.013.077.053.381.037.424-.015.042-.172.246-.191.298-.019.052-.13.25-.13.25s-.027.195-.04.204c-.012.009.032.057.028.073-.006.018-.09.103-.126.094-.037-.009-.096-.052-.1-.091-.002-.04.004-.17.032-.204.027-.034.172-.372.182-.393.009-.021.132-.286.135-.332a.335.335 0 0 0-.09-.19c-.107-.269-.079-.458.152-.517.003 0 .099.308.111.384z"/>
            <path fill="#000" d="M12.24 6.493c-.23.059-.277.243-.161.531l.003.005c.04.036.089.139.086.181a.91.91 0 0 1-.067.178 11.997 11.997 0 0 1-.097.219c-.02.044-.04.088-.057.129l-.007.015a1.56 1.56 0 0 1-.087.178c-.026.03-.039.147-.034.212.003.04.06.089.107.1.037.01.128-.068.14-.1.002-.012-.002-.02-.016-.044-.01-.017-.014-.026-.016-.025.007-.005.012-.026.02-.07a2.05 2.05 0 0 0 .024-.14l.004-.007a7.534 7.534 0 0 0 .06-.111l.006-.01c.03-.058.052-.1.059-.12a.968.968 0 0 1 .092-.145c0-.002 0-.002.002-.003a.969.969 0 0 0 .097-.15c.014-.038-.012-.28-.036-.43-.012-.072-.108-.393-.122-.393zm.138.815a1.046 1.046 0 0 1-.094.145l-.003.004a.933.933 0 0 0-.094.15 1.23 1.23 0 0 1-.057.117l-.006.01a6.882 6.882 0 0 1-.06.11l-.006.01-.006.036a3.817 3.817 0 0 1-.031.165c-.013.01-.01.018.01.052.01.017.014.025.014.027-.008.023-.09.093-.114.087-.039-.01-.088-.052-.09-.082-.005-.059.007-.172.028-.196.012-.015.044-.08.09-.184l.007-.014a13.51 13.51 0 0 0 .086-.198 11.895 11.895 0 0 0 .076-.168.85.85 0 0 0 .061-.167.344.344 0 0 0-.093-.2l.003.004c-.112-.278-.069-.447.143-.502-.01 0-.009.002-.007.007l.012.035.035.115c.03.103.053.186.059.22.023.141.049.385.037.417z"/>
        </g>
        <g>
            <path fill="#FFF" d="M5.215.498l-1.535.768A7.994 7.994 0 0 0 0 8h1.6V5.694L6.211 8H8v-.894L4.189 5.2H8V2.8H4.189L8 .894V0c-.98 0-1.918.176-2.785.498z"/>
            <path fill="#E94B35" d="M1.6 3.2H8v1.6H1.067V8H0c0-1.801.595-3.463 1.6-4.8zM6.747.097L2.209 2.48c-.099.104-.195.21-.289.32h.747L8 0a8.06 8.06 0 0 0-1.252.097zM2.488 5.2h1.068L8 7.467V8L2.489 5.2z"/>
        </g>
    </g>
</svg>
