<svg xmlns="http://www.w3.org/2000/svg" width="16" height="16" viewBox="0 0 16 16">
    <g fill="none" fill-rule="evenodd">
        <path fill="#00207F" d="M14.93 12A7.997 7.997 0 0 1 8 16a7.997 7.997 0 0 1-6.93-4h13.86zm0-8A7.997 7.997 0 0 0 8 0a7.997 7.997 0 0 0-6.93 4h13.86z"/>
        <path fill="#E94B35" d="M14.93 4A7.963 7.963 0 0 1 16 8c0 1.457-.39 2.823-1.07 4H1.07A7.963 7.963 0 0 1 0 8c0-1.457.39-2.823 1.07-4h13.86z"/>
        <g fill="#FFF" stroke="#000" stroke-width=".1">
            <path d="M6.182 7.586h3.816v1.48H6.182v-1.48z"/>
            <path d="M11.398 9.147c-.058-.026-.143-.099-.143-.171v-.864l.04-.07h-1.46l.057.07v.864c0 .072-.058.145-.116.171 0 0 .058-.026 0 0h1.622zM8.993 9.147c-.068-.026-.167-.099-.167-.171v-.821l.088-.114h-1.77l.085.114v.82c0 .073-.068.146-.136.172 0 0 .068-.026 0 0h1.9z"/>
            <path d="M7.144 7.111v.935h1.812v-.202l.002-.733c-.074.03-.087.097-.087.097v.398H7.236v-.398s-.018-.068-.092-.097c0 0 .074.03 0 0z"/>
            <path d="M8.678 9.144c-.06-.027-.188-.099-.188-.172v-.919c.012-.05.081-.081.126-.113H7.415c.057.03.12.056.143.113v.92c0 .072-.102.144-.16.17 0 0 .058-.026 0 0h1.28zM8.877 7.907v-.662h-.165v-.064H7.41v.064h-.165v.662h1.632zM4.714 9.147c.058-.026.142-.099.142-.171v-.864l-.04-.07h1.46l-.057.07v.864c0 .072.058.145.116.171 0 0-.058-.026 0 0H4.714z"/>
            <path d="M6.052 9.147c-.058-.026-.142-.099-.142-.171v-.821l.121-.114h-.992l.121.114v.82c0 .073-.084.146-.142.172 0 0 .058-.026 0 0h1.034z"/>
            <path d="M5.926 9.119c-.058-.027-.142-.099-.142-.171v-.743l.079-.113h-.63l.08.113v.743c0 .072-.085.144-.143.17 0 0 .058-.026 0 0h.756zM11.064 9.147c-.058-.026-.143-.099-.143-.171v-.821l.122-.114h-.992l.121.114v.82c0 .073-.084.146-.142.172 0 0 .058-.026 0 0h1.034z"/>
            <path d="M10.938 9.119c-.058-.027-.143-.099-.143-.171v-.743l.08-.113h-.63l.079.113v.743c0 .072-.085.144-.143.17 0 0 .058-.026 0 0h.757zM8.433 9.119c-.058-.027-.142-.099-.142-.171v-.785l.047-.071h-.593l.048.071v.785c0 .072-.085.144-.143.17 0 0 .058-.026 0 0h.783zM8.593 7.157c0-.166.007-.23.057-.23v.527c-.124.045-.212.204-.212.204H7.66s-.089-.159-.212-.204v-.527c.062 0 .062.067.062.23 0 0 0-.163 0 0h1.083z"/>
            <path d="M7.552 7.165v-.187c-.003-.094-.093-.1-.096-.169 0 0-.011-.102.016-.149.036.137.102.112.102.056 0-.05-.037-.095-.114-.214-.025-.038-.01-.157.025-.2.013.104.028.153.073.153.027 0 .049-.017.049-.07 0-.066-.045-.099-.067-.16a.17.17 0 0 1 .035-.18c.018.102.012.142.058.142.09-.029 0-.161-.02-.195-.022-.039.03-.117.03-.117.03.091.038.098.07.09.039-.01.034-.07-.014-.117-.03-.03-.027-.075.005-.11.033.064.075.06.079.022l-.026-.149h.578l-.028.144c-.009.04.046.05.08-.018.033.036.036.081.006.111-.048.048-.053.106-.014.117.031.008.04.001.07-.09 0 0 .047.053.03.117-.02.034-.11.166-.02.195.045 0 .04-.04.058-.143a.17.17 0 0 1 .035.182c-.022.06-.067.093-.067.16 0 .052.022.07.05.07.044 0 .059-.05.072-.154.035.043.05.162.025.2-.077.12-.114.165-.114.214 0 .056.066.081.102-.056.027.047.016.15.016.15-.003.068-.093.074-.096.168v.187h-.988z"/>
            <path d="M8.426 7.743v-.228c-.079.03-.102.107-.127.159.01-.232-.13-.48-.236-.544-.106.063-.248.318-.235.544-.026-.052-.049-.128-.127-.16v.23h.725zM5.018 8.038V7.06c.041 0 .047.144.142.144.05 0 .044-.06.017-.108-.025-.043-.055-.102-.014-.212.028.084.104.111.09.058-.024-.09-.093-.106-.041-.247.018.118.093.113.075.044-.021-.077-.063-.108-.011-.217.03.124.069.116.069.04 0-.113-.005-.235.14-.28 0 0 .009-.104.061-.104.053 0 .061.103.061.103.145.046.141.168.141.28 0 .077.04.085.069-.039.052.109.01.14-.01.217-.019.069.056.074.074-.044.052.141-.017.156-.041.247-.014.053.062.026.09-.058.041.11.01.17-.014.212-.027.048-.033.108.017.108.094 0 .1-.144.142-.144v.978H5.018z"/>
            <path d="M5.736 7.645s.144-.161.148-.224V7.24c-.054.007-.105.045-.145.12-.034-.152-.087-.257-.187-.33-.1.073-.153.178-.187.33-.04-.075-.09-.113-.145-.12v.182c.01.063.148.224.148.224h.368z"/>
            <path d="M5.736 7.888s.123-.127.148-.182v-.182c-.054.007-.105.044-.145.12-.034-.152-.087-.238-.187-.312-.1.074-.153.16-.187.312-.04-.076-.09-.113-.145-.12v.182c.032.055.148.182.148.182h.368zM10.03 8.038V7.06c.04 0 .047.144.142.144.05 0 .044-.06.016-.108-.024-.043-.054-.102-.013-.212.028.084.104.111.09.058-.024-.09-.094-.106-.041-.247.018.118.093.113.074.044-.02-.077-.062-.108-.01-.217.029.124.069.116.069.04 0-.113-.005-.235.14-.28 0 0 .009-.104.061-.104.053 0 .061.103.061.103.145.046.141.168.141.28 0 .077.04.085.069-.039.052.109.01.14-.01.217-.019.069.056.074.074-.044.052.141-.017.156-.042.247-.014.053.063.026.09-.058.042.11.012.17-.013.212-.028.048-.033.108.017.108.094 0 .1-.144.142-.144v.978H10.03z"/>
            <path d="M10.748 7.645s.144-.161.147-.224V7.24c-.054.007-.105.045-.144.12-.034-.152-.087-.257-.187-.33-.1.073-.153.178-.187.33-.04-.075-.091-.113-.145-.12v.182c.01.063.148.224.148.224h.368z"/>
            <path d="M10.748 7.888s.123-.127.147-.182v-.182c-.054.007-.105.044-.144.12-.034-.152-.087-.238-.187-.312-.1.074-.153.16-.187.312-.04-.076-.091-.113-.145-.12v.182c.031.055.148.182.148.182h.368zM5.244 9.104h.537v1.688h-.537V9.104zM7.778 9.104h.536v1.688h-.536V9.104zM10.311 9.104h.537v1.688h-.537V9.104z"/>
        </g>
    </g>
</svg>
