<svg xmlns="http://www.w3.org/2000/svg" width="16" height="16" viewBox="0 0 16 16">
    <g fill="none" fill-rule="evenodd">
        <path fill="#FFF" d="M13.333 13.963A7.97 7.97 0 0 1 8 16a7.97 7.97 0 0 1-5.333-2.037V2.037A7.97 7.97 0 0 1 8 0a7.97 7.97 0 0 1 5.333 2.037v11.926z"/>
        <path fill="#E94B35" d="M13.333 13.963A7.98 7.98 0 0 0 16 8a7.98 7.98 0 0 0-2.667-5.963v11.926zM2.667 2.037A7.98 7.98 0 0 0 0 8a7.98 7.98 0 0 0 2.667 5.963V2.037zM8 4.45l-.574 1.07c-.065.117-.182.106-.299.041l-.415-.215.31 1.645c.064.3-.145.3-.248.17L6.05 6.35l-.118.413c-.013.054-.073.11-.163.097l-.917-.193.241.876c.052.195.092.276-.052.327l-.327.154 1.579 1.282a.207.207 0 0 1 .072.215l-.138.454c.543-.063 1.03-.157 1.574-.215.048-.005.129.074.128.13l-.072 1.661h.265l-.042-1.658c0-.056.073-.138.12-.133.545.058 1.032.152 1.575.215l-.138-.454a.207.207 0 0 1 .072-.215l1.579-1.282-.327-.154c-.144-.051-.104-.132-.052-.327l.241-.876-.917.193c-.09.014-.15-.043-.163-.097l-.118-.413-.725.812c-.103.13-.312.13-.247-.17l.31-1.645-.416.215c-.117.065-.234.076-.299-.04"/>
    </g>
</svg>
