<svg xmlns="http://www.w3.org/2000/svg" width="16" height="16" viewBox="0 0 16 16">
    <g fill="none" fill-rule="evenodd">
        <ellipse cx="7.998" cy="8.009" fill="#E94B35" rx="7.983" ry="7.981"/>
        <path fill="#F2C500" d="M5.338 6.158l-1.644.831.314-1.76-1.33-1.246 1.838-.257.822-1.6.822 1.6 1.838.257-1.33 1.246.314 1.76-1.644-.83zm2.726-3.695l-.346.174.066-.37-.28-.262.387-.054.173-.338.173.338.387.054-.28.262.066.37-.346-.174zM9.542 3.65l-.346.175.066-.371-.28-.262.387-.054.173-.338.174.338.387.054-.28.262.066.37-.347-.174zm.172 1.784l-.346.175.066-.37-.28-.263.387-.054.173-.337.173.337.387.054-.28.263.066.37-.346-.175zM8.336 6.988l-.347.174.067-.37-.28-.262.386-.055.174-.337.173.337.387.055-.28.262.066.37-.346-.174z"/>
    </g>
</svg>
