<svg xmlns="http://www.w3.org/2000/svg" width="16" height="16" viewBox="0 0 16 16">
    <g fill="none" fill-rule="evenodd">
        <path fill="#00207F" d="M15.545 10.667a8.003 8.003 0 0 1-15.09 0h15.09z"/>
        <path fill="#FFF" d="M15.545 10.667A7.987 7.987 0 0 0 16 8c0-.935-.16-1.833-.455-2.667H.455A7.987 7.987 0 0 0 0 8c0 .935.16 1.833.455 2.667h15.09z"/>
        <path fill="#E94B35" d="M15.545 5.333a8.003 8.003 0 0 0-15.09 0h15.09z"/>
        <path fill="#E94B35" d="M11.2 8.97V5.245H4.889v3.727c0 1.715 1.42 3.118 3.155 3.118 1.736 0 3.156-1.403 3.156-3.118z"/>
        <path fill="#FFF" d="M11.111 8.963v-3.63H4.978v3.63c0 1.67 1.38 3.037 3.066 3.037 1.687 0 3.067-1.367 3.067-3.037zM11.822 3.576l-.562-.906-.931.344-.654-.746-.862.493-.768-.628-.769.628-.862-.493-.654.746-.931-.344-.562.906.737 1.668a7.373 7.373 0 0 1 3.04-.652c1.083 0 2.112.233 3.04.652l.738-1.668z"/>
        <path fill="#4086CD" d="M11.059 5.155l.701-1.573-.517-.826-.923.338-.427 1.662c.403.102.792.236 1.166.4 0 0-.374-.164 0 0z"/>
        <path fill="#CA4638" d="M11.462 4.252c-.422-.192-.857-.31-1.311-.43l-.127.476c.43.113 1.255.394 1.255.394l.183-.44z"/>
        <path fill="#346DA6" d="M7.284 2.84l-.001.001-.877-.485-.664.734.437 1.666c.406-.1.824-.168 1.252-.203L7.284 2.84z"/>
        <path fill="#4086CD" d="M5.77 3.093l-.002.001-.923-.338-.516.826.198.446.501 1.128a7.462 7.462 0 0 1 1.168-.4L5.77 3.092z"/>
        <path fill="#E94B35" d="M6.267 5.422H5.11v1.245h1.156V5.422zm0 2.49h1.155V6.666H6.267V7.91zM5.11 8.91c0 .113.007.225.02.334h1.136V8H5.11v.91zM8.667 8H7.51v1.244h1.156V8zm0 2.489h1.155V9.244H8.667v1.245zm1.155.8c.276-.198.517-.439.711-.711h-.71v.71zm-3.555-.8h1.155V9.244H6.267v1.245zm-.623.089c.195.272.435.513.712.71v-.71h-.712zm2.646 1.238a2.94 2.94 0 0 0 .377-.05v-1.188H7.51v1.188a2.924 2.924 0 0 0 .78.05s-.135.008 0 0zm2.667-2.572c.014-.11.02-.222.02-.335V8H9.823v1.244h1.135zm-2.29-1.333h1.155V6.667H8.667V7.91zm0-2.489H7.51v1.245h1.156V5.422zm2.31 1.245V5.422H9.823v1.245h1.156zM6.147 4.356c.399-.102.81-.171 1.23-.206l-.034-.417c-.444.037-.878.11-1.299.217l.103.406zM5.888 3.52c.482-.11.98-.185 1.49-.223l-.037-.4c-.535.04-1.057.12-1.563.235l.11.388z"/>
        <path fill="#FFF" d="M9.987 4.267c.45.107.885.25 1.302.423l-.052.11a8.51 8.51 0 0 0-1.281-.417l.031-.116zm1.52 0l.049-.1a9.526 9.526 0 0 0-1.393-.434l-.03.105c.475.11.934.253 1.374.429 0 0-.44-.176 0 0z"/>
        <path fill="#346DA6" d="M10.356 3.09h-.002l-.666-.734-.874.484-.147 1.713c.428.034.846.103 1.251.203l.437-1.666z"/>
        <path fill="#F2C500" d="M5.067 3.289l.006.005.113.102.142-.05.006-.003-.001.007-.029.153.113.102.005.005-.006.002-.142.05-.029.153-.001.007-.006-.005-.113-.101-.141.05-.007.002.001-.007.029-.153-.113-.102-.005-.005.006-.002.142-.05.03-.153v-.007zM11.105 3.027l-.113.102-.141-.05-.007-.003.001.007.029.153-.113.102-.005.005.006.002.142.05.028.154.002.007.005-.005.113-.102.142.05.006.003v-.007l-.03-.153.114-.102.005-.005-.007-.002-.141-.051-.029-.153-.001-.007z"/>
        <path fill="#4086CD" d="M8.862 2.853H8.86l-.8-.613-.798.613.15 1.698a8.394 8.394 0 0 1 1.3 0l.15-1.698z"/>
        <path fill="#E5B731" stroke="#262626" stroke-width=".01" d="M9.058 3.715l.012-.019a.127.127 0 0 1 .016-.019c.004.002.003.002.003.003a.125.125 0 0 0-.028.036c.002.001.002.004.001.005.002.01.003.016.008.022a.054.054 0 0 1 .024-.024.058.058 0 0 0 .016-.02l.004.001a.05.05 0 0 1-.007.011.066.066 0 0 1-.01.01.052.052 0 0 0-.015.011.04.04 0 0 0-.007.01c.002.002.004.007.001.01-.007.01-.015.015-.002.024a.02.02 0 0 0 .006.016c.003.003.003.014-.005.021-.007.007-.001.005.006.006l.01-.013a.139.139 0 0 1 .012-.011.064.064 0 0 0 .012-.016.039.039 0 0 0 .005-.016h.003a.043.043 0 0 1-.005.018.067.067 0 0 1-.013.016.121.121 0 0 0-.02.024c.01.005.007.014.008.023h.005l.005-.007.008-.013c.004 0 .003.001.003.002l-.008.012-.005.008c.005.005.005.012-.001.018-.013.01-.01.013.002.02a.07.07 0 0 1 0 .03v.01l.001.009H9.1v-.01c-.002 0-.002.001-.003.003-.009.018-.018.033-.02.053-.02.005-.018.025-.019.042a.127.127 0 0 1-.062.047c-.005.002-.017.005-.018.01 0 .003.008.008.013.005.015-.014.022-.006.005.008-.001.002 0 .005.003.008.015.013.053.017.07.007.013-.008.02-.016.008-.028 0-.016.008-.032.026-.037.002-.004.001-.01 0-.015a.104.104 0 0 1 .004-.04c.001-.002.002-.003.005-.004.007-.001.02-.02.024-.039l.003-.012c.001-.006.004-.007.007-.004.003-.004.003-.006.005-.011.007-.01.017-.018.029-.012a.092.092 0 0 1-.002-.059c0-.001 0-.003.003-.002l.01-.024c.004-.007.008-.015.01-.023.005 0 .004 0 .004.001l-.01.024-.01.023v.003a.083.083 0 0 0 .004.06c.007.006.007.007.007.014 0 .005 0 .01.002.018.01.02 0 .052-.012.069a.033.033 0 0 0-.004.026c.007.006.002.013-.004.017v.005a.026.026 0 0 1-.005.017c-.01.016-.016.032-.023.049-.014.003-.016.01-.022.023-.007.002-.008.004-.011.01a.09.09 0 0 1-.03.02c-.009.004 0 .007.007.012.006.004.014-.005.019-.012.005-.008.01-.006.007 0a.06.06 0 0 0-.007.022c-.002.005.02.01.023.01.013 0 .03-.012.04-.019.008-.008.007-.015.003-.025a.116.116 0 0 1-.034-.008c0-.004 0-.004.002-.003a.107.107 0 0 0 .017.005l.016.002V4.15a.084.084 0 0 0 .016-.025c.014-.007.014-.014.012-.028a.027.027 0 0 0 .004-.017.312.312 0 0 0 .024-.05.062.062 0 0 0 .015-.045c.001-.007.004-.011.009-.01a.12.12 0 0 0 .01-.017l.005-.011a.025.025 0 0 1 .005-.007.028.028 0 0 0 .002-.015.034.034 0 0 0-.005-.013.015.015 0 0 1-.004-.006c0-.003 0-.005.003-.007.003 0 .003.002.002.002-.001.001-.002.003-.001.004l.003.004c.003.006.005.01.006.016 0 .005 0 .01-.003.016a.028.028 0 0 0-.005.007.052.052 0 0 0-.003.01.044.044 0 0 0 .023-.005.048.048 0 0 0 .012-.014.058.058 0 0 0 .006-.019h.004a.062.062 0 0 1-.007.02.05.05 0 0 1-.01.012c.013.003.024 0 .036-.004a.132.132 0 0 1 0-.038.05.05 0 0 1 .01-.023c.004.001.004.002.003.002a.046.046 0 0 0-.01.022.126.126 0 0 0 0 .036c.006.008.009.014.019.008l.01-.008c.002-.001.001-.002.002-.003a.428.428 0 0 1 .059-.049c.003.002.002.003.002.003a.392.392 0 0 0-.054.044v.008c.002.01.004.017.02.011a.085.085 0 0 0 .019-.008.044.044 0 0 1 .01-.005.262.262 0 0 1 .032-.02c0-.006.002-.012.004-.018a.13.13 0 0 1 .024-.04.085.085 0 0 0 .022-.017.07.07 0 0 0 .014-.02h.003a.077.077 0 0 1-.036.04.125.125 0 0 0-.024.038.081.081 0 0 0-.004.015c.002.003.001.003 0 .003a.068.068 0 0 0 0 .026.04.04 0 0 0 .023-.01.215.215 0 0 0 .023-.023.057.057 0 0 1 .008-.016.03.03 0 0 1 .013-.01l.002.002a.028.028 0 0 0-.012.01.051.051 0 0 0-.007.015v.035a.114.114 0 0 1 .031-.017l.001.033a.043.043 0 0 0 .015.024.088.088 0 0 1 .015-.019.306.306 0 0 0 .025-.022c.004.001.003.002.003.002l-.008.007-.007.006a.104.104 0 0 0-.01.008v.014a.059.059 0 0 0 .02.002c.002.014.003.016.016.017v-.015c0-.005.002-.01.004-.015h.003A.058.058 0 0 0 9.62 4v.015c.005.01.011.014.022.019a.053.053 0 0 0 .006-.014.041.041 0 0 0 .002-.015c.003-.002.003 0 .004 0 0 .005 0 .01-.002.016a.059.059 0 0 1-.009.016c0 .007 0 .011.003.015a.1.1 0 0 1 .005-.01.054.054 0 0 1 .009-.01c.004 0 .003.001.002.002a.053.053 0 0 0-.008.01.124.124 0 0 0-.006.012.07.07 0 0 0 .004.006c-.02.033-.041.078-.08.093-.02.008-.03.018-.034.039a.068.068 0 0 0-.018.02c-.013.003-.025.01-.04.01 0 .008.004.012.013.012.018-.009.022-.01.023-.009.003.002-.002.014-.017.024-.002.001-.002.002 0 .004.012.019.044.012.062.008.012-.003.035-.018.04-.03.003-.005-.002-.012-.008-.018-.025.004-.02-.02.002-.01.007-.002.008-.002.01-.01.019-.007.027-.014.031-.034.02-.02.039-.04.053-.064.003-.005.006-.012.005-.017a.033.033 0 0 0 .006-.013.05.05 0 0 0 .002-.014c.003-.002.003-.001.003 0 0 .005 0 .01-.002.015a.137.137 0 0 1-.004.012c.002.003.002.005.005.004.017-.013.034-.022.052-.033 0-.007.006-.01.013-.011.003 0 .004 0 .005-.003.005-.01 0-.018-.006-.026-.004-.012.004-.015.012-.021.009-.007.008-.023.009-.032l-.001-.005a.08.08 0 0 0-.003-.01c.002-.003.003-.002.003-.001a.09.09 0 0 1 .003.01l.001.004c.008-.004.017-.009.02-.018.003-.01-.002-.019-.007-.027a.322.322 0 0 1-.02.008c-.003-.003-.002-.003-.001-.003a.344.344 0 0 0 .022-.01.042.042 0 0 0 .01-.008c.007-.008-.01-.016-.015-.02a.649.649 0 0 0-.024-.021c0-.004.002-.003.002-.003l.023.02a.084.084 0 0 0-.003-.036l-.004-.011a.037.037 0 0 1-.016-.013.032.032 0 0 1-.005-.016h.003c0 .005.002.01.005.014a.033.033 0 0 0 .014.011c.006.004.02.002.029-.002.011-.006-.004-.019-.007-.026-.003-.005-.003-.01-.004-.016h.003a.034.034 0 0 0-.005-.006.02.02 0 0 0-.006-.003c0-.004 0-.003.001-.003.003 0 .005.002.007.004a.04.04 0 0 1 .007.006h.003c.011-.002.017-.008.024-.016a.328.328 0 0 0-.026-.024c0-.003.001-.003.002-.002a.3.3 0 0 1 .027.024c.011.003.013 0 .018-.008a.047.047 0 0 0-.006-.013.08.08 0 0 0-.01-.012c0-.004.001-.003.002-.003a.086.086 0 0 1 .01.013.047.047 0 0 1 .007.014c.005 0 .01 0 .014-.002.01-.006.002-.024 0-.031a.01.01 0 0 0-.004-.003l-.006-.004c0-.003 0-.003.002-.002.002 0 .004.002.006.004l.005.002a.034.034 0 0 0 .013-.02c.003-.01.004-.006.017-.008.014-.002.021-.003.03-.02.004-.001.006-.003.007-.008.001-.01 0-.014-.01-.015-.016-.001-.026.002-.036.011l.004.007c-.002.003-.002.002-.003.001l-.004-.005a.084.084 0 0 0-.038.005l-.004-.001a.058.058 0 0 1 .006.01c.002.005.004.01.004.014H9.87a.032.032 0 0 0-.003-.013.058.058 0 0 0-.01-.014.089.089 0 0 0-.031-.005.31.31 0 0 0 .012.01c-.002.004-.002.004-.003.003a.527.527 0 0 1-.013-.012.076.076 0 0 0-.029.006.097.097 0 0 1-.019.006.07.07 0 0 1 .02.034H9.79a.06.06 0 0 0-.019-.032l-.018-.002.007.011c-.002.003-.002.002-.003.002l-.006-.013a.049.049 0 0 1-.016-.006.246.246 0 0 1 .006.047c-.003.002-.003.001-.003 0a.237.237 0 0 0-.007-.05.054.054 0 0 1-.007-.006.069.069 0 0 0-.019-.014.029.029 0 0 1-.007.022c-.003 0-.003 0-.002-.002a.026.026 0 0 0 .005-.022.106.106 0 0 0-.034-.008.172.172 0 0 1 .018.027.026.026 0 0 1 .009.014.07.07 0 0 1 .002.016h-.004l-.001-.015a.022.022 0 0 0-.008-.012.265.265 0 0 0-.02-.03H9.65l.002.002a.018.018 0 0 1 .003.008c-.003.002-.004.001-.004 0a.015.015 0 0 0-.002-.006.021.021 0 0 0-.004-.005l-.025.002a.16.16 0 0 1 .033.071c-.003.002-.003.002-.003 0a.147.147 0 0 0-.034-.07.117.117 0 0 0-.02.003.07.07 0 0 1 .014.012c-.002.004-.002.003-.003.002A.05.05 0 0 0 9.6 3.64a.08.08 0 0 0-.01-.007.161.161 0 0 0-.01.004l-.005.002a.15.15 0 0 1 .034.033c-.002.003-.002.003-.003.002a.121.121 0 0 0-.035-.034.088.088 0 0 1-.021.001.178.178 0 0 1 .01.025c.004.01.006.019.007.028-.004.002-.004.001-.004 0a.109.109 0 0 0-.006-.027.192.192 0 0 0-.011-.026l-.013-.001a.282.282 0 0 1 .011.052c-.003.002-.003.001-.003 0a.28.28 0 0 0-.012-.053.127.127 0 0 0-.043-.032.052.052 0 0 1 .012.035c-.003.002-.003 0-.003 0a.05.05 0 0 0-.016-.038.535.535 0 0 0-.045-.004c.01.007.016.014.015.022h-.003c0-.008-.008-.014-.017-.022h-.02a.08.08 0 0 1 .01.01l.007.014c0 .008.002.014.006.02.003.005.008.01.015.012 0 .004-.001.003-.002.003a.036.036 0 0 1-.016-.014.046.046 0 0 1-.006-.02.039.039 0 0 0-.007-.013.085.085 0 0 0-.011-.013h-.022a.144.144 0 0 1 .007.026l.002.032c-.003.002-.003.001-.003 0a.216.216 0 0 0-.01-.058.049.049 0 0 0-.018-.014.02.02 0 0 1-.003.01c-.004-.001-.004-.002-.003-.002a.015.015 0 0 0 .003-.009l-.004-.001c-.003-.014-.006-.02-.018-.025l-.001.012-.006.015c-.004 0-.003 0-.003-.002a.037.037 0 0 0 .005-.014l.001-.012c-.005-.02-.008-.032-.03-.04v.008a.041.041 0 0 1-.002.014l-.004-.001a.04.04 0 0 0 .003-.013v-.011l-.017-.015c0 .007 0 .014-.003.022a.095.095 0 0 1-.013.026c-.004 0-.003-.001-.003-.002a.093.093 0 0 0 .013-.025.067.067 0 0 0 .002-.025.033.033 0 0 1-.006-.008l-.002.007c-.004 0-.004-.001-.004-.002l.003-.005.002-.004a.026.026 0 0 0-.01-.018.046.046 0 0 1-.008.015c-.004-.001-.003-.002-.003-.003a.037.037 0 0 0 .008-.016.03.03 0 0 1-.004-.007.025.025 0 0 1-.004.005.037.037 0 0 1-.006.007c-.004-.002-.003-.002-.002-.003a.033.033 0 0 0 .005-.006.02.02 0 0 0 .004-.005v-.006c.002-.01-.002-.015-.007-.022a.02.02 0 0 0-.01.002.095.095 0 0 0-.015.008c-.003-.002-.002-.002-.002-.003a.105.105 0 0 1 .016-.008.03.03 0 0 1 .013-.003.011.011 0 0 0 0-.007.14.14 0 0 1-.037.008.056.056 0 0 1-.025-.003c0-.004 0-.004.001-.003a.051.051 0 0 0 .023.003c.01 0 .022-.003.038-.008a.149.149 0 0 0 .006-.019.058.058 0 0 1-.016.002c-.002 0-.003 0-.003-.002s.003-.002.003-.002l.017-.001V3.38c.002-.007.01-.008.015-.002.005.004.01.01.014.012.01.004.02 0 .027-.006l-.007-.002.001-.003.01.003c.02 0 .033-.005.045-.016l-.029-.001a.074.074 0 0 1-.023-.006c0-.004.001-.003.002-.003a.069.069 0 0 0 .021.005c.01.001.02.002.033.001l.003-.004a.038.038 0 0 0 .015-.008.182.182 0 0 1-.065-.017c-.005-.005-.053-.009-.066-.002-.003-.003-.032-.028-.032-.03 0-.002-.064-.006-.07.002-.002.001-.003.002-.006 0 0 0-.002-.004 0-.005.007-.008-.015-.016-.03-.004-.018 0-.027.003-.033.007-.005.004-.006.01-.005.018l-.006.024c-.016.014-.035.027-.043.047a.044.044 0 0 1-.01.016c.004 0 .007.001.01.003.002-.002.002-.005.003-.008a.04.04 0 0 1 .005-.013c.004 0 .003.001.003.002a.036.036 0 0 0-.005.011.075.075 0 0 0-.002.016c0 .002-.003.002-.003 0a.009.009 0 0 0-.004-.006.018.018 0 0 0-.009-.002.102.102 0 0 1-.011.01c-.004.002-.007.005-.007.009 0 .007.008.008.017.009.02.001.004.012.015.021l.014.013a.021.021 0 0 0 .017 0c.001-.013 0-.02.006-.02l.002-.005a.028.028 0 0 1 .005-.007c.003 0 .003.002.002.002a.023.023 0 0 0-.005.012v.013a.082.082 0 0 1 .034-.008c.021-.024.03-.018.011 0 0 .002-.002.004-.003.005a.043.043 0 0 0-.006.02c-.005.004-.032.025-.022.033.007 0 .011 0 .009.005-.004.007-.014.02-.01.028 0 .003.005.003.01.002a.209.209 0 0 0 .022-.02.12.12 0 0 0 .019-.025c0-.001 0-.003.003-.002a.277.277 0 0 1 .017-.046h.003a.036.036 0 0 0 .009.009.013.013 0 0 0 .007.003c.003 0 .005-.001.008-.003a.036.036 0 0 0 .008-.009c.004.001.004.002.003.002a.038.038 0 0 1-.01.01.017.017 0 0 1-.009.003.017.017 0 0 1-.01-.003.037.037 0 0 1-.007-.008.376.376 0 0 0-.016.043c.002.001.001.003 0 .004a.13.13 0 0 1-.02.027.189.189 0 0 1-.018.016l.005.017a.368.368 0 0 0 .033-.03.19.19 0 0 0 .024-.032c.004 0 .004.001.003.002a.178.178 0 0 1-.011.016.028.028 0 0 0-.003.012v.022c-.002.002-.003.001-.003 0a.127.127 0 0 1 0-.027.403.403 0 0 1-.041.04c-.01.009-.018.011-.006.02l.011-.007.013-.009c.003.002.002.002.002.003l-.013.008-.012.009c0 .004.001.008.003.011l.029-.018c.003.001.003.002.002.002a7.167 7.167 0 0 1-.029.022c-.008.006-.038.023-.035.036a.112.112 0 0 0 .021-.008.08.08 0 0 0 .02-.015c.004.002.004.002.003.003a.084.084 0 0 1-.021.015v.007H9.09v-.004l-.018.005c.003.011-.004.021-.01.031-.004.003-.034.026-.021.033a.033.033 0 0 0 .01.003c.002-.003.006-.006.007-.005z"/>
        <path fill="#000" d="M10.28 4.155c.012-.007.025-.005.039-.003a.11.11 0 0 1 .037-.004.076.076 0 0 1 .02-.006c.005-.003.005-.006.001-.01a.018.018 0 0 1-.005-.01c-.022-.011-.03-.028-.038-.044-.013-.003-.019-.007-.02-.01l-.018-.003c-.028.003-.035-.005-.045-.011a.033.033 0 0 1-.02-.014l-.01-.01c-.008-.009-.005-.02.006-.02.009.001.017.001.024-.001a.081.081 0 0 1 .032-.003c.012 0 .02-.007.03-.017v-.011c-.001-.005.001-.007.008-.006.015 0 .024.007.03.015a.06.06 0 0 1 .041.024c.024 0 .04.007.042.015.001.006-.006.012-.016.019a.07.07 0 0 1 0 .004.04.04 0 0 1 .013.014c.013.005.026.01.037.02.034-.004.091.017.168.06.05.008.1.02.146.037l.03.001a.337.337 0 0 1 .24.048c.027.003.053.01.078.02.018.006.037.008.055.01.03.002.062.009.092.021.035.007.067.016.086.037.015.015.011.029-.007.034-.01.02-.032.021-.065.011-.022.004-.047-.012-.069-.026a.373.373 0 0 1-.088-.041.122.122 0 0 0-.043-.018c-.012-.002-.022-.004-.028 0-.004.002-.003.003 0 .005a.038.038 0 0 1 .015.024v.03c0 .013.009.021.022.028.01.005.02.01.037.012.007.002.01.006.01.01.004.018.007.036.015.052.002.005.006.007.012.01.02.014.01.028-.009.031a.114.114 0 0 1-.047.025c-.014.004-.02-.001-.024-.007-.008 0-.012-.003-.016-.007-.016-.01-.002-.03.037-.021.001-.004.005-.006.008-.006a.04.04 0 0 1 0-.027c-.003-.002-.006-.005-.01-.006a.104.104 0 0 1-.04-.019c-.02-.016-.05-.03-.081-.044-.025 0-.044-.01-.063-.02h-.027a.018.018 0 0 0-.019.005c-.008.009-.017.007-.028.006h-.037c-.006 0-.012.003-.019.003-.014-.001-.027-.001-.036.006-.008.007-.016.006-.023.003a.035.035 0 0 1-.013-.007c-.01-.002-.016-.004-.018-.006-.016-.004-.02-.008-.02-.012-.022-.005-.011-.02.003-.02.016 0 .031.002.048.004a.05.05 0 0 0 .041-.007c.007-.006.01-.01.019-.015a.152.152 0 0 1-.064-.014c-.041-.023-.074-.028-.1-.01-.007.004-.012.006-.02.003a.043.043 0 0 0-.02 0 .088.088 0 0 1-.044-.004.165.165 0 0 1-.065.002c-.019.008-.032.01-.04.003a.312.312 0 0 1-.023-.012c-.012-.002-.017-.004-.017-.008-.015-.001-.017-.006-.017-.011-.006-.006-.004-.011.002-.015a.045.045 0 0 1 .035 0 .096.096 0 0 1 .018.01c.009-.001.016 0 .022.002.005-.007.018-.007.033-.006a.062.062 0 0 1 .027-.008l-.001-.005c-.015-.003-.022-.013-.03-.022a.114.114 0 0 1-.054-.017.061.061 0 0 1-.034-.008l-.027-.001a.103.103 0 0 1-.049 0l-.029-.001a.03.03 0 0 1-.034.007.055.055 0 0 0-.03-.016c-.009-.002-.012-.006-.013-.01-.012-.006-.01-.012.001-.017.009-.003.02-.004.035.003.005.002.011.003.018.003 0 0-.007 0 0 0z"/>
    </g>
</svg>
