<svg xmlns="http://www.w3.org/2000/svg" width="16" height="16" viewBox="0 0 16 16">
    <g fill="none" fill-rule="evenodd">
        <circle cx="8" cy="8" r="8" fill="#FFF"/>
        <path fill="#007F39" d="M7.856 12.43a.467.467 0 0 1-.034-.036 4.035 4.035 0 0 1-.102-.125c-.068-.085-.123-.159-.134-.173l-.017-.022-.017.022a10.97 10.97 0 0 1-.236.298.467.467 0 0 1-.034.036s-.006.007-.009.008l-.011-.019a.248.248 0 0 0-.02-.025 2.578 2.578 0 0 0-.063-.061c-.044-.041-.089-.079-.09-.08l.312-.232-.123-.058.065-.075.226.098.226-.098.065.075-.123.058.312.232a3.065 3.065 0 0 0-.153.141.242.242 0 0 0-.02.025l-.008.019c-.006-.001-.012-.007-.012-.007zm.572-.344a.77.77 0 0 1-.402-.111c.205-.099.383-.15.528-.15h.003c.122.001.198.039.24.07.043.032.061.065.063.068a.847.847 0 0 1-.432.123zm-1.283-.111c-.205-.099-.383-.15-.528-.15h-.003a.396.396 0 0 0-.24.07.226.226 0 0 0-.063.068c.14.082.285.123.432.123a.77.77 0 0 0 .402-.111s-.005.003 0 0zm1.92-.032c-.024 0-.044-.012-.05-.03-.007-.018-.005-.041.005-.068.017-.045.057-.091.108-.095h.01c.011 0 .023.003.034.007 0 0 .004.047-.008.093a.143.143 0 0 1-.03.063.091.091 0 0 1-.07.03zm-2.992 0a.091.091 0 0 1-.069-.03.143.143 0 0 1-.03-.063.327.327 0 0 1-.008-.093A.093.093 0 0 1 6 11.75h.002c.055 0 .098.047.116.095.01.027.012.05.006.067-.007.018-.027.03-.05.03h-.001zm1.871-.132c.247-.474.503-.525.602-.525.033 0 .055.006.06.007 0 .001.014.106-.058.219-.067.106-.227.244-.603.299zm-.75 0c-.377-.055-.536-.193-.604-.299a.35.35 0 0 1-.057-.219s.023-.007.058-.007c.1 0 .356.051.603.525zm1.522-.076c-.075 0-.159-.006-.25-.018.2-.197.389-.238.512-.238l.026.001a.488.488 0 0 1 .169.036.15.15 0 0 1-.013.045.226.226 0 0 1-.08.09c-.08.056-.203.084-.364.084zm-2.294 0c-.16 0-.283-.028-.364-.083a.226.226 0 0 1-.08-.091.15.15 0 0 1-.013-.045.486.486 0 0 1 .194-.037c.125 0 .313.042.513.238a1.924 1.924 0 0 1-.25.018zm3.06-.03c-.093-.002-.158-.016-.195-.044-.017-.014-.025-.031-.022-.048.003-.02.019-.04.047-.061.077-.059.192-.09.34-.093a1.562 1.562 0 0 1 .053 0c.178.005.335.045.337.046-.145.148-.378.2-.547.2h-.013zm-3.838 0c-.17 0-.403-.053-.548-.2a1.678 1.678 0 0 1 .369-.046c.159 0 .28.031.361.093.029.021.044.041.048.061.002.017-.006.034-.023.047-.037.028-.102.043-.194.045h-.013zm4.4-.286a.041.041 0 0 1-.039-.027.09.09 0 0 1 .004-.058.153.153 0 0 1 .036-.058.08.08 0 0 1 .055-.026c.011 0 .02.003.028.006 0 .003.003.042-.006.082a.13.13 0 0 1-.024.055.07.07 0 0 1-.054.026zm-4.95 0a.07.07 0 0 1-.054-.026.13.13 0 0 1-.024-.055c-.009-.04-.006-.08-.006-.081a.064.064 0 0 1 .026-.007c.026 0 .045.014.057.026a.154.154 0 0 1 .036.058.09.09 0 0 1 .004.058.042.042 0 0 1-.039.027zm3.681-.03c-.024 0-.044-.011-.05-.03-.007-.017-.005-.04.005-.067.017-.044.058-.091.108-.095h.01c.011 0 .023.003.034.007 0 0 .004.047-.007.093a.143.143 0 0 1-.031.064.091.091 0 0 1-.069.029zm-2.412 0a.091.091 0 0 1-.069-.028.143.143 0 0 1-.03-.064.327.327 0 0 1-.008-.093.093.093 0 0 1 .034-.007h.002c.055 0 .098.048.116.095.01.027.012.05.006.067-.007.019-.027.03-.05.03zm-.618-.025c-.341-.012-.518-.11-.607-.191a.402.402 0 0 1-.092-.12.258.258 0 0 1-.02-.054h.001s.032-.012.084-.013h.008c.115 0 .35.05.626.378zm3.648 0c.268-.319.497-.373.61-.378h.023c.05.001.082.012.085.013 0 0-.004.023-.02.054a.401.401 0 0 1-.091.12c-.089.08-.266.179-.607.19zm-3.277-.035c-.275-.043-.43-.162-.513-.255a.534.534 0 0 1-.113-.192.398.398 0 0 1 .108-.01c.138.003.39.066.517.457zm2.907 0c.128-.391.379-.454.517-.458a.445.445 0 0 1 .108.01c0 .002-.026.094-.113.193-.083.093-.238.213-.513.255 0 0 .275-.042 0 0zm1.409-.134c-.153 0-.262-.03-.263-.031a.589.589 0 0 1 .348-.223.936.936 0 0 1 .201-.019c.132.002.227.03.228.03v.024a.141.141 0 0 1-.023.055c-.026.04-.088.096-.232.133-.082.02-.169.031-.259.031zm-5.726 0c-.09 0-.177-.01-.259-.031-.144-.037-.205-.092-.232-.133a.14.14 0 0 1-.022-.055.095.095 0 0 1 0-.024s.095-.028.227-.03a.924.924 0 0 1 .201.019.589.589 0 0 1 .348.223c-.001 0-.11.031-.263.031zm5.089-.235c-.024 0-.044-.012-.05-.03-.007-.018-.005-.04.005-.067.017-.044.057-.091.108-.095h.01c.01 0 .023.003.034.007 0 0 .004.046-.008.093a.144.144 0 0 1-.03.063.09.09 0 0 1-.07.03zm-4.452 0a.091.091 0 0 1-.068-.029.144.144 0 0 1-.031-.064.321.321 0 0 1-.008-.092.093.093 0 0 1 .034-.007h.003c.054 0 .097.048.115.095.01.026.012.049.006.067-.007.018-.027.03-.05.03zm-.479-.067c-.002 0-.13-.033-.26-.114-.12-.076-.266-.208-.284-.415 0 0 .011-.003.028-.003h.007c.036 0 .11.01.198.078.113.088.218.24.311.455 0 0-.093-.214 0 0zm5.41 0c.093-.214.198-.366.31-.454a.336.336 0 0 1 .206-.078c.017 0 .028.003.028.003-.018.207-.165.34-.285.415-.13.08-.257.114-.26.114 0 0 .003 0 0 0zm-5.097-.011s-.091-.037-.205-.134a1.336 1.336 0 0 1-.362-.513s.024-.014.062-.016h.017c.052.001.132.023.22.12.101.111.192.294.269.542v.001zm4.784 0c.076-.25.167-.432.268-.543.089-.097.168-.119.22-.12h.017c.036.002.06.015.063.016a1.336 1.336 0 0 1-.363.513c-.113.097-.204.134-.205.134zm.81-.024c-.04 0-.065-.01-.076-.027-.014-.023.003-.052.009-.06a.214.214 0 0 1 .175-.084h.003c.018 0 .036.002.052.007 0 0 .006.04-.012.082-.01.024-.046.082-.15.082zm-6.404 0c-.105 0-.14-.058-.151-.082-.018-.041-.012-.082-.012-.082a.227.227 0 0 1 .052-.007h.003c.083 0 .148.042.176.084.005.008.022.037.008.06-.011.018-.037.027-.076.027zm6.636-.297a1.15 1.15 0 0 1-.103-.004s.003-.077.07-.152c.063-.07.2-.155.487-.164 0 0-.008.068-.039.138-.027.064-.08.144-.173.162-.094.016-.183.02-.242.02zm-6.868 0c-.058 0-.148-.003-.242-.02-.093-.018-.145-.098-.173-.162a.568.568 0 0 1-.04-.138h.001c.288.009.424.094.487.164a.26.26 0 0 1 .07.152s-.041.004-.103.004zm6.568-.304c0-.001-.016-.167-.016-.332 0-.164.173-.23.18-.233l-.016.127a2.207 2.207 0 0 0-.016.19c0 .046-.032.102-.066.156-.033.05-.065.092-.066.092zm-6.268 0s-.033-.041-.066-.093c-.034-.053-.066-.11-.066-.155s-.01-.138-.016-.19l-.016-.127c.007.003.18.069.18.233 0 .165-.016.33-.016.332zm6.474-.027c-.004-.01-.003-.022 0-.04.006-.03.02-.07.044-.126.039-.088.089-.18.094-.188.001-.002.07-.09.156-.176.05-.05.098-.092.141-.122.054-.038.163-.052.163-.052s.008.074.002.158a.44.44 0 0 1-.084.258c-.053.06-.142.13-.252.193a.876.876 0 0 1-.24.106h-.006l-.01-.001a.02.02 0 0 1-.008-.01zm-6.698.012h-.006a.877.877 0 0 1-.24-.107c-.11-.064-.2-.132-.251-.193a.44.44 0 0 1-.085-.258.973.973 0 0 1 .002-.158.089.089 0 0 1 .029-.004c.038 0 .079.018.134.056.043.03.09.071.14.122.088.087.156.174.157.175v.001c.006.01.055.1.094.188a.612.612 0 0 1 .044.127c.003.017.004.029 0 .039a.02.02 0 0 1-.009.01.023.023 0 0 1-.01.002z"/>
        <path fill="#F2C500" d="M5.963 9.615s.134-.593-.562-.495c-.176.025-.34.108-.505.096-.228-.017-.427-.17-.615-.256-.214-.098-.408-.134-.53-.244-.13-.119-.202-.325-.31-.517-.066-.12-.294-.156-.294-.562s-.239-.72-.177-.841c.106-.207.446.887 1.066-.115.293-.472.57-.465 1.365-.175.795.29.489-1.387.489-1.387s1.822.531 2.755.341c.226-.046.875-.063 1.213-.341.277 0 .73 0 1.373-.406.228-.143.307-.18.505-.397.34 0 .65-.19.747-.264.484-.377.566-.207.695-.267.21-.098.352-.223.352-.223s.209.252-.43.439c-.235.069-.291.291-.493.437-.346.249-.807.464-1.07.68-.372.31-.34.51-.478.483-.407-.083-.495.198-.576.397-.274.683 1.025 1.24.748 1.502-.977-.287-.878.272-1.096.09-.393-.327-.885-.096-.885.185 0 .587-.267.497-.675.648-.52.193-.74.434-.97.434-.708 0-.913.097-1.173.263-.243.156.06.495.06.495h-.529z"/>
    </g>
</svg>
