<svg xmlns="http://www.w3.org/2000/svg" width="16" height="16" viewBox="0 0 16 16">
    <g fill="none" fill-rule="evenodd">
        <path fill="#000" d="M15.544 10.667H.455a8.003 8.003 0 0 0 15.09 0z"/>
        <path fill="#FFF" d="M.455 10.667h15.09A7.987 7.987 0 0 0 16 8c0-.935-.16-1.833-.456-2.667H.455A7.987 7.987 0 0 0 0 8c0 .935.16 1.833.455 2.667z"/>
        <path fill="#E94B35" d="M.455 5.333h15.09a8.003 8.003 0 0 0-15.09 0z"/>
        <path fill="#FFF" d="M8.022 8.046l1.826 1.696-.13-3.08c-.02-.466-.425-.36-.72-.19-.298.19-.638.19-.998.064-.36.126-.7.126-.998-.065-.295-.168-.7-.275-.72.191l-.13 3.08 1.87-1.696z"/>
        <path fill="#C09300" d="M8.01 8.059l1.826 1.695.03.028-.001-.041-.13-3.08c-.01-.223-.107-.337-.272-.35-.131-.009-.3.047-.473.145-.28.18-.608.196-.984.064L8 6.518l-.005.002c-.376.132-.705.116-.984-.063-.174-.1-.342-.155-.474-.145-.165.012-.262.126-.271.35l-.13 3.079-.002.04.03-.027L8.033 8.06l.032-.03h-.087l.032.03zm.023-.025l-.011.012v.017-.017l-.012-.012-1.87 1.695.03.013.13-3.079c.008-.207.093-.306.24-.317.123-.01.286.044.453.14.289.185.628.201 1.013.066h-.011c.384.135.724.119 1.013-.067.166-.095.33-.149.452-.14.148.012.233.111.241.318l.13 3.08.028-.014-1.826-1.695z"/>
        <path fill="#C09300" d="M7.902 8.38l-.258 1.175.098.099.103-.076.096-.685-.04.681.1.126.098-.126-.04-.685.096.689.103.076.098-.099-.258-1.174z"/>
        <path fill="#FFF" d="M6.917 9.677l.7.107.299-1.358-.49-.555z"/>
        <path fill="#C09300" d="M7.908 8.394l.025.027-.303 1.38-.733-.111.513-1.819.028-.01.006.006-.01.036-.496 1.76.667.103.293-1.334.01-.038z"/>
        <path fill="#C09300" d="M7.596 9.189l.028.019.233-.354-.029-.018-.232.353zm.029.006L7.553 8.8l-.158.216-.068-.24-.245.252.124.454.154-.253.084.255.176-.275-.028-.018-.138.214-.084-.257-.152.248-.098-.358.19-.195.07.248.154-.207.057.319.009.04.066.312.033-.007-.074-.352z"/>
        <path fill="#FFF" d="M8.574 7.871l.509 1.806-.7.107-.299-1.358.49-.555z"/>
        <path fill="#C09300" d="M8.09 8.394l-.023.027.303 1.38.733-.111L8.59 7.87l-.028-.01-.007.008.011.034.496 1.76-.667.103-.293-1.334-.011-.038z"/>
        <path fill="#C09300" d="M8.404 9.189l-.028.019-.233-.354.029-.018.232.353zm-.029.006l.072-.396.158.216.068-.24.245.252-.124.454-.154-.253-.084.255-.176-.275.028-.018.138.214.084-.257.152.248.098-.358-.19-.195-.07.248-.154-.207-.057.319-.009.04-.066.312-.033-.007.074-.352z"/>
        <g>
            <path fill="#FFF" d="M9.339 10.358c.126-.023.126-.088.126-.173.127-.042.061-.19.15-.19-.089.022-.108-.15-.215-.127 0-.15-.149-.168-.275-.126-.253.084-.7.103-1.125.103-.425-.02-.868-.02-1.125-.103-.126-.042-.275-.023-.275.126-.107-.023-.126.15-.214.126.088 0 .023.15.149.191 0 .085 0 .15.13.173.294.084.803.126 1.335.126.532 0 1.04-.042 1.339-.126z"/>
            <path fill="#C09300" d="M9.495 10.208a.153.153 0 0 0 .084-.103l.01-.037a.261.261 0 0 1 .045-.081s-.057-.028-.084-.062a4.868 4.868 0 0 1-.01-.013c-.05-.063-.074-.078-.11-.079-.02-.133-.16-.173-.315-.121-.218.072-.593.101-1.115.101a16.106 16.106 0 0 0-.235-.009c-.505-.018-.71-.036-.88-.092-.167-.056-.302.071-.312.122-.042.001-.073.027-.112.078a4.85 4.85 0 0 1-.011.013c-.027.034-.088.073-.088.073s.04.033.05.07c0 .004.007.03.01.037.016.055.05.103.081.103.004.114.035.16.156.18.284.082.783.128 1.341.128.558 0 1.057-.046 1.348-.128.122-.022.158-.13.147-.18zM8 10.452c-.553 0-1.047-.045-1.326-.125-.096-.017-.108-.038-.108-.142v-.022l-.021-.008c-.035-.011-.052-.032-.063-.069a1.38 1.38 0 0 1-.009-.033c-.015-.062-.014-.046-.014-.046s.026-.024.04-.043l.011-.013c.036-.046.054-.058.083-.052l.039.008v-.039c0-.106.1-.14.233-.096.18.059.385.077.897.095a54.187 54.187 0 0 1 .237.01c.53 0 .91-.03 1.136-.105.132-.044.234-.01.234.096v.04l.038-.009c.029-.006.047.006.083.052l.01.013c.042.053.041.044.041.044s-.01.027-.014.045a1.38 1.38 0 0 1-.009.033c-.011.037-.028.058-.063.07l-.021.007v.022c0 .104-.012.125-.1.141-.287.081-.781.126-1.334.126z"/>
        </g>
        <g>
            <path fill="#FFF" d="M8 8.708c.87-.67.795-1.65.795-1.65a.34.34 0 0 1-.067.007c-.183 0-.619-.104-.72-.237-.109.12-.554.237-.735.237a.33.33 0 0 1-.068-.007s-.076.98.794 1.65z"/>
            <path fill="#C09300" d="M8.491 8.197a2.058 2.058 0 0 0 .32-1.124L8.81 7.04s-.06.01-.081.01c-.22 0-.622-.12-.708-.231l-.011-.015-.013.014c-.095.105-.518.232-.723.232-.023 0-.082-.01-.082-.01l-.002.033a2.055 2.055 0 0 0 .32 1.124c.123.195.283.37.481.524h.019c.198-.153.358-.33.482-.524zM8 8.693a2.339 2.339 0 0 1-.465-.513 2.024 2.024 0 0 1-.315-1.106c.016.006.03.006.054.006.212 0 .63-.113.733-.23.11.117.501.23.722.23.023 0 .053-.006.053-.006A2.028 2.028 0 0 1 8 8.693zm.704-1.575c-.2 0-.562-.099-.69-.209l-.007-.006-.008.006c-.138.104-.515.21-.701.21-.007 0-.013-.001-.02-.003l-.015-.002v.014a1.961 1.961 0 0 0 .07.502c.11.399.335.739.66.997l.007.006.008-.006a1.91 1.91 0 0 0 .66-.998 1.963 1.963 0 0 0 .071-.5v-.013l-.035.002z"/>
            <path fill="#FFF" d="M7.717 8.323c.083.102.178.195.283.28.098-.08.187-.167.267-.26V7.06a.893.893 0 0 1-.262-.127.966.966 0 0 1-.288.132v1.257z"/>
        </g>
        <g>
            <path fill="#FFF" d="M8.408 6.695a.894.894 0 0 0 .12.017l.091.006-.083-.037c-.1-.044-.204-.396-.192-.67.01-.245-.025-.389-.087-.45-.053-.054-.222-.105-.348-.112-.035-.002-.058.011-.067.034l-.004.01c-.128-.031-.23-.034-.282 0-.028.019-.046.068-.052.122a.17.17 0 0 0 .003.058c.006.023.025.034.044.018.068-.054.133-.024.196.068.046.066.038.26-.026.47a1.19 1.19 0 0 1-.118.259 1.917 1.917 0 0 1-.145.209l-.021.026h.034c.024 0 .05-.004.08-.012a.633.633 0 0 0 .093-.036c.023-.01.056-.029.056-.029l-.026.11-.008.034.03-.015a.774.774 0 0 0 .171-.11l.023-.018.095.1.013.015.012-.016a1.175 1.175 0 0 1 .085-.091l.009-.008a.67.67 0 0 0 .061.046c.05.03.103.049.162.054.02.002.024-.013.021-.033a.229.229 0 0 0-.01-.036c-.001-.004.015.006.07.017z"/>
            <path fill="#C09300" d="M7.713 6.601a1.812 1.812 0 0 1-.082.044.601.601 0 0 1-.09.035l-.034.008s.014-.02.023-.03a1.95 1.95 0 0 0 .1-.154c.055-.091.097-.18.122-.265.053-.176.07-.341.046-.44a.1.1 0 0 1 .01-.01c.018-.015.093.001.093.001-.1-.171-.215-.212-.265-.209-.046.003-.075.051-.088.079a.142.142 0 0 0-.011.011s-.002-.034 0-.053a.22.22 0 0 1 .02-.077c.016-.01.04-.02.073-.022.077-.006.1.006.16.053s.107.07.136.065c.01-.001.015.015.024.027.007.008.005.016.033.016.018 0 .028-.035.04-.044.014-.012.04-.017.059-.021.037-.01.055-.009.083-.012a.198.198 0 0 1 .094.013c.04.068.061.195.053.393-.013.287.08.59.165.665a.818.818 0 0 1-.063-.01.23.23 0 0 1-.096-.037.71.71 0 0 1-.083-.245 2.375 2.375 0 0 1-.038-.302l-.034.002a1.485 1.485 0 0 0 .008.096c.008.072.018.143.03.21a.735.735 0 0 0 .09.258l.025.068a.35.35 0 0 1-.198-.098 1.557 1.557 0 0 1-.022-.27 9.182 9.182 0 0 1-.005-.289h-.034a5.808 5.808 0 0 0 0 .09l.005.2c.004.136.012.231.022.273a1.52 1.52 0 0 0-.072.074l-.016.018-.085-.09c.026-.055.048-.147.065-.266a3.581 3.581 0 0 0 .032-.316l-.034-.002a2.201 2.201 0 0 1-.007.098 3.548 3.548 0 0 1-.024.215.925.925 0 0 1-.066.263l-.03.026a.95.95 0 0 1-.084.061c-.027.017-.05.028-.05.028l.026-.106a.714.714 0 0 0 .115-.27 2.658 2.658 0 0 0 .06-.3l-.034-.005a1.589 1.589 0 0 1-.015.093c-.012.07-.027.138-.044.203a.687.687 0 0 1-.108.257zm.695.094a.894.894 0 0 0 .12.017l.091.006-.083-.037c-.1-.044-.204-.396-.192-.67.01-.245-.025-.389-.087-.45-.053-.054-.222-.105-.348-.112-.035-.002-.058.011-.067.034l-.004.01c-.128-.031-.23-.034-.282 0-.028.019-.046.068-.052.122a.17.17 0 0 0 .003.058c.006.023.025.034.044.018.068-.054.133-.024.196.068.046.066.038.26-.026.47a1.19 1.19 0 0 1-.118.259 1.917 1.917 0 0 1-.145.209l-.021.026h.034c.024 0 .05-.004.08-.012a.633.633 0 0 0 .093-.036c.023-.01.056-.029.056-.029l-.026.11-.008.034.03-.015a.774.774 0 0 0 .171-.11l.023-.018.095.1.013.015.012-.016a1.175 1.175 0 0 1 .085-.091l.009-.008a.67.67 0 0 0 .061.046c.05.03.103.049.162.054.02.002.024-.013.021-.033a.229.229 0 0 0-.01-.036c-.001-.004.015.006.07.017z"/>
        </g>
    </g>
</svg>
