<svg xmlns="http://www.w3.org/2000/svg" width="16" height="16" viewBox="0 0 16 16">
    <g fill="none" fill-rule="evenodd">
        <path fill="#E94B35" d="M15.544 10.667H.455a8.003 8.003 0 0 0 15.09 0z"/>
        <path fill="#F2C500" d="M.455 10.667h15.09A7.987 7.987 0 0 0 16 8c0-.935-.16-1.833-.456-2.667H.455A7.987 7.987 0 0 0 0 8c0 .935.16 1.833.455 2.667z"/>
        <path fill="#1AAF5D" d="M.455 5.333h15.09a8.003 8.003 0 0 0-15.09 0z"/>
        <circle cx="7.985" cy="7.985" r="3.674" fill="#00207F"/>
        <path fill="#F2C500" d="M5.255 7.02h2.14l.485-1.49.129.398-.703 2.165-.21-.152.22-.675H5.593l-.338-.245zm1.07 3.295l.662-2.036-1.267-.92h.417L7.98 8.695l-.209.152-.574-.417-.533 1.638-.338.246zm3.464 0L8.057 9.057l-1.267.92.13-.397 1.84-1.338.08.245-.574.418L9.66 9.918l.13.397zm1.07-3.294L9.129 8.279l.484 1.49-.338-.246-.704-2.165h.259l.219.675 1.394-1.012h.418zM8.058 4.985L8.72 7.02h1.566l-.338.245H7.671l.08-.245h.71l-.533-1.64.13-.396z"/>
        <path fill="#F2C500" d="M6.178 5.63l.875 1.12.157-.124-.874-1.12-.158.124zm3.502-.176l-.795 1.178.166.112.795-1.178-.166-.112zm1.25 3.276l-1.366-.392-.056.192 1.366.392.055-.192zm-2.73 2.2l-.05-1.42-.2.007.05 1.42.2-.006zM5.263 9.016L6.6 8.529l-.069-.188-1.335.486.068.188z"/>
    </g>
</svg>
