<svg xmlns="http://www.w3.org/2000/svg" width="16" height="16" viewBox="0 0 16 16">
    <g fill="none" fill-rule="evenodd">
        <circle cx="8" cy="8" r="8" fill="#FFF"/>
        <path fill="#00207F" d="M.049 8.889H15.95a8.088 8.088 0 0 0 0-1.778H8v.445V0c-.935 0-1.833.16-2.667.455v3.1H8v1.778H5.333V8H3.556V5.333h-3.1A7.987 7.987 0 0 0 .048 8.89zM8 3.556h6.653c.367.548.668 1.144.892 1.777H8V3.556zM8 0c1.905 0 3.655.666 5.029 1.778H8V0zm6.653 12.444a7.972 7.972 0 0 0 .892-1.777H.455c.224.633.525 1.229.892 1.777h13.306zm-1.624 1.778A7.967 7.967 0 0 1 8 16a7.967 7.967 0 0 1-5.029-1.778H13.03zM1.347 3.556a8.044 8.044 0 0 1 2.209-2.209v2.209H1.347z"/>
        <path fill="#FFF" d="M3.556 5.333h-3.1c.223-.633.524-1.229.891-1.777h2.209V1.347A7.972 7.972 0 0 1 5.333.455v3.1H8v1.778H5.333V8.89H3.556V5.333z"/>
    </g>
</svg>
