<svg xmlns="http://www.w3.org/2000/svg" width="16" height="16" viewBox="0 0 16 16">
    <g fill="none" fill-rule="evenodd">
        <path fill="#E94B35" d="M8 16A8 8 0 1 0 8 0a8 8 0 0 0 0 16z"/>
        <path fill="#FFF" d="M7.712 8.051c-2 1.873-4.825-.364-3.856-2.771.098.605.57.842 1.128.696.623-.165 1.335.467 1.391.981.085.774.794 1.204 1.414.932a1.625 1.625 0 0 1-1.008.275 1.854 1.854 0 0 1-1.335-.661l-.054.044c.343.411.848.661 1.386.686.382.018.74-.076 1.016-.261l-.082.079zm.307-.215a1.684 1.684 0 0 1-.563-.886 1.925 1.925 0 0 1 .225-1.53l.059.038a1.854 1.854 0 0 0-.217 1.474c.1.364.309.678.573.874-.45-.506-.26-1.313.45-1.633.471-.212.852-1.084.503-1.627-.311-.484-.232-1.007.313-1.288-2.589-.177-3.844 3.201-1.444 4.525l.101.053zm-.115.494c1.163 2.481-1.837 4.477-3.827 2.812.605.093.977-.283 1.01-.858.036-.644.857-1.126 1.363-1.02.763.158 1.39-.384 1.324-1.057.099.314.082.69-.05 1.044a1.854 1.854 0 0 1-1.042 1.065l.026.065c.497-.2.89-.602 1.08-1.106.135-.358.157-.727.065-1.047l.05.102zm.324-.096c2.72-.34 3.69 3.13 1.492 4.509.276-.547.033-1.017-.504-1.226-.601-.234-.806-1.164-.55-1.612.387-.676.066-1.44-.595-1.585.329.003.682.135.977.37.405.324.657.805.691 1.32l.07-.005a1.925 1.925 0 0 0-.717-1.37 1.684 1.684 0 0 0-.977-.385l.113-.016zm4.758-.363c-.435-.432-.957-.346-1.321.1-.408.5-1.356.407-1.703.024-.524-.577-1.35-.507-1.692.077.105-.312.34-.607.655-.815a1.854 1.854 0 0 1 1.468-.25l.017-.067a1.925 1.925 0 0 0-1.524.259c-.32.21-.554.497-.668.81.437-2.808 4.128-2.69 4.768-.138zM8.104 5.278l-.159.249-.057-.29-.286-.074.258-.144-.018-.295.216.201.275-.108-.124.268.188.228-.293-.035zm2.573 2.02l-.286-.074.258-.144-.018-.295.217.2.274-.107-.124.268.188.227-.293-.034-.159.249-.057-.29zM9.55 10.37l-.018-.294.216.2.275-.108-.124.268.188.228-.293-.035-.159.25-.057-.29-.286-.074.258-.145zm-3.27-.122l.275-.108-.124.268.188.228-.293-.035-.159.25-.057-.29-.286-.074.258-.144-.018-.295.216.2zm-.706-2.919l-.293-.035-.159.25-.057-.29-.286-.074.258-.144-.018-.295.216.2.275-.107-.124.268.188.227z"/>
    </g>
</svg>
