<svg xmlns="http://www.w3.org/2000/svg" width="16" height="16" viewBox="0 0 16 16">
    <g fill="none" fill-rule="evenodd">
        <path fill="#1AAF5D" d="M15.544 10.667H.455a8.003 8.003 0 0 0 15.09 0z"/>
        <path fill="#FFF" d="M.455 10.667h15.09A7.987 7.987 0 0 0 16 8c0-.935-.16-1.833-.456-2.667H.455A7.987 7.987 0 0 0 0 8c0 .935.16 1.833.455 2.667z"/>
        <path fill="#E87E04" d="M.455 5.333h15.09a8.003 8.003 0 0 0-15.09 0z"/>
        <path fill="#00207F" d="M8.404 10.046c.118-.02.232-.05.342-.09a.09.09 0 0 1 .027-.148.09.09 0 0 1 .126.086c.11-.05.216-.111.315-.18a.09.09 0 1 1 .125-.095 2.01 2.01 0 0 0 .265-.264.09.09 0 1 1 .09-.116c.075-.104.14-.216.194-.334a.09.09 0 1 1 .052-.125c.047-.124.082-.253.103-.386a.09.09 0 0 1-.146-.082.09.09 0 0 1 .162-.043 2.027 2.027 0 0 0-.002-.408.09.09 0 0 1-.165-.037.09.09 0 0 1 .15-.08 1.987 1.987 0 0 0-.11-.4.09.09 0 1 1-.045-.106 2 2 0 0 0-.213-.358.09.09 0 1 1-.072-.091 2.01 2.01 0 0 0-.295-.287.09.09 0 0 1-.143.09.09.09 0 0 1 .044-.163 1.993 1.993 0 0 0-.352-.195.09.09 0 0 1-.118.118.09.09 0 0 1-.005-.166 1.982 1.982 0 0 0-.379-.092.09.09 0 1 1-.144-.015 2.024 2.024 0 0 0-.376.009.09.09 0 1 1-.154.024 1.98 1.98 0 0 0-.348.103.09.09 0 1 1-.15.068 1.997 1.997 0 0 0-.301.185.09.09 0 1 1-.134.109 2.01 2.01 0 0 0-.237.25.09.09 0 0 1 .035.136.09.09 0 0 1-.14.007 1.996 1.996 0 0 0-.162.297.09.09 0 1 1-.065.168 1.988 1.988 0 0 0-.08.325h.006a.09.09 0 1 1-.026.18 2.032 2.032 0 0 0 .008.333.09.09 0 1 1 .023.18c.022.11.052.217.09.32h.002a.09.09 0 1 1 .07.166 1.999 1.999 0 0 0 .17.286.09.09 0 1 1 .109.144c.072.085.151.164.236.236a.09.09 0 1 1 .143.11c.092.064.19.12.291.168a.09.09 0 1 1 .165.07c.106.038.216.068.328.088a.09.09 0 0 1 .102-.097.09.09 0 0 1 .074.121c.06.006.12.008.182.008 0 0-1.103 0 0 0 .055 0 .109-.002.163-.006a.09.09 0 1 1 .17-.021zM8.136 8.44a.36.36 0 0 0 .086-.036l.202.471.597.91-.49-.972-.307-.41a.364.364 0 0 0 .074-.058l.317.404.813.724-.725-.812-.404-.317a.364.364 0 0 0 .057-.075l.411.308.972.49-.91-.597-.473-.202a.36.36 0 0 0 .035-.087l.479.191 1.065.222-1.033-.342-.51-.073a.363.363 0 0 0 .01-.093l.514.062 1.086-.062-1.086-.062-.514.061a.362.362 0 0 0-.013-.092l.513-.074 1.033-.341L8.87 7.8l-.481.193a.36.36 0 0 0-.037-.086l.477-.204.91-.597-.972.49-.415.31a.364.364 0 0 0-.058-.073l.409-.321.725-.813-.813.725-.321.41a.364.364 0 0 0-.075-.057l.313-.417.49-.972-.598.91-.205.479a.36.36 0 0 0-.358 0L7.55 7.36l-.49-.972.597.91.205.479a.364.364 0 0 0-.075.056l-.321-.41-.812-.724.724.813.41.321a.364.364 0 0 0-.058.074l-.416-.312-.972-.49.91.598.477.204a.36.36 0 0 0-.037.086l-.48-.193-1.066-.221 1.033.341.513.074a.362.362 0 0 0-.013.092l-.513-.061-1.087.062 1.087.062.513-.062a.37.37 0 0 0 .01.093l-.51.073-1.033.342 1.066-.222.478-.191c.008.03.02.06.035.087l-.473.202-.91.597.972-.49.412-.308a.364.364 0 0 0 .056.075l-.404.317-.724.812.812-.724.317-.404a.364.364 0 0 0 .074.058l-.307.41-.49.972.597-.91.202-.471a.36.36 0 0 0 .086.036l-.19.475-.222 1.066.341-1.033.073-.507c.03.008.06.012.093.012h.002l.061.508-.062 1.087-.062-1.087.061-.508h.002a.363.363 0 0 0 .093-.012l.073.507.34 1.033-.22-1.066-.19-.475zm-.065 1.835a2.204 2.204 0 1 0 0-4.41 2.204 2.204 0 0 0 0 4.41s-1.217 0 0 0zm-.539-4.084l.221 1.065.194.484-.074-.516-.34-1.033zm.508-.067L7.978 7.21l.062.518.062-.518-.062-1.086zm.508.067l-.341 1.033-.074.516.194-.484.22-1.065z"/>
    </g>
</svg>
