<svg xmlns="http://www.w3.org/2000/svg" width="16" height="16" viewBox="0 0 16 16">
    <g fill="none" fill-rule="evenodd">
        <circle cx="8" cy="8" r="8" fill="#00A185"/>
        <path fill="#F2C500" d="M8 2.933l-.21.65h-.682l.551.403-.21.65L8 4.234l.551.402-.21-.65.55-.402h-.68L8 2.934zM5.31 4.074l.139.453-.387.27.472.01.137.452.154-.448.471.008-.376-.284.153-.448-.386.272-.376-.285zm5.38 0l-.377.285-.386-.272.153.448-.376.284.471-.008.154.448.137-.453.472-.008-.387-.271.138-.453zM4.417 5.57l-.2.429-.467-.058.344.323-.199.429.412-.23.345.323-.09-.465.412-.23-.467-.057-.09-.464zm7.164 0l-.09.464-.467.058.412.23-.09.464.345-.323.412.23-.2-.43.345-.322-.467.058-.2-.429z"/>
        <path fill="#FFF" d="M8 5.185c-.612.53-1 1.315-1 2.19 0 .596.18 1.15.487 1.61a2.887 2.887 0 0 1-.603-1.77c0-.443.1-.862.277-1.237a1.16 1.16 0 0 1-.268-.463c-.237.42-.373.906-.373 1.423 0 .644.21 1.239.564 1.72a3.375 3.375 0 0 0-2.608-1.051c.097.09.179.198.24.317.96.002 1.826.404 2.443 1.05a3.37 3.37 0 0 0-2.172-.791c-.462 0-.902.093-1.303.26a2.887 2.887 0 0 0 2.935 1.862 2.87 2.87 0 0 1-2.516-.767 1.146 1.146 0 0 1-.344.075A2.873 2.873 0 0 0 8 9.7a2.873 2.873 0 0 0 4.241-.089 1.146 1.146 0 0 1-.344-.074 2.87 2.87 0 0 1-2.516.767 2.887 2.887 0 0 0 2.936-1.861 3.368 3.368 0 0 0-1.304-.261 3.37 3.37 0 0 0-2.172.79 3.375 3.375 0 0 1 2.443-1.049c.061-.12.143-.227.24-.317a3.375 3.375 0 0 0-2.608 1.051c.354-.481.564-1.076.564-1.72 0-.517-.136-1.003-.373-1.423a1.16 1.16 0 0 1-.268.463c.177.375.277.794.277 1.237 0 .666-.225 1.28-.603 1.77.308-.46.487-1.014.487-1.61 0-.875-.388-1.66-1-2.19 0 0 .612.53 0 0zm0 4.828c-.518.497-1.22.801-1.991.801H3.764c.066.098.136.193.208.286h2.17c.708 0 1.356-.256 1.858-.681.502.425 1.15.68 1.858.68h2.17c.072-.092.142-.187.208-.285H9.99a2.869 2.869 0 0 1-1.991-.8s.518.496 0 0zm-3.779 1.381c.044.049.09.096.135.143h7.288a5.2 5.2 0 0 0 .135-.143H4.22zm.45.437c.09.078.183.152.278.223h6.102a5.15 5.15 0 0 0 .278-.223H4.67zm.602.446c.165.105.337.2.514.286h4.426c.177-.086.349-.181.514-.286H5.273zm.839.428A5.086 5.086 0 0 0 8 13.067c.667 0 1.304-.129 1.888-.362H6.112z"/>
    </g>
</svg>
