<svg xmlns="http://www.w3.org/2000/svg" width="16" height="16" viewBox="0 0 16 16">
    <g fill="none" fill-rule="evenodd">
        <circle cx="8" cy="8" r="8" fill="#FFF"/>
        <path fill="#E94B35" d="M8 3.378h6.53a8.043 8.043 0 0 0-.997-1.156H8v1.156zM8 0c1.455 0 2.818.388 3.994 1.067H8V0zm0 5.6h7.634a7.946 7.946 0 0 0-.422-1.067H8V5.6zm0 2.311h8a8.053 8.053 0 0 0-.096-1.155H8V7.91zm0 1.156H.07c.053.395.135.78.243 1.155h15.374c.108-.374.19-.76.243-1.155H8V7.91v1.156zm7.254 2.31a7.988 7.988 0 0 1-.601 1.067H1.347a7.988 7.988 0 0 1-.601-1.066h14.508zm-1.54 2.223a8.035 8.035 0 0 1-1.57 1.244H3.856a8.035 8.035 0 0 1-1.57-1.244h11.427z"/>
        <path fill="#00207F" d="M8 0A8 8 0 0 0 .07 9.067H8V0z"/>
        <path fill="#F2C500" d="M5.924 6.991a2.094 2.094 0 1 1 0-3.329 1.863 1.863 0 1 0 0 3.329s-.252.127 0 0zM5.6 4.534l.183-.677.183.677.462-.529-.13.674.628-.278-.411.569.7.026-.618.33.619.331-.701.026.41.569-.627-.278.13.674-.462-.529-.183.678-.183-.678-.461.529.13-.674-.628.278.411-.569-.7-.026.618-.33-.619-.331.701-.026-.411-.569.627.278-.129-.674.461.529z"/>
    </g>
</svg>
