<svg xmlns="http://www.w3.org/2000/svg" width="16" height="16" viewBox="0 0 16 16">
    <g fill="none" fill-rule="evenodd">
        <path fill="#FFF" d="M0 8a8 8 0 0 0 8 8V0a8 8 0 0 0-8 8z"/>
        <path fill="#E94B35" d="M8 0a8 8 0 1 1 0 16V0zM2.756 3.192v1.26h1.26c0 .21.21.42.42.42v1.261h1.26v-1.26c.211 0 .421-.21.421-.42h1.26V3.192h-1.26c0-.21-.21-.42-.42-.42v-1.26h-1.26v1.26c-.21 0-.42.21-.42.42H2.755z"/>
        <path fill="#96877D" d="M2.844 3.277v1.09h1.258c0 .21.21.42.42.42v1.257h1.09V4.787c.21 0 .42-.21.42-.42h1.257v-1.09H6.03a.45.45 0 0 0-.42-.42V1.6h-1.09v1.258a.45.45 0 0 0-.419.42H2.844z"/>
        <path fill="#CCC" d="M2.933 3.33v.984h1.231c0 .206.205.41.41.41v1.232h.985V4.725c.205 0 .41-.205.41-.41H7.2V3.33H5.97a.441.441 0 0 0-.411-.41V1.689h-.985v1.23a.441.441 0 0 0-.41.41h-1.23z"/>
        <path fill="#96877D" d="M4.489 2.889c.074.074.054.213-.045.311-.098.098-.237.118-.31.044-.074-.073-.054-.212.044-.31.098-.099.237-.119.31-.045 0 0-.073-.074 0 0zm1.6.355c-.074.074-.213.054-.311-.044s-.118-.237-.045-.311c.074-.074.213-.054.311.044.099.099.119.238.045.311 0 0 .074-.073 0 0zm-.356 1.6c-.073-.073-.053-.212.045-.31.098-.099.237-.119.31-.045.075.074.055.213-.044.311-.098.098-.237.118-.31.044 0 0 .073.074 0 0zm-1.6-.355c.074-.074.213-.054.311.044.099.099.119.238.045.311-.074.074-.213.054-.311-.044s-.118-.237-.045-.311c0 0-.073.074 0 0z"/>
        <path fill="#96877D" fill-rule="nonzero" d="M5.111 4.688a.821.821 0 1 1 0-1.643.821.821 0 0 1 0 1.643zm0 .046a.867.867 0 1 0 0-1.734.867.867 0 0 0 0 1.734z"/>
        <path fill="#96877D" fill-rule="nonzero" d="M5.755 3.867a.644.644 0 1 1-1.288 0 .644.644 0 0 1 1.288 0zm.046 0a.69.69 0 1 0-1.38 0 .69.69 0 0 0 1.38 0z"/>
    </g>
</svg>
