<svg border-radius="100%" width="16px" height="16px" viewBox="0 0 16 16" version="1.1" xmlns="http://www.w3.org/2000/svg" xmlns:xlink="http://www.w3.org/1999/xlink">
    <defs>
        <circle id="path-1" cx="8" cy="8" r="8"></circle>
    </defs>
    <g id="UI" stroke="none" stroke-width="1" fill="none" fill-rule="evenodd">
        <g id="Icons" transform="translate(-768.000000, -887.000000)">
            <g id="Flags" transform="translate(695.000000, 479.000000)">
                <g id="icos" transform="translate(1.000000, 44.000000)">
                    <g id="Icons-/-Flags-/-northireland" transform="translate(72.000000, 364.000000)">
                        <g>
                            <mask id="mask-2" fill="white">
                                <use xlink:href="#path-1"></use>
                            </mask>
                            <use id="Mask" fill="#FFFFFF" xlink:href="#path-1"></use>
                            <g id="flag">
                                <g transform="translate(-2.000000, -2.000000)">
                                    <g id="x">
                                        <rect id="Path" fill="#E94B35" x="0" y="8.125" width="20" height="3.75"></rect>
                                        <polygon id="Path" fill="#E94B35" points="11.875 0 11.875 20 8.125 20 8.125 2.29621275e-16"></polygon>
                                    </g>
                                    <g id="northireland" transform="translate(6.250000, 1.250000)">
                                        <g id="star" transform="translate(0.000000, 4.375000)">
                                            <polyline id="Fill-5" fill="#FFFFFF" points="3.75005754 8.68749976 5.0102426 6.52696455 7.5 6.52696455 6.2637527 4.34374988 7.5 2.16065033 5.0102426 2.16065033 3.75005754 0 2.4897574 2.16065033 0 2.16065033 1.2362473 4.34374988 0 6.52696455 2.4897574 6.52696455 3.75005754 8.68749976"></polyline>
                                            <polygon id="Stroke-6" stroke="#000000" stroke-width="0.125" points="3.75005754 8.68457395 5.0102426 6.52476638 7.5 6.52476638 6.2637527 4.34228698 7.5 2.15992266 5.0102426 2.15992266 3.75005754 0 2.4897574 2.15992266 0 2.15992266 1.2362473 4.34228698 0 6.52476638 2.4897574 6.52476638"></polygon>
                                        </g>
                                        <path d="M4.36127451,9.85672735 C4.44753748,9.77732188 4.58632641,9.68939855 4.66324683,9.498409 C4.73539216,9.31962839 4.89182814,9.11018346 5.04878316,8.97124755 C5.20563437,8.83231164 5.41625721,8.67709714 5.26386966,8.55037018 C5.0878143,8.40405212 4.77982122,8.73426151 4.69470011,8.81186876 C4.62867935,8.8720617 4.53556517,8.88105278 4.43892157,8.92581892 C4.49269319,8.49263796 4.38982122,8.16621429 4.37643022,7.52879376 C4.37072087,7.2589666 4.29577278,7.07876635 4.16134371,7.08132171 C4.04871395,7.0834985 3.999406,7.15855039 3.98186274,7.26038625 C3.98186274,7.11331104 3.97750288,6.875 3.78930219,6.875 C3.56061707,6.875 3.54816032,7.25262552 3.57317762,7.46755975 C3.56425029,7.33685778 3.56518454,7.07110027 3.36795271,7.07110027 C3.16179354,7.07110027 3.14393887,7.37348462 3.17082468,7.64321714 C3.17362745,7.67170468 3.17674164,7.73984763 3.17923299,7.82436382 C3.17923299,7.67728861 3.14840254,7.44702222 2.99144752,7.44702222 C2.84809112,7.44702222 2.83013264,7.64321714 2.83916378,7.81480488 C2.84809112,7.98648726 2.86137831,8.39572354 2.83916378,8.50948441 C2.79431949,8.73833116 2.81663783,9.32549626 2.83013264,9.498409 C2.84809112,9.72725574 3.06328143,9.80902728 3.05425029,9.96424178 C3.04532295,10.1195509 3.05425029,10.3932585 3.05425029,10.5159158 C3.05425029,10.6384784 3.16812572,10.6451034 3.40386966,10.5976873 C3.78930219,10.5199854 3.99992503,10.6752946 4.31819492,10.5608712 C4.2778143,10.2216707 4.37020184,9.97929002 4.36127451,9.85672735" id="Fill-7" fill="#D82332"></path>
                                        <g id="k">
                                            <path d="M3.75,3.20047578 C4.03520761,2.84130623 4.79558824,2.88360727 5.02798443,3.10536332 C5.26038062,3.32724913 5.94679931,3.03140138 6.22136678,3.58066609 L5.78849481,4.62625433 L1.71163495,4.62625433 L1.27850346,3.58066609 C1.55307093,3.03140138 2.23961938,3.32724913 2.47201557,3.10536332 C2.70441176,2.88360727 3.46479239,2.84130623 3.75,3.20047578" id="Fill-9" fill="#E94B35"></path>
                                            <path d="M3.75,3.20047578 C4.03520761,2.84130623 4.79558824,2.88360727 5.02798443,3.10536332 C5.26038062,3.32724913 5.94679931,3.03140138 6.22136678,3.58066609 L5.78849481,4.62625433 L1.71163495,4.62625433 L1.27850346,3.58066609 C1.55307093,3.03140138 2.23961938,3.32724913 2.47201557,3.10536332 C2.70441176,2.88360727 3.46479239,2.84130623 3.75,3.20047578 Z" id="Stroke-10" stroke="#000000" stroke-width="0.125"></path>
                                            <path d="M3.90194637,1.53049308 C4.01665225,1.54230104 4.13810554,1.59238754 4.2199827,1.64792388 L4.2199827,1.10916955 C4.13810554,1.16470588 4.01665225,1.21479239 3.90194637,1.22660035 C3.91375433,1.11176471 3.96384083,0.990441176 4.01937716,0.908564014 L3.48062284,0.908564014 C3.53615917,0.990441176 3.58624567,1.11176471 3.59805363,1.22660035 C3.48334775,1.21479239 3.36189446,1.16470588 3.2800173,1.10916955 L3.2800173,1.64792388 C3.36189446,1.59238754 3.48334775,1.54230104 3.59805363,1.53049308 C3.58624567,1.64519896 3.53615917,1.94623702 3.48062284,2.02811419 L4.01937716,2.02811419 C3.96384083,1.94623702 3.91375433,1.64519896 3.90194637,1.53049308" id="Fill-13" fill="#F2C500"></path>
                                            <path d="M3.90194637,1.53049308 C4.01665225,1.54230104 4.13810554,1.59238754 4.2199827,1.64792388 L4.2199827,1.10916955 C4.13810554,1.16470588 4.01665225,1.21479239 3.90194637,1.22660035 C3.91375433,1.11176471 3.96384083,0.990441176 4.01937716,0.908564014 L3.48062284,0.908564014 C3.53615917,0.990441176 3.58624567,1.11176471 3.59805363,1.22660035 C3.48334775,1.21479239 3.36189446,1.16470588 3.2800173,1.10916955 L3.2800173,1.64792388 C3.36189446,1.59238754 3.48334775,1.54230104 3.59805363,1.53049308 C3.58624567,1.64519896 3.53615917,1.94623702 3.48062284,2.02811419 L4.01937716,2.02811419 C3.96384083,1.94623702 3.91375433,1.64519896 3.90194637,1.53049308 Z" id="Stroke-14" stroke="#000000" stroke-width="0.125"></path>
                                            <path d="M3.75,3.08434256 C3.86613322,3.08434256 4.02145329,3.2532872 3.90947232,3.48555363 C4.29848616,3.32452422 4.22063149,3.96358131 3.90947232,3.76012111 C3.88352076,3.95553633 4.12032872,4.12629758 4.35376298,4.16846886 C4.69528547,4.23023356 4.87045848,3.94658304 4.84359862,3.88092561 C4.51453287,3.95371972 4.58719723,3.39083045 4.93871107,3.58403979 C4.89147924,3.44935121 4.96128893,3.31725779 5.13360727,3.30596886 C5.29204152,3.37474048 5.31306228,3.5225346 5.22339965,3.63347751 C5.61942042,3.57015571 5.49796713,4.12461073 5.21275952,3.94502595 C5.16526817,3.99783737 5.18641869,4.21427336 5.43983564,4.30938581 C5.64939446,4.38801903 5.85700692,4.25657439 5.86764706,4.0982699 C5.73555363,4.07698962 5.66392734,3.9516436 5.73555363,3.82889273 C5.80951557,3.70211938 5.96794983,3.7549308 6.0049308,3.82357266 C6.01025087,3.62815744 5.94679931,3.5225346 6.01557093,3.36410035 C6.09472318,3.42223183 6.25315744,3.55951557 6.32698962,3.61764706 C6.40640138,3.6799308 6.35086505,3.76284602 6.1924308,3.95294118 C6.28481834,4.06647924 6.14221453,4.24074394 6.04191176,4.19844291 C5.98910035,4.35700692 5.95743945,4.55761246 5.86232699,4.56293253 C5.87283737,4.71072664 5.84390138,5.02759516 5.73827855,5.20717993 C5.96535467,5.31812284 5.7725346,5.69831315 5.61410035,5.62967128 C5.32785467,5.50562284 4.46820934,5.43957612 3.75,5.43957612 C3.03179066,5.43957612 2.17214533,5.50562284 1.8857699,5.62967128 C1.7274654,5.69831315 1.53464533,5.31812284 1.76172145,5.20717993 C1.65609862,5.02759516 1.62703287,4.71072664 1.63767301,4.56293253 C1.54256055,4.55761246 1.51089965,4.35700692 1.45808824,4.19844291 C1.35778547,4.24074394 1.21518166,4.06647924 1.3075692,3.95294118 C1.14913495,3.76284602 1.09359862,3.6799308 1.17288062,3.61764706 C1.24684256,3.55951557 1.40527682,3.42223183 1.48455882,3.36410035 C1.55307093,3.5225346 1.48974913,3.62815744 1.4950692,3.82357266 C1.53205017,3.7549308 1.69048443,3.70211938 1.76431661,3.82889273 C1.83607266,3.9516436 1.76431661,4.07698962 1.63235294,4.0982699 C1.64286332,4.25657439 1.85060554,4.38801903 2.06016436,4.30938581 C2.31358131,4.21427336 2.33473183,3.99783737 2.28724048,3.94502595 C2.00203287,4.12461073 1.88057958,3.57015571 2.27660035,3.63347751 C2.18680796,3.5225346 2.20795848,3.37474048 2.36639273,3.30596886 C2.53871107,3.31725779 2.608391,3.44935121 2.56128893,3.58403979 C2.91280277,3.39083045 2.98546713,3.95371972 2.65640138,3.88092561 C2.62954152,3.94658304 2.80471453,4.23023356 3.14623702,4.16846886 C3.37980104,4.12629758 3.61634948,3.95553633 3.59052768,3.76012111 C3.27936851,3.96358131 3.20151384,3.32452422 3.59052768,3.48555363 C3.47854671,3.2532872 3.63386678,3.08434256 3.75,3.08434256" id="Fill-15" fill="#F2C500"></path>
                                            <path d="M3.75,3.08434256 C3.86613322,3.08434256 4.02145329,3.2532872 3.90947232,3.48555363 C4.29848616,3.32452422 4.22063149,3.96358131 3.90947232,3.76012111 C3.88352076,3.95553633 4.12032872,4.12629758 4.35376298,4.16846886 C4.69528547,4.23023356 4.87045848,3.94658304 4.84359862,3.88092561 C4.51453287,3.95371972 4.58719723,3.39083045 4.93871107,3.58403979 C4.89147924,3.44935121 4.96128893,3.31725779 5.13360727,3.30596886 C5.29204152,3.37474048 5.31306228,3.5225346 5.22339965,3.63347751 C5.61942042,3.57015571 5.49796713,4.12461073 5.21275952,3.94502595 C5.16526817,3.99783737 5.18641869,4.21427336 5.43983564,4.30938581 C5.64939446,4.38801903 5.85700692,4.25657439 5.86764706,4.0982699 C5.73555363,4.07698962 5.66392734,3.9516436 5.73555363,3.82889273 C5.80951557,3.70211938 5.96794983,3.7549308 6.0049308,3.82357266 C6.01025087,3.62815744 5.94679931,3.5225346 6.01557093,3.36410035 C6.09472318,3.42223183 6.25315744,3.55951557 6.32698962,3.61764706 C6.40640138,3.6799308 6.35086505,3.76284602 6.1924308,3.95294118 C6.28481834,4.06647924 6.14221453,4.24074394 6.04191176,4.19844291 C5.98910035,4.35700692 5.95743945,4.55761246 5.86232699,4.56293253 C5.87283737,4.71072664 5.84390138,5.02759516 5.73827855,5.20717993 C5.96535467,5.31812284 5.7725346,5.69831315 5.61410035,5.62967128 C5.32785467,5.50562284 4.46820934,5.43957612 3.75,5.43957612 C3.03179066,5.43957612 2.17214533,5.50562284 1.8857699,5.62967128 C1.7274654,5.69831315 1.53464533,5.31812284 1.76172145,5.20717993 C1.65609862,5.02759516 1.62703287,4.71072664 1.63767301,4.56293253 C1.54256055,4.55761246 1.51089965,4.35700692 1.45808824,4.19844291 C1.35778547,4.24074394 1.21518166,4.06647924 1.3075692,3.95294118 C1.14913495,3.76284602 1.09359862,3.6799308 1.17288062,3.61764706 C1.24684256,3.55951557 1.40527682,3.42223183 1.48455882,3.36410035 C1.55307093,3.5225346 1.48974913,3.62815744 1.4950692,3.82357266 C1.53205017,3.7549308 1.69048443,3.70211938 1.76431661,3.82889273 C1.83607266,3.9516436 1.76431661,4.07698962 1.63235294,4.0982699 C1.64286332,4.25657439 1.85060554,4.38801903 2.06016436,4.30938581 C2.31358131,4.21427336 2.33473183,3.99783737 2.28724048,3.94502595 C2.00203287,4.12461073 1.88057958,3.57015571 2.27660035,3.63347751 C2.18680796,3.5225346 2.20795848,3.37474048 2.36639273,3.30596886 C2.53871107,3.31725779 2.608391,3.44935121 2.56128893,3.58403979 C2.91280277,3.39083045 2.98546713,3.95371972 2.65640138,3.88092561 C2.62954152,3.94658304 2.80471453,4.23023356 3.14623702,4.16846886 C3.37980104,4.12629758 3.61634948,3.95553633 3.59052768,3.76012111 C3.27936851,3.96358131 3.20151384,3.32452422 3.59052768,3.48555363 C3.47854671,3.2532872 3.63386678,3.08434256 3.75,3.08434256 Z" id="Stroke-16" stroke="#000000" stroke-width="0.125"></path>
                                            <path d="M3.75,2.22871972 C4.79558824,2.22871972 5.99701557,2.8782872 6.48282872,3.32192907 C6.6175173,3.45129758 6.42742215,3.72846021 6.30155709,3.61492215 C5.82703287,3.17141003 4.77119377,2.57724913 3.75,2.57724913 C2.72880623,2.57724913 1.67296713,3.17141003 1.19844291,3.61492215 C1.07257785,3.72846021 0.882482699,3.45129758 1.01717128,3.32192907 C1.50298443,2.8782872 2.70441176,2.22871972 3.75,2.22871972" id="Fill-19" fill="#F2C500"></path>
                                            <path d="M3.75,2.22871972 C4.79558824,2.22871972 5.99701557,2.8782872 6.48282872,3.32192907 C6.6175173,3.45129758 6.42742215,3.72846021 6.30155709,3.61492215 C5.82703287,3.17141003 4.77119377,2.57724913 3.75,2.57724913 C2.72880623,2.57724913 1.67296713,3.17141003 1.19844291,3.61492215 C1.07257785,3.72846021 0.882482699,3.45129758 1.01717128,3.32192907 C1.50298443,2.8782872 2.70441176,2.22871972 3.75,2.22871972 Z" id="Stroke-20" stroke="#000000" stroke-width="0.125"></path>
                                        </g>
                                    </g>
                                </g>
                            </g>
                        </g>
                    </g>
                </g>
            </g>
        </g>
    </g>
</svg>