<svg xmlns="http://www.w3.org/2000/svg" width="16" height="16" viewBox="0 0 16 16">
    <g fill="none" fill-rule="evenodd">
        <path fill="#FFF" d="M4 1.07A7.997 7.997 0 0 0 0 8a7.997 7.997 0 0 0 4 6.93V1.07z"/>
        <path fill="#1AAF5D" d="M4 1.07a8 8 0 1 1 0 13.86V1.07z"/>
        <path fill="#FFF" d="M13.023 10.454a4.222 4.222 0 1 1-5.068-6.596 4.222 4.222 0 0 0 5.068 6.596s-.585.306 0 0zM11.87 6.152l-.854.461.164-.977-.691-.693.954-.142.427-.89.427.89.954.142-.69.693.163.977-.854-.461z"/>
    </g>
</svg>
