<svg xmlns="http://www.w3.org/2000/svg" width="16" height="16" viewBox="0 0 16 16">
    <g fill="none" fill-rule="evenodd">
        <circle cx="8" cy="8" r="8" fill="#FFF"/>
        <path fill="#00207F" d="M2.82 1.967L11.469 8H16c0-4.418-3.562-8-7.956-8A7.9 7.9 0 0 0 2.82 1.967s1.397-1.225 0 0z"/>
        <path fill="#E94B35" d="M2.82 14.033L11.469 8H16c0 4.115-3.09 7.505-7.065 7.95l-1.694.01a7.901 7.901 0 0 1-4.421-1.927s1.208 1.06 0 0z"/>
        <path fill="#F2C500" d="M5.614 7.202l1.066-.84.045-.446-.445.044-.844 1.079a1.202 1.202 0 0 0-.098-.067l.772-1.008-.236-.028-.628.986a1.2 1.2 0 0 0-1.544 1.717l-.058-.058-.995.634.028.237 1.036-.795c.013.02.027.04.041.058l-1.082.854-.045.445.445-.045.843-1.077c.131.118.289.208.463.259l-.251 1.131.187.147.165-1.253.071.012-.157 1.328.283.347.283-.347-.16-1.32c.02 0 .042-.003.063-.005l.163 1.24.187-.147-.246-1.11c.126-.027.245-.073.353-.136l.607.954.237-.029-.754-.983.057-.043.814 1.032.445.045-.045-.445-1.034-.81c.023-.027.044-.056.065-.086l1.025.786.028-.237-.995-.633-.014.013c.06-.102.105-.215.132-.333l1.106.245.147-.187-1.234-.163.008-.071 1.313.155.347-.283-.347-.284-1.32.162a1.195 1.195 0 0 0-.022-.121l1.268-.167-.147-.188-1.15.255c-.032-.1-.079-.195-.136-.282l.983-.625-.029-.237-1.014.778a1.206 1.206 0 0 0-.046-.054s.016.018 0 0zm-.938-2.135l.283.347-.164 1.384h-.233l-.17-1.384.284-.347zm.362.433l.187.148-.255 1.151h-.103l.17-1.299zM4.327 5.5l-.187.147.255 1.152h.103l-.171-1.3zm-2.55 2.466l.348-.284 1.384.165v.233l-1.384.17-.347-.284zm.85-2.05l.445.045.863 1.095-.165.165-1.098-.859-.045-.445zM2.21 7.604l.148-.187 1.151.255v.103l-1.299-.17zm.978-1.637l.237-.028.633.995-.072.073-.798-1.04zm-.512.568l-.029.237.995.634.073-.073-1.04-.798zm-.478 1.86l.147.187 1.152-.255v-.103l-1.3.171zm.972 1.587l.236.028.634-.995-.073-.073-.797 1.04zm-.277-6.59l-.264.226-.025-.324-.304-.154.327-.135.076-.322.227.24.35-.045-.186.284.14.294-.341-.065zm7.035 4.898l-.313.151.06-.32-.254-.227.35-.046.157-.291.157.29.35.047-.253.227.06.32-.314-.151zM2.977 13.13l-.18.297-.125-.3-.336-.053.269-.23-.028-.33.29.16.32-.152-.09.328.225.236-.345.044z"/>
    </g>
</svg>
