<svg xmlns="http://www.w3.org/2000/svg" width="16" height="16" viewBox="0 0 16 16">
    <g fill="none" fill-rule="evenodd">
        <circle cx="8" cy="8" r="8" fill="#E94B35"/>
        <path fill="#1AAF5D" d="M5.333.455a8.003 8.003 0 0 0 0 15.09V.455z"/>
        <path fill="#FF0" d="M7.743 9.911c-.93-.028-5.197-2.692-5.227-3.116l.236-.393c.423.615 4.786 3.206 5.214 3.114l-.223.395"/>
        <path fill="#FF0" d="M2.702 6.349c-.083.225 1.114.965 2.554 1.84 1.44.876 2.682 1.418 2.774 1.34.006-.01.045-.078.042-.078-.018.026-.06.035-.125.016-.39-.113-1.404-.578-2.66-1.34-1.257-.763-2.35-1.465-2.52-1.763a.18.18 0 0 1-.02-.088h-.003l-.037.063-.005.01zm5.063 3.574c-.016.029-.045.03-.1.023-.349-.038-1.405-.552-2.655-1.3-1.454-.87-2.655-1.664-2.525-1.87l.036-.064.007.003c-.117.35 2.37 1.773 2.516 1.864 1.44.892 2.653 1.412 2.76 1.277l-.039.067z"/>
        <path stroke="#000" stroke-width=".1" d="M2.702 6.349c-.083.225 1.114.965 2.554 1.84 1.44.876 2.682 1.418 2.774 1.34.006-.01.045-.078.042-.078-.018.026-.06.035-.125.016-.39-.113-1.404-.578-2.66-1.34-1.257-.763-2.35-1.465-2.52-1.763a.18.18 0 0 1-.02-.088h-.003l-.037.063-.005.01zm5.063 3.574c-.016.029-.045.03-.1.024-.349-.039-1.405-.552-2.655-1.3-1.454-.871-2.655-1.664-2.525-1.871l.036-.063.007.002c-.118.351 2.37 1.774 2.516 1.864 1.44.892 2.653 1.413 2.76 1.277l-.039.068z"/>
        <path fill="#FF0" d="M5.339 7.052c.931-.007 2.08-.127 2.742-.39l-.143-.232c-.39.216-1.546.358-2.607.38-1.255-.012-2.14-.129-2.585-.426l-.134.246c.816.345 1.652.419 2.727.422"/>
        <path fill="#FF0" d="M8.12 6.667c-.024.036-.455.185-1.09.294-.431.066-.993.122-1.695.123-.666 0-1.21-.047-1.623-.103-.667-.104-1.011-.25-1.138-.301l.031-.064c.367.146.713.234 1.118.296.41.056.947.104 1.61.103.698 0 1.254-.061 1.683-.125.651-.105 1.007-.24 1.057-.303l.046.08zm-.126-.235c-.07.056-.423.181-1.042.28a11.2 11.2 0 0 1-1.61.113 10.84 10.84 0 0 1-1.555-.1c-.629-.082-.963-.23-1.084-.274l.037-.062c.094.048.417.179 1.054.27.392.055.914.096 1.548.095.669 0 1.188-.054 1.599-.113.622-.086.957-.245 1.008-.285l.045.076z"/>
        <path stroke="#000" stroke-width=".1" d="M8.12 6.667c-.024.036-.455.185-1.09.294-.431.066-.993.122-1.695.123-.666 0-1.21-.047-1.623-.103-.667-.104-1.01-.25-1.138-.301l.032-.064c.366.146.712.234 1.117.296.41.056.947.104 1.61.103.698 0 1.254-.061 1.683-.125.651-.105 1.007-.24 1.057-.303l.046.08zm-.126-.235c-.07.056-.422.181-1.042.28-.413.06-.938.112-1.61.113-.637 0-1.158-.042-1.555-.1-.628-.082-.963-.23-1.084-.274a3.41 3.41 0 0 1 .037-.062c.094.048.417.179 1.054.27.392.055.914.096 1.548.095.669 0 1.188-.054 1.599-.113.622-.086.957-.245 1.008-.285l.045.076z"/>
        <path fill="#FF0" d="M2.28 8.174c.573.308 1.845.464 3.05.474 1.096.002 2.524-.169 3.058-.452l-.015-.308c-.167.26-1.697.511-3.055.5-1.359-.01-2.62-.22-3.04-.49l.002.276"/>
        <path fill="#FF0" d="M8.417 8.13v.074c-.08.096-.583.24-1.214.343-.48.073-1.107.129-1.887.129-.742 0-1.333-.053-1.792-.123-.724-.106-1.188-.29-1.281-.346v-.086c.28.186 1.037.322 1.292.364.455.07 1.043.122 1.78.122.777 0 1.4-.055 1.877-.128.453-.066 1.098-.236 1.225-.349zm0-.262v.074c-.08.096-.583.241-1.214.343-.48.074-1.107.13-1.887.13-.742 0-1.333-.053-1.791-.124-.725-.105-1.189-.29-1.282-.345V7.86c.28.186 1.038.322 1.292.363.455.07 1.043.123 1.78.123.778 0 1.4-.056 1.878-.129.453-.065 1.098-.235 1.225-.349z"/>
        <path stroke="#000" stroke-width=".1" d="M8.417 8.13v.074c-.08.096-.583.24-1.214.343-.48.073-1.107.129-1.887.129-.742 0-1.333-.053-1.792-.123-.724-.106-1.188-.29-1.281-.346v-.086c.28.186 1.037.322 1.292.364.455.07 1.043.122 1.78.122.777 0 1.4-.055 1.877-.128.453-.066 1.098-.236 1.225-.349zm0-.262v.074c-.08.096-.583.24-1.214.343-.48.074-1.107.13-1.887.13-.742 0-1.333-.054-1.791-.124-.725-.105-1.189-.29-1.282-.345V7.86c.28.186 1.038.322 1.292.363.455.07 1.043.123 1.78.123.778 0 1.4-.056 1.878-.129.453-.065 1.098-.235 1.225-.349z"/>
        <path fill="#FF0" d="M5.327 9.858c-1.318-.008-2.447-.36-2.685-.417l.174.272c.421.177 1.522.441 2.524.412 1-.03 1.876-.107 2.492-.407l.179-.282c-.42.198-1.85.42-2.684.422"/>
        <path fill="#FF0" d="M7.9 9.655l-.08.118c-.292.102-.75.21-.943.241a8.528 8.528 0 0 1-1.549.142c-1.167-.017-2.122-.246-2.572-.44l-.036-.063.006-.01.061.025c.8.286 1.697.4 2.548.42a8.682 8.682 0 0 0 1.518-.14c.67-.134.942-.236 1.025-.281l.021-.012zm.154-.255l.002.002-.06.1a6.552 6.552 0 0 1-1.191.265c-.406.055-.657.109-1.463.125-1.51-.039-2.487-.334-2.72-.407l-.034-.066c.875.228 1.769.388 2.754.404.737-.015 1.05-.07 1.452-.124.717-.112 1.078-.23 1.187-.264a.085.085 0 0 0-.005-.006l.078-.03z"/>
        <path stroke="#000" stroke-width=".1" d="M7.9 9.655a4.13 4.13 0 0 1-.08.118c-.292.102-.75.21-.943.241a8.535 8.535 0 0 1-1.549.142c-1.167-.017-2.122-.245-2.572-.44l-.036-.063.006-.01.061.025c.8.286 1.697.4 2.548.42a8.683 8.683 0 0 0 1.518-.14c.67-.134.942-.235 1.025-.281l.021-.012zm.154-.255l.002.002-.06.1a6.555 6.555 0 0 1-1.191.265c-.406.055-.657.109-1.463.125-1.51-.039-2.487-.334-2.72-.407l-.034-.066c.875.229 1.769.388 2.754.404.737-.015 1.05-.07 1.453-.124.716-.112 1.077-.23 1.186-.264a.082.082 0 0 0-.005-.006l.078-.03z"/>
        <path fill="#FF0" d="M8.07 7.931c.004.867-.44 1.644-.797 1.988a2.867 2.867 0 0 1-1.958.812c-.874.016-1.698-.554-1.919-.804-.432-.49-.784-1.111-.795-1.948.053-.946.425-1.605.963-2.057a2.878 2.878 0 0 1 1.852-.656c.689.018 1.493.356 2.049 1.026.364.44.522.917.605 1.639 0 0-.083-.722 0 0zM5.322 4.963c1.679 0 3.059 1.366 3.059 3.04 0 1.675-1.38 3.041-3.059 3.041a3.05 3.05 0 0 1-3.047-3.04 3.05 3.05 0 0 1 3.047-3.04z"/>
        <path stroke="#000" stroke-width=".1" d="M8.38 8.003c0 1.68-1.37 3.05-3.05 3.05-1.68 0-3.05-1.37-3.05-3.05 0-1.68 1.37-3.05 3.05-3.05 1.68 0 3.05 1.37 3.05 3.05zm-.067 0a2.995 2.995 0 0 1-2.982 2.983 2.995 2.995 0 0 1-2.983-2.983A2.995 2.995 0 0 1 5.33 5.02a2.995 2.995 0 0 1 2.982 2.983z"/>
        <path stroke="#000" stroke-width=".1" d="M8.127 8a2.805 2.805 0 0 1-2.794 2.794A2.805 2.805 0 0 1 2.539 8a2.805 2.805 0 0 1 2.794-2.794A2.805 2.805 0 0 1 8.127 8zM8.06 8c0 1.5-1.232 2.727-2.727 2.727A2.738 2.738 0 0 1 2.606 8c0-1.5 1.232-2.726 2.727-2.726A2.738 2.738 0 0 1 8.06 8z"/>
        <path fill="#FF0" d="M2.27 7.873c.382-.352 1.793-.58 3.045-.574 1.252.006 2.735.263 3.057.567l.004.262c-.27-.254-1.422-.557-3.058-.56-1.636-.004-2.824.308-3.048.567v-.262"/>
        <path fill="#FF0" d="M5.332 7.53c.72 0 1.419.07 1.973.177.572.114.975.257 1.112.418v.08c-.166-.2-.707-.347-1.125-.43a10.505 10.505 0 0 0-1.96-.175 10.91 10.91 0 0 0-2.002.178c-.435.087-1.015.258-1.087.427v-.083c.04-.117.471-.292 1.077-.413a10.962 10.962 0 0 1 2.012-.178zm0-.26c.72-.002 1.42.068 1.974.175.571.115.974.258 1.112.419v.079c-.167-.2-.708-.346-1.125-.43a10.505 10.505 0 0 0-1.96-.175c-.757.001-1.457.073-2 .179-.419.08-1.023.258-1.09.427V7.86c.04-.116.48-.297 1.078-.413a10.962 10.962 0 0 1 2.011-.179z"/>
        <path stroke="#000" stroke-width=".1" d="M7.305 7.707c.572.114.975.257 1.112.418v.08c-.166-.2-.707-.347-1.125-.43a10.513 10.513 0 0 0-1.96-.175 10.91 10.91 0 0 0-2.002.178c-.435.087-1.015.258-1.087.427v-.083c.04-.117.471-.292 1.077-.413a10.958 10.958 0 0 1 2.012-.178c.72-.001 1.419.068 1.973.176zm0-.262c.572.115.975.258 1.113.418v.08c-.166-.2-.708-.346-1.125-.43a10.504 10.504 0 0 0-1.96-.175c-.757.001-1.457.073-2 .179-.419.08-1.023.258-1.09.427V7.86c.04-.116.48-.297 1.078-.413a10.962 10.962 0 0 1 2.011-.179c.72-.001 1.42.069 1.974.176z"/>
        <path fill="#FF0" d="M7.895 6.326l.166.286c-.394-.213-1.462-.433-2.742-.4-1.043.006-2.157.115-2.716.413l.197-.33c.459-.238 1.541-.359 2.517-.36 1.135-.006 2.125.159 2.578.39z"/>
        <path fill="#FF0" d="M5.332 6.17c.648 0 1.273.036 1.77.125.464.087.906.216.97.286l.048.086c-.154-.1-.536-.212-1.027-.305-.493-.092-1.118-.123-1.762-.121-.73-.003-1.298.036-1.785.12-.516.097-.873.235-.961.3l.048-.091c.171-.088.443-.193.9-.275.504-.092 1.077-.12 1.8-.124zm0-.26c.62-.002 1.231.032 1.708.118.376.073.748.188.884.29l.072.113c-.122-.135-.58-.263-.985-.335-.473-.082-1.06-.114-1.679-.12-.65.002-1.251.042-1.717.127-.445.085-.732.185-.854.263l.063-.095c.168-.088.439-.169.78-.235.47-.086 1.074-.125 1.728-.126z"/>
        <path stroke="#000" stroke-width=".1" d="M7.103 6.295c.463.087.905.216.968.286l.05.086c-.154-.1-.537-.212-1.028-.305C6.6 6.27 5.975 6.24 5.331 6.24c-.73-.002-1.298.037-1.785.121-.516.097-.873.235-.961.3l.048-.091c.171-.088.443-.193.9-.275.504-.093 1.077-.12 1.8-.124.647-.002 1.272.035 1.77.124zm-.063-.267c.376.073.748.188.884.29l.072.113c-.122-.135-.58-.263-.985-.335-.473-.082-1.06-.114-1.679-.12-.65.002-1.25.042-1.717.127-.445.085-.732.185-.854.263l.063-.095c.168-.088.439-.169.78-.235.47-.086 1.074-.125 1.728-.126.62-.002 1.231.032 1.708.118z"/>
        <path fill="#FF0" d="M6.847 9.27a7.961 7.961 0 0 0-1.516-.114c-1.891.022-2.502.388-2.577.499l-.141-.23c.481-.35 1.511-.545 2.729-.525.632.01 1.177.052 1.636.14l-.13.231"/>
        <path fill="#FF0" d="M5.32 9.123c.527.008 1.043.03 1.542.123l-.037.063a8.047 8.047 0 0 0-1.503-.115c-.698-.006-1.404.06-2.019.236-.194.054-.515.179-.548.282l-.035-.06c.01-.06.204-.187.567-.289.704-.201 1.362-.235 2.033-.24zm.024-.265c.545.01 1.108.036 1.656.144l-.038.066c-.494-.098-.966-.13-1.614-.14-.7 0-1.444.05-2.12.247-.217.064-.593.201-.606.31l-.036-.064c.008-.099.334-.227.627-.313.68-.198 1.426-.248 2.131-.25z"/>
        <path stroke="#000" stroke-width=".1" d="M5.32 9.123c.527.008 1.043.03 1.542.123l-.037.063a8.043 8.043 0 0 0-1.503-.115c-.698-.006-1.404.06-2.019.236-.194.054-.515.179-.547.282l-.036-.06c.01-.06.204-.187.567-.289.704-.201 1.363-.235 2.033-.24zm.024-.265c.545.01 1.108.036 1.656.144l-.038.066c-.494-.098-.966-.13-1.615-.14-.7 0-1.443.05-2.118.247-.218.064-.594.201-.607.31l-.036-.064c.008-.099.334-.227.627-.313.68-.198 1.426-.248 2.131-.25 0 0-.705.002 0 0z"/>
        <path fill="#FF0" d="M2.774 6.291c.937-.012 5.264 2.644 5.277 3.134l-.268.41c-.121-.567-4.512-3.153-5.237-3.104l.227-.44"/>
        <path fill="#FF0" d="M2.52 6.716c.173-.118 1.451.45 2.789 1.257 1.334.809 2.608 1.723 2.493 1.894l-.038.06-.017.013c.004-.003.023-.026-.002-.09-.057-.186-.96-.908-2.46-1.814C3.821 7.164 2.602 6.64 2.48 6.79l.038-.073zm5.558 2.739c.11-.217-1.076-1.11-2.546-1.98C4.03 6.623 2.945 6.12 2.747 6.27l-.044.08c0 .004.002-.006.01-.013.037-.031.097-.03.124-.03.34.005 1.314.453 2.68 1.236.598.349 2.528 1.586 2.52 1.934 0 .03.003.036-.009.051l.05-.074z"/>
        <path stroke="#000" stroke-width=".1" d="M5.309 7.973c1.334.809 2.608 1.723 2.493 1.894l-.038.06-.017.013c.004-.003.023-.026-.002-.09-.057-.187-.96-.908-2.46-1.814C3.821 7.164 2.602 6.64 2.48 6.79l.038-.074c.174-.118 1.452.452 2.79 1.258zm.223-.498C4.03 6.622 2.945 6.12 2.747 6.27l-.044.08c0 .005.002-.005.011-.012.036-.032.096-.03.123-.03.34.005 1.314.453 2.68 1.236.598.349 2.528 1.586 2.52 1.934 0 .03.003.036-.009.051l.05-.075c.11-.217-1.076-1.11-2.546-1.98z"/>
        <path fill="#FFF" d="M3.504 8.34c0 .5.205.954.537 1.285a1.82 1.82 0 0 0 1.288.541 1.829 1.829 0 0 0 1.832-1.825V5.9l-3.658-.004V8.34"/>
        <path stroke="#000" stroke-width=".1" d="M3.504 8.34c0 .5.205.954.537 1.285a1.82 1.82 0 0 0 1.288.541 1.829 1.829 0 0 0 1.832-1.825V5.9l-3.658-.004V8.34z"/>
        <path fill="#E94B35" d="M3.572 8.343c0 .48.198.917.517 1.233a1.755 1.755 0 0 0 2.477.003c.318-.316.515-.753.515-1.234V5.98H3.574l-.002 2.364zm2.804-.15l-.001.16a1.023 1.023 0 0 1-.308.737 1.037 1.037 0 0 1-1.475-.005 1.046 1.046 0 0 1-.309-.738V6.683l2.093.004v1.506z"/>
    </g>
</svg>
