<svg xmlns="http://www.w3.org/2000/svg" width="16" height="16" viewBox="0 0 16 16">
    <g fill="none" fill-rule="evenodd">
        <path fill="#E94B35" d="M8 16A8 8 0 1 0 8 0a8 8 0 0 0 0 16z"/>
        <path fill="#00207F" d="M0 8h8V0a8 8 0 0 0-8 8z"/>
        <path fill="#FFF" d="M4.753 2.737l-.341.18.065-.38-.276-.27.381-.055.17-.345.171.345.381.056-.276.268.066.38-.341-.18zM3.26 4.063l-.341.18.065-.38-.276-.27.381-.055.17-.345.171.345.382.056-.276.268.065.38-.341-.18zm2.9-.332l-.34.18.065-.38-.276-.269.38-.055.171-.346.17.346.382.055-.276.269.065.38-.34-.18zm-1.408 3.15l-.39.23.074-.488-.315-.346.436-.071.195-.444.194.444.436.071-.315.346.074.488-.39-.23zm.663-1.886l-.195.115.037-.244-.158-.173.218-.035.098-.222.097.222.218.035-.158.173.037.244-.194-.115z"/>
    </g>
</svg>
