<svg xmlns="http://www.w3.org/2000/svg" width="16" height="16" viewBox="0 0 16 16">
    <g fill="none" fill-rule="evenodd">
        <path fill="#FFF" d="M15.544 10.667H.455a8.003 8.003 0 0 0 15.09 0z"/>
        <path fill="#00207F" d="M.455 10.667h15.09A7.987 7.987 0 0 0 16 8c0-.935-.16-1.833-.456-2.667H.455A7.987 7.987 0 0 0 0 8c0 .935.16 1.833.455 2.667z"/>
        <path fill="#E94B35" d="M.455 5.333h15.09a8.003 8.003 0 0 0-15.09 0z"/>
        <path fill="#FFF" d="M2.667 9.437c0 .743.29 1.417.756 1.905a2.515 2.515 0 0 0 1.821.791c.71 0 1.355-.302 1.822-.79a2.75 2.75 0 0 0 .756-1.906V5.29H2.667v4.148z"/>
        <path fill="#E94B35" d="M2.756 9.418c0 .724.28 1.38.73 1.856.45.475 1.073.77 1.758.77.686 0 1.308-.295 1.759-.77.45-.476.73-1.132.73-1.856v-4.04H2.756v4.04z"/>
        <path fill="#FFF" d="M4.511 10.73c-.047.055-.082.177-.06.212.017.026.051.03.07.038l.014.003c-.062.19-.129.35-.216.48-.04.06-.069.179-.042.217.02.029.056.034.076.044l.043.013c.021.002.057.023.09.01.042-.018.049-.146.08-.213-.017.052-.06.19-.018.238.023.026.059.028.08.036l.043.008c.022 0 .056.011.087-.005.02-.01.03-.044.036-.084-.001.04.004.077.024.096.025.024.061.023.082.029l.045.004c.021-.002.057.006.086-.013.022-.015.032-.06.038-.11 0 .05.003.096.024.113.027.022.063.017.085.02h.044c.022-.003.058.002.085-.02.02-.017.025-.063.024-.113.006.05.016.095.038.11.03.02.065.011.086.013l.045-.004c.02-.006.057-.005.082-.029.02-.019.025-.055.024-.094.007.039.016.072.036.082.03.016.065.005.087.005l.044-.008c.02-.008.056-.01.08-.036.04-.048-.003-.186-.019-.238.031.067.038.195.08.212.033.014.069-.007.09-.01l.043-.012c.02-.01.056-.015.076-.044.027-.038-.002-.157-.042-.217a1.928 1.928 0 0 1-.213-.469c.024.003.045-.004.06-.005l.04-.01c.019-.007.053-.01.07-.037.022-.035-.013-.157-.06-.212a1.502 1.502 0 0 1-.212-.349.36.36 0 0 0-.054-.126c-.084-.206-.162-.452-.252-.735-.038-.154-.496-.077-.575.21-.015.05-.03.1-.043.15a1.82 1.82 0 0 1-.171.405c-.035.056-.06.177-.044.212.006.013.015.02.025.026a1.27 1.27 0 0 1-.14.207z"/>
        <path fill="#EDB92E" d="M3.209 10.602c.04.044.11.033.112-.02.003-.06.201-.136.231-.182-.036.09-.12.174-.162.262-.042.044-.069.055-.024.134-.01.055.013.117.076.173.024.022.035 0 .025-.026-.012-.03-.004-.068.016-.117.088-.01.103-.037.088-.109-.015-.076.047-.214.067-.253.02-.036.024-.074.042-.096.032-.04.184-.118.223-.096.071.04.126.015.135-.057a.021.021 0 0 1-.005-.007c.05-.026.093-.028.12-.007.017.013.034.003.019-.02-.052-.075-.11-.093-.162-.07-.005-.012-.014-.02-.027-.02-.04-.004-.065.008-.102.04-.059.05-.089.076-.108.07-.046-.012.083-.078.2-.237.162-.22.173-.333.165-.408-.046.002-.104.03-.272.18a2.493 2.493 0 0 1-.249.447.385.385 0 0 1-.09.05c-.028.01-.24.002-.245-.007-.04-.039-.095-.036-.122-.013-.05-.026-.101-.006-.135.077-.01.023.007.031.02.016.02-.024.05-.027.1 0 .009.035.048.076.082.048.042-.036.19-.002.24-.02-.02.046-.153.076-.246.083-.057.002-.073.042-.067.088-.02.03-.019.08.015.16.008.027.022.018.021-.004a.082.082 0 0 1 .019-.06z"/>
        <path fill="#FFF" d="M4.194 9.842a.304.304 0 0 1-.142.087.551.551 0 0 1 .027-.292c-.079.11-.201.14-.346.112.1-.09.179-.191.262-.383.066-.153.224-.188.288-.154l-.005.137.088.038.078.013c-.02.127-.023.257-.05.375a.34.34 0 0 1-.159.225.466.466 0 0 1-.04-.158z"/>
        <path fill="#FFF" d="M7.544 8.044c.037.297-.02.67-.099 1.162a2.51 2.51 0 0 0 .02.972c-.125-.018-.222-.094-.282-.23a.995.995 0 0 1-.07.214c-.11-.067-.17-.215-.197-.388a.572.572 0 0 1-.047.1c-.048-.04-.081-.109-.103-.193a.204.204 0 0 1-.007.013c-.127-.056-.183-.281-.193-.553a.423.423 0 0 1-.05.095.342.342 0 0 1-.115-.248 11.399 11.399 0 0 1-.008-.22.517.517 0 0 1-.078.248c.042.18.1.28.174.383a.503.503 0 0 1-.072-.006c.079.174.155.27.25.356-.145.028-.267-.001-.346-.112a.567.567 0 0 1 .027.292.304.304 0 0 1-.142-.087.466.466 0 0 1-.041.158.327.327 0 0 1-.145-.18.525.525 0 0 1-.074.091 1.07 1.07 0 0 0-.134-.45c-.076-.147-1.148-.147-1.224 0a1.07 1.07 0 0 0-.134.45c-.105-.104-.154-.225-.118-.358l.04-.148a.327.327 0 0 1-.205.193.57.57 0 0 1 .03-.346c-.06.1-.162.145-.29.147a.985.985 0 0 0 .175-.384.507.507 0 0 1-.079-.246L4 8.988a.342.342 0 0 1-.114.248.423.423 0 0 1-.05-.095c-.01.272-.067.497-.194.553a.204.204 0 0 1-.007-.013c-.022.084-.055.154-.103.192a.572.572 0 0 1-.047-.1c-.028.174-.086.322-.197.389a.995.995 0 0 1-.07-.213c-.06.135-.157.211-.282.229a2.51 2.51 0 0 0 .02-.972c-.079-.491-.136-.865-.099-1.162l.026-.01a1.436 1.436 0 0 1-.035-.32 6.335 6.335 0 0 1 .013-.64l-.016.006c.022-.137.04-.305.072-.505.084-.54.349-.988.668-1.029.32-.04.078.195.01.404-.047.195.087.436.356.748.095.11.204.3.315.381.018.013.163-.034.18-.058a.548.548 0 0 1-.071-.02.989.989 0 0 0 .316-.334c.114-.178-.05-.497-.116-.666a.798.798 0 0 1-.314-.468c-.017-.11.281-.07.486.029.25.12.285.087.374.108.032.157-.035.17-.099.162.138.227.196.453.223.777.028-.324.086-.55.224-.777-.064.008-.13-.005-.1-.162.09-.02.124.013.375-.108.205-.1.503-.14.486-.029a.797.797 0 0 1-.314.468c-.067.169-.23.488-.117.666.111.174.205.261.317.334a.55.55 0 0 1-.071.02c.017.024.162.07.18.058.111-.08.22-.27.315-.38.269-.313.403-.554.355-.749-.067-.21-.308-.445.01-.404.32.04.584.49.67 1.029.03.2.05.368.07.505a1.137 1.137 0 0 1-.107-.045c.022.25.02.477.016.679-.002.109-.01.203-.026.281l.017.05z"/>
        <path fill="#EDB92E" d="M7.191 10.602c-.04.044-.11.033-.112-.02-.003-.06-.201-.136-.231-.182.036.09.12.174.162.262.042.044.069.055.024.134.01.055-.013.117-.076.173-.024.022-.035 0-.025-.026.012-.03.004-.068-.016-.117-.088-.01-.103-.037-.088-.109.015-.076-.047-.214-.067-.253-.02-.036-.024-.074-.042-.096-.032-.04-.184-.118-.223-.096-.071.04-.126.015-.135-.057a.021.021 0 0 0 .005-.007c-.05-.026-.093-.028-.12-.007-.017.013-.034.003-.019-.02.052-.075.11-.093.162-.07.005-.012.014-.02.027-.02.04-.004.065.008.102.04.059.05.089.076.108.07.046-.012-.083-.078-.2-.237-.162-.22-.173-.333-.165-.408.046.002.104.03.272.18.073.156.147.312.249.447.034.023.062.04.09.05.028.01.24.002.245-.007.04-.039.095-.036.122-.013.05-.026.101-.006.135.077.01.023-.007.031-.02.016-.02-.024-.05-.027-.1 0-.009.035-.048.076-.082.048-.042-.036-.19-.002-.24-.02.02.046.153.076.246.083.057.002.073.042.067.088.02.03.019.08-.015.16-.008.027-.022.018-.021-.004a.082.082 0 0 0-.019-.06z"/>
        <path fill="#F2C500" d="M5.46 3.048a.106.106 0 0 0-.065-.033c-.054-.009-.183-.215-.183-.215l-.188.203c-.23.003-1.038.036-1.28.235-.27.053-.525.15-.674.257-.107.078.023.235.183.474.1.06.146.087.183.027-.028-.051-.005-.123.004-.14.005-.008-.009-.026-.015-.033-.192-.227-.196-.247-.063-.333.069-.044.188-.088.314-.126 0 .017.004.036.01.055.046.121.099.252.152.393.002.006.023.015.029.018.03.017.065.034.082.071.1.037.215.026.311-.018-.022-.04.007-.086.034-.113.019-.018.02-.017 0-.04-.159-.186-.264-.349-.202-.448.072-.115.399-.177.86-.173.009.152.038.3-.011.487-.021.081-.055.126-.022.142.085.04.123.076.11.095.025.04.087.033.183.02.096.013.158.02.183-.02-.014-.02.025-.055.11-.095.033-.016-.001-.06-.022-.142-.044-.168-.025-.306-.015-.443.471-.005.806.058.88.174.061.099-.044.262-.203.449-.02.022-.019.02 0 .039.027.027.056.072.034.112a.415.415 0 0 0 .311.019c.017-.037.053-.055.082-.071.006-.004.027-.012.03-.018.052-.141.105-.272.15-.393a.148.148 0 0 0 .008-.08c.12.038.23.08.296.121.133.086.13.106-.063.333-.006.007-.02.025-.015.034.009.016.032.088.003.14.038.059.085.031.183-.028.16-.24.29-.397.183-.474-.153-.112-.422-.211-.705-.262-.27-.158-.924-.193-1.182-.2z"/>
        <path fill="#FFF" d="M7.083 3.384a6.63 6.63 0 0 1-.006-.003.097.097 0 0 1-.064.024c-.05 0-.09-.035-.09-.079a.07.07 0 0 1 0-.01 14.891 14.891 0 0 0-.02-.009.097.097 0 0 1-.066.026c-.05 0-.09-.035-.09-.079a.07.07 0 0 1 0-.009c-.006-.001-.01-.002-.01 0a.095.095 0 0 1-.074.032.09.09 0 0 1-.084-.05h-.002v.007a.08.08 0 0 1-.042.068c.035.012.06.042.06.077 0 .045-.041.081-.093.081l-.006.007a.08.08 0 0 1 .043.068c0 .045-.041.08-.092.082a.075.075 0 0 1 .023.054c0 .045-.042.081-.093.081a.075.075 0 0 1 .021.052c0 .045-.042.081-.094.081-.051 0-.093-.036-.093-.081 0-.045.042-.082.093-.082a.075.075 0 0 1-.021-.051c0-.045.04-.08.092-.082a.075.075 0 0 1-.024-.054c0-.042.037-.077.085-.08.002-.01.003-.016.002-.017a.077.077 0 0 1-.03-.06.08.08 0 0 1 .043-.068c-.035-.011-.06-.041-.06-.076 0-.014.003-.026.01-.038a.107.107 0 0 1-.029.004c-.051 0-.093-.036-.093-.081v-.003a.098.098 0 0 1-.058.018c-.043 0-.079-.025-.088-.06a.276.276 0 0 1-.083.012c-.034 0-.074-.03-.096-.062a.094.094 0 0 1-.073.034.094.094 0 0 1-.076-.036.27.27 0 0 1-.109.023.094.094 0 0 1-.076-.036.205.205 0 0 1-.108.036c-.05 0-.09-.035-.09-.078s.04-.078.09-.078c.032 0 .08.014.108.036a.094.094 0 0 1 .076-.036c.032 0 .08.02.111.046a.094.094 0 0 1 .074-.034c.036 0 .067.019.081.046a.187.187 0 0 1 .088-.017c.037 0 .09.03.115.064a.099.099 0 0 1 .056-.017c.05 0 .09.036.09.079v.001a.102.102 0 0 1 .061-.02c.034 0 .063.015.08.038a.102.102 0 0 1 .034-.006c.05 0 .09.035.09.079 0 .004.003.01.006.017a.092.092 0 0 1 .081-.045c.029 0 .054.011.071.03a.697.697 0 0 0 .06.035.1.1 0 0 1 .043-.01c.05 0 .09.036.09.08a.07.07 0 0 1 0 .005l.02.012a.097.097 0 0 1 .066-.024c.05 0 .09.035.09.078a.07.07 0 0 1-.007.03l.004.003a.096.096 0 0 1 .068-.027c.05 0 .09.036.09.079l.016.05h.013c.05 0 .09.034.09.078a.075.075 0 0 1-.034.061.197.197 0 0 0-.02.035.071.071 0 0 1 .027.056c0 .042-.038.075-.087.075h-.01a27.35 27.35 0 0 1-.005.012.07.07 0 0 1 .024.053c0 .041-.039.075-.087.075H7.18a2.132 2.132 0 0 1-.01.016.07.07 0 0 1 .02.047c0 .042-.04.075-.088.075-.048 0-.087-.033-.087-.075 0-.042.04-.076.087-.076.016 0 .031.004.044.01l.002-.004c-.03-.012-.05-.038-.05-.068 0-.042.04-.076.087-.076a.1.1 0 0 1 .011 0l.004-.012a.07.07 0 0 1-.023-.052c0-.035.026-.064.062-.073.001-.007.002-.012 0-.013a.077.077 0 0 1-.042-.066c0-.02.009-.038.023-.052-.005-.005-.008-.008-.01-.007a.1.1 0 0 1-.042.01c-.05 0-.09-.036-.09-.08a.07.07 0 0 1 .005-.026zM3.323 3.381c.016.015.039.024.064.024.05 0 .09-.035.09-.079a.07.07 0 0 0 0-.01l.02-.009c.016.016.04.026.066.026.05 0 .09-.035.09-.079a.07.07 0 0 0 0-.009c.006-.001.01-.002.01 0 .017.019.044.032.074.032a.09.09 0 0 0 .084-.05l.001.007a.08.08 0 0 0 .043.068c-.035.012-.06.042-.06.077 0 .045.041.081.093.081l.006.007a.08.08 0 0 0-.043.068c0 .045.041.08.092.082a.075.075 0 0 0-.023.054c0 .045.042.081.093.081a.075.075 0 0 0-.021.052c0 .045.042.081.094.081.051 0 .093-.036.093-.081 0-.045-.042-.082-.093-.082a.075.075 0 0 0 .021-.051c0-.045-.04-.08-.092-.082a.075.075 0 0 0 .024-.054c0-.042-.037-.077-.085-.08-.002-.01-.003-.016-.002-.017a.077.077 0 0 0 .03-.06.08.08 0 0 0-.043-.068c.035-.011.06-.041.06-.076A.073.073 0 0 0 4 3.196a.107.107 0 0 0 .029.004c.051 0 .093-.036.093-.081a.12.12 0 0 0 .058.015c.043 0 .079-.025.088-.06a.276.276 0 0 0 .083.012c.034 0 .074-.03.096-.062.016.02.043.034.073.034.032 0 .06-.014.076-.036a.27.27 0 0 0 .109.023c.032 0 .06-.014.076-.036.029.022.076.036.108.036.05 0 .09-.035.09-.078s-.04-.078-.09-.078a.205.205 0 0 0-.108.036.094.094 0 0 0-.076-.036c-.032 0-.08.02-.111.046a.094.094 0 0 0-.074-.034.092.092 0 0 0-.081.046.187.187 0 0 0-.088-.017c-.037 0-.09.03-.115.064a.099.099 0 0 0-.056-.017c-.05 0-.09.036-.09.079a.111.111 0 0 0-.061-.019.098.098 0 0 0-.08.038.102.102 0 0 0-.034-.006c-.05 0-.09.035-.09.079 0 .004-.003.01-.006.017a.092.092 0 0 0-.081-.045.096.096 0 0 0-.071.03.697.697 0 0 1-.06.035.1.1 0 0 0-.043-.01c-.05 0-.09.036-.09.08a.07.07 0 0 0 0 .005 34.24 34.24 0 0 0-.02.012.097.097 0 0 0-.066-.024c-.05 0-.09.035-.09.078 0 .011.002.021.007.03a.126.126 0 0 0-.072-.024c-.05 0-.09.036-.09.079l-.016.05h-.013c-.05 0-.09.034-.09.078 0 .025.013.047.034.061.002.002.01.015.02.035a.071.071 0 0 0-.027.056c0 .042.038.075.087.075h.01l.005.012a.07.07 0 0 0-.024.053c0 .041.039.075.087.075.008.006.011.011.014.016a.07.07 0 0 0-.018.047c0 .042.039.075.087.075.048 0 .087-.033.087-.075 0-.042-.04-.076-.087-.076a.097.097 0 0 0-.044.01L3.252 3.9c.03-.012.05-.038.05-.068 0-.042-.04-.076-.087-.076a.1.1 0 0 0-.011 0 10.58 10.58 0 0 1-.004-.012.07.07 0 0 0 .023-.052c0-.035-.026-.064-.062-.073-.001-.007-.002-.012 0-.013a.077.077 0 0 0 .042-.066.073.073 0 0 0-.023-.052c.005-.005.008-.008.01-.007a.1.1 0 0 0 .042.01c.05 0 .09-.036.09-.08a.07.07 0 0 0-.005-.026l.006-.003z"/>
        <path fill="#F2C500" d="M6.92 4.375a.226.226 0 0 1-.05.091c-.158.176-.276.136-.28-.061-.208.213-.365.186-.393-.039-.174.283-.455.148-.46-.024-.077.25-.504.248-.53-.039-.028.287-.454.289-.531.04-.006.171-.286.306-.461.023-.028.225-.185.252-.393.039-.004.197-.122.237-.28.061a.225.225 0 0 1-.043-.07h-.004c-.037.012-.08-.022-.094-.076a.126.126 0 0 1 .002-.077.113.113 0 0 0-.019-.021c-.017-.016-.047-.03-.064-.05-.032-.039-.05-.076 0-.08.011 0 .023-.004.028-.015.004-.008.001-.01.004-.033a.086.086 0 0 1 .012-.035c.005-.008.014-.007.022-.01.008-.002.015-.007.024-.003a.081.081 0 0 1 .027.023c.014.017.013.021.02.026.01.006.022.002.033-.004.043-.024.047.018.04.068-.005.026-.022.055-.03.078a.119.119 0 0 0-.004.028.094.094 0 0 1 .009.008l-.002-.01c0-.008.01-.012.016-.032.007-.02.012-.058.021-.076.018-.035.039-.05.048.018a.105.105 0 0 0 .013.044c.005.007.006.004.02.013a.082.082 0 0 1 .023.025c.005.01.006.021.009.033.002.011.006.022.005.033a.086.086 0 0 1-.01.033c-.008.015-.01.012-.012.021a.106.106 0 0 0 .006.045c.02.065-.003.061-.035.038-.012-.009-.026-.029-.039-.045.094.169.174.156.19-.04-.024-.007-.014-.043-.041-.028-.014.007-.032-.014-.02-.026.03-.02.056-.016.082.005.013-.034.043-.05.08-.036.017.007.012.032-.005.03-.026-.002-.016.022-.024.038.187.214.283.189.26-.09a.1.1 0 0 1-.006-.006c-.005.006-.016.01-.027.028-.014.02-.028.058-.044.076-.033.035-.065.05-.066-.02 0-.017-.002-.034-.01-.044-.007-.008-.01-.004-.028-.014a.082.082 0 0 1-.028-.025c-.007-.01-.005-.022-.007-.034-.001-.011-.006-.023-.002-.034a.085.085 0 0 1 .02-.032c.015-.015.019-.013.023-.022.005-.011.003-.029-.002-.045-.017-.067.017-.062.058-.038.02.012.044.045.063.06.015.013.027.016.033.02a.104.104 0 0 1 .009-.013.104.104 0 0 0-.021-.022c-.022-.017-.06-.035-.079-.056-.037-.041-.052-.08.019-.08.018 0 .036-.003.045-.013.008-.008.004-.011.014-.033a.094.094 0 0 1 .026-.034c.01-.008.023-.006.034-.008.012-.002.024-.007.036-.002a.09.09 0 0 1 .033.025c.016.018.013.023.022.028.013.007.03.004.048 0 .068-.022.064.02.039.071-.012.025-.045.054-.061.076a.107.107 0 0 0-.014.028.1.1 0 0 1 .013.01l.006-.036c.006-.006.023-.005.045-.02.023-.016.051-.047.077-.058.051-.024.095-.027.074.04-.004.016-.007.033 0 .045.006.01.01.007.03.023.012.01.02.021.026.033.005.011 0 .022-.001.034-.002.012 0 .024-.008.033a.09.09 0 0 1-.034.025c-.023.01-.026.005-.034.013-.01.01-.013.027-.012.044.001.07-.04.054-.082.017-.022-.019-.041-.057-.059-.078a.109.109 0 0 0-.006-.006.103.103 0 0 1-.012.022c.169.293.29.302.388.034-.021-.014-.015-.049-.046-.038-.018.007-.032-.02-.017-.032.037-.027.076-.018.102.017.022-.037.06-.05.1-.028.017.01.006.038-.012.034-.036-.009-.02.032-.046.045.073.248.437.272.403-.07-.01.004-.024.008-.04.021-.023.019-.05.054-.076.069-.053.03-.1.04-.088-.029.003-.017.003-.034-.006-.045-.008-.009-.013-.005-.036-.018a.099.099 0 0 1-.034-.029c-.008-.01-.004-.023-.004-.034 0-.012-.004-.024.004-.034a.098.098 0 0 1 .034-.03c.023-.012.028-.009.036-.017.01-.011.01-.029.006-.046-.012-.068.035-.059.088-.028.027.015.053.05.076.068.019.015.035.02.043.024a.108.108 0 0 1 .012-.01.106.106 0 0 0-.02-.026c-.02-.02-.061-.043-.078-.067-.035-.046-.046-.087.032-.076.02.002.04.002.052-.006.01-.007.006-.01.02-.031a.098.098 0 0 1 .034-.03c.012-.007.026-.003.04-.003.012 0 .026-.004.038.003a.098.098 0 0 1 .033.03c.015.02.011.024.02.03.013.01.033.01.053.007.078-.011.067.03.033.076-.018.024-.058.047-.079.067a.106.106 0 0 0-.02.025.109.109 0 0 1 .01.009c.009-.004.023-.009.039-.022.023-.018.05-.053.076-.068.053-.03.1-.04.088.028-.003.017-.003.035.006.046.008.008.013.005.036.018a.098.098 0 0 1 .034.029c.008.01.004.022.004.034 0 .011.004.023-.004.034a.099.099 0 0 1-.034.03c-.023.012-.028.008-.036.017-.01.01-.01.028-.006.045.012.069-.035.06-.088.029-.027-.015-.053-.05-.076-.069a.13.13 0 0 0-.034-.019c-.032.34.33.315.404.068-.027-.013-.011-.054-.046-.045-.019.004-.03-.025-.012-.034.04-.023.078-.01.099.028.026-.035.066-.044.102-.017.016.011 0 .039-.017.032-.03-.011-.025.024-.046.038.098.268.22.259.389-.034a.104.104 0 0 1-.005-.008c-.008.004-.02.006-.037.018-.02.016-.046.048-.068.06-.046.024-.084.028-.065-.039.004-.016.007-.034 0-.046-.004-.009-.008-.006-.025-.021a.088.088 0 0 1-.023-.033c-.004-.012 0-.023.002-.034.002-.012 0-.024.008-.034a.085.085 0 0 1 .03-.025c.02-.01.023-.006.03-.013.01-.01.012-.027.012-.044 0-.07.035-.055.072-.019.019.018.035.056.05.077.013.017.025.022.03.028a.101.101 0 0 1 .012-.009.107.107 0 0 0-.014-.028c-.016-.022-.049-.05-.061-.076-.025-.05-.03-.092.04-.071.016.005.034.007.046 0 .01-.005.007-.01.022-.028a.09.09 0 0 1 .034-.025c.012-.005.023 0 .035.002.012.002.024 0 .035.008.01.009.019.02.025.034.01.022.007.026.014.034.01.01.028.012.046.012.07 0 .056.04.019.08-.019.021-.058.04-.08.056a.104.104 0 0 0-.02.023c.004.004.007.01.01.015.007-.003.017-.006.028-.016.019-.016.043-.047.064-.06.041-.023.076-.027.057.04-.005.016-.007.033-.002.045.004.01.008.006.022.022.01.01.016.02.02.032.003.012-.001.023-.003.035-.002.011 0 .023-.008.033a.082.082 0 0 1-.028.025c-.018.01-.02.006-.027.013-.009.01-.012.027-.012.044-.002.07-.033.055-.066.019-.016-.019-.03-.056-.043-.077-.01-.017-.021-.023-.026-.029h-.001c-.023.28.073.306.26.092-.008-.016.002-.04-.024-.037-.016.001-.022-.024-.006-.03.038-.015.068.001.08.035.027-.021.054-.024.084-.005.011.012-.007.033-.02.026-.027-.015-.018.021-.042.029.018.21.109.209.211-.002-.005.003-.013.006-.023.016-.015.014-.037.044-.053.055-.033.022-.057.024-.034-.04a.106.106 0 0 0 .01-.044c-.002-.01-.005-.007-.013-.022a.087.087 0 0 1-.008-.033c0-.012.005-.022.008-.033.003-.012.004-.023.01-.033a.082.082 0 0 1 .024-.023c.014-.01.015-.005.021-.012a.105.105 0 0 0 .015-.043c.013-.068.032-.052.049-.015.008.018.011.055.017.076.004.017.01.023.013.029a.094.094 0 0 1 .01-.009.12.12 0 0 0-.005-.027c-.007-.023-.023-.052-.027-.077-.007-.05-.003-.092.039-.069.01.006.022.01.031.003.007-.004.006-.009.02-.026a.081.081 0 0 1 .026-.023c.01-.004.016.001.023.004.008.002.016 0 .022.01.005.008.009.02.01.033.004.023 0 .026.004.034.005.01.016.013.028.014.047.003.03.04-.002.08-.016.019-.045.035-.062.05A.115.115 0 0 0 7 4.218a.129.129 0 0 1 .001.077c-.013.048-.047.08-.08.08zM5.336 2.347c0-.022-.02-.04-.045-.04 0-.022-.021-.04-.047-.04-.025 0-.046.018-.046.04-.025 0-.045.018-.045.04 0 .022.02.04.045.04v.083h-.082c0-.022-.02-.04-.046-.04-.025 0-.046.018-.046.04-.026 0-.046.018-.046.04 0 .022.02.04.046.04 0 .022.02.04.046.04.025 0 .045-.017.046-.039h.082v.276h-.193v.062h.478v-.062H5.29v-.276h.082c0 .022.021.039.046.039.025 0 .045-.018.046-.04.026 0 .046-.018.046-.04 0-.022-.02-.04-.046-.04 0-.022-.021-.04-.046-.04-.026 0-.046.018-.047.04h-.081v-.082c.025 0 .045-.019.045-.04z"/>
        <g>
            <g fill="#F2C500">
                <path d="M4.564 6.072l-.09-.077c-.098.014-.092-.008-.121-.048-.044-.059-.127-.013-.143.063-.009.044-.023.046-.065.004-.218-.221-.23-.378.004-.404.053-.104.195.003.178.063-.006.023.517.617.316.579-.092-.018-.188.04-.278.022-.015-.005-.02-.01-.048-.066a.29.29 0 0 0 .048-.002c-.196.003-.31-.062-.336-.194.078.095.171.143.277.116.143-.036.225-.062.257-.056h.001zM5.902 6.061l.09-.077c.099.014.092-.008.122-.048.044-.059.127-.013.142.063.01.044.024.046.065.003.219-.22.23-.377-.004-.403-.052-.104-.194.003-.178.063.007.023-.516.617-.315.579.091-.018.187.04.278.022.015-.005.02-.011.048-.066a.29.29 0 0 1-.048-.002c.196.003.31-.062.336-.194-.078.095-.171.143-.277.116-.143-.037-.225-.062-.258-.056z"/>
            </g>
            <path fill="#A4A4A4" d="M6.222 7.111v1.67c0 .3-.115.57-.3.767a.99.99 0 0 1-.722.319.99.99 0 0 1-.722-.319 1.116 1.116 0 0 1-.3-.766v-1.67h2.044z"/>
            <path fill="#C6363C" d="M6.178 7.156v1.616c0 .29-.11.552-.287.742a.942.942 0 0 1-.691.308.942.942 0 0 1-.69-.308 1.087 1.087 0 0 1-.288-.742V7.156h1.956z"/>
            <path fill="#FFF" d="M6.178 8.147v.417h-.774v1.235a.91.91 0 0 1-.407 0V8.564h-.775v-.417h.774v-.991h.408v.991h.774z"/>
        </g>
    </g>
</svg>
