<svg xmlns="http://www.w3.org/2000/svg" width="16" height="16" viewBox="0 0 16 16">
    <g fill="none" fill-rule="evenodd">
        <path fill="#FFF" d="M16 8A8 8 0 1 1 0 8h16z"/>
        <path fill="#E94B35" d="M16 8A8 8 0 1 0 0 8h16z"/>
        <path fill="#FFF" d="M8.797 2.701l-.363.197.07-.416-.295-.295.406-.06.182-.38.182.38.406.06-.294.295.07.416-.364-.197zm1.28.93l-.299-.284.417-.063.19-.37.183.367.416.056-.304.29.068.404-.371-.188-.374.194.074-.406zm-.489 1.505l.179-.372.188.377.41.066-.292.288.075.412-.369-.199-.364.19.064-.411-.3-.296.41-.055zm-1.582 0l.409.055-.3.296.064.41-.364-.189-.37.2.076-.413-.293-.288.411-.066.188-.377.179.372zm-.49-1.505l.075.406-.374-.194-.37.188.067-.405-.304-.29.416-.055.183-.367.19.37.417.063-.3.284zm.7 3.042c-.15.025-.304.038-.462.038-1.512 0-2.738-1.214-2.738-2.711 0-1.497 1.226-2.711 2.738-2.711.158 0 .312.013.462.038A2.72 2.72 0 0 0 5.941 4a2.72 2.72 0 0 0 2.275 2.673s-1.292-.218 0 0z"/>
    </g>
</svg>
