<svg xmlns="http://www.w3.org/2000/svg" width="16" height="16" viewBox="0 0 16 16">
    <g fill="none" fill-rule="evenodd">
        <path fill="#E94B35" d="M15.545 10.667a8.003 8.003 0 0 1-15.09 0h15.09z"/>
        <path fill="#00207F" d="M15.545 10.667A7.987 7.987 0 0 0 16 8c0-.935-.16-1.833-.455-2.667H.455A7.987 7.987 0 0 0 0 8c0 .935.16 1.833.455 2.667h15.09z"/>
        <path fill="#FFF" d="M15.545 5.333a8.003 8.003 0 0 0-15.09 0h15.09z"/>
        <path fill="#FFF" d="M2.311 7.808c0-2.129.105-3.097.105-3.097h5.413s.105.968.105 3.097c0 2.13-1.655 3.205-2.812 3.748-1.156-.543-2.81-1.619-2.81-3.748 0 0 0 2.13 0 0z"/>
        <path fill="#E94B35" d="M2.578 7.718c0-1.945.095-2.83.095-2.83h4.92s.095.885.095 2.83-1.504 2.928-2.555 3.423c-1.051-.495-2.555-1.478-2.555-3.423zm2.797-.525c.285.005.84.015 1.335-.146 0 0-.013.173-.013.374 0 .202.013.375.013.375-.454-.148-1.014-.151-1.335-.147v1.074h-.45V7.649c-.32-.004-.88-.001-1.334.147 0 0 .013-.173.013-.375 0-.201-.013-.374-.013-.374.495.161 1.05.15 1.335.146v-.675c-.26-.002-.634.01-1.056.149 0 0 .013-.173.013-.375s-.013-.375-.013-.375c.422.138.795.15 1.055.148a5.877 5.877 0 0 0-.14-.965s.26.02.366.02c.104 0 .366-.02.366-.02s-.127.538-.14.965c.259.003.632-.01 1.055-.148 0 0-.013.173-.013.375s.013.375.013.375a3.222 3.222 0 0 0-1.057-.149v.675z"/>
        <path fill="#00207F" d="M3.316 9.81s.259-.876.698-.876c.349 0 .476.281.476.281s.23-.593.657-.593c.428 0 .658.593.658.593s.127-.281.476-.281c.44 0 .666.876.666.876-.604.855-1.837 1.42-1.837 1.42s-1.32-.704-1.794-1.42z"/>
    </g>
</svg>
