<svg xmlns="http://www.w3.org/2000/svg" width="16" height="16" viewBox="0 0 16 16">
    <g fill="none" fill-rule="evenodd">
        <path fill="#E94B35" d="M15.545 10.667a8.003 8.003 0 0 1-15.09 0h15.09z"/>
        <path fill="#00207F" d="M15.545 10.667A7.987 7.987 0 0 0 16 8c0-.935-.16-1.833-.455-2.667H.455A7.987 7.987 0 0 0 0 8c0 .935.16 1.833.455 2.667h15.09z"/>
        <path fill="#FFF" d="M15.545 5.333a8.003 8.003 0 0 0-15.09 0h15.09z"/>
        <path fill="#00207F" d="M7.18 6.063l.198-2.934a5.698 5.698 0 0 0-4.89 0l.2 2.934a3.175 3.175 0 0 0 2.245 2.826A3.175 3.175 0 0 0 7.18 6.063"/>
        <path fill="#FFF" d="M3.466 7.286c.037.06.077.119.12.176a.596.596 0 0 0 .236-.084.59.59 0 0 1 .622 0 .59.59 0 0 0 .623 0 .59.59 0 0 1 .622 0 .59.59 0 0 0 .622 0v.042c.045-.062.087-.127.126-.193A.653.653 0 0 1 5.83 7.2a.654.654 0 0 0-.658 0 .654.654 0 0 1-.657 0 .654.654 0 0 0-.658 0 .654.654 0 0 1-.392.086zm-.114-.2a2.75 2.75 0 0 1-.24-.66l.91-1.203.365.481.546-1.082.547 1.082.364-.48.912 1.201a2.75 2.75 0 0 1-.267.71v-.113a.654.654 0 0 1-.658 0 .654.654 0 0 0-.658 0 .654.654 0 0 1-.657 0 .654.654 0 0 0-.658 0 .653.653 0 0 1-.506.064zm.353.526a2.8 2.8 0 0 0 1.228.832 2.8 2.8 0 0 0 1.218-.82.59.59 0 0 1-.462-.068.59.59 0 0 0-.622 0 .59.59 0 0 1-.623 0 .59.59 0 0 0-.622 0 .604.604 0 0 1-.117.056z"/>
        <path fill="#F2C500" d="M4.889 3.733l.04.117.138-.028-.096.09.096.088-.137-.027-.041.116-.041-.116L4.71 4l.096-.089-.096-.089.137.028.04-.117zm-.622-.8l.04.117.137-.028-.095.09.095.088-.136-.027-.041.116-.041-.116-.137.027.096-.089-.096-.089.137.028.04-.117zm1.333 0l.041.117.137-.028-.096.09.096.088-.137-.027-.041.116-.041-.116-.137.027.096-.089-.096-.089.137.028.041-.117z"/>
        <path fill="#E94B35" d="M2.66 3.022l.203 3.015a3.01 3.01 0 0 0 2.07 2.666 3.01 3.01 0 0 0 2.07-2.666l.203-3.015.172.079-.199 2.948a3.187 3.187 0 0 1-2.246 2.84 3.187 3.187 0 0 1-2.246-2.84L2.49 3.101a5.69 5.69 0 0 0 .171-.079"/>
    </g>
</svg>
