<svg xmlns="http://www.w3.org/2000/svg" width="16" height="16" viewBox="0 0 16 16">
    <g fill="none" fill-rule="evenodd">
        <ellipse cx="8" cy="8" fill="#FFF" rx="8" ry="8"/>
        <path fill="#1AAF5D" d="M.917 4.277L6.311 8 .917 11.723a8.037 8.037 0 0 0 2.387 2.754l5.956-3.9h6.315A7.99 7.99 0 0 0 16 8a7.99 7.99 0 0 0-.425-2.578H9.26l-5.956-3.9A8.037 8.037 0 0 0 .917 4.278z"/>
        <path fill="#F2C500" d="M.917 4.277L6.311 8 .917 11.723A7.965 7.965 0 0 1 0 8c0-1.344.331-2.61.917-3.723z"/>
        <path fill="#000" d="M.636 4.869L5.333 8 .636 11.131A7.975 7.975 0 0 1 0 8c0-1.111.227-2.17.636-3.131z"/>
        <path fill="#E94B35" d="M15.372 4.889h-6.07l-5.6-3.638a8.002 8.002 0 0 1 11.67 3.638z"/>
        <path fill="#00207F" d="M15.372 11.111h-6.07l-5.6 3.638a8.002 8.002 0 0 0 11.67-3.638z"/>
    </g>
</svg>
