<svg xmlns="http://www.w3.org/2000/svg" width="16" height="16" viewBox="0 0 16 16">
    <g fill="none" fill-rule="evenodd">
        <circle cx="8" cy="8" r="8" fill="#FFF" transform="matrix(1 0 0 -1 0 16)"/>
        <g transform="translate(2.4 3.644)">
            <path fill="#000" d="M.065 2.278l.369.248L1.925.316l-.368-.25L.065 2.279zm.516.348l.369.248L2.44.664l-.368-.25-1.49 2.212zm.516.348l.369.248 1.49-2.21-.368-.25-1.49 2.212zM1.557 8.644l.368-.248L.434 6.185l-.369.248 1.492 2.211zm.515-.348l.369-.248-.696-1.032-.368.249.695 1.031zm-.795-1.179l.369-.248L.95 5.837l-.369.249.696 1.031zm1.311.831l.369-.248-1.491-2.21-.369.248 1.491 2.21zM9.734 3.222l.369-.248-.696-1.032-.368.248.695 1.032zM8.94 2.043l.369-.249L8.612.763l-.369.248.696 1.032zm1.311.831l.369-.248L9.128.415l-.369.248 1.491 2.211zm.516-.348l.369-.248-.696-1.032-.369.248.696 1.032zm-.795-1.179l.368-.248L9.643.067l-.368.248.696 1.032zM11.135 6.433l-.369-.248-.696 1.032.369.248.696-1.032zm-.796 1.18l-.368-.249-.696 1.032.368.248.696-1.031zm.28-1.527l-.369-.249-.696 1.032.369.248.696-1.031zm-.796 1.179l-.368-.249-.696 1.032.369.248.695-1.031zm.28-1.527l-.369-.249-.695 1.032.368.248.696-1.031zm-.795 1.179l-.369-.249L8.243 7.7l.369.248.696-1.031z"/>
            <circle cx="5.6" cy="4.356" r="2.667" fill="#E94B35"/>
            <path fill="#00207F" d="M7.85 5.788c-.774 1.238-2.414 1.61-3.663.829-1.25-.78-1.634-2.417-.86-3.655a1.328 1.328 0 0 0 .43 1.827c.624.39 1.444.205 1.83-.414A1.328 1.328 0 0 1 7.42 3.96c.625.39.817 1.209.43 1.828 0 0 .387-.62 0 0z"/>
        </g>
    </g>
</svg>
