<svg xmlns="http://www.w3.org/2000/svg" width="16" height="16" viewBox="0 0 16 16">
    <g fill="none" fill-rule="evenodd">
        <path fill="#F2C500" d="M14.93 12A7.963 7.963 0 0 0 16 8c0-1.457-.39-2.823-1.07-4H1.07A7.963 7.963 0 0 0 0 8c0 1.457.39 2.823 1.07 4h13.86z"/>
        <path fill="#E94B35" d="M14.93 12A7.997 7.997 0 0 1 8 16a7.997 7.997 0 0 1-6.93-4h13.86zm0-8A7.997 7.997 0 0 0 8 0a7.997 7.997 0 0 0-6.93 4h13.86z"/>
        <path fill="#FFF" d="M3.462 11.206a.928.928 0 0 1-.529-.832v-3.53H6.91v3.53c0 .36-.21.676-.529.832-.431.21-.937.335-1.455.335a3.401 3.401 0 0 1-1.463-.335z"/>
        <path fill="#9C56B8" d="M6.145 7.423c.002.027-.009.05-.005.064.005.015.007.027.012.037.006.01.009.038.009.038l-.03-.022a.462.462 0 0 0-.024-.017l.005.04a.11.11 0 0 0 .02.05c.011.014.034.036.041.054.007.017.006.057.006.057s-.019-.03-.035-.035a.5.5 0 0 1-.05-.025s.032.031.032.061-.013.065-.013.065-.014-.028-.033-.045c-.018-.018-.044-.036-.044-.036s.02.046.02.078c0 .031-.006.098-.006.098s-.015-.026-.03-.038c-.017-.012-.035-.023-.041-.031-.006-.009.019.025.021.046.003.02.013.094.076.187.037.055.094.15.217.12.123-.032.077-.199.052-.277a.706.706 0 0 1-.038-.194c.002-.03.023-.12.02-.136a.335.335 0 0 1 .006-.13c.016-.054.029-.075.037-.097.009-.021.016-.034.019-.053a.51.51 0 0 0 .003-.055s.022.043.028.058c.006.015.006.06.006.06s.004-.045.038-.067c.035-.022.075-.045.085-.057a.083.083 0 0 0 .013-.021s-.003.077-.025.107a2.21 2.21 0 0 1-.07.083s.029-.01.049-.012h.034s-.024.02-.056.066c-.031.046-.018.05-.041.088-.023.039-.041.04-.07.063-.043.035-.02.174-.014.194.005.02.08.19.081.232.001.04.009.132-.063.191-.046.038-.121.039-.138.05-.018.01-.052.044-.052.116 0 .07.026.082.046.1.02.017.046.008.051.022.006.013.009.021.018.03.008.008.014.017.011.032-.003.015-.036.05-.047.074a.596.596 0 0 0-.034.099c0 .01-.003.04.007.055 0 0 .035.042.011.05-.016.005-.031-.01-.038-.008-.022.005-.033.019-.039.018-.014-.003-.014-.01-.016-.03-.001-.021 0-.03-.007-.03-.008 0-.013.008-.014.019-.002.01-.002.035-.011.035-.01 0-.025-.018-.033-.022-.009-.004-.033-.008-.035-.019-.001-.01.015-.034.03-.038.016-.004.03-.012.02-.02-.01-.009-.02-.009-.03 0-.01.008-.03 0-.03-.012.002-.012.005-.027.003-.034-.001-.006-.018-.02.004-.033.023-.012.033.011.056.007.023-.004.034-.012.043-.026.009-.013.007-.042-.009-.06-.015-.018-.031-.02-.037-.031-.006-.011-.014-.037-.014-.037s.004.048.001.055c-.002.006-.001.035-.001.035l-.029-.031a.204.204 0 0 1-.025-.055l-.002.053c0 .015.018.029.012.034-.006.006-.033-.028-.04-.034a.151.151 0 0 1-.04-.042c-.01-.02-.017-.047-.02-.056a.176.176 0 0 1-.003-.063l.019-.045h-.056c-.03 0-.052-.01-.063.01-.011.021-.006.062.009.116.014.053.022.079.018.088a.125.125 0 0 1-.03.036c-.007.004-.027.003-.036-.001a.102.102 0 0 0-.05-.011l-.054-.001c-.01-.003-.034-.016-.046-.013-.01.003-.03.013-.025.029.008.024-.009.03-.02.029-.012-.002-.021-.006-.036-.01-.014-.004-.036 0-.033-.016.003-.017.009-.018.016-.03.007-.013.01-.02.002-.022-.01 0-.02-.002-.028.005-.008.006-.02.02-.03.015-.01-.006-.018-.017-.018-.043 0-.026-.027-.048-.002-.047.024.001.056.02.061.005.006-.014.002-.02-.011-.03-.013-.012-.03-.018-.012-.032.018-.014.022-.014.029-.021.007-.008.016-.032.029-.026.024.012 0 .03.025.057.025.028.04.037.082.033.041-.004.052-.01.052-.021 0-.012-.003-.033-.004-.042-.001-.009.005-.04.005-.04s-.019.012-.024.024a.59.59 0 0 1-.017.032s-.004-.024-.003-.044c0-.011.005-.031.004-.035 0-.01-.009-.038-.009-.038s-.006.03-.01.038c-.005.008-.007.043-.007.043s-.027-.023-.02-.062c.006-.03-.004-.07.005-.083.009-.013.03-.065.081-.067.052-.002.092.002.11.001a1.45 1.45 0 0 0 .081-.013s-.117-.06-.144-.079a.394.394 0 0 1-.081-.086c-.014-.022-.026-.063-.026-.063s-.02 0-.04.011a.202.202 0 0 0-.049.04c-.011.013-.029.042-.029.042l.003-.05-.002-.034s-.013.051-.04.07c-.027.02-.058.047-.058.047l.003-.036c0-.006.007-.04.007-.04s-.019.03-.048.035c-.03.005-.072.004-.075.023-.003.018.008.042.001.055a.063.063 0 0 1-.02.021s-.018-.014-.032-.015c-.015 0-.028.007-.028.007s-.012-.016-.008-.027c.005-.01.027-.027.021-.033-.005-.006-.023.002-.034.008-.011.005-.035.01-.033-.008.003-.018.008-.029.003-.042-.006-.012-.003-.021.006-.024.01-.003.045 0 .048-.007.004-.01-.009-.02-.032-.025-.024-.005-.035-.02-.022-.031.012-.012.015-.015.02-.026.006-.01.009-.03.03-.02.02.01.016.033.039.04a.166.166 0 0 0 .086-.009l.059-.04c.012-.006.063-.045.063-.045s-.03-.02-.041-.032c-.011-.01-.031-.036-.04-.041a.342.342 0 0 0-.077-.026c-.017 0-.068-.019-.068-.019s.023-.008.031-.014.026-.022.035-.021h.01s-.047-.001-.057-.004c-.01-.004-.04-.022-.05-.022a.244.244 0 0 0-.034.004s.03-.019.055-.023.043-.003.043-.003-.037-.011-.046-.024c-.01-.013-.018-.032-.025-.04-.007-.009-.011-.023-.023-.024-.013-.001-.034.015-.046.014-.012-.001-.021-.009-.023-.027 0-.018 0-.012-.004-.021-.004-.01-.022-.032-.005-.037.016-.006.052.003.055-.004.004-.006-.019-.025-.033-.033-.015-.007-.038-.02-.026-.03.013-.011.025-.016.032-.025.006-.01.014-.037.029-.028.014.008.034.05.045.047.012-.003.012-.033.01-.046-.002-.013 0-.035.011-.033.012.002.02.017.038.018.018.001.045-.004.043.008a.101.101 0 0 1-.025.043.065.065 0 0 0-.01.06.157.157 0 0 0 .046.059c.018.012.051.02.072.034.022.014.07.053.088.058a.194.194 0 0 1 .033.013s.019-.009.045-.009c.025 0 .084.004.107-.005.022-.01.051-.026.042-.046-.009-.02-.058-.039-.053-.055.004-.016.022-.017.052-.018.03 0 .071.005.08-.037.007-.043.01-.068-.033-.077-.043-.01-.074-.01-.081-.042-.008-.03-.016-.038-.007-.047.009-.008.024-.013.056-.015.03-.002.066-.002.077-.01.01-.007.012-.027.024-.036.012-.008.06-.016.06-.016s.058.028.11.068c.049.036.092.09.092.09 0-.001 0 .028.003.055z"/>
        <path fill="#CA4638" stroke="#262626" stroke-width=".1" d="M2.933 9.076h1.988V6.844H2.933z"/>
        <path fill="#E94B35" d="M3.93 11.347c-.55 0-.997-.425-.997-.95V6.844h1.988V9.05h1.99v1.348s0 .95-.985.95-1.005-.95-1.005-.95c0 .525-.441.95-.991.95z"/>
        <path fill="#F2C500" d="M4.292 7.578v.584h.16v.314l-1.163.001v-.313h.165V7.58h-.076v-.29h.127l.038.026.002.14h.108l-.001-.145.033-.022h.11l.037.029v.138h.111l.002-.136.029-.03h.109l.033.027.005.135h.101L4.22 7.32l.036-.031h.14v.289h-.104zm-.736.22H3.7v-.162c0-.044-.026-.08-.073-.08-.046 0-.072.036-.072.08v.162zm.491 0h.146v-.16c0-.045-.027-.082-.073-.082s-.073.037-.073.081V7.8zm-.005.542v-.192C4.042 8.11 4.026 8 3.87 8c-.15 0-.166.11-.166.147v.192h.34z"/>
        <g fill="#F2C500">
            <path d="M5.3 10.032a.051.051 0 0 1 .005.022c0 .026-.022.047-.05.047a.048.048 0 0 1-.049-.047c0-.008.002-.015.006-.021l-.07-.001a.11.11 0 0 0 .078.126v.17h.073v-.17a.113.113 0 0 0 .072-.069h.194v-.057H5.3zm.953 0v.057H6.08a.112.112 0 0 1-.012.022l.203.23-.054.045-.202-.231-.01.004v.381h-.072v-.383c-.003 0-.005-.002-.008-.004l-.21.233-.055-.044.21-.234a.094.094 0 0 1-.009-.019h-.18v-.057h.573zm.117 0v.057h.194a.112.112 0 0 0 .072.068v.171h.072v-.17a.11.11 0 0 0 .08-.104.09.09 0 0 0-.002-.022h-.069a.051.051 0 0 1 .005.022.048.048 0 0 1-.049.047c-.027 0-.05-.021-.05-.047 0-.008.003-.015.006-.021l-.26-.001zm-.294.973a.684.684 0 0 0 .16-.046l.036.06a.774.774 0 0 1-.19.054.114.114 0 0 1-.113.086.114.114 0 0 1-.112-.085.77.77 0 0 1-.2-.055l.036-.06a.685.685 0 0 0 .172.046.11.11 0 0 1 .066-.059l.001-.295h.071l.001.294c.032.01.059.031.072.06zm-.485-.1l-.035.061a.732.732 0 0 1-.16-.135.12.12 0 0 1-.11-.022.105.105 0 0 1-.013-.154l.006-.006a.672.672 0 0 1-.056-.211h.072a.58.58 0 0 0 .046.18c.02-.002.042 0 .062.007l.18-.2.055.044-.18.2a.103.103 0 0 1-.004.12c.04.045.086.084.137.117zm-.268-.208a.05.05 0 1 1 .076.065.05.05 0 0 1-.076-.065zm-.076-.199l-.087-.016-.013-.188.087-.025v.108c0 .042.005.082.013.121zm.047-.233l.087.018.003.093.01.095-.089.024a.526.526 0 0 1-.012-.118v-.112zm.243.602a.69.69 0 0 0 .213.113l.017-.072a.602.602 0 0 1-.177-.088l-.053.047zm-.036.061a.765.765 0 0 0 .213.113l-.055.051a.823.823 0 0 1-.174-.089l.016-.075zm.097-.414l.07.03.13-.143-.043-.061-.157.174zm-.055-.044l-.042-.061.13-.144.07.03-.158.175zm.795.436l.036.06a.734.734 0 0 0 .16-.135.12.12 0 0 0 .11-.022.105.105 0 0 0 .012-.154l-.006-.006a.661.661 0 0 0 .056-.211h-.072a.584.584 0 0 1-.046.18.128.128 0 0 0-.062.007l-.18-.2-.055.044.18.2a.104.104 0 0 0 .004.12.663.663 0 0 1-.137.117zm.27-.209a.05.05 0 1 0-.076.065.05.05 0 0 0 .075-.065zm.09-.199l.087-.016.012-.188-.087-.025v.108a.557.557 0 0 1-.013.121zm-.047-.233l-.087.018s-.005.12-.003.093c.002-.031-.01.095-.01.095l.088.024a.524.524 0 0 0 .012-.118v-.112zm-.26.602a.691.691 0 0 1-.212.113l-.016-.072a.601.601 0 0 0 .176-.088l.053.047zm.037.061a.768.768 0 0 1-.213.113l.055.051a.823.823 0 0 0 .174-.089l-.016-.075zm-.097-.414l-.07.03-.13-.143.043-.061.157.174zm.055-.044l.042-.061-.129-.144-.07.03.157.175zm-.884-.38l.021.1h.2l.02-.1h-.241zm.93 0l-.023.1h-.198l-.022-.1h.242zm-.512.963a.05.05 0 1 1 .1 0 .05.05 0 0 1-.1 0zm.084-.344l.1-.021V10.5l-.1-.02v.229zm-.046 0l-.1-.021V10.5l.1-.02v.229z"/>
            <path d="M5.143 10.034a.113.113 0 0 1 .078-.083v-.233h.072v.234a.11.11 0 0 1 .073.07l.193.001v.01H5.3a.051.051 0 0 0-.087.001h-.07zm.537 0v-.01h.179a.104.104 0 0 1 .008-.018l-.222-.247.055-.044.218.243a.103.103 0 0 1 .012-.005V9.63h.072v.321l.011.003.213-.243.055.043-.214.242a.1.1 0 0 1 .012.027h.174v.01H5.68zm.95 0a.05.05 0 0 1 .043-.025c.02 0 .036.01.044.025h.069a.113.113 0 0 0-.078-.083v-.233h-.071v.234a.11.11 0 0 0-.074.07l-.193.001v.01h.26zm-1.326-.657l.266.299.055-.044-.268-.298a.11.11 0 0 0 .012-.026h.195v-.067H5.37a.115.115 0 0 0-.11-.076.113.113 0 0 0-.115.11.11.11 0 0 0 .078.103v.23h.07V9.38c.004 0 .01 0 .012-.002zm1.405.002v.23h-.072v-.23a.108.108 0 0 1-.016-.007l-.265.298-.055-.043.27-.305c-.002-.004-.005-.009-.006-.014h-.196v-.067h.195a.114.114 0 0 1 .11-.076c.063 0 .115.049.115.11a.11.11 0 0 1-.08.104zm-.706 0l-.001.14H5.93v-.14a.113.113 0 0 1-.075-.07h-.174V9.24h.174a.114.114 0 0 1 .11-.076c.05 0 .094.032.11.076h.177v.067h-.178a.111.111 0 0 1-.071.07zm-.755.17l-.1.021v.189l.1.02v-.23zm.046 0l.1.021v.189l-.1.02v-.23zm1.368 0l-.1.021v.189l.1.02v-.23zm.046 0l.1.021v.189l-.1.02v-.23zm-1.124.038l.071-.03.13.143-.043.062-.158-.175zm-.054.044l-.043.062.13.143.07-.03-.157-.175zm.81-.05l-.07-.03-.128.145.043.061.156-.176zm.056.044l.043.061-.128.145-.07-.03.155-.176zm-.894.427l.021-.1h.2l.02.1h-.241zm-.292-.774a.05.05 0 1 1 0 0zm.532.03l-.022.1h-.199l-.021-.1h.242zm0-.038l-.022-.1h-.199l-.021.1h.242zm.69.782l-.023-.1h-.198l-.022.1h.242zm.192-.774a.05.05 0 1 1 .1 0 .05.05 0 0 1-.1 0zm-.709 0a.05.05 0 1 1 0 0zm.276.03l.022.1h.198l.022-.1h-.242zm0-.038l.022-.1h.198l.022.1h-.242zm-.234.19l-.1.022v.188l.1.02v-.23zm.045 0l.1.022v.188l-.1.02v-.23z"/>
        </g>
        <path fill="#C7A200" d="M3.351 11.172V9.049h.237l.006 2.232c-.093-.022-.18-.076-.243-.109zm.687.169c-.077.007-.148.009-.242 0V9.049h.242v2.292zm.202-.06l.006-2.232h.236v2.128a.808.808 0 0 1-.242.104zm.45-.291l-.006-1.941h.243l-.006 1.437c-.035.223-.13.418-.23.504zm-1.523 0c-.1-.086-.196-.281-.23-.504L2.93 9.05h.242l-.006 1.94z"/>
        <path fill="#E94B35" d="M4.897 8.356c.348 0 .63.325.63.727 0 .402-.282.728-.63.728-.348 0-.63-.326-.63-.728 0-.402.282-.727.63-.727z"/>
        <path fill="#346DA6" d="M4.905 8.533c.255 0 .46.24.46.534 0 .295-.205.534-.46.534-.254 0-.46-.24-.46-.534 0-.295.206-.534.46-.534z"/>
        <path fill="#F2C500" d="M4.705 8.711s.054.063.054.121c0 .059-.022.107-.022.107a.059.059 0 0 1 .055-.04.06.06 0 0 1 .059.06.09.09 0 0 1-.01.034l-.019.041c-.006-.015-.021-.024-.038-.024a.042.042 0 0 0-.042.043v.01h.049v.045h-.043l.032.067-.042-.017-.033.038-.032-.038-.042.017.032-.067H4.62v-.044h.048l.001-.011a.042.042 0 0 0-.042-.043c-.017 0-.032.009-.038.024l-.02-.041a.091.091 0 0 1-.009-.033.06.06 0 0 1 .059-.06c.025 0 .047.016.055.04 0 0-.022-.05-.022-.108 0-.058.053-.12.053-.12zm.444 0s.055.063.055.121c0 .059-.023.107-.023.107a.059.059 0 0 1 .056-.04.06.06 0 0 1 .058.06.09.09 0 0 1-.01.034l-.018.041c-.007-.015-.021-.024-.039-.024a.042.042 0 0 0-.042.043l.001.01h.048v.045h-.042l.031.067-.042-.017-.033.038-.032-.038-.041.017.031-.067h-.042v-.044h.047l.002-.011a.042.042 0 0 0-.042-.043.04.04 0 0 0-.039.024l-.019-.041a.091.091 0 0 1-.01-.033.06.06 0 0 1 .06-.06c.025 0 .047.016.054.04 0 0-.022-.05-.022-.108 0-.058.053-.12.053-.12zm-.266.356s.054.063.054.121a.284.284 0 0 1-.022.107.06.06 0 0 1 .055-.04.06.06 0 0 1 .059.06c0 .01-.006.025-.01.033L5 9.39a.04.04 0 0 0-.039-.024.042.042 0 0 0-.041.043v.01h.048v.044h-.042l.032.068-.042-.018-.033.039-.032-.039-.042.018.032-.068h-.043V9.42h.048a.043.043 0 0 0-.04-.054.04.04 0 0 0-.04.025l-.019-.042a.09.09 0 0 1-.01-.033.06.06 0 0 1 .06-.06c.025 0 .047.017.055.04 0 0-.023-.049-.023-.107 0-.058.054-.121.054-.121z"/>
        <g>
            <path fill="#FFF" d="M7.288 7.29h1v3.643h-1z"/>
            <path fill="#227FBB" d="M8.082 11.318a.366.366 0 0 0-.15-.03.371.371 0 0 0-.153.03.364.364 0 0 1-.153.03.356.356 0 0 1-.152-.031.37.37 0 0 0-.148-.028.358.358 0 0 0-.15.029.363.363 0 0 1-.154.03v.442c.06 0 .115-.012.154-.031a.36.36 0 0 1 .15-.03c.057 0 .109.011.148.029.039.019.092.032.152.032s.114-.012.153-.03a.367.367 0 0 1 .152-.03c.059 0 .112.011.15.03.04.018.093.03.153.03v-.441a.357.357 0 0 1-.152-.03z"/>
            <path fill="#E94B35" d="M7.58 8.535a2.005 2.005 0 0 1 .677.125l-.264.079.017.3s.176-.002.315-.042c.122-.036.215-.094.213-.085 0 .003.137-.323.14-.335.025-.135-.297-.3-.72-.37a2.224 2.224 0 0 0-.375-.03c-.27 0-.526.027-.668.079l-.002.378c.14-.057.396-.09.667-.1zM8.201 9.405c-.11-.04-.202-.08-.314-.13-.336-.148-.595-.38-.595-.38v.313c-.031.057.196.224.505.371.098.047.307.124.406.159.08.027.246.108.246.108s-.222.123-.017.358c.017-.141.17-.198.165-.185v-.376c.016-.05-.154-.15-.396-.238z"/>
        </g>
        <g>
            <path fill="#FFF" d="M1.867 7.29h1v3.643h-1z"/>
            <path fill="#227FBB" d="M2.66 11.318a.366.366 0 0 0-.151-.03.371.371 0 0 0-.152.03.364.364 0 0 1-.153.03.356.356 0 0 1-.153-.031.37.37 0 0 0-.147-.028.358.358 0 0 0-.15.029.363.363 0 0 1-.154.03v.442c.06 0 .114-.012.154-.031a.36.36 0 0 1 .15-.03c.057 0 .109.011.147.029.04.019.093.032.153.032s.114-.012.153-.03a.367.367 0 0 1 .152-.03c.058 0 .111.011.15.03.04.018.092.03.152.03l.001-.441a.357.357 0 0 1-.153-.03z"/>
            <path fill="#E94B35" d="M2.286 8.535a2.005 2.005 0 0 0-.677.125l.265.079-.017.3s-.176-.002-.315-.042c-.123-.036-.215-.094-.214-.085 0 .003-.137-.323-.139-.335-.025-.135.297-.3.72-.37.133-.022.262-.03.375-.03.27 0 .526.027.668.079l.001.378c-.139-.057-.395-.09-.667-.1zM1.666 9.405c.11-.04.201-.08.314-.13.336-.148.595-.38.595-.38v.313c.03.057-.196.224-.505.371a5.438 5.438 0 0 1-.406.159c-.08.027-.246.108-.246.108s.222.123.016.358c-.016-.141-.17-.198-.164-.185v-.376c-.017-.05.154-.15.396-.238z"/>
        </g>
        <g>
            <path fill="#E94B35" d="M5.625 5.165c.087.039.203.068.33.085.098.013.19.015.27.01.107-.003.262.028.418.097.128.056.235.125.306.192l-.061.055-.018.155-.17.193-.084.072-.2.16-.102.007-.031.089s.36.462-1.257.434c-1.617-.028-1.337-.434-1.337-.434l-.031-.089-.103-.008-.2-.16-.084-.07-.17-.194-.017-.155-.062-.055c.072-.067.179-.136.307-.192.155-.069.31-.1.418-.098.08.006.172.004.27-.01.127-.016.243-.045.33-.084.152-.06.371-.098.632-.098.262 0 .494.038.646.098z"/>
            <path fill="#C7A200" d="M4 5.478a.22.22 0 0 0-.007.082s-.008-.008-.036-.014c-.027-.005-.046.002-.046.002s.02.037.03.05c.008.013.023.054.045.089l.016.022a.355.355 0 0 0-.025-.007c-.03-.008-.084-.008-.1-.009H3.83l.012.022c.01.02.02.031.02.031a.222.222 0 0 0-.127.087.235.235 0 0 0 .152.04s-.005.015-.008.036l-.003.026.045-.017c.015-.005.065-.022.09-.04a.212.212 0 0 1 .037-.018c.013.023.018.05.018.077 0 .095-.084.17-.187.17a.192.192 0 0 1-.155-.075l-.04-.048.001.059c0 .06-.026.113-.086.122 0 0-.069.004-.16-.065a1.253 1.253 0 0 1-.073-.06c.007-.001.012 0 .013.004a.59.59 0 0 0 .068.009c.033.002.088-.007.105-.01l.05-.006-.018-.02c-.015-.015-.032-.029-.032-.029a.191.191 0 0 0 .102-.09.32.32 0 0 0-.15-.018s.002-.012.001-.032c0-.017-.002-.024-.002-.024s-.027.019-.053.031a.326.326 0 0 0-.097.065c-.02.025-.033.062-.033.062s.026-.087.002-.148c-.024-.06-.077-.07-.077-.07l-.009.041a.115.115 0 0 0-.054-.037l.109-.195a.311.311 0 0 1-.08-.364c.068-.154.303-.268.585-.268.054 0 .106.004.156.012a.377.377 0 0 0 .09.45l-.004.005-.002-.002a.22.22 0 0 0-.028.052l-.01.017.004.003zm.09-.02c.018.023.032.05.039.078 0 0 .005-.01.029-.025.024-.014.044-.014.044-.014l-.01.057c-.004.014-.004.059-.013.099a.313.313 0 0 1-.007.025c.027-.015.068-.029.08-.033l.046-.017-.003.026a.246.246 0 0 1-.008.035.234.234 0 0 1 .152.041.222.222 0 0 1-.128.087.28.28 0 0 0 .033.054l-.048-.001c-.017 0-.07 0-.1-.009a.456.456 0 0 1-.056-.019v.001a.17.17 0 0 0 0 .022c0 .099.087.179.194.179.097 0 .182-.061.194-.152.003.002.002-.067.009-.068.008 0 .024.066.027.064.025.072.099.124.186.124.108 0 .195-.08.195-.179a.16.16 0 0 0-.01-.062l.007-.002-.011-.04c-.032.01-.065.017-.058.025 0 0-.034.023-.072.04-.03.012-.082.021-.098.024a29.56 29.56 0 0 0-.048.009s0-.008.007-.024l.015-.034a.237.237 0 0 1-.144-.063.234.234 0 0 1 .144-.064s-.007-.013-.015-.034a.164.164 0 0 1-.007-.024l.048.009c.016.003.069.011.098.024a.44.44 0 0 1 .071.04c-.005.006.017.013.043.02-.006-.015-.01-.024-.014-.02 0 0-.025-.03-.044-.068-.018-.038-.027-.083-.034-.097a1.264 1.264 0 0 1-.023-.054s.023-.004.053.006.038.02.038.02a.18.18 0 0 1 .002-.019l-.182-.168c.03-.075.05-.197.052-.336l.002-.024v-.02c0-.024 0-.046.002-.068a.656.656 0 0 0-.295-.067c-.267 0-.478.145-.486.32a.312.312 0 0 0 .15.3l-.046.075zm.685-.7c.001-.016.004-.03.006-.044.015-.062.078-.108.15-.108.07 0 .132.046.147.108l.009.062a.723.723 0 0 1 .34-.08c.207 0 .383.08.48.195.062-.012.129-.018.197-.018.308 0 .566.129.649.305a.377.377 0 0 1-.057.407l.103.198h.007c.066 0 .117.05.117.112 0 0-.086-.007-.136.02a.307.307 0 0 0-.094.109c0-.002-.006.001-.012.005l.002.014s-.076.113-.158.159a.291.291 0 0 1-.168.043c-.058-.009-.099-.053-.12-.105a.286.286 0 0 1-.141.037c-.112 0-.212-.059-.252-.148a.294.294 0 0 1-.428-.012.293.293 0 0 1-.194.072.29.29 0 0 1-.236-.117.289.289 0 0 1-.236.117.293.293 0 0 1-.194-.072.293.293 0 0 1-.222.099.281.281 0 0 1-.207-.087c-.04.09-.14.148-.251.148a.285.285 0 0 1-.141-.037c-.022.052-.063.096-.12.105a.292.292 0 0 1-.168-.043c-.082-.046-.158-.16-.158-.16v-.004c-.017-.018-.036-.037-.037-.035 0 0-.043-.081-.094-.108-.05-.028-.136-.02-.136-.02 0-.05.033-.093.08-.107l.101-.183a.38.38 0 0 1-.057-.407c.083-.176.341-.305.649-.305.068 0 .135.006.197.018a.625.625 0 0 1 .48-.196.74.74 0 0 1 .303.062zm.252.632c.012.023.02.048.022.074 0 0 .008-.01.038-.02s.052-.006.052-.006l-.022.054c-.007.014-.016.059-.035.097-.018.039-.043.068-.043.068-.003-.003-.006.003-.008.016.023-.006.04-.01.036-.015 0 0 .034-.025.072-.041.029-.013.082-.021.098-.024l.048-.009s-.001.007-.008.024c-.007.02-.015.034-.015.034.056.003.108.03.144.064a.236.236 0 0 1-.144.063.248.248 0 0 0 .023.058l-.048-.009c-.016-.003-.07-.012-.098-.024a.48.48 0 0 1-.072-.04c.005-.006-.016-.011-.043-.018l-.003.032.015.003a.162.162 0 0 0-.01.062c0 .099.088.179.196.179.087 0 .16-.052.186-.124.003.002.019-.064.027-.064.007.001.006.07.008.068.013.09.098.152.194.152.108 0 .195-.08.195-.179l-.001-.022.03-.028-.001-.024c-.019-.004-.031-.01-.027-.003 0 0-.038.019-.078.03-.03.007-.084.007-.1.008h-.048l.011-.022c.011-.02.021-.031.021-.031a.223.223 0 0 1-.128-.087.234.234 0 0 1 .152-.04s-.005-.015-.008-.037l-.003-.025.045.017c.015.005.066.022.091.04a.432.432 0 0 1 .06.05.347.347 0 0 1-.023-.069c-.01-.04-.01-.085-.013-.1-.004-.014-.01-.056-.01-.056l.013.002-.051-.085a.313.313 0 0 0 .15-.3c-.01-.176-.22-.32-.487-.32a.633.633 0 0 0-.334.088l.001.045v.02l.002.025c.002.139.023.261.051.336l-.12.113zm.866.07a.237.237 0 0 1 .075-.085c.031.042.048.1.042.154 0 0 .009-.008.036-.014a.09.09 0 0 1 .046.002s-.02.037-.029.05c-.008.013-.023.054-.046.089-.022.034-.048.059-.048.059-.002-.002-.004-.001-.007.002.01 0 .014-.002.012-.006 0 0 .037-.018.077-.028.03-.008.084-.009.1-.009l.049-.001-.012.023c-.011.019-.02.031-.02.031a.222.222 0 0 1 .127.087.234.234 0 0 1-.152.04s.005.015.008.036l.003.026-.045-.017c-.015-.005-.065-.022-.091-.04-.034-.022-.062-.052-.062-.052.005-.004-.011.003-.033.005a1.958 1.958 0 0 1-.009.023l.011.024a.158.158 0 0 0-.018.078c0 .095.083.17.186.17.065 0 .122-.03.156-.075l.039-.048v.059c0 .06.026.113.085.122 0 0 .07.004.16-.065.018-.013.034-.026.049-.039-.008-.001-.014-.001-.015.004a.585.585 0 0 1-.068.008c-.033.003-.088-.006-.104-.008l-.05-.007.017-.02c.015-.015.032-.029.032-.029a.191.191 0 0 1-.101-.09.32.32 0 0 1 .148-.018v-.032c0-.017.002-.024.002-.024s.027.019.053.03c.027.013.078.04.097.065a.323.323 0 0 1 .033.082l.002-.002c-.009-.049-.02-.126-.004-.165.024-.06.077-.07.077-.07l.009.04a.104.104 0 0 1 .022-.02l-.123-.232a.311.311 0 0 0 .08-.364c-.068-.154-.303-.268-.585-.268-.053 0-.106.004-.156.012.023.04.036.084.038.13a.376.376 0 0 1-.128.32l.035.056zm-.015.035a.208.208 0 0 0-.003.012s0-.003-.004-.006l.007-.006zm-.022.205c-.001-.005-.003-.008-.005-.006l-.001-.001c-.001.002.001.004.006.007zm-2.104.806c.013-.006-.046-.046-.074-.096-.031-.058-.034-.127-.034-.127.344-.101.823-.165 1.356-.166.533.001 1.016.065 1.36.166 0 0-.016.066-.049.127-.025.046-.07.09-.06.096-.31-.096-.76-.158-1.253-.159-.493.001-.934.063-1.246.159zM4.881 4.16h-.093v.074h.093V4.445h-.117c-.001.007-.008.012-.008.02a.11.11 0 0 0 .013.052h.313a.11.11 0 0 0 .013-.052c0-.008-.007-.013-.008-.02h-.114V4.235h.093V4.16h-.093V4.09h-.092v.072z"/>
        </g>
    </g>
</svg>
