<svg xmlns="http://www.w3.org/2000/svg" width="16" height="16" viewBox="0 0 16 16">
    <g fill="none" fill-rule="evenodd">
        <circle cx="8" cy="8" r="8" fill="#F2C500"/>
        <path fill="#A03529" d="M8 .889a7.111 7.111 0 1 1-2.667 13.705V1.406A7.091 7.091 0 0 1 8 .889z"/>
        <path fill="#E87E04" d="M4.444 1.84c-.669.387-1.269.88-1.777 1.456v9.408a7.144 7.144 0 0 0 1.777 1.456V1.84z"/>
        <path fill="#1FCE6D" d="M2.667 3.296A7.084 7.084 0 0 0 .889 8c0 1.803.671 3.45 1.778 4.704V3.296z"/>
        <g fill="#F2C500">
            <path d="M12.267 11.556s.096.19.202.266c.157.115.48.107.617.24.164.158-.013.366-.011.384l.009.11s-.111 0-.158.008c-.07.01-.097.066-.227.057-.328-.02-.315-.306-.334-.55-.016-.094-.054-.215-.076-.309-.018-.08-.022-.206-.022-.206zM6.642 3.91c-.157-.113-.48-.105-.617-.239-.164-.157.013-.365.012-.383l-.01-.11s.111-.001.158-.008c.07-.011.097-.066.228-.058.327.02.314.307.333.551.016.093.054.215.076.308.018.08.022.207.022.207s-.096-.19-.202-.267zM12.267 4.178s.096-.19.202-.267c.157-.114.48-.106.617-.24.164-.157-.013-.365-.011-.383l.009-.11s-.111-.001-.158-.008c-.07-.011-.097-.066-.227-.058-.328.02-.315.307-.334.551-.016.093-.054.215-.076.308-.018.08-.022.207-.022.207zM6.844 11.556s-.096.19-.202.266c-.157.115-.48.107-.617.24-.164.158.013.366.012.384l-.01.11s.111 0 .158.008c.07.01.097.066.228.057.327-.02.314-.306.333-.55.016-.094.054-.215.076-.309.018-.08.022-.206.022-.206zM7.381 7.862c.028-.04.073-.05.142-.03.173.048.158.231-.026.304-.149.059 0 0 0 0a1.034 1.034 0 0 1-.607-.008c-.175-.076-.18-.256-.008-.296.065-.015.113-.005.136.027C7.002 7.802 7 7.68 7 7.274c0-.888.057-1.304.22-1.613a.966.966 0 0 1 .313-.366c.1-.068.106-.068.067.004-.097.179-.17.927-.189 1.92-.009.46-.013.59-.03.643zm-.006.022c-.009.034.007.075.034.075.01 0 .02.011.02.025 0 .017-.022.03-.056.042a.068.068 0 0 0-.01-.01c-.043-.03-.04-.074.006-.124a.091.091 0 0 0 .006-.008zm-.336.145a.223.223 0 0 1-.011-.004c-.045-.018-.065-.066-.027-.066.024 0 .042-.037.037-.069v.001c.03.045.033.062.011.11a.256.256 0 0 0-.01.028zm3.259-1.474c.003-.206-.014-.27-.076-.349l-.036-.047.057-.062a.426.426 0 0 0 .125-.236l.012-.072-.065.062c-.053.05-.079.061-.14.061-.061 0-.085-.01-.126-.054a.529.529 0 0 0-.221-.128c-.032-.01-.042-.005-.042.016 0 .015-.017.06-.038.1l-.038.07-.08-.08a.384.384 0 0 0-.15-.097c-.111-.03-.117-.026-.117.056 0 .126-.054.15-.15.066-.073-.064-.134-.078-.273-.062l-.107.012.02.048c.016.04.012.058-.022.104-.057.074-.13.107-.241.107a.416.416 0 0 0-.144.024.575.575 0 0 1-.151.033.799.799 0 0 0-.132.021c-.026.01-.03.002-.02-.058.012-.092-.052-.16-.152-.16-.13 0-.19.116-.138.27.01.03.022.076.028.103a.617.617 0 0 0 .136.176c.069.069.134.14.145.16.01.018.046.049.078.067l.06.033-.008-.064c-.009-.07.006-.08.043-.031a.326.326 0 0 0 .075.063c.044.027.05.027.05.004 0-.015.01-.05.02-.076l.02-.05.035.067c.019.037.08.12.137.186.11.127.176.27.142.302-.014.013-.052.012-.13-.003a.659.659 0 0 0-.167-.015c-.063.009-.068 0-.03-.048.042-.052.035-.06-.045-.06a1.68 1.68 0 0 1-.415-.08c-.087-.035-.107-.026-.132.056a35.7 35.7 0 0 1-.047.15l-.026.081.094-.009a.979.979 0 0 0 .147-.025c.03-.009.057-.014.06-.01.003.003-.01.035-.03.07l-.035.066.059-.012a.549.549 0 0 0 .107-.036c.047-.022.051-.02.088.039.046.073.082.07.09-.008.008-.08.035-.068.084.038.048.103.097.139.107.078.003-.02.029-.053.057-.073.057-.04.1-.028.125.035.025.066-.032.133-.197.234-.332.202-.525.477-.58.829-.05.316.106.644.417.88.149.112.385.23.37.185-.064-.192-.062-.56.004-.622.01-.009.006.03-.008.086-.052.209-.03.375.104.766.12.353.103.504-.067.604-.055.032-.09.037-.236.035-.16-.002-.177.002-.228.042a.42.42 0 0 0-.114.23c0 .034.036.03.108-.012 0 0-.072.041 0 0l.062-.036.026.036c.036.048.133.047.198-.001l.05-.037.041.037c.055.049.157.049.222 0 .046-.034.052-.035.082-.009a.28.28 0 0 0 .117.04c.084.01.085.01.134-.064.04-.062.047-.087.038-.146a1.591 1.591 0 0 1-.016-.142c-.004-.07-.003-.07.098-.105.055-.02.12-.046.143-.058a.55.55 0 0 0 .151-.178c0-.007-.043-.018-.096-.024-.211-.023-.247-.137-.11-.348.224-.344.359-.679.36-.892 0-.095.005-.127.018-.107.05.085-.04.44-.175.696l-.055.102.052-.012c.029-.006.197-.077.374-.158.485-.22.652-.263.966-.25.263.011.375.063.56.258.099.103.193.177.367.286.37.232.384.252.402.524.018.277.009.292-.2.338-.177.04-.289.122-.319.238-.016.062.018.063.107.006l.066-.043.03.043c.038.055.12.056.188 0l.05-.042.053.042c.082.065.19.05.22-.032.006-.016.022-.01.054.017.06.052.212.074.228.033.007-.015-.005-.054-.026-.085-.089-.133-.117-.197-.118-.27-.001-.1.029-.15.143-.232.14-.1.182-.228.077-.228-.066 0-.132-.058-.174-.152-.085-.192-.068-.407.06-.765.13-.364.144-.43.145-.674 0-.196-.005-.23-.05-.338a1.215 1.215 0 0 0-.122-.218l-.073-.098.094-.078c.287-.24.229-.63-.118-.781-.106-.046-.132-.05-.318-.049-.111 0-.281.015-.377.033a2.613 2.613 0 0 1-.378.032c-.181 0-.212-.004-.281-.041-.073-.039-.086-.057-.1-.147-.003-.018-.016-.037-.028-.04-.025-.009-.14.09-.156.135-.008.021-.015.02-.04-.01a.358.358 0 0 1-.05-.097c-.029-.088.007-.153.11-.202l.079-.039-.047-.029c-.097-.06-.262-.019-.321.08-.017.029-.035.052-.041.052a.35.35 0 0 1-.071-.06c-.125-.122-.082-.303.085-.359.09-.03.168-.007.185.053.025.091.102-.029.088-.137-.009-.071-.007-.074.042-.074.07 0 .216.09.261.161.053.082.049.212-.009.308l-.046.076.06-.012a.348.348 0 0 0 .215-.138.319.319 0 0 0 .01-.279c-.039-.07-.034-.082.023-.058.098.04.15.086.19.163.035.07.037.086.018.159a.457.457 0 0 1-.058.13c-.032.042-.033.05-.008.05a.342.342 0 0 0 .18-.082.366.366 0 0 0 .057-.103l.025-.069.029.053c.04.074.12.14.216.182.104.044.147.047.093.005-.037-.028-.104-.226-.084-.246.012-.011.153.097.314.242.152.137.247.182.387.182.178 0 .282-.156.202-.303-.047-.086-.15-.098-.212-.024-.028.033-.035.06-.027.096.01.043.006.049-.033.049-.052 0-.155-.067-.336-.218-.277-.232-.613-.428-.856-.5a1.879 1.879 0 0 0-.647-.035c-.172.032-.375.13-.485.235-.196.187-.199.435-.008.661l.054.065-.037.058a.25.25 0 0 0 .012.28.256.256 0 0 0 .06.066c.006 0 .013-.024.015-.053.005-.072.036-.12.09-.14.048-.017.079-.01.299.079.231.092.612.099 1.017.017.199-.04.433-.038.536.005.188.08.232.286.093.442-.06.068-.118.096-.312.15-.148.04-.183.043-.52.04-.287-.003-.39.002-.508.027-.127.026-.205.029-.58.02l-.432-.011.048.04a.755.755 0 0 0 .083.06c.032.018.031.02-.017.039a.504.504 0 0 1-.14.019h-.09l-.012.076a.273.273 0 0 0 .002.107c.01.027.006.03-.021.02a1.194 1.194 0 0 0-.116-.03.71.71 0 0 1-.134-.043c-.049-.023-.054-.023-.072.009a.702.702 0 0 1-.189.14c-.003 0-.008-.021-.01-.047a.698.698 0 0 0-.048-.153 3.737 3.737 0 0 1-.057-.14c-.01-.03-.015-.03-.027-.009a.377.377 0 0 0-.026.087.415.415 0 0 1-.05.122l-.04.06-.024-.051c-.027-.056-.07-.113-.087-.113-.005 0-.014.018-.02.04-.012.044-.116.17-.142.17-.01 0-.017-.036-.017-.079 0-.043-.008-.079-.018-.079-.01 0-.019.012-.019.025 0 .033-.089.133-.119.133-.013 0-.034.011-.046.026-.033.037-.06.032-.046-.01a.205.205 0 0 0-.01-.1L8.82 7.79c-.005-.013-.037-.01-.104.012-.11.035-.146.03-.09-.015a.331.331 0 0 0 .07-.124c.017-.052.043-.099.057-.103.02-.006.02.001-.004.033a.154.154 0 0 0-.03.068c0 .015-.013.05-.029.077-.015.028-.025.054-.021.057a.318.318 0 0 0 .092-.035l.086-.041v.037c0 .02.011.074.024.119l.022.082.059-.027c.06-.028.116-.126.116-.202 0-.038.022-.032.03.008l.03.098.026.077.04-.049a.41.41 0 0 0 .061-.115c.02-.065.053-.093.053-.046 0 .034.091.155.11.145a.284.284 0 0 0 .037-.101c.026-.105.067-.177.093-.162.01.006.014.017.008.025a.509.509 0 0 0 .047.152l.07.17c.011.027.021.023.088-.036a.415.415 0 0 0 .083-.091c.007-.02.016-.02.055.004.054.034.236.088.25.075a.366.366 0 0 0 .012-.106l.003-.098.052.011c.029.006.09.006.134 0l.082-.012-.073-.05a.403.403 0 0 1-.09-.08c-.01-.018-.046-.032-.087-.036a.553.553 0 0 1-.292-.145.703.703 0 0 1-.031-.021l-.071-.03v.083c0 .045-.006.1-.012.12-.011.042-.042.053-.042.016 0-.024-.072-.092-.146-.135-.058-.034-.067-.035-.067-.008 0 .043-.038.149-.052.149-.009 0-.02-.021-.028-.046a.408.408 0 0 0-.062-.111l-.05-.065-.039.06c-.036.056-.1.11-.127.11-.007 0-.008-.029-.003-.065.005-.039.001-.07-.01-.077-.012-.006-.02-.004-.02.005 0 .021-.088.121-.107.121-.007 0-.018-.029-.023-.064a6.489 6.489 0 0 0-.02-.123c-.007-.032.006-.01.027.05l.038.108.042-.066a.29.29 0 0 0 .042-.088c0-.013.008-.018.018-.012.01.005.022.049.03.097l.011.087.046-.051a.751.751 0 0 0 .067-.084c.02-.031.02-.031.06.002a.412.412 0 0 1 .074.099c.02.036.038.063.04.06a.415.415 0 0 0 .016-.083l.011-.08c.003-.01.14.08.19.125.032.029.063.048.068.043a.292.292 0 0 0 .01-.095c0-.073-.008-.093-.053-.133-.05-.047-.052-.047-.071-.013-.025.044-.054.044-.054.001 0-.031-.097-.153-.122-.153-.007 0-.027.027-.046.06-.018.032-.038.059-.044.059a.54.54 0 0 1-.162-.182c0-.022.01-.016.034.02.018.029.054.07.08.093.054.047.073.036.094-.054.006-.026.016-.047.022-.047.023 0 .142.127.159.17l.017.042.012-.047c.016-.057.033-.059.058-.007.01.022.062.067.114.1l.072.032c.003-.001.01.002.019.008l.012.005.011-.045c.011-.033.025-.053.031-.043.009.013-.003.08-.019.11a.41.41 0 0 0 .267.113h.066l-.04-.054a.318.318 0 0 1-.05-.14c-.008-.078-.016-.09-.098-.147a.937.937 0 0 1-.134-.114l-.046-.051-.023.06c-.013.035-.029.062-.035.062a.19.19 0 0 1-.055-.044.193.193 0 0 0-.054-.043c-.006 0-.027.032-.046.072l-.037.072-.028-.042a.63.63 0 0 0-.08-.09C9.51 7 9.496 6.98 9.507 6.98c.01 0 .046.027.08.061l.06.061.025-.045a.16.16 0 0 0 .013-.1c-.01-.048-.008-.051.01-.02.012.018.048.055.08.081l.057.047.04-.073c.04-.073.04-.073.058-.03.024.058.199.202.347.286.023.013.014-.032-.029-.134a.34.34 0 0 1-.02-.108c0-.049-.014-.07-.076-.117a.292.292 0 0 1-.134-.226.314.314 0 0 0-.035-.11c-.018-.023-.02-.01-.016.072a.436.436 0 0 1-.016.154l-.022.052-.017-.044a.276.276 0 0 0-.092-.092c-.04-.027-.07-.054-.064-.06.006-.005.048.02.094.055.07.054.085.06.095.036a.654.654 0 0 0-.022-.236c-.01-.042-.01-.042.043.01.038.04.06.086.077.167.02.102.031.12.126.203.057.05.106.088.11.085a6.309 6.309 0 0 0 .018-.381.812.812 0 0 1-.088-.073s.118.106 0 0c-.049-.044-.082-.086-.075-.093.008-.007.017-.01.02-.004l.089.093a.905.905 0 0 1 .055.06zm-1.32.184l.003-.052.007.05c.005.03.035.073.074.105l.066.055.04-.05a.193.193 0 0 0 .042-.073c0-.032.006-.03.084.042.07.064.07.065.08.023a.231.231 0 0 0-.004-.097c-.022-.082-.018-.095.016-.045.017.025.045.06.061.078.029.032.03.031.041-.009a.453.453 0 0 0 .012-.094V6.62l.062.075c.059.07.064.074.082.04.01-.02.019-.067.019-.106 0-.05.005-.062.017-.043.02.032.006.117-.03.19l-.027.053-.034-.057c-.044-.073-.058-.072-.087.007-.026.074-.044.08-.07.023-.016-.037-.02-.033-.031.045l-.014.086-.079-.065-.08-.066-.035.043a.161.161 0 0 0-.036.066c0 .028-.02.028-.05.003-.114-.103-.132-.126-.129-.175zm-.142-.46c.032-.047.046-.053.102-.044a.544.544 0 0 1 .171.086.48.48 0 0 0 .191.088.27.27 0 0 0 .085.006.8.8 0 0 0-.043-.086c-.056-.103-.055-.115.009-.053.065.064.143.083.318.076l.085-.003-.05-.06c-.069-.083-.047-.09.029-.01.071.076.067.081-.084.1a.47.47 0 0 1-.19-.016c-.085-.026-.089-.026-.073.01.01.02.025.036.034.036.01 0 .017.01.017.023 0 .038-.185.004-.274-.05-.201-.125-.227-.136-.275-.118a.118.118 0 0 0-.063.07c-.03.102.087.18.135.091.014-.026.01-.044-.014-.075-.034-.043-.03-.05.015-.029.032.014.036.11.006.144-.034.04-.112.028-.142-.02-.036-.06-.034-.1.01-.166zm.885-.099a.55.55 0 0 0 .337-.099c.083-.056.105-.045.027.014a.645.645 0 0 1-.293.106 2.247 2.247 0 0 0-.133.019c-.02.004-.043.002-.049-.004-.026-.027-.006-.033.111-.036zM7.24 9.92a.135.135 0 0 0 .03-.072c0-.03.016-.038.089-.047l.087-.01-.058-.042c-.07-.05-.076-.087-.015-.087s.164-.057.18-.098c.007-.02.003-.045-.01-.058-.034-.035-.099-.03-.11.009-.014.04-.035.04-.084 0-.073-.061-.075-.189-.003-.263.034-.035.033-.037-.01-.073-.046-.039-.079-.116-.057-.134.007-.006.043-.001.08.01.055.017.076.017.098.002.067-.047-.006-.107-.113-.094-.043.006-.061 0-.067-.02-.005-.015-.043-.034-.085-.044-.076-.017-.077-.017-.077.03 0 .05-.033.06-.095.028-.05-.027-.1-.006-.1.041 0 .045.05.067.141.062.07-.004.073.042.006.107l-.047.048.038.048c.055.07.05.188-.01.247l-.048.045-.031-.036c-.044-.051-.103-.048-.12.007-.01.035-.001.052.05.09a.232.232 0 0 0 .11.046c.065 0 .062.045-.006.092l-.054.036.083.011c.046.007.083.018.083.027 0 .03.057.128.076.128.01 0 .033-.017.05-.037 0 0-.017.02 0 0zm1.13-.57a.433.433 0 0 0-.092-.105c-.106-.1-.22-.27-.25-.369-.016-.051-.104-.108-.316-.323l-.143-.332-.226-.031s-.102.014-.123.014c-.038 0-.038.003.013.044l.053.043.107.065s.14-.122.176-.076c.036.046-.12.163-.12.163s.091-.07.12-.033c.029.037-.089.14-.089.14s.073-.031.1 0c.025.03-.066.144-.066.144s.087-.024.055.06c-.032.083-.162.145-.162.145s-.001-.005.033.022c.05.04.051.044.051.219 0 .146.006.183.031.209.03.028.032.028.032.001 0-.03.05-.066.09-.066a.92.92 0 0 1 .168.148c.08.083.165.153.19.157.023.005.049.01.056.01a.306.306 0 0 0 .08-.024c.07-.029.232-.192.232-.225zm-.991-.507c0-.053-.112-.11-.246-.126-.108-.012-.11-.01-.11.043 0 .044.017.061.092.093.12.052.264.046.264-.01 0 0 0 .056 0 0zm.105-.012c.064-.055.094-.12.056-.12-.044 0-.161.1-.161.137 0 .059.021.055.105-.017 0 0-.084.072 0 0zm-.172-.22c-.107-.052-.235-.076-.266-.05-.057.048-.02.113.073.124a.525.525 0 0 1 .111.027c.07.03.138.017.144-.028.004-.03-.012-.049-.062-.073zm-.147-.191c-.132-.05-.19-.026-.148.058.014.03.04.043.094.052.041.007.098.02.125.029.074.024.116.015.122-.025.005-.036-.016-.048-.193-.114zm.4-.126c0-.053-.152.04-.171.105-.023.079.014.075.101-.008.038-.037.07-.081.07-.097zm-.007.132c0-.053-.152.04-.171.106-.024.078.014.074.1-.01.04-.036.07-.08.07-.096zm.01.141c0-.057-.152.044-.171.114-.023.084.014.08.101-.01.039-.04.07-.086.07-.104zm-.19-.165c.007-.048-.066-.09-.21-.124-.105-.024-.152-.01-.144.043.004.029.04.05.14.084.159.053.207.053.214-.003 0 0-.007.056 0 0zM8.66 6.918c-.148 0-.28-.072-.527-.183-.142-.064-.191-.079-.208-.062-.044.041-.012.15.1.201.099.046.376.103.503.103.073 0 .075.003.033.065l-.03.044h.105c.047 0 .14.027.147.017.006-.01-.007-.054-.029-.1-.033-.073-.046-.085-.094-.085z"/>
        </g>
    </g>
</svg>
