<svg xmlns="http://www.w3.org/2000/svg" width="16" height="16" viewBox="0 0 16 16">
    <g fill="none" fill-rule="evenodd">
        <path fill="#00207F" d="M15.89 6.667A8.002 8.002 0 0 0 5.332.455v6.212H15.89zm0 2.666a8.002 8.002 0 0 1-10.557 6.212V9.333H15.89zM.11 6.667a7.987 7.987 0 0 1 2.557-4.63v4.63H.11zm0 2.666a7.987 7.987 0 0 0 2.557 4.63v-4.63H.11z"/>
        <path fill="#F2C500" d="M2.667 6.667v-4.63A7.995 7.995 0 0 1 5.333.455v6.212H15.89a8.054 8.054 0 0 1 0 2.666H5.333v6.212a7.995 7.995 0 0 1-2.666-1.582v-4.63H.11a8.054 8.054 0 0 1 0-2.666h2.556z"/>
    </g>
</svg>
