<svg xmlns="http://www.w3.org/2000/svg" width="16" height="16" viewBox="0 0 16 16">
    <g fill="none" fill-rule="evenodd">
        <path fill="#E94B35" d="M8 0a8 8 0 1 1-8 8h8V0z"/>
        <path fill="#00207F" d="M8 0a8 8 0 0 0-8 8h8V0z"/>
        <path fill="#FFF" d="M5.138 6.062L4.8 7.467l-.338-1.405-.995 1.047.409-1.385-1.385.41 1.047-.996L2.133 4.8l1.405-.338-1.047-.995 1.385.409-.41-1.385.996 1.047.338-1.405.338 1.405.995-1.047-.409 1.385 1.385-.41-1.047.996 1.405.338-1.405.338 1.047.995-1.385-.409.41 1.385-.996-1.047zm-.329.007a1.272 1.272 0 1 0 0-2.544 1.272 1.272 0 0 0 0 2.544zm0-.17a1.103 1.103 0 1 0 0-2.205 1.103 1.103 0 0 0 0 2.206z"/>
    </g>
</svg>
