<svg xmlns="http://www.w3.org/2000/svg" width="16" height="16" viewBox="0 0 16 16">
    <g fill="none" fill-rule="evenodd">
        <circle cx="8" cy="8" r="8" fill="#FFF"/>
        <path fill="#E94B35" d="M13.963 13.333A7.98 7.98 0 0 1 8 16a7.98 7.98 0 0 1-5.963-2.667h11.926zm0-10.666A7.98 7.98 0 0 0 8 0a7.98 7.98 0 0 0-5.963 2.667h11.926z"/>
        <path fill="#FFF" d="M13.963 2.667A7.97 7.97 0 0 1 16 8a7.97 7.97 0 0 1-2.037 5.333H2.037A7.97 7.97 0 0 1 0 8a7.97 7.97 0 0 1 2.037-5.333h11.926z"/>
        <path fill="#346DA6" d="M15.545 10.667A7.987 7.987 0 0 0 16 8c0-.935-.16-1.833-.455-2.667H.455A7.987 7.987 0 0 0 0 8c0 .935.16 1.833.455 2.667h15.09z"/>
    </g>
</svg>
