<svg xmlns="http://www.w3.org/2000/svg" width="16" height="16" viewBox="0 0 16 16">
    <g fill="none" fill-rule="evenodd">
        <circle cx="8" cy="8" r="8" fill="#FFF"/>
        <path fill="#E94B35" d="M8 3.733h6.768A8.034 8.034 0 0 0 13.8 2.49H8v1.244zM8 0c1.577 0 3.048.456 4.287 1.244H8V0zm0 6.222h7.802a7.938 7.938 0 0 0-.393-1.244H8v1.244zM0 8c0 .24.01.477.031.711H15.97a8.103 8.103 0 0 0 .014-1.244H8V8H0zm15.76 1.956a7.94 7.94 0 0 1-.426 1.244H.666A7.94 7.94 0 0 1 .24 9.956h15.518zm-1.107 2.488a8.04 8.04 0 0 1-1.028 1.245H2.375a8.04 8.04 0 0 1-1.028-1.245h13.306zm-2.66 2.49A7.963 7.963 0 0 1 8 16a7.963 7.963 0 0 1-3.994-1.067h7.988z"/>
        <path fill="#00207F" d="M8 0a8 8 0 0 0-8 8h8V0z"/>
        <g fill="#FFF">
            <path d="M3.06 3.063l-.243.137.046-.29-.196-.204.27-.043.122-.263.121.263.271.043-.196.205.047.289zM3.06 4.486l-.243.136.046-.29-.196-.204.27-.042.122-.264.121.264.271.042-.196.205.047.29zM2.081 3.952l-.242.137.046-.29-.196-.205.271-.042.121-.263.122.263.27.042-.196.205.047.29zM1.992 5.286l-.242.136.046-.29-.196-.204.271-.042.121-.264.122.264.27.042-.195.205.046.29zM2.881 6.174l-.242.137.046-.29-.196-.204.271-.043.121-.263.122.263.27.043-.196.205.047.29zM1.992 6.708l-.242.136.046-.289L1.6 6.35l.271-.042.121-.264.122.264.27.042-.195.205.046.29zM1.015 5.997l-.243.136.046-.29-.196-.204.271-.042.122-.264.12.264.272.042-.196.205.046.29zM1.015 7.419l-.243.137.046-.29-.196-.205.271-.042.122-.263.12.263.272.042-.196.205.046.29zM3.06 7.419l-.243.137.046-.29-.196-.205.27-.042.122-.263.121.263.271.042-.196.205.047.29zM7.148 1.463l-.243.137.047-.29-.196-.204.27-.043L7.149.8l.121.263.271.043-.196.205.046.289zM7.148 2.886l-.243.136.047-.29-.196-.204.27-.042.122-.264.121.264.271.042-.196.205.046.29zM7.148 4.308l-.243.136.047-.289-.196-.205.27-.042.122-.264.121.264.271.042-.196.205.046.29zM7.148 5.73l-.243.137.047-.29-.196-.205.27-.042.122-.263.121.263.271.042-.196.205.046.29zM6.081 2.263L5.84 2.4l.046-.29-.196-.204.271-.043.121-.263.122.263.27.043-.196.205.047.289zM6.081 3.686l-.242.136.046-.29-.196-.204.271-.042.121-.264.122.264.27.042-.196.205.047.29zM6.081 5.108l-.242.136.046-.289-.196-.205.271-.042.121-.264.122.264.27.042-.196.205.047.29zM6.081 6.53l-.242.137.046-.29-.196-.205.271-.042.121-.263.122.263.27.042-.196.205.047.29zM7.148 7.241l-.243.137.047-.29-.196-.205.27-.042.122-.263.121.263.271.042-.196.205.046.29zM5.192 1.641l-.242.137.046-.29-.196-.205.271-.042.121-.263.122.263.27.042-.195.205.046.29zM5.192 3.063L4.95 3.2l.046-.29-.196-.204.271-.043.121-.263.122.263.27.043-.195.205.046.289zM5.192 4.486l-.242.136.046-.29-.196-.204.271-.042.121-.264.122.264.27.042-.195.205.046.29zM5.192 5.908l-.242.136.046-.289L4.8 5.55l.271-.042.121-.264.122.264.27.042-.195.205.046.29zM4.126 2.441l-.243.137.047-.29-.197-.205.271-.042.122-.263.121.263.271.042-.196.205.046.29zM4.126 3.863L3.883 4l.047-.29-.197-.204.271-.043.122-.263.121.263.271.043-.196.205.046.289zM4.126 5.286l-.243.136.047-.29-.197-.204.271-.042.122-.264.121.264.271.042-.196.205.046.29zM4.126 6.708l-.243.136.047-.289-.197-.205.271-.042.122-.264.121.264.271.042-.196.205.046.29zM5.192 7.419l-.242.137.046-.29-.196-.205.271-.042.121-.263.122.263.27.042-.195.205.046.29z"/>
        </g>
    </g>
</svg>
