<svg width="13" height="13" viewBox="0 0 13 13" fill="none" xmlns="http://www.w3.org/2000/svg">
<path d="M7.875 0.953125C7.875 0.84375 7.82031 0.734375 7.73828 0.652344C7.65625 0.570312 7.54688 0.515625 7.4375 0.515625H0.4375C0.300781 0.515625 0.191406 0.570312 0.109375 0.652344C0.0273438 0.734375 0 0.84375 0 0.953125V2.04688C0 2.18359 0.0273438 2.29297 0.109375 2.375C0.191406 2.45703 0.300781 2.48438 0.4375 2.48438H7.4375C7.54688 2.48438 7.65625 2.45703 7.73828 2.375C7.82031 2.29297 7.875 2.18359 7.875 2.04688V0.953125ZM0 4.45312C0 4.34375 0.0273438 4.23438 0.109375 4.15234C0.191406 4.07031 0.300781 4.01562 0.4375 4.01562H11.8125C11.9219 4.01562 12.0312 4.07031 12.1133 4.15234C12.1953 4.23438 12.25 4.34375 12.25 4.45312V5.54688C12.25 5.68359 12.1953 5.79297 12.1133 5.875C12.0312 5.95703 11.9219 5.98438 11.8125 5.98438H0.4375C0.300781 5.98438 0.191406 5.95703 0.109375 5.875C0.0273438 5.79297 0 5.68359 0 5.54688V4.45312ZM0.4375 12.9844C0.300781 12.9844 0.191406 12.957 0.109375 12.875C0.0273438 12.793 0 12.6836 0 12.5469V11.4531C0 11.3438 0.0273438 11.2344 0.109375 11.1523C0.191406 11.0703 0.300781 11.0156 0.4375 11.0156H11.8125C11.9219 11.0156 12.0312 11.0703 12.1133 11.1523C12.1953 11.2344 12.25 11.3438 12.25 11.4531V12.5469C12.25 12.6836 12.1953 12.793 12.1133 12.875C12.0312 12.957 11.9219 12.9844 11.8125 12.9844H0.4375ZM7.4375 7.51562C7.54688 7.51562 7.65625 7.57031 7.73828 7.65234C7.82031 7.73438 7.875 7.84375 7.875 7.95312V9.04688C7.875 9.18359 7.82031 9.29297 7.73828 9.375C7.65625 9.45703 7.54688 9.48438 7.4375 9.48438H0.4375C0.300781 9.48438 0.191406 9.45703 0.109375 9.375C0.0273438 9.29297 0 9.18359 0 9.04688V7.95312C0 7.84375 0.0273438 7.73438 0.109375 7.65234C0.191406 7.57031 0.300781 7.51562 0.4375 7.51562H7.4375Z" fill="#0076BF"/>
</svg>
