<svg width="30" height="36" viewBox="0 0 30 36" fill="none" xmlns="http://www.w3.org/2000/svg">
<path d="M19.8134 2H4.2659C3.83304 2 3.48215 2.35089 3.48215 3.03179V31.4643C3.48215 31.6491 3.83304 32 4.2659 32H25.7341C26.167 32 26.5179 31.6491 26.5179 31.4643V8.9525C26.5179 8.57964 26.468 8.45964 26.3802 8.37125L20.1466 2.13768C20.0582 2.04982 19.9382 2 19.8134 2Z" fill="white"/>
<path d="M25.7341 32H4.2659C3.83304 32 3.48215 31.6491 3.48215 31.2163V22.8929H26.5179V31.2163C26.5179 31.6491 26.167 32 25.7341 32Z" fill="#F2C94C"/>
<path d="M10.7502 30.3929L12.6396 25.002H13.5113L15.3868 30.3929H14.4788L14.0904 29.2721H12.0616L11.6657 30.3929H10.7502ZM12.2663 28.6791H13.8777L13.0795 26.3498L12.2663 28.6791Z" fill="white"/>
<path d="M17.43 30.3929H16.5364V24.995H17.43V30.3929Z" fill="white"/>
<path d="M20.0893 7.89286V8.13982C18.4441 8.6584 17.1413 9.95161 16.6061 11.5898C16.238 11.2925 15.7768 11.1071 15.2679 11.1071C14.272 11.1071 13.4405 11.7929 13.2011 12.7143H11.5179V11.6429H8.30358V14.8571H11.5179V13.7857H13.0827C12.9027 15.2123 12.0193 16.4525 10.7314 17.0873C10.3736 16.4021 9.6643 15.9286 8.8393 15.9286C7.65751 15.9286 6.69644 16.8896 6.69644 18.0714C6.69644 19.2532 7.65751 20.2143 8.8393 20.2143C9.98894 20.2143 10.9222 19.3025 10.9725 18.1652C12.3948 17.5486 13.462 16.3507 13.9318 14.9118C14.2993 15.208 14.76 15.3929 15.2679 15.3929C16.2638 15.3929 17.0952 14.7071 17.3347 13.7857H19.0179V14.8571H22.2322V11.6429H19.0179V12.7143H17.4477C17.6507 11.097 18.757 9.76036 20.2452 9.2225C20.5623 10.0116 21.3311 10.5714 22.2322 10.5714C23.4139 10.5714 24.375 9.61036 24.375 8.42857V7.89286H20.0893ZM10.4464 13.7857H9.37501V12.7143H10.4464V13.7857ZM8.8393 19.1429C8.24841 19.1429 7.76787 18.6623 7.76787 18.0714C7.76787 17.4805 8.24841 17 8.8393 17C9.43019 17 9.91073 17.4805 9.91073 18.0714C9.91073 18.6623 9.43019 19.1429 8.8393 19.1429ZM20.0893 12.7143H21.1607V13.7857H20.0893V12.7143ZM15.2679 14.3214C14.677 14.3214 14.1964 13.8409 14.1964 13.25C14.1964 12.6591 14.677 12.1786 15.2679 12.1786C15.8588 12.1786 16.3393 12.6591 16.3393 13.25C16.3393 13.8409 15.8588 14.3214 15.2679 14.3214ZM22.2322 9.5C21.8448 9.5 21.5073 9.29161 21.3193 8.98357C21.4436 8.97232 21.5689 8.96429 21.6964 8.96429H23.1595C22.9747 9.28411 22.628 9.5 22.2322 9.5Z" fill="#BDBDBD"/>
<path d="M20.0893 2.08089V8.42857H26.437L20.0893 2.08089Z" fill="#D9D7CA"/>
<defs>
<filter id="filter0_d" x="-3" y="0" width="36" height="36" filterUnits="userSpaceOnUse" color-interpolation-filters="sRGB">
<feFlood flood-opacity="0" result="BackgroundImageFix"/>
<feColorMatrix in="SourceAlpha" type="matrix" values="0 0 0 0 0 0 0 0 0 0 0 0 0 0 0 0 0 0 127 0"/>
<feOffset dy="1"/>
<feGaussianBlur stdDeviation="1.5"/>
<feColorMatrix type="matrix" values="0 0 0 0 0 0 0 0 0 0 0 0 0 0 0 0 0 0 0.25 0"/>
<feBlend mode="normal" in2="BackgroundImageFix" result="effect1_dropShadow"/>
<feBlend mode="normal" in="SourceGraphic" in2="effect1_dropShadow" result="shape"/>
</filter>
</defs>
</svg>
