<svg width="18" height="25" viewBox="0 0 18 25" fill="none" xmlns="http://www.w3.org/2000/svg">
<g clip-path="url(#clip0)">
<path d="M1.45576 7.78255H1.68332V19.8205C1.68332 20.593 1.9902 21.3339 2.53645 21.8801C3.0827 22.4264 3.82357 22.7332 4.59609 22.7332H13.4027C14.1752 22.7332 14.9161 22.4264 15.4623 21.8801C16.0086 21.3339 16.3154 20.593 16.3154 19.8205V7.78255H16.543C16.7351 7.78563 16.9259 7.75006 17.1039 7.67796C17.282 7.60585 17.4438 7.49869 17.5797 7.36284C17.7155 7.22698 17.8227 7.06521 17.8948 6.88712C17.9669 6.70903 18.0024 6.51827 17.9994 6.32617V3.95954C18.0024 3.76744 17.9669 3.57668 17.8948 3.39859C17.8227 3.22051 17.7155 3.05873 17.5797 2.92288C17.4438 2.78702 17.282 2.67986 17.1039 2.60776C16.9259 2.53566 16.7351 2.50009 16.543 2.50316H12.9475V1.59292C12.9417 1.17228 12.7719 0.770527 12.4745 0.473063C12.177 0.175598 11.7753 0.0058839 11.3546 0H6.64413C6.22349 0.0058839 5.82174 0.175598 5.52427 0.473063C5.22681 0.770527 5.05709 1.17228 5.05121 1.59292V2.50316H1.45576C1.26366 2.50009 1.07289 2.53566 0.894808 2.60776C0.716723 2.67986 0.554946 2.78702 0.419091 2.92288C0.283236 3.05873 0.176074 3.22051 0.103973 3.39859C0.031871 3.57668 -0.00369941 3.76744 -0.000625161 3.95954V6.32617C-0.000625161 6.71243 0.152815 7.08286 0.42594 7.35599C0.699065 7.62911 1.0695 7.78255 1.45576 7.78255ZM15.1549 19.8205C15.1579 20.0514 15.1147 20.2807 15.0277 20.4946C14.9408 20.7086 14.8118 20.903 14.6485 21.0663C14.4852 21.2296 14.2908 21.3586 14.0768 21.4455C13.8628 21.5325 13.6336 21.5758 13.4027 21.5727H4.59609C4.36514 21.5758 4.13591 21.5325 3.92194 21.4455C3.70797 21.3586 3.51359 21.2296 3.35027 21.0663C3.18695 20.903 3.058 20.7086 2.97102 20.4946C2.88405 20.2807 2.84082 20.0514 2.84388 19.8205V7.78255H15.1549V19.8205ZM6.21176 1.59292C6.21728 1.48003 6.2646 1.37323 6.34452 1.29332C6.42444 1.2134 6.53124 1.16607 6.64413 1.16056H11.3319C11.4448 1.16607 11.5516 1.2134 11.6315 1.29332C11.7114 1.37323 11.7587 1.48003 11.7642 1.59292V2.50316H6.21176V1.59292ZM1.15993 3.95954C1.15646 3.91982 1.16172 3.87982 1.17536 3.84235C1.189 3.80488 1.21068 3.77085 1.23887 3.74266C1.26707 3.71446 1.3011 3.69279 1.33857 3.67915C1.37604 3.66551 1.41604 3.66024 1.45576 3.66372H16.543C16.5827 3.66024 16.6227 3.66551 16.6602 3.67915C16.6977 3.69279 16.7317 3.71446 16.7599 3.74266C16.7881 3.77085 16.8098 3.80488 16.8234 3.84235C16.837 3.87982 16.8423 3.91982 16.8388 3.95954V6.32617C16.8423 6.36589 16.837 6.40589 16.8234 6.44336C16.8098 6.48083 16.7881 6.51486 16.7599 6.54306C16.7317 6.57125 16.6977 6.59293 16.6602 6.60657C16.6227 6.62021 16.5827 6.62547 16.543 6.622H1.45576C1.41604 6.62547 1.37604 6.62021 1.33857 6.60657C1.3011 6.59293 1.26707 6.57125 1.23887 6.54306C1.21068 6.51486 1.189 6.48083 1.17536 6.44336C1.16172 6.40589 1.15646 6.36589 1.15993 6.32617V3.95954Z" fill="#666666"/>
<path d="M12.5613 10.2856H11.4008V18.7645H12.5613V10.2856Z" fill="#666666"/>
<path d="M9.58028 10.2856H8.41972V18.7645H9.58028V10.2856Z" fill="#666666"/>
<path d="M6.59925 10.2856H5.43869V18.7645H6.59925V10.2856Z" fill="#666666"/>
</g>
<defs>
<clipPath id="clip0">
<rect width="18" height="22.7332" fill="white"/>
</clipPath>
</defs>
</svg>
