<svg width="24" height="30" viewBox="0 0 24 30" fill="none" xmlns="http://www.w3.org/2000/svg">
<path d="M16.8134 0H1.2659C0.83304 0 0.482147 0.350893 0.482147 1.03179V29.4643C0.482147 29.6491 0.83304 30 1.2659 30H22.7341C23.167 30 23.5179 29.6491 23.5179 29.4643V6.9525C23.5179 6.57964 23.468 6.45964 23.3802 6.37125L17.1466 0.137679C17.0582 0.0498214 16.9382 0 16.8134 0Z" fill="white"/>
<path d="M17.0893 0.0808907V6.42857H23.437L17.0893 0.0808907Z" fill="#D9D7CA"/>
<path d="M6.91071 6.96428H3.69642C3.40071 6.96428 3.16071 6.72428 3.16071 6.42857C3.16071 6.13286 3.40071 5.89286 3.69642 5.89286H6.91071C7.20642 5.89286 7.44642 6.13286 7.44642 6.42857C7.44642 6.72428 7.20642 6.96428 6.91071 6.96428Z" fill="#8697CB"/>
<path d="M8.51785 9.64286H3.69642C3.40071 9.64286 3.16071 9.40286 3.16071 9.10714C3.16071 8.81143 3.40071 8.57143 3.69642 8.57143H8.51785C8.81356 8.57143 9.05356 8.81143 9.05356 9.10714C9.05356 9.40286 8.81356 9.64286 8.51785 9.64286Z" fill="#8697CB"/>
<path d="M10.6607 9.64286C10.5214 9.64286 10.3821 9.58393 10.2804 9.4875C10.1839 9.38571 10.125 9.24643 10.125 9.10714C10.125 8.96786 10.1839 8.82857 10.2804 8.72679C10.4786 8.52857 10.8429 8.52857 11.0411 8.72679C11.1375 8.82857 11.1964 8.96786 11.1964 9.10714C11.1964 9.24643 11.1375 9.38571 11.0411 9.4875C10.9393 9.58393 10.8 9.64286 10.6607 9.64286Z" fill="#8697CB"/>
<path d="M17.0893 9.64286H12.8036C12.5079 9.64286 12.2679 9.40286 12.2679 9.10714C12.2679 8.81143 12.5079 8.57143 12.8036 8.57143H17.0893C17.385 8.57143 17.625 8.81143 17.625 9.10714C17.625 9.40286 17.385 9.64286 17.0893 9.64286Z" fill="#8697CB"/>
<path d="M3.69642 17.6786C3.55713 17.6786 3.41785 17.6196 3.31606 17.5232C3.21963 17.4214 3.16071 17.2821 3.16071 17.1429C3.16071 17.0036 3.21963 16.8643 3.31606 16.7625C3.51428 16.5643 3.87856 16.5643 4.07678 16.7625C4.17321 16.8643 4.23213 16.9982 4.23213 17.1429C4.23213 17.2821 4.17321 17.4214 4.07678 17.5232C3.97499 17.6196 3.83571 17.6786 3.69642 17.6786Z" fill="#8697CB"/>
<path d="M10.125 17.6786H5.8393C5.54359 17.6786 5.30359 17.4386 5.30359 17.1429C5.30359 16.8471 5.54359 16.6071 5.8393 16.6071H10.125C10.4207 16.6071 10.6607 16.8471 10.6607 17.1429C10.6607 17.4386 10.4207 17.6786 10.125 17.6786Z" fill="#8697CB"/>
<path d="M20.3036 9.64286H19.2322C18.9364 9.64286 18.6964 9.40286 18.6964 9.10714C18.6964 8.81143 18.9364 8.57143 19.2322 8.57143H20.3036C20.5993 8.57143 20.8393 8.81143 20.8393 9.10714C20.8393 9.40286 20.5993 9.64286 20.3036 9.64286Z" fill="#8697CB"/>
<path d="M15.4821 12.3214H3.69642C3.40071 12.3214 3.16071 12.0814 3.16071 11.7857C3.16071 11.49 3.40071 11.25 3.69642 11.25H15.4821C15.7778 11.25 16.0178 11.49 16.0178 11.7857C16.0178 12.0814 15.7778 12.3214 15.4821 12.3214Z" fill="#8697CB"/>
<path d="M20.3036 12.3214H17.0893C16.7936 12.3214 16.5536 12.0814 16.5536 11.7857C16.5536 11.49 16.7936 11.25 17.0893 11.25H20.3036C20.5993 11.25 20.8393 11.49 20.8393 11.7857C20.8393 12.0814 20.5993 12.3214 20.3036 12.3214Z" fill="#8697CB"/>
<path d="M5.83928 15H3.69642C3.40071 15 3.16071 14.76 3.16071 14.4643C3.16071 14.1686 3.40071 13.9286 3.69642 13.9286H5.83928C6.13499 13.9286 6.37499 14.1686 6.37499 14.4643C6.37499 14.76 6.13499 15 5.83928 15Z" fill="#8697CB"/>
<path d="M13.3393 15H7.98216C7.68644 15 7.44644 14.76 7.44644 14.4643C7.44644 14.1686 7.68644 13.9286 7.98216 13.9286H13.3393C13.635 13.9286 13.875 14.1686 13.875 14.4643C13.875 14.76 13.635 15 13.3393 15Z" fill="#8697CB"/>
<path d="M20.3036 15H15.4822C15.1864 15 14.9464 14.76 14.9464 14.4643C14.9464 14.1686 15.1864 13.9286 15.4822 13.9286H20.3036C20.5993 13.9286 20.8393 14.1686 20.8393 14.4643C20.8393 14.76 20.5993 15 20.3036 15Z" fill="#8697CB"/>
<path d="M22.7341 30H1.2659C0.83304 30 0.482147 29.6491 0.482147 29.2163V20.8929H23.5179V29.2163C23.5179 29.6491 23.167 30 22.7341 30Z" fill="#0096E6"/>
<path d="M9.58928 25.5439C9.58928 25.988 9.5416 26.3679 9.44625 26.6829C9.35089 26.9979 9.23035 27.2614 9.08357 27.4741C8.93678 27.6868 8.77232 27.8539 8.5891 27.9761C8.40589 28.0982 8.2291 28.1893 8.05821 28.2509C7.88732 28.312 7.73089 28.3511 7.58946 28.3682C7.44803 28.3843 7.34303 28.3929 7.275 28.3929H5.23178V22.995H6.85714C7.31142 22.995 7.71053 23.0673 8.05446 23.2109C8.39839 23.3545 8.68446 23.5468 8.9116 23.7857C9.13875 24.0246 9.30803 24.2973 9.42053 24.6021C9.53303 24.9075 9.58928 25.2214 9.58928 25.5439ZM6.98196 27.7484C7.57767 27.7484 8.00732 27.5582 8.27089 27.1773C8.53446 26.7964 8.66625 26.2446 8.66625 25.522C8.66625 25.2975 8.63946 25.0752 8.58589 24.8555C8.53178 24.6359 8.42839 24.4371 8.27464 24.2588C8.12089 24.0804 7.91196 23.9363 7.64839 23.8264C7.38482 23.7166 7.04303 23.6614 6.62303 23.6614H6.11035V27.7484H6.98196Z" fill="white"/>
<path d="M14.933 25.6682C14.933 26.1225 14.8757 26.5227 14.7611 26.8693C14.6464 27.2159 14.4873 27.5041 14.2848 27.7334C14.0823 27.9632 13.8455 28.1363 13.5745 28.2536C13.3034 28.3709 13.0066 28.4293 12.6846 28.4293C12.3627 28.4293 12.0659 28.3709 11.7948 28.2536C11.5237 28.1363 11.287 27.9632 11.0845 27.7334C10.882 27.5036 10.7229 27.2159 10.6082 26.8693C10.4936 26.5227 10.4362 26.122 10.4362 25.6682C10.4362 25.2145 10.4936 24.8148 10.6082 24.4709C10.7229 24.1264 10.8814 23.8398 11.0845 23.6105C11.287 23.3807 11.5237 23.2066 11.7948 23.0866C12.0659 22.9666 12.3627 22.9071 12.6846 22.9071C13.0066 22.9071 13.3034 22.9666 13.5745 23.0866C13.8455 23.2066 14.0823 23.3807 14.2848 23.6105C14.4873 23.8404 14.6459 24.127 14.7611 24.4709C14.8752 24.8148 14.933 25.2139 14.933 25.6682ZM12.6621 27.712C12.8427 27.712 13.0146 27.6766 13.1786 27.6059C13.342 27.5352 13.4888 27.4189 13.6179 27.2582C13.747 27.097 13.8488 26.8859 13.9216 26.6245C13.9945 26.363 14.0336 26.0448 14.0389 25.6688C14.0341 25.3023 13.9961 24.9911 13.9254 24.735C13.8546 24.4784 13.7571 24.2673 13.6323 24.1012C13.5075 23.9352 13.3661 23.8157 13.2075 23.7423C13.0489 23.6689 12.8818 23.6325 12.7055 23.6325C12.525 23.6325 12.3525 23.6663 12.1891 23.7348C12.0252 23.8034 11.8789 23.9191 11.7498 24.0825C11.6202 24.2464 11.5189 24.457 11.4461 24.7163C11.3732 24.9755 11.3336 25.2921 11.3287 25.6682C11.3336 26.0346 11.3716 26.347 11.4423 26.6057C11.513 26.8645 11.6105 27.0755 11.7354 27.2395C11.8602 27.4034 12.0016 27.5223 12.1602 27.5984C12.3193 27.6739 12.4864 27.712 12.6621 27.712Z" fill="white"/>
<path d="M19.8252 27.8438C19.6248 28.0388 19.3977 28.1855 19.1443 28.283C18.8904 28.3811 18.6171 28.4293 18.3241 28.4293C18.0016 28.4293 17.7054 28.3709 17.4343 28.2536C17.1632 28.1363 16.9264 27.9632 16.7239 27.7334C16.5214 27.5036 16.3623 27.2159 16.2477 26.8693C16.133 26.5227 16.0757 26.122 16.0757 25.6682C16.0757 25.2145 16.133 24.8148 16.2477 24.4709C16.3623 24.1264 16.5209 23.8398 16.7239 23.6105C16.9264 23.3807 17.1643 23.2066 17.438 23.0866C17.7112 22.9666 18.007 22.9071 18.3241 22.9071C18.6171 22.9071 18.8904 22.9559 19.1443 23.0534C19.3982 23.1514 19.6248 23.2977 19.8252 23.4927L19.2171 24.0348C19.095 23.8929 18.9595 23.7905 18.8105 23.7273C18.6616 23.6641 18.5068 23.632 18.3455 23.632C18.165 23.632 17.9925 23.6657 17.8291 23.7343C17.6652 23.8029 17.5189 23.9186 17.3898 24.082C17.2602 24.2459 17.1589 24.4564 17.0861 24.7157C17.0132 24.975 16.9736 25.2916 16.9687 25.6677C16.9736 26.0341 17.0116 26.3464 17.0823 26.6052C17.153 26.8639 17.2505 27.075 17.3754 27.2389C17.5002 27.4029 17.6416 27.5218 17.8002 27.5979C17.9587 27.6739 18.1259 27.7114 18.3021 27.7114C18.4784 27.7114 18.6429 27.6793 18.7966 27.6161C18.9504 27.5529 19.0907 27.45 19.2177 27.3086L19.8252 27.8438Z" fill="white"/>
</svg>
