<svg width="18" height="23" viewBox="0 0 18 23" fill="none" xmlns="http://www.w3.org/2000/svg">
<path fill-rule="evenodd" clip-rule="evenodd" 
d="M5.98808 13.2594C6.06226 13.3407 6.15257 13.4056 6.25324 13.45C6.35392 13.4944 6.46275 13.5174 6.57279 13.5174C6.68283 13.5174 6.79166 13.4944 6.89233 13.45C6.99301 13.4056 7.08332 13.3407 7.15749 13.2594L11.6193 8.72564C12.4109 7.93403 11.2235 6.74663 10.4319 7.53823L7.78718 10.1829C7.57129 10.3988 7.39138 10.3268 7.39138 10.021V0.845577C7.39377 0.735393 7.37414 0.625839 7.33362 0.523346C7.2931 0.420853 7.23252 0.327484 7.15544 0.24872C7.07835 0.169956 6.9863 0.107383 6.88471 0.064672C6.78311 0.0219614 6.674 -2.60223e-05 6.56379 2.31121e-08C6.33953 2.31121e-08 6.12445 0.0890874 5.96588 0.247664C5.8073 0.40624 5.71821 0.621316 5.71821 0.845577V10.021C5.71821 10.3268 5.5383 10.3988 5.32241 10.1829L2.69573 7.53823C1.90412 6.74663 0.716715 7.93403 1.50832 8.72564L5.98808 13.2594ZM12.159 16.3178H0.968589C0.848441 16.3002 0.725897 16.3086 0.609295 16.3425C0.492693 16.3765 0.384768 16.4351 0.292863 16.5145C0.200959 16.5939 0.12723 16.6921 0.0766939 16.8025C0.0261579 16.913 0 17.033 0 17.1544C0 17.2759 0.0261579 17.3959 0.0766939 17.5063C0.12723 17.6167 0.200959 17.715 0.292863 17.7944C0.384768 17.8737 0.492693 17.9324 0.609295 17.9663C0.725897 18.0003 0.848441 18.0087 0.968589 17.991H12.159C12.2791 18.0087 12.4017 18.0003 12.5183 17.9663C12.6349 17.9324 12.7428 17.8737 12.8347 17.7944C12.9266 17.715 13.0004 17.6167 13.0509 17.5063C13.1014 17.3959 13.1276 17.2759 13.1276 17.1544C13.1276 17.033 13.1014 16.913 13.0509 16.8025C13.0004 16.6921 12.9266 16.5939 12.8347 16.5145C12.7428 16.4351 12.6349 16.3765 12.5183 16.3425C12.4017 16.3086 12.2791 16.3002 12.159 16.3178Z" fill="#333333"/>
</svg>
