<svg width="30" height="36" viewBox="0 0 30 36" fill="none" xmlns="http://www.w3.org/2000/svg">
<path d="M19.8134 2H4.2659C3.83304 2 3.48215 2.35089 3.48215 3.03179V31.4643C3.48215 31.6491 3.83304 32 4.2659 32H25.7341C26.167 32 26.5179 31.6491 26.5179 31.4643V8.9525C26.5179 8.57964 26.468 8.45964 26.3802 8.37125L20.1466 2.13768C20.0582 2.04982 19.9382 2 19.8134 2Z" fill="white"/>
<path d="M20.0893 2.08089V8.42857H26.437L20.0893 2.08089Z" fill="#D9D7CA"/>
<path d="M25.7341 32H4.2659C3.83304 32 3.48215 31.6491 3.48215 31.2163V22.8929H26.5179V31.2163C26.5179 31.6491 26.167 32 25.7341 32Z" fill="#EC6630"/>
<path d="M9.3509 24.995V30.3929H8.4718V27.9613H6.13555V30.3929H5.24197V24.995H6.13555V27.3607H8.4718V24.995H9.3509V24.995Z" fill="white"/>
<path d="M14.5216 24.995V25.5955H12.9107V30.3929H12.0247V25.5955H10.4132V24.995H14.5216Z" fill="white"/>
<path d="M19.6634 24.995H20.557V30.3929H19.6634V26.6793L18.4548 29.682H17.6786L16.4625 26.6793V30.3929H15.5689V24.995H16.4625L18.0664 28.6866L19.6634 24.995Z" fill="white"/>
<path d="M22.8054 24.995V29.7264H25.2884V30.3929H21.9118V24.995H22.8054Z" fill="white"/>
<path d="M12.4323 10.7284C12.2229 10.5189 11.8843 10.5189 11.6748 10.7284L8.46053 13.9427C8.25107 14.1521 8.25107 14.4907 8.46053 14.7002L11.6748 17.9145C11.7793 18.0189 11.9164 18.0714 12.0536 18.0714C12.1907 18.0714 12.3279 18.0189 12.4323 17.9145C12.6418 17.705 12.6418 17.3664 12.4323 17.157L9.59678 14.3214L12.4323 11.4859C12.6418 11.2764 12.6418 10.9379 12.4323 10.7284Z" fill="#EC6630"/>
<path d="M22.0752 13.9427L18.8609 10.7284C18.6514 10.5189 18.3129 10.5189 18.1034 10.7284C17.8939 10.9379 17.8939 11.2764 18.1034 11.4859L20.9389 14.3214L18.1034 17.157C17.8939 17.3664 17.8939 17.705 18.1034 17.9145C18.2079 18.0189 18.345 18.0714 18.4821 18.0714C18.6193 18.0714 18.7564 18.0189 18.8609 17.9145L22.0752 14.7002C22.2846 14.4907 22.2846 14.1521 22.0752 13.9427Z" fill="#EC6630"/>
<defs>
<filter id="filter0_d" x="-3" y="0" width="36" height="36" filterUnits="userSpaceOnUse" color-interpolation-filters="sRGB">
<feFlood flood-opacity="0" result="BackgroundImageFix"/>
<feColorMatrix in="SourceAlpha" type="matrix" values="0 0 0 0 0 0 0 0 0 0 0 0 0 0 0 0 0 0 127 0"/>
<feOffset dy="1"/>
<feGaussianBlur stdDeviation="1.5"/>
<feColorMatrix type="matrix" values="0 0 0 0 0 0 0 0 0 0 0 0 0 0 0 0 0 0 0.25 0"/>
<feBlend mode="normal" in2="BackgroundImageFix" result="effect1_dropShadow"/>
<feBlend mode="normal" in="SourceGraphic" in2="effect1_dropShadow" result="shape"/>
</filter>
</defs>
</svg>
