<svg width="32" height="38" viewBox="0 0 32 38" fill="none" xmlns="http://www.w3.org/2000/svg">
<path d="M20.8134 0H5.2659C4.83304 0 4.48215 0.350893 4.48215 1.03179V29.4643C4.48215 29.6491 4.83304 30 5.2659 30H26.7341C27.167 30 27.5179 29.6491 27.5179 29.4643V6.9525C27.5179 6.57964 27.468 6.45964 27.3802 6.37125L21.1466 0.137679C21.0582 0.0498214 20.9382 0 20.8134 0Z" fill="white"/>
<path d="M21.0893 0.0808716V6.42855H27.437L21.0893 0.0808716Z" fill="#D9D7CA"/>
<path d="M11.1416 10.1786C12.4934 10.1786 13.5893 9.0827 13.5893 7.73088C13.5893 6.37907 12.4934 5.2832 11.1416 5.2832C9.7898 5.2832 8.69394 6.37907 8.69394 7.73088C8.69394 9.0827 9.7898 10.1786 11.1416 10.1786Z" fill="#F3D55B"/>
<path d="M4.48215 20.8929H10.375H27.5179V15L22.1607 9.91071L16.5357 16.0714L13.5984 13.1341L4.48215 20.8929Z" fill="#26B99A"/>
<path d="M26.7341 30H5.2659C4.83304 30 4.48215 29.6491 4.48215 29.2163V20.8929H27.5179V29.2163C27.5179 29.6491 27.167 30 26.7341 30Z" fill="#14A085"/>
<path d="M12.4782 22.8482V27.0525C12.4782 27.3064 12.4316 27.5202 12.3389 27.6932C12.2463 27.8662 12.1214 28.0055 11.9655 28.1105C11.8091 28.2155 11.6296 28.2889 11.4271 28.3302C11.2241 28.372 11.0157 28.3928 10.8009 28.3928C10.6932 28.3928 10.5673 28.3816 10.4238 28.3596C10.2796 28.3377 10.1307 28.3039 9.97697 28.2573C9.82322 28.2107 9.67536 28.1582 9.53393 28.0998C9.39197 28.0414 9.2725 27.9755 9.175 27.9021L9.5484 27.3091C9.59715 27.3428 9.66679 27.3787 9.75732 27.4152C9.84732 27.4516 9.94643 27.4859 10.0541 27.5175C10.1613 27.5496 10.2738 27.577 10.3911 27.6016C10.5084 27.6262 10.6182 27.638 10.7205 27.638C10.9793 27.638 11.1855 27.5877 11.3393 27.488C11.493 27.3884 11.5745 27.218 11.5846 26.9791V22.8482H12.4782Z" fill="white"/>
<path d="M14.6682 28.3564H13.7891V22.958H15.3416C15.5709 22.958 15.7981 22.9944 16.0225 23.0678C16.247 23.1412 16.4484 23.251 16.6268 23.3973C16.8052 23.5435 16.9493 23.7209 17.0591 23.9282C17.1689 24.1355 17.2241 24.3685 17.2241 24.6278C17.2241 24.9016 17.1775 25.1491 17.0848 25.3714C16.9922 25.5937 16.8625 25.7807 16.6964 25.9318C16.5304 26.0828 16.33 26.2002 16.0959 26.2832C15.8618 26.3662 15.6025 26.4075 15.3197 26.4075H14.6677V28.3564H14.6682ZM14.6682 23.625V25.7635H15.4739C15.5811 25.7635 15.6872 25.7453 15.7927 25.7084C15.8977 25.6719 15.9941 25.6119 16.082 25.5289C16.1698 25.4459 16.2406 25.3302 16.2941 25.1812C16.3477 25.0323 16.3745 24.848 16.3745 24.6284C16.3745 24.5405 16.3622 24.4387 16.3381 24.3246C16.3134 24.21 16.2636 24.1002 16.1881 23.9952C16.112 23.8902 16.0059 23.8023 15.8693 23.7316C15.7322 23.6603 15.5516 23.625 15.3272 23.625H14.6682Z" fill="white"/>
<path d="M22.1607 25.5729V27.66C22.0482 27.802 21.9229 27.9172 21.7836 28.0077C21.6443 28.0982 21.498 28.1727 21.3443 28.2311C21.1905 28.2895 21.032 28.3313 20.868 28.3554C20.7041 28.3811 20.5423 28.3929 20.3811 28.3929C20.0586 28.3929 19.7623 28.3345 19.4912 28.2172C19.2202 28.0998 18.9834 27.9268 18.7809 27.697C18.5784 27.4672 18.4193 27.1795 18.3046 26.8329C18.19 26.4863 18.1327 26.0855 18.1327 25.6318C18.1327 25.178 18.19 24.7784 18.3046 24.4345C18.4193 24.09 18.5779 23.8034 18.7809 23.5741C18.9834 23.3443 19.2212 23.1702 19.495 23.0502C19.7682 22.9302 20.0639 22.8707 20.3811 22.8707C20.6741 22.8707 20.9473 22.9195 21.2012 23.017C21.4552 23.115 21.6818 23.2613 21.8821 23.4563L21.2741 23.9984C21.1568 23.8564 21.0223 23.7541 20.8712 23.6909C20.7196 23.6277 20.5637 23.5955 20.4025 23.5955C20.222 23.5955 20.0495 23.6293 19.8861 23.6979C19.7221 23.7664 19.5759 23.8822 19.4468 24.0455C19.3171 24.2095 19.2159 24.42 19.143 24.6793C19.0702 24.9386 19.0305 25.2552 19.0257 25.6313C19.0305 25.9977 19.0686 26.3148 19.1393 26.5832C19.21 26.8516 19.3075 27.0713 19.4323 27.2422C19.5571 27.413 19.6986 27.54 19.8571 27.623C20.0157 27.7061 20.1829 27.7473 20.3591 27.7473C20.4127 27.7473 20.4845 27.7436 20.575 27.7361C20.665 27.7286 20.7555 27.7168 20.8461 27.6997C20.9361 27.6825 21.0229 27.6595 21.1059 27.63C21.1889 27.6005 21.25 27.5593 21.2891 27.5057V26.1729H20.3736V25.5723H22.1607V25.5729Z" fill="white"/>
<defs>
<filter id="filter0_d" x="-3" y="0" width="38" height="38" filterUnits="userSpaceOnUse" color-interpolation-filters="sRGB">
<feFlood flood-opacity="0" result="BackgroundImageFix"/>
<feColorMatrix in="SourceAlpha" type="matrix" values="0 0 0 0 0 0 0 0 0 0 0 0 0 0 0 0 0 0 127 0"/>
<feOffset dy="4"/>
<feGaussianBlur stdDeviation="2"/>
<feColorMatrix type="matrix" values="0 0 0 0 0 0 0 0 0 0 0 0 0 0 0 0 0 0 0.25 0"/>
<feBlend mode="normal" in2="BackgroundImageFix" result="effect1_dropShadow"/>
<feBlend mode="normal" in="SourceGraphic" in2="effect1_dropShadow" result="shape"/>
</filter>
</defs>
</svg>
