<svg width="32" height="38" viewBox="0 0 32 38" fill="none" xmlns="http://www.w3.org/2000/svg">
<path d="M20.8134 0H5.26589C4.83304 0 4.48214 0.350893 4.48214 1.03179V29.4643C4.48214 29.6491 4.83304 30 5.26589 30H26.7341C27.167 30 27.5179 29.6491 27.5179 29.4643V6.9525C27.5179 6.57964 27.468 6.45964 27.3802 6.37125L21.1466 0.137679C21.0582 0.0498214 20.9382 0 20.8134 0Z" fill="white"/>
<path d="M21.0893 0.0808716V6.42855H27.437L21.0893 0.0808716Z" fill="#D9D7CA"/>
<path d="M11.4539 17.8521C11.2675 17.8521 11.0886 17.7916 10.9359 17.6775C10.3782 17.2591 10.3032 16.7935 10.3386 16.4764C10.4361 15.6043 11.5145 14.6914 13.5448 13.7614C14.3505 11.9957 15.1172 9.82015 15.5741 8.00247C15.0395 6.8389 14.5198 5.32925 14.8986 4.44372C15.0314 4.13354 15.197 3.89568 15.5061 3.79283C15.6282 3.75211 15.9368 3.70068 16.0504 3.70068C16.3204 3.70068 16.5577 4.04836 16.7259 4.26265C16.8839 4.46408 17.2423 4.89104 16.5261 7.90658C17.2482 9.398 18.2714 10.9173 19.2518 11.9576C19.9541 11.8307 20.5584 11.7659 21.0507 11.7659C21.8897 11.7659 22.398 11.9614 22.6054 12.3643C22.7768 12.6975 22.7066 13.0869 22.3964 13.5214C22.098 13.9387 21.6866 14.1594 21.2072 14.1594C20.5557 14.1594 19.7972 13.748 18.9513 12.9353C17.4314 13.253 15.6566 13.8198 14.222 14.4471C13.7741 15.3975 13.345 16.163 12.9454 16.7244C12.3963 17.4932 11.9227 17.8521 11.4539 17.8521ZM12.88 15.106C11.7352 15.7494 11.2686 16.2782 11.2348 16.576C11.2295 16.6253 11.215 16.755 11.4657 16.9468C11.5455 16.9216 12.0116 16.7089 12.88 15.106ZM20.1855 12.7264C20.6222 13.0623 20.7288 13.2321 21.0143 13.2321C21.1397 13.2321 21.497 13.2268 21.6625 12.9959C21.7423 12.8839 21.7734 12.8121 21.7857 12.7735C21.7198 12.7387 21.6325 12.668 21.1563 12.668C20.8857 12.6685 20.5455 12.6803 20.1855 12.7264ZM16.1838 9.20033C15.8007 10.5257 15.295 11.9566 14.7513 13.2525C15.8709 12.818 17.088 12.4387 18.2313 12.1703C17.508 11.3303 16.7854 10.2814 16.1838 9.20033ZM15.8586 4.66711C15.8061 4.68479 15.1461 5.60836 15.91 6.38997C16.4184 5.25693 15.8816 4.65961 15.8586 4.66711Z" fill="#CC4B4C"/>
<path d="M26.7341 30H5.26589C4.83304 30 4.48214 29.6491 4.48214 29.2163V20.8929H27.5179V29.2163C27.5179 29.6491 27.167 30 26.7341 30Z" fill="#CC4B4C"/>
<path d="M10.3134 28.3929H9.43428V22.995H10.9868C11.2161 22.995 11.4432 23.0314 11.6677 23.1048C11.8921 23.1782 12.0936 23.288 12.272 23.4343C12.4504 23.5805 12.5945 23.7579 12.7043 23.9652C12.8141 24.1725 12.8693 24.4055 12.8693 24.6648C12.8693 24.9386 12.8227 25.1861 12.73 25.4084C12.6373 25.6307 12.5077 25.8177 12.3416 25.9687C12.1755 26.1198 11.9752 26.2371 11.7411 26.3202C11.507 26.4032 11.2477 26.4445 10.9648 26.4445H10.3129V28.3929H10.3134ZM10.3134 23.6614V25.8H11.1191C11.2262 25.8 11.3323 25.7818 11.4378 25.7448C11.5428 25.7084 11.6393 25.6484 11.7271 25.5654C11.815 25.4823 11.8857 25.3666 11.9393 25.2177C11.9929 25.0687 12.0196 24.8845 12.0196 24.6648C12.0196 24.577 12.0073 24.4752 11.9832 24.3611C11.9586 24.2464 11.9087 24.1366 11.8332 24.0316C11.7571 23.9266 11.6511 23.8387 11.5145 23.768C11.3779 23.6973 11.1968 23.662 10.9723 23.662H10.3134V23.6614Z" fill="white"/>
<path d="M18.2602 25.5439C18.2602 25.988 18.2125 26.3679 18.1171 26.6829C18.0218 26.9979 17.9012 27.2614 17.7544 27.4741C17.6077 27.6868 17.4432 27.8539 17.26 27.9761C17.0768 28.0982 16.9 28.1893 16.7291 28.2509C16.5582 28.312 16.4018 28.3511 16.2603 28.3682C16.1189 28.3843 16.0139 28.3929 15.9453 28.3929H13.9021V22.995H15.528C15.9823 22.995 16.3814 23.0673 16.7253 23.2109C17.0693 23.3545 17.3553 23.5468 17.5825 23.7857C17.8096 24.0246 17.9789 24.2973 18.0914 24.6021C18.2039 24.9075 18.2602 25.2214 18.2602 25.5439ZM15.6528 27.7484C16.2486 27.7484 16.6782 27.5582 16.9418 27.1773C17.2053 26.7964 17.3371 26.2446 17.3371 25.522C17.3371 25.2975 17.3103 25.0752 17.2568 24.8555C17.2027 24.6359 17.0993 24.4371 16.9455 24.2587C16.7918 24.0804 16.5828 23.9362 16.3193 23.8264C16.0557 23.7166 15.7139 23.6614 15.2939 23.6614H14.7812V27.7484H15.6528Z" fill="white"/>
<path d="M20.4282 23.6614V25.3607H22.6841V25.9612H20.4282V28.3929H19.5346V22.995H22.9107V23.6614H20.4282Z" fill="white"/>
<defs>
<filter id="filter0_d" x="-3" y="0" width="38" height="38" filterUnits="userSpaceOnUse" color-interpolation-filters="sRGB">
<feFlood flood-opacity="0" result="BackgroundImageFix"/>
<feColorMatrix in="SourceAlpha" type="matrix" values="0 0 0 0 0 0 0 0 0 0 0 0 0 0 0 0 0 0 127 0"/>
<feOffset dy="4"/>
<feGaussianBlur stdDeviation="2"/>
<feColorMatrix type="matrix" values="0 0 0 0 0 0 0 0 0 0 0 0 0 0 0 0 0 0 0.25 0"/>
<feBlend mode="normal" in2="BackgroundImageFix" result="effect1_dropShadow"/>
<feBlend mode="normal" in="SourceGraphic" in2="effect1_dropShadow" result="shape"/>
</filter>
</defs>
</svg>
