<svg width="32" height="38" viewBox="0 0 32 38" fill="none" xmlns="http://www.w3.org/2000/svg">
<path d="M20.8134 0H5.2659C4.83304 0 4.48215 0.350893 4.48215 1.03179V29.4643C4.48215 29.6491 4.83304 30 5.2659 30H26.7341C27.167 30 27.5179 29.6491 27.5179 29.4643V6.9525C27.5179 6.57964 27.468 6.45964 27.3802 6.37125L21.1466 0.137679C21.0582 0.0498214 20.9382 0 20.8134 0Z" fill="white"/>
<path d="M26.7341 30H5.2659C4.83304 30 4.48215 29.6491 4.48215 29.2163V20.8929H27.5179V29.2163C27.5179 29.6491 27.167 30 26.7341 30Z" fill="#659C35"/>
<path d="M21.0893 0.0808716V6.42855H27.437L21.0893 0.0808716Z" fill="#D9D7CA"/>
<path d="M10.3134 28.3929H9.43428V22.995H10.9868C11.2161 22.995 11.4432 23.0314 11.6677 23.1048C11.8921 23.1782 12.0936 23.288 12.272 23.4343C12.4504 23.5805 12.5945 23.7579 12.7043 23.9652C12.8141 24.1725 12.8693 24.4055 12.8693 24.6648C12.8693 24.9386 12.8227 25.1861 12.73 25.4084C12.6373 25.6307 12.5077 25.8177 12.3416 25.9687C12.1755 26.1198 11.9752 26.2371 11.7411 26.3202C11.507 26.4032 11.2477 26.4445 10.9648 26.4445H10.3129V28.3929H10.3134ZM10.3134 23.6614V25.8H11.1191C11.2262 25.8 11.3323 25.7818 11.4379 25.7448C11.5429 25.7084 11.6393 25.6484 11.7271 25.5654C11.815 25.4823 11.8857 25.3666 11.9393 25.2177C11.9929 25.0687 12.0196 24.8845 12.0196 24.6648C12.0196 24.577 12.0073 24.4752 11.9832 24.3611C11.9586 24.2464 11.9087 24.1366 11.8332 24.0316C11.7571 23.9266 11.6511 23.8387 11.5145 23.768C11.3779 23.6973 11.1968 23.662 10.9723 23.662H10.3134V23.6614Z" fill="white"/>
<path d="M17.7764 22.995V28.3929H16.8828L14.7662 24.6723V28.3929H13.8727V22.995H14.7662L16.8828 26.7155V22.995H17.7764Z" fill="white"/>
<path d="M23.05 25.6098V27.697C22.9375 27.839 22.8122 27.9541 22.6729 28.0447C22.5336 28.1352 22.3873 28.2097 22.2336 28.2681C22.0798 28.3265 21.9207 28.3682 21.7573 28.3929C21.5934 28.4175 21.4316 28.4293 21.2704 28.4293C20.9479 28.4293 20.6516 28.3709 20.3805 28.2536C20.1095 28.1363 19.8727 27.9632 19.6702 27.7334C19.4677 27.5036 19.3086 27.2159 19.1939 26.8693C19.0793 26.5227 19.022 26.122 19.022 25.6682C19.022 25.2145 19.0793 24.8148 19.1939 24.4709C19.3086 24.1265 19.4672 23.8398 19.6702 23.6106C19.8727 23.3807 20.1105 23.2066 20.3843 23.0866C20.6575 22.9666 20.9532 22.9072 21.2704 22.9072C21.5634 22.9072 21.8366 22.9559 22.0905 23.0534C22.3445 23.1515 22.5711 23.2977 22.7714 23.4927L22.1634 24.0348C22.0461 23.8929 21.9116 23.7906 21.7605 23.7273C21.6089 23.6641 21.453 23.632 21.2918 23.632C21.1113 23.632 20.9388 23.6657 20.7754 23.7343C20.6114 23.8029 20.4652 23.9186 20.3361 24.082C20.2064 24.2459 20.1052 24.4565 20.0323 24.7157C19.9595 24.975 19.9198 25.2916 19.915 25.6677C19.9198 26.0341 19.9579 26.3513 20.0286 26.6197C20.0993 26.8881 20.1968 27.1077 20.3216 27.2786C20.4464 27.4495 20.5879 27.5765 20.7464 27.6595C20.905 27.7425 21.0722 27.7838 21.2484 27.7838C21.302 27.7838 21.3738 27.78 21.4643 27.7725C21.5543 27.765 21.6448 27.7532 21.7354 27.7361C21.8254 27.719 21.9122 27.6959 21.9952 27.6665C22.0782 27.637 22.1393 27.5957 22.1784 27.5422V26.2093H21.2629V25.6088H23.05V25.6098Z" fill="white"/>
<path d="M11.1416 10.1786C12.4934 10.1786 13.5893 9.0827 13.5893 7.73088C13.5893 6.37907 12.4934 5.2832 11.1416 5.2832C9.78977 5.2832 8.69391 6.37907 8.69391 7.73088C8.69391 9.0827 9.78977 10.1786 11.1416 10.1786Z" fill="#F3D55B"/>
<path d="M4.48215 20.8929H10.375H27.5179V15L22.1607 9.91071L16.5357 16.0714L13.5984 13.1341L4.48215 20.8929Z" fill="#88C057"/>
<defs>
<filter id="filter0_d" x="-3" y="0" width="38" height="38" filterUnits="userSpaceOnUse" color-interpolation-filters="sRGB">
<feFlood flood-opacity="0" result="BackgroundImageFix"/>
<feColorMatrix in="SourceAlpha" type="matrix" values="0 0 0 0 0 0 0 0 0 0 0 0 0 0 0 0 0 0 127 0"/>
<feOffset dy="4"/>
<feGaussianBlur stdDeviation="2"/>
<feColorMatrix type="matrix" values="0 0 0 0 0 0 0 0 0 0 0 0 0 0 0 0 0 0 0.25 0"/>
<feBlend mode="normal" in2="BackgroundImageFix" result="effect1_dropShadow"/>
<feBlend mode="normal" in="SourceGraphic" in2="effect1_dropShadow" result="shape"/>
</filter>
</defs>
</svg>
