<svg width="30" height="36" viewBox="0 0 30 36" fill="none" xmlns="http://www.w3.org/2000/svg">
<path d="M19.8134 2H4.2659C3.83304 2 3.48215 2.35089 3.48215 3.03179V31.4643C3.48215 31.6491 3.83304 32 4.2659 32H25.7341C26.167 32 26.5179 31.6491 26.5179 31.4643V8.9525C26.5179 8.57964 26.468 8.45964 26.3802 8.37125L20.1466 2.13768C20.0582 2.04982 19.9382 2 19.8134 2Z" fill="white"/>
<path d="M20.0893 2.08089V8.42857H26.437L20.0893 2.08089Z" fill="#D9D7CA"/>
<path d="M25.7341 32H4.2659C3.83304 32 3.48215 31.6491 3.48215 31.2163V22.8929H26.5179V31.2163C26.5179 31.6491 26.167 32 25.7341 32Z" fill="#F6712E"/>
<path d="M9.41838 30.3929H8.53928V24.995H10.0918C10.3211 24.995 10.5482 25.0314 10.7727 25.1048C10.9971 25.1782 11.1986 25.288 11.377 25.4343C11.5553 25.5805 11.6995 25.7579 11.8093 25.9652C11.9191 26.1725 11.9743 26.4055 11.9743 26.6648C11.9743 26.9386 11.9277 27.1861 11.835 27.4084C11.7423 27.6307 11.6127 27.8177 11.4466 27.9688C11.2805 28.1198 11.0802 28.2371 10.8461 28.3202C10.612 28.4032 10.3527 28.4445 10.0698 28.4445H9.41785V30.3929H9.41838ZM9.41838 25.6614V27.8H10.2241C10.3312 27.8 10.4373 27.7818 10.5428 27.7448C10.6478 27.7084 10.7443 27.6484 10.8321 27.5654C10.92 27.4823 10.9907 27.3666 11.0443 27.2177C11.0978 27.0688 11.1246 26.8845 11.1246 26.6648C11.1246 26.577 11.1123 26.4752 11.0882 26.3611C11.0636 26.2464 11.0137 26.1366 10.9382 26.0316C10.8621 25.9266 10.7561 25.8388 10.6195 25.768C10.4828 25.6973 10.3018 25.662 10.0773 25.662H9.41838V25.6614Z" fill="white"/>
<path d="M13.8498 30.3929H12.9707V24.995H14.5232C14.7525 24.995 14.9796 25.0314 15.2041 25.1048C15.4286 25.1782 15.63 25.288 15.8084 25.4343C15.9868 25.5805 16.1309 25.7579 16.2407 25.9652C16.3505 26.1725 16.4057 26.4055 16.4057 26.6648C16.4057 26.9386 16.3591 27.1861 16.2664 27.4084C16.1737 27.6307 16.0441 27.8177 15.878 27.9688C15.712 28.1198 15.5116 28.2371 15.2775 28.3202C15.0434 28.4032 14.7841 28.4445 14.5012 28.4445H13.8493V30.3929H13.8498ZM13.8498 25.6614V27.8H14.6555C14.7627 27.8 14.8687 27.7818 14.9743 27.7448C15.0793 27.7084 15.1757 27.6484 15.2636 27.5654C15.3514 27.4823 15.4221 27.3666 15.4757 27.2177C15.5293 27.0688 15.5561 26.8845 15.5561 26.6648C15.5561 26.577 15.5437 26.4752 15.5196 26.3611C15.495 26.2464 15.4452 26.1366 15.3696 26.0316C15.2936 25.9266 15.1875 25.8388 15.0509 25.768C14.9143 25.6973 14.7332 25.662 14.5087 25.662H13.8498V25.6614Z" fill="white"/>
<path d="M21.2175 24.995V25.5955H19.6061V30.3929H18.72V25.5955H17.1086V24.995H21.2175Z" fill="white"/>
<path d="M21.1607 18.0714H8.30359V9.5H21.1607V18.0714ZM9.37502 17H20.0893V10.5714H9.37502V17Z" fill="#BDBDBD"/>
<path d="M10.9816 20.75C10.8878 20.75 10.7925 20.7254 10.7062 20.6734C10.4523 20.5213 10.3703 20.1923 10.5225 19.9384L12.1296 17.2598C12.2818 17.0059 12.6107 16.9239 12.8646 17.0761C13.1186 17.2282 13.2005 17.5571 13.0484 17.8111L11.4412 20.4896C11.3411 20.6573 11.1637 20.75 10.9816 20.75Z" fill="#BDBDBD"/>
<path d="M18.4827 20.75C18.3005 20.75 18.1232 20.6573 18.023 20.4902L16.4159 17.8116C16.2637 17.5577 16.3457 17.2287 16.5996 17.0766C16.8536 16.925 17.1825 17.0064 17.3346 17.2604L18.9418 19.9389C19.0939 20.1929 19.012 20.5218 18.758 20.6739C18.6718 20.7254 18.5764 20.75 18.4827 20.75Z" fill="#BDBDBD"/>
<path d="M14.7322 10.5714C14.4364 10.5714 14.1964 10.332 14.1964 10.0357V8.42857C14.1964 8.13232 14.4364 7.89286 14.7322 7.89286C15.0279 7.89286 15.2679 8.13232 15.2679 8.42857V10.0357C15.2679 10.332 15.0279 10.5714 14.7322 10.5714Z" fill="#BDBDBD"/>
<path d="M20.0893 10.5714H9.375V17H20.0893V10.5714Z" fill="#E0E0E0"/>
<defs>
<filter id="filter0_d" x="-3" y="0" width="36" height="36" filterUnits="userSpaceOnUse" color-interpolation-filters="sRGB">
<feFlood flood-opacity="0" result="BackgroundImageFix"/>
<feColorMatrix in="SourceAlpha" type="matrix" values="0 0 0 0 0 0 0 0 0 0 0 0 0 0 0 0 0 0 127 0"/>
<feOffset dy="1"/>
<feGaussianBlur stdDeviation="1.5"/>
<feColorMatrix type="matrix" values="0 0 0 0 0 0 0 0 0 0 0 0 0 0 0 0 0 0 0.25 0"/>
<feBlend mode="normal" in2="BackgroundImageFix" result="effect1_dropShadow"/>
<feBlend mode="normal" in="SourceGraphic" in2="effect1_dropShadow" result="shape"/>
</filter>
</defs>
</svg>
