<svg width="24" height="30" viewBox="0 0 24 30" fill="none" xmlns="http://www.w3.org/2000/svg">
<path d="M16.8134 0H1.2659C0.83304 0 0.482147 0.350893 0.482147 1.03179V29.4643C0.482147 29.6491 0.83304 30 1.2659 30H22.7341C23.167 30 23.5179 29.6491 23.5179 29.4643V6.9525C23.5179 6.57964 23.468 6.45964 23.3802 6.37125L17.1466 0.137679C17.0582 0.0498214 16.9382 0 16.8134 0Z" fill="white"/>
<path d="M17.0893 0.0808945V6.42857H23.437L17.0893 0.0808945Z" fill="#D9D7CA"/>
<path d="M22.7341 30H1.2659C0.83304 30 0.482147 29.6491 0.482147 29.2163V20.8929H23.5179V29.2163C23.5179 29.6491 23.167 30 22.7341 30Z" fill="#F6712E"/>
<path d="M6.41838 28.3929H5.53928V22.995H7.09178C7.32106 22.995 7.5482 23.0314 7.77267 23.1048C7.99713 23.1782 8.19856 23.288 8.37696 23.4343C8.55535 23.5805 8.69946 23.7579 8.80928 23.9652C8.9191 24.1725 8.97428 24.4055 8.97428 24.6648C8.97428 24.9386 8.92767 25.1861 8.83499 25.4084C8.74231 25.6307 8.61267 25.8177 8.4466 25.9688C8.28053 26.1198 8.08017 26.2371 7.84606 26.3202C7.61196 26.4032 7.35267 26.4445 7.06981 26.4445H6.41785V28.3929H6.41838ZM6.41838 23.6614V25.8H7.2241C7.33124 25.8 7.43731 25.7818 7.54285 25.7448C7.64785 25.7084 7.74428 25.6484 7.83213 25.5654C7.91999 25.4823 7.99071 25.3666 8.04428 25.2177C8.09785 25.0688 8.12463 24.8845 8.12463 24.6648C8.12463 24.577 8.11231 24.4752 8.08821 24.3611C8.06356 24.2464 8.01374 24.1366 7.93821 24.0316C7.86213 23.9266 7.75606 23.8388 7.61946 23.768C7.48285 23.6973 7.30178 23.662 7.07731 23.662H6.41838V23.6614Z" fill="white"/>
<path d="M10.8498 28.3929H9.9707V22.995H11.5232C11.7525 22.995 11.9796 23.0314 12.2041 23.1048C12.4286 23.1782 12.63 23.288 12.8084 23.4343C12.9868 23.5805 13.1309 23.7579 13.2407 23.9652C13.3505 24.1725 13.4057 24.4055 13.4057 24.6648C13.4057 24.9386 13.3591 25.1861 13.2664 25.4084C13.1737 25.6307 13.0441 25.8177 12.878 25.9688C12.712 26.1198 12.5116 26.2371 12.2775 26.3202C12.0434 26.4032 11.7841 26.4445 11.5012 26.4445H10.8493V28.3929H10.8498ZM10.8498 23.6614V25.8H11.6555C11.7627 25.8 11.8687 25.7818 11.9743 25.7448C12.0793 25.7084 12.1757 25.6484 12.2636 25.5654C12.3514 25.4823 12.4221 25.3666 12.4757 25.2177C12.5293 25.0688 12.5561 24.8845 12.5561 24.6648C12.5561 24.577 12.5437 24.4752 12.5196 24.3611C12.495 24.2464 12.4452 24.1366 12.3696 24.0316C12.2936 23.9266 12.1875 23.8388 12.0509 23.768C11.9143 23.6973 11.7332 23.662 11.5087 23.662H10.8498V23.6614Z" fill="white"/>
<path d="M18.2175 22.995V23.5955H16.6061V28.3929H15.72V23.5955H14.1086V22.995H18.2175Z" fill="white"/>
<path d="M18.1607 16.0714H5.30359V7.5H18.1607V16.0714ZM6.37502 15H17.0893V8.57143H6.37502V15Z" fill="#BDBDBD"/>
<path d="M7.98159 18.75C7.88784 18.75 7.79249 18.7254 7.70624 18.6734C7.45231 18.5213 7.37034 18.1923 7.52248 17.9384L9.12963 15.2598C9.28177 15.0059 9.6107 14.9239 9.86463 15.0761C10.1186 15.2282 10.2005 15.5571 10.0484 15.8111L8.44124 18.4896C8.34106 18.6573 8.16374 18.75 7.98159 18.75Z" fill="#BDBDBD"/>
<path d="M15.4827 18.75C15.3005 18.75 15.1232 18.6573 15.023 18.4902L13.4159 15.8116C13.2637 15.5577 13.3457 15.2287 13.5996 15.0766C13.8536 14.925 14.1825 15.0064 14.3346 15.2604L15.9418 17.9389C16.0939 18.1929 16.012 18.5218 15.758 18.6739C15.6718 18.7254 15.5764 18.75 15.4827 18.75Z" fill="#BDBDBD"/>
<path d="M11.7322 8.57143C11.4364 8.57143 11.1964 8.33197 11.1964 8.03572V6.42857C11.1964 6.13232 11.4364 5.89286 11.7322 5.89286C12.0279 5.89286 12.2679 6.13232 12.2679 6.42857V8.03572C12.2679 8.33197 12.0279 8.57143 11.7322 8.57143Z" fill="#BDBDBD"/>
<path d="M17.0893 8.57143H6.375V15H17.0893V8.57143Z" fill="#E0E0E0"/>
</svg>
