<svg width="24" height="30" viewBox="0 0 24 30" fill="none" xmlns="http://www.w3.org/2000/svg">
<path d="M16.8134 0H1.2659C0.83304 0 0.482147 0.350893 0.482147 1.03179V29.4643C0.482147 29.6491 0.83304 30 1.2659 30H22.7341C23.167 30 23.5179 29.6491 23.5179 29.4643V6.9525C23.5179 6.57964 23.468 6.45964 23.3802 6.37125L17.1466 0.137679C17.0582 0.0498214 16.9382 0 16.8134 0Z" fill="white"/>
<path d="M17.0893 0.0808907V6.42857H23.437L17.0893 0.0808907Z" fill="#D9D7CA"/>
<path d="M22.7341 30H1.2659C0.83304 30 0.482147 29.6491 0.482147 29.2162V20.8929H23.5179V29.2162C23.5179 29.6491 23.167 30 22.7341 30Z" fill="#95A5A5"/>
<path d="M8.71446 22.9955V23.596H7.10303V28.3933H6.21696V23.596H4.60553V22.9955H8.71446Z" fill="white"/>
<path d="M12.2373 25.7705L13.6071 28.3929H12.5893L11.7321 26.3566H11.6587L10.7362 28.3929H9.71838L11.0882 25.7705L9.63052 22.9945H10.6339L11.5859 25.192H11.6593L12.6921 22.9945H13.6955L12.2373 25.7705Z" fill="white"/>
<path d="M18.712 22.995V23.5955H17.1005V28.3929H16.2145V23.5955H14.603V22.995H18.712Z" fill="white"/>
<path d="M6.91071 6.96428H3.69642C3.40017 6.96428 3.16071 6.72428 3.16071 6.42857C3.16071 6.13286 3.40017 5.89286 3.69642 5.89286H6.91071C7.20696 5.89286 7.44642 6.13286 7.44642 6.42857C7.44642 6.72428 7.20696 6.96428 6.91071 6.96428Z" fill="#C8BDB8"/>
<path d="M8.51785 9.64286H3.69642C3.40017 9.64286 3.16071 9.40286 3.16071 9.10714C3.16071 8.81143 3.40017 8.57143 3.69642 8.57143H8.51785C8.8141 8.57143 9.05356 8.81143 9.05356 9.10714C9.05356 9.40286 8.8141 9.64286 8.51785 9.64286Z" fill="#C8BDB8"/>
<path d="M10.6607 9.64286C10.5214 9.64286 10.3816 9.58393 10.2804 9.4875C10.1834 9.38571 10.125 9.25178 10.125 9.10714C10.125 8.9625 10.1834 8.82857 10.2857 8.72679C10.4786 8.52857 10.8429 8.52857 11.0411 8.72679C11.1375 8.82857 11.1964 8.96786 11.1964 9.10714C11.1964 9.24643 11.1375 9.38571 11.0411 9.4875C10.9393 9.58393 10.8 9.64286 10.6607 9.64286Z" fill="#C8BDB8"/>
<path d="M17.0893 9.64286H12.8036C12.5073 9.64286 12.2679 9.40286 12.2679 9.10714C12.2679 8.81143 12.5073 8.57143 12.8036 8.57143H17.0893C17.3855 8.57143 17.625 8.81143 17.625 9.10714C17.625 9.40286 17.3855 9.64286 17.0893 9.64286Z" fill="#C8BDB8"/>
<path d="M3.69642 17.6786C3.55713 17.6786 3.41731 17.6196 3.31606 17.5232C3.2191 17.4214 3.16071 17.2821 3.16071 17.1429C3.16071 17.0036 3.2191 16.8643 3.31606 16.7625C3.51428 16.5643 3.87856 16.5643 4.07678 16.7679C4.17321 16.8643 4.23213 17.0036 4.23213 17.1429C4.23213 17.2821 4.17321 17.4214 4.07678 17.5232C3.97499 17.6196 3.83571 17.6786 3.69642 17.6786Z" fill="#C8BDB8"/>
<path d="M10.125 17.6786H5.8393C5.54305 17.6786 5.30359 17.4386 5.30359 17.1429C5.30359 16.8471 5.54305 16.6071 5.8393 16.6071H10.125C10.4213 16.6071 10.6607 16.8471 10.6607 17.1429C10.6607 17.4386 10.4213 17.6786 10.125 17.6786Z" fill="#C8BDB8"/>
<path d="M20.3036 9.64286H19.2322C18.9359 9.64286 18.6964 9.40286 18.6964 9.10714C18.6964 8.81143 18.9359 8.57143 19.2322 8.57143H20.3036C20.5998 8.57143 20.8393 8.81143 20.8393 9.10714C20.8393 9.40286 20.5998 9.64286 20.3036 9.64286Z" fill="#C8BDB8"/>
<path d="M15.4821 12.3214H3.69642C3.40017 12.3214 3.16071 12.0814 3.16071 11.7857C3.16071 11.49 3.40017 11.25 3.69642 11.25H15.4821C15.7784 11.25 16.0178 11.49 16.0178 11.7857C16.0178 12.0814 15.7784 12.3214 15.4821 12.3214Z" fill="#C8BDB8"/>
<path d="M20.3036 12.3214H17.0893C16.7931 12.3214 16.5536 12.0814 16.5536 11.7857C16.5536 11.49 16.7931 11.25 17.0893 11.25H20.3036C20.5998 11.25 20.8393 11.49 20.8393 11.7857C20.8393 12.0814 20.5998 12.3214 20.3036 12.3214Z" fill="#C8BDB8"/>
<path d="M5.83928 15H3.69642C3.40017 15 3.16071 14.76 3.16071 14.4643C3.16071 14.1686 3.40017 13.9286 3.69642 13.9286H5.83928C6.13553 13.9286 6.37499 14.1686 6.37499 14.4643C6.37499 14.76 6.13553 15 5.83928 15Z" fill="#C8BDB8"/>
<path d="M13.3393 15H7.98216C7.68591 15 7.44644 14.76 7.44644 14.4643C7.44644 14.1686 7.68591 13.9286 7.98216 13.9286H13.3393C13.6355 13.9286 13.875 14.1686 13.875 14.4643C13.875 14.76 13.6355 15 13.3393 15Z" fill="#C8BDB8"/>
<path d="M20.3036 15H15.4822C15.1859 15 14.9464 14.76 14.9464 14.4643C14.9464 14.1686 15.1859 13.9286 15.4822 13.9286H20.3036C20.5998 13.9286 20.8393 14.1686 20.8393 14.4643C20.8393 14.76 20.5998 15 20.3036 15Z" fill="#C8BDB8"/>
</svg>
