<svg width="30" height="36" viewBox="0 0 30 36" fill="none" xmlns="http://www.w3.org/2000/svg">
<path d="M19.8134 2H4.2659C3.83304 2 3.48215 2.35089 3.48215 3.03179V31.4643C3.48215 31.6491 3.83304 32 4.2659 32H25.7341C26.167 32 26.5179 31.6491 26.5179 31.4643V8.9525C26.5179 8.57964 26.468 8.45964 26.3802 8.37125L20.1466 2.13768C20.0582 2.04982 19.9382 2 19.8134 2Z" fill="white"/>
<path d="M20.0893 2.08089V8.42857H26.437L20.0893 2.08089Z" fill="#D9D7CA"/>
<path d="M25.7341 32H4.2659C3.83304 32 3.48215 31.6491 3.48215 31.2163V22.8929H26.5179V31.2163C26.5179 31.6491 26.167 32 25.7341 32Z" fill="#6FCF97"/>
<path d="M10.9173 27.7705L12.2871 30.3929H11.2693L10.4121 28.3566H10.3387L9.41571 30.3929H8.39785L9.76768 27.7705L8.31 24.9945H9.31339L10.2654 27.192H10.3387L11.3716 24.9945H12.375L10.9173 27.7705Z" fill="white"/>
<path d="M14.4841 24.995V29.7264H16.9672V30.3929H13.5905V24.995H14.4841Z" fill="white"/>
<path d="M20.9148 28.9132C20.9148 29.1082 20.8746 29.2979 20.7937 29.4811C20.7129 29.6643 20.5998 29.825 20.4536 29.9643C20.3073 30.1036 20.1262 30.2145 19.9114 30.2975C19.6966 30.3805 19.4523 30.4218 19.1791 30.4218C19.0618 30.4218 18.9412 30.4154 18.8164 30.4036C18.6916 30.3918 18.5662 30.3704 18.4393 30.3414C18.3123 30.312 18.1912 30.2718 18.0766 30.2204C17.962 30.1689 17.8629 30.1068 17.7798 30.0334L17.9336 29.4034C18.0016 29.4425 18.0884 29.4805 18.1934 29.517C18.2984 29.5534 18.4066 29.5877 18.5191 29.6193C18.6311 29.6514 18.7436 29.6766 18.8561 29.6964C18.968 29.7157 19.073 29.7259 19.1711 29.7259C19.4689 29.7259 19.6971 29.6563 19.8557 29.517C20.0143 29.3777 20.0936 29.1714 20.0936 28.8982C20.0936 28.7321 20.0373 28.5907 19.9254 28.4734C19.8129 28.3561 19.6725 28.25 19.5043 28.1546C19.3361 28.0593 19.1539 27.9645 18.9584 27.8691C18.7629 27.7738 18.5796 27.6613 18.4093 27.5321C18.2384 27.403 18.097 27.2504 17.9845 27.0746C17.872 26.8989 17.8162 26.6793 17.8162 26.4157C17.8162 26.1768 17.8602 25.9641 17.948 25.7788C18.0359 25.5934 18.1543 25.4354 18.3032 25.3063C18.4521 25.1771 18.6257 25.078 18.8234 25.0095C19.0211 24.9409 19.23 24.9071 19.4496 24.9071C19.6741 24.9071 19.9012 24.928 20.1305 24.9693C20.3598 25.0105 20.5452 25.078 20.6871 25.1707C20.6577 25.2339 20.6234 25.3036 20.5848 25.3796C20.5457 25.4557 20.5087 25.5259 20.475 25.5918C20.4407 25.6577 20.4112 25.7129 20.3871 25.7568C20.3625 25.8007 20.348 25.8254 20.3432 25.8302C20.3137 25.8157 20.2811 25.7964 20.2441 25.7718C20.2071 25.7471 20.1546 25.723 20.0866 25.6984C20.018 25.6738 19.928 25.6571 19.8155 25.647C19.703 25.6368 19.5589 25.6395 19.3832 25.6545C19.2852 25.6646 19.193 25.692 19.1046 25.7386C19.0162 25.7852 18.9386 25.842 18.87 25.9105C18.8014 25.9791 18.7479 26.0557 18.7087 26.1414C18.6696 26.2266 18.6504 26.3091 18.6504 26.3868C18.6504 26.5818 18.7061 26.7393 18.8186 26.8593C18.9305 26.9793 19.0698 27.0838 19.2359 27.1743C19.402 27.2648 19.5825 27.3527 19.778 27.4379C19.973 27.523 20.1552 27.6275 20.3239 27.7491C20.4927 27.8707 20.6325 28.0239 20.745 28.2066C20.8586 28.3898 20.9148 28.625 20.9148 28.9132Z" fill="white"/>
<path d="M12.5893 10.5714V8.42857H6.16071V10.5714V11.6429V12.7143V13.7857V14.8571V15.9286V17V18.0714V20.2143H11.5178H12.5893H23.8393V18.0714V17V15.9286V14.8571V13.7857V12.7143V10.5714H12.5893ZM7.23213 9.5H11.5178V10.5714H7.23213V9.5ZM7.23213 11.6429H11.5178V12.7143H7.23213V11.6429ZM7.23213 13.7857H11.5178V14.8571H7.23213V13.7857ZM7.23213 15.9286H11.5178V17H7.23213V15.9286ZM11.5178 19.1429H7.23213V18.0714H11.5178V19.1429ZM22.7678 19.1429H12.5893V18.0714H22.7678V19.1429ZM22.7678 17H12.5893V15.9286H22.7678V17ZM22.7678 14.8571H12.5893V13.7857H22.7678V14.8571ZM12.5893 12.7143V11.6429H22.7678V12.7143H12.5893Z" fill="#BDBDBD"/>
<defs>
<filter id="filter0_d" x="-3" y="0" width="36" height="36" filterUnits="userSpaceOnUse" color-interpolation-filters="sRGB">
<feFlood flood-opacity="0" result="BackgroundImageFix"/>
<feColorMatrix in="SourceAlpha" type="matrix" values="0 0 0 0 0 0 0 0 0 0 0 0 0 0 0 0 0 0 127 0"/>
<feOffset dy="1"/>
<feGaussianBlur stdDeviation="1.5"/>
<feColorMatrix type="matrix" values="0 0 0 0 0 0 0 0 0 0 0 0 0 0 0 0 0 0 0.25 0"/>
<feBlend mode="normal" in2="BackgroundImageFix" result="effect1_dropShadow"/>
<feBlend mode="normal" in="SourceGraphic" in2="effect1_dropShadow" result="shape"/>
</filter>
</defs>
</svg>
