<svg width="12" height="12" viewBox="0 0 8 10" fill="none" xmlns="http://www.w3.org/2000/svg">
<path d="M6.53125 1.25C6.75977 1.25 6.95312 1.33789 7.12891 1.49609C7.28711 1.67188 7.375 1.86523 7.375 2.09375V8.28125C7.375 8.52734 7.28711 8.7207 7.12891 8.87891C6.95312 9.05469 6.75977 9.125 6.53125 9.125H1.46875C1.22266 9.125 1.0293 9.05469 0.871094 8.87891C0.695312 8.7207 0.625 8.52734 0.625 8.28125V2.09375C0.625 1.86523 0.695312 1.67188 0.871094 1.49609C1.0293 1.33789 1.22266 1.25 1.46875 1.25H2.875C2.875 0.951172 2.98047 0.6875 3.20898 0.458984C3.41992 0.248047 3.68359 0.125 4 0.125C4.29883 0.125 4.5625 0.248047 4.79102 0.458984C5.00195 0.6875 5.125 0.951172 5.125 1.25H6.53125ZM4 0.828125C3.87695 0.828125 3.77148 0.880859 3.70117 0.951172C3.61328 1.03906 3.57812 1.14453 3.57812 1.25C3.57812 1.37305 3.61328 1.47852 3.70117 1.54883C3.77148 1.63672 3.87695 1.67188 4 1.67188C4.10547 1.67188 4.21094 1.63672 4.29883 1.54883C4.36914 1.47852 4.42188 1.37305 4.42188 1.25C4.42188 1.14453 4.36914 1.03906 4.29883 0.951172C4.21094 0.880859 4.10547 0.828125 4 0.828125ZM6.12695 4.90625C6.16211 4.87109 6.19727 4.81836 6.19727 4.74805C6.19727 4.69531 6.16211 4.64258 6.12695 4.60742L5.63477 4.09766C5.59961 4.0625 5.54688 4.04492 5.49414 4.04492C5.42383 4.04492 5.37109 4.0625 5.33594 4.09766L3.47266 5.94336L2.66406 5.13477C2.62891 5.09961 2.57617 5.08203 2.52344 5.08203C2.45312 5.08203 2.40039 5.09961 2.36523 5.13477L1.87305 5.62695C1.82031 5.67969 1.80273 5.73242 1.80273 5.78516C1.80273 5.85547 1.82031 5.89062 1.87305 5.92578L3.31445 7.38477C3.34961 7.4375 3.40234 7.45508 3.47266 7.45508C3.52539 7.45508 3.57812 7.4375 3.61328 7.40234L6.12695 4.90625Z" fill="white"/>
</svg>
