<svg width="12" height="11" viewBox="0 0 12 11" fill="none" xmlns="http://www.w3.org/2000/svg">
<path d="M11.9062 3.29199C11.9531 3.24512 12 3.19824 12 3.10449C12 3.03418 11.9531 2.96387 11.9062 2.91699L9.65625 0.643555C9.5625 0.573242 9.46875 0.549805 9.35156 0.59668C9.23438 0.643555 9.1875 0.737305 9.1875 0.854492V2.54199H0.28125C0.1875 2.54199 0.117188 2.58887 0.0703125 2.63574C0.0234375 2.68262 0 2.75293 0 2.82324V3.38574C0 3.47949 0.0234375 3.5498 0.0703125 3.59668C0.117188 3.64355 0.1875 3.66699 0.28125 3.66699H9.1875V5.35449C9.1875 5.49512 9.23438 5.56543 9.35156 5.6123C9.46875 5.65918 9.5625 5.65918 9.65625 5.56543L11.9062 3.29199ZM0.09375 7.79199C0.0234375 7.74512 0 7.69824 0 7.60449C0 7.53418 0.0234375 7.46387 0.09375 7.41699L2.34375 5.14355C2.41406 5.07324 2.50781 5.0498 2.625 5.09668C2.74219 5.14355 2.8125 5.2373 2.8125 5.35449V7.04199H11.7188C11.7891 7.04199 11.8594 7.08887 11.9062 7.13574C11.9531 7.18262 12 7.25293 12 7.32324V7.88574C12 7.97949 11.9531 8.0498 11.9062 8.09668C11.8594 8.14355 11.7891 8.16699 11.7188 8.16699H2.8125V9.85449C2.8125 9.99512 2.74219 10.0654 2.625 10.1123C2.50781 10.1592 2.41406 10.1592 2.34375 10.0654L0.09375 7.79199Z"/>
</svg>
