<svg width="14" height="15" viewBox="0 0 14 15" fill="none" xmlns="http://www.w3.org/2000/svg">
<path d="M12.25 0.75C12.7148 0.75 13.125 0.941406 13.4805 1.26953C13.8086 1.625 14 2.03516 14 2.5V10.375C14 10.8672 13.8086 11.2773 13.4805 11.6055C13.125 11.9609 12.7148 12.125 12.25 12.125H8.3125L4.89453 14.6953C4.78516 14.7773 4.64844 14.7773 4.53906 14.7227C4.42969 14.668 4.375 14.5586 4.375 14.4219V12.125H1.75C1.25781 12.125 0.847656 11.9609 0.519531 11.6055C0.164062 11.2773 0 10.8672 0 10.375V2.5C0 2.03516 0.164062 1.625 0.519531 1.26953C0.847656 0.941406 1.25781 0.75 1.75 0.75H12.25ZM7.875 7.96875V7.53125C7.875 7.47656 7.84766 7.44922 7.79297 7.39453C7.73828 7.33984 7.71094 7.3125 7.65625 7.3125H3.71875C3.66406 7.3125 3.60938 7.33984 3.55469 7.39453C3.5 7.44922 3.5 7.47656 3.5 7.53125V7.96875C3.5 8.02344 3.5 8.07812 3.55469 8.13281C3.60938 8.1875 3.66406 8.1875 3.71875 8.1875H7.65625C7.71094 8.1875 7.73828 8.1875 7.79297 8.13281C7.84766 8.07812 7.875 8.02344 7.875 7.96875ZM10.5 5.34375V4.90625C10.5 4.85156 10.4727 4.82422 10.418 4.76953C10.3633 4.71484 10.3359 4.6875 10.2812 4.6875H3.71875C3.66406 4.6875 3.60938 4.71484 3.55469 4.76953C3.5 4.82422 3.5 4.85156 3.5 4.90625V5.34375C3.5 5.39844 3.5 5.45312 3.55469 5.50781C3.60938 5.5625 3.66406 5.5625 3.71875 5.5625H10.2812C10.3359 5.5625 10.3633 5.5625 10.418 5.50781C10.4727 5.45312 10.5 5.39844 10.5 5.34375Z" fill="#A4A4A4"/>
</svg>
