<svg width="40" height="34" viewBox="0 0 40 34" fill="none" xmlns="http://www.w3.org/2000/svg">
<path fill-rule="evenodd" clip-rule="evenodd" d="M39.48 28.2C39.48 27.2 39.2 26.2 38.64 25.36L24.48 3.24005C23.48 1.72005 21.84 0.800049 20 0.800049C18.2 0.800049 16.52 1.72005 15.52 3.24005L1.35999 25.32C0.319988 26.96 0.239988 29.04 1.15999 30.72C2.07999 32.44 3.87999 33.48 5.79999 33.48H34.16C36.12 33.48 37.88 32.44 38.8 30.72C39.24 29.96 39.48 29.08 39.48 28.2ZM36.68 29.6C36.16 30.52 35.2 31.08 34.16 31.08H5.83999C4.79999 31.08 3.79999 30.52 3.31999 29.6C2.79999 28.68 2.83999 27.56 3.39999 26.68L17.6 4.56005C18.12 3.72005 19.04 3.24005 20.04 3.24005C21.04 3.24005 21.92 3.72005 22.48 4.56005L36.64 26.68C36.92 27.12 37.08 27.68 37.08 28.24C37.04 28.68 36.92 29.16 36.68 29.6ZM21.44 25.1401C21.44 24.3337 20.7864 23.6801 19.98 23.6801C19.1737 23.6801 18.52 24.3337 18.52 25.1401V25.3001C18.52 26.1064 19.1737 26.7601 19.98 26.7601C20.7864 26.7601 21.44 26.1064 21.44 25.3001V25.1401ZM18.52 12.5801C18.52 11.7737 19.1737 11.1201 19.98 11.1201C20.7864 11.1201 21.44 11.7737 21.44 12.5801V19.6201C21.44 20.4264 20.7864 21.0801 19.98 21.0801C19.1737 21.0801 18.52 20.4264 18.52 19.6201V12.5801Z" fill="#F2994A"/>
</svg>
