<svg width="21" height="19" viewBox="0 0 21 19" fill="none" xmlns="http://www.w3.org/2000/svg">
<path d="M19.6871 2.35774C18.0571 0.72771 15.3976 0.72771 13.7676 2.35774L4.97401 11.1942C3.98742 12.1808 3.98742 13.7679 4.97401 14.7545C5.96061 15.7411 7.54774 15.7411 8.53433 14.7545L13.9821 9.2639C14.3252 8.92074 14.3252 8.40599 13.9821 8.06283C13.6389 7.71967 13.1241 7.71967 12.781 8.06283L7.29037 13.5106C6.9901 13.8108 6.47535 13.8108 6.17508 13.5106C5.87481 13.2103 5.87481 12.6955 6.17508 12.3953L14.9686 3.55881C15.9123 2.61511 17.4995 2.61511 18.4432 3.55881C19.3869 4.50251 19.3869 6.08964 18.4432 7.03334L9.64961 15.8698C8.01959 17.4998 5.40297 17.4998 3.81583 15.8698C2.18581 14.2398 2.18581 11.6232 3.81583 10.036L11.7086 2.14326C12.0518 1.8001 12.0518 1.28535 11.7086 0.942187C11.3654 0.599024 10.8507 0.599024 10.5075 0.942187L2.61476 8.79205C0.341303 11.0655 0.341303 14.7974 2.61476 17.0709C4.88822 19.3443 8.62012 19.3443 10.8936 17.0709L19.6871 8.27731C21.3172 6.64728 21.3172 3.98776 19.6871 2.35774Z" fill="black"/>
</svg>
