<svg width="21" height="21" viewBox="0 0 21 21" fill="none" xmlns="http://www.w3.org/2000/svg">
<path d="M19.5894 2.4629L18.3116 1.1674C17.8458 0.695093 17.2087 0.434998 16.5181 0.434998C15.7439 0.434998 14.9721 0.766724 14.4002 1.3459L13.089 2.68124L12.5948 2.18058C12.1214 1.69985 11.2499 1.72858 10.7462 2.23957L9.29403 3.71166C8.77423 4.23913 8.74818 5.06998 9.23581 5.56335L9.6928 6.02685L1.49808 14.3353C1.42224 14.4123 1.36937 14.5092 1.34639 14.615L0.332058 19.2132C0.265024 19.5702 0.342784 19.9046 0.5504 20.1551C0.748823 20.3937 1.03956 20.5255 1.37014 20.5255C1.4479 20.5255 1.52949 20.5179 1.61683 20.5014C4.54146 19.9314 5.56575 19.7249 5.96145 19.623C6.09973 19.6135 6.23035 19.5529 6.3288 19.4537L14.6327 11.0349L15.2314 11.6417C15.4589 11.873 15.7681 12.0002 16.1013 12.0002C16.1017 12.0002 16.1017 12.0002 16.1017 12.0002C16.4614 12.0002 16.818 11.8481 17.08 11.5827L18.5314 10.1106C19.0516 9.58429 19.0788 8.75344 18.5908 8.25892L18.0856 7.74639L19.4148 6.40454C20.5344 5.26878 20.613 3.50059 19.5894 2.4629ZM5.62895 18.526C5.08655 18.6474 2.89968 19.0799 1.47625 19.3576L2.43235 15.0241L5.64964 11.7623L11.2147 12.8621L5.62895 18.526ZM12.1827 11.8819L6.61724 10.7821L10.4999 6.84544L10.6719 7.02011L13.8244 10.2167L12.1827 11.8819ZM18.5969 5.59668L16.8686 7.34111C16.6472 7.56482 16.6468 7.92489 16.8678 8.14898L17.7718 9.06563C17.8029 9.09704 17.804 9.21119 17.7128 9.30351L16.2607 10.7756C16.2143 10.8227 16.1546 10.8511 16.1009 10.8511C16.0841 10.8511 16.0615 10.848 16.0488 10.8353L15.0418 9.81412C15.0414 9.81374 15.0414 9.81336 15.041 9.81297L11.5269 6.25055L10.0533 4.75663C10.0222 4.72522 10.0211 4.61107 10.1119 4.51876L11.564 3.04667C11.6104 2.99956 11.6697 2.97159 11.7238 2.97159C11.7402 2.97159 11.7628 2.97428 11.7762 2.98768L12.6806 3.90434C12.7883 4.01389 12.9357 4.07518 13.0894 4.07518C13.0897 4.07518 13.0897 4.07518 13.0901 4.07518C13.2441 4.07518 13.3916 4.01274 13.4992 3.90319L15.218 2.15224C15.5746 1.7914 16.0481 1.58417 16.5173 1.58417C16.8981 1.58417 17.244 1.72245 17.4922 1.97412L18.7701 3.26961C19.3558 3.86258 19.2772 4.90679 18.5969 5.59668Z" fill="black" stroke="black" stroke-width="0.5"/>
</svg>
