<svg width="60" height="60" viewBox="0 0 60 60" fill="none" xmlns="http://www.w3.org/2000/svg">
<g filter="url(#filter0_d)">
<circle cx="29" cy="28" r="20" fill="url(#paint0_linear)"/>
</g>
<g filter="url(#filter1_d)">
<path d="M30.5938 28L36.4062 33.8125C36.4531 33.9062 36.5 34 36.5 34.0938C36.5 34.1875 36.4531 34.2812 36.4062 34.3281L35.3281 35.4062C35.2344 35.5 35.1406 35.5 35.0469 35.5C34.9531 35.5 34.8594 35.5 34.8125 35.4062L29 29.5938L23.1875 35.4062C23.0938 35.5 23 35.5 22.9062 35.5C22.8125 35.5 22.7188 35.5 22.6719 35.4062L21.5938 34.3281C21.5 34.2812 21.5 34.1875 21.5 34.0938C21.5 34 21.5 33.9062 21.5938 33.8125L27.4062 28L21.5938 22.1875C21.5 22.1406 21.5 22.0469 21.5 21.9531C21.5 21.8594 21.5 21.7656 21.5938 21.6719L22.6719 20.5938C22.7188 20.5469 22.8125 20.5 22.9062 20.5C23 20.5 23.0938 20.5469 23.1875 20.5938L29 26.4062L34.8125 20.5938C34.8594 20.5469 34.9531 20.5 35.0469 20.5C35.1406 20.5 35.2344 20.5469 35.3281 20.5938L36.4062 21.6719C36.4531 21.7656 36.5 21.8594 36.5 21.9531C36.5 22.0469 36.4531 22.1406 36.4062 22.1875L35.4219 23.1719L30.5938 28Z" fill="white"/>
</g>
<defs>
<filter id="filter0_d" x="0" y="0" width="60" height="60" filterUnits="userSpaceOnUse" color-interpolation-filters="sRGB">
<feFlood flood-opacity="0" result="BackgroundImageFix"/>
<feColorMatrix in="SourceAlpha" type="matrix" values="0 0 0 0 0 0 0 0 0 0 0 0 0 0 0 0 0 0 127 0"/>
<feOffset dx="1" dy="2"/>
<feGaussianBlur stdDeviation="5"/>
<feColorMatrix type="matrix" values="0 0 0 0 0 0 0 0 0 0.631373 0 0 0 0 0.988235 0 0 0 0.5 0"/>
<feBlend mode="normal" in2="BackgroundImageFix" result="effect1_dropShadow"/>
<feBlend mode="normal" in="SourceGraphic" in2="effect1_dropShadow" result="shape"/>
</filter>
<filter id="filter1_d" x="19.5" y="18.5" width="23" height="23" filterUnits="userSpaceOnUse" color-interpolation-filters="sRGB">
<feFlood flood-opacity="0" result="BackgroundImageFix"/>
<feColorMatrix in="SourceAlpha" type="matrix" values="0 0 0 0 0 0 0 0 0 0 0 0 0 0 0 0 0 0 127 0"/>
<feOffset dx="2" dy="2"/>
<feGaussianBlur stdDeviation="2"/>
<feColorMatrix type="matrix" values="0 0 0 0 0 0 0 0 0 0 0 0 0 0 0 0 0 0 0.3 0"/>
<feBlend mode="normal" in2="BackgroundImageFix" result="effect1_dropShadow"/>
<feBlend mode="normal" in="SourceGraphic" in2="effect1_dropShadow" result="shape"/>
</filter>
<linearGradient id="paint0_linear" x1="29" y1="8" x2="29" y2="48" gradientUnits="userSpaceOnUse">
<stop stop-color="#13CEE8"/>
<stop offset="1" stop-color="#00A1FC"/>
</linearGradient>
</defs>
</svg>
