<svg width="60" height="60" viewBox="0 0 60 60" fill="none" xmlns="http://www.w3.org/2000/svg">
<g filter="url(#filter0_d)">
<circle cx="29" cy="28" r="20" fill="url(#paint0_linear)"/>
</g>
<g filter="url(#filter1_d)">
<path d="M36.04 22.5333H21.98C21.5079 22.5333 21.0552 22.7209 20.7214 23.0547C20.3875 23.3885 20.2 23.8412 20.2 24.3133V32.1333C20.1974 32.3661 20.2409 32.5971 20.3282 32.813C20.4155 33.0288 20.5447 33.2252 20.7084 33.3908C20.8721 33.5563 21.067 33.6878 21.2818 33.7775C21.4967 33.8672 21.7272 33.9133 21.96 33.9133H24.2V37.1933L27.42 34.2333L27.76 33.9133H36.04C36.5086 33.9081 36.9562 33.7182 37.2857 33.385C37.6152 33.0517 37.8 32.602 37.8 32.1333V24.3133C37.8 23.8447 37.6152 23.3949 37.2857 23.0617C36.9562 22.7284 36.5086 22.5386 36.04 22.5333ZM24.94 29.5533C24.7098 29.5573 24.4836 29.4927 24.2902 29.3676C24.0968 29.2426 23.945 29.0629 23.8542 28.8513C23.7633 28.6397 23.7374 28.4058 23.7799 28.1795C23.8224 27.9532 23.9313 27.7447 24.0927 27.5804C24.2541 27.4162 24.4607 27.3037 24.6862 27.2573C24.9118 27.2109 25.146 27.2327 25.3592 27.3198C25.5723 27.407 25.7547 27.5557 25.883 27.7468C26.0114 27.938 26.08 28.1631 26.08 28.3933V28.4333C26.08 28.5821 26.0504 28.7294 25.9929 28.8666C25.9353 29.0038 25.8511 29.1282 25.7449 29.2324C25.6388 29.3367 25.513 29.4188 25.3748 29.4739C25.2366 29.529 25.0888 29.556 24.94 29.5533ZM28.98 29.5533C28.6758 29.5481 28.3859 29.4236 28.1727 29.2066C27.9594 28.9896 27.84 28.6975 27.84 28.3933C27.8452 28.0892 27.9698 27.7992 28.1868 27.586C28.4037 27.3727 28.6958 27.2533 29 27.2533C29.1514 27.2533 29.3013 27.2834 29.4409 27.342C29.5806 27.4005 29.7071 27.4863 29.8133 27.5943C29.9194 27.7022 30.0029 27.8303 30.059 27.9709C30.1151 28.1115 30.1427 28.2619 30.14 28.4133C30.14 28.5647 30.1099 28.7146 30.0514 28.8543C29.9928 28.9939 29.9071 29.1205 29.7991 29.2266C29.6911 29.3327 29.563 29.4163 29.4224 29.4724C29.2818 29.5285 29.1314 29.556 28.98 29.5533ZM33.06 29.5533C32.8965 29.5763 32.7299 29.5642 32.5715 29.5176C32.413 29.4711 32.2663 29.3913 32.1412 29.2835C32.0161 29.1757 31.9154 29.0424 31.846 28.8926C31.7765 28.7428 31.7398 28.5799 31.7384 28.4147C31.737 28.2496 31.7708 28.0861 31.8377 27.9351C31.9045 27.784 32.0028 27.6491 32.126 27.5391C32.2493 27.4292 32.3945 27.3468 32.5522 27.2975C32.7098 27.2482 32.8761 27.2332 33.04 27.2533C33.3442 27.2533 33.6363 27.3727 33.8533 27.586C34.0702 27.7992 34.1948 28.0892 34.2 28.3933C34.2027 28.5447 34.1751 28.6951 34.119 28.8357C34.0629 28.9764 33.9794 29.1044 33.8733 29.2124C33.7671 29.3204 33.6406 29.4061 33.5009 29.4647C33.3613 29.5232 33.2114 29.5533 33.06 29.5533Z" fill="white"/>
</g>
<defs>
<filter id="filter0_d" x="0" y="0" width="60" height="60" filterUnits="userSpaceOnUse" color-interpolation-filters="sRGB">
<feFlood flood-opacity="0" result="BackgroundImageFix"/>
<feColorMatrix in="SourceAlpha" type="matrix" values="0 0 0 0 0 0 0 0 0 0 0 0 0 0 0 0 0 0 127 0"/>
<feOffset dx="1" dy="2"/>
<feGaussianBlur stdDeviation="5"/>
<feColorMatrix type="matrix" values="0 0 0 0 0 0 0 0 0 0.631373 0 0 0 0 0.988235 0 0 0 0.5 0"/>
<feBlend mode="normal" in2="BackgroundImageFix" result="effect1_dropShadow"/>
<feBlend mode="normal" in="SourceGraphic" in2="effect1_dropShadow" result="shape"/>
</filter>
<filter id="filter1_d" x="14.1999" y="16.5333" width="33.6001" height="30.66" filterUnits="userSpaceOnUse" color-interpolation-filters="sRGB">
<feFlood flood-opacity="0" result="BackgroundImageFix"/>
<feColorMatrix in="SourceAlpha" type="matrix" values="0 0 0 0 0 0 0 0 0 0 0 0 0 0 0 0 0 0 127 0"/>
<feOffset dx="2" dy="2"/>
<feGaussianBlur stdDeviation="4"/>
<feColorMatrix type="matrix" values="0 0 0 0 0 0 0 0 0 0 0 0 0 0 0 0 0 0 0.5 0"/>
<feBlend mode="normal" in2="BackgroundImageFix" result="effect1_dropShadow"/>
<feBlend mode="normal" in="SourceGraphic" in2="effect1_dropShadow" result="shape"/>
</filter>
<linearGradient id="paint0_linear" x1="29" y1="8" x2="29" y2="48" gradientUnits="userSpaceOnUse">
<stop stop-color="#13CEE8"/>
<stop offset="1" stop-color="#00A1FC"/>
</linearGradient>
</defs>
</svg>
