<svg width="5" height="15" viewBox="0 0 5 20" fill="none" xmlns="http://www.w3.org/2000/svg">
<g clip-path="url(#clip0)">
<path d="M0.70923 15.8156C0.25238 16.2926 -0.00182589 16.9281 9.87398e-06 17.5886C0.00534558 18.2478 0.258532 18.8807 0.70923 19.3617C1.19731 19.8011 1.82581 20.0525 2.48228 20.0709C3.13875 20.0525 3.76725 19.8011 4.25533 19.3617C4.48475 19.1276 4.66554 18.8504 4.78726 18.5461C4.90899 18.2418 4.96924 17.9164 4.96455 17.5886C4.94613 16.9322 4.69473 16.3037 4.25533 15.8156C3.77138 15.372 3.13875 15.126 2.48228 15.126C1.82581 15.126 1.19318 15.372 0.70923 15.8156Z" fill="#666666"/>
<path d="M4.25532 8.43972C3.77137 7.99615 3.13874 7.7501 2.48227 7.7501C1.8258 7.7501 1.19317 7.99615 0.70922 8.43972C0.26982 8.92779 0.0184198 9.55629 0 10.2128C0.0184198 10.8692 0.26982 11.4977 0.70922 11.9858C0.9433 12.2152 1.2205 12.396 1.52481 12.5177C1.82913 12.6395 2.15454 12.6997 2.48227 12.695C3.13874 12.6766 3.76724 12.4252 4.25532 11.9858C4.48474 11.7517 4.66553 11.4745 4.78725 11.1702C4.90898 10.8659 4.96923 10.5405 4.96454 10.2128C4.94612 9.55629 4.69472 8.92779 4.25532 8.43972Z" fill="#666666"/>
<path d="M4.25532 0.70922C3.77137 0.265658 3.13874 0.0195999 2.48227 0.0195999C1.8258 0.0195999 1.19317 0.265658 0.70922 0.70922C0.258522 1.19019 0.0053357 1.82316 0 2.48227C0.0184198 3.13874 0.26982 3.76724 0.70922 4.25532C1.1973 4.69472 1.8258 4.94612 2.48227 4.96454C3.13874 4.94612 3.76724 4.69472 4.25532 4.25532C4.49153 4.02624 4.67678 3.74993 4.79899 3.44442C4.9212 3.13891 4.9776 2.81106 4.96454 2.48227C4.94612 1.8258 4.69472 1.1973 4.25532 0.70922Z" fill="#666666"/>
</g>
<defs>
<clipPath id="clip0">
<rect width="4.96454" height="20" fill="white"/>
</clipPath>
</defs>
</svg>
