<svg width="32" height="32" viewBox="0 0 34 35" fill="none" xmlns="http://www.w3.org/2000/svg">
<g filter="url(#filter0_d)">
<path d="M16.5972 20.0249C16.891 19.6151 17.0284 19.1136 16.9845 18.6113C16.9458 18.3015 16.9458 17.8561 17.1201 17.6044L19.9085 13.6154C19.9996 13.4432 20.1172 13.2864 20.257 13.1507H20.2764C20.6249 13.4992 21.2446 13.4992 21.7868 13.1894C21.849 13.1496 21.9009 13.0954 21.9381 13.0315C21.9752 12.9675 21.9966 12.8956 22.0004 12.8218C22.0042 12.7479 21.9903 12.6742 21.9598 12.6068C21.9294 12.5394 21.8834 12.4803 21.8255 12.4342L17.5461 8.15482C17.4965 8.10153 17.4355 8.06009 17.3677 8.03361C17.2999 8.00713 17.227 7.99627 17.1545 8.00185C17.0819 8.00744 17.0115 8.02931 16.9486 8.06585C16.8856 8.1024 16.8317 8.15266 16.7909 8.21292C16.4811 8.7551 16.4617 9.35538 16.8296 9.7233H16.849C16.7084 9.85743 16.5524 9.97443 16.3842 10.0718L12.3953 12.8602C12.1436 13.0539 11.6982 13.0539 11.369 13.0152C10.873 12.9742 10.3786 13.1116 9.9748 13.4024C9.91547 13.4468 9.86664 13.5036 9.83182 13.569C9.79699 13.6344 9.77701 13.7066 9.77332 13.7806C9.76962 13.8546 9.78229 13.9285 9.81042 13.997C9.83855 14.0655 9.88146 14.127 9.93607 14.177L12.4727 16.7137L9.66498 19.5408C8.54187 20.722 7.82541 21.8063 8.03841 22.0193C8.25142 22.2323 9.31643 21.5159 10.4976 20.3734H10.517L13.3247 17.5657L15.8227 20.0442C15.8713 20.1 15.9317 20.1443 15.9994 20.174C16.0671 20.2038 16.1406 20.2183 16.2145 20.2164C16.2885 20.2146 16.3611 20.1964 16.4272 20.1633C16.4934 20.1302 16.5514 20.083 16.5972 20.0249Z" fill="#00A1FC"/>
</g>
<defs>
<filter id="filter0_d" x="0.000976562" y="0.000427246" width="34" height="34.0563" filterUnits="userSpaceOnUse" color-interpolation-filters="sRGB">
<feFlood flood-opacity="0" result="BackgroundImageFix"/>
<feColorMatrix in="SourceAlpha" type="matrix" values="0 0 0 0 0 0 0 0 0 0 0 0 0 0 0 0 0 0 127 0"/>
<feOffset dx="2" dy="2"/>
<feGaussianBlur stdDeviation="5"/>
<feColorMatrix type="matrix" values="0 0 0 0 0 0 0 0 0 0 0 0 0 0 0 0 0 0 0.5 0"/>
<feBlend mode="normal" in2="BackgroundImageFix" result="effect1_dropShadow"/>
<feBlend mode="normal" in="SourceGraphic" in2="effect1_dropShadow" result="shape"/>
</filter>
</defs>
</svg>
