<svg width="7" height="12" viewBox="0 0 7 12" fill="none" xmlns="http://www.w3.org/2000/svg">
<path d="M6.67856 5.26311L1.90861 0.229319L1.83408 0.149838C1.71943 0.0514668 1.56551 -0.00240222 1.40617 8.20273e-05C1.32727 0.0013121 1.24942 0.0163402 1.17706 0.0443083C1.1047 0.0722764 1.03924 0.112637 0.984433 0.163085C0.929623 0.213533 0.886531 0.273082 0.857617 0.33833C0.828703 0.403578 0.814534 0.473248 0.815918 0.543363C0.818714 0.684965 0.884692 0.819782 0.999339 0.918153L5.44135 5.60752L0.999338 10.2969L0.924808 10.3764C0.879351 10.4336 0.84713 10.4984 0.830012 10.5668C0.812893 10.6352 0.811217 10.7059 0.82508 10.7749C0.838944 10.8439 0.868072 10.9098 0.910777 10.9687C0.953482 11.0276 1.00892 11.0784 1.07387 11.1182C1.20526 11.1964 1.36564 11.2262 1.5213 11.2015C1.67695 11.1768 1.81578 11.0995 1.90861 10.9857L6.67856 5.95194C6.7532 5.86793 6.7997 5.76693 6.81271 5.66051C6.82894 5.51749 6.78069 5.37458 6.67856 5.26311Z" fill="#666666"/>
</svg>
