<svg width="31" height="31" viewBox="0 -5 31 31" fill="none" xmlns="http://www.w3.org/2000/svg">
<circle cx="13" cy="14" r="12" fill="url(#paint0_linear)"/>
<g filter="url(#filter0_d)">
<path d="M14.8321 17.2764C15.0587 16.9603 15.1647 16.5735 15.1308 16.186C15.1009 15.947 15.1009 15.6034 15.2354 15.4092L17.3864 12.332C17.4567 12.1992 17.5474 12.0782 17.6553 11.9735H17.6702C17.9391 12.2424 18.4171 12.2424 18.8354 12.0034C18.8834 11.9727 18.9234 11.9309 18.9521 11.8816C18.9808 11.8322 18.9972 11.7768 19.0002 11.7198C19.0031 11.6628 18.9924 11.606 18.9689 11.554C18.9454 11.502 18.9099 11.4563 18.8652 11.4208L15.564 8.11959C15.5258 8.07848 15.4787 8.04652 15.4264 8.02609C15.3741 8.00566 15.3179 7.99728 15.2619 8.00159C15.2059 8.00589 15.1516 8.02277 15.1031 8.05096C15.0545 8.07915 15.0129 8.11793 14.9814 8.16441C14.7424 8.58266 14.7275 9.04574 15.0113 9.32955H15.0262C14.9178 9.43303 14.7974 9.52328 14.6677 9.59843L11.5906 11.7495C11.3964 11.8988 11.0528 11.8988 10.7989 11.869C10.4162 11.8374 10.0349 11.9433 9.72334 12.1677C9.67757 12.2019 9.63991 12.2458 9.61304 12.2962C9.58617 12.3467 9.57076 12.4024 9.56791 12.4595C9.56506 12.5165 9.57483 12.5735 9.59653 12.6264C9.61823 12.6792 9.65133 12.7266 9.69346 12.7652L11.6503 14.7221L9.48433 16.903C8.61795 17.8142 8.06525 18.6507 8.22956 18.815C8.39388 18.9793 9.21546 18.4266 10.1267 17.5453H10.1416L12.3076 15.3793L14.2345 17.2914C14.2721 17.3344 14.3186 17.3685 14.3709 17.3915C14.4231 17.4145 14.4798 17.4256 14.5368 17.4242C14.5938 17.4228 14.6499 17.4088 14.7009 17.3833C14.7519 17.3577 14.7967 17.3212 14.8321 17.2764Z" fill="white"/>
</g>
<defs>
<filter id="filter0_d" x="0.200684" y="0.000488281" width="30.7999" height="30.8434" filterUnits="userSpaceOnUse" color-interpolation-filters="sRGB">
<feFlood flood-opacity="0" result="BackgroundImageFix"/>
<feColorMatrix in="SourceAlpha" type="matrix" values="0 0 0 0 0 0 0 0 0 0 0 0 0 0 0 0 0 0 127 0"/>
<feOffset dx="2" dy="2"/>
<feGaussianBlur stdDeviation="5"/>
<feColorMatrix type="matrix" values="0 0 0 0 0 0 0 0 0 0 0 0 0 0 0 0 0 0 0.5 0"/>
<feBlend mode="normal" in2="BackgroundImageFix" result="effect1_dropShadow"/>
<feBlend mode="normal" in="SourceGraphic" in2="effect1_dropShadow" result="shape"/>
</filter>
<linearGradient id="paint0_linear" x1="13" y1="2" x2="13" y2="26" gradientUnits="userSpaceOnUse">
<stop stop-color="#13CEE8"/>
<stop offset="1" stop-color="#00A1FC"/>
</linearGradient>
</defs>
</svg>
