<svg width="7" height="12" viewBox="0 0 7 12" fill="none" xmlns="http://www.w3.org/2000/svg">
<path d="M0.855133 6.73718L5.62508 11.7707L5.69961 11.8502C5.81426 11.9485 5.96818 12.0024 6.12752 11.9999C6.20642 11.9987 6.28427 11.9837 6.35663 11.9557C6.42899 11.9277 6.49445 11.8874 6.54926 11.8369C6.60407 11.7865 6.64716 11.7269 6.67607 11.6617C6.70499 11.5964 6.71916 11.5268 6.71777 11.4567C6.71498 11.3151 6.649 11.1803 6.53435 11.0819L2.09234 6.39279L6.53435 1.70368L6.60888 1.6242C6.65434 1.56693 6.68656 1.50222 6.70368 1.43381C6.7208 1.3654 6.72247 1.29465 6.70861 1.22566C6.69475 1.15667 6.66562 1.09081 6.62291 1.03189C6.58021 0.972972 6.52477 0.922168 6.45982 0.88242C6.32843 0.80425 6.16805 0.774379 6.0124 0.79908C5.85674 0.82378 5.71791 0.901131 5.62508 1.01488L0.855133 6.04839C0.78049 6.1324 0.733996 6.23339 0.720979 6.3398C0.704756 6.48282 0.752998 6.62572 0.855133 6.73718Z" fill="#666666"/>
</svg>
