<svg width="12" height="12" viewBox="0 0 12 12" fill="none" xmlns="http://www.w3.org/2000/svg">
<circle cx="6" cy="6" r="6" fill="#A4A4A4"/>
<path fill-rule="evenodd" clip-rule="evenodd" d="M6.67216 6L9.36079 8.68863C9.5464 8.87424 9.5464 9.17518 9.36079 9.36079C9.17518 9.5464 8.87424 9.5464 8.68863 9.36079L6 6.67216L3.31137 9.36079C3.12576 9.5464 2.82482 9.5464 2.63921 9.36079C2.4536 9.17518 2.4536 8.87424 2.63921 8.68863L5.32784 6L2.63921 3.31137C2.4536 3.12576 2.4536 2.82482 2.63921 2.63921C2.82482 2.4536 3.12576 2.4536 3.31137 2.63921L6 5.32784L8.68863 2.63921C8.87424 2.4536 9.17518 2.4536 9.36079 2.63921C9.5464 2.82482 9.5464 3.12576 9.36079 3.31137L6.67216 6Z" fill="white"/>
</svg>
